%TF.GenerationSoftware,KiCad,Pcbnew,(5.1.9)-1*%
%TF.CreationDate,2021-04-28T20:19:28+10:00*%
%TF.ProjectId,Gotek-PS2,476f7465-6b2d-4505-9332-2e6b69636164,rev?*%
%TF.SameCoordinates,Original*%
%TF.FileFunction,Soldermask,Bot*%
%TF.FilePolarity,Negative*%
%FSLAX46Y46*%
G04 Gerber Fmt 4.6, Leading zero omitted, Abs format (unit mm)*
G04 Created by KiCad (PCBNEW (5.1.9)-1) date 2021-04-28 20:19:28*
%MOMM*%
%LPD*%
G01*
G04 APERTURE LIST*
%ADD10O,1.700000X1.700000*%
%ADD11R,1.700000X1.700000*%
G04 APERTURE END LIST*
D10*
%TO.C,J6*%
X131318000Y-61214000D03*
X128778000Y-61214000D03*
X126238000Y-61214000D03*
D11*
X123698000Y-61214000D03*
%TD*%
D10*
%TO.C,J5*%
X86360000Y-110490000D03*
X88900000Y-110490000D03*
X86360000Y-107950000D03*
X88900000Y-107950000D03*
X86360000Y-105410000D03*
X88900000Y-105410000D03*
X86360000Y-102870000D03*
X88900000Y-102870000D03*
X86360000Y-100330000D03*
X88900000Y-100330000D03*
X86360000Y-97790000D03*
X88900000Y-97790000D03*
X86360000Y-95250000D03*
X88900000Y-95250000D03*
X86360000Y-92710000D03*
X88900000Y-92710000D03*
X86360000Y-90170000D03*
X88900000Y-90170000D03*
X86360000Y-87630000D03*
X88900000Y-87630000D03*
X86360000Y-85090000D03*
X88900000Y-85090000D03*
X86360000Y-82550000D03*
X88900000Y-82550000D03*
X86360000Y-80010000D03*
X88900000Y-80010000D03*
X86360000Y-77470000D03*
X88900000Y-77470000D03*
X86360000Y-74930000D03*
X88900000Y-74930000D03*
X86360000Y-72390000D03*
X88900000Y-72390000D03*
X86360000Y-69850000D03*
D11*
X88900000Y-69850000D03*
%TD*%
D10*
%TO.C,J4*%
X142240000Y-110490000D03*
X139700000Y-110490000D03*
X142240000Y-107950000D03*
X139700000Y-107950000D03*
X142240000Y-105410000D03*
X139700000Y-105410000D03*
X142240000Y-102870000D03*
X139700000Y-102870000D03*
X142240000Y-100330000D03*
X139700000Y-100330000D03*
X142240000Y-97790000D03*
X139700000Y-97790000D03*
X142240000Y-95250000D03*
X139700000Y-95250000D03*
X142240000Y-92710000D03*
X139700000Y-92710000D03*
X142240000Y-90170000D03*
X139700000Y-90170000D03*
X142240000Y-87630000D03*
X139700000Y-87630000D03*
X142240000Y-85090000D03*
X139700000Y-85090000D03*
X142240000Y-82550000D03*
X139700000Y-82550000D03*
X142240000Y-80010000D03*
X139700000Y-80010000D03*
X142240000Y-77470000D03*
X139700000Y-77470000D03*
X142240000Y-74930000D03*
X139700000Y-74930000D03*
X142240000Y-72390000D03*
X139700000Y-72390000D03*
X142240000Y-69850000D03*
D11*
X139700000Y-69850000D03*
%TD*%
D10*
%TO.C,J3*%
X115570000Y-58420000D03*
D11*
X113030000Y-58420000D03*
%TD*%
D10*
%TO.C,J2*%
X107950000Y-58420000D03*
D11*
X105410000Y-58420000D03*
%TD*%
D10*
%TO.C,J1*%
X100330000Y-58420000D03*
D11*
X97790000Y-58420000D03*
%TD*%
M02*
