M48
; DRILL file {KiCad (5.1.9)-1} date 04/28/21 20:19:42
; FORMAT={-:-/ absolute / metric / decimal}
; #@! TF.CreationDate,2021-04-28T20:19:42+10:00
; #@! TF.GenerationSoftware,Kicad,Pcbnew,(5.1.9)-1
; #@! TF.FileFunction,Plated,1,2,PTH
FMAT,2
METRIC
T1C0.400
T2C0.600
T3C1.000
%
G90
G05
T1
X114.3Y-65.786
X115.316Y-72.644
X116.586Y-110.49
X117.856Y-102.87
X119.634Y-90.17
X120.65Y-70.104
X120.65Y-72.644
X122.936Y-72.644
T2
X97.79Y-66.04
X100.33Y-66.04
X105.41Y-66.04
X107.95Y-66.04
X108.966Y-72.39
X108.966Y-77.47
X108.966Y-82.55
X108.966Y-87.63
X108.966Y-92.71
X108.966Y-97.79
X108.966Y-102.87
X108.966Y-107.95
X113.03Y-66.04
X114.046Y-69.85
X114.046Y-74.93
X114.046Y-80.01
X114.046Y-85.09
X114.046Y-90.17
X114.046Y-95.25
X114.046Y-100.33
X114.046Y-105.41
X114.046Y-110.49
X115.57Y-66.04
T3
X86.36Y-69.85
X86.36Y-72.39
X86.36Y-74.93
X86.36Y-77.47
X86.36Y-80.01
X86.36Y-82.55
X86.36Y-85.09
X86.36Y-87.63
X86.36Y-90.17
X86.36Y-92.71
X86.36Y-95.25
X86.36Y-97.79
X86.36Y-100.33
X86.36Y-102.87
X86.36Y-105.41
X86.36Y-107.95
X86.36Y-110.49
X88.9Y-69.85
X88.9Y-72.39
X88.9Y-74.93
X88.9Y-77.47
X88.9Y-80.01
X88.9Y-82.55
X88.9Y-85.09
X88.9Y-87.63
X88.9Y-90.17
X88.9Y-92.71
X88.9Y-95.25
X88.9Y-97.79
X88.9Y-100.33
X88.9Y-102.87
X88.9Y-105.41
X88.9Y-107.95
X88.9Y-110.49
X97.79Y-58.42
X100.33Y-58.42
X105.41Y-58.42
X107.95Y-58.42
X113.03Y-58.42
X115.57Y-58.42
X123.698Y-61.214
X126.238Y-61.214
X128.778Y-61.214
X131.318Y-61.214
X139.7Y-69.85
X139.7Y-72.39
X139.7Y-74.93
X139.7Y-77.47
X139.7Y-80.01
X139.7Y-82.55
X139.7Y-85.09
X139.7Y-87.63
X139.7Y-90.17
X139.7Y-92.71
X139.7Y-95.25
X139.7Y-97.79
X139.7Y-100.33
X139.7Y-102.87
X139.7Y-105.41
X139.7Y-107.95
X139.7Y-110.49
X142.24Y-69.85
X142.24Y-72.39
X142.24Y-74.93
X142.24Y-77.47
X142.24Y-80.01
X142.24Y-82.55
X142.24Y-85.09
X142.24Y-87.63
X142.24Y-90.17
X142.24Y-92.71
X142.24Y-95.25
X142.24Y-97.79
X142.24Y-100.33
X142.24Y-102.87
X142.24Y-105.41
X142.24Y-107.95
X142.24Y-110.49
T0
M30
