G04 #@! TF.GenerationSoftware,KiCad,Pcbnew,(5.1.5)-2*
G04 #@! TF.CreationDate,2019-12-06T13:47:24+11:00*
G04 #@! TF.ProjectId,SWD-Breakout,5357442d-4272-4656-916b-6f75742e6b69,rev?*
G04 #@! TF.SameCoordinates,Original*
G04 #@! TF.FileFunction,Legend,Top*
G04 #@! TF.FilePolarity,Positive*
%FSLAX46Y46*%
G04 Gerber Fmt 4.6, Leading zero omitted, Abs format (unit mm)*
G04 Created by KiCad (PCBNEW (5.1.5)-2) date 2019-12-06 13:47:24*
%MOMM*%
%LPD*%
G04 APERTURE LIST*
%ADD10C,0.150000*%
%ADD11C,0.120000*%
G04 APERTURE END LIST*
D10*
X141128761Y-76557142D02*
X141081142Y-76604761D01*
X140938285Y-76652380D01*
X140843047Y-76652380D01*
X140700190Y-76604761D01*
X140604952Y-76509523D01*
X140557333Y-76414285D01*
X140509714Y-76223809D01*
X140509714Y-76080952D01*
X140557333Y-75890476D01*
X140604952Y-75795238D01*
X140700190Y-75700000D01*
X140843047Y-75652380D01*
X140938285Y-75652380D01*
X141081142Y-75700000D01*
X141128761Y-75747619D01*
X142033523Y-76652380D02*
X141557333Y-76652380D01*
X141557333Y-75652380D01*
X142366857Y-76652380D02*
X142366857Y-75652380D01*
X142938285Y-76652380D02*
X142509714Y-76080952D01*
X142938285Y-75652380D02*
X142366857Y-76223809D01*
X140557333Y-79192380D02*
X140557333Y-78192380D01*
X141224000Y-78192380D02*
X141414476Y-78192380D01*
X141509714Y-78240000D01*
X141604952Y-78335238D01*
X141652571Y-78525714D01*
X141652571Y-78859047D01*
X141604952Y-79049523D01*
X141509714Y-79144761D01*
X141414476Y-79192380D01*
X141224000Y-79192380D01*
X141128762Y-79144761D01*
X141033523Y-79049523D01*
X140985904Y-78859047D01*
X140985904Y-78525714D01*
X141033523Y-78335238D01*
X141128762Y-78240000D01*
X141224000Y-78192380D01*
X145288095Y-76970000D02*
X145192857Y-76922380D01*
X145050000Y-76922380D01*
X144907142Y-76970000D01*
X144811904Y-77065238D01*
X144764285Y-77160476D01*
X144716666Y-77350952D01*
X144716666Y-77493809D01*
X144764285Y-77684285D01*
X144811904Y-77779523D01*
X144907142Y-77874761D01*
X145050000Y-77922380D01*
X145145238Y-77922380D01*
X145288095Y-77874761D01*
X145335714Y-77827142D01*
X145335714Y-77493809D01*
X145145238Y-77493809D01*
X145764285Y-77922380D02*
X145764285Y-76922380D01*
X146335714Y-77922380D01*
X146335714Y-76922380D01*
X146811904Y-77922380D02*
X146811904Y-76922380D01*
X147050000Y-76922380D01*
X147192857Y-76970000D01*
X147288095Y-77065238D01*
X147335714Y-77160476D01*
X147383333Y-77350952D01*
X147383333Y-77493809D01*
X147335714Y-77684285D01*
X147288095Y-77779523D01*
X147192857Y-77874761D01*
X147050000Y-77922380D01*
X146811904Y-77922380D01*
X145454761Y-80367142D02*
X145407142Y-80414761D01*
X145264285Y-80462380D01*
X145169047Y-80462380D01*
X145026190Y-80414761D01*
X144930952Y-80319523D01*
X144883333Y-80224285D01*
X144835714Y-80033809D01*
X144835714Y-79890952D01*
X144883333Y-79700476D01*
X144930952Y-79605238D01*
X145026190Y-79510000D01*
X145169047Y-79462380D01*
X145264285Y-79462380D01*
X145407142Y-79510000D01*
X145454761Y-79557619D01*
X146359523Y-80462380D02*
X145883333Y-80462380D01*
X145883333Y-79462380D01*
X146692857Y-80462380D02*
X146692857Y-79462380D01*
X147264285Y-80462380D02*
X146835714Y-79890952D01*
X147264285Y-79462380D02*
X146692857Y-80033809D01*
X146796190Y-83002380D02*
X146796190Y-82002380D01*
X147462857Y-82002380D02*
X147653333Y-82002380D01*
X147748571Y-82050000D01*
X147843809Y-82145238D01*
X147891428Y-82335714D01*
X147891428Y-82669047D01*
X147843809Y-82859523D01*
X147748571Y-82954761D01*
X147653333Y-83002380D01*
X147462857Y-83002380D01*
X147367619Y-82954761D01*
X147272380Y-82859523D01*
X147224761Y-82669047D01*
X147224761Y-82335714D01*
X147272380Y-82145238D01*
X147367619Y-82050000D01*
X147462857Y-82002380D01*
X146558095Y-84542380D02*
X147177142Y-84542380D01*
X146843809Y-84923333D01*
X146986666Y-84923333D01*
X147081904Y-84970952D01*
X147129523Y-85018571D01*
X147177142Y-85113809D01*
X147177142Y-85351904D01*
X147129523Y-85447142D01*
X147081904Y-85494761D01*
X146986666Y-85542380D01*
X146700952Y-85542380D01*
X146605714Y-85494761D01*
X146558095Y-85447142D01*
X147462857Y-84542380D02*
X147796190Y-85542380D01*
X148129523Y-84542380D01*
X141081142Y-80780000D02*
X140985904Y-80732380D01*
X140843047Y-80732380D01*
X140700189Y-80780000D01*
X140604951Y-80875238D01*
X140557332Y-80970476D01*
X140509713Y-81160952D01*
X140509713Y-81303809D01*
X140557332Y-81494285D01*
X140604951Y-81589523D01*
X140700189Y-81684761D01*
X140843047Y-81732380D01*
X140938285Y-81732380D01*
X141081142Y-81684761D01*
X141128761Y-81637142D01*
X141128761Y-81303809D01*
X140938285Y-81303809D01*
X141557332Y-81732380D02*
X141557332Y-80732380D01*
X142128761Y-81732380D01*
X142128761Y-80732380D01*
X142604951Y-81732380D02*
X142604951Y-80732380D01*
X142843047Y-80732380D01*
X142985904Y-80780000D01*
X143081142Y-80875238D01*
X143128761Y-80970476D01*
X143176380Y-81160952D01*
X143176380Y-81303809D01*
X143128761Y-81494285D01*
X143081142Y-81589523D01*
X142985904Y-81684761D01*
X142843047Y-81732380D01*
X142604951Y-81732380D01*
X140462095Y-83272380D02*
X141081142Y-83272380D01*
X140747809Y-83653333D01*
X140890666Y-83653333D01*
X140985904Y-83700952D01*
X141033523Y-83748571D01*
X141081142Y-83843809D01*
X141081142Y-84081904D01*
X141033523Y-84177142D01*
X140985904Y-84224761D01*
X140890666Y-84272380D01*
X140604952Y-84272380D01*
X140509714Y-84224761D01*
X140462095Y-84177142D01*
X141366857Y-83272380D02*
X141700190Y-84272380D01*
X142033523Y-83272380D01*
X141033523Y-85812380D02*
X140557333Y-85812380D01*
X140509714Y-86288571D01*
X140557333Y-86240952D01*
X140652571Y-86193333D01*
X140890666Y-86193333D01*
X140985904Y-86240952D01*
X141033523Y-86288571D01*
X141081142Y-86383809D01*
X141081142Y-86621904D01*
X141033523Y-86717142D01*
X140985904Y-86764761D01*
X140890666Y-86812380D01*
X140652571Y-86812380D01*
X140557333Y-86764761D01*
X140509714Y-86717142D01*
X141366857Y-85812380D02*
X141700190Y-86812380D01*
X142033523Y-85812380D01*
D11*
X151190000Y-86420000D02*
X149860000Y-86420000D01*
X151190000Y-85090000D02*
X151190000Y-86420000D01*
X151190000Y-83820000D02*
X148530000Y-83820000D01*
X148530000Y-83820000D02*
X148530000Y-76140000D01*
X151190000Y-83820000D02*
X151190000Y-76140000D01*
X151190000Y-76140000D02*
X148530000Y-76140000D01*
X134560000Y-74870000D02*
X135890000Y-74870000D01*
X134560000Y-76200000D02*
X134560000Y-74870000D01*
X137160000Y-74870000D02*
X139760000Y-74870000D01*
X137160000Y-77470000D02*
X137160000Y-74870000D01*
X134560000Y-77470000D02*
X137160000Y-77470000D01*
X139760000Y-74870000D02*
X139760000Y-87690000D01*
X134560000Y-77470000D02*
X134560000Y-87690000D01*
X134560000Y-87690000D02*
X139760000Y-87690000D01*
M02*
