G04 #@! TF.GenerationSoftware,KiCad,Pcbnew,(5.1.5)-2*
G04 #@! TF.CreationDate,2019-12-06T13:47:24+11:00*
G04 #@! TF.ProjectId,SWD-Breakout,5357442d-4272-4656-916b-6f75742e6b69,rev?*
G04 #@! TF.SameCoordinates,Original*
G04 #@! TF.FileFunction,Copper,L2,Bot*
G04 #@! TF.FilePolarity,Positive*
%FSLAX46Y46*%
G04 Gerber Fmt 4.6, Leading zero omitted, Abs format (unit mm)*
G04 Created by KiCad (PCBNEW (5.1.5)-2) date 2019-12-06 13:47:24*
%MOMM*%
%LPD*%
G04 APERTURE LIST*
%ADD10O,1.700000X1.700000*%
%ADD11R,1.700000X1.700000*%
%ADD12C,0.254000*%
G04 APERTURE END LIST*
D10*
X149860000Y-77470000D03*
X149860000Y-80010000D03*
X149860000Y-82550000D03*
D11*
X149860000Y-85090000D03*
D10*
X138430000Y-86360000D03*
X135890000Y-86360000D03*
X138430000Y-83820000D03*
X135890000Y-83820000D03*
X138430000Y-81280000D03*
X135890000Y-81280000D03*
X138430000Y-78740000D03*
X135890000Y-78740000D03*
X138430000Y-76200000D03*
D11*
X135890000Y-76200000D03*
D12*
G36*
X141750388Y-75373769D02*
G01*
X141771052Y-75398948D01*
X141796231Y-75419612D01*
X141796233Y-75419614D01*
X141871549Y-75481425D01*
X141899920Y-75496589D01*
X141986207Y-75542710D01*
X142110617Y-75580450D01*
X142207581Y-75590000D01*
X142207590Y-75590000D01*
X142239999Y-75593192D01*
X142272408Y-75590000D01*
X151732725Y-75590000D01*
X151739513Y-75590666D01*
X151740000Y-75595301D01*
X151740001Y-86962715D01*
X151739335Y-86969513D01*
X151734699Y-86970000D01*
X142272408Y-86970000D01*
X142239999Y-86966808D01*
X142207590Y-86970000D01*
X142207581Y-86970000D01*
X142110617Y-86979550D01*
X141986207Y-87017290D01*
X141917647Y-87053936D01*
X141871549Y-87078575D01*
X141805730Y-87132592D01*
X141771052Y-87161052D01*
X141750388Y-87186231D01*
X140696620Y-88240000D01*
X134017275Y-88240000D01*
X134010487Y-88239335D01*
X134010000Y-88234699D01*
X134010000Y-83673740D01*
X134405000Y-83673740D01*
X134405000Y-83966260D01*
X134462068Y-84253158D01*
X134574010Y-84523411D01*
X134736525Y-84766632D01*
X134943368Y-84973475D01*
X135117760Y-85090000D01*
X134943368Y-85206525D01*
X134736525Y-85413368D01*
X134574010Y-85656589D01*
X134462068Y-85926842D01*
X134405000Y-86213740D01*
X134405000Y-86506260D01*
X134462068Y-86793158D01*
X134574010Y-87063411D01*
X134736525Y-87306632D01*
X134943368Y-87513475D01*
X135186589Y-87675990D01*
X135456842Y-87787932D01*
X135743740Y-87845000D01*
X136036260Y-87845000D01*
X136323158Y-87787932D01*
X136593411Y-87675990D01*
X136836632Y-87513475D01*
X137043475Y-87306632D01*
X137160000Y-87132240D01*
X137276525Y-87306632D01*
X137483368Y-87513475D01*
X137726589Y-87675990D01*
X137996842Y-87787932D01*
X138283740Y-87845000D01*
X138576260Y-87845000D01*
X138863158Y-87787932D01*
X139133411Y-87675990D01*
X139376632Y-87513475D01*
X139583475Y-87306632D01*
X139745990Y-87063411D01*
X139857932Y-86793158D01*
X139915000Y-86506260D01*
X139915000Y-86213740D01*
X139857932Y-85926842D01*
X139745990Y-85656589D01*
X139583475Y-85413368D01*
X139376632Y-85206525D01*
X139202240Y-85090000D01*
X139376632Y-84973475D01*
X139583475Y-84766632D01*
X139745990Y-84523411D01*
X139857932Y-84253158D01*
X139860549Y-84240000D01*
X148371928Y-84240000D01*
X148371928Y-85940000D01*
X148384188Y-86064482D01*
X148420498Y-86184180D01*
X148479463Y-86294494D01*
X148558815Y-86391185D01*
X148655506Y-86470537D01*
X148765820Y-86529502D01*
X148885518Y-86565812D01*
X149010000Y-86578072D01*
X150710000Y-86578072D01*
X150834482Y-86565812D01*
X150954180Y-86529502D01*
X151064494Y-86470537D01*
X151161185Y-86391185D01*
X151240537Y-86294494D01*
X151299502Y-86184180D01*
X151335812Y-86064482D01*
X151348072Y-85940000D01*
X151348072Y-84240000D01*
X151335812Y-84115518D01*
X151299502Y-83995820D01*
X151240537Y-83885506D01*
X151161185Y-83788815D01*
X151064494Y-83709463D01*
X150954180Y-83650498D01*
X150881620Y-83628487D01*
X151013475Y-83496632D01*
X151175990Y-83253411D01*
X151287932Y-82983158D01*
X151345000Y-82696260D01*
X151345000Y-82403740D01*
X151287932Y-82116842D01*
X151175990Y-81846589D01*
X151013475Y-81603368D01*
X150806632Y-81396525D01*
X150632240Y-81280000D01*
X150806632Y-81163475D01*
X151013475Y-80956632D01*
X151175990Y-80713411D01*
X151287932Y-80443158D01*
X151345000Y-80156260D01*
X151345000Y-79863740D01*
X151287932Y-79576842D01*
X151175990Y-79306589D01*
X151013475Y-79063368D01*
X150806632Y-78856525D01*
X150624466Y-78734805D01*
X150741355Y-78665178D01*
X150957588Y-78470269D01*
X151131641Y-78236920D01*
X151256825Y-77974099D01*
X151301476Y-77826890D01*
X151180155Y-77597000D01*
X149987000Y-77597000D01*
X149987000Y-77617000D01*
X149733000Y-77617000D01*
X149733000Y-77597000D01*
X148539845Y-77597000D01*
X148418524Y-77826890D01*
X148463175Y-77974099D01*
X148588359Y-78236920D01*
X148762412Y-78470269D01*
X148978645Y-78665178D01*
X149095534Y-78734805D01*
X148913368Y-78856525D01*
X148706525Y-79063368D01*
X148544010Y-79306589D01*
X148432068Y-79576842D01*
X148375000Y-79863740D01*
X148375000Y-80156260D01*
X148432068Y-80443158D01*
X148544010Y-80713411D01*
X148706525Y-80956632D01*
X148913368Y-81163475D01*
X149087760Y-81280000D01*
X148913368Y-81396525D01*
X148706525Y-81603368D01*
X148544010Y-81846589D01*
X148432068Y-82116842D01*
X148375000Y-82403740D01*
X148375000Y-82696260D01*
X148432068Y-82983158D01*
X148544010Y-83253411D01*
X148706525Y-83496632D01*
X148838380Y-83628487D01*
X148765820Y-83650498D01*
X148655506Y-83709463D01*
X148558815Y-83788815D01*
X148479463Y-83885506D01*
X148420498Y-83995820D01*
X148384188Y-84115518D01*
X148371928Y-84240000D01*
X139860549Y-84240000D01*
X139915000Y-83966260D01*
X139915000Y-83673740D01*
X139857932Y-83386842D01*
X139745990Y-83116589D01*
X139583475Y-82873368D01*
X139376632Y-82666525D01*
X139194466Y-82544805D01*
X139311355Y-82475178D01*
X139527588Y-82280269D01*
X139701641Y-82046920D01*
X139826825Y-81784099D01*
X139871476Y-81636890D01*
X139750155Y-81407000D01*
X138557000Y-81407000D01*
X138557000Y-81427000D01*
X138303000Y-81427000D01*
X138303000Y-81407000D01*
X136017000Y-81407000D01*
X136017000Y-81427000D01*
X135763000Y-81427000D01*
X135763000Y-81407000D01*
X134569845Y-81407000D01*
X134448524Y-81636890D01*
X134493175Y-81784099D01*
X134618359Y-82046920D01*
X134792412Y-82280269D01*
X135008645Y-82475178D01*
X135125534Y-82544805D01*
X134943368Y-82666525D01*
X134736525Y-82873368D01*
X134574010Y-83116589D01*
X134462068Y-83386842D01*
X134405000Y-83673740D01*
X134010000Y-83673740D01*
X134010000Y-75350000D01*
X134401928Y-75350000D01*
X134401928Y-77050000D01*
X134414188Y-77174482D01*
X134450498Y-77294180D01*
X134509463Y-77404494D01*
X134588815Y-77501185D01*
X134685506Y-77580537D01*
X134795820Y-77639502D01*
X134868380Y-77661513D01*
X134736525Y-77793368D01*
X134574010Y-78036589D01*
X134462068Y-78306842D01*
X134405000Y-78593740D01*
X134405000Y-78886260D01*
X134462068Y-79173158D01*
X134574010Y-79443411D01*
X134736525Y-79686632D01*
X134943368Y-79893475D01*
X135125534Y-80015195D01*
X135008645Y-80084822D01*
X134792412Y-80279731D01*
X134618359Y-80513080D01*
X134493175Y-80775901D01*
X134448524Y-80923110D01*
X134569845Y-81153000D01*
X135763000Y-81153000D01*
X135763000Y-81133000D01*
X136017000Y-81133000D01*
X136017000Y-81153000D01*
X138303000Y-81153000D01*
X138303000Y-81133000D01*
X138557000Y-81133000D01*
X138557000Y-81153000D01*
X139750155Y-81153000D01*
X139871476Y-80923110D01*
X139826825Y-80775901D01*
X139701641Y-80513080D01*
X139527588Y-80279731D01*
X139311355Y-80084822D01*
X139194466Y-80015195D01*
X139376632Y-79893475D01*
X139583475Y-79686632D01*
X139745990Y-79443411D01*
X139857932Y-79173158D01*
X139915000Y-78886260D01*
X139915000Y-78593740D01*
X139857932Y-78306842D01*
X139745990Y-78036589D01*
X139583475Y-77793368D01*
X139376632Y-77586525D01*
X139202240Y-77470000D01*
X139376632Y-77353475D01*
X139583475Y-77146632D01*
X139605873Y-77113110D01*
X148418524Y-77113110D01*
X148539845Y-77343000D01*
X149733000Y-77343000D01*
X149733000Y-76149186D01*
X149987000Y-76149186D01*
X149987000Y-77343000D01*
X151180155Y-77343000D01*
X151301476Y-77113110D01*
X151256825Y-76965901D01*
X151131641Y-76703080D01*
X150957588Y-76469731D01*
X150741355Y-76274822D01*
X150491252Y-76125843D01*
X150216891Y-76028519D01*
X149987000Y-76149186D01*
X149733000Y-76149186D01*
X149503109Y-76028519D01*
X149228748Y-76125843D01*
X148978645Y-76274822D01*
X148762412Y-76469731D01*
X148588359Y-76703080D01*
X148463175Y-76965901D01*
X148418524Y-77113110D01*
X139605873Y-77113110D01*
X139745990Y-76903411D01*
X139857932Y-76633158D01*
X139915000Y-76346260D01*
X139915000Y-76053740D01*
X139857932Y-75766842D01*
X139745990Y-75496589D01*
X139583475Y-75253368D01*
X139376632Y-75046525D01*
X139133411Y-74884010D01*
X138863158Y-74772068D01*
X138576260Y-74715000D01*
X138283740Y-74715000D01*
X137996842Y-74772068D01*
X137726589Y-74884010D01*
X137483368Y-75046525D01*
X137351513Y-75178380D01*
X137329502Y-75105820D01*
X137270537Y-74995506D01*
X137191185Y-74898815D01*
X137094494Y-74819463D01*
X136984180Y-74760498D01*
X136864482Y-74724188D01*
X136740000Y-74711928D01*
X135040000Y-74711928D01*
X134915518Y-74724188D01*
X134795820Y-74760498D01*
X134685506Y-74819463D01*
X134588815Y-74898815D01*
X134509463Y-74995506D01*
X134450498Y-75105820D01*
X134414188Y-75225518D01*
X134401928Y-75350000D01*
X134010000Y-75350000D01*
X134010000Y-74327275D01*
X134010666Y-74320487D01*
X134015301Y-74320000D01*
X140696620Y-74320000D01*
X141750388Y-75373769D01*
G37*
X141750388Y-75373769D02*
X141771052Y-75398948D01*
X141796231Y-75419612D01*
X141796233Y-75419614D01*
X141871549Y-75481425D01*
X141899920Y-75496589D01*
X141986207Y-75542710D01*
X142110617Y-75580450D01*
X142207581Y-75590000D01*
X142207590Y-75590000D01*
X142239999Y-75593192D01*
X142272408Y-75590000D01*
X151732725Y-75590000D01*
X151739513Y-75590666D01*
X151740000Y-75595301D01*
X151740001Y-86962715D01*
X151739335Y-86969513D01*
X151734699Y-86970000D01*
X142272408Y-86970000D01*
X142239999Y-86966808D01*
X142207590Y-86970000D01*
X142207581Y-86970000D01*
X142110617Y-86979550D01*
X141986207Y-87017290D01*
X141917647Y-87053936D01*
X141871549Y-87078575D01*
X141805730Y-87132592D01*
X141771052Y-87161052D01*
X141750388Y-87186231D01*
X140696620Y-88240000D01*
X134017275Y-88240000D01*
X134010487Y-88239335D01*
X134010000Y-88234699D01*
X134010000Y-83673740D01*
X134405000Y-83673740D01*
X134405000Y-83966260D01*
X134462068Y-84253158D01*
X134574010Y-84523411D01*
X134736525Y-84766632D01*
X134943368Y-84973475D01*
X135117760Y-85090000D01*
X134943368Y-85206525D01*
X134736525Y-85413368D01*
X134574010Y-85656589D01*
X134462068Y-85926842D01*
X134405000Y-86213740D01*
X134405000Y-86506260D01*
X134462068Y-86793158D01*
X134574010Y-87063411D01*
X134736525Y-87306632D01*
X134943368Y-87513475D01*
X135186589Y-87675990D01*
X135456842Y-87787932D01*
X135743740Y-87845000D01*
X136036260Y-87845000D01*
X136323158Y-87787932D01*
X136593411Y-87675990D01*
X136836632Y-87513475D01*
X137043475Y-87306632D01*
X137160000Y-87132240D01*
X137276525Y-87306632D01*
X137483368Y-87513475D01*
X137726589Y-87675990D01*
X137996842Y-87787932D01*
X138283740Y-87845000D01*
X138576260Y-87845000D01*
X138863158Y-87787932D01*
X139133411Y-87675990D01*
X139376632Y-87513475D01*
X139583475Y-87306632D01*
X139745990Y-87063411D01*
X139857932Y-86793158D01*
X139915000Y-86506260D01*
X139915000Y-86213740D01*
X139857932Y-85926842D01*
X139745990Y-85656589D01*
X139583475Y-85413368D01*
X139376632Y-85206525D01*
X139202240Y-85090000D01*
X139376632Y-84973475D01*
X139583475Y-84766632D01*
X139745990Y-84523411D01*
X139857932Y-84253158D01*
X139860549Y-84240000D01*
X148371928Y-84240000D01*
X148371928Y-85940000D01*
X148384188Y-86064482D01*
X148420498Y-86184180D01*
X148479463Y-86294494D01*
X148558815Y-86391185D01*
X148655506Y-86470537D01*
X148765820Y-86529502D01*
X148885518Y-86565812D01*
X149010000Y-86578072D01*
X150710000Y-86578072D01*
X150834482Y-86565812D01*
X150954180Y-86529502D01*
X151064494Y-86470537D01*
X151161185Y-86391185D01*
X151240537Y-86294494D01*
X151299502Y-86184180D01*
X151335812Y-86064482D01*
X151348072Y-85940000D01*
X151348072Y-84240000D01*
X151335812Y-84115518D01*
X151299502Y-83995820D01*
X151240537Y-83885506D01*
X151161185Y-83788815D01*
X151064494Y-83709463D01*
X150954180Y-83650498D01*
X150881620Y-83628487D01*
X151013475Y-83496632D01*
X151175990Y-83253411D01*
X151287932Y-82983158D01*
X151345000Y-82696260D01*
X151345000Y-82403740D01*
X151287932Y-82116842D01*
X151175990Y-81846589D01*
X151013475Y-81603368D01*
X150806632Y-81396525D01*
X150632240Y-81280000D01*
X150806632Y-81163475D01*
X151013475Y-80956632D01*
X151175990Y-80713411D01*
X151287932Y-80443158D01*
X151345000Y-80156260D01*
X151345000Y-79863740D01*
X151287932Y-79576842D01*
X151175990Y-79306589D01*
X151013475Y-79063368D01*
X150806632Y-78856525D01*
X150624466Y-78734805D01*
X150741355Y-78665178D01*
X150957588Y-78470269D01*
X151131641Y-78236920D01*
X151256825Y-77974099D01*
X151301476Y-77826890D01*
X151180155Y-77597000D01*
X149987000Y-77597000D01*
X149987000Y-77617000D01*
X149733000Y-77617000D01*
X149733000Y-77597000D01*
X148539845Y-77597000D01*
X148418524Y-77826890D01*
X148463175Y-77974099D01*
X148588359Y-78236920D01*
X148762412Y-78470269D01*
X148978645Y-78665178D01*
X149095534Y-78734805D01*
X148913368Y-78856525D01*
X148706525Y-79063368D01*
X148544010Y-79306589D01*
X148432068Y-79576842D01*
X148375000Y-79863740D01*
X148375000Y-80156260D01*
X148432068Y-80443158D01*
X148544010Y-80713411D01*
X148706525Y-80956632D01*
X148913368Y-81163475D01*
X149087760Y-81280000D01*
X148913368Y-81396525D01*
X148706525Y-81603368D01*
X148544010Y-81846589D01*
X148432068Y-82116842D01*
X148375000Y-82403740D01*
X148375000Y-82696260D01*
X148432068Y-82983158D01*
X148544010Y-83253411D01*
X148706525Y-83496632D01*
X148838380Y-83628487D01*
X148765820Y-83650498D01*
X148655506Y-83709463D01*
X148558815Y-83788815D01*
X148479463Y-83885506D01*
X148420498Y-83995820D01*
X148384188Y-84115518D01*
X148371928Y-84240000D01*
X139860549Y-84240000D01*
X139915000Y-83966260D01*
X139915000Y-83673740D01*
X139857932Y-83386842D01*
X139745990Y-83116589D01*
X139583475Y-82873368D01*
X139376632Y-82666525D01*
X139194466Y-82544805D01*
X139311355Y-82475178D01*
X139527588Y-82280269D01*
X139701641Y-82046920D01*
X139826825Y-81784099D01*
X139871476Y-81636890D01*
X139750155Y-81407000D01*
X138557000Y-81407000D01*
X138557000Y-81427000D01*
X138303000Y-81427000D01*
X138303000Y-81407000D01*
X136017000Y-81407000D01*
X136017000Y-81427000D01*
X135763000Y-81427000D01*
X135763000Y-81407000D01*
X134569845Y-81407000D01*
X134448524Y-81636890D01*
X134493175Y-81784099D01*
X134618359Y-82046920D01*
X134792412Y-82280269D01*
X135008645Y-82475178D01*
X135125534Y-82544805D01*
X134943368Y-82666525D01*
X134736525Y-82873368D01*
X134574010Y-83116589D01*
X134462068Y-83386842D01*
X134405000Y-83673740D01*
X134010000Y-83673740D01*
X134010000Y-75350000D01*
X134401928Y-75350000D01*
X134401928Y-77050000D01*
X134414188Y-77174482D01*
X134450498Y-77294180D01*
X134509463Y-77404494D01*
X134588815Y-77501185D01*
X134685506Y-77580537D01*
X134795820Y-77639502D01*
X134868380Y-77661513D01*
X134736525Y-77793368D01*
X134574010Y-78036589D01*
X134462068Y-78306842D01*
X134405000Y-78593740D01*
X134405000Y-78886260D01*
X134462068Y-79173158D01*
X134574010Y-79443411D01*
X134736525Y-79686632D01*
X134943368Y-79893475D01*
X135125534Y-80015195D01*
X135008645Y-80084822D01*
X134792412Y-80279731D01*
X134618359Y-80513080D01*
X134493175Y-80775901D01*
X134448524Y-80923110D01*
X134569845Y-81153000D01*
X135763000Y-81153000D01*
X135763000Y-81133000D01*
X136017000Y-81133000D01*
X136017000Y-81153000D01*
X138303000Y-81153000D01*
X138303000Y-81133000D01*
X138557000Y-81133000D01*
X138557000Y-81153000D01*
X139750155Y-81153000D01*
X139871476Y-80923110D01*
X139826825Y-80775901D01*
X139701641Y-80513080D01*
X139527588Y-80279731D01*
X139311355Y-80084822D01*
X139194466Y-80015195D01*
X139376632Y-79893475D01*
X139583475Y-79686632D01*
X139745990Y-79443411D01*
X139857932Y-79173158D01*
X139915000Y-78886260D01*
X139915000Y-78593740D01*
X139857932Y-78306842D01*
X139745990Y-78036589D01*
X139583475Y-77793368D01*
X139376632Y-77586525D01*
X139202240Y-77470000D01*
X139376632Y-77353475D01*
X139583475Y-77146632D01*
X139605873Y-77113110D01*
X148418524Y-77113110D01*
X148539845Y-77343000D01*
X149733000Y-77343000D01*
X149733000Y-76149186D01*
X149987000Y-76149186D01*
X149987000Y-77343000D01*
X151180155Y-77343000D01*
X151301476Y-77113110D01*
X151256825Y-76965901D01*
X151131641Y-76703080D01*
X150957588Y-76469731D01*
X150741355Y-76274822D01*
X150491252Y-76125843D01*
X150216891Y-76028519D01*
X149987000Y-76149186D01*
X149733000Y-76149186D01*
X149503109Y-76028519D01*
X149228748Y-76125843D01*
X148978645Y-76274822D01*
X148762412Y-76469731D01*
X148588359Y-76703080D01*
X148463175Y-76965901D01*
X148418524Y-77113110D01*
X139605873Y-77113110D01*
X139745990Y-76903411D01*
X139857932Y-76633158D01*
X139915000Y-76346260D01*
X139915000Y-76053740D01*
X139857932Y-75766842D01*
X139745990Y-75496589D01*
X139583475Y-75253368D01*
X139376632Y-75046525D01*
X139133411Y-74884010D01*
X138863158Y-74772068D01*
X138576260Y-74715000D01*
X138283740Y-74715000D01*
X137996842Y-74772068D01*
X137726589Y-74884010D01*
X137483368Y-75046525D01*
X137351513Y-75178380D01*
X137329502Y-75105820D01*
X137270537Y-74995506D01*
X137191185Y-74898815D01*
X137094494Y-74819463D01*
X136984180Y-74760498D01*
X136864482Y-74724188D01*
X136740000Y-74711928D01*
X135040000Y-74711928D01*
X134915518Y-74724188D01*
X134795820Y-74760498D01*
X134685506Y-74819463D01*
X134588815Y-74898815D01*
X134509463Y-74995506D01*
X134450498Y-75105820D01*
X134414188Y-75225518D01*
X134401928Y-75350000D01*
X134010000Y-75350000D01*
X134010000Y-74327275D01*
X134010666Y-74320487D01*
X134015301Y-74320000D01*
X140696620Y-74320000D01*
X141750388Y-75373769D01*
M02*
