M48
; DRILL file {KiCad (5.1.9)-1} date 05/05/21 18:50:46
; FORMAT={-:-/ absolute / metric / decimal}
; #@! TF.CreationDate,2021-05-05T18:50:46+10:00
; #@! TF.GenerationSoftware,Kicad,Pcbnew,(5.1.9)-1
; #@! TF.FileFunction,NonPlated,1,2,NPTH
FMAT,2
METRIC
T1C0.500
T2C2.100
%
G90
G05
T1
X58.844Y-51.524
X58.844Y-52.324
X58.844Y-53.124
X58.844Y-77.94
X58.844Y-78.74
X58.844Y-79.54
X58.844Y-106.388
X58.844Y-107.188
X58.844Y-107.988
X61.044Y-51.524
X61.044Y-52.324
X61.044Y-53.124
X61.044Y-77.94
X61.044Y-78.74
X61.044Y-79.54
X61.044Y-106.388
X61.044Y-107.188
X61.044Y-107.988
X100.856Y-52.819
X100.856Y-53.619
X100.856Y-54.419
X100.856Y-78.626
X100.856Y-79.426
X100.856Y-80.226
X100.856Y-105.067
X100.856Y-105.867
X100.856Y-106.667
X103.056Y-52.819
X103.056Y-53.619
X103.056Y-54.419
X103.056Y-78.626
X103.056Y-79.426
X103.056Y-80.226
X103.056Y-105.067
X103.056Y-105.867
X103.056Y-106.667
T2
X25.654Y-50.8
X25.654Y-109.22
X52.324Y-50.8
X52.324Y-109.22
X67.615Y-50.8
X67.615Y-109.22
X94.285Y-50.8
X94.285Y-109.22
X108.306Y-54.61
X108.306Y-105.41
T0
M30
