%TF.GenerationSoftware,KiCad,Pcbnew,(5.1.9)-1*%
%TF.CreationDate,2021-05-05T18:50:43+10:00*%
%TF.ProjectId,panel,70616e65-6c2e-46b6-9963-61645f706362,rev?*%
%TF.SameCoordinates,Original*%
%TF.FileFunction,Soldermask,Bot*%
%TF.FilePolarity,Negative*%
%FSLAX46Y46*%
G04 Gerber Fmt 4.6, Leading zero omitted, Abs format (unit mm)*
G04 Created by KiCad (PCBNEW (5.1.9)-1) date 2021-05-05 18:50:43*
%MOMM*%
%LPD*%
G01*
G04 APERTURE LIST*
%ADD10C,0.500000*%
%ADD11O,1.700000X1.700000*%
%ADD12R,1.700000X1.700000*%
%ADD13C,2.100000*%
G04 APERTURE END LIST*
D10*
%TO.C,mouse-bite-2.54mm-slot*%
X103055600Y-52819400D03*
X103055600Y-54419400D03*
X100855600Y-54419400D03*
X100855600Y-52819400D03*
X103055600Y-53619400D03*
X100855600Y-53619400D03*
%TD*%
%TO.C,mouse-bite-2.54mm-slot*%
X103055600Y-78625800D03*
X103055600Y-80225800D03*
X100855600Y-80225800D03*
X100855600Y-78625800D03*
X103055600Y-79425800D03*
X100855600Y-79425800D03*
%TD*%
%TO.C,mouse-bite-2.54mm-slot*%
X103055600Y-105067200D03*
X103055600Y-106667200D03*
X100855600Y-106667200D03*
X100855600Y-105067200D03*
X103055600Y-105867200D03*
X100855600Y-105867200D03*
%TD*%
%TO.C,mouse-bite-2.54mm-slot*%
X61044000Y-77940000D03*
X61044000Y-79540000D03*
X58844000Y-79540000D03*
X58844000Y-77940000D03*
X61044000Y-78740000D03*
X58844000Y-78740000D03*
%TD*%
%TO.C,mouse-bite-2.54mm-slot*%
X61044000Y-51524000D03*
X61044000Y-53124000D03*
X58844000Y-53124000D03*
X58844000Y-51524000D03*
X61044000Y-52324000D03*
X58844000Y-52324000D03*
%TD*%
%TO.C,mouse-bite-2.54mm-slot*%
X61044000Y-106388000D03*
X61044000Y-107988000D03*
X58844000Y-107988000D03*
X58844000Y-106388000D03*
X61044000Y-107188000D03*
X58844000Y-107188000D03*
%TD*%
D11*
%TO.C,J9*%
X56134000Y-113030000D03*
D12*
X56134000Y-110490000D03*
%TD*%
D13*
%TO.C,H3*%
X25654000Y-50800000D03*
%TD*%
D11*
%TO.C,J5*%
X56084000Y-79960000D03*
D12*
X56084000Y-77420000D03*
%TD*%
D13*
%TO.C,H6*%
X52324000Y-109220000D03*
%TD*%
D11*
%TO.C,J8*%
X21844000Y-80010000D03*
D12*
X21844000Y-77470000D03*
%TD*%
D13*
%TO.C,H4*%
X25654000Y-109220000D03*
%TD*%
D11*
%TO.C,J12*%
X21844000Y-112980000D03*
D12*
X21844000Y-110440000D03*
%TD*%
D13*
%TO.C,H5*%
X52324000Y-50800000D03*
%TD*%
D11*
%TO.C,J3*%
X56134000Y-49580000D03*
D12*
X56134000Y-47040000D03*
%TD*%
D11*
%TO.C,J2*%
X21844000Y-49530000D03*
D12*
X21844000Y-46990000D03*
%TD*%
D13*
%TO.C,H2*%
X108305600Y-54610000D03*
%TD*%
%TO.C,H4*%
X67614800Y-109220000D03*
%TD*%
%TO.C,H5*%
X94284800Y-50800000D03*
%TD*%
%TO.C,H1*%
X108305600Y-105410000D03*
%TD*%
D12*
%TO.C,J7*%
X110845600Y-77420000D03*
D11*
X110845600Y-79960000D03*
%TD*%
D13*
%TO.C,H3*%
X67614800Y-50800000D03*
%TD*%
D12*
%TO.C,J10*%
X110845600Y-110490000D03*
D11*
X110845600Y-113030000D03*
%TD*%
D12*
%TO.C,J11*%
X105765600Y-110440000D03*
D11*
X105765600Y-112980000D03*
%TD*%
D12*
%TO.C,J12*%
X63804800Y-110440000D03*
D11*
X63804800Y-112980000D03*
%TD*%
D12*
%TO.C,J5*%
X98044800Y-77420000D03*
D11*
X98044800Y-79960000D03*
%TD*%
D12*
%TO.C,J6*%
X105765600Y-77470000D03*
D11*
X105765600Y-80010000D03*
%TD*%
D13*
%TO.C,H6*%
X94284800Y-109220000D03*
%TD*%
D12*
%TO.C,J8*%
X63804800Y-77470000D03*
D11*
X63804800Y-80010000D03*
%TD*%
D12*
%TO.C,J1*%
X105765600Y-46990000D03*
D11*
X105765600Y-49530000D03*
%TD*%
D12*
%TO.C,J4*%
X110845600Y-47040000D03*
D11*
X110845600Y-49580000D03*
%TD*%
D12*
%TO.C,J2*%
X63804800Y-46990000D03*
D11*
X63804800Y-49530000D03*
%TD*%
D12*
%TO.C,J3*%
X98094800Y-47040000D03*
D11*
X98094800Y-49580000D03*
%TD*%
D12*
%TO.C,J9*%
X98094800Y-110490000D03*
D11*
X98094800Y-113030000D03*
%TD*%
M02*
