%TF.GenerationSoftware,KiCad,Pcbnew,(5.1.9)-1*%
%TF.CreationDate,2021-05-05T18:50:43+10:00*%
%TF.ProjectId,panel,70616e65-6c2e-46b6-9963-61645f706362,rev?*%
%TF.SameCoordinates,Original*%
%TF.FileFunction,Paste,Top*%
%TF.FilePolarity,Positive*%
%FSLAX46Y46*%
G04 Gerber Fmt 4.6, Leading zero omitted, Abs format (unit mm)*
G04 Created by KiCad (PCBNEW (5.1.9)-1) date 2021-05-05 18:50:43*
%MOMM*%
%LPD*%
G01*
G04 APERTURE LIST*
%ADD10R,0.850000X1.600000*%
%ADD11R,1.600000X0.850000*%
G04 APERTURE END LIST*
D10*
%TO.C,D5*%
X54469000Y-56755000D03*
X56219000Y-56755000D03*
X54469000Y-53255000D03*
X56219000Y-53255000D03*
%TD*%
%TO.C,D20*%
X56219000Y-102390000D03*
X54469000Y-102390000D03*
X56219000Y-105890000D03*
X54469000Y-105890000D03*
%TD*%
%TO.C,D17*%
X22239000Y-97875000D03*
X23989000Y-97875000D03*
X22239000Y-94375000D03*
X23989000Y-94375000D03*
%TD*%
D11*
%TO.C,D21*%
X32484000Y-112635000D03*
X32484000Y-110885000D03*
X28984000Y-112635000D03*
X28984000Y-110885000D03*
%TD*%
D10*
%TO.C,D6*%
X23989000Y-61750000D03*
X22239000Y-61750000D03*
X23989000Y-65250000D03*
X22239000Y-65250000D03*
%TD*%
%TO.C,D7*%
X54469000Y-65250000D03*
X56219000Y-65250000D03*
X54469000Y-61750000D03*
X56219000Y-61750000D03*
%TD*%
%TO.C,D18*%
X56219000Y-94375000D03*
X54469000Y-94375000D03*
X56219000Y-97875000D03*
X54469000Y-97875000D03*
%TD*%
D11*
%TO.C,D22*%
X41374000Y-112635000D03*
X41374000Y-110885000D03*
X37874000Y-112635000D03*
X37874000Y-110885000D03*
%TD*%
D10*
%TO.C,D15*%
X56219000Y-85485000D03*
X54469000Y-85485000D03*
X56219000Y-88985000D03*
X54469000Y-88985000D03*
%TD*%
D11*
%TO.C,D1*%
X32484000Y-49135000D03*
X32484000Y-47385000D03*
X28984000Y-49135000D03*
X28984000Y-47385000D03*
%TD*%
%TO.C,D13*%
X46764000Y-77865000D03*
X46764000Y-79615000D03*
X50264000Y-77865000D03*
X50264000Y-79615000D03*
%TD*%
D10*
%TO.C,D19*%
X22239000Y-105890000D03*
X23989000Y-105890000D03*
X22239000Y-102390000D03*
X23989000Y-102390000D03*
%TD*%
%TO.C,D9*%
X23989000Y-70072000D03*
X22239000Y-70072000D03*
X23989000Y-73572000D03*
X22239000Y-73572000D03*
%TD*%
%TO.C,D10*%
X54469000Y-73572000D03*
X56219000Y-73572000D03*
X54469000Y-70072000D03*
X56219000Y-70072000D03*
%TD*%
D11*
%TO.C,D11*%
X28984000Y-77865000D03*
X28984000Y-79615000D03*
X32484000Y-77865000D03*
X32484000Y-79615000D03*
%TD*%
%TO.C,D3*%
X50264000Y-49135000D03*
X50264000Y-47385000D03*
X46764000Y-49135000D03*
X46764000Y-47385000D03*
%TD*%
D10*
%TO.C,D4*%
X23989000Y-53255000D03*
X22239000Y-53255000D03*
X23989000Y-56755000D03*
X22239000Y-56755000D03*
%TD*%
%TO.C,D14*%
X22239000Y-88985000D03*
X23989000Y-88985000D03*
X22239000Y-85485000D03*
X23989000Y-85485000D03*
%TD*%
D11*
%TO.C,D2*%
X41374000Y-49135000D03*
X41374000Y-47385000D03*
X37874000Y-49135000D03*
X37874000Y-47385000D03*
%TD*%
%TO.C,D23*%
X50264000Y-112635000D03*
X50264000Y-110885000D03*
X46764000Y-112635000D03*
X46764000Y-110885000D03*
%TD*%
%TO.C,D12*%
X37874000Y-77865000D03*
X37874000Y-79615000D03*
X41374000Y-77865000D03*
X41374000Y-79615000D03*
%TD*%
D10*
%TO.C,D6*%
X64199800Y-65250000D03*
X65949800Y-65250000D03*
X64199800Y-61750000D03*
X65949800Y-61750000D03*
%TD*%
%TO.C,D7*%
X98179800Y-61750000D03*
X96429800Y-61750000D03*
X98179800Y-65250000D03*
X96429800Y-65250000D03*
%TD*%
%TO.C,D18*%
X96429800Y-97875000D03*
X98179800Y-97875000D03*
X96429800Y-94375000D03*
X98179800Y-94375000D03*
%TD*%
D11*
%TO.C,D8*%
X106555600Y-61355000D03*
X106555600Y-63105000D03*
X110055600Y-61355000D03*
X110055600Y-63105000D03*
%TD*%
%TO.C,D11*%
X74444800Y-79615000D03*
X74444800Y-77865000D03*
X70944800Y-79615000D03*
X70944800Y-77865000D03*
%TD*%
%TO.C,D12*%
X83334800Y-79615000D03*
X83334800Y-77865000D03*
X79834800Y-79615000D03*
X79834800Y-77865000D03*
%TD*%
%TO.C,D13*%
X92224800Y-79615000D03*
X92224800Y-77865000D03*
X88724800Y-79615000D03*
X88724800Y-77865000D03*
%TD*%
%TO.C,D3*%
X88724800Y-47385000D03*
X88724800Y-49135000D03*
X92224800Y-47385000D03*
X92224800Y-49135000D03*
%TD*%
%TO.C,D22*%
X79834800Y-110885000D03*
X79834800Y-112635000D03*
X83334800Y-110885000D03*
X83334800Y-112635000D03*
%TD*%
%TO.C,D23*%
X88724800Y-110885000D03*
X88724800Y-112635000D03*
X92224800Y-110885000D03*
X92224800Y-112635000D03*
%TD*%
D10*
%TO.C,D14*%
X65949800Y-85485000D03*
X64199800Y-85485000D03*
X65949800Y-88985000D03*
X64199800Y-88985000D03*
%TD*%
%TO.C,D15*%
X96429800Y-88985000D03*
X98179800Y-88985000D03*
X96429800Y-85485000D03*
X98179800Y-85485000D03*
%TD*%
%TO.C,D19*%
X65949800Y-102390000D03*
X64199800Y-102390000D03*
X65949800Y-105890000D03*
X64199800Y-105890000D03*
%TD*%
%TO.C,D4*%
X64199800Y-56755000D03*
X65949800Y-56755000D03*
X64199800Y-53255000D03*
X65949800Y-53255000D03*
%TD*%
D11*
%TO.C,D2*%
X79834800Y-47385000D03*
X79834800Y-49135000D03*
X83334800Y-47385000D03*
X83334800Y-49135000D03*
%TD*%
%TO.C,D16*%
X106555600Y-96915000D03*
X106555600Y-98665000D03*
X110055600Y-96915000D03*
X110055600Y-98665000D03*
%TD*%
D10*
%TO.C,D9*%
X64199800Y-73572000D03*
X65949800Y-73572000D03*
X64199800Y-70072000D03*
X65949800Y-70072000D03*
%TD*%
D11*
%TO.C,D1*%
X70944800Y-47385000D03*
X70944800Y-49135000D03*
X74444800Y-47385000D03*
X74444800Y-49135000D03*
%TD*%
D10*
%TO.C,D10*%
X98179800Y-70072000D03*
X96429800Y-70072000D03*
X98179800Y-73572000D03*
X96429800Y-73572000D03*
%TD*%
%TO.C,D5*%
X98179800Y-53255000D03*
X96429800Y-53255000D03*
X98179800Y-56755000D03*
X96429800Y-56755000D03*
%TD*%
%TO.C,D20*%
X96429800Y-105890000D03*
X98179800Y-105890000D03*
X96429800Y-102390000D03*
X98179800Y-102390000D03*
%TD*%
%TO.C,D17*%
X65949800Y-94375000D03*
X64199800Y-94375000D03*
X65949800Y-97875000D03*
X64199800Y-97875000D03*
%TD*%
D11*
%TO.C,D21*%
X70944800Y-110885000D03*
X70944800Y-112635000D03*
X74444800Y-110885000D03*
X74444800Y-112635000D03*
%TD*%
M02*
