%TF.GenerationSoftware,KiCad,Pcbnew,(5.1.9)-1*%
%TF.CreationDate,2021-05-05T18:50:43+10:00*%
%TF.ProjectId,panel,70616e65-6c2e-46b6-9963-61645f706362,rev?*%
%TF.SameCoordinates,Original*%
%TF.FileFunction,Profile,NP*%
%FSLAX46Y46*%
G04 Gerber Fmt 4.6, Leading zero omitted, Abs format (unit mm)*
G04 Created by KiCad (PCBNEW (5.1.9)-1) date 2021-05-05 18:50:43*
%MOMM*%
%LPD*%
G01*
G04 APERTURE LIST*
%TA.AperFunction,Profile*%
%ADD10C,0.050000*%
%TD*%
G04 APERTURE END LIST*
D10*
X103225600Y-108204000D02*
X103225600Y-115570000D01*
X103225600Y-81788000D02*
X103225600Y-103530400D01*
X103225600Y-55956200D02*
X103225600Y-77063600D01*
X103225600Y-45720000D02*
X103225600Y-51231800D01*
X100685600Y-108204000D02*
X100634800Y-115570000D01*
X100685600Y-81788000D02*
X100685600Y-103530400D01*
X100685600Y-77038200D02*
X100685600Y-77063600D01*
X100685600Y-55956200D02*
X100685600Y-77038200D01*
X100685600Y-51231800D02*
X100634800Y-45720000D01*
X103225600Y-103530400D02*
G75*
G02*
X101955600Y-104800400I-1270000J0D01*
G01*
X101955600Y-104800400D02*
G75*
G02*
X100685600Y-103530400I0J1270000D01*
G01*
X100685600Y-108204000D02*
G75*
G02*
X101955600Y-106934000I1270000J0D01*
G01*
X101955600Y-106934000D02*
G75*
G02*
X103225600Y-108204000I0J-1270000D01*
G01*
X103225600Y-77063600D02*
G75*
G02*
X101955600Y-78333600I-1270000J0D01*
G01*
X101955600Y-78333600D02*
G75*
G02*
X100685600Y-77063600I0J1270000D01*
G01*
X100685600Y-81788000D02*
G75*
G02*
X101955600Y-80518000I1270000J0D01*
G01*
X101955600Y-80518000D02*
G75*
G02*
X103225600Y-81788000I0J-1270000D01*
G01*
X100685600Y-55956200D02*
G75*
G02*
X101955600Y-54686200I1270000J0D01*
G01*
X101955600Y-54686200D02*
G75*
G02*
X103225600Y-55956200I0J-1270000D01*
G01*
X101955600Y-52501800D02*
G75*
G02*
X100685600Y-51231800I0J1270000D01*
G01*
X103225600Y-51231800D02*
G75*
G02*
X101955600Y-52501800I-1270000J0D01*
G01*
X61214000Y-50012600D02*
X61264800Y-45720000D01*
X58674000Y-50012600D02*
X58674000Y-45720000D01*
X61214000Y-54635400D02*
X61239400Y-76454000D01*
X58699400Y-76454000D02*
X58674000Y-54635400D01*
X61239400Y-81026000D02*
X61214000Y-104902000D01*
X58674000Y-104902000D02*
X58699400Y-81026000D01*
X61264800Y-115570000D02*
X61214000Y-109474000D01*
X58674000Y-115570000D02*
X58674000Y-109474000D01*
X61214000Y-50012600D02*
G75*
G02*
X59944000Y-51282600I-1270000J0D01*
G01*
X59944000Y-51282600D02*
G75*
G02*
X58674000Y-50012600I0J1270000D01*
G01*
X58674000Y-54635400D02*
G75*
G02*
X59944000Y-53365400I1270000J0D01*
G01*
X59944000Y-53365400D02*
G75*
G02*
X61214000Y-54635400I0J-1270000D01*
G01*
X58674000Y-109474000D02*
G75*
G02*
X59944000Y-108204000I1270000J0D01*
G01*
X59944000Y-108204000D02*
G75*
G02*
X61214000Y-109474000I0J-1270000D01*
G01*
X61214000Y-104902000D02*
G75*
G02*
X59944000Y-106172000I-1270000J0D01*
G01*
X59944000Y-106172000D02*
G75*
G02*
X58674000Y-104902000I0J1270000D01*
G01*
X58699400Y-81026000D02*
G75*
G02*
X59969400Y-79756000I1270000J0D01*
G01*
X59969400Y-79756000D02*
G75*
G02*
X61239400Y-81026000I0J-1270000D01*
G01*
X61239400Y-76454000D02*
G75*
G02*
X59969400Y-77724000I-1270000J0D01*
G01*
X59969400Y-77724000D02*
G75*
G02*
X58699400Y-76454000I0J1270000D01*
G01*
X58674000Y-115570000D02*
G75*
G02*
X57404000Y-116840000I-1270000J0D01*
G01*
X26924000Y-83820000D02*
G75*
G02*
X28194000Y-82550000I1270000J0D01*
G01*
X28194000Y-74930000D02*
G75*
G02*
X26924000Y-73660000I0J1270000D01*
G01*
X20574000Y-116840000D02*
G75*
G02*
X19304000Y-115570000I0J1270000D01*
G01*
X19304000Y-45720000D02*
G75*
G02*
X20574000Y-44450000I1270000J0D01*
G01*
X26924000Y-53340000D02*
G75*
G02*
X28194000Y-52070000I1270000J0D01*
G01*
X49784000Y-82550000D02*
X28194000Y-82550000D01*
X51054000Y-106680000D02*
G75*
G02*
X49784000Y-107950000I-1270000J0D01*
G01*
X49784000Y-52070000D02*
X28194000Y-52070000D01*
X51054000Y-73660000D02*
G75*
G02*
X49784000Y-74930000I-1270000J0D01*
G01*
X28194000Y-74930000D02*
X49784000Y-74930000D01*
X49784000Y-82550000D02*
G75*
G02*
X51054000Y-83820000I0J-1270000D01*
G01*
X51054000Y-73660000D02*
X51054000Y-53340000D01*
X26924000Y-53340000D02*
X26924000Y-73660000D01*
X28194000Y-107950000D02*
X49784000Y-107950000D01*
X57404000Y-116840000D02*
X20574000Y-116840000D01*
X19304000Y-45720000D02*
X19304000Y-115570000D01*
X57404000Y-44450000D02*
G75*
G02*
X58674000Y-45720000I0J-1270000D01*
G01*
X49784000Y-52070000D02*
G75*
G02*
X51054000Y-53340000I0J-1270000D01*
G01*
X26924000Y-83820000D02*
X26924000Y-106680000D01*
X51054000Y-106680000D02*
X51054000Y-83820000D01*
X28194000Y-107950000D02*
G75*
G02*
X26924000Y-106680000I0J1270000D01*
G01*
X57404000Y-44450000D02*
X20574000Y-44450000D01*
X68884800Y-83820000D02*
X68884800Y-106680000D01*
X91744800Y-52070000D02*
X70154800Y-52070000D01*
X68884800Y-53340000D02*
X68884800Y-73660000D01*
X91744800Y-52070000D02*
G75*
G02*
X93014800Y-53340000I0J-1270000D01*
G01*
X68884800Y-53340000D02*
G75*
G02*
X70154800Y-52070000I1270000J0D01*
G01*
X93014800Y-73660000D02*
X93014800Y-53340000D01*
X93014800Y-106680000D02*
X93014800Y-83820000D01*
X70154800Y-74930000D02*
X91744800Y-74930000D01*
X70154800Y-107950000D02*
X91744800Y-107950000D01*
X91744800Y-82550000D02*
X70154800Y-82550000D01*
X93014800Y-73660000D02*
G75*
G02*
X91744800Y-74930000I-1270000J0D01*
G01*
X99364800Y-116840000D02*
X62534800Y-116840000D01*
X91744800Y-82550000D02*
G75*
G02*
X93014800Y-83820000I0J-1270000D01*
G01*
X99364800Y-44450000D02*
G75*
G02*
X100634800Y-45720000I0J-1270000D01*
G01*
X70154800Y-107950000D02*
G75*
G02*
X68884800Y-106680000I0J1270000D01*
G01*
X99364800Y-44450000D02*
X62534800Y-44450000D01*
X93014800Y-106680000D02*
G75*
G02*
X91744800Y-107950000I-1270000J0D01*
G01*
X68884800Y-83820000D02*
G75*
G02*
X70154800Y-82550000I1270000J0D01*
G01*
X70154800Y-74930000D02*
G75*
G02*
X68884800Y-73660000I0J1270000D01*
G01*
X62534800Y-116840000D02*
G75*
G02*
X61264800Y-115570000I0J1270000D01*
G01*
X113385600Y-45720000D02*
X113385600Y-115570000D01*
X112115600Y-116840000D02*
X104495600Y-116840000D01*
X61264800Y-45720000D02*
G75*
G02*
X62534800Y-44450000I1270000J0D01*
G01*
X104495600Y-44450000D02*
X112115600Y-44450000D01*
X100634800Y-115570000D02*
G75*
G02*
X99364800Y-116840000I-1270000J0D01*
G01*
X103225600Y-45720000D02*
G75*
G02*
X104495600Y-44450000I1270000J0D01*
G01*
X112115600Y-44450000D02*
G75*
G02*
X113385600Y-45720000I0J-1270000D01*
G01*
X113385600Y-115570000D02*
G75*
G02*
X112115600Y-116840000I-1270000J0D01*
G01*
X104495600Y-116840000D02*
G75*
G02*
X103225600Y-115570000I0J1270000D01*
G01*
M02*
