M48
; DRILL file {KiCad (5.1.9)-1} date 05/05/21 18:50:46
; FORMAT={-:-/ absolute / metric / decimal}
; #@! TF.CreationDate,2021-05-05T18:50:46+10:00
; #@! TF.GenerationSoftware,Kicad,Pcbnew,(5.1.9)-1
; #@! TF.FileFunction,Plated,1,2,PTH
FMAT,2
METRIC
T1C0.600
T2C1.000
%
G90
G05
T1
X21.844Y-59.69
X21.844Y-67.31
X23.114Y-107.95
X24.384Y-100.33
X24.435Y-91.382
X26.996Y-80.082
X34.486Y-110.439
X34.544Y-47.46
X35.872Y-80.061
X43.376Y-110.439
X43.434Y-47.46
X44.762Y-80.061
X52.324Y-47.46
X52.324Y-111.76
X53.58Y-100.336
X53.594Y-83.82
X53.594Y-92.71
X56.134Y-58.42
X56.134Y-67.31
X57.049Y-74.575
X63.805Y-59.69
X63.805Y-67.31
X65.075Y-107.95
X66.345Y-100.33
X66.395Y-91.382
X68.957Y-80.082
X76.447Y-110.439
X76.505Y-47.46
X77.833Y-80.061
X85.337Y-110.439
X85.395Y-47.46
X86.723Y-80.061
X94.285Y-47.46
X94.285Y-111.76
X95.541Y-100.336
X95.555Y-83.82
X95.555Y-92.71
X98.095Y-58.42
X98.095Y-67.31
X99.01Y-74.575
X109.576Y-95.25
X110.846Y-59.69
T2
X21.844Y-46.99
X21.844Y-49.53
X21.844Y-77.47
X21.844Y-80.01
X21.844Y-110.44
X21.844Y-112.98
X56.084Y-77.42
X56.084Y-79.96
X56.134Y-47.04
X56.134Y-49.58
X56.134Y-110.49
X56.134Y-113.03
X63.805Y-46.99
X63.805Y-49.53
X63.805Y-77.47
X63.805Y-80.01
X63.805Y-110.44
X63.805Y-112.98
X98.045Y-77.42
X98.045Y-79.96
X98.095Y-47.04
X98.095Y-49.58
X98.095Y-110.49
X98.095Y-113.03
X105.766Y-46.99
X105.766Y-49.53
X105.766Y-77.47
X105.766Y-80.01
X105.766Y-110.44
X105.766Y-112.98
X110.846Y-47.04
X110.846Y-49.58
X110.846Y-77.42
X110.846Y-79.96
X110.846Y-110.49
X110.846Y-113.03
T0
M30
