%TF.GenerationSoftware,KiCad,Pcbnew,(5.1.9)-1*%
%TF.CreationDate,2021-05-05T18:50:43+10:00*%
%TF.ProjectId,panel,70616e65-6c2e-46b6-9963-61645f706362,rev?*%
%TF.SameCoordinates,Original*%
%TF.FileFunction,Legend,Top*%
%TF.FilePolarity,Positive*%
%FSLAX46Y46*%
G04 Gerber Fmt 4.6, Leading zero omitted, Abs format (unit mm)*
G04 Created by KiCad (PCBNEW (5.1.9)-1) date 2021-05-05 18:50:43*
%MOMM*%
%LPD*%
G01*
G04 APERTURE LIST*
%ADD10C,0.100000*%
%ADD11C,0.120000*%
%ADD12C,0.150000*%
G04 APERTURE END LIST*
D10*
%TO.C,mouse-bite-2.54mm-slot*%
X100685600Y-55949400D02*
G75*
G02*
X103225600Y-55949400I1270000J0D01*
G01*
X100685600Y-51289400D02*
G75*
G03*
X103225600Y-51289400I1270000J0D01*
G01*
X100685600Y-81755800D02*
G75*
G02*
X103225600Y-81755800I1270000J0D01*
G01*
X100685600Y-77095800D02*
G75*
G03*
X103225600Y-77095800I1270000J0D01*
G01*
X100685600Y-108197200D02*
G75*
G02*
X103225600Y-108197200I1270000J0D01*
G01*
X100685600Y-103537200D02*
G75*
G03*
X103225600Y-103537200I1270000J0D01*
G01*
X58674000Y-81070000D02*
G75*
G02*
X61214000Y-81070000I1270000J0D01*
G01*
X58674000Y-76410000D02*
G75*
G03*
X61214000Y-76410000I1270000J0D01*
G01*
X58674000Y-54654000D02*
G75*
G02*
X61214000Y-54654000I1270000J0D01*
G01*
X58674000Y-49994000D02*
G75*
G03*
X61214000Y-49994000I1270000J0D01*
G01*
X58674000Y-109518000D02*
G75*
G02*
X61214000Y-109518000I1270000J0D01*
G01*
X58674000Y-104858000D02*
G75*
G03*
X61214000Y-104858000I1270000J0D01*
G01*
D11*
%TO.C,D5*%
X57294000Y-52055000D02*
X56219000Y-52055000D01*
X57294000Y-57955000D02*
X57294000Y-52055000D01*
X53394000Y-57955000D02*
X53394000Y-52055000D01*
%TO.C,J9*%
X56134000Y-109160000D02*
X57464000Y-109160000D01*
X57464000Y-109160000D02*
X57464000Y-110490000D01*
X57464000Y-111760000D02*
X57464000Y-114360000D01*
X54804000Y-114360000D02*
X57464000Y-114360000D01*
X54804000Y-111760000D02*
X54804000Y-114360000D01*
X54804000Y-111760000D02*
X57464000Y-111760000D01*
%TO.C,D20*%
X53394000Y-107090000D02*
X54469000Y-107090000D01*
X53394000Y-101190000D02*
X53394000Y-107090000D01*
X57294000Y-101190000D02*
X57294000Y-107090000D01*
%TO.C,D17*%
X25064000Y-93175000D02*
X23989000Y-93175000D01*
X25064000Y-99075000D02*
X25064000Y-93175000D01*
X21164000Y-99075000D02*
X21164000Y-93175000D01*
%TO.C,D21*%
X27784000Y-109810000D02*
X27784000Y-110885000D01*
X33684000Y-109810000D02*
X27784000Y-109810000D01*
X33684000Y-113710000D02*
X27784000Y-113710000D01*
%TO.C,J5*%
X54754000Y-76090000D02*
X56084000Y-76090000D01*
X54754000Y-77420000D02*
X54754000Y-76090000D01*
X54754000Y-78690000D02*
X57414000Y-78690000D01*
X57414000Y-78690000D02*
X57414000Y-81290000D01*
X54754000Y-78690000D02*
X54754000Y-81290000D01*
X54754000Y-81290000D02*
X57414000Y-81290000D01*
%TO.C,J8*%
X21844000Y-76140000D02*
X23174000Y-76140000D01*
X23174000Y-76140000D02*
X23174000Y-77470000D01*
X23174000Y-78740000D02*
X23174000Y-81340000D01*
X20514000Y-81340000D02*
X23174000Y-81340000D01*
X20514000Y-78740000D02*
X20514000Y-81340000D01*
X20514000Y-78740000D02*
X23174000Y-78740000D01*
%TO.C,D6*%
X21164000Y-66450000D02*
X22239000Y-66450000D01*
X21164000Y-60550000D02*
X21164000Y-66450000D01*
X25064000Y-60550000D02*
X25064000Y-66450000D01*
%TO.C,D7*%
X57294000Y-60550000D02*
X56219000Y-60550000D01*
X57294000Y-66450000D02*
X57294000Y-60550000D01*
X53394000Y-66450000D02*
X53394000Y-60550000D01*
%TO.C,J12*%
X20514000Y-109110000D02*
X21844000Y-109110000D01*
X20514000Y-110440000D02*
X20514000Y-109110000D01*
X20514000Y-111710000D02*
X23174000Y-111710000D01*
X23174000Y-111710000D02*
X23174000Y-114310000D01*
X20514000Y-111710000D02*
X20514000Y-114310000D01*
X20514000Y-114310000D02*
X23174000Y-114310000D01*
%TO.C,D18*%
X53394000Y-99075000D02*
X54469000Y-99075000D01*
X53394000Y-93175000D02*
X53394000Y-99075000D01*
X57294000Y-93175000D02*
X57294000Y-99075000D01*
%TO.C,D22*%
X36674000Y-109810000D02*
X36674000Y-110885000D01*
X42574000Y-109810000D02*
X36674000Y-109810000D01*
X42574000Y-113710000D02*
X36674000Y-113710000D01*
%TO.C,D15*%
X53394000Y-90185000D02*
X54469000Y-90185000D01*
X53394000Y-84285000D02*
X53394000Y-90185000D01*
X57294000Y-84285000D02*
X57294000Y-90185000D01*
%TO.C,D1*%
X27784000Y-46310000D02*
X27784000Y-47385000D01*
X33684000Y-46310000D02*
X27784000Y-46310000D01*
X33684000Y-50210000D02*
X27784000Y-50210000D01*
%TO.C,J3*%
X56134000Y-45710000D02*
X57464000Y-45710000D01*
X57464000Y-45710000D02*
X57464000Y-47040000D01*
X57464000Y-48310000D02*
X57464000Y-50910000D01*
X54804000Y-50910000D02*
X57464000Y-50910000D01*
X54804000Y-48310000D02*
X54804000Y-50910000D01*
X54804000Y-48310000D02*
X57464000Y-48310000D01*
%TO.C,D13*%
X51464000Y-80690000D02*
X51464000Y-79615000D01*
X45564000Y-80690000D02*
X51464000Y-80690000D01*
X45564000Y-76790000D02*
X51464000Y-76790000D01*
%TO.C,D19*%
X25064000Y-101190000D02*
X23989000Y-101190000D01*
X25064000Y-107090000D02*
X25064000Y-101190000D01*
X21164000Y-107090000D02*
X21164000Y-101190000D01*
%TO.C,D9*%
X21164000Y-74772000D02*
X22239000Y-74772000D01*
X21164000Y-68872000D02*
X21164000Y-74772000D01*
X25064000Y-68872000D02*
X25064000Y-74772000D01*
%TO.C,D10*%
X57294000Y-68872000D02*
X56219000Y-68872000D01*
X57294000Y-74772000D02*
X57294000Y-68872000D01*
X53394000Y-74772000D02*
X53394000Y-68872000D01*
%TO.C,D11*%
X33684000Y-80690000D02*
X33684000Y-79615000D01*
X27784000Y-80690000D02*
X33684000Y-80690000D01*
X27784000Y-76790000D02*
X33684000Y-76790000D01*
%TO.C,D3*%
X45564000Y-46310000D02*
X45564000Y-47385000D01*
X51464000Y-46310000D02*
X45564000Y-46310000D01*
X51464000Y-50210000D02*
X45564000Y-50210000D01*
%TO.C,J2*%
X20514000Y-45660000D02*
X21844000Y-45660000D01*
X20514000Y-46990000D02*
X20514000Y-45660000D01*
X20514000Y-48260000D02*
X23174000Y-48260000D01*
X23174000Y-48260000D02*
X23174000Y-50860000D01*
X20514000Y-48260000D02*
X20514000Y-50860000D01*
X20514000Y-50860000D02*
X23174000Y-50860000D01*
%TO.C,D4*%
X21164000Y-57955000D02*
X22239000Y-57955000D01*
X21164000Y-52055000D02*
X21164000Y-57955000D01*
X25064000Y-52055000D02*
X25064000Y-57955000D01*
%TO.C,D14*%
X25064000Y-84285000D02*
X23989000Y-84285000D01*
X25064000Y-90185000D02*
X25064000Y-84285000D01*
X21164000Y-90185000D02*
X21164000Y-84285000D01*
%TO.C,D2*%
X36674000Y-46310000D02*
X36674000Y-47385000D01*
X42574000Y-46310000D02*
X36674000Y-46310000D01*
X42574000Y-50210000D02*
X36674000Y-50210000D01*
%TO.C,D23*%
X45564000Y-109810000D02*
X45564000Y-110885000D01*
X51464000Y-109810000D02*
X45564000Y-109810000D01*
X51464000Y-113710000D02*
X45564000Y-113710000D01*
%TO.C,D12*%
X42574000Y-80690000D02*
X42574000Y-79615000D01*
X36674000Y-80690000D02*
X42574000Y-80690000D01*
X36674000Y-76790000D02*
X42574000Y-76790000D01*
%TO.C,J7*%
X109515600Y-76090000D02*
X110845600Y-76090000D01*
X109515600Y-77420000D02*
X109515600Y-76090000D01*
X109515600Y-78690000D02*
X112175600Y-78690000D01*
X112175600Y-78690000D02*
X112175600Y-81290000D01*
X109515600Y-78690000D02*
X109515600Y-81290000D01*
X109515600Y-81290000D02*
X112175600Y-81290000D01*
%TO.C,J10*%
X110845600Y-109160000D02*
X112175600Y-109160000D01*
X112175600Y-109160000D02*
X112175600Y-110490000D01*
X112175600Y-111760000D02*
X112175600Y-114360000D01*
X109515600Y-114360000D02*
X112175600Y-114360000D01*
X109515600Y-111760000D02*
X109515600Y-114360000D01*
X109515600Y-111760000D02*
X112175600Y-111760000D01*
%TO.C,J11*%
X104435600Y-109110000D02*
X105765600Y-109110000D01*
X104435600Y-110440000D02*
X104435600Y-109110000D01*
X104435600Y-111710000D02*
X107095600Y-111710000D01*
X107095600Y-111710000D02*
X107095600Y-114310000D01*
X104435600Y-111710000D02*
X104435600Y-114310000D01*
X104435600Y-114310000D02*
X107095600Y-114310000D01*
%TO.C,J12*%
X62474800Y-109110000D02*
X63804800Y-109110000D01*
X62474800Y-110440000D02*
X62474800Y-109110000D01*
X62474800Y-111710000D02*
X65134800Y-111710000D01*
X65134800Y-111710000D02*
X65134800Y-114310000D01*
X62474800Y-111710000D02*
X62474800Y-114310000D01*
X62474800Y-114310000D02*
X65134800Y-114310000D01*
%TO.C,J5*%
X96714800Y-76090000D02*
X98044800Y-76090000D01*
X96714800Y-77420000D02*
X96714800Y-76090000D01*
X96714800Y-78690000D02*
X99374800Y-78690000D01*
X99374800Y-78690000D02*
X99374800Y-81290000D01*
X96714800Y-78690000D02*
X96714800Y-81290000D01*
X96714800Y-81290000D02*
X99374800Y-81290000D01*
%TO.C,J6*%
X105765600Y-76140000D02*
X107095600Y-76140000D01*
X107095600Y-76140000D02*
X107095600Y-77470000D01*
X107095600Y-78740000D02*
X107095600Y-81340000D01*
X104435600Y-81340000D02*
X107095600Y-81340000D01*
X104435600Y-78740000D02*
X104435600Y-81340000D01*
X104435600Y-78740000D02*
X107095600Y-78740000D01*
%TO.C,J8*%
X63804800Y-76140000D02*
X65134800Y-76140000D01*
X65134800Y-76140000D02*
X65134800Y-77470000D01*
X65134800Y-78740000D02*
X65134800Y-81340000D01*
X62474800Y-81340000D02*
X65134800Y-81340000D01*
X62474800Y-78740000D02*
X62474800Y-81340000D01*
X62474800Y-78740000D02*
X65134800Y-78740000D01*
%TO.C,D6*%
X63124800Y-66450000D02*
X64199800Y-66450000D01*
X63124800Y-60550000D02*
X63124800Y-66450000D01*
X67024800Y-60550000D02*
X67024800Y-66450000D01*
%TO.C,D7*%
X99254800Y-60550000D02*
X98179800Y-60550000D01*
X99254800Y-66450000D02*
X99254800Y-60550000D01*
X95354800Y-66450000D02*
X95354800Y-60550000D01*
%TO.C,D18*%
X95354800Y-99075000D02*
X96429800Y-99075000D01*
X95354800Y-93175000D02*
X95354800Y-99075000D01*
X99254800Y-93175000D02*
X99254800Y-99075000D01*
%TO.C,J1*%
X104435600Y-45660000D02*
X105765600Y-45660000D01*
X104435600Y-46990000D02*
X104435600Y-45660000D01*
X104435600Y-48260000D02*
X107095600Y-48260000D01*
X107095600Y-48260000D02*
X107095600Y-50860000D01*
X104435600Y-48260000D02*
X104435600Y-50860000D01*
X104435600Y-50860000D02*
X107095600Y-50860000D01*
%TO.C,D8*%
X105355600Y-60280000D02*
X105355600Y-61355000D01*
X111255600Y-60280000D02*
X105355600Y-60280000D01*
X111255600Y-64180000D02*
X105355600Y-64180000D01*
%TO.C,D11*%
X75644800Y-80690000D02*
X75644800Y-79615000D01*
X69744800Y-80690000D02*
X75644800Y-80690000D01*
X69744800Y-76790000D02*
X75644800Y-76790000D01*
%TO.C,D12*%
X84534800Y-80690000D02*
X84534800Y-79615000D01*
X78634800Y-80690000D02*
X84534800Y-80690000D01*
X78634800Y-76790000D02*
X84534800Y-76790000D01*
%TO.C,D13*%
X93424800Y-80690000D02*
X93424800Y-79615000D01*
X87524800Y-80690000D02*
X93424800Y-80690000D01*
X87524800Y-76790000D02*
X93424800Y-76790000D01*
%TO.C,D3*%
X87524800Y-46310000D02*
X87524800Y-47385000D01*
X93424800Y-46310000D02*
X87524800Y-46310000D01*
X93424800Y-50210000D02*
X87524800Y-50210000D01*
%TO.C,D22*%
X78634800Y-109810000D02*
X78634800Y-110885000D01*
X84534800Y-109810000D02*
X78634800Y-109810000D01*
X84534800Y-113710000D02*
X78634800Y-113710000D01*
%TO.C,D23*%
X87524800Y-109810000D02*
X87524800Y-110885000D01*
X93424800Y-109810000D02*
X87524800Y-109810000D01*
X93424800Y-113710000D02*
X87524800Y-113710000D01*
%TO.C,D14*%
X67024800Y-84285000D02*
X65949800Y-84285000D01*
X67024800Y-90185000D02*
X67024800Y-84285000D01*
X63124800Y-90185000D02*
X63124800Y-84285000D01*
%TO.C,J4*%
X110845600Y-45710000D02*
X112175600Y-45710000D01*
X112175600Y-45710000D02*
X112175600Y-47040000D01*
X112175600Y-48310000D02*
X112175600Y-50910000D01*
X109515600Y-50910000D02*
X112175600Y-50910000D01*
X109515600Y-48310000D02*
X109515600Y-50910000D01*
X109515600Y-48310000D02*
X112175600Y-48310000D01*
%TO.C,D15*%
X95354800Y-90185000D02*
X96429800Y-90185000D01*
X95354800Y-84285000D02*
X95354800Y-90185000D01*
X99254800Y-84285000D02*
X99254800Y-90185000D01*
%TO.C,D19*%
X67024800Y-101190000D02*
X65949800Y-101190000D01*
X67024800Y-107090000D02*
X67024800Y-101190000D01*
X63124800Y-107090000D02*
X63124800Y-101190000D01*
%TO.C,J2*%
X62474800Y-45660000D02*
X63804800Y-45660000D01*
X62474800Y-46990000D02*
X62474800Y-45660000D01*
X62474800Y-48260000D02*
X65134800Y-48260000D01*
X65134800Y-48260000D02*
X65134800Y-50860000D01*
X62474800Y-48260000D02*
X62474800Y-50860000D01*
X62474800Y-50860000D02*
X65134800Y-50860000D01*
%TO.C,J3*%
X98094800Y-45710000D02*
X99424800Y-45710000D01*
X99424800Y-45710000D02*
X99424800Y-47040000D01*
X99424800Y-48310000D02*
X99424800Y-50910000D01*
X96764800Y-50910000D02*
X99424800Y-50910000D01*
X96764800Y-48310000D02*
X96764800Y-50910000D01*
X96764800Y-48310000D02*
X99424800Y-48310000D01*
%TO.C,D4*%
X63124800Y-57955000D02*
X64199800Y-57955000D01*
X63124800Y-52055000D02*
X63124800Y-57955000D01*
X67024800Y-52055000D02*
X67024800Y-57955000D01*
%TO.C,D2*%
X78634800Y-46310000D02*
X78634800Y-47385000D01*
X84534800Y-46310000D02*
X78634800Y-46310000D01*
X84534800Y-50210000D02*
X78634800Y-50210000D01*
%TO.C,D16*%
X105355600Y-95840000D02*
X105355600Y-96915000D01*
X111255600Y-95840000D02*
X105355600Y-95840000D01*
X111255600Y-99740000D02*
X105355600Y-99740000D01*
%TO.C,D9*%
X63124800Y-74772000D02*
X64199800Y-74772000D01*
X63124800Y-68872000D02*
X63124800Y-74772000D01*
X67024800Y-68872000D02*
X67024800Y-74772000D01*
%TO.C,D1*%
X69744800Y-46310000D02*
X69744800Y-47385000D01*
X75644800Y-46310000D02*
X69744800Y-46310000D01*
X75644800Y-50210000D02*
X69744800Y-50210000D01*
%TO.C,D10*%
X99254800Y-68872000D02*
X98179800Y-68872000D01*
X99254800Y-74772000D02*
X99254800Y-68872000D01*
X95354800Y-74772000D02*
X95354800Y-68872000D01*
%TO.C,J9*%
X98094800Y-109160000D02*
X99424800Y-109160000D01*
X99424800Y-109160000D02*
X99424800Y-110490000D01*
X99424800Y-111760000D02*
X99424800Y-114360000D01*
X96764800Y-114360000D02*
X99424800Y-114360000D01*
X96764800Y-111760000D02*
X96764800Y-114360000D01*
X96764800Y-111760000D02*
X99424800Y-111760000D01*
%TO.C,D5*%
X99254800Y-52055000D02*
X98179800Y-52055000D01*
X99254800Y-57955000D02*
X99254800Y-52055000D01*
X95354800Y-57955000D02*
X95354800Y-52055000D01*
%TO.C,D20*%
X95354800Y-107090000D02*
X96429800Y-107090000D01*
X95354800Y-101190000D02*
X95354800Y-107090000D01*
X99254800Y-101190000D02*
X99254800Y-107090000D01*
%TO.C,D17*%
X67024800Y-93175000D02*
X65949800Y-93175000D01*
X67024800Y-99075000D02*
X67024800Y-93175000D01*
X63124800Y-99075000D02*
X63124800Y-93175000D01*
%TO.C,D21*%
X69744800Y-109810000D02*
X69744800Y-110885000D01*
X75644800Y-109810000D02*
X69744800Y-109810000D01*
X75644800Y-113710000D02*
X69744800Y-113710000D01*
%TO.C,D5*%
D12*
X53046380Y-55743095D02*
X52046380Y-55743095D01*
X52046380Y-55505000D01*
X52094000Y-55362142D01*
X52189238Y-55266904D01*
X52284476Y-55219285D01*
X52474952Y-55171666D01*
X52617809Y-55171666D01*
X52808285Y-55219285D01*
X52903523Y-55266904D01*
X52998761Y-55362142D01*
X53046380Y-55505000D01*
X53046380Y-55743095D01*
X52046380Y-54266904D02*
X52046380Y-54743095D01*
X52522571Y-54790714D01*
X52474952Y-54743095D01*
X52427333Y-54647857D01*
X52427333Y-54409761D01*
X52474952Y-54314523D01*
X52522571Y-54266904D01*
X52617809Y-54219285D01*
X52855904Y-54219285D01*
X52951142Y-54266904D01*
X52998761Y-54314523D01*
X53046380Y-54409761D01*
X53046380Y-54647857D01*
X52998761Y-54743095D01*
X52951142Y-54790714D01*
X54921380Y-58219285D02*
X54921380Y-58790714D01*
X54921380Y-58505000D02*
X53921380Y-58505000D01*
X54064238Y-58600238D01*
X54159476Y-58695476D01*
X54207095Y-58790714D01*
%TO.C,J9*%
X53046380Y-112093333D02*
X53760666Y-112093333D01*
X53903523Y-112140952D01*
X53998761Y-112236190D01*
X54046380Y-112379047D01*
X54046380Y-112474285D01*
X54046380Y-111569523D02*
X54046380Y-111379047D01*
X53998761Y-111283809D01*
X53951142Y-111236190D01*
X53808285Y-111140952D01*
X53617809Y-111093333D01*
X53236857Y-111093333D01*
X53141619Y-111140952D01*
X53094000Y-111188571D01*
X53046380Y-111283809D01*
X53046380Y-111474285D01*
X53094000Y-111569523D01*
X53141619Y-111617142D01*
X53236857Y-111664761D01*
X53474952Y-111664761D01*
X53570190Y-111617142D01*
X53617809Y-111569523D01*
X53665428Y-111474285D01*
X53665428Y-111283809D01*
X53617809Y-111188571D01*
X53570190Y-111140952D01*
X53474952Y-111093333D01*
%TO.C,D20*%
X58546380Y-105354285D02*
X57546380Y-105354285D01*
X57546380Y-105116190D01*
X57594000Y-104973333D01*
X57689238Y-104878095D01*
X57784476Y-104830476D01*
X57974952Y-104782857D01*
X58117809Y-104782857D01*
X58308285Y-104830476D01*
X58403523Y-104878095D01*
X58498761Y-104973333D01*
X58546380Y-105116190D01*
X58546380Y-105354285D01*
X57641619Y-104401904D02*
X57594000Y-104354285D01*
X57546380Y-104259047D01*
X57546380Y-104020952D01*
X57594000Y-103925714D01*
X57641619Y-103878095D01*
X57736857Y-103830476D01*
X57832095Y-103830476D01*
X57974952Y-103878095D01*
X58546380Y-104449523D01*
X58546380Y-103830476D01*
X57546380Y-103211428D02*
X57546380Y-103116190D01*
X57594000Y-103020952D01*
X57641619Y-102973333D01*
X57736857Y-102925714D01*
X57927333Y-102878095D01*
X58165428Y-102878095D01*
X58355904Y-102925714D01*
X58451142Y-102973333D01*
X58498761Y-103020952D01*
X58546380Y-103116190D01*
X58546380Y-103211428D01*
X58498761Y-103306666D01*
X58451142Y-103354285D01*
X58355904Y-103401904D01*
X58165428Y-103449523D01*
X57927333Y-103449523D01*
X57736857Y-103401904D01*
X57641619Y-103354285D01*
X57594000Y-103306666D01*
X57546380Y-103211428D01*
X56671380Y-100354285D02*
X56671380Y-100925714D01*
X56671380Y-100640000D02*
X55671380Y-100640000D01*
X55814238Y-100735238D01*
X55909476Y-100830476D01*
X55957095Y-100925714D01*
%TO.C,D17*%
X20816380Y-97339285D02*
X19816380Y-97339285D01*
X19816380Y-97101190D01*
X19864000Y-96958333D01*
X19959238Y-96863095D01*
X20054476Y-96815476D01*
X20244952Y-96767857D01*
X20387809Y-96767857D01*
X20578285Y-96815476D01*
X20673523Y-96863095D01*
X20768761Y-96958333D01*
X20816380Y-97101190D01*
X20816380Y-97339285D01*
X20816380Y-95815476D02*
X20816380Y-96386904D01*
X20816380Y-96101190D02*
X19816380Y-96101190D01*
X19959238Y-96196428D01*
X20054476Y-96291666D01*
X20102095Y-96386904D01*
X19816380Y-95482142D02*
X19816380Y-94815476D01*
X20816380Y-95244047D01*
X22691380Y-99339285D02*
X22691380Y-99910714D01*
X22691380Y-99625000D02*
X21691380Y-99625000D01*
X21834238Y-99720238D01*
X21929476Y-99815476D01*
X21977095Y-99910714D01*
%TO.C,D21*%
X29519714Y-114962380D02*
X29519714Y-113962380D01*
X29757809Y-113962380D01*
X29900666Y-114010000D01*
X29995904Y-114105238D01*
X30043523Y-114200476D01*
X30091142Y-114390952D01*
X30091142Y-114533809D01*
X30043523Y-114724285D01*
X29995904Y-114819523D01*
X29900666Y-114914761D01*
X29757809Y-114962380D01*
X29519714Y-114962380D01*
X30472095Y-114057619D02*
X30519714Y-114010000D01*
X30614952Y-113962380D01*
X30853047Y-113962380D01*
X30948285Y-114010000D01*
X30995904Y-114057619D01*
X31043523Y-114152857D01*
X31043523Y-114248095D01*
X30995904Y-114390952D01*
X30424476Y-114962380D01*
X31043523Y-114962380D01*
X31995904Y-114962380D02*
X31424476Y-114962380D01*
X31710190Y-114962380D02*
X31710190Y-113962380D01*
X31614952Y-114105238D01*
X31519714Y-114200476D01*
X31424476Y-114248095D01*
X34519714Y-113087380D02*
X33948285Y-113087380D01*
X34234000Y-113087380D02*
X34234000Y-112087380D01*
X34138761Y-112230238D01*
X34043523Y-112325476D01*
X33948285Y-112373095D01*
%TO.C,H3*%
X24892095Y-48052380D02*
X24892095Y-47052380D01*
X24892095Y-47528571D02*
X25463523Y-47528571D01*
X25463523Y-48052380D02*
X25463523Y-47052380D01*
X25844476Y-47052380D02*
X26463523Y-47052380D01*
X26130190Y-47433333D01*
X26273047Y-47433333D01*
X26368285Y-47480952D01*
X26415904Y-47528571D01*
X26463523Y-47623809D01*
X26463523Y-47861904D01*
X26415904Y-47957142D01*
X26368285Y-48004761D01*
X26273047Y-48052380D01*
X25987333Y-48052380D01*
X25892095Y-48004761D01*
X25844476Y-47957142D01*
%TO.C,J5*%
X53046380Y-79073333D02*
X53760666Y-79073333D01*
X53903523Y-79120952D01*
X53998761Y-79216190D01*
X54046380Y-79359047D01*
X54046380Y-79454285D01*
X53046380Y-78120952D02*
X53046380Y-78597142D01*
X53522571Y-78644761D01*
X53474952Y-78597142D01*
X53427333Y-78501904D01*
X53427333Y-78263809D01*
X53474952Y-78168571D01*
X53522571Y-78120952D01*
X53617809Y-78073333D01*
X53855904Y-78073333D01*
X53951142Y-78120952D01*
X53998761Y-78168571D01*
X54046380Y-78263809D01*
X54046380Y-78501904D01*
X53998761Y-78597142D01*
X53951142Y-78644761D01*
%TO.C,H6*%
X51562095Y-106472380D02*
X51562095Y-105472380D01*
X51562095Y-105948571D02*
X52133523Y-105948571D01*
X52133523Y-106472380D02*
X52133523Y-105472380D01*
X53038285Y-105472380D02*
X52847809Y-105472380D01*
X52752571Y-105520000D01*
X52704952Y-105567619D01*
X52609714Y-105710476D01*
X52562095Y-105900952D01*
X52562095Y-106281904D01*
X52609714Y-106377142D01*
X52657333Y-106424761D01*
X52752571Y-106472380D01*
X52943047Y-106472380D01*
X53038285Y-106424761D01*
X53085904Y-106377142D01*
X53133523Y-106281904D01*
X53133523Y-106043809D01*
X53085904Y-105948571D01*
X53038285Y-105900952D01*
X52943047Y-105853333D01*
X52752571Y-105853333D01*
X52657333Y-105900952D01*
X52609714Y-105948571D01*
X52562095Y-106043809D01*
%TO.C,J8*%
X23836380Y-79073333D02*
X24550666Y-79073333D01*
X24693523Y-79120952D01*
X24788761Y-79216190D01*
X24836380Y-79359047D01*
X24836380Y-79454285D01*
X24264952Y-78454285D02*
X24217333Y-78549523D01*
X24169714Y-78597142D01*
X24074476Y-78644761D01*
X24026857Y-78644761D01*
X23931619Y-78597142D01*
X23884000Y-78549523D01*
X23836380Y-78454285D01*
X23836380Y-78263809D01*
X23884000Y-78168571D01*
X23931619Y-78120952D01*
X24026857Y-78073333D01*
X24074476Y-78073333D01*
X24169714Y-78120952D01*
X24217333Y-78168571D01*
X24264952Y-78263809D01*
X24264952Y-78454285D01*
X24312571Y-78549523D01*
X24360190Y-78597142D01*
X24455428Y-78644761D01*
X24645904Y-78644761D01*
X24741142Y-78597142D01*
X24788761Y-78549523D01*
X24836380Y-78454285D01*
X24836380Y-78263809D01*
X24788761Y-78168571D01*
X24741142Y-78120952D01*
X24645904Y-78073333D01*
X24455428Y-78073333D01*
X24360190Y-78120952D01*
X24312571Y-78168571D01*
X24264952Y-78263809D01*
%TO.C,D6*%
X26316380Y-64238095D02*
X25316380Y-64238095D01*
X25316380Y-64000000D01*
X25364000Y-63857142D01*
X25459238Y-63761904D01*
X25554476Y-63714285D01*
X25744952Y-63666666D01*
X25887809Y-63666666D01*
X26078285Y-63714285D01*
X26173523Y-63761904D01*
X26268761Y-63857142D01*
X26316380Y-64000000D01*
X26316380Y-64238095D01*
X25316380Y-62809523D02*
X25316380Y-63000000D01*
X25364000Y-63095238D01*
X25411619Y-63142857D01*
X25554476Y-63238095D01*
X25744952Y-63285714D01*
X26125904Y-63285714D01*
X26221142Y-63238095D01*
X26268761Y-63190476D01*
X26316380Y-63095238D01*
X26316380Y-62904761D01*
X26268761Y-62809523D01*
X26221142Y-62761904D01*
X26125904Y-62714285D01*
X25887809Y-62714285D01*
X25792571Y-62761904D01*
X25744952Y-62809523D01*
X25697333Y-62904761D01*
X25697333Y-63095238D01*
X25744952Y-63190476D01*
X25792571Y-63238095D01*
X25887809Y-63285714D01*
X24441380Y-59714285D02*
X24441380Y-60285714D01*
X24441380Y-60000000D02*
X23441380Y-60000000D01*
X23584238Y-60095238D01*
X23679476Y-60190476D01*
X23727095Y-60285714D01*
%TO.C,D7*%
X53046380Y-64238095D02*
X52046380Y-64238095D01*
X52046380Y-64000000D01*
X52094000Y-63857142D01*
X52189238Y-63761904D01*
X52284476Y-63714285D01*
X52474952Y-63666666D01*
X52617809Y-63666666D01*
X52808285Y-63714285D01*
X52903523Y-63761904D01*
X52998761Y-63857142D01*
X53046380Y-64000000D01*
X53046380Y-64238095D01*
X52046380Y-63333333D02*
X52046380Y-62666666D01*
X53046380Y-63095238D01*
X54921380Y-66714285D02*
X54921380Y-67285714D01*
X54921380Y-67000000D02*
X53921380Y-67000000D01*
X54064238Y-67095238D01*
X54159476Y-67190476D01*
X54207095Y-67285714D01*
%TO.C,H4*%
X24892095Y-106472380D02*
X24892095Y-105472380D01*
X24892095Y-105948571D02*
X25463523Y-105948571D01*
X25463523Y-106472380D02*
X25463523Y-105472380D01*
X26368285Y-105805714D02*
X26368285Y-106472380D01*
X26130190Y-105424761D02*
X25892095Y-106139047D01*
X26511142Y-106139047D01*
%TO.C,J12*%
X23836380Y-112569523D02*
X24550666Y-112569523D01*
X24693523Y-112617142D01*
X24788761Y-112712380D01*
X24836380Y-112855238D01*
X24836380Y-112950476D01*
X24836380Y-111569523D02*
X24836380Y-112140952D01*
X24836380Y-111855238D02*
X23836380Y-111855238D01*
X23979238Y-111950476D01*
X24074476Y-112045714D01*
X24122095Y-112140952D01*
X23931619Y-111188571D02*
X23884000Y-111140952D01*
X23836380Y-111045714D01*
X23836380Y-110807619D01*
X23884000Y-110712380D01*
X23931619Y-110664761D01*
X24026857Y-110617142D01*
X24122095Y-110617142D01*
X24264952Y-110664761D01*
X24836380Y-111236190D01*
X24836380Y-110617142D01*
%TO.C,H5*%
X51562095Y-48052380D02*
X51562095Y-47052380D01*
X51562095Y-47528571D02*
X52133523Y-47528571D01*
X52133523Y-48052380D02*
X52133523Y-47052380D01*
X53085904Y-47052380D02*
X52609714Y-47052380D01*
X52562095Y-47528571D01*
X52609714Y-47480952D01*
X52704952Y-47433333D01*
X52943047Y-47433333D01*
X53038285Y-47480952D01*
X53085904Y-47528571D01*
X53133523Y-47623809D01*
X53133523Y-47861904D01*
X53085904Y-47957142D01*
X53038285Y-48004761D01*
X52943047Y-48052380D01*
X52704952Y-48052380D01*
X52609714Y-48004761D01*
X52562095Y-47957142D01*
%TO.C,D18*%
X58546380Y-97339285D02*
X57546380Y-97339285D01*
X57546380Y-97101190D01*
X57594000Y-96958333D01*
X57689238Y-96863095D01*
X57784476Y-96815476D01*
X57974952Y-96767857D01*
X58117809Y-96767857D01*
X58308285Y-96815476D01*
X58403523Y-96863095D01*
X58498761Y-96958333D01*
X58546380Y-97101190D01*
X58546380Y-97339285D01*
X58546380Y-95815476D02*
X58546380Y-96386904D01*
X58546380Y-96101190D02*
X57546380Y-96101190D01*
X57689238Y-96196428D01*
X57784476Y-96291666D01*
X57832095Y-96386904D01*
X57974952Y-95244047D02*
X57927333Y-95339285D01*
X57879714Y-95386904D01*
X57784476Y-95434523D01*
X57736857Y-95434523D01*
X57641619Y-95386904D01*
X57594000Y-95339285D01*
X57546380Y-95244047D01*
X57546380Y-95053571D01*
X57594000Y-94958333D01*
X57641619Y-94910714D01*
X57736857Y-94863095D01*
X57784476Y-94863095D01*
X57879714Y-94910714D01*
X57927333Y-94958333D01*
X57974952Y-95053571D01*
X57974952Y-95244047D01*
X58022571Y-95339285D01*
X58070190Y-95386904D01*
X58165428Y-95434523D01*
X58355904Y-95434523D01*
X58451142Y-95386904D01*
X58498761Y-95339285D01*
X58546380Y-95244047D01*
X58546380Y-95053571D01*
X58498761Y-94958333D01*
X58451142Y-94910714D01*
X58355904Y-94863095D01*
X58165428Y-94863095D01*
X58070190Y-94910714D01*
X58022571Y-94958333D01*
X57974952Y-95053571D01*
X56671380Y-92339285D02*
X56671380Y-92910714D01*
X56671380Y-92625000D02*
X55671380Y-92625000D01*
X55814238Y-92720238D01*
X55909476Y-92815476D01*
X55957095Y-92910714D01*
%TO.C,D22*%
X38409714Y-114962380D02*
X38409714Y-113962380D01*
X38647809Y-113962380D01*
X38790666Y-114010000D01*
X38885904Y-114105238D01*
X38933523Y-114200476D01*
X38981142Y-114390952D01*
X38981142Y-114533809D01*
X38933523Y-114724285D01*
X38885904Y-114819523D01*
X38790666Y-114914761D01*
X38647809Y-114962380D01*
X38409714Y-114962380D01*
X39362095Y-114057619D02*
X39409714Y-114010000D01*
X39504952Y-113962380D01*
X39743047Y-113962380D01*
X39838285Y-114010000D01*
X39885904Y-114057619D01*
X39933523Y-114152857D01*
X39933523Y-114248095D01*
X39885904Y-114390952D01*
X39314476Y-114962380D01*
X39933523Y-114962380D01*
X40314476Y-114057619D02*
X40362095Y-114010000D01*
X40457333Y-113962380D01*
X40695428Y-113962380D01*
X40790666Y-114010000D01*
X40838285Y-114057619D01*
X40885904Y-114152857D01*
X40885904Y-114248095D01*
X40838285Y-114390952D01*
X40266857Y-114962380D01*
X40885904Y-114962380D01*
X43409714Y-113087380D02*
X42838285Y-113087380D01*
X43124000Y-113087380D02*
X43124000Y-112087380D01*
X43028761Y-112230238D01*
X42933523Y-112325476D01*
X42838285Y-112373095D01*
%TO.C,D15*%
X58546380Y-88449285D02*
X57546380Y-88449285D01*
X57546380Y-88211190D01*
X57594000Y-88068333D01*
X57689238Y-87973095D01*
X57784476Y-87925476D01*
X57974952Y-87877857D01*
X58117809Y-87877857D01*
X58308285Y-87925476D01*
X58403523Y-87973095D01*
X58498761Y-88068333D01*
X58546380Y-88211190D01*
X58546380Y-88449285D01*
X58546380Y-86925476D02*
X58546380Y-87496904D01*
X58546380Y-87211190D02*
X57546380Y-87211190D01*
X57689238Y-87306428D01*
X57784476Y-87401666D01*
X57832095Y-87496904D01*
X57546380Y-86020714D02*
X57546380Y-86496904D01*
X58022571Y-86544523D01*
X57974952Y-86496904D01*
X57927333Y-86401666D01*
X57927333Y-86163571D01*
X57974952Y-86068333D01*
X58022571Y-86020714D01*
X58117809Y-85973095D01*
X58355904Y-85973095D01*
X58451142Y-86020714D01*
X58498761Y-86068333D01*
X58546380Y-86163571D01*
X58546380Y-86401666D01*
X58498761Y-86496904D01*
X58451142Y-86544523D01*
X56671380Y-83449285D02*
X56671380Y-84020714D01*
X56671380Y-83735000D02*
X55671380Y-83735000D01*
X55814238Y-83830238D01*
X55909476Y-83925476D01*
X55957095Y-84020714D01*
%TO.C,D1*%
X29995904Y-51462380D02*
X29995904Y-50462380D01*
X30234000Y-50462380D01*
X30376857Y-50510000D01*
X30472095Y-50605238D01*
X30519714Y-50700476D01*
X30567333Y-50890952D01*
X30567333Y-51033809D01*
X30519714Y-51224285D01*
X30472095Y-51319523D01*
X30376857Y-51414761D01*
X30234000Y-51462380D01*
X29995904Y-51462380D01*
X31519714Y-51462380D02*
X30948285Y-51462380D01*
X31234000Y-51462380D02*
X31234000Y-50462380D01*
X31138761Y-50605238D01*
X31043523Y-50700476D01*
X30948285Y-50748095D01*
X34519714Y-49587380D02*
X33948285Y-49587380D01*
X34234000Y-49587380D02*
X34234000Y-48587380D01*
X34138761Y-48730238D01*
X34043523Y-48825476D01*
X33948285Y-48873095D01*
%TO.C,J3*%
X53046380Y-48593333D02*
X53760666Y-48593333D01*
X53903523Y-48640952D01*
X53998761Y-48736190D01*
X54046380Y-48879047D01*
X54046380Y-48974285D01*
X53046380Y-48212380D02*
X53046380Y-47593333D01*
X53427333Y-47926666D01*
X53427333Y-47783809D01*
X53474952Y-47688571D01*
X53522571Y-47640952D01*
X53617809Y-47593333D01*
X53855904Y-47593333D01*
X53951142Y-47640952D01*
X53998761Y-47688571D01*
X54046380Y-47783809D01*
X54046380Y-48069523D01*
X53998761Y-48164761D01*
X53951142Y-48212380D01*
%TO.C,D13*%
X47299714Y-76442380D02*
X47299714Y-75442380D01*
X47537809Y-75442380D01*
X47680666Y-75490000D01*
X47775904Y-75585238D01*
X47823523Y-75680476D01*
X47871142Y-75870952D01*
X47871142Y-76013809D01*
X47823523Y-76204285D01*
X47775904Y-76299523D01*
X47680666Y-76394761D01*
X47537809Y-76442380D01*
X47299714Y-76442380D01*
X48823523Y-76442380D02*
X48252095Y-76442380D01*
X48537809Y-76442380D02*
X48537809Y-75442380D01*
X48442571Y-75585238D01*
X48347333Y-75680476D01*
X48252095Y-75728095D01*
X49156857Y-75442380D02*
X49775904Y-75442380D01*
X49442571Y-75823333D01*
X49585428Y-75823333D01*
X49680666Y-75870952D01*
X49728285Y-75918571D01*
X49775904Y-76013809D01*
X49775904Y-76251904D01*
X49728285Y-76347142D01*
X49680666Y-76394761D01*
X49585428Y-76442380D01*
X49299714Y-76442380D01*
X49204476Y-76394761D01*
X49156857Y-76347142D01*
X45299714Y-78317380D02*
X44728285Y-78317380D01*
X45014000Y-78317380D02*
X45014000Y-77317380D01*
X44918761Y-77460238D01*
X44823523Y-77555476D01*
X44728285Y-77603095D01*
%TO.C,D19*%
X20816380Y-105354285D02*
X19816380Y-105354285D01*
X19816380Y-105116190D01*
X19864000Y-104973333D01*
X19959238Y-104878095D01*
X20054476Y-104830476D01*
X20244952Y-104782857D01*
X20387809Y-104782857D01*
X20578285Y-104830476D01*
X20673523Y-104878095D01*
X20768761Y-104973333D01*
X20816380Y-105116190D01*
X20816380Y-105354285D01*
X20816380Y-103830476D02*
X20816380Y-104401904D01*
X20816380Y-104116190D02*
X19816380Y-104116190D01*
X19959238Y-104211428D01*
X20054476Y-104306666D01*
X20102095Y-104401904D01*
X20816380Y-103354285D02*
X20816380Y-103163809D01*
X20768761Y-103068571D01*
X20721142Y-103020952D01*
X20578285Y-102925714D01*
X20387809Y-102878095D01*
X20006857Y-102878095D01*
X19911619Y-102925714D01*
X19864000Y-102973333D01*
X19816380Y-103068571D01*
X19816380Y-103259047D01*
X19864000Y-103354285D01*
X19911619Y-103401904D01*
X20006857Y-103449523D01*
X20244952Y-103449523D01*
X20340190Y-103401904D01*
X20387809Y-103354285D01*
X20435428Y-103259047D01*
X20435428Y-103068571D01*
X20387809Y-102973333D01*
X20340190Y-102925714D01*
X20244952Y-102878095D01*
X22691380Y-107354285D02*
X22691380Y-107925714D01*
X22691380Y-107640000D02*
X21691380Y-107640000D01*
X21834238Y-107735238D01*
X21929476Y-107830476D01*
X21977095Y-107925714D01*
%TO.C,D9*%
X26316380Y-72560095D02*
X25316380Y-72560095D01*
X25316380Y-72322000D01*
X25364000Y-72179142D01*
X25459238Y-72083904D01*
X25554476Y-72036285D01*
X25744952Y-71988666D01*
X25887809Y-71988666D01*
X26078285Y-72036285D01*
X26173523Y-72083904D01*
X26268761Y-72179142D01*
X26316380Y-72322000D01*
X26316380Y-72560095D01*
X26316380Y-71512476D02*
X26316380Y-71322000D01*
X26268761Y-71226761D01*
X26221142Y-71179142D01*
X26078285Y-71083904D01*
X25887809Y-71036285D01*
X25506857Y-71036285D01*
X25411619Y-71083904D01*
X25364000Y-71131523D01*
X25316380Y-71226761D01*
X25316380Y-71417238D01*
X25364000Y-71512476D01*
X25411619Y-71560095D01*
X25506857Y-71607714D01*
X25744952Y-71607714D01*
X25840190Y-71560095D01*
X25887809Y-71512476D01*
X25935428Y-71417238D01*
X25935428Y-71226761D01*
X25887809Y-71131523D01*
X25840190Y-71083904D01*
X25744952Y-71036285D01*
X24441380Y-68036285D02*
X24441380Y-68607714D01*
X24441380Y-68322000D02*
X23441380Y-68322000D01*
X23584238Y-68417238D01*
X23679476Y-68512476D01*
X23727095Y-68607714D01*
%TO.C,D10*%
X53046380Y-73036285D02*
X52046380Y-73036285D01*
X52046380Y-72798190D01*
X52094000Y-72655333D01*
X52189238Y-72560095D01*
X52284476Y-72512476D01*
X52474952Y-72464857D01*
X52617809Y-72464857D01*
X52808285Y-72512476D01*
X52903523Y-72560095D01*
X52998761Y-72655333D01*
X53046380Y-72798190D01*
X53046380Y-73036285D01*
X53046380Y-71512476D02*
X53046380Y-72083904D01*
X53046380Y-71798190D02*
X52046380Y-71798190D01*
X52189238Y-71893428D01*
X52284476Y-71988666D01*
X52332095Y-72083904D01*
X52046380Y-70893428D02*
X52046380Y-70798190D01*
X52094000Y-70702952D01*
X52141619Y-70655333D01*
X52236857Y-70607714D01*
X52427333Y-70560095D01*
X52665428Y-70560095D01*
X52855904Y-70607714D01*
X52951142Y-70655333D01*
X52998761Y-70702952D01*
X53046380Y-70798190D01*
X53046380Y-70893428D01*
X52998761Y-70988666D01*
X52951142Y-71036285D01*
X52855904Y-71083904D01*
X52665428Y-71131523D01*
X52427333Y-71131523D01*
X52236857Y-71083904D01*
X52141619Y-71036285D01*
X52094000Y-70988666D01*
X52046380Y-70893428D01*
X54921380Y-75036285D02*
X54921380Y-75607714D01*
X54921380Y-75322000D02*
X53921380Y-75322000D01*
X54064238Y-75417238D01*
X54159476Y-75512476D01*
X54207095Y-75607714D01*
%TO.C,D11*%
X29519714Y-76442380D02*
X29519714Y-75442380D01*
X29757809Y-75442380D01*
X29900666Y-75490000D01*
X29995904Y-75585238D01*
X30043523Y-75680476D01*
X30091142Y-75870952D01*
X30091142Y-76013809D01*
X30043523Y-76204285D01*
X29995904Y-76299523D01*
X29900666Y-76394761D01*
X29757809Y-76442380D01*
X29519714Y-76442380D01*
X31043523Y-76442380D02*
X30472095Y-76442380D01*
X30757809Y-76442380D02*
X30757809Y-75442380D01*
X30662571Y-75585238D01*
X30567333Y-75680476D01*
X30472095Y-75728095D01*
X31995904Y-76442380D02*
X31424476Y-76442380D01*
X31710190Y-76442380D02*
X31710190Y-75442380D01*
X31614952Y-75585238D01*
X31519714Y-75680476D01*
X31424476Y-75728095D01*
X27519714Y-78317380D02*
X26948285Y-78317380D01*
X27234000Y-78317380D02*
X27234000Y-77317380D01*
X27138761Y-77460238D01*
X27043523Y-77555476D01*
X26948285Y-77603095D01*
%TO.C,D3*%
X47775904Y-51462380D02*
X47775904Y-50462380D01*
X48014000Y-50462380D01*
X48156857Y-50510000D01*
X48252095Y-50605238D01*
X48299714Y-50700476D01*
X48347333Y-50890952D01*
X48347333Y-51033809D01*
X48299714Y-51224285D01*
X48252095Y-51319523D01*
X48156857Y-51414761D01*
X48014000Y-51462380D01*
X47775904Y-51462380D01*
X48680666Y-50462380D02*
X49299714Y-50462380D01*
X48966380Y-50843333D01*
X49109238Y-50843333D01*
X49204476Y-50890952D01*
X49252095Y-50938571D01*
X49299714Y-51033809D01*
X49299714Y-51271904D01*
X49252095Y-51367142D01*
X49204476Y-51414761D01*
X49109238Y-51462380D01*
X48823523Y-51462380D01*
X48728285Y-51414761D01*
X48680666Y-51367142D01*
X52299714Y-49587380D02*
X51728285Y-49587380D01*
X52014000Y-49587380D02*
X52014000Y-48587380D01*
X51918761Y-48730238D01*
X51823523Y-48825476D01*
X51728285Y-48873095D01*
%TO.C,J2*%
X23836380Y-48593333D02*
X24550666Y-48593333D01*
X24693523Y-48640952D01*
X24788761Y-48736190D01*
X24836380Y-48879047D01*
X24836380Y-48974285D01*
X23931619Y-48164761D02*
X23884000Y-48117142D01*
X23836380Y-48021904D01*
X23836380Y-47783809D01*
X23884000Y-47688571D01*
X23931619Y-47640952D01*
X24026857Y-47593333D01*
X24122095Y-47593333D01*
X24264952Y-47640952D01*
X24836380Y-48212380D01*
X24836380Y-47593333D01*
%TO.C,D4*%
X26316380Y-55743095D02*
X25316380Y-55743095D01*
X25316380Y-55505000D01*
X25364000Y-55362142D01*
X25459238Y-55266904D01*
X25554476Y-55219285D01*
X25744952Y-55171666D01*
X25887809Y-55171666D01*
X26078285Y-55219285D01*
X26173523Y-55266904D01*
X26268761Y-55362142D01*
X26316380Y-55505000D01*
X26316380Y-55743095D01*
X25649714Y-54314523D02*
X26316380Y-54314523D01*
X25268761Y-54552619D02*
X25983047Y-54790714D01*
X25983047Y-54171666D01*
X24441380Y-51219285D02*
X24441380Y-51790714D01*
X24441380Y-51505000D02*
X23441380Y-51505000D01*
X23584238Y-51600238D01*
X23679476Y-51695476D01*
X23727095Y-51790714D01*
%TO.C,D14*%
X20816380Y-88449285D02*
X19816380Y-88449285D01*
X19816380Y-88211190D01*
X19864000Y-88068333D01*
X19959238Y-87973095D01*
X20054476Y-87925476D01*
X20244952Y-87877857D01*
X20387809Y-87877857D01*
X20578285Y-87925476D01*
X20673523Y-87973095D01*
X20768761Y-88068333D01*
X20816380Y-88211190D01*
X20816380Y-88449285D01*
X20816380Y-86925476D02*
X20816380Y-87496904D01*
X20816380Y-87211190D02*
X19816380Y-87211190D01*
X19959238Y-87306428D01*
X20054476Y-87401666D01*
X20102095Y-87496904D01*
X20149714Y-86068333D02*
X20816380Y-86068333D01*
X19768761Y-86306428D02*
X20483047Y-86544523D01*
X20483047Y-85925476D01*
X22691380Y-90449285D02*
X22691380Y-91020714D01*
X22691380Y-90735000D02*
X21691380Y-90735000D01*
X21834238Y-90830238D01*
X21929476Y-90925476D01*
X21977095Y-91020714D01*
%TO.C,D2*%
X38885904Y-51462380D02*
X38885904Y-50462380D01*
X39124000Y-50462380D01*
X39266857Y-50510000D01*
X39362095Y-50605238D01*
X39409714Y-50700476D01*
X39457333Y-50890952D01*
X39457333Y-51033809D01*
X39409714Y-51224285D01*
X39362095Y-51319523D01*
X39266857Y-51414761D01*
X39124000Y-51462380D01*
X38885904Y-51462380D01*
X39838285Y-50557619D02*
X39885904Y-50510000D01*
X39981142Y-50462380D01*
X40219238Y-50462380D01*
X40314476Y-50510000D01*
X40362095Y-50557619D01*
X40409714Y-50652857D01*
X40409714Y-50748095D01*
X40362095Y-50890952D01*
X39790666Y-51462380D01*
X40409714Y-51462380D01*
X43409714Y-49587380D02*
X42838285Y-49587380D01*
X43124000Y-49587380D02*
X43124000Y-48587380D01*
X43028761Y-48730238D01*
X42933523Y-48825476D01*
X42838285Y-48873095D01*
%TO.C,D23*%
X47299714Y-114962380D02*
X47299714Y-113962380D01*
X47537809Y-113962380D01*
X47680666Y-114010000D01*
X47775904Y-114105238D01*
X47823523Y-114200476D01*
X47871142Y-114390952D01*
X47871142Y-114533809D01*
X47823523Y-114724285D01*
X47775904Y-114819523D01*
X47680666Y-114914761D01*
X47537809Y-114962380D01*
X47299714Y-114962380D01*
X48252095Y-114057619D02*
X48299714Y-114010000D01*
X48394952Y-113962380D01*
X48633047Y-113962380D01*
X48728285Y-114010000D01*
X48775904Y-114057619D01*
X48823523Y-114152857D01*
X48823523Y-114248095D01*
X48775904Y-114390952D01*
X48204476Y-114962380D01*
X48823523Y-114962380D01*
X49156857Y-113962380D02*
X49775904Y-113962380D01*
X49442571Y-114343333D01*
X49585428Y-114343333D01*
X49680666Y-114390952D01*
X49728285Y-114438571D01*
X49775904Y-114533809D01*
X49775904Y-114771904D01*
X49728285Y-114867142D01*
X49680666Y-114914761D01*
X49585428Y-114962380D01*
X49299714Y-114962380D01*
X49204476Y-114914761D01*
X49156857Y-114867142D01*
X52299714Y-113087380D02*
X51728285Y-113087380D01*
X52014000Y-113087380D02*
X52014000Y-112087380D01*
X51918761Y-112230238D01*
X51823523Y-112325476D01*
X51728285Y-112373095D01*
%TO.C,D12*%
X38409714Y-76442380D02*
X38409714Y-75442380D01*
X38647809Y-75442380D01*
X38790666Y-75490000D01*
X38885904Y-75585238D01*
X38933523Y-75680476D01*
X38981142Y-75870952D01*
X38981142Y-76013809D01*
X38933523Y-76204285D01*
X38885904Y-76299523D01*
X38790666Y-76394761D01*
X38647809Y-76442380D01*
X38409714Y-76442380D01*
X39933523Y-76442380D02*
X39362095Y-76442380D01*
X39647809Y-76442380D02*
X39647809Y-75442380D01*
X39552571Y-75585238D01*
X39457333Y-75680476D01*
X39362095Y-75728095D01*
X40314476Y-75537619D02*
X40362095Y-75490000D01*
X40457333Y-75442380D01*
X40695428Y-75442380D01*
X40790666Y-75490000D01*
X40838285Y-75537619D01*
X40885904Y-75632857D01*
X40885904Y-75728095D01*
X40838285Y-75870952D01*
X40266857Y-76442380D01*
X40885904Y-76442380D01*
X36409714Y-78317380D02*
X35838285Y-78317380D01*
X36124000Y-78317380D02*
X36124000Y-77317380D01*
X36028761Y-77460238D01*
X35933523Y-77555476D01*
X35838285Y-77603095D01*
%TO.C,H2*%
X107543695Y-51862380D02*
X107543695Y-50862380D01*
X107543695Y-51338571D02*
X108115123Y-51338571D01*
X108115123Y-51862380D02*
X108115123Y-50862380D01*
X108543695Y-50957619D02*
X108591314Y-50910000D01*
X108686552Y-50862380D01*
X108924647Y-50862380D01*
X109019885Y-50910000D01*
X109067504Y-50957619D01*
X109115123Y-51052857D01*
X109115123Y-51148095D01*
X109067504Y-51290952D01*
X108496076Y-51862380D01*
X109115123Y-51862380D01*
%TO.C,H4*%
X66852895Y-106472380D02*
X66852895Y-105472380D01*
X66852895Y-105948571D02*
X67424323Y-105948571D01*
X67424323Y-106472380D02*
X67424323Y-105472380D01*
X68329085Y-105805714D02*
X68329085Y-106472380D01*
X68090990Y-105424761D02*
X67852895Y-106139047D01*
X68471942Y-106139047D01*
%TO.C,H5*%
X93522895Y-48052380D02*
X93522895Y-47052380D01*
X93522895Y-47528571D02*
X94094323Y-47528571D01*
X94094323Y-48052380D02*
X94094323Y-47052380D01*
X95046704Y-47052380D02*
X94570514Y-47052380D01*
X94522895Y-47528571D01*
X94570514Y-47480952D01*
X94665752Y-47433333D01*
X94903847Y-47433333D01*
X94999085Y-47480952D01*
X95046704Y-47528571D01*
X95094323Y-47623809D01*
X95094323Y-47861904D01*
X95046704Y-47957142D01*
X94999085Y-48004761D01*
X94903847Y-48052380D01*
X94665752Y-48052380D01*
X94570514Y-48004761D01*
X94522895Y-47957142D01*
%TO.C,H1*%
X107543695Y-102662380D02*
X107543695Y-101662380D01*
X107543695Y-102138571D02*
X108115123Y-102138571D01*
X108115123Y-102662380D02*
X108115123Y-101662380D01*
X109115123Y-102662380D02*
X108543695Y-102662380D01*
X108829409Y-102662380D02*
X108829409Y-101662380D01*
X108734171Y-101805238D01*
X108638933Y-101900476D01*
X108543695Y-101948095D01*
%TO.C,J7*%
X110512266Y-74542380D02*
X110512266Y-75256666D01*
X110464647Y-75399523D01*
X110369409Y-75494761D01*
X110226552Y-75542380D01*
X110131314Y-75542380D01*
X110893219Y-74542380D02*
X111559885Y-74542380D01*
X111131314Y-75542380D01*
%TO.C,H3*%
X66852895Y-48052380D02*
X66852895Y-47052380D01*
X66852895Y-47528571D02*
X67424323Y-47528571D01*
X67424323Y-48052380D02*
X67424323Y-47052380D01*
X67805276Y-47052380D02*
X68424323Y-47052380D01*
X68090990Y-47433333D01*
X68233847Y-47433333D01*
X68329085Y-47480952D01*
X68376704Y-47528571D01*
X68424323Y-47623809D01*
X68424323Y-47861904D01*
X68376704Y-47957142D01*
X68329085Y-48004761D01*
X68233847Y-48052380D01*
X67948133Y-48052380D01*
X67852895Y-48004761D01*
X67805276Y-47957142D01*
%TO.C,J10*%
X110036076Y-107402380D02*
X110036076Y-108116666D01*
X109988457Y-108259523D01*
X109893219Y-108354761D01*
X109750361Y-108402380D01*
X109655123Y-108402380D01*
X111036076Y-108402380D02*
X110464647Y-108402380D01*
X110750361Y-108402380D02*
X110750361Y-107402380D01*
X110655123Y-107545238D01*
X110559885Y-107640476D01*
X110464647Y-107688095D01*
X111655123Y-107402380D02*
X111750361Y-107402380D01*
X111845600Y-107450000D01*
X111893219Y-107497619D01*
X111940838Y-107592857D01*
X111988457Y-107783333D01*
X111988457Y-108021428D01*
X111940838Y-108211904D01*
X111893219Y-108307142D01*
X111845600Y-108354761D01*
X111750361Y-108402380D01*
X111655123Y-108402380D01*
X111559885Y-108354761D01*
X111512266Y-108307142D01*
X111464647Y-108211904D01*
X111417028Y-108021428D01*
X111417028Y-107783333D01*
X111464647Y-107592857D01*
X111512266Y-107497619D01*
X111559885Y-107450000D01*
X111655123Y-107402380D01*
%TO.C,J11*%
X104956076Y-107402380D02*
X104956076Y-108116666D01*
X104908457Y-108259523D01*
X104813219Y-108354761D01*
X104670361Y-108402380D01*
X104575123Y-108402380D01*
X105956076Y-108402380D02*
X105384647Y-108402380D01*
X105670361Y-108402380D02*
X105670361Y-107402380D01*
X105575123Y-107545238D01*
X105479885Y-107640476D01*
X105384647Y-107688095D01*
X106908457Y-108402380D02*
X106337028Y-108402380D01*
X106622742Y-108402380D02*
X106622742Y-107402380D01*
X106527504Y-107545238D01*
X106432266Y-107640476D01*
X106337028Y-107688095D01*
%TO.C,J12*%
X65797180Y-112569523D02*
X66511466Y-112569523D01*
X66654323Y-112617142D01*
X66749561Y-112712380D01*
X66797180Y-112855238D01*
X66797180Y-112950476D01*
X66797180Y-111569523D02*
X66797180Y-112140952D01*
X66797180Y-111855238D02*
X65797180Y-111855238D01*
X65940038Y-111950476D01*
X66035276Y-112045714D01*
X66082895Y-112140952D01*
X65892419Y-111188571D02*
X65844800Y-111140952D01*
X65797180Y-111045714D01*
X65797180Y-110807619D01*
X65844800Y-110712380D01*
X65892419Y-110664761D01*
X65987657Y-110617142D01*
X66082895Y-110617142D01*
X66225752Y-110664761D01*
X66797180Y-111236190D01*
X66797180Y-110617142D01*
%TO.C,J5*%
X95007180Y-79073333D02*
X95721466Y-79073333D01*
X95864323Y-79120952D01*
X95959561Y-79216190D01*
X96007180Y-79359047D01*
X96007180Y-79454285D01*
X95007180Y-78120952D02*
X95007180Y-78597142D01*
X95483371Y-78644761D01*
X95435752Y-78597142D01*
X95388133Y-78501904D01*
X95388133Y-78263809D01*
X95435752Y-78168571D01*
X95483371Y-78120952D01*
X95578609Y-78073333D01*
X95816704Y-78073333D01*
X95911942Y-78120952D01*
X95959561Y-78168571D01*
X96007180Y-78263809D01*
X96007180Y-78501904D01*
X95959561Y-78597142D01*
X95911942Y-78644761D01*
%TO.C,J6*%
X105432266Y-74152380D02*
X105432266Y-74866666D01*
X105384647Y-75009523D01*
X105289409Y-75104761D01*
X105146552Y-75152380D01*
X105051314Y-75152380D01*
X106337028Y-74152380D02*
X106146552Y-74152380D01*
X106051314Y-74200000D01*
X106003695Y-74247619D01*
X105908457Y-74390476D01*
X105860838Y-74580952D01*
X105860838Y-74961904D01*
X105908457Y-75057142D01*
X105956076Y-75104761D01*
X106051314Y-75152380D01*
X106241790Y-75152380D01*
X106337028Y-75104761D01*
X106384647Y-75057142D01*
X106432266Y-74961904D01*
X106432266Y-74723809D01*
X106384647Y-74628571D01*
X106337028Y-74580952D01*
X106241790Y-74533333D01*
X106051314Y-74533333D01*
X105956076Y-74580952D01*
X105908457Y-74628571D01*
X105860838Y-74723809D01*
%TO.C,H6*%
X93522895Y-106472380D02*
X93522895Y-105472380D01*
X93522895Y-105948571D02*
X94094323Y-105948571D01*
X94094323Y-106472380D02*
X94094323Y-105472380D01*
X94999085Y-105472380D02*
X94808609Y-105472380D01*
X94713371Y-105520000D01*
X94665752Y-105567619D01*
X94570514Y-105710476D01*
X94522895Y-105900952D01*
X94522895Y-106281904D01*
X94570514Y-106377142D01*
X94618133Y-106424761D01*
X94713371Y-106472380D01*
X94903847Y-106472380D01*
X94999085Y-106424761D01*
X95046704Y-106377142D01*
X95094323Y-106281904D01*
X95094323Y-106043809D01*
X95046704Y-105948571D01*
X94999085Y-105900952D01*
X94903847Y-105853333D01*
X94713371Y-105853333D01*
X94618133Y-105900952D01*
X94570514Y-105948571D01*
X94522895Y-106043809D01*
%TO.C,J8*%
X65797180Y-79073333D02*
X66511466Y-79073333D01*
X66654323Y-79120952D01*
X66749561Y-79216190D01*
X66797180Y-79359047D01*
X66797180Y-79454285D01*
X66225752Y-78454285D02*
X66178133Y-78549523D01*
X66130514Y-78597142D01*
X66035276Y-78644761D01*
X65987657Y-78644761D01*
X65892419Y-78597142D01*
X65844800Y-78549523D01*
X65797180Y-78454285D01*
X65797180Y-78263809D01*
X65844800Y-78168571D01*
X65892419Y-78120952D01*
X65987657Y-78073333D01*
X66035276Y-78073333D01*
X66130514Y-78120952D01*
X66178133Y-78168571D01*
X66225752Y-78263809D01*
X66225752Y-78454285D01*
X66273371Y-78549523D01*
X66320990Y-78597142D01*
X66416228Y-78644761D01*
X66606704Y-78644761D01*
X66701942Y-78597142D01*
X66749561Y-78549523D01*
X66797180Y-78454285D01*
X66797180Y-78263809D01*
X66749561Y-78168571D01*
X66701942Y-78120952D01*
X66606704Y-78073333D01*
X66416228Y-78073333D01*
X66320990Y-78120952D01*
X66273371Y-78168571D01*
X66225752Y-78263809D01*
%TO.C,D6*%
X68277180Y-64238095D02*
X67277180Y-64238095D01*
X67277180Y-64000000D01*
X67324800Y-63857142D01*
X67420038Y-63761904D01*
X67515276Y-63714285D01*
X67705752Y-63666666D01*
X67848609Y-63666666D01*
X68039085Y-63714285D01*
X68134323Y-63761904D01*
X68229561Y-63857142D01*
X68277180Y-64000000D01*
X68277180Y-64238095D01*
X67277180Y-62809523D02*
X67277180Y-63000000D01*
X67324800Y-63095238D01*
X67372419Y-63142857D01*
X67515276Y-63238095D01*
X67705752Y-63285714D01*
X68086704Y-63285714D01*
X68181942Y-63238095D01*
X68229561Y-63190476D01*
X68277180Y-63095238D01*
X68277180Y-62904761D01*
X68229561Y-62809523D01*
X68181942Y-62761904D01*
X68086704Y-62714285D01*
X67848609Y-62714285D01*
X67753371Y-62761904D01*
X67705752Y-62809523D01*
X67658133Y-62904761D01*
X67658133Y-63095238D01*
X67705752Y-63190476D01*
X67753371Y-63238095D01*
X67848609Y-63285714D01*
X66402180Y-59714285D02*
X66402180Y-60285714D01*
X66402180Y-60000000D02*
X65402180Y-60000000D01*
X65545038Y-60095238D01*
X65640276Y-60190476D01*
X65687895Y-60285714D01*
%TO.C,D7*%
X95007180Y-64238095D02*
X94007180Y-64238095D01*
X94007180Y-64000000D01*
X94054800Y-63857142D01*
X94150038Y-63761904D01*
X94245276Y-63714285D01*
X94435752Y-63666666D01*
X94578609Y-63666666D01*
X94769085Y-63714285D01*
X94864323Y-63761904D01*
X94959561Y-63857142D01*
X95007180Y-64000000D01*
X95007180Y-64238095D01*
X94007180Y-63333333D02*
X94007180Y-62666666D01*
X95007180Y-63095238D01*
X96882180Y-66714285D02*
X96882180Y-67285714D01*
X96882180Y-67000000D02*
X95882180Y-67000000D01*
X96025038Y-67095238D01*
X96120276Y-67190476D01*
X96167895Y-67285714D01*
%TO.C,D18*%
X100507180Y-97339285D02*
X99507180Y-97339285D01*
X99507180Y-97101190D01*
X99554800Y-96958333D01*
X99650038Y-96863095D01*
X99745276Y-96815476D01*
X99935752Y-96767857D01*
X100078609Y-96767857D01*
X100269085Y-96815476D01*
X100364323Y-96863095D01*
X100459561Y-96958333D01*
X100507180Y-97101190D01*
X100507180Y-97339285D01*
X100507180Y-95815476D02*
X100507180Y-96386904D01*
X100507180Y-96101190D02*
X99507180Y-96101190D01*
X99650038Y-96196428D01*
X99745276Y-96291666D01*
X99792895Y-96386904D01*
X99935752Y-95244047D02*
X99888133Y-95339285D01*
X99840514Y-95386904D01*
X99745276Y-95434523D01*
X99697657Y-95434523D01*
X99602419Y-95386904D01*
X99554800Y-95339285D01*
X99507180Y-95244047D01*
X99507180Y-95053571D01*
X99554800Y-94958333D01*
X99602419Y-94910714D01*
X99697657Y-94863095D01*
X99745276Y-94863095D01*
X99840514Y-94910714D01*
X99888133Y-94958333D01*
X99935752Y-95053571D01*
X99935752Y-95244047D01*
X99983371Y-95339285D01*
X100030990Y-95386904D01*
X100126228Y-95434523D01*
X100316704Y-95434523D01*
X100411942Y-95386904D01*
X100459561Y-95339285D01*
X100507180Y-95244047D01*
X100507180Y-95053571D01*
X100459561Y-94958333D01*
X100411942Y-94910714D01*
X100316704Y-94863095D01*
X100126228Y-94863095D01*
X100030990Y-94910714D01*
X99983371Y-94958333D01*
X99935752Y-95053571D01*
X98632180Y-92339285D02*
X98632180Y-92910714D01*
X98632180Y-92625000D02*
X97632180Y-92625000D01*
X97775038Y-92720238D01*
X97870276Y-92815476D01*
X97917895Y-92910714D01*
%TO.C,J1*%
X105432266Y-51522380D02*
X105432266Y-52236666D01*
X105384647Y-52379523D01*
X105289409Y-52474761D01*
X105146552Y-52522380D01*
X105051314Y-52522380D01*
X106432266Y-52522380D02*
X105860838Y-52522380D01*
X106146552Y-52522380D02*
X106146552Y-51522380D01*
X106051314Y-51665238D01*
X105956076Y-51760476D01*
X105860838Y-51808095D01*
%TO.C,D8*%
X107567504Y-65432380D02*
X107567504Y-64432380D01*
X107805600Y-64432380D01*
X107948457Y-64480000D01*
X108043695Y-64575238D01*
X108091314Y-64670476D01*
X108138933Y-64860952D01*
X108138933Y-65003809D01*
X108091314Y-65194285D01*
X108043695Y-65289523D01*
X107948457Y-65384761D01*
X107805600Y-65432380D01*
X107567504Y-65432380D01*
X108710361Y-64860952D02*
X108615123Y-64813333D01*
X108567504Y-64765714D01*
X108519885Y-64670476D01*
X108519885Y-64622857D01*
X108567504Y-64527619D01*
X108615123Y-64480000D01*
X108710361Y-64432380D01*
X108900838Y-64432380D01*
X108996076Y-64480000D01*
X109043695Y-64527619D01*
X109091314Y-64622857D01*
X109091314Y-64670476D01*
X109043695Y-64765714D01*
X108996076Y-64813333D01*
X108900838Y-64860952D01*
X108710361Y-64860952D01*
X108615123Y-64908571D01*
X108567504Y-64956190D01*
X108519885Y-65051428D01*
X108519885Y-65241904D01*
X108567504Y-65337142D01*
X108615123Y-65384761D01*
X108710361Y-65432380D01*
X108900838Y-65432380D01*
X108996076Y-65384761D01*
X109043695Y-65337142D01*
X109091314Y-65241904D01*
X109091314Y-65051428D01*
X109043695Y-64956190D01*
X108996076Y-64908571D01*
X108900838Y-64860952D01*
X112091314Y-63557380D02*
X111519885Y-63557380D01*
X111805600Y-63557380D02*
X111805600Y-62557380D01*
X111710361Y-62700238D01*
X111615123Y-62795476D01*
X111519885Y-62843095D01*
%TO.C,D11*%
X71480514Y-76442380D02*
X71480514Y-75442380D01*
X71718609Y-75442380D01*
X71861466Y-75490000D01*
X71956704Y-75585238D01*
X72004323Y-75680476D01*
X72051942Y-75870952D01*
X72051942Y-76013809D01*
X72004323Y-76204285D01*
X71956704Y-76299523D01*
X71861466Y-76394761D01*
X71718609Y-76442380D01*
X71480514Y-76442380D01*
X73004323Y-76442380D02*
X72432895Y-76442380D01*
X72718609Y-76442380D02*
X72718609Y-75442380D01*
X72623371Y-75585238D01*
X72528133Y-75680476D01*
X72432895Y-75728095D01*
X73956704Y-76442380D02*
X73385276Y-76442380D01*
X73670990Y-76442380D02*
X73670990Y-75442380D01*
X73575752Y-75585238D01*
X73480514Y-75680476D01*
X73385276Y-75728095D01*
X69480514Y-78317380D02*
X68909085Y-78317380D01*
X69194800Y-78317380D02*
X69194800Y-77317380D01*
X69099561Y-77460238D01*
X69004323Y-77555476D01*
X68909085Y-77603095D01*
%TO.C,D12*%
X80370514Y-76442380D02*
X80370514Y-75442380D01*
X80608609Y-75442380D01*
X80751466Y-75490000D01*
X80846704Y-75585238D01*
X80894323Y-75680476D01*
X80941942Y-75870952D01*
X80941942Y-76013809D01*
X80894323Y-76204285D01*
X80846704Y-76299523D01*
X80751466Y-76394761D01*
X80608609Y-76442380D01*
X80370514Y-76442380D01*
X81894323Y-76442380D02*
X81322895Y-76442380D01*
X81608609Y-76442380D02*
X81608609Y-75442380D01*
X81513371Y-75585238D01*
X81418133Y-75680476D01*
X81322895Y-75728095D01*
X82275276Y-75537619D02*
X82322895Y-75490000D01*
X82418133Y-75442380D01*
X82656228Y-75442380D01*
X82751466Y-75490000D01*
X82799085Y-75537619D01*
X82846704Y-75632857D01*
X82846704Y-75728095D01*
X82799085Y-75870952D01*
X82227657Y-76442380D01*
X82846704Y-76442380D01*
X78370514Y-78317380D02*
X77799085Y-78317380D01*
X78084800Y-78317380D02*
X78084800Y-77317380D01*
X77989561Y-77460238D01*
X77894323Y-77555476D01*
X77799085Y-77603095D01*
%TO.C,D13*%
X89260514Y-76442380D02*
X89260514Y-75442380D01*
X89498609Y-75442380D01*
X89641466Y-75490000D01*
X89736704Y-75585238D01*
X89784323Y-75680476D01*
X89831942Y-75870952D01*
X89831942Y-76013809D01*
X89784323Y-76204285D01*
X89736704Y-76299523D01*
X89641466Y-76394761D01*
X89498609Y-76442380D01*
X89260514Y-76442380D01*
X90784323Y-76442380D02*
X90212895Y-76442380D01*
X90498609Y-76442380D02*
X90498609Y-75442380D01*
X90403371Y-75585238D01*
X90308133Y-75680476D01*
X90212895Y-75728095D01*
X91117657Y-75442380D02*
X91736704Y-75442380D01*
X91403371Y-75823333D01*
X91546228Y-75823333D01*
X91641466Y-75870952D01*
X91689085Y-75918571D01*
X91736704Y-76013809D01*
X91736704Y-76251904D01*
X91689085Y-76347142D01*
X91641466Y-76394761D01*
X91546228Y-76442380D01*
X91260514Y-76442380D01*
X91165276Y-76394761D01*
X91117657Y-76347142D01*
X87260514Y-78317380D02*
X86689085Y-78317380D01*
X86974800Y-78317380D02*
X86974800Y-77317380D01*
X86879561Y-77460238D01*
X86784323Y-77555476D01*
X86689085Y-77603095D01*
%TO.C,D3*%
X89736704Y-51462380D02*
X89736704Y-50462380D01*
X89974800Y-50462380D01*
X90117657Y-50510000D01*
X90212895Y-50605238D01*
X90260514Y-50700476D01*
X90308133Y-50890952D01*
X90308133Y-51033809D01*
X90260514Y-51224285D01*
X90212895Y-51319523D01*
X90117657Y-51414761D01*
X89974800Y-51462380D01*
X89736704Y-51462380D01*
X90641466Y-50462380D02*
X91260514Y-50462380D01*
X90927180Y-50843333D01*
X91070038Y-50843333D01*
X91165276Y-50890952D01*
X91212895Y-50938571D01*
X91260514Y-51033809D01*
X91260514Y-51271904D01*
X91212895Y-51367142D01*
X91165276Y-51414761D01*
X91070038Y-51462380D01*
X90784323Y-51462380D01*
X90689085Y-51414761D01*
X90641466Y-51367142D01*
X94260514Y-49587380D02*
X93689085Y-49587380D01*
X93974800Y-49587380D02*
X93974800Y-48587380D01*
X93879561Y-48730238D01*
X93784323Y-48825476D01*
X93689085Y-48873095D01*
%TO.C,D22*%
X80370514Y-114962380D02*
X80370514Y-113962380D01*
X80608609Y-113962380D01*
X80751466Y-114010000D01*
X80846704Y-114105238D01*
X80894323Y-114200476D01*
X80941942Y-114390952D01*
X80941942Y-114533809D01*
X80894323Y-114724285D01*
X80846704Y-114819523D01*
X80751466Y-114914761D01*
X80608609Y-114962380D01*
X80370514Y-114962380D01*
X81322895Y-114057619D02*
X81370514Y-114010000D01*
X81465752Y-113962380D01*
X81703847Y-113962380D01*
X81799085Y-114010000D01*
X81846704Y-114057619D01*
X81894323Y-114152857D01*
X81894323Y-114248095D01*
X81846704Y-114390952D01*
X81275276Y-114962380D01*
X81894323Y-114962380D01*
X82275276Y-114057619D02*
X82322895Y-114010000D01*
X82418133Y-113962380D01*
X82656228Y-113962380D01*
X82751466Y-114010000D01*
X82799085Y-114057619D01*
X82846704Y-114152857D01*
X82846704Y-114248095D01*
X82799085Y-114390952D01*
X82227657Y-114962380D01*
X82846704Y-114962380D01*
X85370514Y-113087380D02*
X84799085Y-113087380D01*
X85084800Y-113087380D02*
X85084800Y-112087380D01*
X84989561Y-112230238D01*
X84894323Y-112325476D01*
X84799085Y-112373095D01*
%TO.C,D23*%
X89260514Y-114962380D02*
X89260514Y-113962380D01*
X89498609Y-113962380D01*
X89641466Y-114010000D01*
X89736704Y-114105238D01*
X89784323Y-114200476D01*
X89831942Y-114390952D01*
X89831942Y-114533809D01*
X89784323Y-114724285D01*
X89736704Y-114819523D01*
X89641466Y-114914761D01*
X89498609Y-114962380D01*
X89260514Y-114962380D01*
X90212895Y-114057619D02*
X90260514Y-114010000D01*
X90355752Y-113962380D01*
X90593847Y-113962380D01*
X90689085Y-114010000D01*
X90736704Y-114057619D01*
X90784323Y-114152857D01*
X90784323Y-114248095D01*
X90736704Y-114390952D01*
X90165276Y-114962380D01*
X90784323Y-114962380D01*
X91117657Y-113962380D02*
X91736704Y-113962380D01*
X91403371Y-114343333D01*
X91546228Y-114343333D01*
X91641466Y-114390952D01*
X91689085Y-114438571D01*
X91736704Y-114533809D01*
X91736704Y-114771904D01*
X91689085Y-114867142D01*
X91641466Y-114914761D01*
X91546228Y-114962380D01*
X91260514Y-114962380D01*
X91165276Y-114914761D01*
X91117657Y-114867142D01*
X94260514Y-113087380D02*
X93689085Y-113087380D01*
X93974800Y-113087380D02*
X93974800Y-112087380D01*
X93879561Y-112230238D01*
X93784323Y-112325476D01*
X93689085Y-112373095D01*
%TO.C,D14*%
X62777180Y-88449285D02*
X61777180Y-88449285D01*
X61777180Y-88211190D01*
X61824800Y-88068333D01*
X61920038Y-87973095D01*
X62015276Y-87925476D01*
X62205752Y-87877857D01*
X62348609Y-87877857D01*
X62539085Y-87925476D01*
X62634323Y-87973095D01*
X62729561Y-88068333D01*
X62777180Y-88211190D01*
X62777180Y-88449285D01*
X62777180Y-86925476D02*
X62777180Y-87496904D01*
X62777180Y-87211190D02*
X61777180Y-87211190D01*
X61920038Y-87306428D01*
X62015276Y-87401666D01*
X62062895Y-87496904D01*
X62110514Y-86068333D02*
X62777180Y-86068333D01*
X61729561Y-86306428D02*
X62443847Y-86544523D01*
X62443847Y-85925476D01*
X64652180Y-90449285D02*
X64652180Y-91020714D01*
X64652180Y-90735000D02*
X63652180Y-90735000D01*
X63795038Y-90830238D01*
X63890276Y-90925476D01*
X63937895Y-91020714D01*
%TO.C,J4*%
X110512266Y-51522380D02*
X110512266Y-52236666D01*
X110464647Y-52379523D01*
X110369409Y-52474761D01*
X110226552Y-52522380D01*
X110131314Y-52522380D01*
X111417028Y-51855714D02*
X111417028Y-52522380D01*
X111178933Y-51474761D02*
X110940838Y-52189047D01*
X111559885Y-52189047D01*
%TO.C,D15*%
X100507180Y-88449285D02*
X99507180Y-88449285D01*
X99507180Y-88211190D01*
X99554800Y-88068333D01*
X99650038Y-87973095D01*
X99745276Y-87925476D01*
X99935752Y-87877857D01*
X100078609Y-87877857D01*
X100269085Y-87925476D01*
X100364323Y-87973095D01*
X100459561Y-88068333D01*
X100507180Y-88211190D01*
X100507180Y-88449285D01*
X100507180Y-86925476D02*
X100507180Y-87496904D01*
X100507180Y-87211190D02*
X99507180Y-87211190D01*
X99650038Y-87306428D01*
X99745276Y-87401666D01*
X99792895Y-87496904D01*
X99507180Y-86020714D02*
X99507180Y-86496904D01*
X99983371Y-86544523D01*
X99935752Y-86496904D01*
X99888133Y-86401666D01*
X99888133Y-86163571D01*
X99935752Y-86068333D01*
X99983371Y-86020714D01*
X100078609Y-85973095D01*
X100316704Y-85973095D01*
X100411942Y-86020714D01*
X100459561Y-86068333D01*
X100507180Y-86163571D01*
X100507180Y-86401666D01*
X100459561Y-86496904D01*
X100411942Y-86544523D01*
X98632180Y-83449285D02*
X98632180Y-84020714D01*
X98632180Y-83735000D02*
X97632180Y-83735000D01*
X97775038Y-83830238D01*
X97870276Y-83925476D01*
X97917895Y-84020714D01*
%TO.C,D19*%
X62777180Y-105354285D02*
X61777180Y-105354285D01*
X61777180Y-105116190D01*
X61824800Y-104973333D01*
X61920038Y-104878095D01*
X62015276Y-104830476D01*
X62205752Y-104782857D01*
X62348609Y-104782857D01*
X62539085Y-104830476D01*
X62634323Y-104878095D01*
X62729561Y-104973333D01*
X62777180Y-105116190D01*
X62777180Y-105354285D01*
X62777180Y-103830476D02*
X62777180Y-104401904D01*
X62777180Y-104116190D02*
X61777180Y-104116190D01*
X61920038Y-104211428D01*
X62015276Y-104306666D01*
X62062895Y-104401904D01*
X62777180Y-103354285D02*
X62777180Y-103163809D01*
X62729561Y-103068571D01*
X62681942Y-103020952D01*
X62539085Y-102925714D01*
X62348609Y-102878095D01*
X61967657Y-102878095D01*
X61872419Y-102925714D01*
X61824800Y-102973333D01*
X61777180Y-103068571D01*
X61777180Y-103259047D01*
X61824800Y-103354285D01*
X61872419Y-103401904D01*
X61967657Y-103449523D01*
X62205752Y-103449523D01*
X62300990Y-103401904D01*
X62348609Y-103354285D01*
X62396228Y-103259047D01*
X62396228Y-103068571D01*
X62348609Y-102973333D01*
X62300990Y-102925714D01*
X62205752Y-102878095D01*
X64652180Y-107354285D02*
X64652180Y-107925714D01*
X64652180Y-107640000D02*
X63652180Y-107640000D01*
X63795038Y-107735238D01*
X63890276Y-107830476D01*
X63937895Y-107925714D01*
%TO.C,J2*%
X65797180Y-48593333D02*
X66511466Y-48593333D01*
X66654323Y-48640952D01*
X66749561Y-48736190D01*
X66797180Y-48879047D01*
X66797180Y-48974285D01*
X65892419Y-48164761D02*
X65844800Y-48117142D01*
X65797180Y-48021904D01*
X65797180Y-47783809D01*
X65844800Y-47688571D01*
X65892419Y-47640952D01*
X65987657Y-47593333D01*
X66082895Y-47593333D01*
X66225752Y-47640952D01*
X66797180Y-48212380D01*
X66797180Y-47593333D01*
%TO.C,J3*%
X95007180Y-48593333D02*
X95721466Y-48593333D01*
X95864323Y-48640952D01*
X95959561Y-48736190D01*
X96007180Y-48879047D01*
X96007180Y-48974285D01*
X95007180Y-48212380D02*
X95007180Y-47593333D01*
X95388133Y-47926666D01*
X95388133Y-47783809D01*
X95435752Y-47688571D01*
X95483371Y-47640952D01*
X95578609Y-47593333D01*
X95816704Y-47593333D01*
X95911942Y-47640952D01*
X95959561Y-47688571D01*
X96007180Y-47783809D01*
X96007180Y-48069523D01*
X95959561Y-48164761D01*
X95911942Y-48212380D01*
%TO.C,D4*%
X68277180Y-55743095D02*
X67277180Y-55743095D01*
X67277180Y-55505000D01*
X67324800Y-55362142D01*
X67420038Y-55266904D01*
X67515276Y-55219285D01*
X67705752Y-55171666D01*
X67848609Y-55171666D01*
X68039085Y-55219285D01*
X68134323Y-55266904D01*
X68229561Y-55362142D01*
X68277180Y-55505000D01*
X68277180Y-55743095D01*
X67610514Y-54314523D02*
X68277180Y-54314523D01*
X67229561Y-54552619D02*
X67943847Y-54790714D01*
X67943847Y-54171666D01*
X66402180Y-51219285D02*
X66402180Y-51790714D01*
X66402180Y-51505000D02*
X65402180Y-51505000D01*
X65545038Y-51600238D01*
X65640276Y-51695476D01*
X65687895Y-51790714D01*
%TO.C,D2*%
X80846704Y-51462380D02*
X80846704Y-50462380D01*
X81084800Y-50462380D01*
X81227657Y-50510000D01*
X81322895Y-50605238D01*
X81370514Y-50700476D01*
X81418133Y-50890952D01*
X81418133Y-51033809D01*
X81370514Y-51224285D01*
X81322895Y-51319523D01*
X81227657Y-51414761D01*
X81084800Y-51462380D01*
X80846704Y-51462380D01*
X81799085Y-50557619D02*
X81846704Y-50510000D01*
X81941942Y-50462380D01*
X82180038Y-50462380D01*
X82275276Y-50510000D01*
X82322895Y-50557619D01*
X82370514Y-50652857D01*
X82370514Y-50748095D01*
X82322895Y-50890952D01*
X81751466Y-51462380D01*
X82370514Y-51462380D01*
X85370514Y-49587380D02*
X84799085Y-49587380D01*
X85084800Y-49587380D02*
X85084800Y-48587380D01*
X84989561Y-48730238D01*
X84894323Y-48825476D01*
X84799085Y-48873095D01*
%TO.C,D16*%
X107091314Y-100992380D02*
X107091314Y-99992380D01*
X107329409Y-99992380D01*
X107472266Y-100040000D01*
X107567504Y-100135238D01*
X107615123Y-100230476D01*
X107662742Y-100420952D01*
X107662742Y-100563809D01*
X107615123Y-100754285D01*
X107567504Y-100849523D01*
X107472266Y-100944761D01*
X107329409Y-100992380D01*
X107091314Y-100992380D01*
X108615123Y-100992380D02*
X108043695Y-100992380D01*
X108329409Y-100992380D02*
X108329409Y-99992380D01*
X108234171Y-100135238D01*
X108138933Y-100230476D01*
X108043695Y-100278095D01*
X109472266Y-99992380D02*
X109281790Y-99992380D01*
X109186552Y-100040000D01*
X109138933Y-100087619D01*
X109043695Y-100230476D01*
X108996076Y-100420952D01*
X108996076Y-100801904D01*
X109043695Y-100897142D01*
X109091314Y-100944761D01*
X109186552Y-100992380D01*
X109377028Y-100992380D01*
X109472266Y-100944761D01*
X109519885Y-100897142D01*
X109567504Y-100801904D01*
X109567504Y-100563809D01*
X109519885Y-100468571D01*
X109472266Y-100420952D01*
X109377028Y-100373333D01*
X109186552Y-100373333D01*
X109091314Y-100420952D01*
X109043695Y-100468571D01*
X108996076Y-100563809D01*
X112091314Y-99117380D02*
X111519885Y-99117380D01*
X111805600Y-99117380D02*
X111805600Y-98117380D01*
X111710361Y-98260238D01*
X111615123Y-98355476D01*
X111519885Y-98403095D01*
%TO.C,D9*%
X68277180Y-72560095D02*
X67277180Y-72560095D01*
X67277180Y-72322000D01*
X67324800Y-72179142D01*
X67420038Y-72083904D01*
X67515276Y-72036285D01*
X67705752Y-71988666D01*
X67848609Y-71988666D01*
X68039085Y-72036285D01*
X68134323Y-72083904D01*
X68229561Y-72179142D01*
X68277180Y-72322000D01*
X68277180Y-72560095D01*
X68277180Y-71512476D02*
X68277180Y-71322000D01*
X68229561Y-71226761D01*
X68181942Y-71179142D01*
X68039085Y-71083904D01*
X67848609Y-71036285D01*
X67467657Y-71036285D01*
X67372419Y-71083904D01*
X67324800Y-71131523D01*
X67277180Y-71226761D01*
X67277180Y-71417238D01*
X67324800Y-71512476D01*
X67372419Y-71560095D01*
X67467657Y-71607714D01*
X67705752Y-71607714D01*
X67800990Y-71560095D01*
X67848609Y-71512476D01*
X67896228Y-71417238D01*
X67896228Y-71226761D01*
X67848609Y-71131523D01*
X67800990Y-71083904D01*
X67705752Y-71036285D01*
X66402180Y-68036285D02*
X66402180Y-68607714D01*
X66402180Y-68322000D02*
X65402180Y-68322000D01*
X65545038Y-68417238D01*
X65640276Y-68512476D01*
X65687895Y-68607714D01*
%TO.C,D1*%
X71956704Y-51462380D02*
X71956704Y-50462380D01*
X72194800Y-50462380D01*
X72337657Y-50510000D01*
X72432895Y-50605238D01*
X72480514Y-50700476D01*
X72528133Y-50890952D01*
X72528133Y-51033809D01*
X72480514Y-51224285D01*
X72432895Y-51319523D01*
X72337657Y-51414761D01*
X72194800Y-51462380D01*
X71956704Y-51462380D01*
X73480514Y-51462380D02*
X72909085Y-51462380D01*
X73194800Y-51462380D02*
X73194800Y-50462380D01*
X73099561Y-50605238D01*
X73004323Y-50700476D01*
X72909085Y-50748095D01*
X76480514Y-49587380D02*
X75909085Y-49587380D01*
X76194800Y-49587380D02*
X76194800Y-48587380D01*
X76099561Y-48730238D01*
X76004323Y-48825476D01*
X75909085Y-48873095D01*
%TO.C,D10*%
X95007180Y-73036285D02*
X94007180Y-73036285D01*
X94007180Y-72798190D01*
X94054800Y-72655333D01*
X94150038Y-72560095D01*
X94245276Y-72512476D01*
X94435752Y-72464857D01*
X94578609Y-72464857D01*
X94769085Y-72512476D01*
X94864323Y-72560095D01*
X94959561Y-72655333D01*
X95007180Y-72798190D01*
X95007180Y-73036285D01*
X95007180Y-71512476D02*
X95007180Y-72083904D01*
X95007180Y-71798190D02*
X94007180Y-71798190D01*
X94150038Y-71893428D01*
X94245276Y-71988666D01*
X94292895Y-72083904D01*
X94007180Y-70893428D02*
X94007180Y-70798190D01*
X94054800Y-70702952D01*
X94102419Y-70655333D01*
X94197657Y-70607714D01*
X94388133Y-70560095D01*
X94626228Y-70560095D01*
X94816704Y-70607714D01*
X94911942Y-70655333D01*
X94959561Y-70702952D01*
X95007180Y-70798190D01*
X95007180Y-70893428D01*
X94959561Y-70988666D01*
X94911942Y-71036285D01*
X94816704Y-71083904D01*
X94626228Y-71131523D01*
X94388133Y-71131523D01*
X94197657Y-71083904D01*
X94102419Y-71036285D01*
X94054800Y-70988666D01*
X94007180Y-70893428D01*
X96882180Y-75036285D02*
X96882180Y-75607714D01*
X96882180Y-75322000D02*
X95882180Y-75322000D01*
X96025038Y-75417238D01*
X96120276Y-75512476D01*
X96167895Y-75607714D01*
%TO.C,J9*%
X95007180Y-112093333D02*
X95721466Y-112093333D01*
X95864323Y-112140952D01*
X95959561Y-112236190D01*
X96007180Y-112379047D01*
X96007180Y-112474285D01*
X96007180Y-111569523D02*
X96007180Y-111379047D01*
X95959561Y-111283809D01*
X95911942Y-111236190D01*
X95769085Y-111140952D01*
X95578609Y-111093333D01*
X95197657Y-111093333D01*
X95102419Y-111140952D01*
X95054800Y-111188571D01*
X95007180Y-111283809D01*
X95007180Y-111474285D01*
X95054800Y-111569523D01*
X95102419Y-111617142D01*
X95197657Y-111664761D01*
X95435752Y-111664761D01*
X95530990Y-111617142D01*
X95578609Y-111569523D01*
X95626228Y-111474285D01*
X95626228Y-111283809D01*
X95578609Y-111188571D01*
X95530990Y-111140952D01*
X95435752Y-111093333D01*
%TO.C,D5*%
X95007180Y-55743095D02*
X94007180Y-55743095D01*
X94007180Y-55505000D01*
X94054800Y-55362142D01*
X94150038Y-55266904D01*
X94245276Y-55219285D01*
X94435752Y-55171666D01*
X94578609Y-55171666D01*
X94769085Y-55219285D01*
X94864323Y-55266904D01*
X94959561Y-55362142D01*
X95007180Y-55505000D01*
X95007180Y-55743095D01*
X94007180Y-54266904D02*
X94007180Y-54743095D01*
X94483371Y-54790714D01*
X94435752Y-54743095D01*
X94388133Y-54647857D01*
X94388133Y-54409761D01*
X94435752Y-54314523D01*
X94483371Y-54266904D01*
X94578609Y-54219285D01*
X94816704Y-54219285D01*
X94911942Y-54266904D01*
X94959561Y-54314523D01*
X95007180Y-54409761D01*
X95007180Y-54647857D01*
X94959561Y-54743095D01*
X94911942Y-54790714D01*
X96882180Y-58219285D02*
X96882180Y-58790714D01*
X96882180Y-58505000D02*
X95882180Y-58505000D01*
X96025038Y-58600238D01*
X96120276Y-58695476D01*
X96167895Y-58790714D01*
%TO.C,D20*%
X100507180Y-105354285D02*
X99507180Y-105354285D01*
X99507180Y-105116190D01*
X99554800Y-104973333D01*
X99650038Y-104878095D01*
X99745276Y-104830476D01*
X99935752Y-104782857D01*
X100078609Y-104782857D01*
X100269085Y-104830476D01*
X100364323Y-104878095D01*
X100459561Y-104973333D01*
X100507180Y-105116190D01*
X100507180Y-105354285D01*
X99602419Y-104401904D02*
X99554800Y-104354285D01*
X99507180Y-104259047D01*
X99507180Y-104020952D01*
X99554800Y-103925714D01*
X99602419Y-103878095D01*
X99697657Y-103830476D01*
X99792895Y-103830476D01*
X99935752Y-103878095D01*
X100507180Y-104449523D01*
X100507180Y-103830476D01*
X99507180Y-103211428D02*
X99507180Y-103116190D01*
X99554800Y-103020952D01*
X99602419Y-102973333D01*
X99697657Y-102925714D01*
X99888133Y-102878095D01*
X100126228Y-102878095D01*
X100316704Y-102925714D01*
X100411942Y-102973333D01*
X100459561Y-103020952D01*
X100507180Y-103116190D01*
X100507180Y-103211428D01*
X100459561Y-103306666D01*
X100411942Y-103354285D01*
X100316704Y-103401904D01*
X100126228Y-103449523D01*
X99888133Y-103449523D01*
X99697657Y-103401904D01*
X99602419Y-103354285D01*
X99554800Y-103306666D01*
X99507180Y-103211428D01*
X98632180Y-100354285D02*
X98632180Y-100925714D01*
X98632180Y-100640000D02*
X97632180Y-100640000D01*
X97775038Y-100735238D01*
X97870276Y-100830476D01*
X97917895Y-100925714D01*
%TO.C,D17*%
X62777180Y-97339285D02*
X61777180Y-97339285D01*
X61777180Y-97101190D01*
X61824800Y-96958333D01*
X61920038Y-96863095D01*
X62015276Y-96815476D01*
X62205752Y-96767857D01*
X62348609Y-96767857D01*
X62539085Y-96815476D01*
X62634323Y-96863095D01*
X62729561Y-96958333D01*
X62777180Y-97101190D01*
X62777180Y-97339285D01*
X62777180Y-95815476D02*
X62777180Y-96386904D01*
X62777180Y-96101190D02*
X61777180Y-96101190D01*
X61920038Y-96196428D01*
X62015276Y-96291666D01*
X62062895Y-96386904D01*
X61777180Y-95482142D02*
X61777180Y-94815476D01*
X62777180Y-95244047D01*
X64652180Y-99339285D02*
X64652180Y-99910714D01*
X64652180Y-99625000D02*
X63652180Y-99625000D01*
X63795038Y-99720238D01*
X63890276Y-99815476D01*
X63937895Y-99910714D01*
%TO.C,D21*%
X71480514Y-114962380D02*
X71480514Y-113962380D01*
X71718609Y-113962380D01*
X71861466Y-114010000D01*
X71956704Y-114105238D01*
X72004323Y-114200476D01*
X72051942Y-114390952D01*
X72051942Y-114533809D01*
X72004323Y-114724285D01*
X71956704Y-114819523D01*
X71861466Y-114914761D01*
X71718609Y-114962380D01*
X71480514Y-114962380D01*
X72432895Y-114057619D02*
X72480514Y-114010000D01*
X72575752Y-113962380D01*
X72813847Y-113962380D01*
X72909085Y-114010000D01*
X72956704Y-114057619D01*
X73004323Y-114152857D01*
X73004323Y-114248095D01*
X72956704Y-114390952D01*
X72385276Y-114962380D01*
X73004323Y-114962380D01*
X73956704Y-114962380D02*
X73385276Y-114962380D01*
X73670990Y-114962380D02*
X73670990Y-113962380D01*
X73575752Y-114105238D01*
X73480514Y-114200476D01*
X73385276Y-114248095D01*
X76480514Y-113087380D02*
X75909085Y-113087380D01*
X76194800Y-113087380D02*
X76194800Y-112087380D01*
X76099561Y-112230238D01*
X76004323Y-112325476D01*
X75909085Y-112373095D01*
%TD*%
M02*
