%TF.GenerationSoftware,KiCad,Pcbnew,(5.1.9)-1*%
%TF.CreationDate,2021-05-05T18:50:43+10:00*%
%TF.ProjectId,panel,70616e65-6c2e-46b6-9963-61645f706362,rev?*%
%TF.SameCoordinates,Original*%
%TF.FileFunction,Soldermask,Top*%
%TF.FilePolarity,Negative*%
%FSLAX46Y46*%
G04 Gerber Fmt 4.6, Leading zero omitted, Abs format (unit mm)*
G04 Created by KiCad (PCBNEW (5.1.9)-1) date 2021-05-05 18:50:43*
%MOMM*%
%LPD*%
G01*
G04 APERTURE LIST*
%ADD10C,0.500000*%
%ADD11R,0.850000X1.600000*%
%ADD12O,1.700000X1.700000*%
%ADD13R,1.700000X1.700000*%
%ADD14R,1.600000X0.850000*%
%ADD15C,2.100000*%
G04 APERTURE END LIST*
D10*
%TO.C,mouse-bite-2.54mm-slot*%
X103055600Y-52819400D03*
X103055600Y-54419400D03*
X100855600Y-54419400D03*
X100855600Y-52819400D03*
X103055600Y-53619400D03*
X100855600Y-53619400D03*
%TD*%
%TO.C,mouse-bite-2.54mm-slot*%
X103055600Y-78625800D03*
X103055600Y-80225800D03*
X100855600Y-80225800D03*
X100855600Y-78625800D03*
X103055600Y-79425800D03*
X100855600Y-79425800D03*
%TD*%
%TO.C,mouse-bite-2.54mm-slot*%
X103055600Y-105067200D03*
X103055600Y-106667200D03*
X100855600Y-106667200D03*
X100855600Y-105067200D03*
X103055600Y-105867200D03*
X100855600Y-105867200D03*
%TD*%
%TO.C,mouse-bite-2.54mm-slot*%
X61044000Y-77940000D03*
X61044000Y-79540000D03*
X58844000Y-79540000D03*
X58844000Y-77940000D03*
X61044000Y-78740000D03*
X58844000Y-78740000D03*
%TD*%
%TO.C,mouse-bite-2.54mm-slot*%
X61044000Y-51524000D03*
X61044000Y-53124000D03*
X58844000Y-53124000D03*
X58844000Y-51524000D03*
X61044000Y-52324000D03*
X58844000Y-52324000D03*
%TD*%
%TO.C,mouse-bite-2.54mm-slot*%
X61044000Y-106388000D03*
X61044000Y-107988000D03*
X58844000Y-107988000D03*
X58844000Y-106388000D03*
X61044000Y-107188000D03*
X58844000Y-107188000D03*
%TD*%
D11*
%TO.C,D5*%
X54469000Y-56755000D03*
X56219000Y-56755000D03*
X54469000Y-53255000D03*
X56219000Y-53255000D03*
%TD*%
D12*
%TO.C,J9*%
X56134000Y-113030000D03*
D13*
X56134000Y-110490000D03*
%TD*%
D11*
%TO.C,D20*%
X56219000Y-102390000D03*
X54469000Y-102390000D03*
X56219000Y-105890000D03*
X54469000Y-105890000D03*
%TD*%
%TO.C,D17*%
X22239000Y-97875000D03*
X23989000Y-97875000D03*
X22239000Y-94375000D03*
X23989000Y-94375000D03*
%TD*%
D14*
%TO.C,D21*%
X32484000Y-112635000D03*
X32484000Y-110885000D03*
X28984000Y-112635000D03*
X28984000Y-110885000D03*
%TD*%
D15*
%TO.C,H3*%
X25654000Y-50800000D03*
%TD*%
D12*
%TO.C,J5*%
X56084000Y-79960000D03*
D13*
X56084000Y-77420000D03*
%TD*%
D15*
%TO.C,H6*%
X52324000Y-109220000D03*
%TD*%
D12*
%TO.C,J8*%
X21844000Y-80010000D03*
D13*
X21844000Y-77470000D03*
%TD*%
D11*
%TO.C,D6*%
X23989000Y-61750000D03*
X22239000Y-61750000D03*
X23989000Y-65250000D03*
X22239000Y-65250000D03*
%TD*%
%TO.C,D7*%
X54469000Y-65250000D03*
X56219000Y-65250000D03*
X54469000Y-61750000D03*
X56219000Y-61750000D03*
%TD*%
D15*
%TO.C,H4*%
X25654000Y-109220000D03*
%TD*%
D12*
%TO.C,J12*%
X21844000Y-112980000D03*
D13*
X21844000Y-110440000D03*
%TD*%
D15*
%TO.C,H5*%
X52324000Y-50800000D03*
%TD*%
D11*
%TO.C,D18*%
X56219000Y-94375000D03*
X54469000Y-94375000D03*
X56219000Y-97875000D03*
X54469000Y-97875000D03*
%TD*%
D14*
%TO.C,D22*%
X41374000Y-112635000D03*
X41374000Y-110885000D03*
X37874000Y-112635000D03*
X37874000Y-110885000D03*
%TD*%
D11*
%TO.C,D15*%
X56219000Y-85485000D03*
X54469000Y-85485000D03*
X56219000Y-88985000D03*
X54469000Y-88985000D03*
%TD*%
D14*
%TO.C,D1*%
X32484000Y-49135000D03*
X32484000Y-47385000D03*
X28984000Y-49135000D03*
X28984000Y-47385000D03*
%TD*%
D12*
%TO.C,J3*%
X56134000Y-49580000D03*
D13*
X56134000Y-47040000D03*
%TD*%
D14*
%TO.C,D13*%
X46764000Y-77865000D03*
X46764000Y-79615000D03*
X50264000Y-77865000D03*
X50264000Y-79615000D03*
%TD*%
D11*
%TO.C,D19*%
X22239000Y-105890000D03*
X23989000Y-105890000D03*
X22239000Y-102390000D03*
X23989000Y-102390000D03*
%TD*%
%TO.C,D9*%
X23989000Y-70072000D03*
X22239000Y-70072000D03*
X23989000Y-73572000D03*
X22239000Y-73572000D03*
%TD*%
%TO.C,D10*%
X54469000Y-73572000D03*
X56219000Y-73572000D03*
X54469000Y-70072000D03*
X56219000Y-70072000D03*
%TD*%
D14*
%TO.C,D11*%
X28984000Y-77865000D03*
X28984000Y-79615000D03*
X32484000Y-77865000D03*
X32484000Y-79615000D03*
%TD*%
%TO.C,D3*%
X50264000Y-49135000D03*
X50264000Y-47385000D03*
X46764000Y-49135000D03*
X46764000Y-47385000D03*
%TD*%
D12*
%TO.C,J2*%
X21844000Y-49530000D03*
D13*
X21844000Y-46990000D03*
%TD*%
D11*
%TO.C,D4*%
X23989000Y-53255000D03*
X22239000Y-53255000D03*
X23989000Y-56755000D03*
X22239000Y-56755000D03*
%TD*%
%TO.C,D14*%
X22239000Y-88985000D03*
X23989000Y-88985000D03*
X22239000Y-85485000D03*
X23989000Y-85485000D03*
%TD*%
D14*
%TO.C,D2*%
X41374000Y-49135000D03*
X41374000Y-47385000D03*
X37874000Y-49135000D03*
X37874000Y-47385000D03*
%TD*%
%TO.C,D23*%
X50264000Y-112635000D03*
X50264000Y-110885000D03*
X46764000Y-112635000D03*
X46764000Y-110885000D03*
%TD*%
%TO.C,D12*%
X37874000Y-77865000D03*
X37874000Y-79615000D03*
X41374000Y-77865000D03*
X41374000Y-79615000D03*
%TD*%
D15*
%TO.C,H2*%
X108305600Y-54610000D03*
%TD*%
%TO.C,H4*%
X67614800Y-109220000D03*
%TD*%
%TO.C,H5*%
X94284800Y-50800000D03*
%TD*%
%TO.C,H1*%
X108305600Y-105410000D03*
%TD*%
D13*
%TO.C,J7*%
X110845600Y-77420000D03*
D12*
X110845600Y-79960000D03*
%TD*%
D15*
%TO.C,H3*%
X67614800Y-50800000D03*
%TD*%
D13*
%TO.C,J10*%
X110845600Y-110490000D03*
D12*
X110845600Y-113030000D03*
%TD*%
D13*
%TO.C,J11*%
X105765600Y-110440000D03*
D12*
X105765600Y-112980000D03*
%TD*%
D13*
%TO.C,J12*%
X63804800Y-110440000D03*
D12*
X63804800Y-112980000D03*
%TD*%
D13*
%TO.C,J5*%
X98044800Y-77420000D03*
D12*
X98044800Y-79960000D03*
%TD*%
D13*
%TO.C,J6*%
X105765600Y-77470000D03*
D12*
X105765600Y-80010000D03*
%TD*%
D15*
%TO.C,H6*%
X94284800Y-109220000D03*
%TD*%
D13*
%TO.C,J8*%
X63804800Y-77470000D03*
D12*
X63804800Y-80010000D03*
%TD*%
D11*
%TO.C,D6*%
X64199800Y-65250000D03*
X65949800Y-65250000D03*
X64199800Y-61750000D03*
X65949800Y-61750000D03*
%TD*%
%TO.C,D7*%
X98179800Y-61750000D03*
X96429800Y-61750000D03*
X98179800Y-65250000D03*
X96429800Y-65250000D03*
%TD*%
%TO.C,D18*%
X96429800Y-97875000D03*
X98179800Y-97875000D03*
X96429800Y-94375000D03*
X98179800Y-94375000D03*
%TD*%
D13*
%TO.C,J1*%
X105765600Y-46990000D03*
D12*
X105765600Y-49530000D03*
%TD*%
D14*
%TO.C,D8*%
X106555600Y-61355000D03*
X106555600Y-63105000D03*
X110055600Y-61355000D03*
X110055600Y-63105000D03*
%TD*%
%TO.C,D11*%
X74444800Y-79615000D03*
X74444800Y-77865000D03*
X70944800Y-79615000D03*
X70944800Y-77865000D03*
%TD*%
%TO.C,D12*%
X83334800Y-79615000D03*
X83334800Y-77865000D03*
X79834800Y-79615000D03*
X79834800Y-77865000D03*
%TD*%
%TO.C,D13*%
X92224800Y-79615000D03*
X92224800Y-77865000D03*
X88724800Y-79615000D03*
X88724800Y-77865000D03*
%TD*%
%TO.C,D3*%
X88724800Y-47385000D03*
X88724800Y-49135000D03*
X92224800Y-47385000D03*
X92224800Y-49135000D03*
%TD*%
%TO.C,D22*%
X79834800Y-110885000D03*
X79834800Y-112635000D03*
X83334800Y-110885000D03*
X83334800Y-112635000D03*
%TD*%
%TO.C,D23*%
X88724800Y-110885000D03*
X88724800Y-112635000D03*
X92224800Y-110885000D03*
X92224800Y-112635000D03*
%TD*%
D11*
%TO.C,D14*%
X65949800Y-85485000D03*
X64199800Y-85485000D03*
X65949800Y-88985000D03*
X64199800Y-88985000D03*
%TD*%
D13*
%TO.C,J4*%
X110845600Y-47040000D03*
D12*
X110845600Y-49580000D03*
%TD*%
D11*
%TO.C,D15*%
X96429800Y-88985000D03*
X98179800Y-88985000D03*
X96429800Y-85485000D03*
X98179800Y-85485000D03*
%TD*%
%TO.C,D19*%
X65949800Y-102390000D03*
X64199800Y-102390000D03*
X65949800Y-105890000D03*
X64199800Y-105890000D03*
%TD*%
D13*
%TO.C,J2*%
X63804800Y-46990000D03*
D12*
X63804800Y-49530000D03*
%TD*%
D13*
%TO.C,J3*%
X98094800Y-47040000D03*
D12*
X98094800Y-49580000D03*
%TD*%
D11*
%TO.C,D4*%
X64199800Y-56755000D03*
X65949800Y-56755000D03*
X64199800Y-53255000D03*
X65949800Y-53255000D03*
%TD*%
D14*
%TO.C,D2*%
X79834800Y-47385000D03*
X79834800Y-49135000D03*
X83334800Y-47385000D03*
X83334800Y-49135000D03*
%TD*%
%TO.C,D16*%
X106555600Y-96915000D03*
X106555600Y-98665000D03*
X110055600Y-96915000D03*
X110055600Y-98665000D03*
%TD*%
D11*
%TO.C,D9*%
X64199800Y-73572000D03*
X65949800Y-73572000D03*
X64199800Y-70072000D03*
X65949800Y-70072000D03*
%TD*%
D14*
%TO.C,D1*%
X70944800Y-47385000D03*
X70944800Y-49135000D03*
X74444800Y-47385000D03*
X74444800Y-49135000D03*
%TD*%
D11*
%TO.C,D10*%
X98179800Y-70072000D03*
X96429800Y-70072000D03*
X98179800Y-73572000D03*
X96429800Y-73572000D03*
%TD*%
D13*
%TO.C,J9*%
X98094800Y-110490000D03*
D12*
X98094800Y-113030000D03*
%TD*%
D11*
%TO.C,D5*%
X98179800Y-53255000D03*
X96429800Y-53255000D03*
X98179800Y-56755000D03*
X96429800Y-56755000D03*
%TD*%
%TO.C,D20*%
X96429800Y-105890000D03*
X98179800Y-105890000D03*
X96429800Y-102390000D03*
X98179800Y-102390000D03*
%TD*%
%TO.C,D17*%
X65949800Y-94375000D03*
X64199800Y-94375000D03*
X65949800Y-97875000D03*
X64199800Y-97875000D03*
%TD*%
D14*
%TO.C,D21*%
X70944800Y-110885000D03*
X70944800Y-112635000D03*
X74444800Y-110885000D03*
X74444800Y-112635000D03*
%TD*%
M02*
