G04 #@! TF.GenerationSoftware,KiCad,Pcbnew,(5.1.5)-2*
G04 #@! TF.CreationDate,2019-12-05T22:10:54+11:00*
G04 #@! TF.ProjectId,BluePill-BitBlaster,426c7565-5069-46c6-9c2d-426974426c61,rev?*
G04 #@! TF.SameCoordinates,Original*
G04 #@! TF.FileFunction,Legend,Top*
G04 #@! TF.FilePolarity,Positive*
%FSLAX46Y46*%
G04 Gerber Fmt 4.6, Leading zero omitted, Abs format (unit mm)*
G04 Created by KiCad (PCBNEW (5.1.5)-2) date 2019-12-05 22:10:54*
%MOMM*%
%LPD*%
G04 APERTURE LIST*
%ADD10C,0.300000*%
%ADD11C,0.150000*%
%ADD12C,0.120000*%
%ADD13O,1.802000X1.802000*%
%ADD14R,1.802000X1.802000*%
G04 APERTURE END LIST*
D10*
X132715000Y-74930000D02*
X132715000Y-69850000D01*
X126365000Y-74930000D02*
X132715000Y-74930000D01*
X126365000Y-60960000D02*
X126365000Y-74930000D01*
X132715000Y-60960000D02*
X126365000Y-60960000D01*
X132715000Y-66040000D02*
X132715000Y-60960000D01*
D11*
X113061904Y-65857380D02*
X113061904Y-64857380D01*
X113442857Y-64857380D01*
X113538095Y-64905000D01*
X113585714Y-64952619D01*
X113633333Y-65047857D01*
X113633333Y-65190714D01*
X113585714Y-65285952D01*
X113538095Y-65333571D01*
X113442857Y-65381190D01*
X113061904Y-65381190D01*
X114395238Y-65333571D02*
X114538095Y-65381190D01*
X114585714Y-65428809D01*
X114633333Y-65524047D01*
X114633333Y-65666904D01*
X114585714Y-65762142D01*
X114538095Y-65809761D01*
X114442857Y-65857380D01*
X114061904Y-65857380D01*
X114061904Y-64857380D01*
X114395238Y-64857380D01*
X114490476Y-64905000D01*
X114538095Y-64952619D01*
X114585714Y-65047857D01*
X114585714Y-65143095D01*
X114538095Y-65238333D01*
X114490476Y-65285952D01*
X114395238Y-65333571D01*
X114061904Y-65333571D01*
X115490476Y-64857380D02*
X115300000Y-64857380D01*
X115204761Y-64905000D01*
X115157142Y-64952619D01*
X115061904Y-65095476D01*
X115014285Y-65285952D01*
X115014285Y-65666904D01*
X115061904Y-65762142D01*
X115109523Y-65809761D01*
X115204761Y-65857380D01*
X115395238Y-65857380D01*
X115490476Y-65809761D01*
X115538095Y-65762142D01*
X115585714Y-65666904D01*
X115585714Y-65428809D01*
X115538095Y-65333571D01*
X115490476Y-65285952D01*
X115395238Y-65238333D01*
X115204761Y-65238333D01*
X115109523Y-65285952D01*
X115061904Y-65333571D01*
X115014285Y-65428809D01*
X113061904Y-68397380D02*
X113061904Y-67397380D01*
X113442857Y-67397380D01*
X113538095Y-67445000D01*
X113585714Y-67492619D01*
X113633333Y-67587857D01*
X113633333Y-67730714D01*
X113585714Y-67825952D01*
X113538095Y-67873571D01*
X113442857Y-67921190D01*
X113061904Y-67921190D01*
X114395238Y-67873571D02*
X114538095Y-67921190D01*
X114585714Y-67968809D01*
X114633333Y-68064047D01*
X114633333Y-68206904D01*
X114585714Y-68302142D01*
X114538095Y-68349761D01*
X114442857Y-68397380D01*
X114061904Y-68397380D01*
X114061904Y-67397380D01*
X114395238Y-67397380D01*
X114490476Y-67445000D01*
X114538095Y-67492619D01*
X114585714Y-67587857D01*
X114585714Y-67683095D01*
X114538095Y-67778333D01*
X114490476Y-67825952D01*
X114395238Y-67873571D01*
X114061904Y-67873571D01*
X115538095Y-67397380D02*
X115061904Y-67397380D01*
X115014285Y-67873571D01*
X115061904Y-67825952D01*
X115157142Y-67778333D01*
X115395238Y-67778333D01*
X115490476Y-67825952D01*
X115538095Y-67873571D01*
X115585714Y-67968809D01*
X115585714Y-68206904D01*
X115538095Y-68302142D01*
X115490476Y-68349761D01*
X115395238Y-68397380D01*
X115157142Y-68397380D01*
X115061904Y-68349761D01*
X115014285Y-68302142D01*
X113061904Y-70937380D02*
X113061904Y-69937380D01*
X113442857Y-69937380D01*
X113538095Y-69985000D01*
X113585714Y-70032619D01*
X113633333Y-70127857D01*
X113633333Y-70270714D01*
X113585714Y-70365952D01*
X113538095Y-70413571D01*
X113442857Y-70461190D01*
X113061904Y-70461190D01*
X114395238Y-70413571D02*
X114538095Y-70461190D01*
X114585714Y-70508809D01*
X114633333Y-70604047D01*
X114633333Y-70746904D01*
X114585714Y-70842142D01*
X114538095Y-70889761D01*
X114442857Y-70937380D01*
X114061904Y-70937380D01*
X114061904Y-69937380D01*
X114395238Y-69937380D01*
X114490476Y-69985000D01*
X114538095Y-70032619D01*
X114585714Y-70127857D01*
X114585714Y-70223095D01*
X114538095Y-70318333D01*
X114490476Y-70365952D01*
X114395238Y-70413571D01*
X114061904Y-70413571D01*
X115490476Y-70270714D02*
X115490476Y-70937380D01*
X115252380Y-69889761D02*
X115014285Y-70604047D01*
X115633333Y-70604047D01*
X113061904Y-73477380D02*
X113061904Y-72477380D01*
X113442857Y-72477380D01*
X113538095Y-72525000D01*
X113585714Y-72572619D01*
X113633333Y-72667857D01*
X113633333Y-72810714D01*
X113585714Y-72905952D01*
X113538095Y-72953571D01*
X113442857Y-73001190D01*
X113061904Y-73001190D01*
X114395238Y-72953571D02*
X114538095Y-73001190D01*
X114585714Y-73048809D01*
X114633333Y-73144047D01*
X114633333Y-73286904D01*
X114585714Y-73382142D01*
X114538095Y-73429761D01*
X114442857Y-73477380D01*
X114061904Y-73477380D01*
X114061904Y-72477380D01*
X114395238Y-72477380D01*
X114490476Y-72525000D01*
X114538095Y-72572619D01*
X114585714Y-72667857D01*
X114585714Y-72763095D01*
X114538095Y-72858333D01*
X114490476Y-72905952D01*
X114395238Y-72953571D01*
X114061904Y-72953571D01*
X114966666Y-72477380D02*
X115585714Y-72477380D01*
X115252380Y-72858333D01*
X115395238Y-72858333D01*
X115490476Y-72905952D01*
X115538095Y-72953571D01*
X115585714Y-73048809D01*
X115585714Y-73286904D01*
X115538095Y-73382142D01*
X115490476Y-73429761D01*
X115395238Y-73477380D01*
X115109523Y-73477380D01*
X115014285Y-73429761D01*
X114966666Y-73382142D01*
D12*
X132140000Y-74355000D02*
X130810000Y-74355000D01*
X132140000Y-73025000D02*
X132140000Y-74355000D01*
X129540000Y-74355000D02*
X126940000Y-74355000D01*
X129540000Y-71755000D02*
X129540000Y-74355000D01*
X132140000Y-71755000D02*
X129540000Y-71755000D01*
X126940000Y-74355000D02*
X126940000Y-61535000D01*
X132140000Y-71755000D02*
X132140000Y-61535000D01*
X132140000Y-61535000D02*
X126940000Y-61535000D01*
X111125000Y-48895000D02*
X112455000Y-48895000D01*
X112455000Y-48895000D02*
X112455000Y-50225000D01*
X112455000Y-51495000D02*
X112455000Y-74415000D01*
X109795000Y-74415000D02*
X112455000Y-74415000D01*
X109795000Y-51495000D02*
X109795000Y-74415000D01*
X109795000Y-51495000D02*
X112455000Y-51495000D01*
%LPC*%
D13*
X128270000Y-62865000D03*
X130810000Y-62865000D03*
X128270000Y-65405000D03*
X130810000Y-65405000D03*
X128270000Y-67945000D03*
X130810000Y-67945000D03*
X128270000Y-70485000D03*
X130810000Y-70485000D03*
X128270000Y-73025000D03*
D14*
X130810000Y-73025000D03*
D13*
X111125000Y-73085000D03*
X111125000Y-70545000D03*
X111125000Y-68005000D03*
X111125000Y-65465000D03*
X111125000Y-62925000D03*
X111125000Y-60385000D03*
X111125000Y-57845000D03*
X111125000Y-55305000D03*
X111125000Y-52765000D03*
D14*
X111125000Y-50225000D03*
M02*
