G04 #@! TF.GenerationSoftware,KiCad,Pcbnew,(5.1.5)-2*
G04 #@! TF.CreationDate,2019-12-05T22:10:54+11:00*
G04 #@! TF.ProjectId,BluePill-BitBlaster,426c7565-5069-46c6-9c2d-426974426c61,rev?*
G04 #@! TF.SameCoordinates,Original*
G04 #@! TF.FileFunction,Copper,L1,Top*
G04 #@! TF.FilePolarity,Positive*
%FSLAX46Y46*%
G04 Gerber Fmt 4.6, Leading zero omitted, Abs format (unit mm)*
G04 Created by KiCad (PCBNEW (5.1.5)-2) date 2019-12-05 22:10:54*
%MOMM*%
%LPD*%
G04 APERTURE LIST*
%ADD10O,1.700000X1.700000*%
%ADD11R,1.700000X1.700000*%
%ADD12C,0.800000*%
%ADD13C,1.000000*%
%ADD14C,0.250000*%
%ADD15C,0.500000*%
G04 APERTURE END LIST*
D10*
X128270000Y-62865000D03*
X130810000Y-62865000D03*
X128270000Y-65405000D03*
X130810000Y-65405000D03*
X128270000Y-67945000D03*
X130810000Y-67945000D03*
X128270000Y-70485000D03*
X130810000Y-70485000D03*
X128270000Y-73025000D03*
D11*
X130810000Y-73025000D03*
D10*
X111125000Y-73085000D03*
X111125000Y-70545000D03*
X111125000Y-68005000D03*
X111125000Y-65465000D03*
X111125000Y-62925000D03*
X111125000Y-60385000D03*
X111125000Y-57845000D03*
X111125000Y-55305000D03*
X111125000Y-52765000D03*
D11*
X111125000Y-50225000D03*
D12*
X114300000Y-64770000D03*
D13*
X116840000Y-63500000D03*
D14*
X125035000Y-73085000D02*
X111125000Y-73085000D01*
X126270001Y-71849999D02*
X125035000Y-73085000D01*
X130810000Y-73025000D02*
X129634999Y-71849999D01*
X129634999Y-71849999D02*
X126270001Y-71849999D01*
X123190000Y-69215000D02*
X121860000Y-70545000D01*
X130810000Y-70485000D02*
X129540000Y-69215000D01*
X121860000Y-70545000D02*
X111125000Y-70545000D01*
X129540000Y-69215000D02*
X123190000Y-69215000D01*
X120650000Y-64770000D02*
X114300000Y-64770000D01*
X121285000Y-64135000D02*
X120650000Y-64770000D01*
X130810000Y-62865000D02*
X129540000Y-64135000D01*
X129540000Y-64135000D02*
X121285000Y-64135000D01*
X121980000Y-65465000D02*
X111125000Y-65465000D01*
X123284999Y-66769999D02*
X121980000Y-65465000D01*
X130810000Y-67945000D02*
X129634999Y-66769999D01*
X129634999Y-66769999D02*
X123284999Y-66769999D01*
D15*
X112475000Y-50225000D02*
X113030000Y-50780000D01*
X111125000Y-50225000D02*
X112475000Y-50225000D01*
X113030000Y-50780000D02*
X113030000Y-60960000D01*
X115570000Y-63500000D02*
X116840000Y-63500000D01*
X113030000Y-60960000D02*
X115570000Y-63500000D01*
M02*
