M48
; DRILL file {KiCad (5.1.5)-2} date 5/12/2019 10:10:58 PM
; FORMAT={-:-/ absolute / inch / decimal}
; #@! TF.CreationDate,2019-12-05T22:10:58+11:00
; #@! TF.GenerationSoftware,Kicad,Pcbnew,(5.1.5)-2
; #@! TF.FileFunction,Plated,1,2,PTH
FMAT,2
INCH
T1C0.0157
T2C0.0236
T3C0.0394
%
G90
G05
T1
X4.5Y-2.55
T2
X4.6Y-2.5
T3
X4.375Y-1.9774
X4.375Y-2.0774
X4.375Y-2.1774
X4.375Y-2.2774
X4.375Y-2.3774
X4.375Y-2.4774
X4.375Y-2.5774
X4.375Y-2.6774
X4.375Y-2.7774
X4.375Y-2.8774
X5.05Y-2.475
X5.05Y-2.575
X5.05Y-2.675
X5.05Y-2.775
X5.05Y-2.875
X5.15Y-2.475
X5.15Y-2.575
X5.15Y-2.675
X5.15Y-2.775
X5.15Y-2.875
T0
M30
