G04 #@! TF.GenerationSoftware,KiCad,Pcbnew,(5.1.5)-2*
G04 #@! TF.CreationDate,2019-12-05T22:10:54+11:00*
G04 #@! TF.ProjectId,BluePill-BitBlaster,426c7565-5069-46c6-9c2d-426974426c61,rev?*
G04 #@! TF.SameCoordinates,Original*
G04 #@! TF.FileFunction,Copper,L2,Bot*
G04 #@! TF.FilePolarity,Positive*
%FSLAX46Y46*%
G04 Gerber Fmt 4.6, Leading zero omitted, Abs format (unit mm)*
G04 Created by KiCad (PCBNEW (5.1.5)-2) date 2019-12-05 22:10:54*
%MOMM*%
%LPD*%
G04 APERTURE LIST*
%ADD10O,1.700000X1.700000*%
%ADD11R,1.700000X1.700000*%
%ADD12C,0.800000*%
%ADD13C,1.000000*%
%ADD14C,0.250000*%
%ADD15C,0.500000*%
%ADD16C,0.254000*%
G04 APERTURE END LIST*
D10*
X128270000Y-62865000D03*
X130810000Y-62865000D03*
X128270000Y-65405000D03*
X130810000Y-65405000D03*
X128270000Y-67945000D03*
X130810000Y-67945000D03*
X128270000Y-70485000D03*
X130810000Y-70485000D03*
X128270000Y-73025000D03*
D11*
X130810000Y-73025000D03*
D10*
X111125000Y-73085000D03*
X111125000Y-70545000D03*
X111125000Y-68005000D03*
X111125000Y-65465000D03*
X111125000Y-62925000D03*
X111125000Y-60385000D03*
X111125000Y-57845000D03*
X111125000Y-55305000D03*
X111125000Y-52765000D03*
D11*
X111125000Y-50225000D03*
D12*
X114300000Y-64770000D03*
D13*
X116840000Y-63500000D03*
D14*
X114300000Y-64770000D02*
X113030000Y-66040000D01*
X113030000Y-66040000D02*
X113030000Y-67310000D01*
X112335000Y-68005000D02*
X111125000Y-68005000D01*
X113030000Y-67310000D02*
X112335000Y-68005000D01*
D15*
X116840000Y-63500000D02*
X118110000Y-63500000D01*
X118110000Y-63500000D02*
X119380000Y-64770000D01*
X119380000Y-64770000D02*
X119380000Y-68580000D01*
X121285000Y-70485000D02*
X128270000Y-70485000D01*
X119380000Y-68580000D02*
X121285000Y-70485000D01*
D16*
G36*
X113147869Y-47664722D02*
G01*
X113261246Y-47698953D01*
X113365819Y-47754555D01*
X113457596Y-47829407D01*
X113533091Y-47920664D01*
X113589419Y-48024844D01*
X113624440Y-48137976D01*
X113640001Y-48286031D01*
X113640000Y-55912418D01*
X113642975Y-55942626D01*
X113642809Y-55966416D01*
X113643709Y-55975587D01*
X113721433Y-56715095D01*
X113733458Y-56773675D01*
X113744670Y-56832453D01*
X113747334Y-56841274D01*
X113967217Y-57551601D01*
X113990392Y-57606731D01*
X114012806Y-57662210D01*
X114017133Y-57670346D01*
X114370799Y-58324437D01*
X114404244Y-58374021D01*
X114437004Y-58424084D01*
X114442828Y-58431225D01*
X114916805Y-59004165D01*
X114959241Y-59046305D01*
X115001104Y-59089055D01*
X115008205Y-59094928D01*
X115584439Y-59564893D01*
X115634247Y-59597986D01*
X115683621Y-59631793D01*
X115691727Y-59636176D01*
X116348271Y-59985266D01*
X116403586Y-60008065D01*
X116458558Y-60031626D01*
X116467361Y-60034351D01*
X117179206Y-60249270D01*
X117237901Y-60260892D01*
X117296397Y-60273326D01*
X117305562Y-60274289D01*
X118045595Y-60346850D01*
X118045598Y-60346850D01*
X118077581Y-60350000D01*
X132682721Y-60350000D01*
X132832869Y-60364722D01*
X132946246Y-60398953D01*
X133050819Y-60454555D01*
X133142596Y-60529407D01*
X133218091Y-60620664D01*
X133274419Y-60724844D01*
X133309440Y-60837976D01*
X133325000Y-60986022D01*
X133325001Y-74897711D01*
X133310278Y-75047869D01*
X133276047Y-75161246D01*
X133220446Y-75265817D01*
X133145594Y-75357595D01*
X133054335Y-75433091D01*
X132950160Y-75489419D01*
X132837024Y-75524440D01*
X132688979Y-75540000D01*
X109252279Y-75540000D01*
X109102131Y-75525278D01*
X108988754Y-75491047D01*
X108884183Y-75435446D01*
X108792405Y-75360594D01*
X108716909Y-75269335D01*
X108660581Y-75165160D01*
X108625560Y-75052024D01*
X108610000Y-74903979D01*
X108610000Y-55158740D01*
X109640000Y-55158740D01*
X109640000Y-55451260D01*
X109697068Y-55738158D01*
X109809010Y-56008411D01*
X109971525Y-56251632D01*
X110178368Y-56458475D01*
X110352760Y-56575000D01*
X110178368Y-56691525D01*
X109971525Y-56898368D01*
X109809010Y-57141589D01*
X109697068Y-57411842D01*
X109640000Y-57698740D01*
X109640000Y-57991260D01*
X109697068Y-58278158D01*
X109809010Y-58548411D01*
X109971525Y-58791632D01*
X110178368Y-58998475D01*
X110352760Y-59115000D01*
X110178368Y-59231525D01*
X109971525Y-59438368D01*
X109809010Y-59681589D01*
X109697068Y-59951842D01*
X109640000Y-60238740D01*
X109640000Y-60531260D01*
X109697068Y-60818158D01*
X109809010Y-61088411D01*
X109971525Y-61331632D01*
X110178368Y-61538475D01*
X110352760Y-61655000D01*
X110178368Y-61771525D01*
X109971525Y-61978368D01*
X109809010Y-62221589D01*
X109697068Y-62491842D01*
X109640000Y-62778740D01*
X109640000Y-63071260D01*
X109697068Y-63358158D01*
X109809010Y-63628411D01*
X109971525Y-63871632D01*
X110178368Y-64078475D01*
X110352760Y-64195000D01*
X110178368Y-64311525D01*
X109971525Y-64518368D01*
X109809010Y-64761589D01*
X109697068Y-65031842D01*
X109640000Y-65318740D01*
X109640000Y-65611260D01*
X109697068Y-65898158D01*
X109809010Y-66168411D01*
X109971525Y-66411632D01*
X110178368Y-66618475D01*
X110352760Y-66735000D01*
X110178368Y-66851525D01*
X109971525Y-67058368D01*
X109809010Y-67301589D01*
X109697068Y-67571842D01*
X109640000Y-67858740D01*
X109640000Y-68151260D01*
X109697068Y-68438158D01*
X109809010Y-68708411D01*
X109971525Y-68951632D01*
X110178368Y-69158475D01*
X110352760Y-69275000D01*
X110178368Y-69391525D01*
X109971525Y-69598368D01*
X109809010Y-69841589D01*
X109697068Y-70111842D01*
X109640000Y-70398740D01*
X109640000Y-70691260D01*
X109697068Y-70978158D01*
X109809010Y-71248411D01*
X109971525Y-71491632D01*
X110178368Y-71698475D01*
X110352760Y-71815000D01*
X110178368Y-71931525D01*
X109971525Y-72138368D01*
X109809010Y-72381589D01*
X109697068Y-72651842D01*
X109640000Y-72938740D01*
X109640000Y-73231260D01*
X109697068Y-73518158D01*
X109809010Y-73788411D01*
X109971525Y-74031632D01*
X110178368Y-74238475D01*
X110421589Y-74400990D01*
X110691842Y-74512932D01*
X110978740Y-74570000D01*
X111271260Y-74570000D01*
X111558158Y-74512932D01*
X111828411Y-74400990D01*
X112071632Y-74238475D01*
X112278475Y-74031632D01*
X112440990Y-73788411D01*
X112552932Y-73518158D01*
X112580037Y-73381890D01*
X126828524Y-73381890D01*
X126873175Y-73529099D01*
X126998359Y-73791920D01*
X127172412Y-74025269D01*
X127388645Y-74220178D01*
X127638748Y-74369157D01*
X127913109Y-74466481D01*
X128143000Y-74345814D01*
X128143000Y-73152000D01*
X126949845Y-73152000D01*
X126828524Y-73381890D01*
X112580037Y-73381890D01*
X112610000Y-73231260D01*
X112610000Y-72938740D01*
X112552932Y-72651842D01*
X112440990Y-72381589D01*
X112278475Y-72138368D01*
X112071632Y-71931525D01*
X111897240Y-71815000D01*
X112071632Y-71698475D01*
X112278475Y-71491632D01*
X112440990Y-71248411D01*
X112552932Y-70978158D01*
X112610000Y-70691260D01*
X112610000Y-70398740D01*
X112552932Y-70111842D01*
X112440990Y-69841589D01*
X112278475Y-69598368D01*
X112071632Y-69391525D01*
X111897240Y-69275000D01*
X112071632Y-69158475D01*
X112278475Y-68951632D01*
X112405351Y-68761748D01*
X112483986Y-68754003D01*
X112627247Y-68710546D01*
X112759276Y-68639974D01*
X112875001Y-68545001D01*
X112898803Y-68515998D01*
X113541008Y-67873795D01*
X113570001Y-67850001D01*
X113593795Y-67821008D01*
X113593799Y-67821004D01*
X113664973Y-67734277D01*
X113664974Y-67734276D01*
X113735546Y-67602247D01*
X113779003Y-67458986D01*
X113790000Y-67347333D01*
X113790000Y-67347324D01*
X113793676Y-67310001D01*
X113790000Y-67272678D01*
X113790000Y-66354801D01*
X114339802Y-65805000D01*
X114401939Y-65805000D01*
X114601898Y-65765226D01*
X114790256Y-65687205D01*
X114959774Y-65573937D01*
X115103937Y-65429774D01*
X115217205Y-65260256D01*
X115295226Y-65071898D01*
X115335000Y-64871939D01*
X115335000Y-64668061D01*
X115295226Y-64468102D01*
X115217205Y-64279744D01*
X115103937Y-64110226D01*
X114959774Y-63966063D01*
X114790256Y-63852795D01*
X114601898Y-63774774D01*
X114401939Y-63735000D01*
X114198061Y-63735000D01*
X113998102Y-63774774D01*
X113809744Y-63852795D01*
X113640226Y-63966063D01*
X113496063Y-64110226D01*
X113382795Y-64279744D01*
X113304774Y-64468102D01*
X113265000Y-64668061D01*
X113265000Y-64730198D01*
X112610000Y-65385199D01*
X112610000Y-65318740D01*
X112552932Y-65031842D01*
X112440990Y-64761589D01*
X112278475Y-64518368D01*
X112071632Y-64311525D01*
X111897240Y-64195000D01*
X112071632Y-64078475D01*
X112278475Y-63871632D01*
X112440990Y-63628411D01*
X112540483Y-63388212D01*
X115705000Y-63388212D01*
X115705000Y-63611788D01*
X115748617Y-63831067D01*
X115834176Y-64037624D01*
X115958388Y-64223520D01*
X116116480Y-64381612D01*
X116302376Y-64505824D01*
X116508933Y-64591383D01*
X116728212Y-64635000D01*
X116951788Y-64635000D01*
X117171067Y-64591383D01*
X117377624Y-64505824D01*
X117558450Y-64385000D01*
X117743422Y-64385000D01*
X118495000Y-65136579D01*
X118495001Y-68536521D01*
X118490719Y-68580000D01*
X118507805Y-68753490D01*
X118558412Y-68920313D01*
X118640590Y-69074059D01*
X118723468Y-69175046D01*
X118723471Y-69175049D01*
X118751184Y-69208817D01*
X118784951Y-69236529D01*
X120628470Y-71080049D01*
X120656183Y-71113817D01*
X120689951Y-71141530D01*
X120689953Y-71141532D01*
X120747075Y-71188411D01*
X120790941Y-71224411D01*
X120944687Y-71306589D01*
X121111510Y-71357195D01*
X121241523Y-71370000D01*
X121241531Y-71370000D01*
X121285000Y-71374281D01*
X121328469Y-71370000D01*
X127075344Y-71370000D01*
X127116525Y-71431632D01*
X127323368Y-71638475D01*
X127505534Y-71760195D01*
X127388645Y-71829822D01*
X127172412Y-72024731D01*
X126998359Y-72258080D01*
X126873175Y-72520901D01*
X126828524Y-72668110D01*
X126949845Y-72898000D01*
X128143000Y-72898000D01*
X128143000Y-72878000D01*
X128397000Y-72878000D01*
X128397000Y-72898000D01*
X128417000Y-72898000D01*
X128417000Y-73152000D01*
X128397000Y-73152000D01*
X128397000Y-74345814D01*
X128626891Y-74466481D01*
X128901252Y-74369157D01*
X129151355Y-74220178D01*
X129347502Y-74043374D01*
X129370498Y-74119180D01*
X129429463Y-74229494D01*
X129508815Y-74326185D01*
X129605506Y-74405537D01*
X129715820Y-74464502D01*
X129835518Y-74500812D01*
X129960000Y-74513072D01*
X131660000Y-74513072D01*
X131784482Y-74500812D01*
X131904180Y-74464502D01*
X132014494Y-74405537D01*
X132111185Y-74326185D01*
X132190537Y-74229494D01*
X132249502Y-74119180D01*
X132285812Y-73999482D01*
X132298072Y-73875000D01*
X132298072Y-72175000D01*
X132285812Y-72050518D01*
X132249502Y-71930820D01*
X132190537Y-71820506D01*
X132111185Y-71723815D01*
X132014494Y-71644463D01*
X131904180Y-71585498D01*
X131831620Y-71563487D01*
X131963475Y-71431632D01*
X132125990Y-71188411D01*
X132237932Y-70918158D01*
X132295000Y-70631260D01*
X132295000Y-70338740D01*
X132237932Y-70051842D01*
X132125990Y-69781589D01*
X131963475Y-69538368D01*
X131756632Y-69331525D01*
X131582240Y-69215000D01*
X131756632Y-69098475D01*
X131963475Y-68891632D01*
X132125990Y-68648411D01*
X132237932Y-68378158D01*
X132295000Y-68091260D01*
X132295000Y-67798740D01*
X132237932Y-67511842D01*
X132125990Y-67241589D01*
X131963475Y-66998368D01*
X131756632Y-66791525D01*
X131582240Y-66675000D01*
X131756632Y-66558475D01*
X131963475Y-66351632D01*
X132125990Y-66108411D01*
X132237932Y-65838158D01*
X132295000Y-65551260D01*
X132295000Y-65258740D01*
X132237932Y-64971842D01*
X132125990Y-64701589D01*
X131963475Y-64458368D01*
X131756632Y-64251525D01*
X131582240Y-64135000D01*
X131756632Y-64018475D01*
X131963475Y-63811632D01*
X132125990Y-63568411D01*
X132237932Y-63298158D01*
X132295000Y-63011260D01*
X132295000Y-62718740D01*
X132237932Y-62431842D01*
X132125990Y-62161589D01*
X131963475Y-61918368D01*
X131756632Y-61711525D01*
X131513411Y-61549010D01*
X131243158Y-61437068D01*
X130956260Y-61380000D01*
X130663740Y-61380000D01*
X130376842Y-61437068D01*
X130106589Y-61549010D01*
X129863368Y-61711525D01*
X129656525Y-61918368D01*
X129538900Y-62094406D01*
X129367588Y-61864731D01*
X129151355Y-61669822D01*
X128901252Y-61520843D01*
X128626891Y-61423519D01*
X128397000Y-61544186D01*
X128397000Y-62738000D01*
X128417000Y-62738000D01*
X128417000Y-62992000D01*
X128397000Y-62992000D01*
X128397000Y-63012000D01*
X128143000Y-63012000D01*
X128143000Y-62992000D01*
X126949845Y-62992000D01*
X126828524Y-63221890D01*
X126873175Y-63369099D01*
X126998359Y-63631920D01*
X127172412Y-63865269D01*
X127388645Y-64060178D01*
X127505534Y-64129805D01*
X127323368Y-64251525D01*
X127116525Y-64458368D01*
X126954010Y-64701589D01*
X126842068Y-64971842D01*
X126785000Y-65258740D01*
X126785000Y-65551260D01*
X126842068Y-65838158D01*
X126954010Y-66108411D01*
X127116525Y-66351632D01*
X127323368Y-66558475D01*
X127497760Y-66675000D01*
X127323368Y-66791525D01*
X127116525Y-66998368D01*
X126954010Y-67241589D01*
X126842068Y-67511842D01*
X126785000Y-67798740D01*
X126785000Y-68091260D01*
X126842068Y-68378158D01*
X126954010Y-68648411D01*
X127116525Y-68891632D01*
X127323368Y-69098475D01*
X127497760Y-69215000D01*
X127323368Y-69331525D01*
X127116525Y-69538368D01*
X127075344Y-69600000D01*
X121651579Y-69600000D01*
X120265000Y-68213422D01*
X120265000Y-64813465D01*
X120269281Y-64769999D01*
X120265000Y-64726533D01*
X120265000Y-64726523D01*
X120252195Y-64596510D01*
X120201589Y-64429687D01*
X120119411Y-64275941D01*
X120076390Y-64223520D01*
X120036532Y-64174953D01*
X120036530Y-64174951D01*
X120008817Y-64141183D01*
X119975050Y-64113471D01*
X118766534Y-62904956D01*
X118738817Y-62871183D01*
X118604059Y-62760589D01*
X118450313Y-62678411D01*
X118283490Y-62627805D01*
X118153477Y-62615000D01*
X118153469Y-62615000D01*
X118110000Y-62610719D01*
X118066531Y-62615000D01*
X117558450Y-62615000D01*
X117398478Y-62508110D01*
X126828524Y-62508110D01*
X126949845Y-62738000D01*
X128143000Y-62738000D01*
X128143000Y-61544186D01*
X127913109Y-61423519D01*
X127638748Y-61520843D01*
X127388645Y-61669822D01*
X127172412Y-61864731D01*
X126998359Y-62098080D01*
X126873175Y-62360901D01*
X126828524Y-62508110D01*
X117398478Y-62508110D01*
X117377624Y-62494176D01*
X117171067Y-62408617D01*
X116951788Y-62365000D01*
X116728212Y-62365000D01*
X116508933Y-62408617D01*
X116302376Y-62494176D01*
X116116480Y-62618388D01*
X115958388Y-62776480D01*
X115834176Y-62962376D01*
X115748617Y-63168933D01*
X115705000Y-63388212D01*
X112540483Y-63388212D01*
X112552932Y-63358158D01*
X112610000Y-63071260D01*
X112610000Y-62778740D01*
X112552932Y-62491842D01*
X112440990Y-62221589D01*
X112278475Y-61978368D01*
X112071632Y-61771525D01*
X111897240Y-61655000D01*
X112071632Y-61538475D01*
X112278475Y-61331632D01*
X112440990Y-61088411D01*
X112552932Y-60818158D01*
X112610000Y-60531260D01*
X112610000Y-60238740D01*
X112552932Y-59951842D01*
X112440990Y-59681589D01*
X112278475Y-59438368D01*
X112071632Y-59231525D01*
X111897240Y-59115000D01*
X112071632Y-58998475D01*
X112278475Y-58791632D01*
X112440990Y-58548411D01*
X112552932Y-58278158D01*
X112610000Y-57991260D01*
X112610000Y-57698740D01*
X112552932Y-57411842D01*
X112440990Y-57141589D01*
X112278475Y-56898368D01*
X112071632Y-56691525D01*
X111897240Y-56575000D01*
X112071632Y-56458475D01*
X112278475Y-56251632D01*
X112440990Y-56008411D01*
X112552932Y-55738158D01*
X112610000Y-55451260D01*
X112610000Y-55158740D01*
X112552932Y-54871842D01*
X112440990Y-54601589D01*
X112278475Y-54358368D01*
X112071632Y-54151525D01*
X111889466Y-54029805D01*
X112006355Y-53960178D01*
X112222588Y-53765269D01*
X112396641Y-53531920D01*
X112521825Y-53269099D01*
X112566476Y-53121890D01*
X112445155Y-52892000D01*
X111252000Y-52892000D01*
X111252000Y-52912000D01*
X110998000Y-52912000D01*
X110998000Y-52892000D01*
X109804845Y-52892000D01*
X109683524Y-53121890D01*
X109728175Y-53269099D01*
X109853359Y-53531920D01*
X110027412Y-53765269D01*
X110243645Y-53960178D01*
X110360534Y-54029805D01*
X110178368Y-54151525D01*
X109971525Y-54358368D01*
X109809010Y-54601589D01*
X109697068Y-54871842D01*
X109640000Y-55158740D01*
X108610000Y-55158740D01*
X108610000Y-49375000D01*
X109636928Y-49375000D01*
X109636928Y-51075000D01*
X109649188Y-51199482D01*
X109685498Y-51319180D01*
X109744463Y-51429494D01*
X109823815Y-51526185D01*
X109920506Y-51605537D01*
X110030820Y-51664502D01*
X110111466Y-51688966D01*
X110027412Y-51764731D01*
X109853359Y-51998080D01*
X109728175Y-52260901D01*
X109683524Y-52408110D01*
X109804845Y-52638000D01*
X110998000Y-52638000D01*
X110998000Y-52618000D01*
X111252000Y-52618000D01*
X111252000Y-52638000D01*
X112445155Y-52638000D01*
X112566476Y-52408110D01*
X112521825Y-52260901D01*
X112396641Y-51998080D01*
X112222588Y-51764731D01*
X112138534Y-51688966D01*
X112219180Y-51664502D01*
X112329494Y-51605537D01*
X112426185Y-51526185D01*
X112505537Y-51429494D01*
X112564502Y-51319180D01*
X112600812Y-51199482D01*
X112613072Y-51075000D01*
X112613072Y-49375000D01*
X112600812Y-49250518D01*
X112564502Y-49130820D01*
X112505537Y-49020506D01*
X112426185Y-48923815D01*
X112329494Y-48844463D01*
X112219180Y-48785498D01*
X112099482Y-48749188D01*
X111975000Y-48736928D01*
X110275000Y-48736928D01*
X110150518Y-48749188D01*
X110030820Y-48785498D01*
X109920506Y-48844463D01*
X109823815Y-48923815D01*
X109744463Y-49020506D01*
X109685498Y-49130820D01*
X109649188Y-49250518D01*
X109636928Y-49375000D01*
X108610000Y-49375000D01*
X108610000Y-48292279D01*
X108624722Y-48142131D01*
X108658953Y-48028754D01*
X108714555Y-47924181D01*
X108789407Y-47832404D01*
X108880664Y-47756909D01*
X108984844Y-47700581D01*
X109097976Y-47665560D01*
X109246022Y-47650000D01*
X112997721Y-47650000D01*
X113147869Y-47664722D01*
G37*
X113147869Y-47664722D02*
X113261246Y-47698953D01*
X113365819Y-47754555D01*
X113457596Y-47829407D01*
X113533091Y-47920664D01*
X113589419Y-48024844D01*
X113624440Y-48137976D01*
X113640001Y-48286031D01*
X113640000Y-55912418D01*
X113642975Y-55942626D01*
X113642809Y-55966416D01*
X113643709Y-55975587D01*
X113721433Y-56715095D01*
X113733458Y-56773675D01*
X113744670Y-56832453D01*
X113747334Y-56841274D01*
X113967217Y-57551601D01*
X113990392Y-57606731D01*
X114012806Y-57662210D01*
X114017133Y-57670346D01*
X114370799Y-58324437D01*
X114404244Y-58374021D01*
X114437004Y-58424084D01*
X114442828Y-58431225D01*
X114916805Y-59004165D01*
X114959241Y-59046305D01*
X115001104Y-59089055D01*
X115008205Y-59094928D01*
X115584439Y-59564893D01*
X115634247Y-59597986D01*
X115683621Y-59631793D01*
X115691727Y-59636176D01*
X116348271Y-59985266D01*
X116403586Y-60008065D01*
X116458558Y-60031626D01*
X116467361Y-60034351D01*
X117179206Y-60249270D01*
X117237901Y-60260892D01*
X117296397Y-60273326D01*
X117305562Y-60274289D01*
X118045595Y-60346850D01*
X118045598Y-60346850D01*
X118077581Y-60350000D01*
X132682721Y-60350000D01*
X132832869Y-60364722D01*
X132946246Y-60398953D01*
X133050819Y-60454555D01*
X133142596Y-60529407D01*
X133218091Y-60620664D01*
X133274419Y-60724844D01*
X133309440Y-60837976D01*
X133325000Y-60986022D01*
X133325001Y-74897711D01*
X133310278Y-75047869D01*
X133276047Y-75161246D01*
X133220446Y-75265817D01*
X133145594Y-75357595D01*
X133054335Y-75433091D01*
X132950160Y-75489419D01*
X132837024Y-75524440D01*
X132688979Y-75540000D01*
X109252279Y-75540000D01*
X109102131Y-75525278D01*
X108988754Y-75491047D01*
X108884183Y-75435446D01*
X108792405Y-75360594D01*
X108716909Y-75269335D01*
X108660581Y-75165160D01*
X108625560Y-75052024D01*
X108610000Y-74903979D01*
X108610000Y-55158740D01*
X109640000Y-55158740D01*
X109640000Y-55451260D01*
X109697068Y-55738158D01*
X109809010Y-56008411D01*
X109971525Y-56251632D01*
X110178368Y-56458475D01*
X110352760Y-56575000D01*
X110178368Y-56691525D01*
X109971525Y-56898368D01*
X109809010Y-57141589D01*
X109697068Y-57411842D01*
X109640000Y-57698740D01*
X109640000Y-57991260D01*
X109697068Y-58278158D01*
X109809010Y-58548411D01*
X109971525Y-58791632D01*
X110178368Y-58998475D01*
X110352760Y-59115000D01*
X110178368Y-59231525D01*
X109971525Y-59438368D01*
X109809010Y-59681589D01*
X109697068Y-59951842D01*
X109640000Y-60238740D01*
X109640000Y-60531260D01*
X109697068Y-60818158D01*
X109809010Y-61088411D01*
X109971525Y-61331632D01*
X110178368Y-61538475D01*
X110352760Y-61655000D01*
X110178368Y-61771525D01*
X109971525Y-61978368D01*
X109809010Y-62221589D01*
X109697068Y-62491842D01*
X109640000Y-62778740D01*
X109640000Y-63071260D01*
X109697068Y-63358158D01*
X109809010Y-63628411D01*
X109971525Y-63871632D01*
X110178368Y-64078475D01*
X110352760Y-64195000D01*
X110178368Y-64311525D01*
X109971525Y-64518368D01*
X109809010Y-64761589D01*
X109697068Y-65031842D01*
X109640000Y-65318740D01*
X109640000Y-65611260D01*
X109697068Y-65898158D01*
X109809010Y-66168411D01*
X109971525Y-66411632D01*
X110178368Y-66618475D01*
X110352760Y-66735000D01*
X110178368Y-66851525D01*
X109971525Y-67058368D01*
X109809010Y-67301589D01*
X109697068Y-67571842D01*
X109640000Y-67858740D01*
X109640000Y-68151260D01*
X109697068Y-68438158D01*
X109809010Y-68708411D01*
X109971525Y-68951632D01*
X110178368Y-69158475D01*
X110352760Y-69275000D01*
X110178368Y-69391525D01*
X109971525Y-69598368D01*
X109809010Y-69841589D01*
X109697068Y-70111842D01*
X109640000Y-70398740D01*
X109640000Y-70691260D01*
X109697068Y-70978158D01*
X109809010Y-71248411D01*
X109971525Y-71491632D01*
X110178368Y-71698475D01*
X110352760Y-71815000D01*
X110178368Y-71931525D01*
X109971525Y-72138368D01*
X109809010Y-72381589D01*
X109697068Y-72651842D01*
X109640000Y-72938740D01*
X109640000Y-73231260D01*
X109697068Y-73518158D01*
X109809010Y-73788411D01*
X109971525Y-74031632D01*
X110178368Y-74238475D01*
X110421589Y-74400990D01*
X110691842Y-74512932D01*
X110978740Y-74570000D01*
X111271260Y-74570000D01*
X111558158Y-74512932D01*
X111828411Y-74400990D01*
X112071632Y-74238475D01*
X112278475Y-74031632D01*
X112440990Y-73788411D01*
X112552932Y-73518158D01*
X112580037Y-73381890D01*
X126828524Y-73381890D01*
X126873175Y-73529099D01*
X126998359Y-73791920D01*
X127172412Y-74025269D01*
X127388645Y-74220178D01*
X127638748Y-74369157D01*
X127913109Y-74466481D01*
X128143000Y-74345814D01*
X128143000Y-73152000D01*
X126949845Y-73152000D01*
X126828524Y-73381890D01*
X112580037Y-73381890D01*
X112610000Y-73231260D01*
X112610000Y-72938740D01*
X112552932Y-72651842D01*
X112440990Y-72381589D01*
X112278475Y-72138368D01*
X112071632Y-71931525D01*
X111897240Y-71815000D01*
X112071632Y-71698475D01*
X112278475Y-71491632D01*
X112440990Y-71248411D01*
X112552932Y-70978158D01*
X112610000Y-70691260D01*
X112610000Y-70398740D01*
X112552932Y-70111842D01*
X112440990Y-69841589D01*
X112278475Y-69598368D01*
X112071632Y-69391525D01*
X111897240Y-69275000D01*
X112071632Y-69158475D01*
X112278475Y-68951632D01*
X112405351Y-68761748D01*
X112483986Y-68754003D01*
X112627247Y-68710546D01*
X112759276Y-68639974D01*
X112875001Y-68545001D01*
X112898803Y-68515998D01*
X113541008Y-67873795D01*
X113570001Y-67850001D01*
X113593795Y-67821008D01*
X113593799Y-67821004D01*
X113664973Y-67734277D01*
X113664974Y-67734276D01*
X113735546Y-67602247D01*
X113779003Y-67458986D01*
X113790000Y-67347333D01*
X113790000Y-67347324D01*
X113793676Y-67310001D01*
X113790000Y-67272678D01*
X113790000Y-66354801D01*
X114339802Y-65805000D01*
X114401939Y-65805000D01*
X114601898Y-65765226D01*
X114790256Y-65687205D01*
X114959774Y-65573937D01*
X115103937Y-65429774D01*
X115217205Y-65260256D01*
X115295226Y-65071898D01*
X115335000Y-64871939D01*
X115335000Y-64668061D01*
X115295226Y-64468102D01*
X115217205Y-64279744D01*
X115103937Y-64110226D01*
X114959774Y-63966063D01*
X114790256Y-63852795D01*
X114601898Y-63774774D01*
X114401939Y-63735000D01*
X114198061Y-63735000D01*
X113998102Y-63774774D01*
X113809744Y-63852795D01*
X113640226Y-63966063D01*
X113496063Y-64110226D01*
X113382795Y-64279744D01*
X113304774Y-64468102D01*
X113265000Y-64668061D01*
X113265000Y-64730198D01*
X112610000Y-65385199D01*
X112610000Y-65318740D01*
X112552932Y-65031842D01*
X112440990Y-64761589D01*
X112278475Y-64518368D01*
X112071632Y-64311525D01*
X111897240Y-64195000D01*
X112071632Y-64078475D01*
X112278475Y-63871632D01*
X112440990Y-63628411D01*
X112540483Y-63388212D01*
X115705000Y-63388212D01*
X115705000Y-63611788D01*
X115748617Y-63831067D01*
X115834176Y-64037624D01*
X115958388Y-64223520D01*
X116116480Y-64381612D01*
X116302376Y-64505824D01*
X116508933Y-64591383D01*
X116728212Y-64635000D01*
X116951788Y-64635000D01*
X117171067Y-64591383D01*
X117377624Y-64505824D01*
X117558450Y-64385000D01*
X117743422Y-64385000D01*
X118495000Y-65136579D01*
X118495001Y-68536521D01*
X118490719Y-68580000D01*
X118507805Y-68753490D01*
X118558412Y-68920313D01*
X118640590Y-69074059D01*
X118723468Y-69175046D01*
X118723471Y-69175049D01*
X118751184Y-69208817D01*
X118784951Y-69236529D01*
X120628470Y-71080049D01*
X120656183Y-71113817D01*
X120689951Y-71141530D01*
X120689953Y-71141532D01*
X120747075Y-71188411D01*
X120790941Y-71224411D01*
X120944687Y-71306589D01*
X121111510Y-71357195D01*
X121241523Y-71370000D01*
X121241531Y-71370000D01*
X121285000Y-71374281D01*
X121328469Y-71370000D01*
X127075344Y-71370000D01*
X127116525Y-71431632D01*
X127323368Y-71638475D01*
X127505534Y-71760195D01*
X127388645Y-71829822D01*
X127172412Y-72024731D01*
X126998359Y-72258080D01*
X126873175Y-72520901D01*
X126828524Y-72668110D01*
X126949845Y-72898000D01*
X128143000Y-72898000D01*
X128143000Y-72878000D01*
X128397000Y-72878000D01*
X128397000Y-72898000D01*
X128417000Y-72898000D01*
X128417000Y-73152000D01*
X128397000Y-73152000D01*
X128397000Y-74345814D01*
X128626891Y-74466481D01*
X128901252Y-74369157D01*
X129151355Y-74220178D01*
X129347502Y-74043374D01*
X129370498Y-74119180D01*
X129429463Y-74229494D01*
X129508815Y-74326185D01*
X129605506Y-74405537D01*
X129715820Y-74464502D01*
X129835518Y-74500812D01*
X129960000Y-74513072D01*
X131660000Y-74513072D01*
X131784482Y-74500812D01*
X131904180Y-74464502D01*
X132014494Y-74405537D01*
X132111185Y-74326185D01*
X132190537Y-74229494D01*
X132249502Y-74119180D01*
X132285812Y-73999482D01*
X132298072Y-73875000D01*
X132298072Y-72175000D01*
X132285812Y-72050518D01*
X132249502Y-71930820D01*
X132190537Y-71820506D01*
X132111185Y-71723815D01*
X132014494Y-71644463D01*
X131904180Y-71585498D01*
X131831620Y-71563487D01*
X131963475Y-71431632D01*
X132125990Y-71188411D01*
X132237932Y-70918158D01*
X132295000Y-70631260D01*
X132295000Y-70338740D01*
X132237932Y-70051842D01*
X132125990Y-69781589D01*
X131963475Y-69538368D01*
X131756632Y-69331525D01*
X131582240Y-69215000D01*
X131756632Y-69098475D01*
X131963475Y-68891632D01*
X132125990Y-68648411D01*
X132237932Y-68378158D01*
X132295000Y-68091260D01*
X132295000Y-67798740D01*
X132237932Y-67511842D01*
X132125990Y-67241589D01*
X131963475Y-66998368D01*
X131756632Y-66791525D01*
X131582240Y-66675000D01*
X131756632Y-66558475D01*
X131963475Y-66351632D01*
X132125990Y-66108411D01*
X132237932Y-65838158D01*
X132295000Y-65551260D01*
X132295000Y-65258740D01*
X132237932Y-64971842D01*
X132125990Y-64701589D01*
X131963475Y-64458368D01*
X131756632Y-64251525D01*
X131582240Y-64135000D01*
X131756632Y-64018475D01*
X131963475Y-63811632D01*
X132125990Y-63568411D01*
X132237932Y-63298158D01*
X132295000Y-63011260D01*
X132295000Y-62718740D01*
X132237932Y-62431842D01*
X132125990Y-62161589D01*
X131963475Y-61918368D01*
X131756632Y-61711525D01*
X131513411Y-61549010D01*
X131243158Y-61437068D01*
X130956260Y-61380000D01*
X130663740Y-61380000D01*
X130376842Y-61437068D01*
X130106589Y-61549010D01*
X129863368Y-61711525D01*
X129656525Y-61918368D01*
X129538900Y-62094406D01*
X129367588Y-61864731D01*
X129151355Y-61669822D01*
X128901252Y-61520843D01*
X128626891Y-61423519D01*
X128397000Y-61544186D01*
X128397000Y-62738000D01*
X128417000Y-62738000D01*
X128417000Y-62992000D01*
X128397000Y-62992000D01*
X128397000Y-63012000D01*
X128143000Y-63012000D01*
X128143000Y-62992000D01*
X126949845Y-62992000D01*
X126828524Y-63221890D01*
X126873175Y-63369099D01*
X126998359Y-63631920D01*
X127172412Y-63865269D01*
X127388645Y-64060178D01*
X127505534Y-64129805D01*
X127323368Y-64251525D01*
X127116525Y-64458368D01*
X126954010Y-64701589D01*
X126842068Y-64971842D01*
X126785000Y-65258740D01*
X126785000Y-65551260D01*
X126842068Y-65838158D01*
X126954010Y-66108411D01*
X127116525Y-66351632D01*
X127323368Y-66558475D01*
X127497760Y-66675000D01*
X127323368Y-66791525D01*
X127116525Y-66998368D01*
X126954010Y-67241589D01*
X126842068Y-67511842D01*
X126785000Y-67798740D01*
X126785000Y-68091260D01*
X126842068Y-68378158D01*
X126954010Y-68648411D01*
X127116525Y-68891632D01*
X127323368Y-69098475D01*
X127497760Y-69215000D01*
X127323368Y-69331525D01*
X127116525Y-69538368D01*
X127075344Y-69600000D01*
X121651579Y-69600000D01*
X120265000Y-68213422D01*
X120265000Y-64813465D01*
X120269281Y-64769999D01*
X120265000Y-64726533D01*
X120265000Y-64726523D01*
X120252195Y-64596510D01*
X120201589Y-64429687D01*
X120119411Y-64275941D01*
X120076390Y-64223520D01*
X120036532Y-64174953D01*
X120036530Y-64174951D01*
X120008817Y-64141183D01*
X119975050Y-64113471D01*
X118766534Y-62904956D01*
X118738817Y-62871183D01*
X118604059Y-62760589D01*
X118450313Y-62678411D01*
X118283490Y-62627805D01*
X118153477Y-62615000D01*
X118153469Y-62615000D01*
X118110000Y-62610719D01*
X118066531Y-62615000D01*
X117558450Y-62615000D01*
X117398478Y-62508110D01*
X126828524Y-62508110D01*
X126949845Y-62738000D01*
X128143000Y-62738000D01*
X128143000Y-61544186D01*
X127913109Y-61423519D01*
X127638748Y-61520843D01*
X127388645Y-61669822D01*
X127172412Y-61864731D01*
X126998359Y-62098080D01*
X126873175Y-62360901D01*
X126828524Y-62508110D01*
X117398478Y-62508110D01*
X117377624Y-62494176D01*
X117171067Y-62408617D01*
X116951788Y-62365000D01*
X116728212Y-62365000D01*
X116508933Y-62408617D01*
X116302376Y-62494176D01*
X116116480Y-62618388D01*
X115958388Y-62776480D01*
X115834176Y-62962376D01*
X115748617Y-63168933D01*
X115705000Y-63388212D01*
X112540483Y-63388212D01*
X112552932Y-63358158D01*
X112610000Y-63071260D01*
X112610000Y-62778740D01*
X112552932Y-62491842D01*
X112440990Y-62221589D01*
X112278475Y-61978368D01*
X112071632Y-61771525D01*
X111897240Y-61655000D01*
X112071632Y-61538475D01*
X112278475Y-61331632D01*
X112440990Y-61088411D01*
X112552932Y-60818158D01*
X112610000Y-60531260D01*
X112610000Y-60238740D01*
X112552932Y-59951842D01*
X112440990Y-59681589D01*
X112278475Y-59438368D01*
X112071632Y-59231525D01*
X111897240Y-59115000D01*
X112071632Y-58998475D01*
X112278475Y-58791632D01*
X112440990Y-58548411D01*
X112552932Y-58278158D01*
X112610000Y-57991260D01*
X112610000Y-57698740D01*
X112552932Y-57411842D01*
X112440990Y-57141589D01*
X112278475Y-56898368D01*
X112071632Y-56691525D01*
X111897240Y-56575000D01*
X112071632Y-56458475D01*
X112278475Y-56251632D01*
X112440990Y-56008411D01*
X112552932Y-55738158D01*
X112610000Y-55451260D01*
X112610000Y-55158740D01*
X112552932Y-54871842D01*
X112440990Y-54601589D01*
X112278475Y-54358368D01*
X112071632Y-54151525D01*
X111889466Y-54029805D01*
X112006355Y-53960178D01*
X112222588Y-53765269D01*
X112396641Y-53531920D01*
X112521825Y-53269099D01*
X112566476Y-53121890D01*
X112445155Y-52892000D01*
X111252000Y-52892000D01*
X111252000Y-52912000D01*
X110998000Y-52912000D01*
X110998000Y-52892000D01*
X109804845Y-52892000D01*
X109683524Y-53121890D01*
X109728175Y-53269099D01*
X109853359Y-53531920D01*
X110027412Y-53765269D01*
X110243645Y-53960178D01*
X110360534Y-54029805D01*
X110178368Y-54151525D01*
X109971525Y-54358368D01*
X109809010Y-54601589D01*
X109697068Y-54871842D01*
X109640000Y-55158740D01*
X108610000Y-55158740D01*
X108610000Y-49375000D01*
X109636928Y-49375000D01*
X109636928Y-51075000D01*
X109649188Y-51199482D01*
X109685498Y-51319180D01*
X109744463Y-51429494D01*
X109823815Y-51526185D01*
X109920506Y-51605537D01*
X110030820Y-51664502D01*
X110111466Y-51688966D01*
X110027412Y-51764731D01*
X109853359Y-51998080D01*
X109728175Y-52260901D01*
X109683524Y-52408110D01*
X109804845Y-52638000D01*
X110998000Y-52638000D01*
X110998000Y-52618000D01*
X111252000Y-52618000D01*
X111252000Y-52638000D01*
X112445155Y-52638000D01*
X112566476Y-52408110D01*
X112521825Y-52260901D01*
X112396641Y-51998080D01*
X112222588Y-51764731D01*
X112138534Y-51688966D01*
X112219180Y-51664502D01*
X112329494Y-51605537D01*
X112426185Y-51526185D01*
X112505537Y-51429494D01*
X112564502Y-51319180D01*
X112600812Y-51199482D01*
X112613072Y-51075000D01*
X112613072Y-49375000D01*
X112600812Y-49250518D01*
X112564502Y-49130820D01*
X112505537Y-49020506D01*
X112426185Y-48923815D01*
X112329494Y-48844463D01*
X112219180Y-48785498D01*
X112099482Y-48749188D01*
X111975000Y-48736928D01*
X110275000Y-48736928D01*
X110150518Y-48749188D01*
X110030820Y-48785498D01*
X109920506Y-48844463D01*
X109823815Y-48923815D01*
X109744463Y-49020506D01*
X109685498Y-49130820D01*
X109649188Y-49250518D01*
X109636928Y-49375000D01*
X108610000Y-49375000D01*
X108610000Y-48292279D01*
X108624722Y-48142131D01*
X108658953Y-48028754D01*
X108714555Y-47924181D01*
X108789407Y-47832404D01*
X108880664Y-47756909D01*
X108984844Y-47700581D01*
X109097976Y-47665560D01*
X109246022Y-47650000D01*
X112997721Y-47650000D01*
X113147869Y-47664722D01*
M02*
