G04 #@! TF.GenerationSoftware,KiCad,Pcbnew,(5.1.5)-2*
G04 #@! TF.CreationDate,2019-12-05T22:10:54+11:00*
G04 #@! TF.ProjectId,BluePill-BitBlaster,426c7565-5069-46c6-9c2d-426974426c61,rev?*
G04 #@! TF.SameCoordinates,Original*
G04 #@! TF.FileFunction,Soldermask,Bot*
G04 #@! TF.FilePolarity,Negative*
%FSLAX46Y46*%
G04 Gerber Fmt 4.6, Leading zero omitted, Abs format (unit mm)*
G04 Created by KiCad (PCBNEW (5.1.5)-2) date 2019-12-05 22:10:54*
%MOMM*%
%LPD*%
G04 APERTURE LIST*
%ADD10C,0.100000*%
G04 APERTURE END LIST*
D10*
G36*
X111238512Y-72188927D02*
G01*
X111387812Y-72218624D01*
X111551784Y-72286544D01*
X111699354Y-72385147D01*
X111824853Y-72510646D01*
X111923456Y-72658216D01*
X111991376Y-72822188D01*
X112026000Y-72996259D01*
X112026000Y-73173741D01*
X111991376Y-73347812D01*
X111923456Y-73511784D01*
X111824853Y-73659354D01*
X111699354Y-73784853D01*
X111551784Y-73883456D01*
X111387812Y-73951376D01*
X111238512Y-73981073D01*
X111213742Y-73986000D01*
X111036258Y-73986000D01*
X111011488Y-73981073D01*
X110862188Y-73951376D01*
X110698216Y-73883456D01*
X110550646Y-73784853D01*
X110425147Y-73659354D01*
X110326544Y-73511784D01*
X110258624Y-73347812D01*
X110224000Y-73173741D01*
X110224000Y-72996259D01*
X110258624Y-72822188D01*
X110326544Y-72658216D01*
X110425147Y-72510646D01*
X110550646Y-72385147D01*
X110698216Y-72286544D01*
X110862188Y-72218624D01*
X111011488Y-72188927D01*
X111036258Y-72184000D01*
X111213742Y-72184000D01*
X111238512Y-72188927D01*
G37*
G36*
X131711000Y-73926000D02*
G01*
X129909000Y-73926000D01*
X129909000Y-72124000D01*
X131711000Y-72124000D01*
X131711000Y-73926000D01*
G37*
G36*
X128383512Y-72128927D02*
G01*
X128532812Y-72158624D01*
X128696784Y-72226544D01*
X128844354Y-72325147D01*
X128969853Y-72450646D01*
X129068456Y-72598216D01*
X129136376Y-72762188D01*
X129171000Y-72936259D01*
X129171000Y-73113741D01*
X129136376Y-73287812D01*
X129068456Y-73451784D01*
X128969853Y-73599354D01*
X128844354Y-73724853D01*
X128696784Y-73823456D01*
X128532812Y-73891376D01*
X128383512Y-73921073D01*
X128358742Y-73926000D01*
X128181258Y-73926000D01*
X128156488Y-73921073D01*
X128007188Y-73891376D01*
X127843216Y-73823456D01*
X127695646Y-73724853D01*
X127570147Y-73599354D01*
X127471544Y-73451784D01*
X127403624Y-73287812D01*
X127369000Y-73113741D01*
X127369000Y-72936259D01*
X127403624Y-72762188D01*
X127471544Y-72598216D01*
X127570147Y-72450646D01*
X127695646Y-72325147D01*
X127843216Y-72226544D01*
X128007188Y-72158624D01*
X128156488Y-72128927D01*
X128181258Y-72124000D01*
X128358742Y-72124000D01*
X128383512Y-72128927D01*
G37*
G36*
X111238512Y-69648927D02*
G01*
X111387812Y-69678624D01*
X111551784Y-69746544D01*
X111699354Y-69845147D01*
X111824853Y-69970646D01*
X111923456Y-70118216D01*
X111991376Y-70282188D01*
X112026000Y-70456259D01*
X112026000Y-70633741D01*
X111991376Y-70807812D01*
X111923456Y-70971784D01*
X111824853Y-71119354D01*
X111699354Y-71244853D01*
X111551784Y-71343456D01*
X111387812Y-71411376D01*
X111238512Y-71441073D01*
X111213742Y-71446000D01*
X111036258Y-71446000D01*
X111011488Y-71441073D01*
X110862188Y-71411376D01*
X110698216Y-71343456D01*
X110550646Y-71244853D01*
X110425147Y-71119354D01*
X110326544Y-70971784D01*
X110258624Y-70807812D01*
X110224000Y-70633741D01*
X110224000Y-70456259D01*
X110258624Y-70282188D01*
X110326544Y-70118216D01*
X110425147Y-69970646D01*
X110550646Y-69845147D01*
X110698216Y-69746544D01*
X110862188Y-69678624D01*
X111011488Y-69648927D01*
X111036258Y-69644000D01*
X111213742Y-69644000D01*
X111238512Y-69648927D01*
G37*
G36*
X128383512Y-69588927D02*
G01*
X128532812Y-69618624D01*
X128696784Y-69686544D01*
X128844354Y-69785147D01*
X128969853Y-69910646D01*
X129068456Y-70058216D01*
X129136376Y-70222188D01*
X129171000Y-70396259D01*
X129171000Y-70573741D01*
X129136376Y-70747812D01*
X129068456Y-70911784D01*
X128969853Y-71059354D01*
X128844354Y-71184853D01*
X128696784Y-71283456D01*
X128532812Y-71351376D01*
X128383512Y-71381073D01*
X128358742Y-71386000D01*
X128181258Y-71386000D01*
X128156488Y-71381073D01*
X128007188Y-71351376D01*
X127843216Y-71283456D01*
X127695646Y-71184853D01*
X127570147Y-71059354D01*
X127471544Y-70911784D01*
X127403624Y-70747812D01*
X127369000Y-70573741D01*
X127369000Y-70396259D01*
X127403624Y-70222188D01*
X127471544Y-70058216D01*
X127570147Y-69910646D01*
X127695646Y-69785147D01*
X127843216Y-69686544D01*
X128007188Y-69618624D01*
X128156488Y-69588927D01*
X128181258Y-69584000D01*
X128358742Y-69584000D01*
X128383512Y-69588927D01*
G37*
G36*
X130923512Y-69588927D02*
G01*
X131072812Y-69618624D01*
X131236784Y-69686544D01*
X131384354Y-69785147D01*
X131509853Y-69910646D01*
X131608456Y-70058216D01*
X131676376Y-70222188D01*
X131711000Y-70396259D01*
X131711000Y-70573741D01*
X131676376Y-70747812D01*
X131608456Y-70911784D01*
X131509853Y-71059354D01*
X131384354Y-71184853D01*
X131236784Y-71283456D01*
X131072812Y-71351376D01*
X130923512Y-71381073D01*
X130898742Y-71386000D01*
X130721258Y-71386000D01*
X130696488Y-71381073D01*
X130547188Y-71351376D01*
X130383216Y-71283456D01*
X130235646Y-71184853D01*
X130110147Y-71059354D01*
X130011544Y-70911784D01*
X129943624Y-70747812D01*
X129909000Y-70573741D01*
X129909000Y-70396259D01*
X129943624Y-70222188D01*
X130011544Y-70058216D01*
X130110147Y-69910646D01*
X130235646Y-69785147D01*
X130383216Y-69686544D01*
X130547188Y-69618624D01*
X130696488Y-69588927D01*
X130721258Y-69584000D01*
X130898742Y-69584000D01*
X130923512Y-69588927D01*
G37*
G36*
X111238512Y-67108927D02*
G01*
X111387812Y-67138624D01*
X111551784Y-67206544D01*
X111699354Y-67305147D01*
X111824853Y-67430646D01*
X111923456Y-67578216D01*
X111991376Y-67742188D01*
X112026000Y-67916259D01*
X112026000Y-68093741D01*
X111991376Y-68267812D01*
X111923456Y-68431784D01*
X111824853Y-68579354D01*
X111699354Y-68704853D01*
X111551784Y-68803456D01*
X111387812Y-68871376D01*
X111238512Y-68901073D01*
X111213742Y-68906000D01*
X111036258Y-68906000D01*
X111011488Y-68901073D01*
X110862188Y-68871376D01*
X110698216Y-68803456D01*
X110550646Y-68704853D01*
X110425147Y-68579354D01*
X110326544Y-68431784D01*
X110258624Y-68267812D01*
X110224000Y-68093741D01*
X110224000Y-67916259D01*
X110258624Y-67742188D01*
X110326544Y-67578216D01*
X110425147Y-67430646D01*
X110550646Y-67305147D01*
X110698216Y-67206544D01*
X110862188Y-67138624D01*
X111011488Y-67108927D01*
X111036258Y-67104000D01*
X111213742Y-67104000D01*
X111238512Y-67108927D01*
G37*
G36*
X130923512Y-67048927D02*
G01*
X131072812Y-67078624D01*
X131236784Y-67146544D01*
X131384354Y-67245147D01*
X131509853Y-67370646D01*
X131608456Y-67518216D01*
X131676376Y-67682188D01*
X131711000Y-67856259D01*
X131711000Y-68033741D01*
X131676376Y-68207812D01*
X131608456Y-68371784D01*
X131509853Y-68519354D01*
X131384354Y-68644853D01*
X131236784Y-68743456D01*
X131072812Y-68811376D01*
X130923512Y-68841073D01*
X130898742Y-68846000D01*
X130721258Y-68846000D01*
X130696488Y-68841073D01*
X130547188Y-68811376D01*
X130383216Y-68743456D01*
X130235646Y-68644853D01*
X130110147Y-68519354D01*
X130011544Y-68371784D01*
X129943624Y-68207812D01*
X129909000Y-68033741D01*
X129909000Y-67856259D01*
X129943624Y-67682188D01*
X130011544Y-67518216D01*
X130110147Y-67370646D01*
X130235646Y-67245147D01*
X130383216Y-67146544D01*
X130547188Y-67078624D01*
X130696488Y-67048927D01*
X130721258Y-67044000D01*
X130898742Y-67044000D01*
X130923512Y-67048927D01*
G37*
G36*
X128383512Y-67048927D02*
G01*
X128532812Y-67078624D01*
X128696784Y-67146544D01*
X128844354Y-67245147D01*
X128969853Y-67370646D01*
X129068456Y-67518216D01*
X129136376Y-67682188D01*
X129171000Y-67856259D01*
X129171000Y-68033741D01*
X129136376Y-68207812D01*
X129068456Y-68371784D01*
X128969853Y-68519354D01*
X128844354Y-68644853D01*
X128696784Y-68743456D01*
X128532812Y-68811376D01*
X128383512Y-68841073D01*
X128358742Y-68846000D01*
X128181258Y-68846000D01*
X128156488Y-68841073D01*
X128007188Y-68811376D01*
X127843216Y-68743456D01*
X127695646Y-68644853D01*
X127570147Y-68519354D01*
X127471544Y-68371784D01*
X127403624Y-68207812D01*
X127369000Y-68033741D01*
X127369000Y-67856259D01*
X127403624Y-67682188D01*
X127471544Y-67518216D01*
X127570147Y-67370646D01*
X127695646Y-67245147D01*
X127843216Y-67146544D01*
X128007188Y-67078624D01*
X128156488Y-67048927D01*
X128181258Y-67044000D01*
X128358742Y-67044000D01*
X128383512Y-67048927D01*
G37*
G36*
X111238512Y-64568927D02*
G01*
X111387812Y-64598624D01*
X111551784Y-64666544D01*
X111699354Y-64765147D01*
X111824853Y-64890646D01*
X111923456Y-65038216D01*
X111991376Y-65202188D01*
X112026000Y-65376259D01*
X112026000Y-65553741D01*
X111991376Y-65727812D01*
X111923456Y-65891784D01*
X111824853Y-66039354D01*
X111699354Y-66164853D01*
X111551784Y-66263456D01*
X111387812Y-66331376D01*
X111238512Y-66361073D01*
X111213742Y-66366000D01*
X111036258Y-66366000D01*
X111011488Y-66361073D01*
X110862188Y-66331376D01*
X110698216Y-66263456D01*
X110550646Y-66164853D01*
X110425147Y-66039354D01*
X110326544Y-65891784D01*
X110258624Y-65727812D01*
X110224000Y-65553741D01*
X110224000Y-65376259D01*
X110258624Y-65202188D01*
X110326544Y-65038216D01*
X110425147Y-64890646D01*
X110550646Y-64765147D01*
X110698216Y-64666544D01*
X110862188Y-64598624D01*
X111011488Y-64568927D01*
X111036258Y-64564000D01*
X111213742Y-64564000D01*
X111238512Y-64568927D01*
G37*
G36*
X128383512Y-64508927D02*
G01*
X128532812Y-64538624D01*
X128696784Y-64606544D01*
X128844354Y-64705147D01*
X128969853Y-64830646D01*
X129068456Y-64978216D01*
X129136376Y-65142188D01*
X129171000Y-65316259D01*
X129171000Y-65493741D01*
X129136376Y-65667812D01*
X129068456Y-65831784D01*
X128969853Y-65979354D01*
X128844354Y-66104853D01*
X128696784Y-66203456D01*
X128532812Y-66271376D01*
X128383512Y-66301073D01*
X128358742Y-66306000D01*
X128181258Y-66306000D01*
X128156488Y-66301073D01*
X128007188Y-66271376D01*
X127843216Y-66203456D01*
X127695646Y-66104853D01*
X127570147Y-65979354D01*
X127471544Y-65831784D01*
X127403624Y-65667812D01*
X127369000Y-65493741D01*
X127369000Y-65316259D01*
X127403624Y-65142188D01*
X127471544Y-64978216D01*
X127570147Y-64830646D01*
X127695646Y-64705147D01*
X127843216Y-64606544D01*
X128007188Y-64538624D01*
X128156488Y-64508927D01*
X128181258Y-64504000D01*
X128358742Y-64504000D01*
X128383512Y-64508927D01*
G37*
G36*
X130923512Y-64508927D02*
G01*
X131072812Y-64538624D01*
X131236784Y-64606544D01*
X131384354Y-64705147D01*
X131509853Y-64830646D01*
X131608456Y-64978216D01*
X131676376Y-65142188D01*
X131711000Y-65316259D01*
X131711000Y-65493741D01*
X131676376Y-65667812D01*
X131608456Y-65831784D01*
X131509853Y-65979354D01*
X131384354Y-66104853D01*
X131236784Y-66203456D01*
X131072812Y-66271376D01*
X130923512Y-66301073D01*
X130898742Y-66306000D01*
X130721258Y-66306000D01*
X130696488Y-66301073D01*
X130547188Y-66271376D01*
X130383216Y-66203456D01*
X130235646Y-66104853D01*
X130110147Y-65979354D01*
X130011544Y-65831784D01*
X129943624Y-65667812D01*
X129909000Y-65493741D01*
X129909000Y-65316259D01*
X129943624Y-65142188D01*
X130011544Y-64978216D01*
X130110147Y-64830646D01*
X130235646Y-64705147D01*
X130383216Y-64606544D01*
X130547188Y-64538624D01*
X130696488Y-64508927D01*
X130721258Y-64504000D01*
X130898742Y-64504000D01*
X130923512Y-64508927D01*
G37*
G36*
X111238512Y-62028927D02*
G01*
X111387812Y-62058624D01*
X111551784Y-62126544D01*
X111699354Y-62225147D01*
X111824853Y-62350646D01*
X111923456Y-62498216D01*
X111991376Y-62662188D01*
X112026000Y-62836259D01*
X112026000Y-63013741D01*
X111991376Y-63187812D01*
X111923456Y-63351784D01*
X111824853Y-63499354D01*
X111699354Y-63624853D01*
X111551784Y-63723456D01*
X111387812Y-63791376D01*
X111238512Y-63821073D01*
X111213742Y-63826000D01*
X111036258Y-63826000D01*
X111011488Y-63821073D01*
X110862188Y-63791376D01*
X110698216Y-63723456D01*
X110550646Y-63624853D01*
X110425147Y-63499354D01*
X110326544Y-63351784D01*
X110258624Y-63187812D01*
X110224000Y-63013741D01*
X110224000Y-62836259D01*
X110258624Y-62662188D01*
X110326544Y-62498216D01*
X110425147Y-62350646D01*
X110550646Y-62225147D01*
X110698216Y-62126544D01*
X110862188Y-62058624D01*
X111011488Y-62028927D01*
X111036258Y-62024000D01*
X111213742Y-62024000D01*
X111238512Y-62028927D01*
G37*
G36*
X128383512Y-61968927D02*
G01*
X128532812Y-61998624D01*
X128696784Y-62066544D01*
X128844354Y-62165147D01*
X128969853Y-62290646D01*
X129068456Y-62438216D01*
X129136376Y-62602188D01*
X129171000Y-62776259D01*
X129171000Y-62953741D01*
X129136376Y-63127812D01*
X129068456Y-63291784D01*
X128969853Y-63439354D01*
X128844354Y-63564853D01*
X128696784Y-63663456D01*
X128532812Y-63731376D01*
X128383512Y-63761073D01*
X128358742Y-63766000D01*
X128181258Y-63766000D01*
X128156488Y-63761073D01*
X128007188Y-63731376D01*
X127843216Y-63663456D01*
X127695646Y-63564853D01*
X127570147Y-63439354D01*
X127471544Y-63291784D01*
X127403624Y-63127812D01*
X127369000Y-62953741D01*
X127369000Y-62776259D01*
X127403624Y-62602188D01*
X127471544Y-62438216D01*
X127570147Y-62290646D01*
X127695646Y-62165147D01*
X127843216Y-62066544D01*
X128007188Y-61998624D01*
X128156488Y-61968927D01*
X128181258Y-61964000D01*
X128358742Y-61964000D01*
X128383512Y-61968927D01*
G37*
G36*
X130923512Y-61968927D02*
G01*
X131072812Y-61998624D01*
X131236784Y-62066544D01*
X131384354Y-62165147D01*
X131509853Y-62290646D01*
X131608456Y-62438216D01*
X131676376Y-62602188D01*
X131711000Y-62776259D01*
X131711000Y-62953741D01*
X131676376Y-63127812D01*
X131608456Y-63291784D01*
X131509853Y-63439354D01*
X131384354Y-63564853D01*
X131236784Y-63663456D01*
X131072812Y-63731376D01*
X130923512Y-63761073D01*
X130898742Y-63766000D01*
X130721258Y-63766000D01*
X130696488Y-63761073D01*
X130547188Y-63731376D01*
X130383216Y-63663456D01*
X130235646Y-63564853D01*
X130110147Y-63439354D01*
X130011544Y-63291784D01*
X129943624Y-63127812D01*
X129909000Y-62953741D01*
X129909000Y-62776259D01*
X129943624Y-62602188D01*
X130011544Y-62438216D01*
X130110147Y-62290646D01*
X130235646Y-62165147D01*
X130383216Y-62066544D01*
X130547188Y-61998624D01*
X130696488Y-61968927D01*
X130721258Y-61964000D01*
X130898742Y-61964000D01*
X130923512Y-61968927D01*
G37*
G36*
X111238512Y-59488927D02*
G01*
X111387812Y-59518624D01*
X111551784Y-59586544D01*
X111699354Y-59685147D01*
X111824853Y-59810646D01*
X111923456Y-59958216D01*
X111991376Y-60122188D01*
X112026000Y-60296259D01*
X112026000Y-60473741D01*
X111991376Y-60647812D01*
X111923456Y-60811784D01*
X111824853Y-60959354D01*
X111699354Y-61084853D01*
X111551784Y-61183456D01*
X111387812Y-61251376D01*
X111238512Y-61281073D01*
X111213742Y-61286000D01*
X111036258Y-61286000D01*
X111011488Y-61281073D01*
X110862188Y-61251376D01*
X110698216Y-61183456D01*
X110550646Y-61084853D01*
X110425147Y-60959354D01*
X110326544Y-60811784D01*
X110258624Y-60647812D01*
X110224000Y-60473741D01*
X110224000Y-60296259D01*
X110258624Y-60122188D01*
X110326544Y-59958216D01*
X110425147Y-59810646D01*
X110550646Y-59685147D01*
X110698216Y-59586544D01*
X110862188Y-59518624D01*
X111011488Y-59488927D01*
X111036258Y-59484000D01*
X111213742Y-59484000D01*
X111238512Y-59488927D01*
G37*
G36*
X111238512Y-56948927D02*
G01*
X111387812Y-56978624D01*
X111551784Y-57046544D01*
X111699354Y-57145147D01*
X111824853Y-57270646D01*
X111923456Y-57418216D01*
X111991376Y-57582188D01*
X112026000Y-57756259D01*
X112026000Y-57933741D01*
X111991376Y-58107812D01*
X111923456Y-58271784D01*
X111824853Y-58419354D01*
X111699354Y-58544853D01*
X111551784Y-58643456D01*
X111387812Y-58711376D01*
X111238512Y-58741073D01*
X111213742Y-58746000D01*
X111036258Y-58746000D01*
X111011488Y-58741073D01*
X110862188Y-58711376D01*
X110698216Y-58643456D01*
X110550646Y-58544853D01*
X110425147Y-58419354D01*
X110326544Y-58271784D01*
X110258624Y-58107812D01*
X110224000Y-57933741D01*
X110224000Y-57756259D01*
X110258624Y-57582188D01*
X110326544Y-57418216D01*
X110425147Y-57270646D01*
X110550646Y-57145147D01*
X110698216Y-57046544D01*
X110862188Y-56978624D01*
X111011488Y-56948927D01*
X111036258Y-56944000D01*
X111213742Y-56944000D01*
X111238512Y-56948927D01*
G37*
G36*
X111238512Y-54408927D02*
G01*
X111387812Y-54438624D01*
X111551784Y-54506544D01*
X111699354Y-54605147D01*
X111824853Y-54730646D01*
X111923456Y-54878216D01*
X111991376Y-55042188D01*
X112026000Y-55216259D01*
X112026000Y-55393741D01*
X111991376Y-55567812D01*
X111923456Y-55731784D01*
X111824853Y-55879354D01*
X111699354Y-56004853D01*
X111551784Y-56103456D01*
X111387812Y-56171376D01*
X111238512Y-56201073D01*
X111213742Y-56206000D01*
X111036258Y-56206000D01*
X111011488Y-56201073D01*
X110862188Y-56171376D01*
X110698216Y-56103456D01*
X110550646Y-56004853D01*
X110425147Y-55879354D01*
X110326544Y-55731784D01*
X110258624Y-55567812D01*
X110224000Y-55393741D01*
X110224000Y-55216259D01*
X110258624Y-55042188D01*
X110326544Y-54878216D01*
X110425147Y-54730646D01*
X110550646Y-54605147D01*
X110698216Y-54506544D01*
X110862188Y-54438624D01*
X111011488Y-54408927D01*
X111036258Y-54404000D01*
X111213742Y-54404000D01*
X111238512Y-54408927D01*
G37*
G36*
X111238512Y-51868927D02*
G01*
X111387812Y-51898624D01*
X111551784Y-51966544D01*
X111699354Y-52065147D01*
X111824853Y-52190646D01*
X111923456Y-52338216D01*
X111991376Y-52502188D01*
X112026000Y-52676259D01*
X112026000Y-52853741D01*
X111991376Y-53027812D01*
X111923456Y-53191784D01*
X111824853Y-53339354D01*
X111699354Y-53464853D01*
X111551784Y-53563456D01*
X111387812Y-53631376D01*
X111238512Y-53661073D01*
X111213742Y-53666000D01*
X111036258Y-53666000D01*
X111011488Y-53661073D01*
X110862188Y-53631376D01*
X110698216Y-53563456D01*
X110550646Y-53464853D01*
X110425147Y-53339354D01*
X110326544Y-53191784D01*
X110258624Y-53027812D01*
X110224000Y-52853741D01*
X110224000Y-52676259D01*
X110258624Y-52502188D01*
X110326544Y-52338216D01*
X110425147Y-52190646D01*
X110550646Y-52065147D01*
X110698216Y-51966544D01*
X110862188Y-51898624D01*
X111011488Y-51868927D01*
X111036258Y-51864000D01*
X111213742Y-51864000D01*
X111238512Y-51868927D01*
G37*
G36*
X112026000Y-51126000D02*
G01*
X110224000Y-51126000D01*
X110224000Y-49324000D01*
X112026000Y-49324000D01*
X112026000Y-51126000D01*
G37*
M02*
