G04 #@! TF.GenerationSoftware,KiCad,Pcbnew,(5.1.5)-2*
G04 #@! TF.CreationDate,2019-12-11T14:46:47+11:00*
G04 #@! TF.ProjectId,M68K-Nucleo,4d36384b-2d4e-4756-936c-656f2e6b6963,rev?*
G04 #@! TF.SameCoordinates,Original*
G04 #@! TF.FileFunction,Paste,Top*
G04 #@! TF.FilePolarity,Positive*
%FSLAX46Y46*%
G04 Gerber Fmt 4.6, Leading zero omitted, Abs format (unit mm)*
G04 Created by KiCad (PCBNEW (5.1.5)-2) date 2019-12-11 14:46:47*
%MOMM*%
%LPD*%
G04 APERTURE LIST*
%ADD10C,0.100000*%
G04 APERTURE END LIST*
D10*
G36*
X161304504Y-79516204D02*
G01*
X161328773Y-79519804D01*
X161352571Y-79525765D01*
X161375671Y-79534030D01*
X161397849Y-79544520D01*
X161418893Y-79557133D01*
X161438598Y-79571747D01*
X161456777Y-79588223D01*
X161473253Y-79606402D01*
X161487867Y-79626107D01*
X161500480Y-79647151D01*
X161510970Y-79669329D01*
X161519235Y-79692429D01*
X161525196Y-79716227D01*
X161528796Y-79740496D01*
X161530000Y-79765000D01*
X161530000Y-80515000D01*
X161528796Y-80539504D01*
X161525196Y-80563773D01*
X161519235Y-80587571D01*
X161510970Y-80610671D01*
X161500480Y-80632849D01*
X161487867Y-80653893D01*
X161473253Y-80673598D01*
X161456777Y-80691777D01*
X161438598Y-80708253D01*
X161418893Y-80722867D01*
X161397849Y-80735480D01*
X161375671Y-80745970D01*
X161352571Y-80754235D01*
X161328773Y-80760196D01*
X161304504Y-80763796D01*
X161280000Y-80765000D01*
X160030000Y-80765000D01*
X160005496Y-80763796D01*
X159981227Y-80760196D01*
X159957429Y-80754235D01*
X159934329Y-80745970D01*
X159912151Y-80735480D01*
X159891107Y-80722867D01*
X159871402Y-80708253D01*
X159853223Y-80691777D01*
X159836747Y-80673598D01*
X159822133Y-80653893D01*
X159809520Y-80632849D01*
X159799030Y-80610671D01*
X159790765Y-80587571D01*
X159784804Y-80563773D01*
X159781204Y-80539504D01*
X159780000Y-80515000D01*
X159780000Y-79765000D01*
X159781204Y-79740496D01*
X159784804Y-79716227D01*
X159790765Y-79692429D01*
X159799030Y-79669329D01*
X159809520Y-79647151D01*
X159822133Y-79626107D01*
X159836747Y-79606402D01*
X159853223Y-79588223D01*
X159871402Y-79571747D01*
X159891107Y-79557133D01*
X159912151Y-79544520D01*
X159934329Y-79534030D01*
X159957429Y-79525765D01*
X159981227Y-79519804D01*
X160005496Y-79516204D01*
X160030000Y-79515000D01*
X161280000Y-79515000D01*
X161304504Y-79516204D01*
G37*
G36*
X161304504Y-76716204D02*
G01*
X161328773Y-76719804D01*
X161352571Y-76725765D01*
X161375671Y-76734030D01*
X161397849Y-76744520D01*
X161418893Y-76757133D01*
X161438598Y-76771747D01*
X161456777Y-76788223D01*
X161473253Y-76806402D01*
X161487867Y-76826107D01*
X161500480Y-76847151D01*
X161510970Y-76869329D01*
X161519235Y-76892429D01*
X161525196Y-76916227D01*
X161528796Y-76940496D01*
X161530000Y-76965000D01*
X161530000Y-77715000D01*
X161528796Y-77739504D01*
X161525196Y-77763773D01*
X161519235Y-77787571D01*
X161510970Y-77810671D01*
X161500480Y-77832849D01*
X161487867Y-77853893D01*
X161473253Y-77873598D01*
X161456777Y-77891777D01*
X161438598Y-77908253D01*
X161418893Y-77922867D01*
X161397849Y-77935480D01*
X161375671Y-77945970D01*
X161352571Y-77954235D01*
X161328773Y-77960196D01*
X161304504Y-77963796D01*
X161280000Y-77965000D01*
X160030000Y-77965000D01*
X160005496Y-77963796D01*
X159981227Y-77960196D01*
X159957429Y-77954235D01*
X159934329Y-77945970D01*
X159912151Y-77935480D01*
X159891107Y-77922867D01*
X159871402Y-77908253D01*
X159853223Y-77891777D01*
X159836747Y-77873598D01*
X159822133Y-77853893D01*
X159809520Y-77832849D01*
X159799030Y-77810671D01*
X159790765Y-77787571D01*
X159784804Y-77763773D01*
X159781204Y-77739504D01*
X159780000Y-77715000D01*
X159780000Y-76965000D01*
X159781204Y-76940496D01*
X159784804Y-76916227D01*
X159790765Y-76892429D01*
X159799030Y-76869329D01*
X159809520Y-76847151D01*
X159822133Y-76826107D01*
X159836747Y-76806402D01*
X159853223Y-76788223D01*
X159871402Y-76771747D01*
X159891107Y-76757133D01*
X159912151Y-76744520D01*
X159934329Y-76734030D01*
X159957429Y-76725765D01*
X159981227Y-76719804D01*
X160005496Y-76716204D01*
X160030000Y-76715000D01*
X161280000Y-76715000D01*
X161304504Y-76716204D01*
G37*
G36*
X161304504Y-74436204D02*
G01*
X161328773Y-74439804D01*
X161352571Y-74445765D01*
X161375671Y-74454030D01*
X161397849Y-74464520D01*
X161418893Y-74477133D01*
X161438598Y-74491747D01*
X161456777Y-74508223D01*
X161473253Y-74526402D01*
X161487867Y-74546107D01*
X161500480Y-74567151D01*
X161510970Y-74589329D01*
X161519235Y-74612429D01*
X161525196Y-74636227D01*
X161528796Y-74660496D01*
X161530000Y-74685000D01*
X161530000Y-75435000D01*
X161528796Y-75459504D01*
X161525196Y-75483773D01*
X161519235Y-75507571D01*
X161510970Y-75530671D01*
X161500480Y-75552849D01*
X161487867Y-75573893D01*
X161473253Y-75593598D01*
X161456777Y-75611777D01*
X161438598Y-75628253D01*
X161418893Y-75642867D01*
X161397849Y-75655480D01*
X161375671Y-75665970D01*
X161352571Y-75674235D01*
X161328773Y-75680196D01*
X161304504Y-75683796D01*
X161280000Y-75685000D01*
X160030000Y-75685000D01*
X160005496Y-75683796D01*
X159981227Y-75680196D01*
X159957429Y-75674235D01*
X159934329Y-75665970D01*
X159912151Y-75655480D01*
X159891107Y-75642867D01*
X159871402Y-75628253D01*
X159853223Y-75611777D01*
X159836747Y-75593598D01*
X159822133Y-75573893D01*
X159809520Y-75552849D01*
X159799030Y-75530671D01*
X159790765Y-75507571D01*
X159784804Y-75483773D01*
X159781204Y-75459504D01*
X159780000Y-75435000D01*
X159780000Y-74685000D01*
X159781204Y-74660496D01*
X159784804Y-74636227D01*
X159790765Y-74612429D01*
X159799030Y-74589329D01*
X159809520Y-74567151D01*
X159822133Y-74546107D01*
X159836747Y-74526402D01*
X159853223Y-74508223D01*
X159871402Y-74491747D01*
X159891107Y-74477133D01*
X159912151Y-74464520D01*
X159934329Y-74454030D01*
X159957429Y-74445765D01*
X159981227Y-74439804D01*
X160005496Y-74436204D01*
X160030000Y-74435000D01*
X161280000Y-74435000D01*
X161304504Y-74436204D01*
G37*
G36*
X161304504Y-71636204D02*
G01*
X161328773Y-71639804D01*
X161352571Y-71645765D01*
X161375671Y-71654030D01*
X161397849Y-71664520D01*
X161418893Y-71677133D01*
X161438598Y-71691747D01*
X161456777Y-71708223D01*
X161473253Y-71726402D01*
X161487867Y-71746107D01*
X161500480Y-71767151D01*
X161510970Y-71789329D01*
X161519235Y-71812429D01*
X161525196Y-71836227D01*
X161528796Y-71860496D01*
X161530000Y-71885000D01*
X161530000Y-72635000D01*
X161528796Y-72659504D01*
X161525196Y-72683773D01*
X161519235Y-72707571D01*
X161510970Y-72730671D01*
X161500480Y-72752849D01*
X161487867Y-72773893D01*
X161473253Y-72793598D01*
X161456777Y-72811777D01*
X161438598Y-72828253D01*
X161418893Y-72842867D01*
X161397849Y-72855480D01*
X161375671Y-72865970D01*
X161352571Y-72874235D01*
X161328773Y-72880196D01*
X161304504Y-72883796D01*
X161280000Y-72885000D01*
X160030000Y-72885000D01*
X160005496Y-72883796D01*
X159981227Y-72880196D01*
X159957429Y-72874235D01*
X159934329Y-72865970D01*
X159912151Y-72855480D01*
X159891107Y-72842867D01*
X159871402Y-72828253D01*
X159853223Y-72811777D01*
X159836747Y-72793598D01*
X159822133Y-72773893D01*
X159809520Y-72752849D01*
X159799030Y-72730671D01*
X159790765Y-72707571D01*
X159784804Y-72683773D01*
X159781204Y-72659504D01*
X159780000Y-72635000D01*
X159780000Y-71885000D01*
X159781204Y-71860496D01*
X159784804Y-71836227D01*
X159790765Y-71812429D01*
X159799030Y-71789329D01*
X159809520Y-71767151D01*
X159822133Y-71746107D01*
X159836747Y-71726402D01*
X159853223Y-71708223D01*
X159871402Y-71691747D01*
X159891107Y-71677133D01*
X159912151Y-71664520D01*
X159934329Y-71654030D01*
X159957429Y-71645765D01*
X159981227Y-71639804D01*
X160005496Y-71636204D01*
X160030000Y-71635000D01*
X161280000Y-71635000D01*
X161304504Y-71636204D01*
G37*
G36*
X150509504Y-81040204D02*
G01*
X150533773Y-81043804D01*
X150557571Y-81049765D01*
X150580671Y-81058030D01*
X150602849Y-81068520D01*
X150623893Y-81081133D01*
X150643598Y-81095747D01*
X150661777Y-81112223D01*
X150678253Y-81130402D01*
X150692867Y-81150107D01*
X150705480Y-81171151D01*
X150715970Y-81193329D01*
X150724235Y-81216429D01*
X150730196Y-81240227D01*
X150733796Y-81264496D01*
X150735000Y-81289000D01*
X150735000Y-82039000D01*
X150733796Y-82063504D01*
X150730196Y-82087773D01*
X150724235Y-82111571D01*
X150715970Y-82134671D01*
X150705480Y-82156849D01*
X150692867Y-82177893D01*
X150678253Y-82197598D01*
X150661777Y-82215777D01*
X150643598Y-82232253D01*
X150623893Y-82246867D01*
X150602849Y-82259480D01*
X150580671Y-82269970D01*
X150557571Y-82278235D01*
X150533773Y-82284196D01*
X150509504Y-82287796D01*
X150485000Y-82289000D01*
X149235000Y-82289000D01*
X149210496Y-82287796D01*
X149186227Y-82284196D01*
X149162429Y-82278235D01*
X149139329Y-82269970D01*
X149117151Y-82259480D01*
X149096107Y-82246867D01*
X149076402Y-82232253D01*
X149058223Y-82215777D01*
X149041747Y-82197598D01*
X149027133Y-82177893D01*
X149014520Y-82156849D01*
X149004030Y-82134671D01*
X148995765Y-82111571D01*
X148989804Y-82087773D01*
X148986204Y-82063504D01*
X148985000Y-82039000D01*
X148985000Y-81289000D01*
X148986204Y-81264496D01*
X148989804Y-81240227D01*
X148995765Y-81216429D01*
X149004030Y-81193329D01*
X149014520Y-81171151D01*
X149027133Y-81150107D01*
X149041747Y-81130402D01*
X149058223Y-81112223D01*
X149076402Y-81095747D01*
X149096107Y-81081133D01*
X149117151Y-81068520D01*
X149139329Y-81058030D01*
X149162429Y-81049765D01*
X149186227Y-81043804D01*
X149210496Y-81040204D01*
X149235000Y-81039000D01*
X150485000Y-81039000D01*
X150509504Y-81040204D01*
G37*
G36*
X150509504Y-78240204D02*
G01*
X150533773Y-78243804D01*
X150557571Y-78249765D01*
X150580671Y-78258030D01*
X150602849Y-78268520D01*
X150623893Y-78281133D01*
X150643598Y-78295747D01*
X150661777Y-78312223D01*
X150678253Y-78330402D01*
X150692867Y-78350107D01*
X150705480Y-78371151D01*
X150715970Y-78393329D01*
X150724235Y-78416429D01*
X150730196Y-78440227D01*
X150733796Y-78464496D01*
X150735000Y-78489000D01*
X150735000Y-79239000D01*
X150733796Y-79263504D01*
X150730196Y-79287773D01*
X150724235Y-79311571D01*
X150715970Y-79334671D01*
X150705480Y-79356849D01*
X150692867Y-79377893D01*
X150678253Y-79397598D01*
X150661777Y-79415777D01*
X150643598Y-79432253D01*
X150623893Y-79446867D01*
X150602849Y-79459480D01*
X150580671Y-79469970D01*
X150557571Y-79478235D01*
X150533773Y-79484196D01*
X150509504Y-79487796D01*
X150485000Y-79489000D01*
X149235000Y-79489000D01*
X149210496Y-79487796D01*
X149186227Y-79484196D01*
X149162429Y-79478235D01*
X149139329Y-79469970D01*
X149117151Y-79459480D01*
X149096107Y-79446867D01*
X149076402Y-79432253D01*
X149058223Y-79415777D01*
X149041747Y-79397598D01*
X149027133Y-79377893D01*
X149014520Y-79356849D01*
X149004030Y-79334671D01*
X148995765Y-79311571D01*
X148989804Y-79287773D01*
X148986204Y-79263504D01*
X148985000Y-79239000D01*
X148985000Y-78489000D01*
X148986204Y-78464496D01*
X148989804Y-78440227D01*
X148995765Y-78416429D01*
X149004030Y-78393329D01*
X149014520Y-78371151D01*
X149027133Y-78350107D01*
X149041747Y-78330402D01*
X149058223Y-78312223D01*
X149076402Y-78295747D01*
X149096107Y-78281133D01*
X149117151Y-78268520D01*
X149139329Y-78258030D01*
X149162429Y-78249765D01*
X149186227Y-78243804D01*
X149210496Y-78240204D01*
X149235000Y-78239000D01*
X150485000Y-78239000D01*
X150509504Y-78240204D01*
G37*
G36*
X150509504Y-76341204D02*
G01*
X150533773Y-76344804D01*
X150557571Y-76350765D01*
X150580671Y-76359030D01*
X150602849Y-76369520D01*
X150623893Y-76382133D01*
X150643598Y-76396747D01*
X150661777Y-76413223D01*
X150678253Y-76431402D01*
X150692867Y-76451107D01*
X150705480Y-76472151D01*
X150715970Y-76494329D01*
X150724235Y-76517429D01*
X150730196Y-76541227D01*
X150733796Y-76565496D01*
X150735000Y-76590000D01*
X150735000Y-77340000D01*
X150733796Y-77364504D01*
X150730196Y-77388773D01*
X150724235Y-77412571D01*
X150715970Y-77435671D01*
X150705480Y-77457849D01*
X150692867Y-77478893D01*
X150678253Y-77498598D01*
X150661777Y-77516777D01*
X150643598Y-77533253D01*
X150623893Y-77547867D01*
X150602849Y-77560480D01*
X150580671Y-77570970D01*
X150557571Y-77579235D01*
X150533773Y-77585196D01*
X150509504Y-77588796D01*
X150485000Y-77590000D01*
X149235000Y-77590000D01*
X149210496Y-77588796D01*
X149186227Y-77585196D01*
X149162429Y-77579235D01*
X149139329Y-77570970D01*
X149117151Y-77560480D01*
X149096107Y-77547867D01*
X149076402Y-77533253D01*
X149058223Y-77516777D01*
X149041747Y-77498598D01*
X149027133Y-77478893D01*
X149014520Y-77457849D01*
X149004030Y-77435671D01*
X148995765Y-77412571D01*
X148989804Y-77388773D01*
X148986204Y-77364504D01*
X148985000Y-77340000D01*
X148985000Y-76590000D01*
X148986204Y-76565496D01*
X148989804Y-76541227D01*
X148995765Y-76517429D01*
X149004030Y-76494329D01*
X149014520Y-76472151D01*
X149027133Y-76451107D01*
X149041747Y-76431402D01*
X149058223Y-76413223D01*
X149076402Y-76396747D01*
X149096107Y-76382133D01*
X149117151Y-76369520D01*
X149139329Y-76359030D01*
X149162429Y-76350765D01*
X149186227Y-76344804D01*
X149210496Y-76341204D01*
X149235000Y-76340000D01*
X150485000Y-76340000D01*
X150509504Y-76341204D01*
G37*
G36*
X150509504Y-73541204D02*
G01*
X150533773Y-73544804D01*
X150557571Y-73550765D01*
X150580671Y-73559030D01*
X150602849Y-73569520D01*
X150623893Y-73582133D01*
X150643598Y-73596747D01*
X150661777Y-73613223D01*
X150678253Y-73631402D01*
X150692867Y-73651107D01*
X150705480Y-73672151D01*
X150715970Y-73694329D01*
X150724235Y-73717429D01*
X150730196Y-73741227D01*
X150733796Y-73765496D01*
X150735000Y-73790000D01*
X150735000Y-74540000D01*
X150733796Y-74564504D01*
X150730196Y-74588773D01*
X150724235Y-74612571D01*
X150715970Y-74635671D01*
X150705480Y-74657849D01*
X150692867Y-74678893D01*
X150678253Y-74698598D01*
X150661777Y-74716777D01*
X150643598Y-74733253D01*
X150623893Y-74747867D01*
X150602849Y-74760480D01*
X150580671Y-74770970D01*
X150557571Y-74779235D01*
X150533773Y-74785196D01*
X150509504Y-74788796D01*
X150485000Y-74790000D01*
X149235000Y-74790000D01*
X149210496Y-74788796D01*
X149186227Y-74785196D01*
X149162429Y-74779235D01*
X149139329Y-74770970D01*
X149117151Y-74760480D01*
X149096107Y-74747867D01*
X149076402Y-74733253D01*
X149058223Y-74716777D01*
X149041747Y-74698598D01*
X149027133Y-74678893D01*
X149014520Y-74657849D01*
X149004030Y-74635671D01*
X148995765Y-74612571D01*
X148989804Y-74588773D01*
X148986204Y-74564504D01*
X148985000Y-74540000D01*
X148985000Y-73790000D01*
X148986204Y-73765496D01*
X148989804Y-73741227D01*
X148995765Y-73717429D01*
X149004030Y-73694329D01*
X149014520Y-73672151D01*
X149027133Y-73651107D01*
X149041747Y-73631402D01*
X149058223Y-73613223D01*
X149076402Y-73596747D01*
X149096107Y-73582133D01*
X149117151Y-73569520D01*
X149139329Y-73559030D01*
X149162429Y-73550765D01*
X149186227Y-73544804D01*
X149210496Y-73541204D01*
X149235000Y-73540000D01*
X150485000Y-73540000D01*
X150509504Y-73541204D01*
G37*
G36*
X114949504Y-116981204D02*
G01*
X114973773Y-116984804D01*
X114997571Y-116990765D01*
X115020671Y-116999030D01*
X115042849Y-117009520D01*
X115063893Y-117022133D01*
X115083598Y-117036747D01*
X115101777Y-117053223D01*
X115118253Y-117071402D01*
X115132867Y-117091107D01*
X115145480Y-117112151D01*
X115155970Y-117134329D01*
X115164235Y-117157429D01*
X115170196Y-117181227D01*
X115173796Y-117205496D01*
X115175000Y-117230000D01*
X115175000Y-117980000D01*
X115173796Y-118004504D01*
X115170196Y-118028773D01*
X115164235Y-118052571D01*
X115155970Y-118075671D01*
X115145480Y-118097849D01*
X115132867Y-118118893D01*
X115118253Y-118138598D01*
X115101777Y-118156777D01*
X115083598Y-118173253D01*
X115063893Y-118187867D01*
X115042849Y-118200480D01*
X115020671Y-118210970D01*
X114997571Y-118219235D01*
X114973773Y-118225196D01*
X114949504Y-118228796D01*
X114925000Y-118230000D01*
X113675000Y-118230000D01*
X113650496Y-118228796D01*
X113626227Y-118225196D01*
X113602429Y-118219235D01*
X113579329Y-118210970D01*
X113557151Y-118200480D01*
X113536107Y-118187867D01*
X113516402Y-118173253D01*
X113498223Y-118156777D01*
X113481747Y-118138598D01*
X113467133Y-118118893D01*
X113454520Y-118097849D01*
X113444030Y-118075671D01*
X113435765Y-118052571D01*
X113429804Y-118028773D01*
X113426204Y-118004504D01*
X113425000Y-117980000D01*
X113425000Y-117230000D01*
X113426204Y-117205496D01*
X113429804Y-117181227D01*
X113435765Y-117157429D01*
X113444030Y-117134329D01*
X113454520Y-117112151D01*
X113467133Y-117091107D01*
X113481747Y-117071402D01*
X113498223Y-117053223D01*
X113516402Y-117036747D01*
X113536107Y-117022133D01*
X113557151Y-117009520D01*
X113579329Y-116999030D01*
X113602429Y-116990765D01*
X113626227Y-116984804D01*
X113650496Y-116981204D01*
X113675000Y-116980000D01*
X114925000Y-116980000D01*
X114949504Y-116981204D01*
G37*
G36*
X114949504Y-114181204D02*
G01*
X114973773Y-114184804D01*
X114997571Y-114190765D01*
X115020671Y-114199030D01*
X115042849Y-114209520D01*
X115063893Y-114222133D01*
X115083598Y-114236747D01*
X115101777Y-114253223D01*
X115118253Y-114271402D01*
X115132867Y-114291107D01*
X115145480Y-114312151D01*
X115155970Y-114334329D01*
X115164235Y-114357429D01*
X115170196Y-114381227D01*
X115173796Y-114405496D01*
X115175000Y-114430000D01*
X115175000Y-115180000D01*
X115173796Y-115204504D01*
X115170196Y-115228773D01*
X115164235Y-115252571D01*
X115155970Y-115275671D01*
X115145480Y-115297849D01*
X115132867Y-115318893D01*
X115118253Y-115338598D01*
X115101777Y-115356777D01*
X115083598Y-115373253D01*
X115063893Y-115387867D01*
X115042849Y-115400480D01*
X115020671Y-115410970D01*
X114997571Y-115419235D01*
X114973773Y-115425196D01*
X114949504Y-115428796D01*
X114925000Y-115430000D01*
X113675000Y-115430000D01*
X113650496Y-115428796D01*
X113626227Y-115425196D01*
X113602429Y-115419235D01*
X113579329Y-115410970D01*
X113557151Y-115400480D01*
X113536107Y-115387867D01*
X113516402Y-115373253D01*
X113498223Y-115356777D01*
X113481747Y-115338598D01*
X113467133Y-115318893D01*
X113454520Y-115297849D01*
X113444030Y-115275671D01*
X113435765Y-115252571D01*
X113429804Y-115228773D01*
X113426204Y-115204504D01*
X113425000Y-115180000D01*
X113425000Y-114430000D01*
X113426204Y-114405496D01*
X113429804Y-114381227D01*
X113435765Y-114357429D01*
X113444030Y-114334329D01*
X113454520Y-114312151D01*
X113467133Y-114291107D01*
X113481747Y-114271402D01*
X113498223Y-114253223D01*
X113516402Y-114236747D01*
X113536107Y-114222133D01*
X113557151Y-114209520D01*
X113579329Y-114199030D01*
X113602429Y-114190765D01*
X113626227Y-114184804D01*
X113650496Y-114181204D01*
X113675000Y-114180000D01*
X114925000Y-114180000D01*
X114949504Y-114181204D01*
G37*
G36*
X114949504Y-111796204D02*
G01*
X114973773Y-111799804D01*
X114997571Y-111805765D01*
X115020671Y-111814030D01*
X115042849Y-111824520D01*
X115063893Y-111837133D01*
X115083598Y-111851747D01*
X115101777Y-111868223D01*
X115118253Y-111886402D01*
X115132867Y-111906107D01*
X115145480Y-111927151D01*
X115155970Y-111949329D01*
X115164235Y-111972429D01*
X115170196Y-111996227D01*
X115173796Y-112020496D01*
X115175000Y-112045000D01*
X115175000Y-112795000D01*
X115173796Y-112819504D01*
X115170196Y-112843773D01*
X115164235Y-112867571D01*
X115155970Y-112890671D01*
X115145480Y-112912849D01*
X115132867Y-112933893D01*
X115118253Y-112953598D01*
X115101777Y-112971777D01*
X115083598Y-112988253D01*
X115063893Y-113002867D01*
X115042849Y-113015480D01*
X115020671Y-113025970D01*
X114997571Y-113034235D01*
X114973773Y-113040196D01*
X114949504Y-113043796D01*
X114925000Y-113045000D01*
X113675000Y-113045000D01*
X113650496Y-113043796D01*
X113626227Y-113040196D01*
X113602429Y-113034235D01*
X113579329Y-113025970D01*
X113557151Y-113015480D01*
X113536107Y-113002867D01*
X113516402Y-112988253D01*
X113498223Y-112971777D01*
X113481747Y-112953598D01*
X113467133Y-112933893D01*
X113454520Y-112912849D01*
X113444030Y-112890671D01*
X113435765Y-112867571D01*
X113429804Y-112843773D01*
X113426204Y-112819504D01*
X113425000Y-112795000D01*
X113425000Y-112045000D01*
X113426204Y-112020496D01*
X113429804Y-111996227D01*
X113435765Y-111972429D01*
X113444030Y-111949329D01*
X113454520Y-111927151D01*
X113467133Y-111906107D01*
X113481747Y-111886402D01*
X113498223Y-111868223D01*
X113516402Y-111851747D01*
X113536107Y-111837133D01*
X113557151Y-111824520D01*
X113579329Y-111814030D01*
X113602429Y-111805765D01*
X113626227Y-111799804D01*
X113650496Y-111796204D01*
X113675000Y-111795000D01*
X114925000Y-111795000D01*
X114949504Y-111796204D01*
G37*
G36*
X114949504Y-108996204D02*
G01*
X114973773Y-108999804D01*
X114997571Y-109005765D01*
X115020671Y-109014030D01*
X115042849Y-109024520D01*
X115063893Y-109037133D01*
X115083598Y-109051747D01*
X115101777Y-109068223D01*
X115118253Y-109086402D01*
X115132867Y-109106107D01*
X115145480Y-109127151D01*
X115155970Y-109149329D01*
X115164235Y-109172429D01*
X115170196Y-109196227D01*
X115173796Y-109220496D01*
X115175000Y-109245000D01*
X115175000Y-109995000D01*
X115173796Y-110019504D01*
X115170196Y-110043773D01*
X115164235Y-110067571D01*
X115155970Y-110090671D01*
X115145480Y-110112849D01*
X115132867Y-110133893D01*
X115118253Y-110153598D01*
X115101777Y-110171777D01*
X115083598Y-110188253D01*
X115063893Y-110202867D01*
X115042849Y-110215480D01*
X115020671Y-110225970D01*
X114997571Y-110234235D01*
X114973773Y-110240196D01*
X114949504Y-110243796D01*
X114925000Y-110245000D01*
X113675000Y-110245000D01*
X113650496Y-110243796D01*
X113626227Y-110240196D01*
X113602429Y-110234235D01*
X113579329Y-110225970D01*
X113557151Y-110215480D01*
X113536107Y-110202867D01*
X113516402Y-110188253D01*
X113498223Y-110171777D01*
X113481747Y-110153598D01*
X113467133Y-110133893D01*
X113454520Y-110112849D01*
X113444030Y-110090671D01*
X113435765Y-110067571D01*
X113429804Y-110043773D01*
X113426204Y-110019504D01*
X113425000Y-109995000D01*
X113425000Y-109245000D01*
X113426204Y-109220496D01*
X113429804Y-109196227D01*
X113435765Y-109172429D01*
X113444030Y-109149329D01*
X113454520Y-109127151D01*
X113467133Y-109106107D01*
X113481747Y-109086402D01*
X113498223Y-109068223D01*
X113516402Y-109051747D01*
X113536107Y-109037133D01*
X113557151Y-109024520D01*
X113579329Y-109014030D01*
X113602429Y-109005765D01*
X113626227Y-108999804D01*
X113650496Y-108996204D01*
X113675000Y-108995000D01*
X114925000Y-108995000D01*
X114949504Y-108996204D01*
G37*
G36*
X150509504Y-110631204D02*
G01*
X150533773Y-110634804D01*
X150557571Y-110640765D01*
X150580671Y-110649030D01*
X150602849Y-110659520D01*
X150623893Y-110672133D01*
X150643598Y-110686747D01*
X150661777Y-110703223D01*
X150678253Y-110721402D01*
X150692867Y-110741107D01*
X150705480Y-110762151D01*
X150715970Y-110784329D01*
X150724235Y-110807429D01*
X150730196Y-110831227D01*
X150733796Y-110855496D01*
X150735000Y-110880000D01*
X150735000Y-111630000D01*
X150733796Y-111654504D01*
X150730196Y-111678773D01*
X150724235Y-111702571D01*
X150715970Y-111725671D01*
X150705480Y-111747849D01*
X150692867Y-111768893D01*
X150678253Y-111788598D01*
X150661777Y-111806777D01*
X150643598Y-111823253D01*
X150623893Y-111837867D01*
X150602849Y-111850480D01*
X150580671Y-111860970D01*
X150557571Y-111869235D01*
X150533773Y-111875196D01*
X150509504Y-111878796D01*
X150485000Y-111880000D01*
X149235000Y-111880000D01*
X149210496Y-111878796D01*
X149186227Y-111875196D01*
X149162429Y-111869235D01*
X149139329Y-111860970D01*
X149117151Y-111850480D01*
X149096107Y-111837867D01*
X149076402Y-111823253D01*
X149058223Y-111806777D01*
X149041747Y-111788598D01*
X149027133Y-111768893D01*
X149014520Y-111747849D01*
X149004030Y-111725671D01*
X148995765Y-111702571D01*
X148989804Y-111678773D01*
X148986204Y-111654504D01*
X148985000Y-111630000D01*
X148985000Y-110880000D01*
X148986204Y-110855496D01*
X148989804Y-110831227D01*
X148995765Y-110807429D01*
X149004030Y-110784329D01*
X149014520Y-110762151D01*
X149027133Y-110741107D01*
X149041747Y-110721402D01*
X149058223Y-110703223D01*
X149076402Y-110686747D01*
X149096107Y-110672133D01*
X149117151Y-110659520D01*
X149139329Y-110649030D01*
X149162429Y-110640765D01*
X149186227Y-110634804D01*
X149210496Y-110631204D01*
X149235000Y-110630000D01*
X150485000Y-110630000D01*
X150509504Y-110631204D01*
G37*
G36*
X150509504Y-107831204D02*
G01*
X150533773Y-107834804D01*
X150557571Y-107840765D01*
X150580671Y-107849030D01*
X150602849Y-107859520D01*
X150623893Y-107872133D01*
X150643598Y-107886747D01*
X150661777Y-107903223D01*
X150678253Y-107921402D01*
X150692867Y-107941107D01*
X150705480Y-107962151D01*
X150715970Y-107984329D01*
X150724235Y-108007429D01*
X150730196Y-108031227D01*
X150733796Y-108055496D01*
X150735000Y-108080000D01*
X150735000Y-108830000D01*
X150733796Y-108854504D01*
X150730196Y-108878773D01*
X150724235Y-108902571D01*
X150715970Y-108925671D01*
X150705480Y-108947849D01*
X150692867Y-108968893D01*
X150678253Y-108988598D01*
X150661777Y-109006777D01*
X150643598Y-109023253D01*
X150623893Y-109037867D01*
X150602849Y-109050480D01*
X150580671Y-109060970D01*
X150557571Y-109069235D01*
X150533773Y-109075196D01*
X150509504Y-109078796D01*
X150485000Y-109080000D01*
X149235000Y-109080000D01*
X149210496Y-109078796D01*
X149186227Y-109075196D01*
X149162429Y-109069235D01*
X149139329Y-109060970D01*
X149117151Y-109050480D01*
X149096107Y-109037867D01*
X149076402Y-109023253D01*
X149058223Y-109006777D01*
X149041747Y-108988598D01*
X149027133Y-108968893D01*
X149014520Y-108947849D01*
X149004030Y-108925671D01*
X148995765Y-108902571D01*
X148989804Y-108878773D01*
X148986204Y-108854504D01*
X148985000Y-108830000D01*
X148985000Y-108080000D01*
X148986204Y-108055496D01*
X148989804Y-108031227D01*
X148995765Y-108007429D01*
X149004030Y-107984329D01*
X149014520Y-107962151D01*
X149027133Y-107941107D01*
X149041747Y-107921402D01*
X149058223Y-107903223D01*
X149076402Y-107886747D01*
X149096107Y-107872133D01*
X149117151Y-107859520D01*
X149139329Y-107849030D01*
X149162429Y-107840765D01*
X149186227Y-107834804D01*
X149210496Y-107831204D01*
X149235000Y-107830000D01*
X150485000Y-107830000D01*
X150509504Y-107831204D01*
G37*
G36*
X121299504Y-100211204D02*
G01*
X121323773Y-100214804D01*
X121347571Y-100220765D01*
X121370671Y-100229030D01*
X121392849Y-100239520D01*
X121413893Y-100252133D01*
X121433598Y-100266747D01*
X121451777Y-100283223D01*
X121468253Y-100301402D01*
X121482867Y-100321107D01*
X121495480Y-100342151D01*
X121505970Y-100364329D01*
X121514235Y-100387429D01*
X121520196Y-100411227D01*
X121523796Y-100435496D01*
X121525000Y-100460000D01*
X121525000Y-101210000D01*
X121523796Y-101234504D01*
X121520196Y-101258773D01*
X121514235Y-101282571D01*
X121505970Y-101305671D01*
X121495480Y-101327849D01*
X121482867Y-101348893D01*
X121468253Y-101368598D01*
X121451777Y-101386777D01*
X121433598Y-101403253D01*
X121413893Y-101417867D01*
X121392849Y-101430480D01*
X121370671Y-101440970D01*
X121347571Y-101449235D01*
X121323773Y-101455196D01*
X121299504Y-101458796D01*
X121275000Y-101460000D01*
X120025000Y-101460000D01*
X120000496Y-101458796D01*
X119976227Y-101455196D01*
X119952429Y-101449235D01*
X119929329Y-101440970D01*
X119907151Y-101430480D01*
X119886107Y-101417867D01*
X119866402Y-101403253D01*
X119848223Y-101386777D01*
X119831747Y-101368598D01*
X119817133Y-101348893D01*
X119804520Y-101327849D01*
X119794030Y-101305671D01*
X119785765Y-101282571D01*
X119779804Y-101258773D01*
X119776204Y-101234504D01*
X119775000Y-101210000D01*
X119775000Y-100460000D01*
X119776204Y-100435496D01*
X119779804Y-100411227D01*
X119785765Y-100387429D01*
X119794030Y-100364329D01*
X119804520Y-100342151D01*
X119817133Y-100321107D01*
X119831747Y-100301402D01*
X119848223Y-100283223D01*
X119866402Y-100266747D01*
X119886107Y-100252133D01*
X119907151Y-100239520D01*
X119929329Y-100229030D01*
X119952429Y-100220765D01*
X119976227Y-100214804D01*
X120000496Y-100211204D01*
X120025000Y-100210000D01*
X121275000Y-100210000D01*
X121299504Y-100211204D01*
G37*
G36*
X121299504Y-103011204D02*
G01*
X121323773Y-103014804D01*
X121347571Y-103020765D01*
X121370671Y-103029030D01*
X121392849Y-103039520D01*
X121413893Y-103052133D01*
X121433598Y-103066747D01*
X121451777Y-103083223D01*
X121468253Y-103101402D01*
X121482867Y-103121107D01*
X121495480Y-103142151D01*
X121505970Y-103164329D01*
X121514235Y-103187429D01*
X121520196Y-103211227D01*
X121523796Y-103235496D01*
X121525000Y-103260000D01*
X121525000Y-104010000D01*
X121523796Y-104034504D01*
X121520196Y-104058773D01*
X121514235Y-104082571D01*
X121505970Y-104105671D01*
X121495480Y-104127849D01*
X121482867Y-104148893D01*
X121468253Y-104168598D01*
X121451777Y-104186777D01*
X121433598Y-104203253D01*
X121413893Y-104217867D01*
X121392849Y-104230480D01*
X121370671Y-104240970D01*
X121347571Y-104249235D01*
X121323773Y-104255196D01*
X121299504Y-104258796D01*
X121275000Y-104260000D01*
X120025000Y-104260000D01*
X120000496Y-104258796D01*
X119976227Y-104255196D01*
X119952429Y-104249235D01*
X119929329Y-104240970D01*
X119907151Y-104230480D01*
X119886107Y-104217867D01*
X119866402Y-104203253D01*
X119848223Y-104186777D01*
X119831747Y-104168598D01*
X119817133Y-104148893D01*
X119804520Y-104127849D01*
X119794030Y-104105671D01*
X119785765Y-104082571D01*
X119779804Y-104058773D01*
X119776204Y-104034504D01*
X119775000Y-104010000D01*
X119775000Y-103260000D01*
X119776204Y-103235496D01*
X119779804Y-103211227D01*
X119785765Y-103187429D01*
X119794030Y-103164329D01*
X119804520Y-103142151D01*
X119817133Y-103121107D01*
X119831747Y-103101402D01*
X119848223Y-103083223D01*
X119866402Y-103066747D01*
X119886107Y-103052133D01*
X119907151Y-103039520D01*
X119929329Y-103029030D01*
X119952429Y-103020765D01*
X119976227Y-103014804D01*
X120000496Y-103011204D01*
X120025000Y-103010000D01*
X121275000Y-103010000D01*
X121299504Y-103011204D01*
G37*
M02*
