M48
; DRILL file {KiCad (5.1.5)-2} date 4/04/2020 3:42:36 PM
; FORMAT={-:-/ absolute / inch / decimal}
; #@! TF.CreationDate,2020-04-04T15:42:36+11:00
; #@! TF.GenerationSoftware,Kicad,Pcbnew,(5.1.5)-2
; #@! TF.FileFunction,Plated,1,2,PTH
FMAT,2
INCH
T1C0.0157
T2C0.0315
T3C0.0394
%
G90
G05
T1
X3.95Y-4.9
X4.3134Y-3.775
X4.3338Y-3.8819
X4.3452Y-5.2643
X4.3634Y-4.3
X4.3634Y-4.3472
X4.3634Y-4.3866
X4.3792Y-4.8035
X4.4205Y-4.3875
X4.425Y-4.5423
X4.425Y-4.2
X4.425Y-4.25
X4.4547Y-5.439
X4.5Y-3.2
X4.5066Y-4.6934
X4.5067Y-5.1716
X4.55Y-4.975
X4.575Y-3.3
X4.6043Y-4.8425
X4.625Y-3.425
X4.6336Y-3.4759
X4.636Y-5.2415
X4.6384Y-5.4504
X4.675Y-3.75
X4.6793Y-5.0216
X4.6864Y-4.7127
X4.7Y-5.075
X4.703Y-4.8047
X4.7145Y-4.7403
X4.7202Y-3.5798
X4.7372Y-3.5443
X4.75Y-4.375
X4.775Y-3.75
X4.975Y-3.325
X5.025Y-4.675
X5.075Y-4.825
X5.1Y-3.2
X5.1Y-4.275
X5.15Y-3.5715
X5.15Y-4.2
X5.2191Y-3.8597
X5.225Y-4.675
X5.25Y-4.875
X5.2559Y-3.4155
X5.2697Y-3.8852
X5.3Y-4.175
X5.3253Y-3.4215
X5.3465Y-4.4
X5.35Y-4.6
X5.3673Y-4.9358
X5.375Y-4.675
X5.4311Y-4.1035
X5.45Y-5.1035
X5.4715Y-4.7816
X5.475Y-4.5285
X5.496Y-5.1035
X5.5Y-3.875
X5.5Y-4.85
X5.525Y-4.0215
X5.525Y-4.65
X5.55Y-3.975
X5.55Y-4.725
X5.5571Y-5.2511
X5.575Y-3.6
X5.5965Y-3.525
X5.65Y-4.4
X5.9Y-5.2785
X5.9202Y-5.3952
X5.95Y-3.525
X5.965Y-3.065
X5.985Y-3.61
X6.0Y-4.025
X6.0Y-4.1
X6.0Y-5.325
X6.025Y-2.5
X6.04Y-3.49
X6.0577Y-5.0014
X6.0693Y-4.725
X6.075Y-5.215
X6.1Y-3.9
X6.125Y-4.85
X6.15Y-4.9513
X6.1671Y-4.7064
X6.2Y-5.05
X6.2037Y-4.6921
X6.23Y-3.0
X6.25Y-5.05
X6.2559Y-5.1595
X6.2718Y-3.0436
X6.275Y-5.3965
X6.2949Y-4.6772
X6.3231Y-4.6377
X6.3287Y-4.5987
X6.352Y-4.676
X6.3568Y-4.9536
X6.6035Y-5.8
X6.625Y-4.925
X6.625Y-5.375
X6.6535Y-5.2
T2
X4.25Y-3.95
X4.275Y-3.6
X4.375Y-5.15
X4.4Y-4.925
X4.425Y-4.65
X4.425Y-5.2
X4.475Y-4.95
X4.5711Y-4.6274
X4.575Y-3.925
X4.7478Y-4.2746
X4.75Y-3.9
X4.75Y-4.15
X4.8Y-2.625
X5.075Y-5.35
X5.225Y-5.35
X5.35Y-4.275
X5.8636Y-3.975
X5.875Y-3.3
X5.875Y-3.45
X5.9699Y-4.3801
X5.975Y-2.85
X6.1Y-3.425
X6.125Y-3.325
X6.15Y-3.775
X6.2Y-4.075
X6.225Y-2.775
X6.35Y-4.075
X6.3531Y-3.2226
X4.875Y-2.775
X4.875Y-2.875
X4.875Y-2.975
X4.875Y-3.075
X4.875Y-3.175
X4.875Y-3.275
X4.875Y-3.375
X4.875Y-3.475
X4.875Y-3.575
X4.875Y-3.675
X4.875Y-3.775
X4.875Y-3.875
X4.875Y-3.975
X4.875Y-4.075
X4.875Y-4.175
X4.875Y-4.275
X4.875Y-4.375
X4.875Y-4.475
X4.875Y-4.575
X4.875Y-4.675
X4.875Y-4.775
X4.875Y-4.875
X4.875Y-4.975
X4.875Y-5.075
X4.875Y-5.175
X4.875Y-5.275
X4.875Y-5.375
X4.875Y-5.475
X4.875Y-5.575
X4.875Y-5.675
X4.875Y-5.775
X4.875Y-5.875
X5.775Y-2.775
X5.775Y-2.875
X5.775Y-2.975
X5.775Y-3.075
X5.775Y-3.175
X5.775Y-3.275
X5.775Y-3.375
X5.775Y-3.475
X5.775Y-3.575
X5.775Y-3.675
X5.775Y-3.775
X5.775Y-3.875
X5.775Y-3.975
X5.775Y-4.075
X5.775Y-4.175
X5.775Y-4.275
X5.775Y-4.375
X5.775Y-4.475
X5.775Y-4.575
X5.775Y-4.675
X5.775Y-4.775
X5.775Y-4.875
X5.775Y-4.975
X5.775Y-5.075
X5.775Y-5.175
X5.775Y-5.275
X5.775Y-5.375
X5.775Y-5.475
X5.775Y-5.575
X5.775Y-5.675
X5.775Y-5.775
X5.775Y-5.875
T3
X6.075Y-2.4
X6.175Y-2.4
X6.275Y-2.4
X6.375Y-2.4
X4.4Y-6.05
X4.5Y-6.05
X4.6Y-6.05
X4.925Y-6.05
X5.025Y-6.05
X4.0445Y-1.4575
X4.0445Y-1.5575
X4.0445Y-2.5575
X4.0445Y-2.6575
X4.0445Y-2.7575
X4.0445Y-2.8575
X4.0445Y-2.9575
X4.0445Y-3.0575
X4.0445Y-3.1575
X4.0445Y-3.2575
X4.0445Y-3.3575
X4.0445Y-3.4575
X4.0445Y-3.5575
X4.0445Y-3.6575
X4.0445Y-3.7575
X4.0445Y-3.8575
X4.0445Y-3.9575
X4.0445Y-4.0575
X4.0445Y-4.1575
X4.0445Y-4.2575
X4.0445Y-4.3575
X4.0445Y-4.4575
X4.0445Y-4.5575
X4.0445Y-4.6575
X4.0445Y-4.7575
X4.0445Y-4.8575
X4.0445Y-4.9575
X4.0445Y-5.0575
X4.0445Y-5.1575
X4.0445Y-5.2575
X4.0445Y-5.3575
X4.0445Y-5.4575
X4.0445Y-5.5575
X4.0445Y-5.6575
X4.0445Y-5.7575
X4.0445Y-5.8575
X4.0445Y-5.9575
X4.0445Y-6.0575
X4.1445Y-2.5575
X4.1445Y-2.6575
X4.1445Y-2.7575
X4.1445Y-2.8575
X4.1445Y-2.9575
X4.1445Y-3.0575
X4.1445Y-3.1575
X4.1445Y-3.2575
X4.1445Y-3.3575
X4.1445Y-3.4575
X4.1445Y-3.5575
X4.1445Y-3.6575
X4.1445Y-3.7575
X4.1445Y-3.8575
X4.1445Y-3.9575
X4.1445Y-4.0575
X4.1445Y-4.1575
X4.1445Y-4.2575
X4.1445Y-4.3575
X4.1445Y-4.4575
X4.1445Y-4.5575
X4.1445Y-4.6575
X4.1445Y-4.7575
X4.1445Y-4.8575
X4.1445Y-4.9575
X4.1445Y-5.0575
X4.1445Y-5.1575
X4.1445Y-5.2575
X4.1445Y-5.3575
X4.1445Y-5.4575
X4.1445Y-5.5575
X4.1445Y-5.6575
X4.1445Y-5.7575
X4.1445Y-5.8575
X4.1445Y-5.9575
X4.1445Y-6.0575
X6.4445Y-2.5575
X6.4445Y-2.6575
X6.4445Y-2.7575
X6.4445Y-2.8575
X6.4445Y-2.9575
X6.4445Y-3.0575
X6.4445Y-3.1575
X6.4445Y-3.2575
X6.4445Y-3.3575
X6.4445Y-3.4575
X6.4445Y-3.5575
X6.4445Y-3.6575
X6.4445Y-3.7575
X6.4445Y-3.8575
X6.4445Y-3.9575
X6.4445Y-4.0575
X6.4445Y-4.1575
X6.4445Y-4.2575
X6.4445Y-4.3575
X6.4445Y-4.4575
X6.4445Y-4.5575
X6.4445Y-4.6575
X6.4445Y-4.7575
X6.4445Y-4.8575
X6.4445Y-4.9575
X6.4445Y-5.0575
X6.4445Y-5.1575
X6.4445Y-5.2575
X6.4445Y-5.3575
X6.4445Y-5.4575
X6.4445Y-5.5575
X6.4445Y-5.6575
X6.4445Y-5.7575
X6.4445Y-5.8575
X6.4445Y-5.9575
X6.4445Y-6.0575
X6.5445Y-1.4575
X6.5445Y-1.5575
X6.5445Y-2.5575
X6.5445Y-2.6575
X6.5445Y-2.7575
X6.5445Y-2.8575
X6.5445Y-2.9575
X6.5445Y-3.0575
X6.5445Y-3.1575
X6.5445Y-3.2575
X6.5445Y-3.3575
X6.5445Y-3.4575
X6.5445Y-3.5575
X6.5445Y-3.6575
X6.5445Y-3.7575
X6.5445Y-3.8575
X6.5445Y-3.9575
X6.5445Y-4.0575
X6.5445Y-4.1575
X6.5445Y-4.2575
X6.5445Y-4.3575
X6.5445Y-4.4575
X6.5445Y-4.5575
X6.5445Y-4.6575
X6.5445Y-4.7575
X6.5445Y-4.8575
X6.5445Y-4.9575
X6.5445Y-5.0575
X6.5445Y-5.1575
X6.5445Y-5.2575
X6.5445Y-5.3575
X6.5445Y-5.4575
X6.5445Y-5.5575
X6.5445Y-5.6575
X6.5445Y-5.7575
X6.5445Y-5.8575
X6.5445Y-5.9575
X6.5445Y-6.0575
T0
M30
