G04 #@! TF.GenerationSoftware,KiCad,Pcbnew,(5.1.5)-2*
G04 #@! TF.CreationDate,2020-04-04T15:42:32+11:00*
G04 #@! TF.ProjectId,M68K-Nucleo,4d36384b-2d4e-4756-936c-656f2e6b6963,rev?*
G04 #@! TF.SameCoordinates,Original*
G04 #@! TF.FileFunction,Legend,Top*
G04 #@! TF.FilePolarity,Positive*
%FSLAX46Y46*%
G04 Gerber Fmt 4.6, Leading zero omitted, Abs format (unit mm)*
G04 Created by KiCad (PCBNEW (5.1.5)-2) date 2020-04-04 15:42:32*
%MOMM*%
%LPD*%
G04 APERTURE LIST*
%ADD10C,0.120000*%
%ADD11C,0.150000*%
%ADD12C,1.802000*%
%ADD13C,0.100000*%
%ADD14O,1.802000X1.802000*%
%ADD15R,1.802000X1.802000*%
%ADD16O,2.502000X1.702000*%
%ADD17R,2.502000X1.702000*%
G04 APERTURE END LIST*
D10*
X151130000Y-71755000D02*
X149860000Y-71755000D01*
X148590000Y-71755000D02*
X151130000Y-71755000D01*
X149860000Y-71755000D02*
X148590000Y-71755000D01*
X149860000Y-73025000D02*
X149860000Y-71755000D01*
X150495000Y-84455000D02*
X149860000Y-84455000D01*
X149860000Y-85090000D02*
X150495000Y-84455000D01*
X149225000Y-84455000D02*
X149860000Y-85090000D01*
X149860000Y-84455000D02*
X149225000Y-84455000D01*
X149860000Y-82550000D02*
X149860000Y-84455000D01*
X161290000Y-82550000D02*
X160655000Y-82550000D01*
X160655000Y-83185000D02*
X161290000Y-82550000D01*
X160020000Y-82550000D02*
X160655000Y-83185000D01*
X160655000Y-82550000D02*
X160020000Y-82550000D01*
X160655000Y-81280000D02*
X160655000Y-82550000D01*
X161925000Y-69850000D02*
X160655000Y-69850000D01*
X159385000Y-69850000D02*
X161925000Y-69850000D01*
X160655000Y-69850000D02*
X159385000Y-69850000D01*
X160655000Y-71120000D02*
X160655000Y-69850000D01*
D11*
X157567380Y-79541190D02*
X157567380Y-78922142D01*
X157948333Y-79255476D01*
X157948333Y-79112619D01*
X157995952Y-79017380D01*
X158043571Y-78969761D01*
X158138809Y-78922142D01*
X158376904Y-78922142D01*
X158472142Y-78969761D01*
X158519761Y-79017380D01*
X158567380Y-79112619D01*
X158567380Y-79398333D01*
X158519761Y-79493571D01*
X158472142Y-79541190D01*
X158472142Y-78493571D02*
X158519761Y-78445952D01*
X158567380Y-78493571D01*
X158519761Y-78541190D01*
X158472142Y-78493571D01*
X158567380Y-78493571D01*
X157567380Y-78112619D02*
X157567380Y-77493571D01*
X157948333Y-77826904D01*
X157948333Y-77684047D01*
X157995952Y-77588809D01*
X158043571Y-77541190D01*
X158138809Y-77493571D01*
X158376904Y-77493571D01*
X158472142Y-77541190D01*
X158519761Y-77588809D01*
X158567380Y-77684047D01*
X158567380Y-77969761D01*
X158519761Y-78065000D01*
X158472142Y-78112619D01*
X157567380Y-77207857D02*
X158567380Y-76874523D01*
X157567380Y-76541190D01*
X158519761Y-75493571D02*
X158567380Y-75350714D01*
X158567380Y-75112619D01*
X158519761Y-75017380D01*
X158472142Y-74969761D01*
X158376904Y-74922142D01*
X158281666Y-74922142D01*
X158186428Y-74969761D01*
X158138809Y-75017380D01*
X158091190Y-75112619D01*
X158043571Y-75303095D01*
X157995952Y-75398333D01*
X157948333Y-75445952D01*
X157853095Y-75493571D01*
X157757857Y-75493571D01*
X157662619Y-75445952D01*
X157615000Y-75398333D01*
X157567380Y-75303095D01*
X157567380Y-75065000D01*
X157615000Y-74922142D01*
X157900714Y-74493571D02*
X158900714Y-74493571D01*
X157948333Y-74493571D02*
X157900714Y-74398333D01*
X157900714Y-74207857D01*
X157948333Y-74112619D01*
X157995952Y-74065000D01*
X158091190Y-74017380D01*
X158376904Y-74017380D01*
X158472142Y-74065000D01*
X158519761Y-74112619D01*
X158567380Y-74207857D01*
X158567380Y-74398333D01*
X158519761Y-74493571D01*
X158567380Y-73160238D02*
X158043571Y-73160238D01*
X157948333Y-73207857D01*
X157900714Y-73303095D01*
X157900714Y-73493571D01*
X157948333Y-73588809D01*
X158519761Y-73160238D02*
X158567380Y-73255476D01*
X158567380Y-73493571D01*
X158519761Y-73588809D01*
X158424523Y-73636428D01*
X158329285Y-73636428D01*
X158234047Y-73588809D01*
X158186428Y-73493571D01*
X158186428Y-73255476D01*
X158138809Y-73160238D01*
X158567380Y-72684047D02*
X157900714Y-72684047D01*
X158091190Y-72684047D02*
X157995952Y-72636428D01*
X157948333Y-72588809D01*
X157900714Y-72493571D01*
X157900714Y-72398333D01*
X158519761Y-71684047D02*
X158567380Y-71779285D01*
X158567380Y-71969761D01*
X158519761Y-72065000D01*
X158424523Y-72112619D01*
X158043571Y-72112619D01*
X157948333Y-72065000D01*
X157900714Y-71969761D01*
X157900714Y-71779285D01*
X157948333Y-71684047D01*
X158043571Y-71636428D01*
X158138809Y-71636428D01*
X158234047Y-72112619D01*
X151217380Y-81938333D02*
X152217380Y-81605000D01*
X151217380Y-81271666D01*
X152122142Y-80366904D02*
X152169761Y-80414523D01*
X152217380Y-80557380D01*
X152217380Y-80652619D01*
X152169761Y-80795476D01*
X152074523Y-80890714D01*
X151979285Y-80938333D01*
X151788809Y-80985952D01*
X151645952Y-80985952D01*
X151455476Y-80938333D01*
X151360238Y-80890714D01*
X151265000Y-80795476D01*
X151217380Y-80652619D01*
X151217380Y-80557380D01*
X151265000Y-80414523D01*
X151312619Y-80366904D01*
X152122142Y-79366904D02*
X152169761Y-79414523D01*
X152217380Y-79557380D01*
X152217380Y-79652619D01*
X152169761Y-79795476D01*
X152074523Y-79890714D01*
X151979285Y-79938333D01*
X151788809Y-79985952D01*
X151645952Y-79985952D01*
X151455476Y-79938333D01*
X151360238Y-79890714D01*
X151265000Y-79795476D01*
X151217380Y-79652619D01*
X151217380Y-79557380D01*
X151265000Y-79414523D01*
X151312619Y-79366904D01*
X152169761Y-78224047D02*
X152217380Y-78081190D01*
X152217380Y-77843095D01*
X152169761Y-77747857D01*
X152122142Y-77700238D01*
X152026904Y-77652619D01*
X151931666Y-77652619D01*
X151836428Y-77700238D01*
X151788809Y-77747857D01*
X151741190Y-77843095D01*
X151693571Y-78033571D01*
X151645952Y-78128809D01*
X151598333Y-78176428D01*
X151503095Y-78224047D01*
X151407857Y-78224047D01*
X151312619Y-78176428D01*
X151265000Y-78128809D01*
X151217380Y-78033571D01*
X151217380Y-77795476D01*
X151265000Y-77652619D01*
X151550714Y-77224047D02*
X152550714Y-77224047D01*
X151598333Y-77224047D02*
X151550714Y-77128809D01*
X151550714Y-76938333D01*
X151598333Y-76843095D01*
X151645952Y-76795476D01*
X151741190Y-76747857D01*
X152026904Y-76747857D01*
X152122142Y-76795476D01*
X152169761Y-76843095D01*
X152217380Y-76938333D01*
X152217380Y-77128809D01*
X152169761Y-77224047D01*
X152217380Y-75890714D02*
X151693571Y-75890714D01*
X151598333Y-75938333D01*
X151550714Y-76033571D01*
X151550714Y-76224047D01*
X151598333Y-76319285D01*
X152169761Y-75890714D02*
X152217380Y-75985952D01*
X152217380Y-76224047D01*
X152169761Y-76319285D01*
X152074523Y-76366904D01*
X151979285Y-76366904D01*
X151884047Y-76319285D01*
X151836428Y-76224047D01*
X151836428Y-75985952D01*
X151788809Y-75890714D01*
X152217380Y-75414523D02*
X151550714Y-75414523D01*
X151741190Y-75414523D02*
X151645952Y-75366904D01*
X151598333Y-75319285D01*
X151550714Y-75224047D01*
X151550714Y-75128809D01*
X152169761Y-74414523D02*
X152217380Y-74509761D01*
X152217380Y-74700238D01*
X152169761Y-74795476D01*
X152074523Y-74843095D01*
X151693571Y-74843095D01*
X151598333Y-74795476D01*
X151550714Y-74700238D01*
X151550714Y-74509761D01*
X151598333Y-74414523D01*
X151693571Y-74366904D01*
X151788809Y-74366904D01*
X151884047Y-74843095D01*
X154122619Y-68017380D02*
X154122619Y-67017380D01*
X154551190Y-67112619D02*
X154598809Y-67065000D01*
X154694047Y-67017380D01*
X154932142Y-67017380D01*
X155027380Y-67065000D01*
X155075000Y-67112619D01*
X155122619Y-67207857D01*
X155122619Y-67303095D01*
X155075000Y-67445952D01*
X154503571Y-68017380D01*
X155122619Y-68017380D01*
X156122619Y-67922142D02*
X156075000Y-67969761D01*
X155932142Y-68017380D01*
X155836904Y-68017380D01*
X155694047Y-67969761D01*
X155598809Y-67874523D01*
X155551190Y-67779285D01*
X155503571Y-67588809D01*
X155503571Y-67445952D01*
X155551190Y-67255476D01*
X155598809Y-67160238D01*
X155694047Y-67065000D01*
X155836904Y-67017380D01*
X155932142Y-67017380D01*
X156075000Y-67065000D01*
X156122619Y-67112619D01*
X157075000Y-68017380D02*
X156503571Y-68017380D01*
X156789285Y-68017380D02*
X156789285Y-67017380D01*
X156694047Y-67160238D01*
X156598809Y-67255476D01*
X156503571Y-67303095D01*
X155194047Y-69667380D02*
X155098809Y-69619761D01*
X155051190Y-69572142D01*
X155003571Y-69476904D01*
X155003571Y-69191190D01*
X155051190Y-69095952D01*
X155098809Y-69048333D01*
X155194047Y-69000714D01*
X155336904Y-69000714D01*
X155432142Y-69048333D01*
X155479761Y-69095952D01*
X155527380Y-69191190D01*
X155527380Y-69476904D01*
X155479761Y-69572142D01*
X155432142Y-69619761D01*
X155336904Y-69667380D01*
X155194047Y-69667380D01*
X155955952Y-69667380D02*
X155955952Y-69000714D01*
X155955952Y-69191190D02*
X156003571Y-69095952D01*
X156051190Y-69048333D01*
X156146428Y-69000714D01*
X156241666Y-69000714D01*
X154122619Y-71317380D02*
X154122619Y-70317380D01*
X154551190Y-70412619D02*
X154598809Y-70365000D01*
X154694047Y-70317380D01*
X154932142Y-70317380D01*
X155027380Y-70365000D01*
X155075000Y-70412619D01*
X155122619Y-70507857D01*
X155122619Y-70603095D01*
X155075000Y-70745952D01*
X154503571Y-71317380D01*
X155122619Y-71317380D01*
X156122619Y-71222142D02*
X156075000Y-71269761D01*
X155932142Y-71317380D01*
X155836904Y-71317380D01*
X155694047Y-71269761D01*
X155598809Y-71174523D01*
X155551190Y-71079285D01*
X155503571Y-70888809D01*
X155503571Y-70745952D01*
X155551190Y-70555476D01*
X155598809Y-70460238D01*
X155694047Y-70365000D01*
X155836904Y-70317380D01*
X155932142Y-70317380D01*
X156075000Y-70365000D01*
X156122619Y-70412619D01*
X156979761Y-70650714D02*
X156979761Y-71317380D01*
X156741666Y-70269761D02*
X156503571Y-70984047D01*
X157122619Y-70984047D01*
D10*
X154305000Y-66675000D02*
X153035000Y-65405000D01*
X161290000Y-66675000D02*
X154305000Y-66675000D01*
X162560000Y-65405000D02*
X161290000Y-66675000D01*
D11*
X161488500Y-64809571D02*
X161440880Y-64904809D01*
X161440880Y-65047667D01*
X161488500Y-65190524D01*
X161583738Y-65285762D01*
X161678976Y-65333381D01*
X161869452Y-65381000D01*
X162012309Y-65381000D01*
X162202785Y-65333381D01*
X162298023Y-65285762D01*
X162393261Y-65190524D01*
X162440880Y-65047667D01*
X162440880Y-64952428D01*
X162393261Y-64809571D01*
X162345642Y-64761952D01*
X162012309Y-64761952D01*
X162012309Y-64952428D01*
X162440880Y-64333381D02*
X161440880Y-64333381D01*
X162440880Y-63761952D01*
X161440880Y-63761952D01*
X162440880Y-63285762D02*
X161440880Y-63285762D01*
X161440880Y-63047667D01*
X161488500Y-62904809D01*
X161583738Y-62809571D01*
X161678976Y-62761952D01*
X161869452Y-62714333D01*
X162012309Y-62714333D01*
X162202785Y-62761952D01*
X162298023Y-62809571D01*
X162393261Y-62904809D01*
X162440880Y-63047667D01*
X162440880Y-63285762D01*
X159853261Y-65095286D02*
X159900880Y-64952429D01*
X159900880Y-64714333D01*
X159853261Y-64619095D01*
X159805642Y-64571476D01*
X159710404Y-64523857D01*
X159615166Y-64523857D01*
X159519928Y-64571476D01*
X159472309Y-64619095D01*
X159424690Y-64714333D01*
X159377071Y-64904810D01*
X159329452Y-65000048D01*
X159281833Y-65047667D01*
X159186595Y-65095286D01*
X159091357Y-65095286D01*
X158996119Y-65047667D01*
X158948500Y-65000048D01*
X158900880Y-64904810D01*
X158900880Y-64666714D01*
X158948500Y-64523857D01*
X159805642Y-63523857D02*
X159853261Y-63571476D01*
X159900880Y-63714333D01*
X159900880Y-63809571D01*
X159853261Y-63952429D01*
X159758023Y-64047667D01*
X159662785Y-64095286D01*
X159472309Y-64142905D01*
X159329452Y-64142905D01*
X159138976Y-64095286D01*
X159043738Y-64047667D01*
X158948500Y-63952429D01*
X158900880Y-63809571D01*
X158900880Y-63714333D01*
X158948500Y-63571476D01*
X158996119Y-63523857D01*
X159900880Y-62619095D02*
X159900880Y-63095286D01*
X158900880Y-63095286D01*
X157313261Y-65142904D02*
X157360880Y-65000047D01*
X157360880Y-64761952D01*
X157313261Y-64666714D01*
X157265642Y-64619095D01*
X157170404Y-64571476D01*
X157075166Y-64571476D01*
X156979928Y-64619095D01*
X156932309Y-64666714D01*
X156884690Y-64761952D01*
X156837071Y-64952428D01*
X156789452Y-65047666D01*
X156741833Y-65095285D01*
X156646595Y-65142904D01*
X156551357Y-65142904D01*
X156456119Y-65095285D01*
X156408500Y-65047666D01*
X156360880Y-64952428D01*
X156360880Y-64714333D01*
X156408500Y-64571476D01*
X157360880Y-64142904D02*
X156360880Y-64142904D01*
X156360880Y-63904809D01*
X156408500Y-63761952D01*
X156503738Y-63666714D01*
X156598976Y-63619095D01*
X156789452Y-63571476D01*
X156932309Y-63571476D01*
X157122785Y-63619095D01*
X157218023Y-63666714D01*
X157313261Y-63761952D01*
X157360880Y-63904809D01*
X157360880Y-64142904D01*
X157075166Y-63190523D02*
X157075166Y-62714333D01*
X157360880Y-63285761D02*
X156360880Y-62952428D01*
X157360880Y-62619095D01*
X153820880Y-65619095D02*
X153820880Y-65000047D01*
X154201833Y-65333381D01*
X154201833Y-65190524D01*
X154249452Y-65095285D01*
X154297071Y-65047666D01*
X154392309Y-65000047D01*
X154630404Y-65000047D01*
X154725642Y-65047666D01*
X154773261Y-65095285D01*
X154820880Y-65190524D01*
X154820880Y-65476238D01*
X154773261Y-65571476D01*
X154725642Y-65619095D01*
X154725642Y-64571476D02*
X154773261Y-64523857D01*
X154820880Y-64571476D01*
X154773261Y-64619095D01*
X154725642Y-64571476D01*
X154820880Y-64571476D01*
X153820880Y-64190524D02*
X153820880Y-63571476D01*
X154201833Y-63904809D01*
X154201833Y-63761952D01*
X154249452Y-63666714D01*
X154297071Y-63619095D01*
X154392309Y-63571476D01*
X154630404Y-63571476D01*
X154725642Y-63619095D01*
X154773261Y-63666714D01*
X154820880Y-63761952D01*
X154820880Y-64047666D01*
X154773261Y-64142905D01*
X154725642Y-64190524D01*
X153820880Y-63285762D02*
X154820880Y-62952428D01*
X153820880Y-62619095D01*
D10*
X144780000Y-154940000D02*
X143510000Y-156210000D01*
X142240000Y-154940000D02*
X144780000Y-154940000D01*
X143510000Y-156210000D02*
X142240000Y-154940000D01*
D11*
X141867142Y-152376666D02*
X142343333Y-152376666D01*
X141771904Y-152662380D02*
X142105238Y-151662380D01*
X142438571Y-152662380D01*
X142914761Y-152662380D02*
X142819523Y-152614761D01*
X142771904Y-152519523D01*
X142771904Y-151662380D01*
X143295714Y-152662380D02*
X143295714Y-151995714D01*
X143295714Y-151662380D02*
X143248095Y-151710000D01*
X143295714Y-151757619D01*
X143343333Y-151710000D01*
X143295714Y-151662380D01*
X143295714Y-151757619D01*
X144200476Y-151995714D02*
X144200476Y-152805238D01*
X144152857Y-152900476D01*
X144105238Y-152948095D01*
X144010000Y-152995714D01*
X143867142Y-152995714D01*
X143771904Y-152948095D01*
X144200476Y-152614761D02*
X144105238Y-152662380D01*
X143914761Y-152662380D01*
X143819523Y-152614761D01*
X143771904Y-152567142D01*
X143724285Y-152471904D01*
X143724285Y-152186190D01*
X143771904Y-152090952D01*
X143819523Y-152043333D01*
X143914761Y-151995714D01*
X144105238Y-151995714D01*
X144200476Y-152043333D01*
X144676666Y-151995714D02*
X144676666Y-152662380D01*
X144676666Y-152090952D02*
X144724285Y-152043333D01*
X144819523Y-151995714D01*
X144962380Y-151995714D01*
X145057619Y-152043333D01*
X145105238Y-152138571D01*
X145105238Y-152662380D01*
X140652857Y-153788571D02*
X140986190Y-153788571D01*
X141129047Y-154312380D02*
X140652857Y-154312380D01*
X140652857Y-153312380D01*
X141129047Y-153312380D01*
X141414761Y-153645714D02*
X141795714Y-153645714D01*
X141557619Y-153312380D02*
X141557619Y-154169523D01*
X141605238Y-154264761D01*
X141700476Y-154312380D01*
X141795714Y-154312380D01*
X142129047Y-154312380D02*
X142129047Y-153312380D01*
X142557619Y-154312380D02*
X142557619Y-153788571D01*
X142510000Y-153693333D01*
X142414761Y-153645714D01*
X142271904Y-153645714D01*
X142176666Y-153693333D01*
X142129047Y-153740952D01*
X143414761Y-154264761D02*
X143319523Y-154312380D01*
X143129047Y-154312380D01*
X143033809Y-154264761D01*
X142986190Y-154169523D01*
X142986190Y-153788571D01*
X143033809Y-153693333D01*
X143129047Y-153645714D01*
X143319523Y-153645714D01*
X143414761Y-153693333D01*
X143462380Y-153788571D01*
X143462380Y-153883809D01*
X142986190Y-153979047D01*
X143890952Y-154312380D02*
X143890952Y-153645714D01*
X143890952Y-153836190D02*
X143938571Y-153740952D01*
X143986190Y-153693333D01*
X144081428Y-153645714D01*
X144176666Y-153645714D01*
X144510000Y-153645714D02*
X144510000Y-154312380D01*
X144510000Y-153740952D02*
X144557619Y-153693333D01*
X144652857Y-153645714D01*
X144795714Y-153645714D01*
X144890952Y-153693333D01*
X144938571Y-153788571D01*
X144938571Y-154312380D01*
X145795714Y-154264761D02*
X145700476Y-154312380D01*
X145510000Y-154312380D01*
X145414761Y-154264761D01*
X145367142Y-154169523D01*
X145367142Y-153788571D01*
X145414761Y-153693333D01*
X145510000Y-153645714D01*
X145700476Y-153645714D01*
X145795714Y-153693333D01*
X145843333Y-153788571D01*
X145843333Y-153883809D01*
X145367142Y-153979047D01*
X146129047Y-153645714D02*
X146510000Y-153645714D01*
X146271904Y-153312380D02*
X146271904Y-154169523D01*
X146319523Y-154264761D01*
X146414761Y-154312380D01*
X146510000Y-154312380D01*
X132040714Y-71572380D02*
X132040714Y-70572380D01*
X132374047Y-71286666D01*
X132707380Y-70572380D01*
X132707380Y-71572380D01*
X133755000Y-71477142D02*
X133707380Y-71524761D01*
X133564523Y-71572380D01*
X133469285Y-71572380D01*
X133326428Y-71524761D01*
X133231190Y-71429523D01*
X133183571Y-71334285D01*
X133135952Y-71143809D01*
X133135952Y-71000952D01*
X133183571Y-70810476D01*
X133231190Y-70715238D01*
X133326428Y-70620000D01*
X133469285Y-70572380D01*
X133564523Y-70572380D01*
X133707380Y-70620000D01*
X133755000Y-70667619D01*
X134612142Y-70572380D02*
X134421666Y-70572380D01*
X134326428Y-70620000D01*
X134278809Y-70667619D01*
X134183571Y-70810476D01*
X134135952Y-71000952D01*
X134135952Y-71381904D01*
X134183571Y-71477142D01*
X134231190Y-71524761D01*
X134326428Y-71572380D01*
X134516904Y-71572380D01*
X134612142Y-71524761D01*
X134659761Y-71477142D01*
X134707380Y-71381904D01*
X134707380Y-71143809D01*
X134659761Y-71048571D01*
X134612142Y-71000952D01*
X134516904Y-70953333D01*
X134326428Y-70953333D01*
X134231190Y-71000952D01*
X134183571Y-71048571D01*
X134135952Y-71143809D01*
X135278809Y-71000952D02*
X135183571Y-70953333D01*
X135135952Y-70905714D01*
X135088333Y-70810476D01*
X135088333Y-70762857D01*
X135135952Y-70667619D01*
X135183571Y-70620000D01*
X135278809Y-70572380D01*
X135469285Y-70572380D01*
X135564523Y-70620000D01*
X135612142Y-70667619D01*
X135659761Y-70762857D01*
X135659761Y-70810476D01*
X135612142Y-70905714D01*
X135564523Y-70953333D01*
X135469285Y-71000952D01*
X135278809Y-71000952D01*
X135183571Y-71048571D01*
X135135952Y-71096190D01*
X135088333Y-71191428D01*
X135088333Y-71381904D01*
X135135952Y-71477142D01*
X135183571Y-71524761D01*
X135278809Y-71572380D01*
X135469285Y-71572380D01*
X135564523Y-71524761D01*
X135612142Y-71477142D01*
X135659761Y-71381904D01*
X135659761Y-71191428D01*
X135612142Y-71096190D01*
X135564523Y-71048571D01*
X135469285Y-71000952D01*
X136278809Y-70572380D02*
X136374047Y-70572380D01*
X136469285Y-70620000D01*
X136516904Y-70667619D01*
X136564523Y-70762857D01*
X136612142Y-70953333D01*
X136612142Y-71191428D01*
X136564523Y-71381904D01*
X136516904Y-71477142D01*
X136469285Y-71524761D01*
X136374047Y-71572380D01*
X136278809Y-71572380D01*
X136183571Y-71524761D01*
X136135952Y-71477142D01*
X136088333Y-71381904D01*
X136040714Y-71191428D01*
X136040714Y-70953333D01*
X136088333Y-70762857D01*
X136135952Y-70667619D01*
X136183571Y-70620000D01*
X136278809Y-70572380D01*
X137231190Y-70572380D02*
X137326428Y-70572380D01*
X137421666Y-70620000D01*
X137469285Y-70667619D01*
X137516904Y-70762857D01*
X137564523Y-70953333D01*
X137564523Y-71191428D01*
X137516904Y-71381904D01*
X137469285Y-71477142D01*
X137421666Y-71524761D01*
X137326428Y-71572380D01*
X137231190Y-71572380D01*
X137135952Y-71524761D01*
X137088333Y-71477142D01*
X137040714Y-71381904D01*
X136993095Y-71191428D01*
X136993095Y-70953333D01*
X137040714Y-70762857D01*
X137088333Y-70667619D01*
X137135952Y-70620000D01*
X137231190Y-70572380D01*
X138183571Y-70572380D02*
X138278809Y-70572380D01*
X138374047Y-70620000D01*
X138421666Y-70667619D01*
X138469285Y-70762857D01*
X138516904Y-70953333D01*
X138516904Y-71191428D01*
X138469285Y-71381904D01*
X138421666Y-71477142D01*
X138374047Y-71524761D01*
X138278809Y-71572380D01*
X138183571Y-71572380D01*
X138088333Y-71524761D01*
X138040714Y-71477142D01*
X137993095Y-71381904D01*
X137945476Y-71191428D01*
X137945476Y-70953333D01*
X137993095Y-70762857D01*
X138040714Y-70667619D01*
X138088333Y-70620000D01*
X138183571Y-70572380D01*
X130865000Y-155344857D02*
X130912619Y-155297238D01*
X131055476Y-155249619D01*
X131150714Y-155249619D01*
X131293571Y-155297238D01*
X131388809Y-155392476D01*
X131436428Y-155487714D01*
X131484047Y-155678190D01*
X131484047Y-155821047D01*
X131436428Y-156011523D01*
X131388809Y-156106761D01*
X131293571Y-156202000D01*
X131150714Y-156249619D01*
X131055476Y-156249619D01*
X130912619Y-156202000D01*
X130865000Y-156154380D01*
X130007857Y-155916285D02*
X130007857Y-155249619D01*
X130436428Y-155916285D02*
X130436428Y-155392476D01*
X130388809Y-155297238D01*
X130293571Y-155249619D01*
X130150714Y-155249619D01*
X130055476Y-155297238D01*
X130007857Y-155344857D01*
X129531666Y-155249619D02*
X129531666Y-155916285D01*
X129531666Y-155725809D02*
X129484047Y-155821047D01*
X129436428Y-155868666D01*
X129341190Y-155916285D01*
X129245952Y-155916285D01*
X128912619Y-155249619D02*
X128912619Y-155916285D01*
X128912619Y-155725809D02*
X128865000Y-155821047D01*
X128817380Y-155868666D01*
X128722142Y-155916285D01*
X128626904Y-155916285D01*
X127912619Y-155297238D02*
X128007857Y-155249619D01*
X128198333Y-155249619D01*
X128293571Y-155297238D01*
X128341190Y-155392476D01*
X128341190Y-155773428D01*
X128293571Y-155868666D01*
X128198333Y-155916285D01*
X128007857Y-155916285D01*
X127912619Y-155868666D01*
X127865000Y-155773428D01*
X127865000Y-155678190D01*
X128341190Y-155582952D01*
X127436428Y-155916285D02*
X127436428Y-155249619D01*
X127436428Y-155821047D02*
X127388809Y-155868666D01*
X127293571Y-155916285D01*
X127150714Y-155916285D01*
X127055476Y-155868666D01*
X127007857Y-155773428D01*
X127007857Y-155249619D01*
X126674523Y-155916285D02*
X126293571Y-155916285D01*
X126531666Y-156249619D02*
X126531666Y-155392476D01*
X126484047Y-155297238D01*
X126388809Y-155249619D01*
X126293571Y-155249619D01*
X125245952Y-155297238D02*
X125103095Y-155249619D01*
X124865000Y-155249619D01*
X124769761Y-155297238D01*
X124722142Y-155344857D01*
X124674523Y-155440095D01*
X124674523Y-155535333D01*
X124722142Y-155630571D01*
X124769761Y-155678190D01*
X124865000Y-155725809D01*
X125055476Y-155773428D01*
X125150714Y-155821047D01*
X125198333Y-155868666D01*
X125245952Y-155963904D01*
X125245952Y-156059142D01*
X125198333Y-156154380D01*
X125150714Y-156202000D01*
X125055476Y-156249619D01*
X124817380Y-156249619D01*
X124674523Y-156202000D01*
X123865000Y-155297238D02*
X123960238Y-155249619D01*
X124150714Y-155249619D01*
X124245952Y-155297238D01*
X124293571Y-155392476D01*
X124293571Y-155773428D01*
X124245952Y-155868666D01*
X124150714Y-155916285D01*
X123960238Y-155916285D01*
X123865000Y-155868666D01*
X123817380Y-155773428D01*
X123817380Y-155678190D01*
X124293571Y-155582952D01*
X123388809Y-155916285D02*
X123388809Y-155249619D01*
X123388809Y-155821047D02*
X123341190Y-155868666D01*
X123245952Y-155916285D01*
X123103095Y-155916285D01*
X123007857Y-155868666D01*
X122960238Y-155773428D01*
X122960238Y-155249619D01*
X122531666Y-155297238D02*
X122436428Y-155249619D01*
X122245952Y-155249619D01*
X122150714Y-155297238D01*
X122103095Y-155392476D01*
X122103095Y-155440095D01*
X122150714Y-155535333D01*
X122245952Y-155582952D01*
X122388809Y-155582952D01*
X122484047Y-155630571D01*
X122531666Y-155725809D01*
X122531666Y-155773428D01*
X122484047Y-155868666D01*
X122388809Y-155916285D01*
X122245952Y-155916285D01*
X122150714Y-155868666D01*
X121293571Y-155297238D02*
X121388809Y-155249619D01*
X121579285Y-155249619D01*
X121674523Y-155297238D01*
X121722142Y-155392476D01*
X121722142Y-155773428D01*
X121674523Y-155868666D01*
X121579285Y-155916285D01*
X121388809Y-155916285D01*
X121293571Y-155868666D01*
X121245952Y-155773428D01*
X121245952Y-155678190D01*
X121722142Y-155582952D01*
X116292380Y-151851667D02*
X116292380Y-151232619D01*
X116673333Y-151565953D01*
X116673333Y-151423096D01*
X116720952Y-151327857D01*
X116768571Y-151280238D01*
X116863809Y-151232619D01*
X117101904Y-151232619D01*
X117197142Y-151280238D01*
X117244761Y-151327857D01*
X117292380Y-151423096D01*
X117292380Y-151708810D01*
X117244761Y-151804048D01*
X117197142Y-151851667D01*
X117197142Y-150804048D02*
X117244761Y-150756429D01*
X117292380Y-150804048D01*
X117244761Y-150851667D01*
X117197142Y-150804048D01*
X117292380Y-150804048D01*
X116292380Y-150423096D02*
X116292380Y-149804048D01*
X116673333Y-150137381D01*
X116673333Y-149994524D01*
X116720952Y-149899286D01*
X116768571Y-149851667D01*
X116863809Y-149804048D01*
X117101904Y-149804048D01*
X117197142Y-149851667D01*
X117244761Y-149899286D01*
X117292380Y-149994524D01*
X117292380Y-150280238D01*
X117244761Y-150375477D01*
X117197142Y-150423096D01*
X116292380Y-149518334D02*
X117292380Y-149185000D01*
X116292380Y-148851667D01*
X114752380Y-151756429D02*
X113752380Y-151756429D01*
X114466666Y-151423095D01*
X113752380Y-151089762D01*
X114752380Y-151089762D01*
X113752380Y-150185000D02*
X113752380Y-150375476D01*
X113800000Y-150470714D01*
X113847619Y-150518333D01*
X113990476Y-150613571D01*
X114180952Y-150661191D01*
X114561904Y-150661191D01*
X114657142Y-150613571D01*
X114704761Y-150565952D01*
X114752380Y-150470714D01*
X114752380Y-150280238D01*
X114704761Y-150185000D01*
X114657142Y-150137381D01*
X114561904Y-150089762D01*
X114323809Y-150089762D01*
X114228571Y-150137381D01*
X114180952Y-150185000D01*
X114133333Y-150280238D01*
X114133333Y-150470714D01*
X114180952Y-150565952D01*
X114228571Y-150613571D01*
X114323809Y-150661191D01*
X114180952Y-149518333D02*
X114133333Y-149613571D01*
X114085714Y-149661191D01*
X113990476Y-149708810D01*
X113942857Y-149708810D01*
X113847619Y-149661191D01*
X113800000Y-149613571D01*
X113752380Y-149518333D01*
X113752380Y-149327857D01*
X113800000Y-149232619D01*
X113847619Y-149185000D01*
X113942857Y-149137381D01*
X113990476Y-149137381D01*
X114085714Y-149185000D01*
X114133333Y-149232619D01*
X114180952Y-149327857D01*
X114180952Y-149518333D01*
X114228571Y-149613571D01*
X114276190Y-149661191D01*
X114371428Y-149708810D01*
X114561904Y-149708810D01*
X114657142Y-149661191D01*
X114704761Y-149613571D01*
X114752380Y-149518333D01*
X114752380Y-149327857D01*
X114704761Y-149232619D01*
X114657142Y-149185000D01*
X114561904Y-149137381D01*
X114371428Y-149137381D01*
X114276190Y-149185000D01*
X114228571Y-149232619D01*
X114180952Y-149327857D01*
X114752380Y-148708810D02*
X113752380Y-148708810D01*
X114752380Y-148137381D02*
X114180952Y-148565952D01*
X113752380Y-148137381D02*
X114323809Y-148708810D01*
X113752380Y-147089762D02*
X114752380Y-146756429D01*
X113752380Y-146423095D01*
X114657142Y-145518333D02*
X114704761Y-145565952D01*
X114752380Y-145708810D01*
X114752380Y-145804048D01*
X114704761Y-145946905D01*
X114609523Y-146042143D01*
X114514285Y-146089762D01*
X114323809Y-146137381D01*
X114180952Y-146137381D01*
X113990476Y-146089762D01*
X113895238Y-146042143D01*
X113800000Y-145946905D01*
X113752380Y-145804048D01*
X113752380Y-145708810D01*
X113800000Y-145565952D01*
X113847619Y-145518333D01*
X114657142Y-144518333D02*
X114704761Y-144565952D01*
X114752380Y-144708810D01*
X114752380Y-144804048D01*
X114704761Y-144946905D01*
X114609523Y-145042143D01*
X114514285Y-145089762D01*
X114323809Y-145137381D01*
X114180952Y-145137381D01*
X113990476Y-145089762D01*
X113895238Y-145042143D01*
X113800000Y-144946905D01*
X113752380Y-144804048D01*
X113752380Y-144708810D01*
X113800000Y-144565952D01*
X113847619Y-144518333D01*
X111212380Y-151280238D02*
X111212380Y-151756428D01*
X111688571Y-151804047D01*
X111640952Y-151756428D01*
X111593333Y-151661190D01*
X111593333Y-151423095D01*
X111640952Y-151327857D01*
X111688571Y-151280238D01*
X111783809Y-151232619D01*
X112021904Y-151232619D01*
X112117142Y-151280238D01*
X112164761Y-151327857D01*
X112212380Y-151423095D01*
X112212380Y-151661190D01*
X112164761Y-151756428D01*
X112117142Y-151804047D01*
X111212380Y-150946904D02*
X112212380Y-150613571D01*
X111212380Y-150280238D01*
D10*
X114935000Y-120015000D02*
X114300000Y-120015000D01*
X114300000Y-120650000D02*
X114935000Y-120015000D01*
X113665000Y-120015000D02*
X114300000Y-120650000D01*
X114300000Y-120015000D02*
X113665000Y-120015000D01*
X114300000Y-118745000D02*
X114300000Y-120015000D01*
X113030000Y-107315000D02*
X115570000Y-107315000D01*
X114300000Y-107315000D02*
X113030000Y-107315000D01*
X114300000Y-108585000D02*
X114300000Y-107315000D01*
D11*
X112212380Y-115117380D02*
X111736190Y-115450714D01*
X112212380Y-115688809D02*
X111212380Y-115688809D01*
X111212380Y-115307857D01*
X111260000Y-115212619D01*
X111307619Y-115165000D01*
X111402857Y-115117380D01*
X111545714Y-115117380D01*
X111640952Y-115165000D01*
X111688571Y-115212619D01*
X111736190Y-115307857D01*
X111736190Y-115688809D01*
X111688571Y-114688809D02*
X111688571Y-114355476D01*
X112212380Y-114212619D02*
X112212380Y-114688809D01*
X111212380Y-114688809D01*
X111212380Y-114212619D01*
X112164761Y-113831666D02*
X112212380Y-113688809D01*
X112212380Y-113450714D01*
X112164761Y-113355476D01*
X112117142Y-113307857D01*
X112021904Y-113260238D01*
X111926666Y-113260238D01*
X111831428Y-113307857D01*
X111783809Y-113355476D01*
X111736190Y-113450714D01*
X111688571Y-113641190D01*
X111640952Y-113736428D01*
X111593333Y-113784047D01*
X111498095Y-113831666D01*
X111402857Y-113831666D01*
X111307619Y-113784047D01*
X111260000Y-113736428D01*
X111212380Y-113641190D01*
X111212380Y-113403095D01*
X111260000Y-113260238D01*
X111688571Y-112831666D02*
X111688571Y-112498333D01*
X112212380Y-112355476D02*
X112212380Y-112831666D01*
X111212380Y-112831666D01*
X111212380Y-112355476D01*
X111212380Y-112069761D02*
X111212380Y-111498333D01*
X112212380Y-111784047D02*
X111212380Y-111784047D01*
D10*
X169180000Y-166720000D02*
G75*
G03X169580000Y-166320000I0J400000D01*
G01*
X99380000Y-166320000D02*
G75*
G03X99780000Y-166720000I400000J0D01*
G01*
X99780000Y-33120000D02*
G75*
G03X99380000Y-33520000I0J-400000D01*
G01*
X169580000Y-33520000D02*
G75*
G03X169180000Y-33120000I-400000J0D01*
G01*
X152590000Y-33120000D02*
X169180000Y-33120000D01*
X152590000Y-31610000D02*
X152590000Y-33120000D01*
X144370000Y-31610000D02*
X152590000Y-31610000D01*
X144370000Y-33120000D02*
X144370000Y-31610000D01*
X119590000Y-168230000D02*
X119590000Y-166710000D01*
X111370000Y-168230000D02*
X119590000Y-168230000D01*
X111370000Y-166720000D02*
X111370000Y-168230000D01*
X136770000Y-166720000D02*
X119590000Y-166710000D01*
X111370000Y-166720000D02*
X99780000Y-166720000D01*
X136770000Y-169170000D02*
X136770000Y-166720000D01*
X150990000Y-169170000D02*
X136770000Y-169170000D01*
X150990000Y-166720000D02*
X150990000Y-169170000D01*
X99380000Y-33520000D02*
X99380000Y-166320000D01*
X144370000Y-33120000D02*
X99780000Y-33120000D01*
X169580000Y-166320000D02*
X169580000Y-33520000D01*
X150990000Y-166720000D02*
X169180000Y-166720000D01*
X159745000Y-78137936D02*
X159745000Y-79342064D01*
X161565000Y-78137936D02*
X161565000Y-79342064D01*
X159745000Y-73057936D02*
X159745000Y-74262064D01*
X161565000Y-73057936D02*
X161565000Y-74262064D01*
X148950000Y-79661936D02*
X148950000Y-80866064D01*
X150770000Y-79661936D02*
X150770000Y-80866064D01*
X148950000Y-74962936D02*
X148950000Y-76167064D01*
X150770000Y-74962936D02*
X150770000Y-76167064D01*
X152975000Y-62290000D02*
X152975000Y-60960000D01*
X154305000Y-62290000D02*
X152975000Y-62290000D01*
X155575000Y-62290000D02*
X155575000Y-59630000D01*
X155575000Y-59630000D02*
X163255000Y-59630000D01*
X155575000Y-62290000D02*
X163255000Y-62290000D01*
X163255000Y-62290000D02*
X163255000Y-59630000D01*
X148125000Y-69095000D02*
X122385000Y-69095000D01*
X148125000Y-150615000D02*
X148125000Y-69095000D01*
X122385000Y-150615000D02*
X148125000Y-150615000D01*
X122385000Y-69095000D02*
X122385000Y-150615000D01*
X145125000Y-69155000D02*
X136255000Y-69155000D01*
X145125000Y-150555000D02*
X145125000Y-69155000D01*
X125385000Y-150555000D02*
X145125000Y-150555000D01*
X125385000Y-69155000D02*
X125385000Y-150555000D01*
X134255000Y-69155000D02*
X125385000Y-69155000D01*
X136255000Y-69155000D02*
G75*
G02X134255000Y-69155000I-1000000J0D01*
G01*
X113390000Y-115602936D02*
X113390000Y-116807064D01*
X115210000Y-115602936D02*
X115210000Y-116807064D01*
X113390000Y-110417936D02*
X113390000Y-111622064D01*
X115210000Y-110417936D02*
X115210000Y-111622064D01*
X148950000Y-109252936D02*
X148950000Y-110457064D01*
X150770000Y-109252936D02*
X150770000Y-110457064D01*
X121560000Y-102837064D02*
X121560000Y-101632936D01*
X119740000Y-102837064D02*
X119740000Y-101632936D01*
X123765000Y-155000000D02*
X123765000Y-153670000D01*
X125095000Y-155000000D02*
X123765000Y-155000000D01*
X126365000Y-155000000D02*
X126365000Y-152340000D01*
X126365000Y-152340000D02*
X128965000Y-152340000D01*
X126365000Y-155000000D02*
X128965000Y-155000000D01*
X128965000Y-155000000D02*
X128965000Y-152340000D01*
X110430000Y-155000000D02*
X110430000Y-153670000D01*
X111760000Y-155000000D02*
X110430000Y-155000000D01*
X113030000Y-155000000D02*
X113030000Y-152340000D01*
X113030000Y-152340000D02*
X118170000Y-152340000D01*
X113030000Y-155000000D02*
X118170000Y-155000000D01*
X118170000Y-155000000D02*
X118170000Y-152340000D01*
D11*
X133718095Y-27582380D02*
X133718095Y-28391904D01*
X133765714Y-28487142D01*
X133813333Y-28534761D01*
X133908571Y-28582380D01*
X134099047Y-28582380D01*
X134194285Y-28534761D01*
X134241904Y-28487142D01*
X134289523Y-28391904D01*
X134289523Y-27582380D01*
X134718095Y-27677619D02*
X134765714Y-27630000D01*
X134860952Y-27582380D01*
X135099047Y-27582380D01*
X135194285Y-27630000D01*
X135241904Y-27677619D01*
X135289523Y-27772857D01*
X135289523Y-27868095D01*
X135241904Y-28010952D01*
X134670476Y-28582380D01*
X135289523Y-28582380D01*
X151427380Y-61293333D02*
X152141666Y-61293333D01*
X152284523Y-61340952D01*
X152379761Y-61436190D01*
X152427380Y-61579047D01*
X152427380Y-61674285D01*
X151427380Y-60912380D02*
X151427380Y-60293333D01*
X151808333Y-60626666D01*
X151808333Y-60483809D01*
X151855952Y-60388571D01*
X151903571Y-60340952D01*
X151998809Y-60293333D01*
X152236904Y-60293333D01*
X152332142Y-60340952D01*
X152379761Y-60388571D01*
X152427380Y-60483809D01*
X152427380Y-60769523D01*
X152379761Y-60864761D01*
X152332142Y-60912380D01*
X134493095Y-67607380D02*
X134493095Y-68416904D01*
X134540714Y-68512142D01*
X134588333Y-68559761D01*
X134683571Y-68607380D01*
X134874047Y-68607380D01*
X134969285Y-68559761D01*
X135016904Y-68512142D01*
X135064523Y-68416904D01*
X135064523Y-67607380D01*
X136064523Y-68607380D02*
X135493095Y-68607380D01*
X135778809Y-68607380D02*
X135778809Y-67607380D01*
X135683571Y-67750238D01*
X135588333Y-67845476D01*
X135493095Y-67893095D01*
X116572380Y-116371666D02*
X116096190Y-116705000D01*
X116572380Y-116943095D02*
X115572380Y-116943095D01*
X115572380Y-116562142D01*
X115620000Y-116466904D01*
X115667619Y-116419285D01*
X115762857Y-116371666D01*
X115905714Y-116371666D01*
X116000952Y-116419285D01*
X116048571Y-116466904D01*
X116096190Y-116562142D01*
X116096190Y-116943095D01*
X115667619Y-115990714D02*
X115620000Y-115943095D01*
X115572380Y-115847857D01*
X115572380Y-115609761D01*
X115620000Y-115514523D01*
X115667619Y-115466904D01*
X115762857Y-115419285D01*
X115858095Y-115419285D01*
X116000952Y-115466904D01*
X116572380Y-116038333D01*
X116572380Y-115419285D01*
X116572380Y-111186666D02*
X116096190Y-111520000D01*
X116572380Y-111758095D02*
X115572380Y-111758095D01*
X115572380Y-111377142D01*
X115620000Y-111281904D01*
X115667619Y-111234285D01*
X115762857Y-111186666D01*
X115905714Y-111186666D01*
X116000952Y-111234285D01*
X116048571Y-111281904D01*
X116096190Y-111377142D01*
X116096190Y-111758095D01*
X116572380Y-110234285D02*
X116572380Y-110805714D01*
X116572380Y-110520000D02*
X115572380Y-110520000D01*
X115715238Y-110615238D01*
X115810476Y-110710476D01*
X115858095Y-110805714D01*
X152037142Y-110021666D02*
X152084761Y-110069285D01*
X152132380Y-110212142D01*
X152132380Y-110307380D01*
X152084761Y-110450238D01*
X151989523Y-110545476D01*
X151894285Y-110593095D01*
X151703809Y-110640714D01*
X151560952Y-110640714D01*
X151370476Y-110593095D01*
X151275238Y-110545476D01*
X151180000Y-110450238D01*
X151132380Y-110307380D01*
X151132380Y-110212142D01*
X151180000Y-110069285D01*
X151227619Y-110021666D01*
X151132380Y-109688333D02*
X151132380Y-109069285D01*
X151513333Y-109402619D01*
X151513333Y-109259761D01*
X151560952Y-109164523D01*
X151608571Y-109116904D01*
X151703809Y-109069285D01*
X151941904Y-109069285D01*
X152037142Y-109116904D01*
X152084761Y-109164523D01*
X152132380Y-109259761D01*
X152132380Y-109545476D01*
X152084761Y-109640714D01*
X152037142Y-109688333D01*
X119187142Y-102401666D02*
X119234761Y-102449285D01*
X119282380Y-102592142D01*
X119282380Y-102687380D01*
X119234761Y-102830238D01*
X119139523Y-102925476D01*
X119044285Y-102973095D01*
X118853809Y-103020714D01*
X118710952Y-103020714D01*
X118520476Y-102973095D01*
X118425238Y-102925476D01*
X118330000Y-102830238D01*
X118282380Y-102687380D01*
X118282380Y-102592142D01*
X118330000Y-102449285D01*
X118377619Y-102401666D01*
X119282380Y-101449285D02*
X119282380Y-102020714D01*
X119282380Y-101735000D02*
X118282380Y-101735000D01*
X118425238Y-101830238D01*
X118520476Y-101925476D01*
X118568095Y-102020714D01*
X122217380Y-154003333D02*
X122931666Y-154003333D01*
X123074523Y-154050952D01*
X123169761Y-154146190D01*
X123217380Y-154289047D01*
X123217380Y-154384285D01*
X122312619Y-153574761D02*
X122265000Y-153527142D01*
X122217380Y-153431904D01*
X122217380Y-153193809D01*
X122265000Y-153098571D01*
X122312619Y-153050952D01*
X122407857Y-153003333D01*
X122503095Y-153003333D01*
X122645952Y-153050952D01*
X123217380Y-153622380D01*
X123217380Y-153003333D01*
%LPC*%
D12*
X166230000Y-39560000D03*
X166230000Y-37020000D03*
X102730000Y-39560000D03*
X102730000Y-37020000D03*
X166230000Y-153860000D03*
X163690000Y-153860000D03*
X166230000Y-151320000D03*
X163690000Y-151320000D03*
X166230000Y-148780000D03*
X163690000Y-148780000D03*
X166230000Y-146240000D03*
X163690000Y-146240000D03*
X166230000Y-143700000D03*
X163690000Y-143700000D03*
X166230000Y-141160000D03*
X163690000Y-141160000D03*
X166230000Y-138620000D03*
X163690000Y-138620000D03*
X166230000Y-136080000D03*
X163690000Y-136080000D03*
X166230000Y-133540000D03*
X163690000Y-133540000D03*
X166230000Y-131000000D03*
X163690000Y-131000000D03*
X166230000Y-128460000D03*
X163690000Y-128460000D03*
X166230000Y-125920000D03*
X163690000Y-125920000D03*
X166230000Y-123380000D03*
X163690000Y-123380000D03*
X166230000Y-120840000D03*
X163690000Y-120840000D03*
X166230000Y-118300000D03*
X163690000Y-118300000D03*
X166230000Y-115760000D03*
X163690000Y-115760000D03*
X166230000Y-113220000D03*
X163690000Y-113220000D03*
X166230000Y-110680000D03*
X163690000Y-110680000D03*
X166230000Y-108140000D03*
X163690000Y-108140000D03*
X166230000Y-105600000D03*
X163690000Y-105600000D03*
X166230000Y-103060000D03*
X163690000Y-103060000D03*
X166230000Y-100520000D03*
X163690000Y-100520000D03*
X166230000Y-97980000D03*
X163690000Y-97980000D03*
X166230000Y-95440000D03*
X163690000Y-95440000D03*
X166230000Y-92900000D03*
X163690000Y-92900000D03*
X166230000Y-90360000D03*
X163690000Y-90360000D03*
X166230000Y-87820000D03*
X163690000Y-87820000D03*
X166230000Y-85280000D03*
X163690000Y-85280000D03*
X166230000Y-82740000D03*
X163690000Y-82740000D03*
X166230000Y-80200000D03*
X163690000Y-80200000D03*
X166230000Y-77660000D03*
X163690000Y-77660000D03*
X166230000Y-75120000D03*
X163690000Y-75120000D03*
X166230000Y-72580000D03*
X163690000Y-72580000D03*
X166230000Y-70040000D03*
X163690000Y-70040000D03*
X166230000Y-67500000D03*
X163690000Y-67500000D03*
X166230000Y-64960000D03*
X163690000Y-64960000D03*
X105270000Y-153860000D03*
X102730000Y-153860000D03*
X105270000Y-151320000D03*
X102730000Y-151320000D03*
X105270000Y-148780000D03*
X102730000Y-148780000D03*
X105270000Y-146240000D03*
X102730000Y-146240000D03*
X105270000Y-143700000D03*
X102730000Y-143700000D03*
X105270000Y-141160000D03*
X102730000Y-141160000D03*
X105270000Y-138620000D03*
X102730000Y-138620000D03*
X105270000Y-136080000D03*
X102730000Y-136080000D03*
X105270000Y-133540000D03*
X102730000Y-133540000D03*
X105270000Y-131000000D03*
X102730000Y-131000000D03*
X105270000Y-128460000D03*
X102730000Y-128460000D03*
X105270000Y-125920000D03*
X102730000Y-125920000D03*
X105270000Y-123380000D03*
X102730000Y-123380000D03*
X105270000Y-120840000D03*
X102730000Y-120840000D03*
X105270000Y-118300000D03*
X102730000Y-118300000D03*
X105270000Y-115760000D03*
X102730000Y-115760000D03*
X105270000Y-113220000D03*
X102730000Y-113220000D03*
X105270000Y-110680000D03*
X102730000Y-110680000D03*
X105270000Y-108140000D03*
X102730000Y-108140000D03*
X105270000Y-105600000D03*
X102730000Y-105600000D03*
X105270000Y-103060000D03*
X102730000Y-103060000D03*
X105270000Y-100520000D03*
X102730000Y-100520000D03*
X105270000Y-97980000D03*
X102730000Y-97980000D03*
X105270000Y-95440000D03*
X102730000Y-95440000D03*
X105270000Y-92900000D03*
X102730000Y-92900000D03*
X105270000Y-90360000D03*
X102730000Y-90360000D03*
X105270000Y-87820000D03*
X102730000Y-87820000D03*
X105270000Y-85280000D03*
X102730000Y-85280000D03*
X105270000Y-82740000D03*
X102730000Y-82740000D03*
X105270000Y-80200000D03*
X102730000Y-80200000D03*
X105270000Y-77660000D03*
X102730000Y-77660000D03*
X105270000Y-75120000D03*
X102730000Y-75120000D03*
X105270000Y-72580000D03*
X102730000Y-72580000D03*
X105270000Y-70040000D03*
X102730000Y-70040000D03*
X105270000Y-67500000D03*
X102730000Y-67500000D03*
X105270000Y-64960000D03*
X102730000Y-64960000D03*
D13*
G36*
X161337104Y-79465302D02*
G01*
X161363352Y-79469196D01*
X161389093Y-79475643D01*
X161414078Y-79484583D01*
X161438066Y-79495928D01*
X161460826Y-79509571D01*
X161482140Y-79525378D01*
X161501802Y-79543198D01*
X161519622Y-79562860D01*
X161535429Y-79584174D01*
X161549072Y-79606934D01*
X161560417Y-79630922D01*
X161569357Y-79655907D01*
X161575804Y-79681648D01*
X161579698Y-79707896D01*
X161581000Y-79734400D01*
X161581000Y-80545600D01*
X161579698Y-80572104D01*
X161575804Y-80598352D01*
X161569357Y-80624093D01*
X161560417Y-80649078D01*
X161549072Y-80673066D01*
X161535429Y-80695826D01*
X161519622Y-80717140D01*
X161501802Y-80736802D01*
X161482140Y-80754622D01*
X161460826Y-80770429D01*
X161438066Y-80784072D01*
X161414078Y-80795417D01*
X161389093Y-80804357D01*
X161363352Y-80810804D01*
X161337104Y-80814698D01*
X161310600Y-80816000D01*
X159999400Y-80816000D01*
X159972896Y-80814698D01*
X159946648Y-80810804D01*
X159920907Y-80804357D01*
X159895922Y-80795417D01*
X159871934Y-80784072D01*
X159849174Y-80770429D01*
X159827860Y-80754622D01*
X159808198Y-80736802D01*
X159790378Y-80717140D01*
X159774571Y-80695826D01*
X159760928Y-80673066D01*
X159749583Y-80649078D01*
X159740643Y-80624093D01*
X159734196Y-80598352D01*
X159730302Y-80572104D01*
X159729000Y-80545600D01*
X159729000Y-79734400D01*
X159730302Y-79707896D01*
X159734196Y-79681648D01*
X159740643Y-79655907D01*
X159749583Y-79630922D01*
X159760928Y-79606934D01*
X159774571Y-79584174D01*
X159790378Y-79562860D01*
X159808198Y-79543198D01*
X159827860Y-79525378D01*
X159849174Y-79509571D01*
X159871934Y-79495928D01*
X159895922Y-79484583D01*
X159920907Y-79475643D01*
X159946648Y-79469196D01*
X159972896Y-79465302D01*
X159999400Y-79464000D01*
X161310600Y-79464000D01*
X161337104Y-79465302D01*
G37*
G36*
X161337104Y-76665302D02*
G01*
X161363352Y-76669196D01*
X161389093Y-76675643D01*
X161414078Y-76684583D01*
X161438066Y-76695928D01*
X161460826Y-76709571D01*
X161482140Y-76725378D01*
X161501802Y-76743198D01*
X161519622Y-76762860D01*
X161535429Y-76784174D01*
X161549072Y-76806934D01*
X161560417Y-76830922D01*
X161569357Y-76855907D01*
X161575804Y-76881648D01*
X161579698Y-76907896D01*
X161581000Y-76934400D01*
X161581000Y-77745600D01*
X161579698Y-77772104D01*
X161575804Y-77798352D01*
X161569357Y-77824093D01*
X161560417Y-77849078D01*
X161549072Y-77873066D01*
X161535429Y-77895826D01*
X161519622Y-77917140D01*
X161501802Y-77936802D01*
X161482140Y-77954622D01*
X161460826Y-77970429D01*
X161438066Y-77984072D01*
X161414078Y-77995417D01*
X161389093Y-78004357D01*
X161363352Y-78010804D01*
X161337104Y-78014698D01*
X161310600Y-78016000D01*
X159999400Y-78016000D01*
X159972896Y-78014698D01*
X159946648Y-78010804D01*
X159920907Y-78004357D01*
X159895922Y-77995417D01*
X159871934Y-77984072D01*
X159849174Y-77970429D01*
X159827860Y-77954622D01*
X159808198Y-77936802D01*
X159790378Y-77917140D01*
X159774571Y-77895826D01*
X159760928Y-77873066D01*
X159749583Y-77849078D01*
X159740643Y-77824093D01*
X159734196Y-77798352D01*
X159730302Y-77772104D01*
X159729000Y-77745600D01*
X159729000Y-76934400D01*
X159730302Y-76907896D01*
X159734196Y-76881648D01*
X159740643Y-76855907D01*
X159749583Y-76830922D01*
X159760928Y-76806934D01*
X159774571Y-76784174D01*
X159790378Y-76762860D01*
X159808198Y-76743198D01*
X159827860Y-76725378D01*
X159849174Y-76709571D01*
X159871934Y-76695928D01*
X159895922Y-76684583D01*
X159920907Y-76675643D01*
X159946648Y-76669196D01*
X159972896Y-76665302D01*
X159999400Y-76664000D01*
X161310600Y-76664000D01*
X161337104Y-76665302D01*
G37*
G36*
X161337104Y-74385302D02*
G01*
X161363352Y-74389196D01*
X161389093Y-74395643D01*
X161414078Y-74404583D01*
X161438066Y-74415928D01*
X161460826Y-74429571D01*
X161482140Y-74445378D01*
X161501802Y-74463198D01*
X161519622Y-74482860D01*
X161535429Y-74504174D01*
X161549072Y-74526934D01*
X161560417Y-74550922D01*
X161569357Y-74575907D01*
X161575804Y-74601648D01*
X161579698Y-74627896D01*
X161581000Y-74654400D01*
X161581000Y-75465600D01*
X161579698Y-75492104D01*
X161575804Y-75518352D01*
X161569357Y-75544093D01*
X161560417Y-75569078D01*
X161549072Y-75593066D01*
X161535429Y-75615826D01*
X161519622Y-75637140D01*
X161501802Y-75656802D01*
X161482140Y-75674622D01*
X161460826Y-75690429D01*
X161438066Y-75704072D01*
X161414078Y-75715417D01*
X161389093Y-75724357D01*
X161363352Y-75730804D01*
X161337104Y-75734698D01*
X161310600Y-75736000D01*
X159999400Y-75736000D01*
X159972896Y-75734698D01*
X159946648Y-75730804D01*
X159920907Y-75724357D01*
X159895922Y-75715417D01*
X159871934Y-75704072D01*
X159849174Y-75690429D01*
X159827860Y-75674622D01*
X159808198Y-75656802D01*
X159790378Y-75637140D01*
X159774571Y-75615826D01*
X159760928Y-75593066D01*
X159749583Y-75569078D01*
X159740643Y-75544093D01*
X159734196Y-75518352D01*
X159730302Y-75492104D01*
X159729000Y-75465600D01*
X159729000Y-74654400D01*
X159730302Y-74627896D01*
X159734196Y-74601648D01*
X159740643Y-74575907D01*
X159749583Y-74550922D01*
X159760928Y-74526934D01*
X159774571Y-74504174D01*
X159790378Y-74482860D01*
X159808198Y-74463198D01*
X159827860Y-74445378D01*
X159849174Y-74429571D01*
X159871934Y-74415928D01*
X159895922Y-74404583D01*
X159920907Y-74395643D01*
X159946648Y-74389196D01*
X159972896Y-74385302D01*
X159999400Y-74384000D01*
X161310600Y-74384000D01*
X161337104Y-74385302D01*
G37*
G36*
X161337104Y-71585302D02*
G01*
X161363352Y-71589196D01*
X161389093Y-71595643D01*
X161414078Y-71604583D01*
X161438066Y-71615928D01*
X161460826Y-71629571D01*
X161482140Y-71645378D01*
X161501802Y-71663198D01*
X161519622Y-71682860D01*
X161535429Y-71704174D01*
X161549072Y-71726934D01*
X161560417Y-71750922D01*
X161569357Y-71775907D01*
X161575804Y-71801648D01*
X161579698Y-71827896D01*
X161581000Y-71854400D01*
X161581000Y-72665600D01*
X161579698Y-72692104D01*
X161575804Y-72718352D01*
X161569357Y-72744093D01*
X161560417Y-72769078D01*
X161549072Y-72793066D01*
X161535429Y-72815826D01*
X161519622Y-72837140D01*
X161501802Y-72856802D01*
X161482140Y-72874622D01*
X161460826Y-72890429D01*
X161438066Y-72904072D01*
X161414078Y-72915417D01*
X161389093Y-72924357D01*
X161363352Y-72930804D01*
X161337104Y-72934698D01*
X161310600Y-72936000D01*
X159999400Y-72936000D01*
X159972896Y-72934698D01*
X159946648Y-72930804D01*
X159920907Y-72924357D01*
X159895922Y-72915417D01*
X159871934Y-72904072D01*
X159849174Y-72890429D01*
X159827860Y-72874622D01*
X159808198Y-72856802D01*
X159790378Y-72837140D01*
X159774571Y-72815826D01*
X159760928Y-72793066D01*
X159749583Y-72769078D01*
X159740643Y-72744093D01*
X159734196Y-72718352D01*
X159730302Y-72692104D01*
X159729000Y-72665600D01*
X159729000Y-71854400D01*
X159730302Y-71827896D01*
X159734196Y-71801648D01*
X159740643Y-71775907D01*
X159749583Y-71750922D01*
X159760928Y-71726934D01*
X159774571Y-71704174D01*
X159790378Y-71682860D01*
X159808198Y-71663198D01*
X159827860Y-71645378D01*
X159849174Y-71629571D01*
X159871934Y-71615928D01*
X159895922Y-71604583D01*
X159920907Y-71595643D01*
X159946648Y-71589196D01*
X159972896Y-71585302D01*
X159999400Y-71584000D01*
X161310600Y-71584000D01*
X161337104Y-71585302D01*
G37*
G36*
X150542104Y-80989302D02*
G01*
X150568352Y-80993196D01*
X150594093Y-80999643D01*
X150619078Y-81008583D01*
X150643066Y-81019928D01*
X150665826Y-81033571D01*
X150687140Y-81049378D01*
X150706802Y-81067198D01*
X150724622Y-81086860D01*
X150740429Y-81108174D01*
X150754072Y-81130934D01*
X150765417Y-81154922D01*
X150774357Y-81179907D01*
X150780804Y-81205648D01*
X150784698Y-81231896D01*
X150786000Y-81258400D01*
X150786000Y-82069600D01*
X150784698Y-82096104D01*
X150780804Y-82122352D01*
X150774357Y-82148093D01*
X150765417Y-82173078D01*
X150754072Y-82197066D01*
X150740429Y-82219826D01*
X150724622Y-82241140D01*
X150706802Y-82260802D01*
X150687140Y-82278622D01*
X150665826Y-82294429D01*
X150643066Y-82308072D01*
X150619078Y-82319417D01*
X150594093Y-82328357D01*
X150568352Y-82334804D01*
X150542104Y-82338698D01*
X150515600Y-82340000D01*
X149204400Y-82340000D01*
X149177896Y-82338698D01*
X149151648Y-82334804D01*
X149125907Y-82328357D01*
X149100922Y-82319417D01*
X149076934Y-82308072D01*
X149054174Y-82294429D01*
X149032860Y-82278622D01*
X149013198Y-82260802D01*
X148995378Y-82241140D01*
X148979571Y-82219826D01*
X148965928Y-82197066D01*
X148954583Y-82173078D01*
X148945643Y-82148093D01*
X148939196Y-82122352D01*
X148935302Y-82096104D01*
X148934000Y-82069600D01*
X148934000Y-81258400D01*
X148935302Y-81231896D01*
X148939196Y-81205648D01*
X148945643Y-81179907D01*
X148954583Y-81154922D01*
X148965928Y-81130934D01*
X148979571Y-81108174D01*
X148995378Y-81086860D01*
X149013198Y-81067198D01*
X149032860Y-81049378D01*
X149054174Y-81033571D01*
X149076934Y-81019928D01*
X149100922Y-81008583D01*
X149125907Y-80999643D01*
X149151648Y-80993196D01*
X149177896Y-80989302D01*
X149204400Y-80988000D01*
X150515600Y-80988000D01*
X150542104Y-80989302D01*
G37*
G36*
X150542104Y-78189302D02*
G01*
X150568352Y-78193196D01*
X150594093Y-78199643D01*
X150619078Y-78208583D01*
X150643066Y-78219928D01*
X150665826Y-78233571D01*
X150687140Y-78249378D01*
X150706802Y-78267198D01*
X150724622Y-78286860D01*
X150740429Y-78308174D01*
X150754072Y-78330934D01*
X150765417Y-78354922D01*
X150774357Y-78379907D01*
X150780804Y-78405648D01*
X150784698Y-78431896D01*
X150786000Y-78458400D01*
X150786000Y-79269600D01*
X150784698Y-79296104D01*
X150780804Y-79322352D01*
X150774357Y-79348093D01*
X150765417Y-79373078D01*
X150754072Y-79397066D01*
X150740429Y-79419826D01*
X150724622Y-79441140D01*
X150706802Y-79460802D01*
X150687140Y-79478622D01*
X150665826Y-79494429D01*
X150643066Y-79508072D01*
X150619078Y-79519417D01*
X150594093Y-79528357D01*
X150568352Y-79534804D01*
X150542104Y-79538698D01*
X150515600Y-79540000D01*
X149204400Y-79540000D01*
X149177896Y-79538698D01*
X149151648Y-79534804D01*
X149125907Y-79528357D01*
X149100922Y-79519417D01*
X149076934Y-79508072D01*
X149054174Y-79494429D01*
X149032860Y-79478622D01*
X149013198Y-79460802D01*
X148995378Y-79441140D01*
X148979571Y-79419826D01*
X148965928Y-79397066D01*
X148954583Y-79373078D01*
X148945643Y-79348093D01*
X148939196Y-79322352D01*
X148935302Y-79296104D01*
X148934000Y-79269600D01*
X148934000Y-78458400D01*
X148935302Y-78431896D01*
X148939196Y-78405648D01*
X148945643Y-78379907D01*
X148954583Y-78354922D01*
X148965928Y-78330934D01*
X148979571Y-78308174D01*
X148995378Y-78286860D01*
X149013198Y-78267198D01*
X149032860Y-78249378D01*
X149054174Y-78233571D01*
X149076934Y-78219928D01*
X149100922Y-78208583D01*
X149125907Y-78199643D01*
X149151648Y-78193196D01*
X149177896Y-78189302D01*
X149204400Y-78188000D01*
X150515600Y-78188000D01*
X150542104Y-78189302D01*
G37*
G36*
X150542104Y-76290302D02*
G01*
X150568352Y-76294196D01*
X150594093Y-76300643D01*
X150619078Y-76309583D01*
X150643066Y-76320928D01*
X150665826Y-76334571D01*
X150687140Y-76350378D01*
X150706802Y-76368198D01*
X150724622Y-76387860D01*
X150740429Y-76409174D01*
X150754072Y-76431934D01*
X150765417Y-76455922D01*
X150774357Y-76480907D01*
X150780804Y-76506648D01*
X150784698Y-76532896D01*
X150786000Y-76559400D01*
X150786000Y-77370600D01*
X150784698Y-77397104D01*
X150780804Y-77423352D01*
X150774357Y-77449093D01*
X150765417Y-77474078D01*
X150754072Y-77498066D01*
X150740429Y-77520826D01*
X150724622Y-77542140D01*
X150706802Y-77561802D01*
X150687140Y-77579622D01*
X150665826Y-77595429D01*
X150643066Y-77609072D01*
X150619078Y-77620417D01*
X150594093Y-77629357D01*
X150568352Y-77635804D01*
X150542104Y-77639698D01*
X150515600Y-77641000D01*
X149204400Y-77641000D01*
X149177896Y-77639698D01*
X149151648Y-77635804D01*
X149125907Y-77629357D01*
X149100922Y-77620417D01*
X149076934Y-77609072D01*
X149054174Y-77595429D01*
X149032860Y-77579622D01*
X149013198Y-77561802D01*
X148995378Y-77542140D01*
X148979571Y-77520826D01*
X148965928Y-77498066D01*
X148954583Y-77474078D01*
X148945643Y-77449093D01*
X148939196Y-77423352D01*
X148935302Y-77397104D01*
X148934000Y-77370600D01*
X148934000Y-76559400D01*
X148935302Y-76532896D01*
X148939196Y-76506648D01*
X148945643Y-76480907D01*
X148954583Y-76455922D01*
X148965928Y-76431934D01*
X148979571Y-76409174D01*
X148995378Y-76387860D01*
X149013198Y-76368198D01*
X149032860Y-76350378D01*
X149054174Y-76334571D01*
X149076934Y-76320928D01*
X149100922Y-76309583D01*
X149125907Y-76300643D01*
X149151648Y-76294196D01*
X149177896Y-76290302D01*
X149204400Y-76289000D01*
X150515600Y-76289000D01*
X150542104Y-76290302D01*
G37*
G36*
X150542104Y-73490302D02*
G01*
X150568352Y-73494196D01*
X150594093Y-73500643D01*
X150619078Y-73509583D01*
X150643066Y-73520928D01*
X150665826Y-73534571D01*
X150687140Y-73550378D01*
X150706802Y-73568198D01*
X150724622Y-73587860D01*
X150740429Y-73609174D01*
X150754072Y-73631934D01*
X150765417Y-73655922D01*
X150774357Y-73680907D01*
X150780804Y-73706648D01*
X150784698Y-73732896D01*
X150786000Y-73759400D01*
X150786000Y-74570600D01*
X150784698Y-74597104D01*
X150780804Y-74623352D01*
X150774357Y-74649093D01*
X150765417Y-74674078D01*
X150754072Y-74698066D01*
X150740429Y-74720826D01*
X150724622Y-74742140D01*
X150706802Y-74761802D01*
X150687140Y-74779622D01*
X150665826Y-74795429D01*
X150643066Y-74809072D01*
X150619078Y-74820417D01*
X150594093Y-74829357D01*
X150568352Y-74835804D01*
X150542104Y-74839698D01*
X150515600Y-74841000D01*
X149204400Y-74841000D01*
X149177896Y-74839698D01*
X149151648Y-74835804D01*
X149125907Y-74829357D01*
X149100922Y-74820417D01*
X149076934Y-74809072D01*
X149054174Y-74795429D01*
X149032860Y-74779622D01*
X149013198Y-74761802D01*
X148995378Y-74742140D01*
X148979571Y-74720826D01*
X148965928Y-74698066D01*
X148954583Y-74674078D01*
X148945643Y-74649093D01*
X148939196Y-74623352D01*
X148935302Y-74597104D01*
X148934000Y-74570600D01*
X148934000Y-73759400D01*
X148935302Y-73732896D01*
X148939196Y-73706648D01*
X148945643Y-73680907D01*
X148954583Y-73655922D01*
X148965928Y-73631934D01*
X148979571Y-73609174D01*
X148995378Y-73587860D01*
X149013198Y-73568198D01*
X149032860Y-73550378D01*
X149054174Y-73534571D01*
X149076934Y-73520928D01*
X149100922Y-73509583D01*
X149125907Y-73500643D01*
X149151648Y-73494196D01*
X149177896Y-73490302D01*
X149204400Y-73489000D01*
X150515600Y-73489000D01*
X150542104Y-73490302D01*
G37*
D14*
X161925000Y-60960000D03*
X159385000Y-60960000D03*
X156845000Y-60960000D03*
D15*
X154305000Y-60960000D03*
D16*
X146685000Y-70485000D03*
X123825000Y-149225000D03*
X146685000Y-73025000D03*
X123825000Y-146685000D03*
X146685000Y-75565000D03*
X123825000Y-144145000D03*
X146685000Y-78105000D03*
X123825000Y-141605000D03*
X146685000Y-80645000D03*
X123825000Y-139065000D03*
X146685000Y-83185000D03*
X123825000Y-136525000D03*
X146685000Y-85725000D03*
X123825000Y-133985000D03*
X146685000Y-88265000D03*
X123825000Y-131445000D03*
X146685000Y-90805000D03*
X123825000Y-128905000D03*
X146685000Y-93345000D03*
X123825000Y-126365000D03*
X146685000Y-95885000D03*
X123825000Y-123825000D03*
X146685000Y-98425000D03*
X123825000Y-121285000D03*
X146685000Y-100965000D03*
X123825000Y-118745000D03*
X146685000Y-103505000D03*
X123825000Y-116205000D03*
X146685000Y-106045000D03*
X123825000Y-113665000D03*
X146685000Y-108585000D03*
X123825000Y-111125000D03*
X146685000Y-111125000D03*
X123825000Y-108585000D03*
X146685000Y-113665000D03*
X123825000Y-106045000D03*
X146685000Y-116205000D03*
X123825000Y-103505000D03*
X146685000Y-118745000D03*
X123825000Y-100965000D03*
X146685000Y-121285000D03*
X123825000Y-98425000D03*
X146685000Y-123825000D03*
X123825000Y-95885000D03*
X146685000Y-126365000D03*
X123825000Y-93345000D03*
X146685000Y-128905000D03*
X123825000Y-90805000D03*
X146685000Y-131445000D03*
X123825000Y-88265000D03*
X146685000Y-133985000D03*
X123825000Y-85725000D03*
X146685000Y-136525000D03*
X123825000Y-83185000D03*
X146685000Y-139065000D03*
X123825000Y-80645000D03*
X146685000Y-141605000D03*
X123825000Y-78105000D03*
X146685000Y-144145000D03*
X123825000Y-75565000D03*
X146685000Y-146685000D03*
X123825000Y-73025000D03*
X146685000Y-149225000D03*
D17*
X123825000Y-70485000D03*
D13*
G36*
X114982104Y-116930302D02*
G01*
X115008352Y-116934196D01*
X115034093Y-116940643D01*
X115059078Y-116949583D01*
X115083066Y-116960928D01*
X115105826Y-116974571D01*
X115127140Y-116990378D01*
X115146802Y-117008198D01*
X115164622Y-117027860D01*
X115180429Y-117049174D01*
X115194072Y-117071934D01*
X115205417Y-117095922D01*
X115214357Y-117120907D01*
X115220804Y-117146648D01*
X115224698Y-117172896D01*
X115226000Y-117199400D01*
X115226000Y-118010600D01*
X115224698Y-118037104D01*
X115220804Y-118063352D01*
X115214357Y-118089093D01*
X115205417Y-118114078D01*
X115194072Y-118138066D01*
X115180429Y-118160826D01*
X115164622Y-118182140D01*
X115146802Y-118201802D01*
X115127140Y-118219622D01*
X115105826Y-118235429D01*
X115083066Y-118249072D01*
X115059078Y-118260417D01*
X115034093Y-118269357D01*
X115008352Y-118275804D01*
X114982104Y-118279698D01*
X114955600Y-118281000D01*
X113644400Y-118281000D01*
X113617896Y-118279698D01*
X113591648Y-118275804D01*
X113565907Y-118269357D01*
X113540922Y-118260417D01*
X113516934Y-118249072D01*
X113494174Y-118235429D01*
X113472860Y-118219622D01*
X113453198Y-118201802D01*
X113435378Y-118182140D01*
X113419571Y-118160826D01*
X113405928Y-118138066D01*
X113394583Y-118114078D01*
X113385643Y-118089093D01*
X113379196Y-118063352D01*
X113375302Y-118037104D01*
X113374000Y-118010600D01*
X113374000Y-117199400D01*
X113375302Y-117172896D01*
X113379196Y-117146648D01*
X113385643Y-117120907D01*
X113394583Y-117095922D01*
X113405928Y-117071934D01*
X113419571Y-117049174D01*
X113435378Y-117027860D01*
X113453198Y-117008198D01*
X113472860Y-116990378D01*
X113494174Y-116974571D01*
X113516934Y-116960928D01*
X113540922Y-116949583D01*
X113565907Y-116940643D01*
X113591648Y-116934196D01*
X113617896Y-116930302D01*
X113644400Y-116929000D01*
X114955600Y-116929000D01*
X114982104Y-116930302D01*
G37*
G36*
X114982104Y-114130302D02*
G01*
X115008352Y-114134196D01*
X115034093Y-114140643D01*
X115059078Y-114149583D01*
X115083066Y-114160928D01*
X115105826Y-114174571D01*
X115127140Y-114190378D01*
X115146802Y-114208198D01*
X115164622Y-114227860D01*
X115180429Y-114249174D01*
X115194072Y-114271934D01*
X115205417Y-114295922D01*
X115214357Y-114320907D01*
X115220804Y-114346648D01*
X115224698Y-114372896D01*
X115226000Y-114399400D01*
X115226000Y-115210600D01*
X115224698Y-115237104D01*
X115220804Y-115263352D01*
X115214357Y-115289093D01*
X115205417Y-115314078D01*
X115194072Y-115338066D01*
X115180429Y-115360826D01*
X115164622Y-115382140D01*
X115146802Y-115401802D01*
X115127140Y-115419622D01*
X115105826Y-115435429D01*
X115083066Y-115449072D01*
X115059078Y-115460417D01*
X115034093Y-115469357D01*
X115008352Y-115475804D01*
X114982104Y-115479698D01*
X114955600Y-115481000D01*
X113644400Y-115481000D01*
X113617896Y-115479698D01*
X113591648Y-115475804D01*
X113565907Y-115469357D01*
X113540922Y-115460417D01*
X113516934Y-115449072D01*
X113494174Y-115435429D01*
X113472860Y-115419622D01*
X113453198Y-115401802D01*
X113435378Y-115382140D01*
X113419571Y-115360826D01*
X113405928Y-115338066D01*
X113394583Y-115314078D01*
X113385643Y-115289093D01*
X113379196Y-115263352D01*
X113375302Y-115237104D01*
X113374000Y-115210600D01*
X113374000Y-114399400D01*
X113375302Y-114372896D01*
X113379196Y-114346648D01*
X113385643Y-114320907D01*
X113394583Y-114295922D01*
X113405928Y-114271934D01*
X113419571Y-114249174D01*
X113435378Y-114227860D01*
X113453198Y-114208198D01*
X113472860Y-114190378D01*
X113494174Y-114174571D01*
X113516934Y-114160928D01*
X113540922Y-114149583D01*
X113565907Y-114140643D01*
X113591648Y-114134196D01*
X113617896Y-114130302D01*
X113644400Y-114129000D01*
X114955600Y-114129000D01*
X114982104Y-114130302D01*
G37*
G36*
X114982104Y-111745302D02*
G01*
X115008352Y-111749196D01*
X115034093Y-111755643D01*
X115059078Y-111764583D01*
X115083066Y-111775928D01*
X115105826Y-111789571D01*
X115127140Y-111805378D01*
X115146802Y-111823198D01*
X115164622Y-111842860D01*
X115180429Y-111864174D01*
X115194072Y-111886934D01*
X115205417Y-111910922D01*
X115214357Y-111935907D01*
X115220804Y-111961648D01*
X115224698Y-111987896D01*
X115226000Y-112014400D01*
X115226000Y-112825600D01*
X115224698Y-112852104D01*
X115220804Y-112878352D01*
X115214357Y-112904093D01*
X115205417Y-112929078D01*
X115194072Y-112953066D01*
X115180429Y-112975826D01*
X115164622Y-112997140D01*
X115146802Y-113016802D01*
X115127140Y-113034622D01*
X115105826Y-113050429D01*
X115083066Y-113064072D01*
X115059078Y-113075417D01*
X115034093Y-113084357D01*
X115008352Y-113090804D01*
X114982104Y-113094698D01*
X114955600Y-113096000D01*
X113644400Y-113096000D01*
X113617896Y-113094698D01*
X113591648Y-113090804D01*
X113565907Y-113084357D01*
X113540922Y-113075417D01*
X113516934Y-113064072D01*
X113494174Y-113050429D01*
X113472860Y-113034622D01*
X113453198Y-113016802D01*
X113435378Y-112997140D01*
X113419571Y-112975826D01*
X113405928Y-112953066D01*
X113394583Y-112929078D01*
X113385643Y-112904093D01*
X113379196Y-112878352D01*
X113375302Y-112852104D01*
X113374000Y-112825600D01*
X113374000Y-112014400D01*
X113375302Y-111987896D01*
X113379196Y-111961648D01*
X113385643Y-111935907D01*
X113394583Y-111910922D01*
X113405928Y-111886934D01*
X113419571Y-111864174D01*
X113435378Y-111842860D01*
X113453198Y-111823198D01*
X113472860Y-111805378D01*
X113494174Y-111789571D01*
X113516934Y-111775928D01*
X113540922Y-111764583D01*
X113565907Y-111755643D01*
X113591648Y-111749196D01*
X113617896Y-111745302D01*
X113644400Y-111744000D01*
X114955600Y-111744000D01*
X114982104Y-111745302D01*
G37*
G36*
X114982104Y-108945302D02*
G01*
X115008352Y-108949196D01*
X115034093Y-108955643D01*
X115059078Y-108964583D01*
X115083066Y-108975928D01*
X115105826Y-108989571D01*
X115127140Y-109005378D01*
X115146802Y-109023198D01*
X115164622Y-109042860D01*
X115180429Y-109064174D01*
X115194072Y-109086934D01*
X115205417Y-109110922D01*
X115214357Y-109135907D01*
X115220804Y-109161648D01*
X115224698Y-109187896D01*
X115226000Y-109214400D01*
X115226000Y-110025600D01*
X115224698Y-110052104D01*
X115220804Y-110078352D01*
X115214357Y-110104093D01*
X115205417Y-110129078D01*
X115194072Y-110153066D01*
X115180429Y-110175826D01*
X115164622Y-110197140D01*
X115146802Y-110216802D01*
X115127140Y-110234622D01*
X115105826Y-110250429D01*
X115083066Y-110264072D01*
X115059078Y-110275417D01*
X115034093Y-110284357D01*
X115008352Y-110290804D01*
X114982104Y-110294698D01*
X114955600Y-110296000D01*
X113644400Y-110296000D01*
X113617896Y-110294698D01*
X113591648Y-110290804D01*
X113565907Y-110284357D01*
X113540922Y-110275417D01*
X113516934Y-110264072D01*
X113494174Y-110250429D01*
X113472860Y-110234622D01*
X113453198Y-110216802D01*
X113435378Y-110197140D01*
X113419571Y-110175826D01*
X113405928Y-110153066D01*
X113394583Y-110129078D01*
X113385643Y-110104093D01*
X113379196Y-110078352D01*
X113375302Y-110052104D01*
X113374000Y-110025600D01*
X113374000Y-109214400D01*
X113375302Y-109187896D01*
X113379196Y-109161648D01*
X113385643Y-109135907D01*
X113394583Y-109110922D01*
X113405928Y-109086934D01*
X113419571Y-109064174D01*
X113435378Y-109042860D01*
X113453198Y-109023198D01*
X113472860Y-109005378D01*
X113494174Y-108989571D01*
X113516934Y-108975928D01*
X113540922Y-108964583D01*
X113565907Y-108955643D01*
X113591648Y-108949196D01*
X113617896Y-108945302D01*
X113644400Y-108944000D01*
X114955600Y-108944000D01*
X114982104Y-108945302D01*
G37*
G36*
X150542104Y-110580302D02*
G01*
X150568352Y-110584196D01*
X150594093Y-110590643D01*
X150619078Y-110599583D01*
X150643066Y-110610928D01*
X150665826Y-110624571D01*
X150687140Y-110640378D01*
X150706802Y-110658198D01*
X150724622Y-110677860D01*
X150740429Y-110699174D01*
X150754072Y-110721934D01*
X150765417Y-110745922D01*
X150774357Y-110770907D01*
X150780804Y-110796648D01*
X150784698Y-110822896D01*
X150786000Y-110849400D01*
X150786000Y-111660600D01*
X150784698Y-111687104D01*
X150780804Y-111713352D01*
X150774357Y-111739093D01*
X150765417Y-111764078D01*
X150754072Y-111788066D01*
X150740429Y-111810826D01*
X150724622Y-111832140D01*
X150706802Y-111851802D01*
X150687140Y-111869622D01*
X150665826Y-111885429D01*
X150643066Y-111899072D01*
X150619078Y-111910417D01*
X150594093Y-111919357D01*
X150568352Y-111925804D01*
X150542104Y-111929698D01*
X150515600Y-111931000D01*
X149204400Y-111931000D01*
X149177896Y-111929698D01*
X149151648Y-111925804D01*
X149125907Y-111919357D01*
X149100922Y-111910417D01*
X149076934Y-111899072D01*
X149054174Y-111885429D01*
X149032860Y-111869622D01*
X149013198Y-111851802D01*
X148995378Y-111832140D01*
X148979571Y-111810826D01*
X148965928Y-111788066D01*
X148954583Y-111764078D01*
X148945643Y-111739093D01*
X148939196Y-111713352D01*
X148935302Y-111687104D01*
X148934000Y-111660600D01*
X148934000Y-110849400D01*
X148935302Y-110822896D01*
X148939196Y-110796648D01*
X148945643Y-110770907D01*
X148954583Y-110745922D01*
X148965928Y-110721934D01*
X148979571Y-110699174D01*
X148995378Y-110677860D01*
X149013198Y-110658198D01*
X149032860Y-110640378D01*
X149054174Y-110624571D01*
X149076934Y-110610928D01*
X149100922Y-110599583D01*
X149125907Y-110590643D01*
X149151648Y-110584196D01*
X149177896Y-110580302D01*
X149204400Y-110579000D01*
X150515600Y-110579000D01*
X150542104Y-110580302D01*
G37*
G36*
X150542104Y-107780302D02*
G01*
X150568352Y-107784196D01*
X150594093Y-107790643D01*
X150619078Y-107799583D01*
X150643066Y-107810928D01*
X150665826Y-107824571D01*
X150687140Y-107840378D01*
X150706802Y-107858198D01*
X150724622Y-107877860D01*
X150740429Y-107899174D01*
X150754072Y-107921934D01*
X150765417Y-107945922D01*
X150774357Y-107970907D01*
X150780804Y-107996648D01*
X150784698Y-108022896D01*
X150786000Y-108049400D01*
X150786000Y-108860600D01*
X150784698Y-108887104D01*
X150780804Y-108913352D01*
X150774357Y-108939093D01*
X150765417Y-108964078D01*
X150754072Y-108988066D01*
X150740429Y-109010826D01*
X150724622Y-109032140D01*
X150706802Y-109051802D01*
X150687140Y-109069622D01*
X150665826Y-109085429D01*
X150643066Y-109099072D01*
X150619078Y-109110417D01*
X150594093Y-109119357D01*
X150568352Y-109125804D01*
X150542104Y-109129698D01*
X150515600Y-109131000D01*
X149204400Y-109131000D01*
X149177896Y-109129698D01*
X149151648Y-109125804D01*
X149125907Y-109119357D01*
X149100922Y-109110417D01*
X149076934Y-109099072D01*
X149054174Y-109085429D01*
X149032860Y-109069622D01*
X149013198Y-109051802D01*
X148995378Y-109032140D01*
X148979571Y-109010826D01*
X148965928Y-108988066D01*
X148954583Y-108964078D01*
X148945643Y-108939093D01*
X148939196Y-108913352D01*
X148935302Y-108887104D01*
X148934000Y-108860600D01*
X148934000Y-108049400D01*
X148935302Y-108022896D01*
X148939196Y-107996648D01*
X148945643Y-107970907D01*
X148954583Y-107945922D01*
X148965928Y-107921934D01*
X148979571Y-107899174D01*
X148995378Y-107877860D01*
X149013198Y-107858198D01*
X149032860Y-107840378D01*
X149054174Y-107824571D01*
X149076934Y-107810928D01*
X149100922Y-107799583D01*
X149125907Y-107790643D01*
X149151648Y-107784196D01*
X149177896Y-107780302D01*
X149204400Y-107779000D01*
X150515600Y-107779000D01*
X150542104Y-107780302D01*
G37*
G36*
X121332104Y-100160302D02*
G01*
X121358352Y-100164196D01*
X121384093Y-100170643D01*
X121409078Y-100179583D01*
X121433066Y-100190928D01*
X121455826Y-100204571D01*
X121477140Y-100220378D01*
X121496802Y-100238198D01*
X121514622Y-100257860D01*
X121530429Y-100279174D01*
X121544072Y-100301934D01*
X121555417Y-100325922D01*
X121564357Y-100350907D01*
X121570804Y-100376648D01*
X121574698Y-100402896D01*
X121576000Y-100429400D01*
X121576000Y-101240600D01*
X121574698Y-101267104D01*
X121570804Y-101293352D01*
X121564357Y-101319093D01*
X121555417Y-101344078D01*
X121544072Y-101368066D01*
X121530429Y-101390826D01*
X121514622Y-101412140D01*
X121496802Y-101431802D01*
X121477140Y-101449622D01*
X121455826Y-101465429D01*
X121433066Y-101479072D01*
X121409078Y-101490417D01*
X121384093Y-101499357D01*
X121358352Y-101505804D01*
X121332104Y-101509698D01*
X121305600Y-101511000D01*
X119994400Y-101511000D01*
X119967896Y-101509698D01*
X119941648Y-101505804D01*
X119915907Y-101499357D01*
X119890922Y-101490417D01*
X119866934Y-101479072D01*
X119844174Y-101465429D01*
X119822860Y-101449622D01*
X119803198Y-101431802D01*
X119785378Y-101412140D01*
X119769571Y-101390826D01*
X119755928Y-101368066D01*
X119744583Y-101344078D01*
X119735643Y-101319093D01*
X119729196Y-101293352D01*
X119725302Y-101267104D01*
X119724000Y-101240600D01*
X119724000Y-100429400D01*
X119725302Y-100402896D01*
X119729196Y-100376648D01*
X119735643Y-100350907D01*
X119744583Y-100325922D01*
X119755928Y-100301934D01*
X119769571Y-100279174D01*
X119785378Y-100257860D01*
X119803198Y-100238198D01*
X119822860Y-100220378D01*
X119844174Y-100204571D01*
X119866934Y-100190928D01*
X119890922Y-100179583D01*
X119915907Y-100170643D01*
X119941648Y-100164196D01*
X119967896Y-100160302D01*
X119994400Y-100159000D01*
X121305600Y-100159000D01*
X121332104Y-100160302D01*
G37*
G36*
X121332104Y-102960302D02*
G01*
X121358352Y-102964196D01*
X121384093Y-102970643D01*
X121409078Y-102979583D01*
X121433066Y-102990928D01*
X121455826Y-103004571D01*
X121477140Y-103020378D01*
X121496802Y-103038198D01*
X121514622Y-103057860D01*
X121530429Y-103079174D01*
X121544072Y-103101934D01*
X121555417Y-103125922D01*
X121564357Y-103150907D01*
X121570804Y-103176648D01*
X121574698Y-103202896D01*
X121576000Y-103229400D01*
X121576000Y-104040600D01*
X121574698Y-104067104D01*
X121570804Y-104093352D01*
X121564357Y-104119093D01*
X121555417Y-104144078D01*
X121544072Y-104168066D01*
X121530429Y-104190826D01*
X121514622Y-104212140D01*
X121496802Y-104231802D01*
X121477140Y-104249622D01*
X121455826Y-104265429D01*
X121433066Y-104279072D01*
X121409078Y-104290417D01*
X121384093Y-104299357D01*
X121358352Y-104305804D01*
X121332104Y-104309698D01*
X121305600Y-104311000D01*
X119994400Y-104311000D01*
X119967896Y-104309698D01*
X119941648Y-104305804D01*
X119915907Y-104299357D01*
X119890922Y-104290417D01*
X119866934Y-104279072D01*
X119844174Y-104265429D01*
X119822860Y-104249622D01*
X119803198Y-104231802D01*
X119785378Y-104212140D01*
X119769571Y-104190826D01*
X119755928Y-104168066D01*
X119744583Y-104144078D01*
X119735643Y-104119093D01*
X119729196Y-104093352D01*
X119725302Y-104067104D01*
X119724000Y-104040600D01*
X119724000Y-103229400D01*
X119725302Y-103202896D01*
X119729196Y-103176648D01*
X119735643Y-103150907D01*
X119744583Y-103125922D01*
X119755928Y-103101934D01*
X119769571Y-103079174D01*
X119785378Y-103057860D01*
X119803198Y-103038198D01*
X119822860Y-103020378D01*
X119844174Y-103004571D01*
X119866934Y-102990928D01*
X119890922Y-102979583D01*
X119915907Y-102970643D01*
X119941648Y-102964196D01*
X119967896Y-102960302D01*
X119994400Y-102959000D01*
X121305600Y-102959000D01*
X121332104Y-102960302D01*
G37*
D14*
X127635000Y-153670000D03*
D15*
X125095000Y-153670000D03*
D14*
X116840000Y-153670000D03*
X114300000Y-153670000D03*
D15*
X111760000Y-153670000D03*
M02*
