G04 #@! TF.GenerationSoftware,KiCad,Pcbnew,(5.1.5)-2*
G04 #@! TF.CreationDate,2020-04-04T15:42:32+11:00*
G04 #@! TF.ProjectId,M68K-Nucleo,4d36384b-2d4e-4756-936c-656f2e6b6963,rev?*
G04 #@! TF.SameCoordinates,Original*
G04 #@! TF.FileFunction,Paste,Bot*
G04 #@! TF.FilePolarity,Positive*
%FSLAX46Y46*%
G04 Gerber Fmt 4.6, Leading zero omitted, Abs format (unit mm)*
G04 Created by KiCad (PCBNEW (5.1.5)-2) date 2020-04-04 15:42:32*
%MOMM*%
%LPD*%
G04 APERTURE LIST*
%ADD10R,1.450000X0.450000*%
%ADD11C,0.100000*%
G04 APERTURE END LIST*
D10*
X157890000Y-82595000D03*
X157890000Y-81945000D03*
X157890000Y-81295000D03*
X157890000Y-80645000D03*
X157890000Y-79995000D03*
X157890000Y-79345000D03*
X157890000Y-78695000D03*
X151990000Y-78695000D03*
X151990000Y-79345000D03*
X151990000Y-79995000D03*
X151990000Y-80645000D03*
X151990000Y-81295000D03*
X151990000Y-81945000D03*
X151990000Y-82595000D03*
D11*
G36*
X161304504Y-77611204D02*
G01*
X161328773Y-77614804D01*
X161352571Y-77620765D01*
X161375671Y-77629030D01*
X161397849Y-77639520D01*
X161418893Y-77652133D01*
X161438598Y-77666747D01*
X161456777Y-77683223D01*
X161473253Y-77701402D01*
X161487867Y-77721107D01*
X161500480Y-77742151D01*
X161510970Y-77764329D01*
X161519235Y-77787429D01*
X161525196Y-77811227D01*
X161528796Y-77835496D01*
X161530000Y-77860000D01*
X161530000Y-78610000D01*
X161528796Y-78634504D01*
X161525196Y-78658773D01*
X161519235Y-78682571D01*
X161510970Y-78705671D01*
X161500480Y-78727849D01*
X161487867Y-78748893D01*
X161473253Y-78768598D01*
X161456777Y-78786777D01*
X161438598Y-78803253D01*
X161418893Y-78817867D01*
X161397849Y-78830480D01*
X161375671Y-78840970D01*
X161352571Y-78849235D01*
X161328773Y-78855196D01*
X161304504Y-78858796D01*
X161280000Y-78860000D01*
X160030000Y-78860000D01*
X160005496Y-78858796D01*
X159981227Y-78855196D01*
X159957429Y-78849235D01*
X159934329Y-78840970D01*
X159912151Y-78830480D01*
X159891107Y-78817867D01*
X159871402Y-78803253D01*
X159853223Y-78786777D01*
X159836747Y-78768598D01*
X159822133Y-78748893D01*
X159809520Y-78727849D01*
X159799030Y-78705671D01*
X159790765Y-78682571D01*
X159784804Y-78658773D01*
X159781204Y-78634504D01*
X159780000Y-78610000D01*
X159780000Y-77860000D01*
X159781204Y-77835496D01*
X159784804Y-77811227D01*
X159790765Y-77787429D01*
X159799030Y-77764329D01*
X159809520Y-77742151D01*
X159822133Y-77721107D01*
X159836747Y-77701402D01*
X159853223Y-77683223D01*
X159871402Y-77666747D01*
X159891107Y-77652133D01*
X159912151Y-77639520D01*
X159934329Y-77629030D01*
X159957429Y-77620765D01*
X159981227Y-77614804D01*
X160005496Y-77611204D01*
X160030000Y-77610000D01*
X161280000Y-77610000D01*
X161304504Y-77611204D01*
G37*
G36*
X161304504Y-74811204D02*
G01*
X161328773Y-74814804D01*
X161352571Y-74820765D01*
X161375671Y-74829030D01*
X161397849Y-74839520D01*
X161418893Y-74852133D01*
X161438598Y-74866747D01*
X161456777Y-74883223D01*
X161473253Y-74901402D01*
X161487867Y-74921107D01*
X161500480Y-74942151D01*
X161510970Y-74964329D01*
X161519235Y-74987429D01*
X161525196Y-75011227D01*
X161528796Y-75035496D01*
X161530000Y-75060000D01*
X161530000Y-75810000D01*
X161528796Y-75834504D01*
X161525196Y-75858773D01*
X161519235Y-75882571D01*
X161510970Y-75905671D01*
X161500480Y-75927849D01*
X161487867Y-75948893D01*
X161473253Y-75968598D01*
X161456777Y-75986777D01*
X161438598Y-76003253D01*
X161418893Y-76017867D01*
X161397849Y-76030480D01*
X161375671Y-76040970D01*
X161352571Y-76049235D01*
X161328773Y-76055196D01*
X161304504Y-76058796D01*
X161280000Y-76060000D01*
X160030000Y-76060000D01*
X160005496Y-76058796D01*
X159981227Y-76055196D01*
X159957429Y-76049235D01*
X159934329Y-76040970D01*
X159912151Y-76030480D01*
X159891107Y-76017867D01*
X159871402Y-76003253D01*
X159853223Y-75986777D01*
X159836747Y-75968598D01*
X159822133Y-75948893D01*
X159809520Y-75927849D01*
X159799030Y-75905671D01*
X159790765Y-75882571D01*
X159784804Y-75858773D01*
X159781204Y-75834504D01*
X159780000Y-75810000D01*
X159780000Y-75060000D01*
X159781204Y-75035496D01*
X159784804Y-75011227D01*
X159790765Y-74987429D01*
X159799030Y-74964329D01*
X159809520Y-74942151D01*
X159822133Y-74921107D01*
X159836747Y-74901402D01*
X159853223Y-74883223D01*
X159871402Y-74866747D01*
X159891107Y-74852133D01*
X159912151Y-74839520D01*
X159934329Y-74829030D01*
X159957429Y-74820765D01*
X159981227Y-74814804D01*
X160005496Y-74811204D01*
X160030000Y-74810000D01*
X161280000Y-74810000D01*
X161304504Y-74811204D01*
G37*
G36*
X161304504Y-72531204D02*
G01*
X161328773Y-72534804D01*
X161352571Y-72540765D01*
X161375671Y-72549030D01*
X161397849Y-72559520D01*
X161418893Y-72572133D01*
X161438598Y-72586747D01*
X161456777Y-72603223D01*
X161473253Y-72621402D01*
X161487867Y-72641107D01*
X161500480Y-72662151D01*
X161510970Y-72684329D01*
X161519235Y-72707429D01*
X161525196Y-72731227D01*
X161528796Y-72755496D01*
X161530000Y-72780000D01*
X161530000Y-73530000D01*
X161528796Y-73554504D01*
X161525196Y-73578773D01*
X161519235Y-73602571D01*
X161510970Y-73625671D01*
X161500480Y-73647849D01*
X161487867Y-73668893D01*
X161473253Y-73688598D01*
X161456777Y-73706777D01*
X161438598Y-73723253D01*
X161418893Y-73737867D01*
X161397849Y-73750480D01*
X161375671Y-73760970D01*
X161352571Y-73769235D01*
X161328773Y-73775196D01*
X161304504Y-73778796D01*
X161280000Y-73780000D01*
X160030000Y-73780000D01*
X160005496Y-73778796D01*
X159981227Y-73775196D01*
X159957429Y-73769235D01*
X159934329Y-73760970D01*
X159912151Y-73750480D01*
X159891107Y-73737867D01*
X159871402Y-73723253D01*
X159853223Y-73706777D01*
X159836747Y-73688598D01*
X159822133Y-73668893D01*
X159809520Y-73647849D01*
X159799030Y-73625671D01*
X159790765Y-73602571D01*
X159784804Y-73578773D01*
X159781204Y-73554504D01*
X159780000Y-73530000D01*
X159780000Y-72780000D01*
X159781204Y-72755496D01*
X159784804Y-72731227D01*
X159790765Y-72707429D01*
X159799030Y-72684329D01*
X159809520Y-72662151D01*
X159822133Y-72641107D01*
X159836747Y-72621402D01*
X159853223Y-72603223D01*
X159871402Y-72586747D01*
X159891107Y-72572133D01*
X159912151Y-72559520D01*
X159934329Y-72549030D01*
X159957429Y-72540765D01*
X159981227Y-72534804D01*
X160005496Y-72531204D01*
X160030000Y-72530000D01*
X161280000Y-72530000D01*
X161304504Y-72531204D01*
G37*
G36*
X161304504Y-69731204D02*
G01*
X161328773Y-69734804D01*
X161352571Y-69740765D01*
X161375671Y-69749030D01*
X161397849Y-69759520D01*
X161418893Y-69772133D01*
X161438598Y-69786747D01*
X161456777Y-69803223D01*
X161473253Y-69821402D01*
X161487867Y-69841107D01*
X161500480Y-69862151D01*
X161510970Y-69884329D01*
X161519235Y-69907429D01*
X161525196Y-69931227D01*
X161528796Y-69955496D01*
X161530000Y-69980000D01*
X161530000Y-70730000D01*
X161528796Y-70754504D01*
X161525196Y-70778773D01*
X161519235Y-70802571D01*
X161510970Y-70825671D01*
X161500480Y-70847849D01*
X161487867Y-70868893D01*
X161473253Y-70888598D01*
X161456777Y-70906777D01*
X161438598Y-70923253D01*
X161418893Y-70937867D01*
X161397849Y-70950480D01*
X161375671Y-70960970D01*
X161352571Y-70969235D01*
X161328773Y-70975196D01*
X161304504Y-70978796D01*
X161280000Y-70980000D01*
X160030000Y-70980000D01*
X160005496Y-70978796D01*
X159981227Y-70975196D01*
X159957429Y-70969235D01*
X159934329Y-70960970D01*
X159912151Y-70950480D01*
X159891107Y-70937867D01*
X159871402Y-70923253D01*
X159853223Y-70906777D01*
X159836747Y-70888598D01*
X159822133Y-70868893D01*
X159809520Y-70847849D01*
X159799030Y-70825671D01*
X159790765Y-70802571D01*
X159784804Y-70778773D01*
X159781204Y-70754504D01*
X159780000Y-70730000D01*
X159780000Y-69980000D01*
X159781204Y-69955496D01*
X159784804Y-69931227D01*
X159790765Y-69907429D01*
X159799030Y-69884329D01*
X159809520Y-69862151D01*
X159822133Y-69841107D01*
X159836747Y-69821402D01*
X159853223Y-69803223D01*
X159871402Y-69786747D01*
X159891107Y-69772133D01*
X159912151Y-69759520D01*
X159934329Y-69749030D01*
X159957429Y-69740765D01*
X159981227Y-69734804D01*
X160005496Y-69731204D01*
X160030000Y-69730000D01*
X161280000Y-69730000D01*
X161304504Y-69731204D01*
G37*
G36*
X158764504Y-86501204D02*
G01*
X158788773Y-86504804D01*
X158812571Y-86510765D01*
X158835671Y-86519030D01*
X158857849Y-86529520D01*
X158878893Y-86542133D01*
X158898598Y-86556747D01*
X158916777Y-86573223D01*
X158933253Y-86591402D01*
X158947867Y-86611107D01*
X158960480Y-86632151D01*
X158970970Y-86654329D01*
X158979235Y-86677429D01*
X158985196Y-86701227D01*
X158988796Y-86725496D01*
X158990000Y-86750000D01*
X158990000Y-87500000D01*
X158988796Y-87524504D01*
X158985196Y-87548773D01*
X158979235Y-87572571D01*
X158970970Y-87595671D01*
X158960480Y-87617849D01*
X158947867Y-87638893D01*
X158933253Y-87658598D01*
X158916777Y-87676777D01*
X158898598Y-87693253D01*
X158878893Y-87707867D01*
X158857849Y-87720480D01*
X158835671Y-87730970D01*
X158812571Y-87739235D01*
X158788773Y-87745196D01*
X158764504Y-87748796D01*
X158740000Y-87750000D01*
X157490000Y-87750000D01*
X157465496Y-87748796D01*
X157441227Y-87745196D01*
X157417429Y-87739235D01*
X157394329Y-87730970D01*
X157372151Y-87720480D01*
X157351107Y-87707867D01*
X157331402Y-87693253D01*
X157313223Y-87676777D01*
X157296747Y-87658598D01*
X157282133Y-87638893D01*
X157269520Y-87617849D01*
X157259030Y-87595671D01*
X157250765Y-87572571D01*
X157244804Y-87548773D01*
X157241204Y-87524504D01*
X157240000Y-87500000D01*
X157240000Y-86750000D01*
X157241204Y-86725496D01*
X157244804Y-86701227D01*
X157250765Y-86677429D01*
X157259030Y-86654329D01*
X157269520Y-86632151D01*
X157282133Y-86611107D01*
X157296747Y-86591402D01*
X157313223Y-86573223D01*
X157331402Y-86556747D01*
X157351107Y-86542133D01*
X157372151Y-86529520D01*
X157394329Y-86519030D01*
X157417429Y-86510765D01*
X157441227Y-86504804D01*
X157465496Y-86501204D01*
X157490000Y-86500000D01*
X158740000Y-86500000D01*
X158764504Y-86501204D01*
G37*
G36*
X158764504Y-83701204D02*
G01*
X158788773Y-83704804D01*
X158812571Y-83710765D01*
X158835671Y-83719030D01*
X158857849Y-83729520D01*
X158878893Y-83742133D01*
X158898598Y-83756747D01*
X158916777Y-83773223D01*
X158933253Y-83791402D01*
X158947867Y-83811107D01*
X158960480Y-83832151D01*
X158970970Y-83854329D01*
X158979235Y-83877429D01*
X158985196Y-83901227D01*
X158988796Y-83925496D01*
X158990000Y-83950000D01*
X158990000Y-84700000D01*
X158988796Y-84724504D01*
X158985196Y-84748773D01*
X158979235Y-84772571D01*
X158970970Y-84795671D01*
X158960480Y-84817849D01*
X158947867Y-84838893D01*
X158933253Y-84858598D01*
X158916777Y-84876777D01*
X158898598Y-84893253D01*
X158878893Y-84907867D01*
X158857849Y-84920480D01*
X158835671Y-84930970D01*
X158812571Y-84939235D01*
X158788773Y-84945196D01*
X158764504Y-84948796D01*
X158740000Y-84950000D01*
X157490000Y-84950000D01*
X157465496Y-84948796D01*
X157441227Y-84945196D01*
X157417429Y-84939235D01*
X157394329Y-84930970D01*
X157372151Y-84920480D01*
X157351107Y-84907867D01*
X157331402Y-84893253D01*
X157313223Y-84876777D01*
X157296747Y-84858598D01*
X157282133Y-84838893D01*
X157269520Y-84817849D01*
X157259030Y-84795671D01*
X157250765Y-84772571D01*
X157244804Y-84748773D01*
X157241204Y-84724504D01*
X157240000Y-84700000D01*
X157240000Y-83950000D01*
X157241204Y-83925496D01*
X157244804Y-83901227D01*
X157250765Y-83877429D01*
X157259030Y-83854329D01*
X157269520Y-83832151D01*
X157282133Y-83811107D01*
X157296747Y-83791402D01*
X157313223Y-83773223D01*
X157331402Y-83756747D01*
X157351107Y-83742133D01*
X157372151Y-83729520D01*
X157394329Y-83719030D01*
X157417429Y-83710765D01*
X157441227Y-83704804D01*
X157465496Y-83701204D01*
X157490000Y-83700000D01*
X158740000Y-83700000D01*
X158764504Y-83701204D01*
G37*
G36*
X152414504Y-86501204D02*
G01*
X152438773Y-86504804D01*
X152462571Y-86510765D01*
X152485671Y-86519030D01*
X152507849Y-86529520D01*
X152528893Y-86542133D01*
X152548598Y-86556747D01*
X152566777Y-86573223D01*
X152583253Y-86591402D01*
X152597867Y-86611107D01*
X152610480Y-86632151D01*
X152620970Y-86654329D01*
X152629235Y-86677429D01*
X152635196Y-86701227D01*
X152638796Y-86725496D01*
X152640000Y-86750000D01*
X152640000Y-87500000D01*
X152638796Y-87524504D01*
X152635196Y-87548773D01*
X152629235Y-87572571D01*
X152620970Y-87595671D01*
X152610480Y-87617849D01*
X152597867Y-87638893D01*
X152583253Y-87658598D01*
X152566777Y-87676777D01*
X152548598Y-87693253D01*
X152528893Y-87707867D01*
X152507849Y-87720480D01*
X152485671Y-87730970D01*
X152462571Y-87739235D01*
X152438773Y-87745196D01*
X152414504Y-87748796D01*
X152390000Y-87750000D01*
X151140000Y-87750000D01*
X151115496Y-87748796D01*
X151091227Y-87745196D01*
X151067429Y-87739235D01*
X151044329Y-87730970D01*
X151022151Y-87720480D01*
X151001107Y-87707867D01*
X150981402Y-87693253D01*
X150963223Y-87676777D01*
X150946747Y-87658598D01*
X150932133Y-87638893D01*
X150919520Y-87617849D01*
X150909030Y-87595671D01*
X150900765Y-87572571D01*
X150894804Y-87548773D01*
X150891204Y-87524504D01*
X150890000Y-87500000D01*
X150890000Y-86750000D01*
X150891204Y-86725496D01*
X150894804Y-86701227D01*
X150900765Y-86677429D01*
X150909030Y-86654329D01*
X150919520Y-86632151D01*
X150932133Y-86611107D01*
X150946747Y-86591402D01*
X150963223Y-86573223D01*
X150981402Y-86556747D01*
X151001107Y-86542133D01*
X151022151Y-86529520D01*
X151044329Y-86519030D01*
X151067429Y-86510765D01*
X151091227Y-86504804D01*
X151115496Y-86501204D01*
X151140000Y-86500000D01*
X152390000Y-86500000D01*
X152414504Y-86501204D01*
G37*
G36*
X152414504Y-83701204D02*
G01*
X152438773Y-83704804D01*
X152462571Y-83710765D01*
X152485671Y-83719030D01*
X152507849Y-83729520D01*
X152528893Y-83742133D01*
X152548598Y-83756747D01*
X152566777Y-83773223D01*
X152583253Y-83791402D01*
X152597867Y-83811107D01*
X152610480Y-83832151D01*
X152620970Y-83854329D01*
X152629235Y-83877429D01*
X152635196Y-83901227D01*
X152638796Y-83925496D01*
X152640000Y-83950000D01*
X152640000Y-84700000D01*
X152638796Y-84724504D01*
X152635196Y-84748773D01*
X152629235Y-84772571D01*
X152620970Y-84795671D01*
X152610480Y-84817849D01*
X152597867Y-84838893D01*
X152583253Y-84858598D01*
X152566777Y-84876777D01*
X152548598Y-84893253D01*
X152528893Y-84907867D01*
X152507849Y-84920480D01*
X152485671Y-84930970D01*
X152462571Y-84939235D01*
X152438773Y-84945196D01*
X152414504Y-84948796D01*
X152390000Y-84950000D01*
X151140000Y-84950000D01*
X151115496Y-84948796D01*
X151091227Y-84945196D01*
X151067429Y-84939235D01*
X151044329Y-84930970D01*
X151022151Y-84920480D01*
X151001107Y-84907867D01*
X150981402Y-84893253D01*
X150963223Y-84876777D01*
X150946747Y-84858598D01*
X150932133Y-84838893D01*
X150919520Y-84817849D01*
X150909030Y-84795671D01*
X150900765Y-84772571D01*
X150894804Y-84748773D01*
X150891204Y-84724504D01*
X150890000Y-84700000D01*
X150890000Y-83950000D01*
X150891204Y-83925496D01*
X150894804Y-83901227D01*
X150900765Y-83877429D01*
X150909030Y-83854329D01*
X150919520Y-83832151D01*
X150932133Y-83811107D01*
X150946747Y-83791402D01*
X150963223Y-83773223D01*
X150981402Y-83756747D01*
X151001107Y-83742133D01*
X151022151Y-83729520D01*
X151044329Y-83719030D01*
X151067429Y-83710765D01*
X151091227Y-83704804D01*
X151115496Y-83701204D01*
X151140000Y-83700000D01*
X152390000Y-83700000D01*
X152414504Y-83701204D01*
G37*
M02*
