M48
; DRILL file {KiCad (5.1.9)-1} date 04/29/21 15:18:22
; FORMAT={-:-/ absolute / metric / decimal}
; #@! TF.CreationDate,2021-04-29T15:18:22+10:00
; #@! TF.GenerationSoftware,Kicad,Pcbnew,(5.1.9)-1
; #@! TF.FileFunction,Plated,1,2,PTH
FMAT,2
METRIC
T1C0.400
T2C0.800
T3C1.000
T4C1.500
%
G90
G05
T1
X107.95Y-107.95
X113.124Y-72.129
X121.285Y-141.605
X122.645Y-140.335
X123.825Y-139.065
X125.095Y-137.795
X139.065Y-140.97
X159.385Y-140.97
X179.07Y-140.97
X198.882Y-49.784
X198.882Y-52.832
X200.66Y-140.97
X205.105Y-127.635
X210.185Y-139.7
T2
X101.346Y-127.254
X104.775Y-132.08
X106.68Y-149.225
X110.49Y-133.35
X111.125Y-130.81
X111.76Y-65.405
X112.395Y-150.495
X114.935Y-128.27
X125.095Y-71.755
X128.27Y-81.28
X128.27Y-101.6
X128.27Y-121.92
X128.27Y-142.24
X129.54Y-60.96
X131.355Y-88.355
X131.355Y-108.675
X131.355Y-128.995
X131.355Y-149.315
X131.99Y-68.49
X148.59Y-46.99
X148.59Y-60.96
X148.59Y-81.28
X148.59Y-101.6
X148.59Y-121.92
X148.59Y-142.24
X151.675Y-54.065
X151.675Y-68.035
X151.675Y-88.355
X151.675Y-108.675
X151.675Y-128.995
X151.675Y-149.315
X168.91Y-46.99
X168.91Y-60.96
X168.91Y-81.28
X168.91Y-101.6
X168.91Y-121.92
X168.91Y-142.24
X171.995Y-54.065
X171.995Y-68.035
X171.995Y-88.355
X171.995Y-108.675
X171.995Y-128.995
X171.995Y-149.315
X189.23Y-46.99
X189.23Y-60.96
X189.23Y-81.28
X189.23Y-101.6
X189.23Y-121.92
X189.23Y-142.24
X192.315Y-54.065
X192.315Y-68.035
X192.315Y-88.355
X192.315Y-108.675
X192.315Y-128.995
X192.315Y-149.315
X204.978Y-62.484
X205.232Y-69.596
X209.55Y-60.96
X209.55Y-81.28
X209.55Y-101.6
X209.55Y-121.92
X209.55Y-141.95
X212.635Y-68.035
X212.635Y-88.355
X212.635Y-108.675
X212.635Y-128.995
X212.635Y-149.315
T3
X95.885Y-68.58
X95.885Y-71.12
X95.885Y-73.66
X95.885Y-76.2
X95.885Y-78.74
X95.885Y-81.28
X95.885Y-83.82
X95.885Y-86.36
X95.885Y-88.9
X95.885Y-91.44
X95.885Y-93.98
X95.885Y-96.52
X95.885Y-99.06
X95.885Y-101.6
X95.885Y-104.14
X95.885Y-106.68
X95.885Y-109.22
X95.885Y-111.76
X95.885Y-114.3
X95.885Y-116.84
X95.885Y-128.905
X95.885Y-131.445
X95.885Y-133.985
X95.885Y-136.525
X103.625Y-75.485
X103.625Y-78.025
X103.625Y-80.565
X103.625Y-83.105
X103.625Y-85.645
X103.625Y-88.185
X103.625Y-90.725
X103.625Y-93.265
X103.625Y-95.805
X103.625Y-98.345
X103.625Y-100.885
X103.625Y-103.425
X103.625Y-105.965
X103.625Y-108.505
X103.625Y-111.045
X103.625Y-113.585
X103.625Y-116.125
X103.625Y-118.665
X103.625Y-121.205
X103.625Y-123.745
X106.68Y-146.05
X109.22Y-146.05
X111.125Y-68.58
X111.125Y-71.12
X111.125Y-73.66
X111.125Y-76.2
X111.125Y-78.74
X111.125Y-81.28
X111.125Y-83.82
X111.125Y-86.36
X111.125Y-88.9
X111.125Y-91.44
X111.125Y-93.98
X111.125Y-96.52
X111.125Y-99.06
X111.125Y-101.6
X111.125Y-104.14
X111.125Y-106.68
X111.125Y-109.22
X111.125Y-111.76
X111.125Y-114.3
X111.125Y-116.84
X111.76Y-146.05
X114.3Y-146.05
X118.865Y-75.485
X118.865Y-78.025
X118.865Y-80.565
X118.865Y-83.105
X118.865Y-85.645
X118.865Y-88.185
X118.865Y-90.725
X118.865Y-93.265
X118.865Y-95.805
X118.865Y-98.345
X118.865Y-100.885
X118.865Y-103.425
X118.865Y-105.965
X118.865Y-108.505
X118.865Y-111.045
X118.865Y-113.585
X118.865Y-116.125
X118.865Y-118.665
X118.865Y-121.205
X118.865Y-123.745
X223.52Y-122.555
X223.52Y-125.095
X223.52Y-127.635
T4
X135.255Y-72.39
X135.255Y-92.71
X135.255Y-113.03
X135.255Y-133.35
X141.605Y-69.85
X141.605Y-90.17
X141.605Y-110.49
X141.605Y-130.81
X155.575Y-72.39
X155.575Y-92.71
X155.575Y-113.03
X155.575Y-133.35
X161.925Y-69.85
X161.925Y-90.17
X161.925Y-110.49
X161.925Y-130.81
X175.895Y-72.39
X175.895Y-92.71
X175.895Y-113.03
X175.895Y-133.35
X182.245Y-69.85
X182.245Y-90.17
X182.245Y-110.49
X182.245Y-130.81
X196.215Y-72.39
X196.215Y-92.71
X196.215Y-113.03
X196.215Y-133.35
X202.565Y-69.85
X202.565Y-90.17
X202.565Y-110.49
X202.565Y-130.81
T0
M30
