%TF.GenerationSoftware,KiCad,Pcbnew,(5.1.9)-1*%
%TF.CreationDate,2021-04-29T15:18:10+10:00*%
%TF.ProjectId,MiniKeyboard,4d696e69-4b65-4796-926f-6172642e6b69,rev?*%
%TF.SameCoordinates,Original*%
%TF.FileFunction,Soldermask,Top*%
%TF.FilePolarity,Negative*%
%FSLAX46Y46*%
G04 Gerber Fmt 4.6, Leading zero omitted, Abs format (unit mm)*
G04 Created by KiCad (PCBNEW (5.1.9)-1) date 2021-04-29 15:18:10*
%MOMM*%
%LPD*%
G01*
G04 APERTURE LIST*
%ADD10R,1.700000X1.700000*%
%ADD11C,1.700000*%
%ADD12C,4.000000*%
%ADD13C,2.200000*%
%ADD14C,0.100000*%
%ADD15O,1.700000X1.700000*%
%ADD16C,5.000000*%
%ADD17R,1.500000X1.000000*%
G04 APERTURE END LIST*
D10*
%TO.C,U2*%
X103625000Y-75485000D03*
D11*
X103625000Y-83105000D03*
X103625000Y-80565000D03*
X118865000Y-80565000D03*
X118865000Y-85645000D03*
X103625000Y-85645000D03*
X103625000Y-88185000D03*
X118865000Y-90725000D03*
X118865000Y-93265000D03*
X118865000Y-75485000D03*
X103625000Y-93265000D03*
X118865000Y-83105000D03*
X118865000Y-78025000D03*
X118865000Y-95805000D03*
X103625000Y-95805000D03*
X118865000Y-88185000D03*
X118865000Y-98345000D03*
X103625000Y-98345000D03*
X103625000Y-90725000D03*
X103625000Y-78025000D03*
X118865000Y-100885000D03*
X103625000Y-103425000D03*
X118865000Y-118665000D03*
X118865000Y-121205000D03*
X103625000Y-123745000D03*
X118865000Y-113585000D03*
X118865000Y-123745000D03*
X118865000Y-116125000D03*
X103625000Y-105965000D03*
X103625000Y-108505000D03*
X118865000Y-108505000D03*
X118865000Y-103425000D03*
X118865000Y-105965000D03*
X103625000Y-111045000D03*
X103625000Y-121205000D03*
X103625000Y-100885000D03*
X103625000Y-116125000D03*
X118865000Y-111045000D03*
X103625000Y-113585000D03*
X103625000Y-118665000D03*
%TD*%
%TO.C,U1*%
X95885000Y-116840000D03*
X111125000Y-116840000D03*
X95885000Y-114300000D03*
X111125000Y-114300000D03*
X95885000Y-111760000D03*
X111125000Y-111760000D03*
X95885000Y-109220000D03*
X111125000Y-109220000D03*
X95885000Y-106680000D03*
X111125000Y-106680000D03*
X95885000Y-104140000D03*
X111125000Y-104140000D03*
X95885000Y-101600000D03*
X111125000Y-101600000D03*
X95885000Y-99060000D03*
X111125000Y-99060000D03*
X95885000Y-96520000D03*
X111125000Y-96520000D03*
X95885000Y-93980000D03*
X111125000Y-93980000D03*
X95885000Y-91440000D03*
X111125000Y-91440000D03*
X95885000Y-88900000D03*
X111125000Y-88900000D03*
X95885000Y-86360000D03*
X111125000Y-86360000D03*
X95885000Y-83820000D03*
X111125000Y-83820000D03*
X95885000Y-81280000D03*
X111125000Y-81280000D03*
X95885000Y-78740000D03*
X111125000Y-78740000D03*
X95885000Y-76200000D03*
X111125000Y-76200000D03*
X95885000Y-73660000D03*
X111125000Y-73660000D03*
X95885000Y-71120000D03*
X111125000Y-71120000D03*
D10*
X95885000Y-68580000D03*
D11*
X111125000Y-68580000D03*
%TD*%
%TO.C,SW16*%
X205105000Y-135890000D03*
X194945000Y-135890000D03*
D12*
X200025000Y-135890000D03*
D13*
X196215000Y-133350000D03*
X202565000Y-130810000D03*
%TD*%
D11*
%TO.C,SW15*%
X184785000Y-135890000D03*
X174625000Y-135890000D03*
D12*
X179705000Y-135890000D03*
D13*
X175895000Y-133350000D03*
X182245000Y-130810000D03*
%TD*%
D11*
%TO.C,SW14*%
X164465000Y-135890000D03*
X154305000Y-135890000D03*
D12*
X159385000Y-135890000D03*
D13*
X155575000Y-133350000D03*
X161925000Y-130810000D03*
%TD*%
D11*
%TO.C,SW13*%
X144145000Y-135890000D03*
X133985000Y-135890000D03*
D12*
X139065000Y-135890000D03*
D13*
X135255000Y-133350000D03*
X141605000Y-130810000D03*
%TD*%
D11*
%TO.C,SW12*%
X205105000Y-115570000D03*
X194945000Y-115570000D03*
D12*
X200025000Y-115570000D03*
D13*
X196215000Y-113030000D03*
X202565000Y-110490000D03*
%TD*%
D11*
%TO.C,SW11*%
X184785000Y-115570000D03*
X174625000Y-115570000D03*
D12*
X179705000Y-115570000D03*
D13*
X175895000Y-113030000D03*
X182245000Y-110490000D03*
%TD*%
D11*
%TO.C,SW10*%
X164465000Y-115570000D03*
X154305000Y-115570000D03*
D12*
X159385000Y-115570000D03*
D13*
X155575000Y-113030000D03*
X161925000Y-110490000D03*
%TD*%
D11*
%TO.C,SW9*%
X144145000Y-115570000D03*
X133985000Y-115570000D03*
D12*
X139065000Y-115570000D03*
D13*
X135255000Y-113030000D03*
X141605000Y-110490000D03*
%TD*%
D11*
%TO.C,SW8*%
X205105000Y-95250000D03*
X194945000Y-95250000D03*
D12*
X200025000Y-95250000D03*
D13*
X196215000Y-92710000D03*
X202565000Y-90170000D03*
%TD*%
D11*
%TO.C,SW7*%
X184785000Y-95250000D03*
X174625000Y-95250000D03*
D12*
X179705000Y-95250000D03*
D13*
X175895000Y-92710000D03*
X182245000Y-90170000D03*
%TD*%
D11*
%TO.C,SW6*%
X164465000Y-95250000D03*
X154305000Y-95250000D03*
D12*
X159385000Y-95250000D03*
D13*
X155575000Y-92710000D03*
X161925000Y-90170000D03*
%TD*%
D11*
%TO.C,SW5*%
X144145000Y-95250000D03*
X133985000Y-95250000D03*
D12*
X139065000Y-95250000D03*
D13*
X135255000Y-92710000D03*
X141605000Y-90170000D03*
%TD*%
D11*
%TO.C,SW4*%
X205105000Y-74930000D03*
X194945000Y-74930000D03*
D12*
X200025000Y-74930000D03*
D13*
X196215000Y-72390000D03*
X202565000Y-69850000D03*
%TD*%
D11*
%TO.C,SW3*%
X184785000Y-74930000D03*
X174625000Y-74930000D03*
D12*
X179705000Y-74930000D03*
D13*
X175895000Y-72390000D03*
X182245000Y-69850000D03*
%TD*%
D11*
%TO.C,SW2*%
X164465000Y-74930000D03*
X154305000Y-74930000D03*
D12*
X159385000Y-74930000D03*
D13*
X155575000Y-72390000D03*
X161925000Y-69850000D03*
%TD*%
D11*
%TO.C,SW1*%
X144145000Y-74930000D03*
X133985000Y-74930000D03*
D12*
X139065000Y-74930000D03*
D13*
X135255000Y-72390000D03*
X141605000Y-69850000D03*
%TD*%
%TO.C,R1*%
G36*
G01*
X139709999Y-52970000D02*
X140960001Y-52970000D01*
G75*
G02*
X141210000Y-53219999I0J-249999D01*
G01*
X141210000Y-54020001D01*
G75*
G02*
X140960001Y-54270000I-249999J0D01*
G01*
X139709999Y-54270000D01*
G75*
G02*
X139460000Y-54020001I0J249999D01*
G01*
X139460000Y-53219999D01*
G75*
G02*
X139709999Y-52970000I249999J0D01*
G01*
G37*
G36*
G01*
X139709999Y-49870000D02*
X140960001Y-49870000D01*
G75*
G02*
X141210000Y-50119999I0J-249999D01*
G01*
X141210000Y-50920001D01*
G75*
G02*
X140960001Y-51170000I-249999J0D01*
G01*
X139709999Y-51170000D01*
G75*
G02*
X139460000Y-50920001I0J249999D01*
G01*
X139460000Y-50119999D01*
G75*
G02*
X139709999Y-49870000I249999J0D01*
G01*
G37*
%TD*%
D14*
%TO.C,JP1*%
G36*
X136995000Y-54725000D02*
G01*
X136495000Y-54725000D01*
X136495000Y-54724398D01*
X136470466Y-54724398D01*
X136421635Y-54719588D01*
X136373510Y-54710016D01*
X136326555Y-54695772D01*
X136281222Y-54676995D01*
X136237949Y-54653864D01*
X136197150Y-54626604D01*
X136159221Y-54595476D01*
X136124524Y-54560779D01*
X136093396Y-54522850D01*
X136066136Y-54482051D01*
X136043005Y-54438778D01*
X136024228Y-54393445D01*
X136009984Y-54346490D01*
X136000412Y-54298365D01*
X135995602Y-54249534D01*
X135995602Y-54225000D01*
X135995000Y-54225000D01*
X135995000Y-53725000D01*
X135995602Y-53725000D01*
X135995602Y-53700466D01*
X136000412Y-53651635D01*
X136009984Y-53603510D01*
X136024228Y-53556555D01*
X136043005Y-53511222D01*
X136066136Y-53467949D01*
X136093396Y-53427150D01*
X136124524Y-53389221D01*
X136159221Y-53354524D01*
X136197150Y-53323396D01*
X136237949Y-53296136D01*
X136281222Y-53273005D01*
X136326555Y-53254228D01*
X136373510Y-53239984D01*
X136421635Y-53230412D01*
X136470466Y-53225602D01*
X136495000Y-53225602D01*
X136495000Y-53225000D01*
X136995000Y-53225000D01*
X136995000Y-54725000D01*
G37*
G36*
X137795000Y-53225602D02*
G01*
X137819534Y-53225602D01*
X137868365Y-53230412D01*
X137916490Y-53239984D01*
X137963445Y-53254228D01*
X138008778Y-53273005D01*
X138052051Y-53296136D01*
X138092850Y-53323396D01*
X138130779Y-53354524D01*
X138165476Y-53389221D01*
X138196604Y-53427150D01*
X138223864Y-53467949D01*
X138246995Y-53511222D01*
X138265772Y-53556555D01*
X138280016Y-53603510D01*
X138289588Y-53651635D01*
X138294398Y-53700466D01*
X138294398Y-53725000D01*
X138295000Y-53725000D01*
X138295000Y-54225000D01*
X138294398Y-54225000D01*
X138294398Y-54249534D01*
X138289588Y-54298365D01*
X138280016Y-54346490D01*
X138265772Y-54393445D01*
X138246995Y-54438778D01*
X138223864Y-54482051D01*
X138196604Y-54522850D01*
X138165476Y-54560779D01*
X138130779Y-54595476D01*
X138092850Y-54626604D01*
X138052051Y-54653864D01*
X138008778Y-54676995D01*
X137963445Y-54695772D01*
X137916490Y-54710016D01*
X137868365Y-54719588D01*
X137819534Y-54724398D01*
X137795000Y-54724398D01*
X137795000Y-54725000D01*
X137295000Y-54725000D01*
X137295000Y-53225000D01*
X137795000Y-53225000D01*
X137795000Y-53225602D01*
G37*
%TD*%
D15*
%TO.C,J3*%
X223520000Y-127635000D03*
X223520000Y-125095000D03*
D10*
X223520000Y-122555000D03*
%TD*%
D15*
%TO.C,J2*%
X95885000Y-136525000D03*
X95885000Y-133985000D03*
X95885000Y-131445000D03*
D10*
X95885000Y-128905000D03*
%TD*%
D15*
%TO.C,J1*%
X106680000Y-146050000D03*
X109220000Y-146050000D03*
X111760000Y-146050000D03*
D10*
X114300000Y-146050000D03*
%TD*%
D16*
%TO.C,H4*%
X219710000Y-51816000D03*
%TD*%
%TO.C,H3*%
X97282000Y-145288000D03*
%TD*%
%TO.C,H2*%
X97282000Y-51816000D03*
%TD*%
%TO.C,H1*%
X219710000Y-145288000D03*
%TD*%
D17*
%TO.C,D40*%
X207735000Y-144450000D03*
X207735000Y-147650000D03*
X212635000Y-144450000D03*
X212635000Y-147650000D03*
%TD*%
%TO.C,D39*%
X187415000Y-144450000D03*
X187415000Y-147650000D03*
X192315000Y-144450000D03*
X192315000Y-147650000D03*
%TD*%
%TO.C,D38*%
X167095000Y-144450000D03*
X167095000Y-147650000D03*
X171995000Y-144450000D03*
X171995000Y-147650000D03*
%TD*%
%TO.C,D37*%
X146775000Y-144450000D03*
X146775000Y-147650000D03*
X151675000Y-144450000D03*
X151675000Y-147650000D03*
%TD*%
%TO.C,D36*%
X126455000Y-144450000D03*
X126455000Y-147650000D03*
X131355000Y-144450000D03*
X131355000Y-147650000D03*
%TD*%
%TO.C,D31*%
X207735000Y-124130000D03*
X207735000Y-127330000D03*
X212635000Y-124130000D03*
X212635000Y-127330000D03*
%TD*%
%TO.C,D30*%
X187415000Y-124130000D03*
X187415000Y-127330000D03*
X192315000Y-124130000D03*
X192315000Y-127330000D03*
%TD*%
%TO.C,D29*%
X167095000Y-124130000D03*
X167095000Y-127330000D03*
X171995000Y-124130000D03*
X171995000Y-127330000D03*
%TD*%
%TO.C,D28*%
X146775000Y-124130000D03*
X146775000Y-127330000D03*
X151675000Y-124130000D03*
X151675000Y-127330000D03*
%TD*%
%TO.C,D27*%
X126455000Y-124130000D03*
X126455000Y-127330000D03*
X131355000Y-124130000D03*
X131355000Y-127330000D03*
%TD*%
%TO.C,D18*%
X207735000Y-103810000D03*
X207735000Y-107010000D03*
X212635000Y-103810000D03*
X212635000Y-107010000D03*
%TD*%
%TO.C,D17*%
X187415000Y-103810000D03*
X187415000Y-107010000D03*
X192315000Y-103810000D03*
X192315000Y-107010000D03*
%TD*%
%TO.C,D16*%
X167095000Y-103810000D03*
X167095000Y-107010000D03*
X171995000Y-103810000D03*
X171995000Y-107010000D03*
%TD*%
%TO.C,D15*%
X146775000Y-103810000D03*
X146775000Y-107010000D03*
X151675000Y-103810000D03*
X151675000Y-107010000D03*
%TD*%
%TO.C,D14*%
X126455000Y-103810000D03*
X126455000Y-107010000D03*
X131355000Y-103810000D03*
X131355000Y-107010000D03*
%TD*%
%TO.C,D13*%
X207735000Y-83490000D03*
X207735000Y-86690000D03*
X212635000Y-83490000D03*
X212635000Y-86690000D03*
%TD*%
%TO.C,D12*%
X187415000Y-83490000D03*
X187415000Y-86690000D03*
X192315000Y-83490000D03*
X192315000Y-86690000D03*
%TD*%
%TO.C,D11*%
X167095000Y-83490000D03*
X167095000Y-86690000D03*
X171995000Y-83490000D03*
X171995000Y-86690000D03*
%TD*%
%TO.C,D10*%
X146775000Y-83490000D03*
X146775000Y-86690000D03*
X151675000Y-83490000D03*
X151675000Y-86690000D03*
%TD*%
%TO.C,D9*%
X126455000Y-83490000D03*
X126455000Y-86690000D03*
X131355000Y-83490000D03*
X131355000Y-86690000D03*
%TD*%
%TO.C,D8*%
X207735000Y-63170000D03*
X207735000Y-66370000D03*
X212635000Y-63170000D03*
X212635000Y-66370000D03*
%TD*%
%TO.C,D7*%
X187415000Y-63170000D03*
X187415000Y-66370000D03*
X192315000Y-63170000D03*
X192315000Y-66370000D03*
%TD*%
%TO.C,D6*%
X167095000Y-63170000D03*
X167095000Y-66370000D03*
X171995000Y-63170000D03*
X171995000Y-66370000D03*
%TD*%
%TO.C,D5*%
X146775000Y-63170000D03*
X146775000Y-66370000D03*
X151675000Y-63170000D03*
X151675000Y-66370000D03*
%TD*%
%TO.C,D4*%
X127090000Y-63170000D03*
X127090000Y-66370000D03*
X131990000Y-63170000D03*
X131990000Y-66370000D03*
%TD*%
%TO.C,D3*%
X187415000Y-49200000D03*
X187415000Y-52400000D03*
X192315000Y-49200000D03*
X192315000Y-52400000D03*
%TD*%
%TO.C,D2*%
X167095000Y-49200000D03*
X167095000Y-52400000D03*
X171995000Y-49200000D03*
X171995000Y-52400000D03*
%TD*%
%TO.C,D1*%
X146775000Y-49200000D03*
X146775000Y-52400000D03*
X151675000Y-49200000D03*
X151675000Y-52400000D03*
%TD*%
M02*
