M48
; DRILL file {KiCad (5.1.9)-1} date 04/29/21 15:18:22
; FORMAT={-:-/ absolute / metric / decimal}
; #@! TF.CreationDate,2021-04-29T15:18:22+10:00
; #@! TF.GenerationSoftware,Kicad,Pcbnew,(5.1.9)-1
; #@! TF.FileFunction,NonPlated,1,2,NPTH
FMAT,2
METRIC
T1C1.700
T2C4.000
T3C5.000
%
G90
G05
T1
X133.985Y-74.93
X133.985Y-95.25
X133.985Y-115.57
X133.985Y-135.89
X144.145Y-74.93
X144.145Y-95.25
X144.145Y-115.57
X144.145Y-135.89
X154.305Y-74.93
X154.305Y-95.25
X154.305Y-115.57
X154.305Y-135.89
X164.465Y-74.93
X164.465Y-95.25
X164.465Y-115.57
X164.465Y-135.89
X174.625Y-74.93
X174.625Y-95.25
X174.625Y-115.57
X174.625Y-135.89
X184.785Y-74.93
X184.785Y-95.25
X184.785Y-115.57
X184.785Y-135.89
X194.945Y-74.93
X194.945Y-95.25
X194.945Y-115.57
X194.945Y-135.89
X205.105Y-74.93
X205.105Y-95.25
X205.105Y-115.57
X205.105Y-135.89
T2
X139.065Y-74.93
X139.065Y-95.25
X139.065Y-115.57
X139.065Y-135.89
X159.385Y-74.93
X159.385Y-95.25
X159.385Y-115.57
X159.385Y-135.89
X179.705Y-74.93
X179.705Y-95.25
X179.705Y-115.57
X179.705Y-135.89
X200.025Y-74.93
X200.025Y-95.25
X200.025Y-115.57
X200.025Y-135.89
T3
X97.282Y-51.816
X97.282Y-145.288
X219.71Y-51.816
X219.71Y-145.288
T0
M30
