%TF.GenerationSoftware,KiCad,Pcbnew,(5.1.9)-1*%
%TF.CreationDate,2021-04-29T15:18:10+10:00*%
%TF.ProjectId,MiniKeyboard,4d696e69-4b65-4796-926f-6172642e6b69,rev?*%
%TF.SameCoordinates,Original*%
%TF.FileFunction,Profile,NP*%
%FSLAX46Y46*%
G04 Gerber Fmt 4.6, Leading zero omitted, Abs format (unit mm)*
G04 Created by KiCad (PCBNEW (5.1.9)-1) date 2021-04-29 15:18:10*
%MOMM*%
%LPD*%
G01*
G04 APERTURE LIST*
%TA.AperFunction,Profile*%
%ADD10C,0.050000*%
%TD*%
G04 APERTURE END LIST*
D10*
X90170000Y-55880000D02*
X90170000Y-49530000D01*
X90170000Y-116840000D02*
X90170000Y-68580000D01*
X90170000Y-148590000D02*
X90170000Y-129540000D01*
X226060000Y-148590000D02*
X226060000Y-142240000D01*
X226060000Y-68580000D02*
X226060000Y-129540000D01*
X226060000Y-49530000D02*
X226060000Y-55880000D01*
X226060000Y-55880000D02*
G75*
G02*
X222250000Y-59690000I-3810000J0D01*
G01*
X222250000Y-64770000D02*
G75*
G02*
X219710000Y-62230000I0J2540000D01*
G01*
X219710000Y-62230000D02*
G75*
G02*
X222250000Y-59690000I2540000J0D01*
G01*
X222250000Y-64770000D02*
G75*
G02*
X226060000Y-68580000I0J-3810000D01*
G01*
X226060000Y-129540000D02*
G75*
G02*
X222250000Y-133350000I-3810000J0D01*
G01*
X222250000Y-138430000D02*
G75*
G02*
X219710000Y-135890000I0J2540000D01*
G01*
X219710000Y-135890000D02*
G75*
G02*
X222250000Y-133350000I2540000J0D01*
G01*
X222250000Y-138430000D02*
G75*
G02*
X226060000Y-142240000I0J-3810000D01*
G01*
X90170000Y-129540000D02*
G75*
G02*
X93980000Y-125730000I3810000J0D01*
G01*
X93980000Y-120650000D02*
G75*
G02*
X96520000Y-123190000I0J-2540000D01*
G01*
X96520000Y-123190000D02*
G75*
G02*
X93980000Y-125730000I-2540000J0D01*
G01*
X93980000Y-120650000D02*
G75*
G02*
X90170000Y-116840000I0J3810000D01*
G01*
X90170000Y-68580000D02*
G75*
G02*
X93980000Y-64770000I3810000J0D01*
G01*
X96520000Y-62230000D02*
G75*
G02*
X93980000Y-64770000I-2540000J0D01*
G01*
X93980000Y-59690000D02*
G75*
G02*
X96520000Y-62230000I0J-2540000D01*
G01*
X93980000Y-59690000D02*
G75*
G02*
X90170000Y-55880000I0J3810000D01*
G01*
X90170000Y-49530000D02*
G75*
G02*
X93980000Y-45720000I3810000J0D01*
G01*
X222250000Y-45720000D02*
G75*
G02*
X226060000Y-49530000I0J-3810000D01*
G01*
X226060000Y-148590000D02*
G75*
G02*
X222250000Y-152400000I-3810000J0D01*
G01*
X93980000Y-152400000D02*
G75*
G02*
X90170000Y-148590000I0J3810000D01*
G01*
X93980000Y-45720000D02*
X222250000Y-45720000D01*
X222250000Y-152400000D02*
X93980000Y-152400000D01*
M02*
