%TF.GenerationSoftware,KiCad,Pcbnew,(5.1.9)-1*%
%TF.CreationDate,2021-04-29T15:18:10+10:00*%
%TF.ProjectId,MiniKeyboard,4d696e69-4b65-4796-926f-6172642e6b69,rev?*%
%TF.SameCoordinates,Original*%
%TF.FileFunction,Soldermask,Bot*%
%TF.FilePolarity,Negative*%
%FSLAX46Y46*%
G04 Gerber Fmt 4.6, Leading zero omitted, Abs format (unit mm)*
G04 Created by KiCad (PCBNEW (5.1.9)-1) date 2021-04-29 15:18:10*
%MOMM*%
%LPD*%
G01*
G04 APERTURE LIST*
%ADD10R,0.800000X0.900000*%
%ADD11R,1.700000X1.700000*%
%ADD12C,1.700000*%
%ADD13C,4.000000*%
%ADD14C,2.200000*%
%ADD15O,1.700000X1.700000*%
%ADD16C,5.000000*%
G04 APERTURE END LIST*
D10*
%TO.C,D44*%
X203454000Y-141335000D03*
X204404000Y-139335000D03*
X202504000Y-139335000D03*
%TD*%
%TO.C,D43*%
X183134000Y-141462000D03*
X184084000Y-139462000D03*
X182184000Y-139462000D03*
%TD*%
%TO.C,D42*%
X162814000Y-141208000D03*
X163764000Y-139208000D03*
X161864000Y-139208000D03*
%TD*%
%TO.C,D41*%
X142240000Y-141462000D03*
X143190000Y-139462000D03*
X141290000Y-139462000D03*
%TD*%
%TO.C,D35*%
X203200000Y-121015000D03*
X204150000Y-119015000D03*
X202250000Y-119015000D03*
%TD*%
%TO.C,D34*%
X182880000Y-121015000D03*
X183830000Y-119015000D03*
X181930000Y-119015000D03*
%TD*%
%TO.C,D33*%
X162560000Y-121015000D03*
X163510000Y-119015000D03*
X161610000Y-119015000D03*
%TD*%
%TO.C,D32*%
X142240000Y-121015000D03*
X143190000Y-119015000D03*
X141290000Y-119015000D03*
%TD*%
%TO.C,D26*%
X203454000Y-100568000D03*
X204404000Y-98568000D03*
X202504000Y-98568000D03*
%TD*%
%TO.C,D25*%
X183134000Y-100568000D03*
X184084000Y-98568000D03*
X182184000Y-98568000D03*
%TD*%
%TO.C,D24*%
X162814000Y-100568000D03*
X163764000Y-98568000D03*
X161864000Y-98568000D03*
%TD*%
%TO.C,D23*%
X142494000Y-100568000D03*
X143444000Y-98568000D03*
X141544000Y-98568000D03*
%TD*%
%TO.C,D22*%
X203454000Y-80248000D03*
X204404000Y-78248000D03*
X202504000Y-78248000D03*
%TD*%
%TO.C,D21*%
X183134000Y-80384000D03*
X184084000Y-78384000D03*
X182184000Y-78384000D03*
%TD*%
%TO.C,D20*%
X162814000Y-80384000D03*
X163764000Y-78384000D03*
X161864000Y-78384000D03*
%TD*%
%TO.C,D19*%
X142494000Y-80502000D03*
X143444000Y-78502000D03*
X141544000Y-78502000D03*
%TD*%
D11*
%TO.C,U2*%
X103625000Y-75485000D03*
D12*
X103625000Y-83105000D03*
X103625000Y-80565000D03*
X118865000Y-80565000D03*
X118865000Y-85645000D03*
X103625000Y-85645000D03*
X103625000Y-88185000D03*
X118865000Y-90725000D03*
X118865000Y-93265000D03*
X118865000Y-75485000D03*
X103625000Y-93265000D03*
X118865000Y-83105000D03*
X118865000Y-78025000D03*
X118865000Y-95805000D03*
X103625000Y-95805000D03*
X118865000Y-88185000D03*
X118865000Y-98345000D03*
X103625000Y-98345000D03*
X103625000Y-90725000D03*
X103625000Y-78025000D03*
X118865000Y-100885000D03*
X103625000Y-103425000D03*
X118865000Y-118665000D03*
X118865000Y-121205000D03*
X103625000Y-123745000D03*
X118865000Y-113585000D03*
X118865000Y-123745000D03*
X118865000Y-116125000D03*
X103625000Y-105965000D03*
X103625000Y-108505000D03*
X118865000Y-108505000D03*
X118865000Y-103425000D03*
X118865000Y-105965000D03*
X103625000Y-111045000D03*
X103625000Y-121205000D03*
X103625000Y-100885000D03*
X103625000Y-116125000D03*
X118865000Y-111045000D03*
X103625000Y-113585000D03*
X103625000Y-118665000D03*
%TD*%
%TO.C,U1*%
X95885000Y-116840000D03*
X111125000Y-116840000D03*
X95885000Y-114300000D03*
X111125000Y-114300000D03*
X95885000Y-111760000D03*
X111125000Y-111760000D03*
X95885000Y-109220000D03*
X111125000Y-109220000D03*
X95885000Y-106680000D03*
X111125000Y-106680000D03*
X95885000Y-104140000D03*
X111125000Y-104140000D03*
X95885000Y-101600000D03*
X111125000Y-101600000D03*
X95885000Y-99060000D03*
X111125000Y-99060000D03*
X95885000Y-96520000D03*
X111125000Y-96520000D03*
X95885000Y-93980000D03*
X111125000Y-93980000D03*
X95885000Y-91440000D03*
X111125000Y-91440000D03*
X95885000Y-88900000D03*
X111125000Y-88900000D03*
X95885000Y-86360000D03*
X111125000Y-86360000D03*
X95885000Y-83820000D03*
X111125000Y-83820000D03*
X95885000Y-81280000D03*
X111125000Y-81280000D03*
X95885000Y-78740000D03*
X111125000Y-78740000D03*
X95885000Y-76200000D03*
X111125000Y-76200000D03*
X95885000Y-73660000D03*
X111125000Y-73660000D03*
X95885000Y-71120000D03*
X111125000Y-71120000D03*
D11*
X95885000Y-68580000D03*
D12*
X111125000Y-68580000D03*
%TD*%
%TO.C,SW16*%
X205105000Y-135890000D03*
X194945000Y-135890000D03*
D13*
X200025000Y-135890000D03*
D14*
X196215000Y-133350000D03*
X202565000Y-130810000D03*
%TD*%
D12*
%TO.C,SW15*%
X184785000Y-135890000D03*
X174625000Y-135890000D03*
D13*
X179705000Y-135890000D03*
D14*
X175895000Y-133350000D03*
X182245000Y-130810000D03*
%TD*%
D12*
%TO.C,SW14*%
X164465000Y-135890000D03*
X154305000Y-135890000D03*
D13*
X159385000Y-135890000D03*
D14*
X155575000Y-133350000D03*
X161925000Y-130810000D03*
%TD*%
D12*
%TO.C,SW13*%
X144145000Y-135890000D03*
X133985000Y-135890000D03*
D13*
X139065000Y-135890000D03*
D14*
X135255000Y-133350000D03*
X141605000Y-130810000D03*
%TD*%
D12*
%TO.C,SW12*%
X205105000Y-115570000D03*
X194945000Y-115570000D03*
D13*
X200025000Y-115570000D03*
D14*
X196215000Y-113030000D03*
X202565000Y-110490000D03*
%TD*%
D12*
%TO.C,SW11*%
X184785000Y-115570000D03*
X174625000Y-115570000D03*
D13*
X179705000Y-115570000D03*
D14*
X175895000Y-113030000D03*
X182245000Y-110490000D03*
%TD*%
D12*
%TO.C,SW10*%
X164465000Y-115570000D03*
X154305000Y-115570000D03*
D13*
X159385000Y-115570000D03*
D14*
X155575000Y-113030000D03*
X161925000Y-110490000D03*
%TD*%
D12*
%TO.C,SW9*%
X144145000Y-115570000D03*
X133985000Y-115570000D03*
D13*
X139065000Y-115570000D03*
D14*
X135255000Y-113030000D03*
X141605000Y-110490000D03*
%TD*%
D12*
%TO.C,SW8*%
X205105000Y-95250000D03*
X194945000Y-95250000D03*
D13*
X200025000Y-95250000D03*
D14*
X196215000Y-92710000D03*
X202565000Y-90170000D03*
%TD*%
D12*
%TO.C,SW7*%
X184785000Y-95250000D03*
X174625000Y-95250000D03*
D13*
X179705000Y-95250000D03*
D14*
X175895000Y-92710000D03*
X182245000Y-90170000D03*
%TD*%
D12*
%TO.C,SW6*%
X164465000Y-95250000D03*
X154305000Y-95250000D03*
D13*
X159385000Y-95250000D03*
D14*
X155575000Y-92710000D03*
X161925000Y-90170000D03*
%TD*%
D12*
%TO.C,SW5*%
X144145000Y-95250000D03*
X133985000Y-95250000D03*
D13*
X139065000Y-95250000D03*
D14*
X135255000Y-92710000D03*
X141605000Y-90170000D03*
%TD*%
D12*
%TO.C,SW4*%
X205105000Y-74930000D03*
X194945000Y-74930000D03*
D13*
X200025000Y-74930000D03*
D14*
X196215000Y-72390000D03*
X202565000Y-69850000D03*
%TD*%
D12*
%TO.C,SW3*%
X184785000Y-74930000D03*
X174625000Y-74930000D03*
D13*
X179705000Y-74930000D03*
D14*
X175895000Y-72390000D03*
X182245000Y-69850000D03*
%TD*%
D12*
%TO.C,SW2*%
X164465000Y-74930000D03*
X154305000Y-74930000D03*
D13*
X159385000Y-74930000D03*
D14*
X155575000Y-72390000D03*
X161925000Y-69850000D03*
%TD*%
D12*
%TO.C,SW1*%
X144145000Y-74930000D03*
X133985000Y-74930000D03*
D13*
X139065000Y-74930000D03*
D14*
X135255000Y-72390000D03*
X141605000Y-69850000D03*
%TD*%
D15*
%TO.C,J3*%
X223520000Y-127635000D03*
X223520000Y-125095000D03*
D11*
X223520000Y-122555000D03*
%TD*%
D15*
%TO.C,J2*%
X95885000Y-136525000D03*
X95885000Y-133985000D03*
X95885000Y-131445000D03*
D11*
X95885000Y-128905000D03*
%TD*%
D15*
%TO.C,J1*%
X106680000Y-146050000D03*
X109220000Y-146050000D03*
X111760000Y-146050000D03*
D11*
X114300000Y-146050000D03*
%TD*%
D16*
%TO.C,H4*%
X219710000Y-51816000D03*
%TD*%
%TO.C,H3*%
X97282000Y-145288000D03*
%TD*%
%TO.C,H2*%
X97282000Y-51816000D03*
%TD*%
%TO.C,H1*%
X219710000Y-145288000D03*
%TD*%
%TO.C,C30*%
G36*
G01*
X99281000Y-132138000D02*
X98331000Y-132138000D01*
G75*
G02*
X98081000Y-131888000I0J250000D01*
G01*
X98081000Y-131213000D01*
G75*
G02*
X98331000Y-130963000I250000J0D01*
G01*
X99281000Y-130963000D01*
G75*
G02*
X99531000Y-131213000I0J-250000D01*
G01*
X99531000Y-131888000D01*
G75*
G02*
X99281000Y-132138000I-250000J0D01*
G01*
G37*
G36*
G01*
X99281000Y-134213000D02*
X98331000Y-134213000D01*
G75*
G02*
X98081000Y-133963000I0J250000D01*
G01*
X98081000Y-133288000D01*
G75*
G02*
X98331000Y-133038000I250000J0D01*
G01*
X99281000Y-133038000D01*
G75*
G02*
X99531000Y-133288000I0J-250000D01*
G01*
X99531000Y-133963000D01*
G75*
G02*
X99281000Y-134213000I-250000J0D01*
G01*
G37*
%TD*%
%TO.C,C29*%
G36*
G01*
X113480000Y-143477000D02*
X113480000Y-142527000D01*
G75*
G02*
X113730000Y-142277000I250000J0D01*
G01*
X114405000Y-142277000D01*
G75*
G02*
X114655000Y-142527000I0J-250000D01*
G01*
X114655000Y-143477000D01*
G75*
G02*
X114405000Y-143727000I-250000J0D01*
G01*
X113730000Y-143727000D01*
G75*
G02*
X113480000Y-143477000I0J250000D01*
G01*
G37*
G36*
G01*
X111405000Y-143477000D02*
X111405000Y-142527000D01*
G75*
G02*
X111655000Y-142277000I250000J0D01*
G01*
X112330000Y-142277000D01*
G75*
G02*
X112580000Y-142527000I0J-250000D01*
G01*
X112580000Y-143477000D01*
G75*
G02*
X112330000Y-143727000I-250000J0D01*
G01*
X111655000Y-143727000D01*
G75*
G02*
X111405000Y-143477000I0J250000D01*
G01*
G37*
%TD*%
%TO.C,C28*%
G36*
G01*
X209710000Y-146500000D02*
X210660000Y-146500000D01*
G75*
G02*
X210910000Y-146750000I0J-250000D01*
G01*
X210910000Y-147425000D01*
G75*
G02*
X210660000Y-147675000I-250000J0D01*
G01*
X209710000Y-147675000D01*
G75*
G02*
X209460000Y-147425000I0J250000D01*
G01*
X209460000Y-146750000D01*
G75*
G02*
X209710000Y-146500000I250000J0D01*
G01*
G37*
G36*
G01*
X209710000Y-144425000D02*
X210660000Y-144425000D01*
G75*
G02*
X210910000Y-144675000I0J-250000D01*
G01*
X210910000Y-145350000D01*
G75*
G02*
X210660000Y-145600000I-250000J0D01*
G01*
X209710000Y-145600000D01*
G75*
G02*
X209460000Y-145350000I0J250000D01*
G01*
X209460000Y-144675000D01*
G75*
G02*
X209710000Y-144425000I250000J0D01*
G01*
G37*
%TD*%
%TO.C,C27*%
G36*
G01*
X189390000Y-146500000D02*
X190340000Y-146500000D01*
G75*
G02*
X190590000Y-146750000I0J-250000D01*
G01*
X190590000Y-147425000D01*
G75*
G02*
X190340000Y-147675000I-250000J0D01*
G01*
X189390000Y-147675000D01*
G75*
G02*
X189140000Y-147425000I0J250000D01*
G01*
X189140000Y-146750000D01*
G75*
G02*
X189390000Y-146500000I250000J0D01*
G01*
G37*
G36*
G01*
X189390000Y-144425000D02*
X190340000Y-144425000D01*
G75*
G02*
X190590000Y-144675000I0J-250000D01*
G01*
X190590000Y-145350000D01*
G75*
G02*
X190340000Y-145600000I-250000J0D01*
G01*
X189390000Y-145600000D01*
G75*
G02*
X189140000Y-145350000I0J250000D01*
G01*
X189140000Y-144675000D01*
G75*
G02*
X189390000Y-144425000I250000J0D01*
G01*
G37*
%TD*%
%TO.C,C26*%
G36*
G01*
X169070000Y-146500000D02*
X170020000Y-146500000D01*
G75*
G02*
X170270000Y-146750000I0J-250000D01*
G01*
X170270000Y-147425000D01*
G75*
G02*
X170020000Y-147675000I-250000J0D01*
G01*
X169070000Y-147675000D01*
G75*
G02*
X168820000Y-147425000I0J250000D01*
G01*
X168820000Y-146750000D01*
G75*
G02*
X169070000Y-146500000I250000J0D01*
G01*
G37*
G36*
G01*
X169070000Y-144425000D02*
X170020000Y-144425000D01*
G75*
G02*
X170270000Y-144675000I0J-250000D01*
G01*
X170270000Y-145350000D01*
G75*
G02*
X170020000Y-145600000I-250000J0D01*
G01*
X169070000Y-145600000D01*
G75*
G02*
X168820000Y-145350000I0J250000D01*
G01*
X168820000Y-144675000D01*
G75*
G02*
X169070000Y-144425000I250000J0D01*
G01*
G37*
%TD*%
%TO.C,C25*%
G36*
G01*
X148750000Y-146500000D02*
X149700000Y-146500000D01*
G75*
G02*
X149950000Y-146750000I0J-250000D01*
G01*
X149950000Y-147425000D01*
G75*
G02*
X149700000Y-147675000I-250000J0D01*
G01*
X148750000Y-147675000D01*
G75*
G02*
X148500000Y-147425000I0J250000D01*
G01*
X148500000Y-146750000D01*
G75*
G02*
X148750000Y-146500000I250000J0D01*
G01*
G37*
G36*
G01*
X148750000Y-144425000D02*
X149700000Y-144425000D01*
G75*
G02*
X149950000Y-144675000I0J-250000D01*
G01*
X149950000Y-145350000D01*
G75*
G02*
X149700000Y-145600000I-250000J0D01*
G01*
X148750000Y-145600000D01*
G75*
G02*
X148500000Y-145350000I0J250000D01*
G01*
X148500000Y-144675000D01*
G75*
G02*
X148750000Y-144425000I250000J0D01*
G01*
G37*
%TD*%
%TO.C,C24*%
G36*
G01*
X128430000Y-146500000D02*
X129380000Y-146500000D01*
G75*
G02*
X129630000Y-146750000I0J-250000D01*
G01*
X129630000Y-147425000D01*
G75*
G02*
X129380000Y-147675000I-250000J0D01*
G01*
X128430000Y-147675000D01*
G75*
G02*
X128180000Y-147425000I0J250000D01*
G01*
X128180000Y-146750000D01*
G75*
G02*
X128430000Y-146500000I250000J0D01*
G01*
G37*
G36*
G01*
X128430000Y-144425000D02*
X129380000Y-144425000D01*
G75*
G02*
X129630000Y-144675000I0J-250000D01*
G01*
X129630000Y-145350000D01*
G75*
G02*
X129380000Y-145600000I-250000J0D01*
G01*
X128430000Y-145600000D01*
G75*
G02*
X128180000Y-145350000I0J250000D01*
G01*
X128180000Y-144675000D01*
G75*
G02*
X128430000Y-144425000I250000J0D01*
G01*
G37*
%TD*%
%TO.C,C23*%
G36*
G01*
X209710000Y-126180000D02*
X210660000Y-126180000D01*
G75*
G02*
X210910000Y-126430000I0J-250000D01*
G01*
X210910000Y-127105000D01*
G75*
G02*
X210660000Y-127355000I-250000J0D01*
G01*
X209710000Y-127355000D01*
G75*
G02*
X209460000Y-127105000I0J250000D01*
G01*
X209460000Y-126430000D01*
G75*
G02*
X209710000Y-126180000I250000J0D01*
G01*
G37*
G36*
G01*
X209710000Y-124105000D02*
X210660000Y-124105000D01*
G75*
G02*
X210910000Y-124355000I0J-250000D01*
G01*
X210910000Y-125030000D01*
G75*
G02*
X210660000Y-125280000I-250000J0D01*
G01*
X209710000Y-125280000D01*
G75*
G02*
X209460000Y-125030000I0J250000D01*
G01*
X209460000Y-124355000D01*
G75*
G02*
X209710000Y-124105000I250000J0D01*
G01*
G37*
%TD*%
%TO.C,C22*%
G36*
G01*
X189390000Y-126180000D02*
X190340000Y-126180000D01*
G75*
G02*
X190590000Y-126430000I0J-250000D01*
G01*
X190590000Y-127105000D01*
G75*
G02*
X190340000Y-127355000I-250000J0D01*
G01*
X189390000Y-127355000D01*
G75*
G02*
X189140000Y-127105000I0J250000D01*
G01*
X189140000Y-126430000D01*
G75*
G02*
X189390000Y-126180000I250000J0D01*
G01*
G37*
G36*
G01*
X189390000Y-124105000D02*
X190340000Y-124105000D01*
G75*
G02*
X190590000Y-124355000I0J-250000D01*
G01*
X190590000Y-125030000D01*
G75*
G02*
X190340000Y-125280000I-250000J0D01*
G01*
X189390000Y-125280000D01*
G75*
G02*
X189140000Y-125030000I0J250000D01*
G01*
X189140000Y-124355000D01*
G75*
G02*
X189390000Y-124105000I250000J0D01*
G01*
G37*
%TD*%
%TO.C,C21*%
G36*
G01*
X169070000Y-126180000D02*
X170020000Y-126180000D01*
G75*
G02*
X170270000Y-126430000I0J-250000D01*
G01*
X170270000Y-127105000D01*
G75*
G02*
X170020000Y-127355000I-250000J0D01*
G01*
X169070000Y-127355000D01*
G75*
G02*
X168820000Y-127105000I0J250000D01*
G01*
X168820000Y-126430000D01*
G75*
G02*
X169070000Y-126180000I250000J0D01*
G01*
G37*
G36*
G01*
X169070000Y-124105000D02*
X170020000Y-124105000D01*
G75*
G02*
X170270000Y-124355000I0J-250000D01*
G01*
X170270000Y-125030000D01*
G75*
G02*
X170020000Y-125280000I-250000J0D01*
G01*
X169070000Y-125280000D01*
G75*
G02*
X168820000Y-125030000I0J250000D01*
G01*
X168820000Y-124355000D01*
G75*
G02*
X169070000Y-124105000I250000J0D01*
G01*
G37*
%TD*%
%TO.C,C20*%
G36*
G01*
X148750000Y-126180000D02*
X149700000Y-126180000D01*
G75*
G02*
X149950000Y-126430000I0J-250000D01*
G01*
X149950000Y-127105000D01*
G75*
G02*
X149700000Y-127355000I-250000J0D01*
G01*
X148750000Y-127355000D01*
G75*
G02*
X148500000Y-127105000I0J250000D01*
G01*
X148500000Y-126430000D01*
G75*
G02*
X148750000Y-126180000I250000J0D01*
G01*
G37*
G36*
G01*
X148750000Y-124105000D02*
X149700000Y-124105000D01*
G75*
G02*
X149950000Y-124355000I0J-250000D01*
G01*
X149950000Y-125030000D01*
G75*
G02*
X149700000Y-125280000I-250000J0D01*
G01*
X148750000Y-125280000D01*
G75*
G02*
X148500000Y-125030000I0J250000D01*
G01*
X148500000Y-124355000D01*
G75*
G02*
X148750000Y-124105000I250000J0D01*
G01*
G37*
%TD*%
%TO.C,C19*%
G36*
G01*
X128430000Y-126180000D02*
X129380000Y-126180000D01*
G75*
G02*
X129630000Y-126430000I0J-250000D01*
G01*
X129630000Y-127105000D01*
G75*
G02*
X129380000Y-127355000I-250000J0D01*
G01*
X128430000Y-127355000D01*
G75*
G02*
X128180000Y-127105000I0J250000D01*
G01*
X128180000Y-126430000D01*
G75*
G02*
X128430000Y-126180000I250000J0D01*
G01*
G37*
G36*
G01*
X128430000Y-124105000D02*
X129380000Y-124105000D01*
G75*
G02*
X129630000Y-124355000I0J-250000D01*
G01*
X129630000Y-125030000D01*
G75*
G02*
X129380000Y-125280000I-250000J0D01*
G01*
X128430000Y-125280000D01*
G75*
G02*
X128180000Y-125030000I0J250000D01*
G01*
X128180000Y-124355000D01*
G75*
G02*
X128430000Y-124105000I250000J0D01*
G01*
G37*
%TD*%
%TO.C,C18*%
G36*
G01*
X210345000Y-105860000D02*
X211295000Y-105860000D01*
G75*
G02*
X211545000Y-106110000I0J-250000D01*
G01*
X211545000Y-106785000D01*
G75*
G02*
X211295000Y-107035000I-250000J0D01*
G01*
X210345000Y-107035000D01*
G75*
G02*
X210095000Y-106785000I0J250000D01*
G01*
X210095000Y-106110000D01*
G75*
G02*
X210345000Y-105860000I250000J0D01*
G01*
G37*
G36*
G01*
X210345000Y-103785000D02*
X211295000Y-103785000D01*
G75*
G02*
X211545000Y-104035000I0J-250000D01*
G01*
X211545000Y-104710000D01*
G75*
G02*
X211295000Y-104960000I-250000J0D01*
G01*
X210345000Y-104960000D01*
G75*
G02*
X210095000Y-104710000I0J250000D01*
G01*
X210095000Y-104035000D01*
G75*
G02*
X210345000Y-103785000I250000J0D01*
G01*
G37*
%TD*%
%TO.C,C17*%
G36*
G01*
X189390000Y-105860000D02*
X190340000Y-105860000D01*
G75*
G02*
X190590000Y-106110000I0J-250000D01*
G01*
X190590000Y-106785000D01*
G75*
G02*
X190340000Y-107035000I-250000J0D01*
G01*
X189390000Y-107035000D01*
G75*
G02*
X189140000Y-106785000I0J250000D01*
G01*
X189140000Y-106110000D01*
G75*
G02*
X189390000Y-105860000I250000J0D01*
G01*
G37*
G36*
G01*
X189390000Y-103785000D02*
X190340000Y-103785000D01*
G75*
G02*
X190590000Y-104035000I0J-250000D01*
G01*
X190590000Y-104710000D01*
G75*
G02*
X190340000Y-104960000I-250000J0D01*
G01*
X189390000Y-104960000D01*
G75*
G02*
X189140000Y-104710000I0J250000D01*
G01*
X189140000Y-104035000D01*
G75*
G02*
X189390000Y-103785000I250000J0D01*
G01*
G37*
%TD*%
%TO.C,C16*%
G36*
G01*
X169070000Y-105860000D02*
X170020000Y-105860000D01*
G75*
G02*
X170270000Y-106110000I0J-250000D01*
G01*
X170270000Y-106785000D01*
G75*
G02*
X170020000Y-107035000I-250000J0D01*
G01*
X169070000Y-107035000D01*
G75*
G02*
X168820000Y-106785000I0J250000D01*
G01*
X168820000Y-106110000D01*
G75*
G02*
X169070000Y-105860000I250000J0D01*
G01*
G37*
G36*
G01*
X169070000Y-103785000D02*
X170020000Y-103785000D01*
G75*
G02*
X170270000Y-104035000I0J-250000D01*
G01*
X170270000Y-104710000D01*
G75*
G02*
X170020000Y-104960000I-250000J0D01*
G01*
X169070000Y-104960000D01*
G75*
G02*
X168820000Y-104710000I0J250000D01*
G01*
X168820000Y-104035000D01*
G75*
G02*
X169070000Y-103785000I250000J0D01*
G01*
G37*
%TD*%
%TO.C,C15*%
G36*
G01*
X148750000Y-105860000D02*
X149700000Y-105860000D01*
G75*
G02*
X149950000Y-106110000I0J-250000D01*
G01*
X149950000Y-106785000D01*
G75*
G02*
X149700000Y-107035000I-250000J0D01*
G01*
X148750000Y-107035000D01*
G75*
G02*
X148500000Y-106785000I0J250000D01*
G01*
X148500000Y-106110000D01*
G75*
G02*
X148750000Y-105860000I250000J0D01*
G01*
G37*
G36*
G01*
X148750000Y-103785000D02*
X149700000Y-103785000D01*
G75*
G02*
X149950000Y-104035000I0J-250000D01*
G01*
X149950000Y-104710000D01*
G75*
G02*
X149700000Y-104960000I-250000J0D01*
G01*
X148750000Y-104960000D01*
G75*
G02*
X148500000Y-104710000I0J250000D01*
G01*
X148500000Y-104035000D01*
G75*
G02*
X148750000Y-103785000I250000J0D01*
G01*
G37*
%TD*%
%TO.C,C14*%
G36*
G01*
X128430000Y-105860000D02*
X129380000Y-105860000D01*
G75*
G02*
X129630000Y-106110000I0J-250000D01*
G01*
X129630000Y-106785000D01*
G75*
G02*
X129380000Y-107035000I-250000J0D01*
G01*
X128430000Y-107035000D01*
G75*
G02*
X128180000Y-106785000I0J250000D01*
G01*
X128180000Y-106110000D01*
G75*
G02*
X128430000Y-105860000I250000J0D01*
G01*
G37*
G36*
G01*
X128430000Y-103785000D02*
X129380000Y-103785000D01*
G75*
G02*
X129630000Y-104035000I0J-250000D01*
G01*
X129630000Y-104710000D01*
G75*
G02*
X129380000Y-104960000I-250000J0D01*
G01*
X128430000Y-104960000D01*
G75*
G02*
X128180000Y-104710000I0J250000D01*
G01*
X128180000Y-104035000D01*
G75*
G02*
X128430000Y-103785000I250000J0D01*
G01*
G37*
%TD*%
%TO.C,C13*%
G36*
G01*
X210345000Y-85540000D02*
X211295000Y-85540000D01*
G75*
G02*
X211545000Y-85790000I0J-250000D01*
G01*
X211545000Y-86465000D01*
G75*
G02*
X211295000Y-86715000I-250000J0D01*
G01*
X210345000Y-86715000D01*
G75*
G02*
X210095000Y-86465000I0J250000D01*
G01*
X210095000Y-85790000D01*
G75*
G02*
X210345000Y-85540000I250000J0D01*
G01*
G37*
G36*
G01*
X210345000Y-83465000D02*
X211295000Y-83465000D01*
G75*
G02*
X211545000Y-83715000I0J-250000D01*
G01*
X211545000Y-84390000D01*
G75*
G02*
X211295000Y-84640000I-250000J0D01*
G01*
X210345000Y-84640000D01*
G75*
G02*
X210095000Y-84390000I0J250000D01*
G01*
X210095000Y-83715000D01*
G75*
G02*
X210345000Y-83465000I250000J0D01*
G01*
G37*
%TD*%
%TO.C,C12*%
G36*
G01*
X189390000Y-85540000D02*
X190340000Y-85540000D01*
G75*
G02*
X190590000Y-85790000I0J-250000D01*
G01*
X190590000Y-86465000D01*
G75*
G02*
X190340000Y-86715000I-250000J0D01*
G01*
X189390000Y-86715000D01*
G75*
G02*
X189140000Y-86465000I0J250000D01*
G01*
X189140000Y-85790000D01*
G75*
G02*
X189390000Y-85540000I250000J0D01*
G01*
G37*
G36*
G01*
X189390000Y-83465000D02*
X190340000Y-83465000D01*
G75*
G02*
X190590000Y-83715000I0J-250000D01*
G01*
X190590000Y-84390000D01*
G75*
G02*
X190340000Y-84640000I-250000J0D01*
G01*
X189390000Y-84640000D01*
G75*
G02*
X189140000Y-84390000I0J250000D01*
G01*
X189140000Y-83715000D01*
G75*
G02*
X189390000Y-83465000I250000J0D01*
G01*
G37*
%TD*%
%TO.C,C11*%
G36*
G01*
X169070000Y-85540000D02*
X170020000Y-85540000D01*
G75*
G02*
X170270000Y-85790000I0J-250000D01*
G01*
X170270000Y-86465000D01*
G75*
G02*
X170020000Y-86715000I-250000J0D01*
G01*
X169070000Y-86715000D01*
G75*
G02*
X168820000Y-86465000I0J250000D01*
G01*
X168820000Y-85790000D01*
G75*
G02*
X169070000Y-85540000I250000J0D01*
G01*
G37*
G36*
G01*
X169070000Y-83465000D02*
X170020000Y-83465000D01*
G75*
G02*
X170270000Y-83715000I0J-250000D01*
G01*
X170270000Y-84390000D01*
G75*
G02*
X170020000Y-84640000I-250000J0D01*
G01*
X169070000Y-84640000D01*
G75*
G02*
X168820000Y-84390000I0J250000D01*
G01*
X168820000Y-83715000D01*
G75*
G02*
X169070000Y-83465000I250000J0D01*
G01*
G37*
%TD*%
%TO.C,C10*%
G36*
G01*
X148750000Y-85540000D02*
X149700000Y-85540000D01*
G75*
G02*
X149950000Y-85790000I0J-250000D01*
G01*
X149950000Y-86465000D01*
G75*
G02*
X149700000Y-86715000I-250000J0D01*
G01*
X148750000Y-86715000D01*
G75*
G02*
X148500000Y-86465000I0J250000D01*
G01*
X148500000Y-85790000D01*
G75*
G02*
X148750000Y-85540000I250000J0D01*
G01*
G37*
G36*
G01*
X148750000Y-83465000D02*
X149700000Y-83465000D01*
G75*
G02*
X149950000Y-83715000I0J-250000D01*
G01*
X149950000Y-84390000D01*
G75*
G02*
X149700000Y-84640000I-250000J0D01*
G01*
X148750000Y-84640000D01*
G75*
G02*
X148500000Y-84390000I0J250000D01*
G01*
X148500000Y-83715000D01*
G75*
G02*
X148750000Y-83465000I250000J0D01*
G01*
G37*
%TD*%
%TO.C,C9*%
G36*
G01*
X128430000Y-85540000D02*
X129380000Y-85540000D01*
G75*
G02*
X129630000Y-85790000I0J-250000D01*
G01*
X129630000Y-86465000D01*
G75*
G02*
X129380000Y-86715000I-250000J0D01*
G01*
X128430000Y-86715000D01*
G75*
G02*
X128180000Y-86465000I0J250000D01*
G01*
X128180000Y-85790000D01*
G75*
G02*
X128430000Y-85540000I250000J0D01*
G01*
G37*
G36*
G01*
X128430000Y-83465000D02*
X129380000Y-83465000D01*
G75*
G02*
X129630000Y-83715000I0J-250000D01*
G01*
X129630000Y-84390000D01*
G75*
G02*
X129380000Y-84640000I-250000J0D01*
G01*
X128430000Y-84640000D01*
G75*
G02*
X128180000Y-84390000I0J250000D01*
G01*
X128180000Y-83715000D01*
G75*
G02*
X128430000Y-83465000I250000J0D01*
G01*
G37*
%TD*%
%TO.C,C8*%
G36*
G01*
X209710000Y-65220000D02*
X210660000Y-65220000D01*
G75*
G02*
X210910000Y-65470000I0J-250000D01*
G01*
X210910000Y-66145000D01*
G75*
G02*
X210660000Y-66395000I-250000J0D01*
G01*
X209710000Y-66395000D01*
G75*
G02*
X209460000Y-66145000I0J250000D01*
G01*
X209460000Y-65470000D01*
G75*
G02*
X209710000Y-65220000I250000J0D01*
G01*
G37*
G36*
G01*
X209710000Y-63145000D02*
X210660000Y-63145000D01*
G75*
G02*
X210910000Y-63395000I0J-250000D01*
G01*
X210910000Y-64070000D01*
G75*
G02*
X210660000Y-64320000I-250000J0D01*
G01*
X209710000Y-64320000D01*
G75*
G02*
X209460000Y-64070000I0J250000D01*
G01*
X209460000Y-63395000D01*
G75*
G02*
X209710000Y-63145000I250000J0D01*
G01*
G37*
%TD*%
%TO.C,C7*%
G36*
G01*
X189390000Y-65220000D02*
X190340000Y-65220000D01*
G75*
G02*
X190590000Y-65470000I0J-250000D01*
G01*
X190590000Y-66145000D01*
G75*
G02*
X190340000Y-66395000I-250000J0D01*
G01*
X189390000Y-66395000D01*
G75*
G02*
X189140000Y-66145000I0J250000D01*
G01*
X189140000Y-65470000D01*
G75*
G02*
X189390000Y-65220000I250000J0D01*
G01*
G37*
G36*
G01*
X189390000Y-63145000D02*
X190340000Y-63145000D01*
G75*
G02*
X190590000Y-63395000I0J-250000D01*
G01*
X190590000Y-64070000D01*
G75*
G02*
X190340000Y-64320000I-250000J0D01*
G01*
X189390000Y-64320000D01*
G75*
G02*
X189140000Y-64070000I0J250000D01*
G01*
X189140000Y-63395000D01*
G75*
G02*
X189390000Y-63145000I250000J0D01*
G01*
G37*
%TD*%
%TO.C,C6*%
G36*
G01*
X169070000Y-65220000D02*
X170020000Y-65220000D01*
G75*
G02*
X170270000Y-65470000I0J-250000D01*
G01*
X170270000Y-66145000D01*
G75*
G02*
X170020000Y-66395000I-250000J0D01*
G01*
X169070000Y-66395000D01*
G75*
G02*
X168820000Y-66145000I0J250000D01*
G01*
X168820000Y-65470000D01*
G75*
G02*
X169070000Y-65220000I250000J0D01*
G01*
G37*
G36*
G01*
X169070000Y-63145000D02*
X170020000Y-63145000D01*
G75*
G02*
X170270000Y-63395000I0J-250000D01*
G01*
X170270000Y-64070000D01*
G75*
G02*
X170020000Y-64320000I-250000J0D01*
G01*
X169070000Y-64320000D01*
G75*
G02*
X168820000Y-64070000I0J250000D01*
G01*
X168820000Y-63395000D01*
G75*
G02*
X169070000Y-63145000I250000J0D01*
G01*
G37*
%TD*%
%TO.C,C5*%
G36*
G01*
X148750000Y-65220000D02*
X149700000Y-65220000D01*
G75*
G02*
X149950000Y-65470000I0J-250000D01*
G01*
X149950000Y-66145000D01*
G75*
G02*
X149700000Y-66395000I-250000J0D01*
G01*
X148750000Y-66395000D01*
G75*
G02*
X148500000Y-66145000I0J250000D01*
G01*
X148500000Y-65470000D01*
G75*
G02*
X148750000Y-65220000I250000J0D01*
G01*
G37*
G36*
G01*
X148750000Y-63145000D02*
X149700000Y-63145000D01*
G75*
G02*
X149950000Y-63395000I0J-250000D01*
G01*
X149950000Y-64070000D01*
G75*
G02*
X149700000Y-64320000I-250000J0D01*
G01*
X148750000Y-64320000D01*
G75*
G02*
X148500000Y-64070000I0J250000D01*
G01*
X148500000Y-63395000D01*
G75*
G02*
X148750000Y-63145000I250000J0D01*
G01*
G37*
%TD*%
%TO.C,C4*%
G36*
G01*
X129065000Y-65220000D02*
X130015000Y-65220000D01*
G75*
G02*
X130265000Y-65470000I0J-250000D01*
G01*
X130265000Y-66145000D01*
G75*
G02*
X130015000Y-66395000I-250000J0D01*
G01*
X129065000Y-66395000D01*
G75*
G02*
X128815000Y-66145000I0J250000D01*
G01*
X128815000Y-65470000D01*
G75*
G02*
X129065000Y-65220000I250000J0D01*
G01*
G37*
G36*
G01*
X129065000Y-63145000D02*
X130015000Y-63145000D01*
G75*
G02*
X130265000Y-63395000I0J-250000D01*
G01*
X130265000Y-64070000D01*
G75*
G02*
X130015000Y-64320000I-250000J0D01*
G01*
X129065000Y-64320000D01*
G75*
G02*
X128815000Y-64070000I0J250000D01*
G01*
X128815000Y-63395000D01*
G75*
G02*
X129065000Y-63145000I250000J0D01*
G01*
G37*
%TD*%
%TO.C,C3*%
G36*
G01*
X189390000Y-51250000D02*
X190340000Y-51250000D01*
G75*
G02*
X190590000Y-51500000I0J-250000D01*
G01*
X190590000Y-52175000D01*
G75*
G02*
X190340000Y-52425000I-250000J0D01*
G01*
X189390000Y-52425000D01*
G75*
G02*
X189140000Y-52175000I0J250000D01*
G01*
X189140000Y-51500000D01*
G75*
G02*
X189390000Y-51250000I250000J0D01*
G01*
G37*
G36*
G01*
X189390000Y-49175000D02*
X190340000Y-49175000D01*
G75*
G02*
X190590000Y-49425000I0J-250000D01*
G01*
X190590000Y-50100000D01*
G75*
G02*
X190340000Y-50350000I-250000J0D01*
G01*
X189390000Y-50350000D01*
G75*
G02*
X189140000Y-50100000I0J250000D01*
G01*
X189140000Y-49425000D01*
G75*
G02*
X189390000Y-49175000I250000J0D01*
G01*
G37*
%TD*%
%TO.C,C2*%
G36*
G01*
X169070000Y-51250000D02*
X170020000Y-51250000D01*
G75*
G02*
X170270000Y-51500000I0J-250000D01*
G01*
X170270000Y-52175000D01*
G75*
G02*
X170020000Y-52425000I-250000J0D01*
G01*
X169070000Y-52425000D01*
G75*
G02*
X168820000Y-52175000I0J250000D01*
G01*
X168820000Y-51500000D01*
G75*
G02*
X169070000Y-51250000I250000J0D01*
G01*
G37*
G36*
G01*
X169070000Y-49175000D02*
X170020000Y-49175000D01*
G75*
G02*
X170270000Y-49425000I0J-250000D01*
G01*
X170270000Y-50100000D01*
G75*
G02*
X170020000Y-50350000I-250000J0D01*
G01*
X169070000Y-50350000D01*
G75*
G02*
X168820000Y-50100000I0J250000D01*
G01*
X168820000Y-49425000D01*
G75*
G02*
X169070000Y-49175000I250000J0D01*
G01*
G37*
%TD*%
%TO.C,C1*%
G36*
G01*
X148750000Y-51250000D02*
X149700000Y-51250000D01*
G75*
G02*
X149950000Y-51500000I0J-250000D01*
G01*
X149950000Y-52175000D01*
G75*
G02*
X149700000Y-52425000I-250000J0D01*
G01*
X148750000Y-52425000D01*
G75*
G02*
X148500000Y-52175000I0J250000D01*
G01*
X148500000Y-51500000D01*
G75*
G02*
X148750000Y-51250000I250000J0D01*
G01*
G37*
G36*
G01*
X148750000Y-49175000D02*
X149700000Y-49175000D01*
G75*
G02*
X149950000Y-49425000I0J-250000D01*
G01*
X149950000Y-50100000D01*
G75*
G02*
X149700000Y-50350000I-250000J0D01*
G01*
X148750000Y-50350000D01*
G75*
G02*
X148500000Y-50100000I0J250000D01*
G01*
X148500000Y-49425000D01*
G75*
G02*
X148750000Y-49175000I250000J0D01*
G01*
G37*
%TD*%
M02*
