G04 #@! TF.GenerationSoftware,KiCad,Pcbnew,(5.1.5)-2*
G04 #@! TF.CreationDate,2020-04-12T20:47:40+10:00*
G04 #@! TF.ProjectId,stm32-energymon,73746d33-322d-4656-9e65-7267796d6f6e,rev?*
G04 #@! TF.SameCoordinates,Original*
G04 #@! TF.FileFunction,Legend,Bot*
G04 #@! TF.FilePolarity,Positive*
%FSLAX46Y46*%
G04 Gerber Fmt 4.6, Leading zero omitted, Abs format (unit mm)*
G04 Created by KiCad (PCBNEW (5.1.5)-2) date 2020-04-12 20:47:40*
%MOMM*%
%LPD*%
G04 APERTURE LIST*
%ADD10C,0.120000*%
%ADD11C,0.150000*%
G04 APERTURE END LIST*
D10*
X111125000Y-79883000D02*
X111125000Y-86868000D01*
X109474000Y-83185000D02*
X112776000Y-83185000D01*
X109474000Y-79883000D02*
X109474000Y-86868000D01*
X107823000Y-86868000D02*
X107823000Y-79883000D01*
X112776000Y-86868000D02*
X107823000Y-86868000D01*
X112776000Y-79883000D02*
X112776000Y-86868000D01*
X107823000Y-79883000D02*
X112776000Y-79883000D01*
D11*
X108165380Y-82677095D02*
X108165380Y-83248523D01*
X109165380Y-82962809D02*
X108165380Y-82962809D01*
X109117761Y-83534238D02*
X109165380Y-83677095D01*
X109165380Y-83915190D01*
X109117761Y-84010428D01*
X109070142Y-84058047D01*
X108974904Y-84105666D01*
X108879666Y-84105666D01*
X108784428Y-84058047D01*
X108736809Y-84010428D01*
X108689190Y-83915190D01*
X108641571Y-83724714D01*
X108593952Y-83629476D01*
X108546333Y-83581857D01*
X108451095Y-83534238D01*
X108355857Y-83534238D01*
X108260619Y-83581857D01*
X108213000Y-83629476D01*
X108165380Y-83724714D01*
X108165380Y-83962809D01*
X108213000Y-84105666D01*
X110815380Y-80558047D02*
X109815380Y-80558047D01*
X110815380Y-81605666D02*
X110339190Y-81272333D01*
X110815380Y-81034238D02*
X109815380Y-81034238D01*
X109815380Y-81415190D01*
X109863000Y-81510428D01*
X109910619Y-81558047D01*
X110005857Y-81605666D01*
X110148714Y-81605666D01*
X110243952Y-81558047D01*
X110291571Y-81510428D01*
X110339190Y-81415190D01*
X110339190Y-81034238D01*
X110910619Y-82700904D02*
X110863000Y-82605666D01*
X110767761Y-82510428D01*
X110624904Y-82367571D01*
X110577285Y-82272333D01*
X110577285Y-82177095D01*
X110815380Y-82224714D02*
X110767761Y-82129476D01*
X110672523Y-82034238D01*
X110482047Y-81986619D01*
X110148714Y-81986619D01*
X109958238Y-82034238D01*
X109863000Y-82129476D01*
X109815380Y-82224714D01*
X109815380Y-82415190D01*
X109863000Y-82510428D01*
X109958238Y-82605666D01*
X110148714Y-82653285D01*
X110482047Y-82653285D01*
X110672523Y-82605666D01*
X110767761Y-82510428D01*
X110815380Y-82415190D01*
X110815380Y-82224714D01*
X110815380Y-83843761D02*
X109815380Y-83843761D01*
X109815380Y-84224714D01*
X109863000Y-84319952D01*
X109910619Y-84367571D01*
X110005857Y-84415190D01*
X110148714Y-84415190D01*
X110243952Y-84367571D01*
X110291571Y-84319952D01*
X110339190Y-84224714D01*
X110339190Y-83843761D01*
X110291571Y-85177095D02*
X110339190Y-85319952D01*
X110386809Y-85367571D01*
X110482047Y-85415190D01*
X110624904Y-85415190D01*
X110720142Y-85367571D01*
X110767761Y-85319952D01*
X110815380Y-85224714D01*
X110815380Y-84843761D01*
X109815380Y-84843761D01*
X109815380Y-85177095D01*
X109863000Y-85272333D01*
X109910619Y-85319952D01*
X110005857Y-85367571D01*
X110101095Y-85367571D01*
X110196333Y-85319952D01*
X110243952Y-85272333D01*
X110291571Y-85177095D01*
X110291571Y-84843761D01*
X109815380Y-86319952D02*
X109815380Y-85843761D01*
X110291571Y-85796142D01*
X110243952Y-85843761D01*
X110196333Y-85939000D01*
X110196333Y-86177095D01*
X110243952Y-86272333D01*
X110291571Y-86319952D01*
X110386809Y-86367571D01*
X110624904Y-86367571D01*
X110720142Y-86319952D01*
X110767761Y-86272333D01*
X110815380Y-86177095D01*
X110815380Y-85939000D01*
X110767761Y-85843761D01*
X110720142Y-85796142D01*
X112370142Y-81034238D02*
X112417761Y-80986619D01*
X112465380Y-80843761D01*
X112465380Y-80748523D01*
X112417761Y-80605666D01*
X112322523Y-80510428D01*
X112227285Y-80462809D01*
X112036809Y-80415190D01*
X111893952Y-80415190D01*
X111703476Y-80462809D01*
X111608238Y-80510428D01*
X111513000Y-80605666D01*
X111465380Y-80748523D01*
X111465380Y-80843761D01*
X111513000Y-80986619D01*
X111560619Y-81034238D01*
X112417761Y-81415190D02*
X112465380Y-81558047D01*
X112465380Y-81796142D01*
X112417761Y-81891380D01*
X112370142Y-81939000D01*
X112274904Y-81986619D01*
X112179666Y-81986619D01*
X112084428Y-81939000D01*
X112036809Y-81891380D01*
X111989190Y-81796142D01*
X111941571Y-81605666D01*
X111893952Y-81510428D01*
X111846333Y-81462809D01*
X111751095Y-81415190D01*
X111655857Y-81415190D01*
X111560619Y-81462809D01*
X111513000Y-81510428D01*
X111465380Y-81605666D01*
X111465380Y-81843761D01*
X111513000Y-81986619D01*
X112465380Y-83939000D02*
X111465380Y-83939000D01*
X111465380Y-84319952D01*
X111513000Y-84415190D01*
X111560619Y-84462809D01*
X111655857Y-84510428D01*
X111798714Y-84510428D01*
X111893952Y-84462809D01*
X111941571Y-84415190D01*
X111989190Y-84319952D01*
X111989190Y-83939000D01*
X111941571Y-85272333D02*
X111989190Y-85415190D01*
X112036809Y-85462809D01*
X112132047Y-85510428D01*
X112274904Y-85510428D01*
X112370142Y-85462809D01*
X112417761Y-85415190D01*
X112465380Y-85319952D01*
X112465380Y-84939000D01*
X111465380Y-84939000D01*
X111465380Y-85272333D01*
X111513000Y-85367571D01*
X111560619Y-85415190D01*
X111655857Y-85462809D01*
X111751095Y-85462809D01*
X111846333Y-85415190D01*
X111893952Y-85367571D01*
X111941571Y-85272333D01*
X111941571Y-84939000D01*
X111798714Y-86367571D02*
X112465380Y-86367571D01*
X111417761Y-86129476D02*
X112132047Y-85891380D01*
X112132047Y-86510428D01*
D10*
X110236000Y-62992000D02*
X110236000Y-69977000D01*
X108585000Y-66548000D02*
X112141000Y-66548000D01*
X108585000Y-62992000D02*
X108585000Y-69977000D01*
X112141000Y-62992000D02*
X106807000Y-62992000D01*
X112141000Y-69977000D02*
X112141000Y-62992000D01*
X106807000Y-69977000D02*
X112141000Y-69977000D01*
X106807000Y-62992000D02*
X106807000Y-69977000D01*
X106299000Y-78613000D02*
X106299000Y-70866000D01*
X104648000Y-70866000D02*
X104648000Y-78613000D01*
X102997000Y-70866000D02*
X102997000Y-78613000D01*
X101600000Y-74295000D02*
X108077000Y-74295000D01*
X101473000Y-70866000D02*
X101473000Y-78613000D01*
X99949000Y-78613000D02*
X99949000Y-70866000D01*
X108077000Y-78613000D02*
X99949000Y-78613000D01*
X108077000Y-70866000D02*
X108077000Y-78613000D01*
X99949000Y-70866000D02*
X108077000Y-70866000D01*
X102997000Y-61976000D02*
X102997000Y-70612000D01*
X104648000Y-61976000D02*
X104648000Y-70612000D01*
X101473000Y-66548000D02*
X106299000Y-66548000D01*
X101473000Y-70612000D02*
X101473000Y-66548000D01*
X101473000Y-61976000D02*
X101473000Y-70612000D01*
X106299000Y-61976000D02*
X99949000Y-61976000D01*
X106299000Y-70612000D02*
X106299000Y-61976000D01*
X99949000Y-70612000D02*
X106299000Y-70612000D01*
X99949000Y-61976000D02*
X99949000Y-70612000D01*
D11*
X101163380Y-73604523D02*
X101163380Y-73128333D01*
X100163380Y-73128333D01*
X101068142Y-74509285D02*
X101115761Y-74461666D01*
X101163380Y-74318809D01*
X101163380Y-74223571D01*
X101115761Y-74080714D01*
X101020523Y-73985476D01*
X100925285Y-73937857D01*
X100734809Y-73890238D01*
X100591952Y-73890238D01*
X100401476Y-73937857D01*
X100306238Y-73985476D01*
X100211000Y-74080714D01*
X100163380Y-74223571D01*
X100163380Y-74318809D01*
X100211000Y-74461666D01*
X100258619Y-74509285D01*
X101163380Y-74937857D02*
X100163380Y-74937857D01*
X100163380Y-75175952D01*
X100211000Y-75318809D01*
X100306238Y-75414047D01*
X100401476Y-75461666D01*
X100591952Y-75509285D01*
X100734809Y-75509285D01*
X100925285Y-75461666D01*
X101020523Y-75414047D01*
X101115761Y-75318809D01*
X101163380Y-75175952D01*
X101163380Y-74937857D01*
X101115761Y-65524190D02*
X101163380Y-65667047D01*
X101163380Y-65905142D01*
X101115761Y-66000380D01*
X101068142Y-66048000D01*
X100972904Y-66095619D01*
X100877666Y-66095619D01*
X100782428Y-66048000D01*
X100734809Y-66000380D01*
X100687190Y-65905142D01*
X100639571Y-65714666D01*
X100591952Y-65619428D01*
X100544333Y-65571809D01*
X100449095Y-65524190D01*
X100353857Y-65524190D01*
X100258619Y-65571809D01*
X100211000Y-65619428D01*
X100163380Y-65714666D01*
X100163380Y-65952761D01*
X100211000Y-66095619D01*
X101163380Y-66524190D02*
X100163380Y-66524190D01*
X100163380Y-66905142D01*
X100211000Y-67000380D01*
X100258619Y-67048000D01*
X100353857Y-67095619D01*
X100496714Y-67095619D01*
X100591952Y-67048000D01*
X100639571Y-67000380D01*
X100687190Y-66905142D01*
X100687190Y-66524190D01*
X101163380Y-67524190D02*
X100163380Y-67524190D01*
X108276380Y-65571809D02*
X107276380Y-65571809D01*
X107371619Y-66000380D02*
X107324000Y-66048000D01*
X107276380Y-66143238D01*
X107276380Y-66381333D01*
X107324000Y-66476571D01*
X107371619Y-66524190D01*
X107466857Y-66571809D01*
X107562095Y-66571809D01*
X107704952Y-66524190D01*
X108276380Y-65952761D01*
X108276380Y-66571809D01*
X108181142Y-67571809D02*
X108228761Y-67524190D01*
X108276380Y-67381333D01*
X108276380Y-67286095D01*
X108228761Y-67143238D01*
X108133523Y-67048000D01*
X108038285Y-67000380D01*
X107847809Y-66952761D01*
X107704952Y-66952761D01*
X107514476Y-67000380D01*
X107419238Y-67048000D01*
X107324000Y-67143238D01*
X107276380Y-67286095D01*
X107276380Y-67381333D01*
X107324000Y-67524190D01*
X107371619Y-67571809D01*
X109878761Y-63476571D02*
X109926380Y-63619428D01*
X109926380Y-63857523D01*
X109878761Y-63952761D01*
X109831142Y-64000380D01*
X109735904Y-64048000D01*
X109640666Y-64048000D01*
X109545428Y-64000380D01*
X109497809Y-63952761D01*
X109450190Y-63857523D01*
X109402571Y-63667047D01*
X109354952Y-63571809D01*
X109307333Y-63524190D01*
X109212095Y-63476571D01*
X109116857Y-63476571D01*
X109021619Y-63524190D01*
X108974000Y-63571809D01*
X108926380Y-63667047D01*
X108926380Y-63905142D01*
X108974000Y-64048000D01*
X109926380Y-64476571D02*
X108926380Y-64476571D01*
X108926380Y-64714666D01*
X108974000Y-64857523D01*
X109069238Y-64952761D01*
X109164476Y-65000380D01*
X109354952Y-65048000D01*
X109497809Y-65048000D01*
X109688285Y-65000380D01*
X109783523Y-64952761D01*
X109878761Y-64857523D01*
X109926380Y-64714666D01*
X109926380Y-64476571D01*
X109640666Y-65428952D02*
X109640666Y-65905142D01*
X109926380Y-65333714D02*
X108926380Y-65667047D01*
X109926380Y-66000380D01*
X109926380Y-67095619D02*
X108926380Y-67095619D01*
X108926380Y-67476571D01*
X108974000Y-67571809D01*
X109021619Y-67619428D01*
X109116857Y-67667047D01*
X109259714Y-67667047D01*
X109354952Y-67619428D01*
X109402571Y-67571809D01*
X109450190Y-67476571D01*
X109450190Y-67095619D01*
X109402571Y-68428952D02*
X109450190Y-68571809D01*
X109497809Y-68619428D01*
X109593047Y-68667047D01*
X109735904Y-68667047D01*
X109831142Y-68619428D01*
X109878761Y-68571809D01*
X109926380Y-68476571D01*
X109926380Y-68095619D01*
X108926380Y-68095619D01*
X108926380Y-68428952D01*
X108974000Y-68524190D01*
X109021619Y-68571809D01*
X109116857Y-68619428D01*
X109212095Y-68619428D01*
X109307333Y-68571809D01*
X109354952Y-68524190D01*
X109402571Y-68428952D01*
X109402571Y-68095619D01*
X109926380Y-69143238D02*
X109926380Y-69333714D01*
X109878761Y-69428952D01*
X109831142Y-69476571D01*
X109688285Y-69571809D01*
X109497809Y-69619428D01*
X109116857Y-69619428D01*
X109021619Y-69571809D01*
X108974000Y-69524190D01*
X108926380Y-69428952D01*
X108926380Y-69238476D01*
X108974000Y-69143238D01*
X109021619Y-69095619D01*
X109116857Y-69048000D01*
X109354952Y-69048000D01*
X109450190Y-69095619D01*
X109497809Y-69143238D01*
X109545428Y-69238476D01*
X109545428Y-69428952D01*
X109497809Y-69524190D01*
X109450190Y-69571809D01*
X109354952Y-69619428D01*
X111528761Y-63500380D02*
X111576380Y-63643238D01*
X111576380Y-63881333D01*
X111528761Y-63976571D01*
X111481142Y-64024190D01*
X111385904Y-64071809D01*
X111290666Y-64071809D01*
X111195428Y-64024190D01*
X111147809Y-63976571D01*
X111100190Y-63881333D01*
X111052571Y-63690857D01*
X111004952Y-63595619D01*
X110957333Y-63548000D01*
X110862095Y-63500380D01*
X110766857Y-63500380D01*
X110671619Y-63548000D01*
X110624000Y-63595619D01*
X110576380Y-63690857D01*
X110576380Y-63928952D01*
X110624000Y-64071809D01*
X111481142Y-65071809D02*
X111528761Y-65024190D01*
X111576380Y-64881333D01*
X111576380Y-64786095D01*
X111528761Y-64643238D01*
X111433523Y-64548000D01*
X111338285Y-64500380D01*
X111147809Y-64452761D01*
X111004952Y-64452761D01*
X110814476Y-64500380D01*
X110719238Y-64548000D01*
X110624000Y-64643238D01*
X110576380Y-64786095D01*
X110576380Y-64881333D01*
X110624000Y-65024190D01*
X110671619Y-65071809D01*
X111576380Y-65976571D02*
X111576380Y-65500380D01*
X110576380Y-65500380D01*
X111576380Y-67071809D02*
X110576380Y-67071809D01*
X110576380Y-67452761D01*
X110624000Y-67548000D01*
X110671619Y-67595619D01*
X110766857Y-67643238D01*
X110909714Y-67643238D01*
X111004952Y-67595619D01*
X111052571Y-67548000D01*
X111100190Y-67452761D01*
X111100190Y-67071809D01*
X111052571Y-68405142D02*
X111100190Y-68548000D01*
X111147809Y-68595619D01*
X111243047Y-68643238D01*
X111385904Y-68643238D01*
X111481142Y-68595619D01*
X111528761Y-68548000D01*
X111576380Y-68452761D01*
X111576380Y-68071809D01*
X110576380Y-68071809D01*
X110576380Y-68405142D01*
X110624000Y-68500380D01*
X110671619Y-68548000D01*
X110766857Y-68595619D01*
X110862095Y-68595619D01*
X110957333Y-68548000D01*
X111004952Y-68500380D01*
X111052571Y-68405142D01*
X111052571Y-68071809D01*
X111004952Y-69214666D02*
X110957333Y-69119428D01*
X110909714Y-69071809D01*
X110814476Y-69024190D01*
X110766857Y-69024190D01*
X110671619Y-69071809D01*
X110624000Y-69119428D01*
X110576380Y-69214666D01*
X110576380Y-69405142D01*
X110624000Y-69500380D01*
X110671619Y-69548000D01*
X110766857Y-69595619D01*
X110814476Y-69595619D01*
X110909714Y-69548000D01*
X110957333Y-69500380D01*
X111004952Y-69405142D01*
X111004952Y-69214666D01*
X111052571Y-69119428D01*
X111100190Y-69071809D01*
X111195428Y-69024190D01*
X111385904Y-69024190D01*
X111481142Y-69071809D01*
X111528761Y-69119428D01*
X111576380Y-69214666D01*
X111576380Y-69405142D01*
X111528761Y-69500380D01*
X111481142Y-69548000D01*
X111385904Y-69595619D01*
X111195428Y-69595619D01*
X111100190Y-69548000D01*
X111052571Y-69500380D01*
X111004952Y-69405142D01*
X102752380Y-72027023D02*
X102276190Y-71693690D01*
X102752380Y-71455595D02*
X101752380Y-71455595D01*
X101752380Y-71836547D01*
X101800000Y-71931785D01*
X101847619Y-71979404D01*
X101942857Y-72027023D01*
X102085714Y-72027023D01*
X102180952Y-71979404D01*
X102228571Y-71931785D01*
X102276190Y-71836547D01*
X102276190Y-71455595D01*
X102704761Y-72407976D02*
X102752380Y-72550833D01*
X102752380Y-72788928D01*
X102704761Y-72884166D01*
X102657142Y-72931785D01*
X102561904Y-72979404D01*
X102466666Y-72979404D01*
X102371428Y-72931785D01*
X102323809Y-72884166D01*
X102276190Y-72788928D01*
X102228571Y-72598452D01*
X102180952Y-72503214D01*
X102133333Y-72455595D01*
X102038095Y-72407976D01*
X101942857Y-72407976D01*
X101847619Y-72455595D01*
X101800000Y-72503214D01*
X101752380Y-72598452D01*
X101752380Y-72836547D01*
X101800000Y-72979404D01*
X101752380Y-73265119D02*
X101752380Y-73836547D01*
X102752380Y-73550833D02*
X101752380Y-73550833D01*
X102752380Y-74931785D02*
X101752380Y-74931785D01*
X101752380Y-75312738D01*
X101800000Y-75407976D01*
X101847619Y-75455595D01*
X101942857Y-75503214D01*
X102085714Y-75503214D01*
X102180952Y-75455595D01*
X102228571Y-75407976D01*
X102276190Y-75312738D01*
X102276190Y-74931785D01*
X102228571Y-76265119D02*
X102276190Y-76407976D01*
X102323809Y-76455595D01*
X102419047Y-76503214D01*
X102561904Y-76503214D01*
X102657142Y-76455595D01*
X102704761Y-76407976D01*
X102752380Y-76312738D01*
X102752380Y-75931785D01*
X101752380Y-75931785D01*
X101752380Y-76265119D01*
X101800000Y-76360357D01*
X101847619Y-76407976D01*
X101942857Y-76455595D01*
X102038095Y-76455595D01*
X102133333Y-76407976D01*
X102180952Y-76360357D01*
X102228571Y-76265119D01*
X102228571Y-75931785D01*
X101752380Y-76836547D02*
X101752380Y-77455595D01*
X102133333Y-77122261D01*
X102133333Y-77265119D01*
X102180952Y-77360357D01*
X102228571Y-77407976D01*
X102323809Y-77455595D01*
X102561904Y-77455595D01*
X102657142Y-77407976D01*
X102704761Y-77360357D01*
X102752380Y-77265119D01*
X102752380Y-76979404D01*
X102704761Y-76884166D01*
X102657142Y-76836547D01*
X104402380Y-71455595D02*
X103402380Y-71455595D01*
X103402380Y-71693690D01*
X103450000Y-71836547D01*
X103545238Y-71931785D01*
X103640476Y-71979404D01*
X103830952Y-72027023D01*
X103973809Y-72027023D01*
X104164285Y-71979404D01*
X104259523Y-71931785D01*
X104354761Y-71836547D01*
X104402380Y-71693690D01*
X104402380Y-71455595D01*
X104307142Y-73027023D02*
X104354761Y-72979404D01*
X104402380Y-72836547D01*
X104402380Y-72741309D01*
X104354761Y-72598452D01*
X104259523Y-72503214D01*
X104164285Y-72455595D01*
X103973809Y-72407976D01*
X103830952Y-72407976D01*
X103640476Y-72455595D01*
X103545238Y-72503214D01*
X103450000Y-72598452D01*
X103402380Y-72741309D01*
X103402380Y-72836547D01*
X103450000Y-72979404D01*
X103497619Y-73027023D01*
X104402380Y-74979404D02*
X103402380Y-74979404D01*
X103402380Y-75360357D01*
X103450000Y-75455595D01*
X103497619Y-75503214D01*
X103592857Y-75550833D01*
X103735714Y-75550833D01*
X103830952Y-75503214D01*
X103878571Y-75455595D01*
X103926190Y-75360357D01*
X103926190Y-74979404D01*
X104116666Y-75931785D02*
X104116666Y-76407976D01*
X104402380Y-75836547D02*
X103402380Y-76169880D01*
X104402380Y-76503214D01*
X104402380Y-77360357D02*
X104402380Y-76788928D01*
X104402380Y-77074642D02*
X103402380Y-77074642D01*
X103545238Y-76979404D01*
X103640476Y-76884166D01*
X103688095Y-76788928D01*
X103402380Y-78265119D02*
X103402380Y-77788928D01*
X103878571Y-77741309D01*
X103830952Y-77788928D01*
X103783333Y-77884166D01*
X103783333Y-78122261D01*
X103830952Y-78217500D01*
X103878571Y-78265119D01*
X103973809Y-78312738D01*
X104211904Y-78312738D01*
X104307142Y-78265119D01*
X104354761Y-78217500D01*
X104402380Y-78122261D01*
X104402380Y-77884166D01*
X104354761Y-77788928D01*
X104307142Y-77741309D01*
X105957142Y-72027023D02*
X106004761Y-71979404D01*
X106052380Y-71836547D01*
X106052380Y-71741309D01*
X106004761Y-71598452D01*
X105909523Y-71503214D01*
X105814285Y-71455595D01*
X105623809Y-71407976D01*
X105480952Y-71407976D01*
X105290476Y-71455595D01*
X105195238Y-71503214D01*
X105100000Y-71598452D01*
X105052380Y-71741309D01*
X105052380Y-71836547D01*
X105100000Y-71979404D01*
X105147619Y-72027023D01*
X106004761Y-72407976D02*
X106052380Y-72550833D01*
X106052380Y-72788928D01*
X106004761Y-72884166D01*
X105957142Y-72931785D01*
X105861904Y-72979404D01*
X105766666Y-72979404D01*
X105671428Y-72931785D01*
X105623809Y-72884166D01*
X105576190Y-72788928D01*
X105528571Y-72598452D01*
X105480952Y-72503214D01*
X105433333Y-72455595D01*
X105338095Y-72407976D01*
X105242857Y-72407976D01*
X105147619Y-72455595D01*
X105100000Y-72503214D01*
X105052380Y-72598452D01*
X105052380Y-72836547D01*
X105100000Y-72979404D01*
X106052380Y-74931785D02*
X105052380Y-74931785D01*
X105052380Y-75312738D01*
X105100000Y-75407976D01*
X105147619Y-75455595D01*
X105242857Y-75503214D01*
X105385714Y-75503214D01*
X105480952Y-75455595D01*
X105528571Y-75407976D01*
X105576190Y-75312738D01*
X105576190Y-74931785D01*
X105766666Y-75884166D02*
X105766666Y-76360357D01*
X106052380Y-75788928D02*
X105052380Y-76122261D01*
X106052380Y-76455595D01*
X105385714Y-77217500D02*
X106052380Y-77217500D01*
X105004761Y-76979404D02*
X105719047Y-76741309D01*
X105719047Y-77360357D01*
X107178571Y-71788928D02*
X107226190Y-71931785D01*
X107273809Y-71979404D01*
X107369047Y-72027023D01*
X107511904Y-72027023D01*
X107607142Y-71979404D01*
X107654761Y-71931785D01*
X107702380Y-71836547D01*
X107702380Y-71455595D01*
X106702380Y-71455595D01*
X106702380Y-71788928D01*
X106750000Y-71884166D01*
X106797619Y-71931785D01*
X106892857Y-71979404D01*
X106988095Y-71979404D01*
X107083333Y-71931785D01*
X107130952Y-71884166D01*
X107178571Y-71788928D01*
X107178571Y-71455595D01*
X107702380Y-72931785D02*
X107702380Y-72455595D01*
X106702380Y-72455595D01*
X107702380Y-74788928D02*
X106702380Y-74788928D01*
X106702380Y-75169880D01*
X106750000Y-75265119D01*
X106797619Y-75312738D01*
X106892857Y-75360357D01*
X107035714Y-75360357D01*
X107130952Y-75312738D01*
X107178571Y-75265119D01*
X107226190Y-75169880D01*
X107226190Y-74788928D01*
X107416666Y-75741309D02*
X107416666Y-76217500D01*
X107702380Y-75646071D02*
X106702380Y-75979404D01*
X107702380Y-76312738D01*
X107702380Y-77169880D02*
X107702380Y-76598452D01*
X107702380Y-76884166D02*
X106702380Y-76884166D01*
X106845238Y-76788928D01*
X106940476Y-76693690D01*
X106988095Y-76598452D01*
X106702380Y-77788928D02*
X106702380Y-77884166D01*
X106750000Y-77979404D01*
X106797619Y-78027023D01*
X106892857Y-78074642D01*
X107083333Y-78122261D01*
X107321428Y-78122261D01*
X107511904Y-78074642D01*
X107607142Y-78027023D01*
X107654761Y-77979404D01*
X107702380Y-77884166D01*
X107702380Y-77788928D01*
X107654761Y-77693690D01*
X107607142Y-77646071D01*
X107511904Y-77598452D01*
X107321428Y-77550833D01*
X107083333Y-77550833D01*
X106892857Y-77598452D01*
X106797619Y-77646071D01*
X106750000Y-77693690D01*
X106702380Y-77788928D01*
X102688380Y-62438595D02*
X101688380Y-62438595D01*
X102402666Y-62771928D01*
X101688380Y-63105261D01*
X102688380Y-63105261D01*
X101688380Y-63771928D02*
X101688380Y-63962404D01*
X101736000Y-64057642D01*
X101831238Y-64152880D01*
X102021714Y-64200500D01*
X102355047Y-64200500D01*
X102545523Y-64152880D01*
X102640761Y-64057642D01*
X102688380Y-63962404D01*
X102688380Y-63771928D01*
X102640761Y-63676690D01*
X102545523Y-63581452D01*
X102355047Y-63533833D01*
X102021714Y-63533833D01*
X101831238Y-63581452D01*
X101736000Y-63676690D01*
X101688380Y-63771928D01*
X102640761Y-64581452D02*
X102688380Y-64724309D01*
X102688380Y-64962404D01*
X102640761Y-65057642D01*
X102593142Y-65105261D01*
X102497904Y-65152880D01*
X102402666Y-65152880D01*
X102307428Y-65105261D01*
X102259809Y-65057642D01*
X102212190Y-64962404D01*
X102164571Y-64771928D01*
X102116952Y-64676690D01*
X102069333Y-64629071D01*
X101974095Y-64581452D01*
X101878857Y-64581452D01*
X101783619Y-64629071D01*
X101736000Y-64676690D01*
X101688380Y-64771928D01*
X101688380Y-65010023D01*
X101736000Y-65152880D01*
X102688380Y-65581452D02*
X101688380Y-65581452D01*
X102688380Y-67581452D02*
X101688380Y-67581452D01*
X101688380Y-67962404D01*
X101736000Y-68057642D01*
X101783619Y-68105261D01*
X101878857Y-68152880D01*
X102021714Y-68152880D01*
X102116952Y-68105261D01*
X102164571Y-68057642D01*
X102212190Y-67962404D01*
X102212190Y-67581452D01*
X102402666Y-68533833D02*
X102402666Y-69010023D01*
X102688380Y-68438595D02*
X101688380Y-68771928D01*
X102688380Y-69105261D01*
X101688380Y-69343357D02*
X101688380Y-70010023D01*
X102688380Y-69581452D01*
X104338380Y-62438595D02*
X103338380Y-62438595D01*
X104052666Y-62771928D01*
X103338380Y-63105261D01*
X104338380Y-63105261D01*
X104338380Y-63581452D02*
X103338380Y-63581452D01*
X104290761Y-64010023D02*
X104338380Y-64152880D01*
X104338380Y-64390976D01*
X104290761Y-64486214D01*
X104243142Y-64533833D01*
X104147904Y-64581452D01*
X104052666Y-64581452D01*
X103957428Y-64533833D01*
X103909809Y-64486214D01*
X103862190Y-64390976D01*
X103814571Y-64200500D01*
X103766952Y-64105261D01*
X103719333Y-64057642D01*
X103624095Y-64010023D01*
X103528857Y-64010023D01*
X103433619Y-64057642D01*
X103386000Y-64105261D01*
X103338380Y-64200500D01*
X103338380Y-64438595D01*
X103386000Y-64581452D01*
X103338380Y-65200500D02*
X103338380Y-65390976D01*
X103386000Y-65486214D01*
X103481238Y-65581452D01*
X103671714Y-65629071D01*
X104005047Y-65629071D01*
X104195523Y-65581452D01*
X104290761Y-65486214D01*
X104338380Y-65390976D01*
X104338380Y-65200500D01*
X104290761Y-65105261D01*
X104195523Y-65010023D01*
X104005047Y-64962404D01*
X103671714Y-64962404D01*
X103481238Y-65010023D01*
X103386000Y-65105261D01*
X103338380Y-65200500D01*
X104338380Y-67581452D02*
X103338380Y-67581452D01*
X103338380Y-67962404D01*
X103386000Y-68057642D01*
X103433619Y-68105261D01*
X103528857Y-68152880D01*
X103671714Y-68152880D01*
X103766952Y-68105261D01*
X103814571Y-68057642D01*
X103862190Y-67962404D01*
X103862190Y-67581452D01*
X104052666Y-68533833D02*
X104052666Y-69010023D01*
X104338380Y-68438595D02*
X103338380Y-68771928D01*
X104338380Y-69105261D01*
X103338380Y-69867166D02*
X103338380Y-69676690D01*
X103386000Y-69581452D01*
X103433619Y-69533833D01*
X103576476Y-69438595D01*
X103766952Y-69390976D01*
X104147904Y-69390976D01*
X104243142Y-69438595D01*
X104290761Y-69486214D01*
X104338380Y-69581452D01*
X104338380Y-69771928D01*
X104290761Y-69867166D01*
X104243142Y-69914785D01*
X104147904Y-69962404D01*
X103909809Y-69962404D01*
X103814571Y-69914785D01*
X103766952Y-69867166D01*
X103719333Y-69771928D01*
X103719333Y-69581452D01*
X103766952Y-69486214D01*
X103814571Y-69438595D01*
X103909809Y-69390976D01*
X105940761Y-62390976D02*
X105988380Y-62533833D01*
X105988380Y-62771928D01*
X105940761Y-62867166D01*
X105893142Y-62914785D01*
X105797904Y-62962404D01*
X105702666Y-62962404D01*
X105607428Y-62914785D01*
X105559809Y-62867166D01*
X105512190Y-62771928D01*
X105464571Y-62581452D01*
X105416952Y-62486214D01*
X105369333Y-62438595D01*
X105274095Y-62390976D01*
X105178857Y-62390976D01*
X105083619Y-62438595D01*
X105036000Y-62486214D01*
X104988380Y-62581452D01*
X104988380Y-62819547D01*
X105036000Y-62962404D01*
X105893142Y-63962404D02*
X105940761Y-63914785D01*
X105988380Y-63771928D01*
X105988380Y-63676690D01*
X105940761Y-63533833D01*
X105845523Y-63438595D01*
X105750285Y-63390976D01*
X105559809Y-63343357D01*
X105416952Y-63343357D01*
X105226476Y-63390976D01*
X105131238Y-63438595D01*
X105036000Y-63533833D01*
X104988380Y-63676690D01*
X104988380Y-63771928D01*
X105036000Y-63914785D01*
X105083619Y-63962404D01*
X105988380Y-64390976D02*
X104988380Y-64390976D01*
X105988380Y-64962404D02*
X105416952Y-64533833D01*
X104988380Y-64962404D02*
X105559809Y-64390976D01*
X105988380Y-67676690D02*
X104988380Y-67676690D01*
X104988380Y-68057642D01*
X105036000Y-68152880D01*
X105083619Y-68200500D01*
X105178857Y-68248119D01*
X105321714Y-68248119D01*
X105416952Y-68200500D01*
X105464571Y-68152880D01*
X105512190Y-68057642D01*
X105512190Y-67676690D01*
X105702666Y-68629071D02*
X105702666Y-69105261D01*
X105988380Y-68533833D02*
X104988380Y-68867166D01*
X105988380Y-69200500D01*
X104988380Y-70010023D02*
X104988380Y-69533833D01*
X105464571Y-69486214D01*
X105416952Y-69533833D01*
X105369333Y-69629071D01*
X105369333Y-69867166D01*
X105416952Y-69962404D01*
X105464571Y-70010023D01*
X105559809Y-70057642D01*
X105797904Y-70057642D01*
X105893142Y-70010023D01*
X105940761Y-69962404D01*
X105988380Y-69867166D01*
X105988380Y-69629071D01*
X105940761Y-69533833D01*
X105893142Y-69486214D01*
D10*
X104140000Y-93980000D02*
X103505000Y-93345000D01*
X102870000Y-93980000D02*
X104140000Y-93980000D01*
X103505000Y-93345000D02*
X102870000Y-93980000D01*
X103505000Y-96520000D02*
X103505000Y-93345000D01*
X109220000Y-93980000D02*
X108585000Y-93345000D01*
X107950000Y-93980000D02*
X109220000Y-93980000D01*
X108585000Y-93345000D02*
X107950000Y-93980000D01*
X108585000Y-96520000D02*
X108585000Y-93345000D01*
X111125000Y-104140000D02*
X100965000Y-104140000D01*
X111125000Y-96520000D02*
X111125000Y-104140000D01*
X100965000Y-96520000D02*
X111125000Y-96520000D01*
X100965000Y-104140000D02*
X100965000Y-96520000D01*
X100965000Y-102870000D02*
X111125000Y-102870000D01*
D11*
X106378333Y-94702380D02*
X106378333Y-95416666D01*
X106425952Y-95559523D01*
X106521190Y-95654761D01*
X106664047Y-95702380D01*
X106759285Y-95702380D01*
X105949761Y-94797619D02*
X105902142Y-94750000D01*
X105806904Y-94702380D01*
X105568809Y-94702380D01*
X105473571Y-94750000D01*
X105425952Y-94797619D01*
X105378333Y-94892857D01*
X105378333Y-94988095D01*
X105425952Y-95130952D01*
X105997380Y-95702380D01*
X105378333Y-95702380D01*
M02*
