G04 #@! TF.GenerationSoftware,KiCad,Pcbnew,(5.1.5)-2*
G04 #@! TF.CreationDate,2020-04-12T20:47:40+10:00*
G04 #@! TF.ProjectId,stm32-energymon,73746d33-322d-4656-9e65-7267796d6f6e,rev?*
G04 #@! TF.SameCoordinates,Original*
G04 #@! TF.FileFunction,Legend,Top*
G04 #@! TF.FilePolarity,Positive*
%FSLAX46Y46*%
G04 Gerber Fmt 4.6, Leading zero omitted, Abs format (unit mm)*
G04 Created by KiCad (PCBNEW (5.1.5)-2) date 2020-04-12 20:47:40*
%MOMM*%
%LPD*%
G04 APERTURE LIST*
%ADD10C,0.120000*%
%ADD11C,0.150000*%
G04 APERTURE END LIST*
D10*
X85725000Y-66675000D02*
X86995000Y-66675000D01*
X86360000Y-66675000D02*
X85725000Y-66675000D01*
X86360000Y-65405000D02*
X86360000Y-66675000D01*
X85090000Y-65405000D02*
X86360000Y-65405000D01*
X86995000Y-62230000D02*
X86360000Y-61595000D01*
X85725000Y-62230000D02*
X86995000Y-62230000D01*
X86360000Y-61595000D02*
X85725000Y-62230000D01*
X86360000Y-62865000D02*
X86360000Y-61595000D01*
X85150000Y-62865000D02*
X86360000Y-62865000D01*
D11*
X81684761Y-84572619D02*
X81732380Y-84429761D01*
X81732380Y-84191666D01*
X81684761Y-84096428D01*
X81637142Y-84048809D01*
X81541904Y-84001190D01*
X81446666Y-84001190D01*
X81351428Y-84048809D01*
X81303809Y-84096428D01*
X81256190Y-84191666D01*
X81208571Y-84382142D01*
X81160952Y-84477380D01*
X81113333Y-84525000D01*
X81018095Y-84572619D01*
X80922857Y-84572619D01*
X80827619Y-84525000D01*
X80780000Y-84477380D01*
X80732380Y-84382142D01*
X80732380Y-84144047D01*
X80780000Y-84001190D01*
X80732380Y-83715476D02*
X80732380Y-83144047D01*
X81732380Y-83429761D02*
X80732380Y-83429761D01*
X80732380Y-82905952D02*
X80732380Y-82239285D01*
X81732380Y-82667857D01*
X80732380Y-81953571D02*
X80732380Y-81286904D01*
X81732380Y-81715476D01*
X81160952Y-80763095D02*
X81113333Y-80858333D01*
X81065714Y-80905952D01*
X80970476Y-80953571D01*
X80922857Y-80953571D01*
X80827619Y-80905952D01*
X80780000Y-80858333D01*
X80732380Y-80763095D01*
X80732380Y-80572619D01*
X80780000Y-80477380D01*
X80827619Y-80429761D01*
X80922857Y-80382142D01*
X80970476Y-80382142D01*
X81065714Y-80429761D01*
X81113333Y-80477380D01*
X81160952Y-80572619D01*
X81160952Y-80763095D01*
X81208571Y-80858333D01*
X81256190Y-80905952D01*
X81351428Y-80953571D01*
X81541904Y-80953571D01*
X81637142Y-80905952D01*
X81684761Y-80858333D01*
X81732380Y-80763095D01*
X81732380Y-80572619D01*
X81684761Y-80477380D01*
X81637142Y-80429761D01*
X81541904Y-80382142D01*
X81351428Y-80382142D01*
X81256190Y-80429761D01*
X81208571Y-80477380D01*
X81160952Y-80572619D01*
X81732380Y-79905952D02*
X81732380Y-79715476D01*
X81684761Y-79620238D01*
X81637142Y-79572619D01*
X81494285Y-79477380D01*
X81303809Y-79429761D01*
X80922857Y-79429761D01*
X80827619Y-79477380D01*
X80780000Y-79525000D01*
X80732380Y-79620238D01*
X80732380Y-79810714D01*
X80780000Y-79905952D01*
X80827619Y-79953571D01*
X80922857Y-80001190D01*
X81160952Y-80001190D01*
X81256190Y-79953571D01*
X81303809Y-79905952D01*
X81351428Y-79810714D01*
X81351428Y-79620238D01*
X81303809Y-79525000D01*
X81256190Y-79477380D01*
X81160952Y-79429761D01*
X81732380Y-77715476D02*
X81732380Y-78286904D01*
X81732380Y-78001190D02*
X80732380Y-78001190D01*
X80875238Y-78096428D01*
X80970476Y-78191666D01*
X81018095Y-78286904D01*
X81637142Y-77286904D02*
X81684761Y-77239285D01*
X81732380Y-77286904D01*
X81684761Y-77334523D01*
X81637142Y-77286904D01*
X81732380Y-77286904D01*
X81065714Y-76382142D02*
X81732380Y-76382142D01*
X80684761Y-76620238D02*
X81399047Y-76858333D01*
X81399047Y-76239285D01*
X80732380Y-75905952D02*
X80922857Y-75905952D01*
X80732380Y-75525000D02*
X80922857Y-75525000D01*
X80827619Y-74382142D02*
X80780000Y-74334523D01*
X80732380Y-74239285D01*
X80732380Y-74001190D01*
X80780000Y-73905952D01*
X80827619Y-73858333D01*
X80922857Y-73810714D01*
X81018095Y-73810714D01*
X81160952Y-73858333D01*
X81732380Y-74429761D01*
X81732380Y-73810714D01*
X81065714Y-72953571D02*
X81732380Y-72953571D01*
X80684761Y-73191666D02*
X81399047Y-73429761D01*
X81399047Y-72810714D01*
X80732380Y-72239285D02*
X80732380Y-72144047D01*
X80780000Y-72048809D01*
X80827619Y-72001190D01*
X80922857Y-71953571D01*
X81113333Y-71905952D01*
X81351428Y-71905952D01*
X81541904Y-71953571D01*
X81637142Y-72001190D01*
X81684761Y-72048809D01*
X81732380Y-72144047D01*
X81732380Y-72239285D01*
X81684761Y-72334523D01*
X81637142Y-72382142D01*
X81541904Y-72429761D01*
X81351428Y-72477380D01*
X81113333Y-72477380D01*
X80922857Y-72429761D01*
X80827619Y-72382142D01*
X80780000Y-72334523D01*
X80732380Y-72239285D01*
X81732380Y-71572619D02*
X81065714Y-71048809D01*
X81065714Y-71572619D02*
X81732380Y-71048809D01*
X80827619Y-70715476D02*
X80780000Y-70667857D01*
X80732380Y-70572619D01*
X80732380Y-70334523D01*
X80780000Y-70239285D01*
X80827619Y-70191666D01*
X80922857Y-70144047D01*
X81018095Y-70144047D01*
X81160952Y-70191666D01*
X81732380Y-70763095D01*
X81732380Y-70144047D01*
X81065714Y-69286904D02*
X81732380Y-69286904D01*
X80684761Y-69525000D02*
X81399047Y-69763095D01*
X81399047Y-69144047D01*
X80732380Y-68572619D02*
X80732380Y-68477380D01*
X80780000Y-68382142D01*
X80827619Y-68334523D01*
X80922857Y-68286904D01*
X81113333Y-68239285D01*
X81351428Y-68239285D01*
X81541904Y-68286904D01*
X81637142Y-68334523D01*
X81684761Y-68382142D01*
X81732380Y-68477380D01*
X81732380Y-68572619D01*
X81684761Y-68667857D01*
X81637142Y-68715476D01*
X81541904Y-68763095D01*
X81351428Y-68810714D01*
X81113333Y-68810714D01*
X80922857Y-68763095D01*
X80827619Y-68715476D01*
X80780000Y-68667857D01*
X80732380Y-68572619D01*
X81732380Y-67048809D02*
X80732380Y-67048809D01*
X81732380Y-66572619D02*
X80732380Y-66572619D01*
X80732380Y-66191666D01*
X80780000Y-66096428D01*
X80827619Y-66048809D01*
X80922857Y-66001190D01*
X81065714Y-66001190D01*
X81160952Y-66048809D01*
X81208571Y-66096428D01*
X81256190Y-66191666D01*
X81256190Y-66572619D01*
X81684761Y-65620238D02*
X81732380Y-65477380D01*
X81732380Y-65239285D01*
X81684761Y-65144047D01*
X81637142Y-65096428D01*
X81541904Y-65048809D01*
X81446666Y-65048809D01*
X81351428Y-65096428D01*
X81303809Y-65144047D01*
X81256190Y-65239285D01*
X81208571Y-65429761D01*
X81160952Y-65525000D01*
X81113333Y-65572619D01*
X81018095Y-65620238D01*
X80922857Y-65620238D01*
X80827619Y-65572619D01*
X80780000Y-65525000D01*
X80732380Y-65429761D01*
X80732380Y-65191666D01*
X80780000Y-65048809D01*
X81732380Y-63382142D02*
X81732380Y-63858333D01*
X80732380Y-63858333D01*
X81637142Y-62477380D02*
X81684761Y-62525000D01*
X81732380Y-62667857D01*
X81732380Y-62763095D01*
X81684761Y-62905952D01*
X81589523Y-63001190D01*
X81494285Y-63048809D01*
X81303809Y-63096428D01*
X81160952Y-63096428D01*
X80970476Y-63048809D01*
X80875238Y-63001190D01*
X80780000Y-62905952D01*
X80732380Y-62763095D01*
X80732380Y-62667857D01*
X80780000Y-62525000D01*
X80827619Y-62477380D01*
X81732380Y-62048809D02*
X80732380Y-62048809D01*
X80732380Y-61810714D01*
X80780000Y-61667857D01*
X80875238Y-61572619D01*
X80970476Y-61525000D01*
X81160952Y-61477380D01*
X81303809Y-61477380D01*
X81494285Y-61525000D01*
X81589523Y-61572619D01*
X81684761Y-61667857D01*
X81732380Y-61810714D01*
X81732380Y-62048809D01*
X117879761Y-104258333D02*
X117927380Y-104115476D01*
X117927380Y-103877380D01*
X117879761Y-103782142D01*
X117832142Y-103734523D01*
X117736904Y-103686904D01*
X117641666Y-103686904D01*
X117546428Y-103734523D01*
X117498809Y-103782142D01*
X117451190Y-103877380D01*
X117403571Y-104067857D01*
X117355952Y-104163095D01*
X117308333Y-104210714D01*
X117213095Y-104258333D01*
X117117857Y-104258333D01*
X117022619Y-104210714D01*
X116975000Y-104163095D01*
X116927380Y-104067857D01*
X116927380Y-103829761D01*
X116975000Y-103686904D01*
X116927380Y-103401190D02*
X116927380Y-102829761D01*
X117927380Y-103115476D02*
X116927380Y-103115476D01*
X117927380Y-102496428D02*
X116927380Y-102496428D01*
X117641666Y-102163095D01*
X116927380Y-101829761D01*
X117927380Y-101829761D01*
X116927380Y-101448809D02*
X116927380Y-100829761D01*
X117308333Y-101163095D01*
X117308333Y-101020238D01*
X117355952Y-100925000D01*
X117403571Y-100877380D01*
X117498809Y-100829761D01*
X117736904Y-100829761D01*
X117832142Y-100877380D01*
X117879761Y-100925000D01*
X117927380Y-101020238D01*
X117927380Y-101305952D01*
X117879761Y-101401190D01*
X117832142Y-101448809D01*
X117022619Y-100448809D02*
X116975000Y-100401190D01*
X116927380Y-100305952D01*
X116927380Y-100067857D01*
X116975000Y-99972619D01*
X117022619Y-99925000D01*
X117117857Y-99877380D01*
X117213095Y-99877380D01*
X117355952Y-99925000D01*
X117927380Y-100496428D01*
X117927380Y-99877380D01*
X117403571Y-98353571D02*
X117451190Y-98210714D01*
X117498809Y-98163095D01*
X117594047Y-98115476D01*
X117736904Y-98115476D01*
X117832142Y-98163095D01*
X117879761Y-98210714D01*
X117927380Y-98305952D01*
X117927380Y-98686904D01*
X116927380Y-98686904D01*
X116927380Y-98353571D01*
X116975000Y-98258333D01*
X117022619Y-98210714D01*
X117117857Y-98163095D01*
X117213095Y-98163095D01*
X117308333Y-98210714D01*
X117355952Y-98258333D01*
X117403571Y-98353571D01*
X117403571Y-98686904D01*
X117927380Y-97544047D02*
X117879761Y-97639285D01*
X117784523Y-97686904D01*
X116927380Y-97686904D01*
X117927380Y-96734523D02*
X117403571Y-96734523D01*
X117308333Y-96782142D01*
X117260714Y-96877380D01*
X117260714Y-97067857D01*
X117308333Y-97163095D01*
X117879761Y-96734523D02*
X117927380Y-96829761D01*
X117927380Y-97067857D01*
X117879761Y-97163095D01*
X117784523Y-97210714D01*
X117689285Y-97210714D01*
X117594047Y-97163095D01*
X117546428Y-97067857D01*
X117546428Y-96829761D01*
X117498809Y-96734523D01*
X117879761Y-95829761D02*
X117927380Y-95925000D01*
X117927380Y-96115476D01*
X117879761Y-96210714D01*
X117832142Y-96258333D01*
X117736904Y-96305952D01*
X117451190Y-96305952D01*
X117355952Y-96258333D01*
X117308333Y-96210714D01*
X117260714Y-96115476D01*
X117260714Y-95925000D01*
X117308333Y-95829761D01*
X117927380Y-95401190D02*
X116927380Y-95401190D01*
X117546428Y-95305952D02*
X117927380Y-95020238D01*
X117260714Y-95020238D02*
X117641666Y-95401190D01*
X117260714Y-94591666D02*
X118260714Y-94591666D01*
X117308333Y-94591666D02*
X117260714Y-94496428D01*
X117260714Y-94305952D01*
X117308333Y-94210714D01*
X117355952Y-94163095D01*
X117451190Y-94115476D01*
X117736904Y-94115476D01*
X117832142Y-94163095D01*
X117879761Y-94210714D01*
X117927380Y-94305952D01*
X117927380Y-94496428D01*
X117879761Y-94591666D01*
X117927380Y-93686904D02*
X117260714Y-93686904D01*
X116927380Y-93686904D02*
X116975000Y-93734523D01*
X117022619Y-93686904D01*
X116975000Y-93639285D01*
X116927380Y-93686904D01*
X117022619Y-93686904D01*
X117927380Y-93067857D02*
X117879761Y-93163095D01*
X117784523Y-93210714D01*
X116927380Y-93210714D01*
X117927380Y-92544047D02*
X117879761Y-92639285D01*
X117784523Y-92686904D01*
X116927380Y-92686904D01*
X90352619Y-79080238D02*
X90305000Y-79032619D01*
X90257380Y-78937380D01*
X90257380Y-78699285D01*
X90305000Y-78604047D01*
X90352619Y-78556428D01*
X90447857Y-78508809D01*
X90543095Y-78508809D01*
X90685952Y-78556428D01*
X91257380Y-79127857D01*
X91257380Y-78508809D01*
X91162142Y-78080238D02*
X91209761Y-78032619D01*
X91257380Y-78080238D01*
X91209761Y-78127857D01*
X91162142Y-78080238D01*
X91257380Y-78080238D01*
X90590714Y-77175476D02*
X91257380Y-77175476D01*
X90209761Y-77413571D02*
X90924047Y-77651666D01*
X90924047Y-77032619D01*
X90257380Y-76699285D02*
X90447857Y-76699285D01*
X90257380Y-76318333D02*
X90447857Y-76318333D01*
X91209761Y-75175476D02*
X91257380Y-75032619D01*
X91257380Y-74794523D01*
X91209761Y-74699285D01*
X91162142Y-74651666D01*
X91066904Y-74604047D01*
X90971666Y-74604047D01*
X90876428Y-74651666D01*
X90828809Y-74699285D01*
X90781190Y-74794523D01*
X90733571Y-74985000D01*
X90685952Y-75080238D01*
X90638333Y-75127857D01*
X90543095Y-75175476D01*
X90447857Y-75175476D01*
X90352619Y-75127857D01*
X90305000Y-75080238D01*
X90257380Y-74985000D01*
X90257380Y-74746904D01*
X90305000Y-74604047D01*
X91257380Y-74175476D02*
X90257380Y-74175476D01*
X90257380Y-73794523D01*
X90305000Y-73699285D01*
X90352619Y-73651666D01*
X90447857Y-73604047D01*
X90590714Y-73604047D01*
X90685952Y-73651666D01*
X90733571Y-73699285D01*
X90781190Y-73794523D01*
X90781190Y-74175476D01*
X91257380Y-73175476D02*
X90257380Y-73175476D01*
X91257380Y-71461190D02*
X91257380Y-71937380D01*
X90257380Y-71937380D01*
X91162142Y-70556428D02*
X91209761Y-70604047D01*
X91257380Y-70746904D01*
X91257380Y-70842142D01*
X91209761Y-70985000D01*
X91114523Y-71080238D01*
X91019285Y-71127857D01*
X90828809Y-71175476D01*
X90685952Y-71175476D01*
X90495476Y-71127857D01*
X90400238Y-71080238D01*
X90305000Y-70985000D01*
X90257380Y-70842142D01*
X90257380Y-70746904D01*
X90305000Y-70604047D01*
X90352619Y-70556428D01*
X91257380Y-70127857D02*
X90257380Y-70127857D01*
X90257380Y-69889761D01*
X90305000Y-69746904D01*
X90400238Y-69651666D01*
X90495476Y-69604047D01*
X90685952Y-69556428D01*
X90828809Y-69556428D01*
X91019285Y-69604047D01*
X91114523Y-69651666D01*
X91209761Y-69746904D01*
X91257380Y-69889761D01*
X91257380Y-70127857D01*
X90876428Y-68365952D02*
X90876428Y-67604047D01*
X91257380Y-67985000D02*
X90495476Y-67985000D01*
X90257380Y-66508809D02*
X90257380Y-65937380D01*
X91257380Y-66223095D02*
X90257380Y-66223095D01*
X90257380Y-65413571D02*
X90257380Y-65223095D01*
X90305000Y-65127857D01*
X90400238Y-65032619D01*
X90590714Y-64985000D01*
X90924047Y-64985000D01*
X91114523Y-65032619D01*
X91209761Y-65127857D01*
X91257380Y-65223095D01*
X91257380Y-65413571D01*
X91209761Y-65508809D01*
X91114523Y-65604047D01*
X90924047Y-65651666D01*
X90590714Y-65651666D01*
X90400238Y-65604047D01*
X90305000Y-65508809D01*
X90257380Y-65413571D01*
X90257380Y-64556428D02*
X91066904Y-64556428D01*
X91162142Y-64508809D01*
X91209761Y-64461190D01*
X91257380Y-64365952D01*
X91257380Y-64175476D01*
X91209761Y-64080238D01*
X91162142Y-64032619D01*
X91066904Y-63985000D01*
X90257380Y-63985000D01*
X91162142Y-62937380D02*
X91209761Y-62985000D01*
X91257380Y-63127857D01*
X91257380Y-63223095D01*
X91209761Y-63365952D01*
X91114523Y-63461190D01*
X91019285Y-63508809D01*
X90828809Y-63556428D01*
X90685952Y-63556428D01*
X90495476Y-63508809D01*
X90400238Y-63461190D01*
X90305000Y-63365952D01*
X90257380Y-63223095D01*
X90257380Y-63127857D01*
X90305000Y-62985000D01*
X90352619Y-62937380D01*
X91257380Y-62508809D02*
X90257380Y-62508809D01*
X90733571Y-62508809D02*
X90733571Y-61937380D01*
X91257380Y-61937380D02*
X90257380Y-61937380D01*
X121737380Y-76675952D02*
X120737380Y-76675952D01*
X121737380Y-76199761D02*
X120737380Y-76199761D01*
X121737380Y-75628333D01*
X120737380Y-75628333D01*
X121451666Y-75199761D02*
X121451666Y-74723571D01*
X121737380Y-75295000D02*
X120737380Y-74961666D01*
X121737380Y-74628333D01*
X120832619Y-74342619D02*
X120785000Y-74295000D01*
X120737380Y-74199761D01*
X120737380Y-73961666D01*
X120785000Y-73866428D01*
X120832619Y-73818809D01*
X120927857Y-73771190D01*
X121023095Y-73771190D01*
X121165952Y-73818809D01*
X121737380Y-74390238D01*
X121737380Y-73771190D01*
X121737380Y-72818809D02*
X121737380Y-73390238D01*
X121737380Y-73104523D02*
X120737380Y-73104523D01*
X120880238Y-73199761D01*
X120975476Y-73295000D01*
X121023095Y-73390238D01*
X121737380Y-72342619D02*
X121737380Y-72152142D01*
X121689761Y-72056904D01*
X121642142Y-72009285D01*
X121499285Y-71914047D01*
X121308809Y-71866428D01*
X120927857Y-71866428D01*
X120832619Y-71914047D01*
X120785000Y-71961666D01*
X120737380Y-72056904D01*
X120737380Y-72247380D01*
X120785000Y-72342619D01*
X120832619Y-72390238D01*
X120927857Y-72437857D01*
X121165952Y-72437857D01*
X121261190Y-72390238D01*
X121308809Y-72342619D01*
X121356428Y-72247380D01*
X121356428Y-72056904D01*
X121308809Y-71961666D01*
X121261190Y-71914047D01*
X121165952Y-71866428D01*
D10*
X121285000Y-66675000D02*
X120650000Y-67310000D01*
X120015000Y-66675000D02*
X121285000Y-66675000D01*
X120650000Y-67310000D02*
X120015000Y-66675000D01*
X120650000Y-65405000D02*
X120650000Y-67310000D01*
X122555000Y-65405000D02*
X120650000Y-65405000D01*
X120015000Y-61595000D02*
X121285000Y-61595000D01*
X120650000Y-61595000D02*
X120015000Y-61595000D01*
X120650000Y-62865000D02*
X120650000Y-61595000D01*
X122555000Y-62865000D02*
X120650000Y-62865000D01*
X92075000Y-92075000D02*
X91440000Y-91440000D01*
X90805000Y-92075000D02*
X92075000Y-92075000D01*
X91440000Y-91440000D02*
X90805000Y-92075000D01*
X91440000Y-93345000D02*
X91440000Y-91440000D01*
X89535000Y-93345000D02*
X91440000Y-93345000D01*
X90805000Y-97155000D02*
X92075000Y-97155000D01*
X91440000Y-97155000D02*
X90805000Y-97155000D01*
X91440000Y-95885000D02*
X91440000Y-97155000D01*
X89535000Y-95885000D02*
X91440000Y-95885000D01*
X83820000Y-61535000D02*
X85150000Y-61535000D01*
X85150000Y-61535000D02*
X85150000Y-62865000D01*
X85150000Y-64135000D02*
X85150000Y-79435000D01*
X82490000Y-79435000D02*
X85150000Y-79435000D01*
X82490000Y-64135000D02*
X82490000Y-79435000D01*
X82490000Y-64135000D02*
X85150000Y-64135000D01*
X123825000Y-61535000D02*
X125155000Y-61535000D01*
X125155000Y-61535000D02*
X125155000Y-62865000D01*
X125155000Y-64135000D02*
X125155000Y-76895000D01*
X122495000Y-76895000D02*
X125155000Y-76895000D01*
X122495000Y-64135000D02*
X122495000Y-76895000D01*
X122495000Y-64135000D02*
X125155000Y-64135000D01*
X88265000Y-61535000D02*
X89595000Y-61535000D01*
X89595000Y-61535000D02*
X89595000Y-62865000D01*
X89595000Y-64135000D02*
X89595000Y-97215000D01*
X86935000Y-97215000D02*
X89595000Y-97215000D01*
X86935000Y-64135000D02*
X86935000Y-97215000D01*
X86935000Y-64135000D02*
X89595000Y-64135000D01*
X109483333Y-61765000D02*
X109449000Y-62103000D01*
X102556667Y-61765000D02*
X102591000Y-62103000D01*
X101591000Y-62103000D02*
X101591000Y-66023000D01*
X107901000Y-62103000D02*
X110211000Y-62103000D01*
X110211000Y-62103000D02*
X110211000Y-66023000D01*
X101591000Y-66023000D02*
X103861000Y-66023000D01*
X110211000Y-66023000D02*
X107941000Y-66023000D01*
X103901000Y-62103000D02*
X101591000Y-62103000D01*
X103861000Y-65193000D02*
X104691000Y-65193000D01*
X107941000Y-65193000D02*
X107941000Y-66023000D01*
X103861000Y-65193000D02*
X103861000Y-66023000D01*
X107941000Y-65193000D02*
X107111000Y-65193000D01*
X103100000Y-110557000D02*
X103100000Y-104557000D01*
X105640000Y-110557000D02*
X105640000Y-104557000D01*
X103860000Y-104557000D02*
X103860000Y-110557000D01*
X106400000Y-110557000D02*
X105640000Y-110557000D01*
X111480000Y-110557000D02*
X110720000Y-110557000D01*
X111300000Y-104557000D02*
X111300000Y-110557000D01*
X110940000Y-104557000D02*
X110940000Y-110557000D01*
X108180000Y-110557000D02*
X108180000Y-104557000D01*
X103860000Y-110557000D02*
X103100000Y-110557000D01*
X108940000Y-110557000D02*
X108180000Y-110557000D01*
X106400000Y-104557000D02*
X106400000Y-110557000D01*
X101320000Y-104557000D02*
X101320000Y-110557000D01*
X101320000Y-110557000D02*
X100560000Y-110557000D01*
X110820000Y-104557000D02*
X110820000Y-110557000D01*
X108940000Y-104557000D02*
X108940000Y-110557000D01*
X110720000Y-110557000D02*
X110720000Y-104557000D01*
X111060000Y-104557000D02*
X111060000Y-110557000D01*
X111180000Y-104557000D02*
X111180000Y-110557000D01*
X100560000Y-110557000D02*
X100560000Y-104557000D01*
X111480000Y-104557000D02*
X111480000Y-110557000D01*
X111420000Y-104557000D02*
X111420000Y-110557000D01*
X102556667Y-61765000D02*
X95630001Y-61765000D01*
X116410000Y-61765000D02*
X109483333Y-61765000D01*
X116409999Y-104605000D02*
X116410000Y-61765000D01*
X95630000Y-104605000D02*
X116409999Y-104605000D01*
X95630001Y-61765000D02*
X95630000Y-104605000D01*
D11*
X83486666Y-59547380D02*
X83486666Y-60261666D01*
X83439047Y-60404523D01*
X83343809Y-60499761D01*
X83200952Y-60547380D01*
X83105714Y-60547380D01*
X84391428Y-59880714D02*
X84391428Y-60547380D01*
X84153333Y-59499761D02*
X83915238Y-60214047D01*
X84534285Y-60214047D01*
M02*
