M48
; DRILL file {KiCad (5.1.5)-2} date 12/04/2020 3:56:17 PM
; FORMAT={-:-/ absolute / inch / decimal}
; #@! TF.CreationDate,2020-04-12T15:56:17+10:00
; #@! TF.GenerationSoftware,Kicad,Pcbnew,(5.1.5)-2
; #@! TF.FileFunction,Plated,1,2,PTH
FMAT,2
INCH
T1C0.0157
T2C0.0315
T3C0.0394
T4C0.0598
%
G90
G05
T1
X3.575Y-2.725
X3.575Y-3.425
X3.6Y-3.5
X3.625Y-3.25
X3.7Y-3.425
X3.95Y-3.475
X4.075Y-3.4
X4.125Y-3.35
T2
X3.824Y-2.475
X3.824Y-2.575
X3.824Y-2.675
X3.824Y-2.775
X3.824Y-2.875
X3.824Y-2.975
X3.824Y-3.075
X3.824Y-3.175
X3.824Y-3.275
X3.824Y-3.375
X3.824Y-3.475
X3.824Y-3.575
X3.824Y-3.675
X3.824Y-3.775
X3.824Y-3.875
X3.824Y-3.975
X3.824Y-4.075
X4.524Y-2.475
X4.524Y-2.575
X4.524Y-2.675
X4.524Y-2.775
X4.524Y-2.875
X4.524Y-2.975
X4.524Y-3.075
X4.524Y-3.175
X4.524Y-3.275
X4.524Y-3.375
X4.524Y-3.475
X4.524Y-3.575
X4.524Y-3.675
X4.524Y-3.775
X4.524Y-3.875
X4.524Y-3.975
X4.524Y-4.075
T3
X3.475Y-2.475
X3.475Y-2.575
X3.475Y-2.675
X3.475Y-2.775
X3.475Y-2.875
X3.475Y-2.975
X3.475Y-3.075
X3.475Y-3.175
X3.475Y-3.275
X3.475Y-3.375
X3.475Y-3.475
X3.475Y-3.575
X3.475Y-3.675
X3.475Y-3.775
X4.875Y-2.475
X4.875Y-2.575
X4.875Y-2.675
X4.875Y-2.775
X4.875Y-2.875
X4.875Y-2.975
T4
X4.075Y-3.95
X4.275Y-3.95
T0
M30
