M48
; DRILL file {KiCad (5.1.9)-1} date 04/28/21 16:44:01
; FORMAT={-:-/ absolute / metric / decimal}
; #@! TF.CreationDate,2021-04-28T16:44:01+10:00
; #@! TF.GenerationSoftware,Kicad,Pcbnew,(5.1.9)-1
; #@! TF.FileFunction,Plated,1,2,PTH
FMAT,2
METRIC
T1C0.400
T2C0.800
T3C1.000
T4C1.300
T5C1.520
%
G90
G05
T1
X81.28Y-135.382
X81.534Y-134.112
X82.042Y-139.192
X94.742Y-128.778
X108.204Y-133.604
T2
X87.376Y-116.84
X87.376Y-119.38
X87.376Y-121.92
X87.376Y-124.46
X87.376Y-127.0
X87.376Y-129.54
X87.376Y-132.08
X87.376Y-134.62
X87.376Y-137.16
X87.376Y-139.7
X89.916Y-116.84
X89.916Y-119.38
X89.916Y-121.92
X89.916Y-124.46
X89.916Y-127.0
X89.916Y-129.54
X89.916Y-132.08
X89.916Y-134.62
X89.916Y-137.16
X89.916Y-139.7
X112.776Y-116.84
X112.776Y-119.38
X112.776Y-121.92
X112.776Y-124.46
X112.776Y-127.0
X112.776Y-129.54
X112.776Y-132.08
X112.776Y-134.62
X112.776Y-137.16
X112.776Y-139.7
X115.316Y-116.84
X115.316Y-119.38
X115.316Y-121.92
X115.316Y-124.46
X115.316Y-127.0
X115.316Y-129.54
X115.316Y-132.08
X115.316Y-134.62
X115.316Y-137.16
X115.316Y-139.7
T3
X73.914Y-117.856
X73.914Y-120.396
X73.914Y-122.936
X73.914Y-125.476
X73.914Y-128.016
X73.914Y-130.556
X73.914Y-133.096
X73.914Y-135.636
X76.454Y-117.856
X76.454Y-120.396
X76.454Y-122.936
X76.454Y-125.476
X76.454Y-128.016
X76.454Y-130.556
X76.454Y-133.096
X76.454Y-135.636
T4
X94.81Y-170.18
X103.31Y-170.18
T5
X76.2Y-163.068
X76.2Y-168.148
X125.984Y-163.068
X125.984Y-168.148
T0
M30
