%TF.GenerationSoftware,KiCad,Pcbnew,(5.1.9)-1*%
%TF.CreationDate,2021-04-28T16:43:29+10:00*%
%TF.ProjectId,ESP32-D1Mini-HUB75,45535033-322d-4443-914d-696e692d4855,rev?*%
%TF.SameCoordinates,Original*%
%TF.FileFunction,Legend,Top*%
%TF.FilePolarity,Positive*%
%FSLAX46Y46*%
G04 Gerber Fmt 4.6, Leading zero omitted, Abs format (unit mm)*
G04 Created by KiCad (PCBNEW (5.1.9)-1) date 2021-04-28 16:43:29*
%MOMM*%
%LPD*%
G01*
G04 APERTURE LIST*
%ADD10C,0.120000*%
%ADD11C,0.240000*%
%ADD12C,0.360000*%
%ADD13C,0.150000*%
%ADD14C,0.010000*%
%ADD15C,0.100000*%
G04 APERTURE END LIST*
D10*
X87884000Y-166624000D02*
X90678000Y-166624000D01*
X110490000Y-166624000D02*
X107188000Y-166624000D01*
D11*
X95250000Y-129540000D02*
X95250000Y-130810000D01*
X92710000Y-130810000D02*
X92710000Y-129540000D01*
X96520000Y-130810000D02*
X93980000Y-133350000D01*
X93980000Y-133350000D02*
X91440000Y-130810000D01*
D12*
X93980000Y-139700000D02*
X104140000Y-139700000D01*
X104140000Y-134620000D02*
X93980000Y-134620000D01*
X109220000Y-137160000D02*
X101600000Y-142240000D01*
X101600000Y-132080000D02*
X109220000Y-137160000D01*
D13*
X75438095Y-159266000D02*
X75342857Y-159218380D01*
X75200000Y-159218380D01*
X75057142Y-159266000D01*
X74961904Y-159361238D01*
X74914285Y-159456476D01*
X74866666Y-159646952D01*
X74866666Y-159789809D01*
X74914285Y-159980285D01*
X74961904Y-160075523D01*
X75057142Y-160170761D01*
X75200000Y-160218380D01*
X75295238Y-160218380D01*
X75438095Y-160170761D01*
X75485714Y-160123142D01*
X75485714Y-159789809D01*
X75295238Y-159789809D01*
X75914285Y-160218380D02*
X75914285Y-159218380D01*
X76485714Y-160218380D01*
X76485714Y-159218380D01*
X76961904Y-160218380D02*
X76961904Y-159218380D01*
X77200000Y-159218380D01*
X77342857Y-159266000D01*
X77438095Y-159361238D01*
X77485714Y-159456476D01*
X77533333Y-159646952D01*
X77533333Y-159789809D01*
X77485714Y-159980285D01*
X77438095Y-160075523D01*
X77342857Y-160170761D01*
X77200000Y-160218380D01*
X76961904Y-160218380D01*
X124190285Y-159837428D02*
X124952190Y-159837428D01*
X124571238Y-160218380D02*
X124571238Y-159456476D01*
X125904571Y-159218380D02*
X125428380Y-159218380D01*
X125380761Y-159694571D01*
X125428380Y-159646952D01*
X125523619Y-159599333D01*
X125761714Y-159599333D01*
X125856952Y-159646952D01*
X125904571Y-159694571D01*
X125952190Y-159789809D01*
X125952190Y-160027904D01*
X125904571Y-160123142D01*
X125856952Y-160170761D01*
X125761714Y-160218380D01*
X125523619Y-160218380D01*
X125428380Y-160170761D01*
X125380761Y-160123142D01*
X126237904Y-159218380D02*
X126571238Y-160218380D01*
X126904571Y-159218380D01*
X94488095Y-162060000D02*
X94392857Y-162012380D01*
X94250000Y-162012380D01*
X94107142Y-162060000D01*
X94011904Y-162155238D01*
X93964285Y-162250476D01*
X93916666Y-162440952D01*
X93916666Y-162583809D01*
X93964285Y-162774285D01*
X94011904Y-162869523D01*
X94107142Y-162964761D01*
X94250000Y-163012380D01*
X94345238Y-163012380D01*
X94488095Y-162964761D01*
X94535714Y-162917142D01*
X94535714Y-162583809D01*
X94345238Y-162583809D01*
X94964285Y-163012380D02*
X94964285Y-162012380D01*
X95535714Y-163012380D01*
X95535714Y-162012380D01*
X96011904Y-163012380D02*
X96011904Y-162012380D01*
X96250000Y-162012380D01*
X96392857Y-162060000D01*
X96488095Y-162155238D01*
X96535714Y-162250476D01*
X96583333Y-162440952D01*
X96583333Y-162583809D01*
X96535714Y-162774285D01*
X96488095Y-162869523D01*
X96392857Y-162964761D01*
X96250000Y-163012380D01*
X96011904Y-163012380D01*
X101584285Y-162631428D02*
X102346190Y-162631428D01*
X101965238Y-163012380D02*
X101965238Y-162250476D01*
X103298571Y-162012380D02*
X102822380Y-162012380D01*
X102774761Y-162488571D01*
X102822380Y-162440952D01*
X102917619Y-162393333D01*
X103155714Y-162393333D01*
X103250952Y-162440952D01*
X103298571Y-162488571D01*
X103346190Y-162583809D01*
X103346190Y-162821904D01*
X103298571Y-162917142D01*
X103250952Y-162964761D01*
X103155714Y-163012380D01*
X102917619Y-163012380D01*
X102822380Y-162964761D01*
X102774761Y-162917142D01*
X103631904Y-162012380D02*
X103965238Y-163012380D01*
X104298571Y-162012380D01*
D10*
X108458000Y-162560000D02*
X112522000Y-162560000D01*
X110490000Y-162560000D02*
X108458000Y-162560000D01*
X110490000Y-166624000D02*
X110490000Y-162560000D01*
X87884000Y-171704000D02*
X89408000Y-169672000D01*
X86360000Y-169672000D02*
X87884000Y-171704000D01*
X89408000Y-169672000D02*
X86360000Y-169672000D01*
X87884000Y-166624000D02*
X87884000Y-169672000D01*
D13*
X79176571Y-135190476D02*
X79176571Y-135523809D01*
X79700380Y-135523809D02*
X78700380Y-135523809D01*
X78700380Y-135047619D01*
X79700380Y-133904761D02*
X78700380Y-133904761D01*
X79176571Y-133904761D02*
X79176571Y-133333333D01*
X79700380Y-133333333D02*
X78700380Y-133333333D01*
X79652761Y-132476190D02*
X79700380Y-132571428D01*
X79700380Y-132761904D01*
X79652761Y-132857142D01*
X79557523Y-132904761D01*
X79176571Y-132904761D01*
X79081333Y-132857142D01*
X79033714Y-132761904D01*
X79033714Y-132571428D01*
X79081333Y-132476190D01*
X79176571Y-132428571D01*
X79271809Y-132428571D01*
X79367047Y-132904761D01*
X79700380Y-131571428D02*
X79176571Y-131571428D01*
X79081333Y-131619047D01*
X79033714Y-131714285D01*
X79033714Y-131904761D01*
X79081333Y-132000000D01*
X79652761Y-131571428D02*
X79700380Y-131666666D01*
X79700380Y-131904761D01*
X79652761Y-132000000D01*
X79557523Y-132047619D01*
X79462285Y-132047619D01*
X79367047Y-132000000D01*
X79319428Y-131904761D01*
X79319428Y-131666666D01*
X79271809Y-131571428D01*
X79700380Y-130666666D02*
X78700380Y-130666666D01*
X79652761Y-130666666D02*
X79700380Y-130761904D01*
X79700380Y-130952380D01*
X79652761Y-131047619D01*
X79605142Y-131095238D01*
X79509904Y-131142857D01*
X79224190Y-131142857D01*
X79128952Y-131095238D01*
X79081333Y-131047619D01*
X79033714Y-130952380D01*
X79033714Y-130761904D01*
X79081333Y-130666666D01*
X79652761Y-129809523D02*
X79700380Y-129904761D01*
X79700380Y-130095238D01*
X79652761Y-130190476D01*
X79557523Y-130238095D01*
X79176571Y-130238095D01*
X79081333Y-130190476D01*
X79033714Y-130095238D01*
X79033714Y-129904761D01*
X79081333Y-129809523D01*
X79176571Y-129761904D01*
X79271809Y-129761904D01*
X79367047Y-130238095D01*
X79700380Y-129333333D02*
X79033714Y-129333333D01*
X79224190Y-129333333D02*
X79128952Y-129285714D01*
X79081333Y-129238095D01*
X79033714Y-129142857D01*
X79033714Y-129047619D01*
X79700380Y-127809523D02*
X79652761Y-127904761D01*
X79605142Y-127952380D01*
X79509904Y-128000000D01*
X79224190Y-128000000D01*
X79128952Y-127952380D01*
X79081333Y-127904761D01*
X79033714Y-127809523D01*
X79033714Y-127666666D01*
X79081333Y-127571428D01*
X79128952Y-127523809D01*
X79224190Y-127476190D01*
X79509904Y-127476190D01*
X79605142Y-127523809D01*
X79652761Y-127571428D01*
X79700380Y-127666666D01*
X79700380Y-127809523D01*
X79033714Y-127047619D02*
X79700380Y-127047619D01*
X79128952Y-127047619D02*
X79081333Y-127000000D01*
X79033714Y-126904761D01*
X79033714Y-126761904D01*
X79081333Y-126666666D01*
X79176571Y-126619047D01*
X79700380Y-126619047D01*
X78700380Y-125380952D02*
X79509904Y-125380952D01*
X79605142Y-125333333D01*
X79652761Y-125285714D01*
X79700380Y-125190476D01*
X79700380Y-125000000D01*
X79652761Y-124904761D01*
X79605142Y-124857142D01*
X79509904Y-124809523D01*
X78700380Y-124809523D01*
X79033714Y-124333333D02*
X79700380Y-124333333D01*
X79128952Y-124333333D02*
X79081333Y-124285714D01*
X79033714Y-124190476D01*
X79033714Y-124047619D01*
X79081333Y-123952380D01*
X79176571Y-123904761D01*
X79700380Y-123904761D01*
X79700380Y-123000000D02*
X78700380Y-123000000D01*
X79652761Y-123000000D02*
X79700380Y-123095238D01*
X79700380Y-123285714D01*
X79652761Y-123380952D01*
X79605142Y-123428571D01*
X79509904Y-123476190D01*
X79224190Y-123476190D01*
X79128952Y-123428571D01*
X79081333Y-123380952D01*
X79033714Y-123285714D01*
X79033714Y-123095238D01*
X79081333Y-123000000D01*
X79652761Y-122142857D02*
X79700380Y-122238095D01*
X79700380Y-122428571D01*
X79652761Y-122523809D01*
X79557523Y-122571428D01*
X79176571Y-122571428D01*
X79081333Y-122523809D01*
X79033714Y-122428571D01*
X79033714Y-122238095D01*
X79081333Y-122142857D01*
X79176571Y-122095238D01*
X79271809Y-122095238D01*
X79367047Y-122571428D01*
X79700380Y-121666666D02*
X79033714Y-121666666D01*
X79224190Y-121666666D02*
X79128952Y-121619047D01*
X79081333Y-121571428D01*
X79033714Y-121476190D01*
X79033714Y-121380952D01*
X79652761Y-121095238D02*
X79700380Y-121000000D01*
X79700380Y-120809523D01*
X79652761Y-120714285D01*
X79557523Y-120666666D01*
X79509904Y-120666666D01*
X79414666Y-120714285D01*
X79367047Y-120809523D01*
X79367047Y-120952380D01*
X79319428Y-121047619D01*
X79224190Y-121095238D01*
X79176571Y-121095238D01*
X79081333Y-121047619D01*
X79033714Y-120952380D01*
X79033714Y-120809523D01*
X79081333Y-120714285D01*
X79700380Y-120238095D02*
X79033714Y-120238095D01*
X78700380Y-120238095D02*
X78748000Y-120285714D01*
X78795619Y-120238095D01*
X78748000Y-120190476D01*
X78700380Y-120238095D01*
X78795619Y-120238095D01*
X79700380Y-119333333D02*
X78700380Y-119333333D01*
X79652761Y-119333333D02*
X79700380Y-119428571D01*
X79700380Y-119619047D01*
X79652761Y-119714285D01*
X79605142Y-119761904D01*
X79509904Y-119809523D01*
X79224190Y-119809523D01*
X79128952Y-119761904D01*
X79081333Y-119714285D01*
X79033714Y-119619047D01*
X79033714Y-119428571D01*
X79081333Y-119333333D01*
X79652761Y-118476190D02*
X79700380Y-118571428D01*
X79700380Y-118761904D01*
X79652761Y-118857142D01*
X79557523Y-118904761D01*
X79176571Y-118904761D01*
X79081333Y-118857142D01*
X79033714Y-118761904D01*
X79033714Y-118571428D01*
X79081333Y-118476190D01*
X79176571Y-118428571D01*
X79271809Y-118428571D01*
X79367047Y-118904761D01*
D10*
X72136000Y-137414000D02*
X72136000Y-127254000D01*
X78232000Y-137414000D02*
X72136000Y-137414000D01*
X78232000Y-137160000D02*
X78232000Y-137414000D01*
X78232000Y-116078000D02*
X78232000Y-137160000D01*
X72136000Y-116078000D02*
X78232000Y-116078000D01*
X72136000Y-125730000D02*
X72136000Y-116078000D01*
%TO.C,J1*%
X107188000Y-171704000D02*
X90805000Y-171680000D01*
X90805000Y-171680000D02*
X90805000Y-164338000D01*
X90805000Y-164338000D02*
X107188000Y-164338000D01*
X107188000Y-164338000D02*
X107188000Y-171680000D01*
X99060000Y-171680000D02*
X99060000Y-164338000D01*
X94742000Y-171196000D02*
X94742000Y-164846000D01*
X97917000Y-168021000D02*
G75*
G03*
X97917000Y-168021000I-3175000J0D01*
G01*
X97917000Y-168021000D02*
X91567000Y-168021000D01*
X103251000Y-171196000D02*
X103251000Y-164846000D01*
X106426000Y-168021000D02*
G75*
G03*
X106426000Y-168021000I-3175000J0D01*
G01*
X106426000Y-168021000D02*
X100076000Y-168021000D01*
X107188000Y-171323000D02*
X90805000Y-171323000D01*
%TO.C,Ref\u002A\u002A*%
X107950000Y-128270000D02*
X107950000Y-109474000D01*
X95250000Y-128270000D02*
X107950000Y-128270000D01*
X95250000Y-109474000D02*
X95250000Y-128270000D01*
X99568000Y-109474000D02*
X99568000Y-114808000D01*
X103124000Y-109474000D02*
X103124000Y-128270000D01*
X107950000Y-126492000D02*
X95250000Y-126492000D01*
X107950000Y-124968000D02*
X107950000Y-126492000D01*
X107696000Y-124968000D02*
X107950000Y-124968000D01*
X95250000Y-124968000D02*
X107696000Y-124968000D01*
X95250000Y-123190000D02*
X95250000Y-124968000D01*
X107950000Y-123190000D02*
X95250000Y-123190000D01*
X107950000Y-121412000D02*
X107950000Y-123190000D01*
X95250000Y-121412000D02*
X107950000Y-121412000D01*
X95250000Y-119634000D02*
X95250000Y-121412000D01*
X107950000Y-119634000D02*
X95250000Y-119634000D01*
X107950000Y-118110000D02*
X107950000Y-119634000D01*
X95250000Y-118110000D02*
X107950000Y-118110000D01*
X95250000Y-116332000D02*
X95250000Y-118110000D01*
X107950000Y-116332000D02*
X95250000Y-116332000D01*
X107950000Y-114808000D02*
X107950000Y-116332000D01*
X95250000Y-114808000D02*
X107950000Y-114808000D01*
X95250000Y-113030000D02*
X95250000Y-114808000D01*
X107950000Y-113030000D02*
X95250000Y-113030000D01*
X107950000Y-111252000D02*
X107950000Y-113030000D01*
X95250000Y-111252000D02*
X107950000Y-111252000D01*
X95250000Y-109474000D02*
X95250000Y-112014000D01*
X107950000Y-128270000D02*
X95250000Y-128270000D01*
X95250000Y-109474000D02*
X107950000Y-109474000D01*
D14*
G36*
X105664000Y-110532333D02*
G01*
X105738083Y-110532333D01*
X105788183Y-110536287D01*
X105808693Y-110554078D01*
X105812167Y-110585250D01*
X105806631Y-110621035D01*
X105781724Y-110635685D01*
X105738083Y-110638167D01*
X105692563Y-110640200D01*
X105671008Y-110653981D01*
X105664457Y-110691030D01*
X105664000Y-110733417D01*
X105664000Y-110828667D01*
X105494667Y-110828667D01*
X105494667Y-110638167D01*
X105029000Y-110638167D01*
X105029000Y-110579371D01*
X105034619Y-110550856D01*
X105054269Y-110515943D01*
X105055014Y-110515032D01*
X105209975Y-110515032D01*
X105219185Y-110523346D01*
X105261941Y-110529475D01*
X105329468Y-110532272D01*
X105342267Y-110532333D01*
X105494667Y-110532333D01*
X105494667Y-110250723D01*
X105362375Y-110374227D01*
X105299608Y-110432660D01*
X105247663Y-110480718D01*
X105215116Y-110510476D01*
X105209975Y-110515032D01*
X105055014Y-110515032D01*
X105092142Y-110469678D01*
X105152426Y-110407110D01*
X105239313Y-110323288D01*
X105270805Y-110293621D01*
X105364722Y-110206378D01*
X105434416Y-110144574D01*
X105485837Y-110103955D01*
X105524934Y-110080267D01*
X105557660Y-110069257D01*
X105588305Y-110066667D01*
X105664000Y-110066667D01*
X105664000Y-110532333D01*
G37*
X105664000Y-110532333D02*
X105738083Y-110532333D01*
X105788183Y-110536287D01*
X105808693Y-110554078D01*
X105812167Y-110585250D01*
X105806631Y-110621035D01*
X105781724Y-110635685D01*
X105738083Y-110638167D01*
X105692563Y-110640200D01*
X105671008Y-110653981D01*
X105664457Y-110691030D01*
X105664000Y-110733417D01*
X105664000Y-110828667D01*
X105494667Y-110828667D01*
X105494667Y-110638167D01*
X105029000Y-110638167D01*
X105029000Y-110579371D01*
X105034619Y-110550856D01*
X105054269Y-110515943D01*
X105055014Y-110515032D01*
X105209975Y-110515032D01*
X105219185Y-110523346D01*
X105261941Y-110529475D01*
X105329468Y-110532272D01*
X105342267Y-110532333D01*
X105494667Y-110532333D01*
X105494667Y-110250723D01*
X105362375Y-110374227D01*
X105299608Y-110432660D01*
X105247663Y-110480718D01*
X105215116Y-110510476D01*
X105209975Y-110515032D01*
X105055014Y-110515032D01*
X105092142Y-110469678D01*
X105152426Y-110407110D01*
X105239313Y-110323288D01*
X105270805Y-110293621D01*
X105364722Y-110206378D01*
X105434416Y-110144574D01*
X105485837Y-110103955D01*
X105524934Y-110080267D01*
X105557660Y-110069257D01*
X105588305Y-110066667D01*
X105664000Y-110066667D01*
X105664000Y-110532333D01*
G36*
X104605667Y-110744000D02*
G01*
X104753833Y-110744000D01*
X104831699Y-110745142D01*
X104876308Y-110750292D01*
X104896710Y-110762038D01*
X104901959Y-110782963D01*
X104902000Y-110786333D01*
X104900195Y-110801383D01*
X104890950Y-110812368D01*
X104868517Y-110819926D01*
X104827149Y-110824696D01*
X104761098Y-110827317D01*
X104664618Y-110828428D01*
X104531961Y-110828666D01*
X104521000Y-110828667D01*
X104385551Y-110828466D01*
X104286689Y-110827439D01*
X104218664Y-110824946D01*
X104175731Y-110820350D01*
X104152141Y-110813011D01*
X104142148Y-110802291D01*
X104140004Y-110787551D01*
X104140000Y-110786333D01*
X104143997Y-110764086D01*
X104162024Y-110751340D01*
X104203132Y-110745511D01*
X104276372Y-110744012D01*
X104288167Y-110744000D01*
X104436333Y-110744000D01*
X104436333Y-110179211D01*
X104335792Y-110195760D01*
X104242764Y-110209355D01*
X104183922Y-110212654D01*
X104152222Y-110204969D01*
X104140619Y-110185610D01*
X104140000Y-110176604D01*
X104147302Y-110156394D01*
X104174059Y-110139565D01*
X104227544Y-110123202D01*
X104315031Y-110104392D01*
X104325208Y-110102404D01*
X104414608Y-110084636D01*
X104492738Y-110068381D01*
X104546786Y-110056332D01*
X104558042Y-110053498D01*
X104605667Y-110040562D01*
X104605667Y-110744000D01*
G37*
X104605667Y-110744000D02*
X104753833Y-110744000D01*
X104831699Y-110745142D01*
X104876308Y-110750292D01*
X104896710Y-110762038D01*
X104901959Y-110782963D01*
X104902000Y-110786333D01*
X104900195Y-110801383D01*
X104890950Y-110812368D01*
X104868517Y-110819926D01*
X104827149Y-110824696D01*
X104761098Y-110827317D01*
X104664618Y-110828428D01*
X104531961Y-110828666D01*
X104521000Y-110828667D01*
X104385551Y-110828466D01*
X104286689Y-110827439D01*
X104218664Y-110824946D01*
X104175731Y-110820350D01*
X104152141Y-110813011D01*
X104142148Y-110802291D01*
X104140004Y-110787551D01*
X104140000Y-110786333D01*
X104143997Y-110764086D01*
X104162024Y-110751340D01*
X104203132Y-110745511D01*
X104276372Y-110744012D01*
X104288167Y-110744000D01*
X104436333Y-110744000D01*
X104436333Y-110179211D01*
X104335792Y-110195760D01*
X104242764Y-110209355D01*
X104183922Y-110212654D01*
X104152222Y-110204969D01*
X104140619Y-110185610D01*
X104140000Y-110176604D01*
X104147302Y-110156394D01*
X104174059Y-110139565D01*
X104227544Y-110123202D01*
X104315031Y-110104392D01*
X104325208Y-110102404D01*
X104414608Y-110084636D01*
X104492738Y-110068381D01*
X104546786Y-110056332D01*
X104558042Y-110053498D01*
X104605667Y-110040562D01*
X104605667Y-110744000D01*
G36*
X100712344Y-110052719D02*
G01*
X100833499Y-110081436D01*
X100924283Y-110137763D01*
X100930416Y-110143689D01*
X100976840Y-110207668D01*
X100986910Y-110272680D01*
X100959549Y-110341062D01*
X100893684Y-110415153D01*
X100788238Y-110497292D01*
X100758559Y-110517379D01*
X100683140Y-110570031D01*
X100615485Y-110621941D01*
X100568700Y-110662977D01*
X100564435Y-110667415D01*
X100513121Y-110722833D01*
X100986167Y-110722833D01*
X100986167Y-110828667D01*
X100308833Y-110828667D01*
X100308833Y-110780046D01*
X100326661Y-110730258D01*
X100380634Y-110664984D01*
X100471480Y-110583495D01*
X100599931Y-110485065D01*
X100618804Y-110471436D01*
X100688601Y-110418686D01*
X100744611Y-110371442D01*
X100777946Y-110337394D01*
X100782846Y-110329448D01*
X100794129Y-110255748D01*
X100765532Y-110195281D01*
X100753780Y-110183488D01*
X100722816Y-110162949D01*
X100680805Y-110153569D01*
X100615532Y-110153581D01*
X100568572Y-110156694D01*
X100489751Y-110164563D01*
X100424245Y-110174234D01*
X100388208Y-110183002D01*
X100360510Y-110186007D01*
X100351430Y-110157334D01*
X100351167Y-110145279D01*
X100356863Y-110109928D01*
X100378799Y-110085725D01*
X100424240Y-110069472D01*
X100500456Y-110057969D01*
X100562833Y-110052113D01*
X100712344Y-110052719D01*
G37*
X100712344Y-110052719D02*
X100833499Y-110081436D01*
X100924283Y-110137763D01*
X100930416Y-110143689D01*
X100976840Y-110207668D01*
X100986910Y-110272680D01*
X100959549Y-110341062D01*
X100893684Y-110415153D01*
X100788238Y-110497292D01*
X100758559Y-110517379D01*
X100683140Y-110570031D01*
X100615485Y-110621941D01*
X100568700Y-110662977D01*
X100564435Y-110667415D01*
X100513121Y-110722833D01*
X100986167Y-110722833D01*
X100986167Y-110828667D01*
X100308833Y-110828667D01*
X100308833Y-110780046D01*
X100326661Y-110730258D01*
X100380634Y-110664984D01*
X100471480Y-110583495D01*
X100599931Y-110485065D01*
X100618804Y-110471436D01*
X100688601Y-110418686D01*
X100744611Y-110371442D01*
X100777946Y-110337394D01*
X100782846Y-110329448D01*
X100794129Y-110255748D01*
X100765532Y-110195281D01*
X100753780Y-110183488D01*
X100722816Y-110162949D01*
X100680805Y-110153569D01*
X100615532Y-110153581D01*
X100568572Y-110156694D01*
X100489751Y-110164563D01*
X100424245Y-110174234D01*
X100388208Y-110183002D01*
X100360510Y-110186007D01*
X100351430Y-110157334D01*
X100351167Y-110145279D01*
X100356863Y-110109928D01*
X100378799Y-110085725D01*
X100424240Y-110069472D01*
X100500456Y-110057969D01*
X100562833Y-110052113D01*
X100712344Y-110052719D01*
G36*
X96432754Y-110175627D02*
G01*
X96544208Y-110186299D01*
X96623037Y-110206448D01*
X96673908Y-110238007D01*
X96701489Y-110282910D01*
X96710447Y-110343089D01*
X96710500Y-110349143D01*
X96691170Y-110402940D01*
X96637047Y-110462408D01*
X96553932Y-110521203D01*
X96552296Y-110522163D01*
X96539258Y-110535341D01*
X96543787Y-110554606D01*
X96570172Y-110585362D01*
X96622701Y-110633008D01*
X96676460Y-110678583D01*
X96744463Y-110736240D01*
X96798265Y-110783221D01*
X96830914Y-110813377D01*
X96837500Y-110821045D01*
X96818486Y-110825462D01*
X96770048Y-110828213D01*
X96735434Y-110828667D01*
X96684041Y-110826465D01*
X96641970Y-110816185D01*
X96598423Y-110792315D01*
X96542598Y-110749343D01*
X96486726Y-110701739D01*
X96407515Y-110636425D01*
X96348799Y-110596913D01*
X96302059Y-110578180D01*
X96271292Y-110574739D01*
X96202500Y-110574667D01*
X96202500Y-110828667D01*
X96033167Y-110828667D01*
X96033167Y-110468833D01*
X96202500Y-110468833D01*
X96284008Y-110468833D01*
X96358774Y-110462352D01*
X96429100Y-110446631D01*
X96432621Y-110445440D01*
X96496786Y-110410611D01*
X96526114Y-110366078D01*
X96517144Y-110317662D01*
X96512626Y-110310893D01*
X96478290Y-110286660D01*
X96413128Y-110270446D01*
X96344113Y-110262738D01*
X96202500Y-110251371D01*
X96202500Y-110468833D01*
X96033167Y-110468833D01*
X96033167Y-110172500D01*
X96284008Y-110172500D01*
X96432754Y-110175627D01*
G37*
X96432754Y-110175627D02*
X96544208Y-110186299D01*
X96623037Y-110206448D01*
X96673908Y-110238007D01*
X96701489Y-110282910D01*
X96710447Y-110343089D01*
X96710500Y-110349143D01*
X96691170Y-110402940D01*
X96637047Y-110462408D01*
X96553932Y-110521203D01*
X96552296Y-110522163D01*
X96539258Y-110535341D01*
X96543787Y-110554606D01*
X96570172Y-110585362D01*
X96622701Y-110633008D01*
X96676460Y-110678583D01*
X96744463Y-110736240D01*
X96798265Y-110783221D01*
X96830914Y-110813377D01*
X96837500Y-110821045D01*
X96818486Y-110825462D01*
X96770048Y-110828213D01*
X96735434Y-110828667D01*
X96684041Y-110826465D01*
X96641970Y-110816185D01*
X96598423Y-110792315D01*
X96542598Y-110749343D01*
X96486726Y-110701739D01*
X96407515Y-110636425D01*
X96348799Y-110596913D01*
X96302059Y-110578180D01*
X96271292Y-110574739D01*
X96202500Y-110574667D01*
X96202500Y-110828667D01*
X96033167Y-110828667D01*
X96033167Y-110468833D01*
X96202500Y-110468833D01*
X96284008Y-110468833D01*
X96358774Y-110462352D01*
X96429100Y-110446631D01*
X96432621Y-110445440D01*
X96496786Y-110410611D01*
X96526114Y-110366078D01*
X96517144Y-110317662D01*
X96512626Y-110310893D01*
X96478290Y-110286660D01*
X96413128Y-110270446D01*
X96344113Y-110262738D01*
X96202500Y-110251371D01*
X96202500Y-110468833D01*
X96033167Y-110468833D01*
X96033167Y-110172500D01*
X96284008Y-110172500D01*
X96432754Y-110175627D01*
G36*
X101917500Y-110119583D02*
G01*
X101916103Y-110144098D01*
X101906628Y-110159558D01*
X101881143Y-110168052D01*
X101831721Y-110171666D01*
X101750430Y-110172486D01*
X101716417Y-110172500D01*
X101515333Y-110172500D01*
X101515333Y-110255870D01*
X101517220Y-110306275D01*
X101530251Y-110332703D01*
X101565477Y-110346007D01*
X101615523Y-110354264D01*
X101748309Y-110386488D01*
X101847761Y-110437442D01*
X101911734Y-110505466D01*
X101938083Y-110588896D01*
X101938667Y-110604561D01*
X101919467Y-110691673D01*
X101864071Y-110761509D01*
X101775786Y-110812018D01*
X101657917Y-110841145D01*
X101547083Y-110847697D01*
X101469128Y-110845640D01*
X101406510Y-110841400D01*
X101372643Y-110835888D01*
X101372458Y-110835815D01*
X101352206Y-110808806D01*
X101346000Y-110772560D01*
X101353043Y-110734634D01*
X101378709Y-110729696D01*
X101383042Y-110730862D01*
X101497112Y-110752754D01*
X101598585Y-110750209D01*
X101680023Y-110724782D01*
X101733987Y-110678029D01*
X101745747Y-110654982D01*
X101752318Y-110586794D01*
X101721775Y-110528298D01*
X101658913Y-110483210D01*
X101568527Y-110455246D01*
X101478292Y-110447699D01*
X101367167Y-110447667D01*
X101367167Y-110066667D01*
X101917500Y-110066667D01*
X101917500Y-110119583D01*
G37*
X101917500Y-110119583D02*
X101916103Y-110144098D01*
X101906628Y-110159558D01*
X101881143Y-110168052D01*
X101831721Y-110171666D01*
X101750430Y-110172486D01*
X101716417Y-110172500D01*
X101515333Y-110172500D01*
X101515333Y-110255870D01*
X101517220Y-110306275D01*
X101530251Y-110332703D01*
X101565477Y-110346007D01*
X101615523Y-110354264D01*
X101748309Y-110386488D01*
X101847761Y-110437442D01*
X101911734Y-110505466D01*
X101938083Y-110588896D01*
X101938667Y-110604561D01*
X101919467Y-110691673D01*
X101864071Y-110761509D01*
X101775786Y-110812018D01*
X101657917Y-110841145D01*
X101547083Y-110847697D01*
X101469128Y-110845640D01*
X101406510Y-110841400D01*
X101372643Y-110835888D01*
X101372458Y-110835815D01*
X101352206Y-110808806D01*
X101346000Y-110772560D01*
X101353043Y-110734634D01*
X101378709Y-110729696D01*
X101383042Y-110730862D01*
X101497112Y-110752754D01*
X101598585Y-110750209D01*
X101680023Y-110724782D01*
X101733987Y-110678029D01*
X101745747Y-110654982D01*
X101752318Y-110586794D01*
X101721775Y-110528298D01*
X101658913Y-110483210D01*
X101568527Y-110455246D01*
X101478292Y-110447699D01*
X101367167Y-110447667D01*
X101367167Y-110066667D01*
X101917500Y-110066667D01*
X101917500Y-110119583D01*
G36*
X105512900Y-111739542D02*
G01*
X105604543Y-111767331D01*
X105672612Y-111805496D01*
X105694763Y-111828514D01*
X105722796Y-111900405D01*
X105723319Y-111982764D01*
X105705708Y-112036335D01*
X105678759Y-112066460D01*
X105625921Y-112111296D01*
X105556974Y-112162758D01*
X105531083Y-112180679D01*
X105453975Y-112235341D01*
X105384688Y-112288641D01*
X105335407Y-112331092D01*
X105326935Y-112339652D01*
X105275621Y-112395000D01*
X105727500Y-112395000D01*
X105727500Y-112522000D01*
X105071333Y-112522000D01*
X105071333Y-112462907D01*
X105090718Y-112404418D01*
X105147787Y-112331915D01*
X105240907Y-112247084D01*
X105368449Y-112151611D01*
X105380602Y-112143212D01*
X105475775Y-112067427D01*
X105533227Y-111997791D01*
X105552382Y-111936192D01*
X105532662Y-111884521D01*
X105473489Y-111844667D01*
X105472036Y-111844060D01*
X105406622Y-111830558D01*
X105316686Y-111829310D01*
X105218034Y-111839703D01*
X105140125Y-111856943D01*
X105104786Y-111860754D01*
X105093138Y-111836129D01*
X105092500Y-111817680D01*
X105095917Y-111788158D01*
X105111180Y-111767594D01*
X105145803Y-111752838D01*
X105207303Y-111740738D01*
X105303194Y-111728143D01*
X105307204Y-111727661D01*
X105409761Y-111725271D01*
X105512900Y-111739542D01*
G37*
X105512900Y-111739542D02*
X105604543Y-111767331D01*
X105672612Y-111805496D01*
X105694763Y-111828514D01*
X105722796Y-111900405D01*
X105723319Y-111982764D01*
X105705708Y-112036335D01*
X105678759Y-112066460D01*
X105625921Y-112111296D01*
X105556974Y-112162758D01*
X105531083Y-112180679D01*
X105453975Y-112235341D01*
X105384688Y-112288641D01*
X105335407Y-112331092D01*
X105326935Y-112339652D01*
X105275621Y-112395000D01*
X105727500Y-112395000D01*
X105727500Y-112522000D01*
X105071333Y-112522000D01*
X105071333Y-112462907D01*
X105090718Y-112404418D01*
X105147787Y-112331915D01*
X105240907Y-112247084D01*
X105368449Y-112151611D01*
X105380602Y-112143212D01*
X105475775Y-112067427D01*
X105533227Y-111997791D01*
X105552382Y-111936192D01*
X105532662Y-111884521D01*
X105473489Y-111844667D01*
X105472036Y-111844060D01*
X105406622Y-111830558D01*
X105316686Y-111829310D01*
X105218034Y-111839703D01*
X105140125Y-111856943D01*
X105104786Y-111860754D01*
X105093138Y-111836129D01*
X105092500Y-111817680D01*
X105095917Y-111788158D01*
X105111180Y-111767594D01*
X105145803Y-111752838D01*
X105207303Y-111740738D01*
X105303194Y-111728143D01*
X105307204Y-111727661D01*
X105409761Y-111725271D01*
X105512900Y-111739542D01*
G36*
X104605667Y-112416167D02*
G01*
X104753833Y-112416167D01*
X104831242Y-112416945D01*
X104875545Y-112421475D01*
X104895966Y-112433053D01*
X104901730Y-112454973D01*
X104902000Y-112469083D01*
X104902000Y-112522000D01*
X104140000Y-112522000D01*
X104140000Y-112469083D01*
X104142179Y-112441437D01*
X104154865Y-112425615D01*
X104187283Y-112418321D01*
X104248658Y-112416263D01*
X104288167Y-112416167D01*
X104436333Y-112416167D01*
X104436333Y-112141000D01*
X104436619Y-112024984D01*
X104434454Y-111945359D01*
X104425309Y-111896233D01*
X104404650Y-111871714D01*
X104367948Y-111865911D01*
X104310670Y-111872932D01*
X104239488Y-111885066D01*
X104179014Y-111893615D01*
X104150070Y-111891203D01*
X104142639Y-111875002D01*
X104144238Y-111858184D01*
X104152309Y-111837692D01*
X104174547Y-111820885D01*
X104218146Y-111805029D01*
X104290298Y-111787385D01*
X104378125Y-111769204D01*
X104605667Y-111723815D01*
X104605667Y-112416167D01*
G37*
X104605667Y-112416167D02*
X104753833Y-112416167D01*
X104831242Y-112416945D01*
X104875545Y-112421475D01*
X104895966Y-112433053D01*
X104901730Y-112454973D01*
X104902000Y-112469083D01*
X104902000Y-112522000D01*
X104140000Y-112522000D01*
X104140000Y-112469083D01*
X104142179Y-112441437D01*
X104154865Y-112425615D01*
X104187283Y-112418321D01*
X104248658Y-112416263D01*
X104288167Y-112416167D01*
X104436333Y-112416167D01*
X104436333Y-112141000D01*
X104436619Y-112024984D01*
X104434454Y-111945359D01*
X104425309Y-111896233D01*
X104404650Y-111871714D01*
X104367948Y-111865911D01*
X104310670Y-111872932D01*
X104239488Y-111885066D01*
X104179014Y-111893615D01*
X104150070Y-111891203D01*
X104142639Y-111875002D01*
X104144238Y-111858184D01*
X104152309Y-111837692D01*
X104174547Y-111820885D01*
X104218146Y-111805029D01*
X104290298Y-111787385D01*
X104378125Y-111769204D01*
X104605667Y-111723815D01*
X104605667Y-112416167D01*
G36*
X101826077Y-111732475D02*
G01*
X101895289Y-111743786D01*
X101932270Y-111756715D01*
X101946931Y-111776896D01*
X101949250Y-111802464D01*
X101940135Y-111842374D01*
X101917500Y-111847815D01*
X101879503Y-111841764D01*
X101815968Y-111834198D01*
X101767984Y-111829358D01*
X101646734Y-111833322D01*
X101551809Y-111870063D01*
X101483842Y-111939176D01*
X101443962Y-112038077D01*
X101431055Y-112093905D01*
X101509420Y-112053952D01*
X101624287Y-112017465D01*
X101743878Y-112017961D01*
X101857196Y-112053905D01*
X101943958Y-112114557D01*
X101991706Y-112185927D01*
X102004699Y-112267885D01*
X101985503Y-112351043D01*
X101936686Y-112426009D01*
X101860815Y-112483396D01*
X101840542Y-112492815D01*
X101760831Y-112513037D01*
X101660605Y-112520715D01*
X101557366Y-112516107D01*
X101468617Y-112499474D01*
X101435285Y-112486798D01*
X101350600Y-112426081D01*
X101295606Y-112340050D01*
X101284107Y-112292110D01*
X101459736Y-112292110D01*
X101492370Y-112355970D01*
X101548660Y-112403911D01*
X101619453Y-112430754D01*
X101695593Y-112431318D01*
X101767925Y-112400422D01*
X101774460Y-112395510D01*
X101826436Y-112337777D01*
X101838796Y-112272909D01*
X101821061Y-112208824D01*
X101778069Y-112152754D01*
X101713362Y-112119314D01*
X101638236Y-112108233D01*
X101563982Y-112119240D01*
X101501895Y-112152061D01*
X101463267Y-112206426D01*
X101459915Y-112217513D01*
X101459736Y-112292110D01*
X101284107Y-112292110D01*
X101267896Y-112224535D01*
X101265016Y-112191619D01*
X101266890Y-112063663D01*
X101293259Y-111962375D01*
X101347608Y-111877669D01*
X101387436Y-111837411D01*
X101493501Y-111769391D01*
X101624231Y-111732089D01*
X101773749Y-111726913D01*
X101826077Y-111732475D01*
G37*
X101826077Y-111732475D02*
X101895289Y-111743786D01*
X101932270Y-111756715D01*
X101946931Y-111776896D01*
X101949250Y-111802464D01*
X101940135Y-111842374D01*
X101917500Y-111847815D01*
X101879503Y-111841764D01*
X101815968Y-111834198D01*
X101767984Y-111829358D01*
X101646734Y-111833322D01*
X101551809Y-111870063D01*
X101483842Y-111939176D01*
X101443962Y-112038077D01*
X101431055Y-112093905D01*
X101509420Y-112053952D01*
X101624287Y-112017465D01*
X101743878Y-112017961D01*
X101857196Y-112053905D01*
X101943958Y-112114557D01*
X101991706Y-112185927D01*
X102004699Y-112267885D01*
X101985503Y-112351043D01*
X101936686Y-112426009D01*
X101860815Y-112483396D01*
X101840542Y-112492815D01*
X101760831Y-112513037D01*
X101660605Y-112520715D01*
X101557366Y-112516107D01*
X101468617Y-112499474D01*
X101435285Y-112486798D01*
X101350600Y-112426081D01*
X101295606Y-112340050D01*
X101284107Y-112292110D01*
X101459736Y-112292110D01*
X101492370Y-112355970D01*
X101548660Y-112403911D01*
X101619453Y-112430754D01*
X101695593Y-112431318D01*
X101767925Y-112400422D01*
X101774460Y-112395510D01*
X101826436Y-112337777D01*
X101838796Y-112272909D01*
X101821061Y-112208824D01*
X101778069Y-112152754D01*
X101713362Y-112119314D01*
X101638236Y-112108233D01*
X101563982Y-112119240D01*
X101501895Y-112152061D01*
X101463267Y-112206426D01*
X101459915Y-112217513D01*
X101459736Y-112292110D01*
X101284107Y-112292110D01*
X101267896Y-112224535D01*
X101265016Y-112191619D01*
X101266890Y-112063663D01*
X101293259Y-111962375D01*
X101347608Y-111877669D01*
X101387436Y-111837411D01*
X101493501Y-111769391D01*
X101624231Y-111732089D01*
X101773749Y-111726913D01*
X101826077Y-111732475D01*
G36*
X100783404Y-111744973D02*
G01*
X100886254Y-111786240D01*
X100953132Y-111849255D01*
X100982637Y-111913662D01*
X100978229Y-111977989D01*
X100938164Y-112045403D01*
X100860698Y-112119072D01*
X100767242Y-112186907D01*
X100661149Y-112261033D01*
X100587421Y-112319655D01*
X100548020Y-112361123D01*
X100541667Y-112376782D01*
X100561357Y-112384277D01*
X100614528Y-112391293D01*
X100692328Y-112396904D01*
X100758625Y-112399551D01*
X100856094Y-112402601D01*
X100918873Y-112406609D01*
X100954594Y-112413646D01*
X100970886Y-112425786D01*
X100975378Y-112445102D01*
X100975583Y-112458500D01*
X100975583Y-112511417D01*
X100656849Y-112517238D01*
X100544691Y-112518344D01*
X100447821Y-112517518D01*
X100373992Y-112514965D01*
X100330955Y-112510890D01*
X100323474Y-112508418D01*
X100308045Y-112465776D01*
X100323711Y-112409055D01*
X100367121Y-112348783D01*
X100377625Y-112338367D01*
X100427434Y-112295360D01*
X100498762Y-112238684D01*
X100578344Y-112178796D01*
X100600144Y-112162987D01*
X100671780Y-112108919D01*
X100730918Y-112059485D01*
X100768170Y-112022722D01*
X100774769Y-112013498D01*
X100796479Y-111942344D01*
X100780794Y-111885873D01*
X100730975Y-111846966D01*
X100650283Y-111828507D01*
X100567447Y-111830216D01*
X100491521Y-111839614D01*
X100426521Y-111850354D01*
X100398792Y-111856729D01*
X100363719Y-111860822D01*
X100351922Y-111836873D01*
X100351167Y-111816344D01*
X100358031Y-111778509D01*
X100386425Y-111757072D01*
X100430542Y-111745084D01*
X100495430Y-111736258D01*
X100581109Y-111730855D01*
X100647500Y-111729967D01*
X100783404Y-111744973D01*
G37*
X100783404Y-111744973D02*
X100886254Y-111786240D01*
X100953132Y-111849255D01*
X100982637Y-111913662D01*
X100978229Y-111977989D01*
X100938164Y-112045403D01*
X100860698Y-112119072D01*
X100767242Y-112186907D01*
X100661149Y-112261033D01*
X100587421Y-112319655D01*
X100548020Y-112361123D01*
X100541667Y-112376782D01*
X100561357Y-112384277D01*
X100614528Y-112391293D01*
X100692328Y-112396904D01*
X100758625Y-112399551D01*
X100856094Y-112402601D01*
X100918873Y-112406609D01*
X100954594Y-112413646D01*
X100970886Y-112425786D01*
X100975378Y-112445102D01*
X100975583Y-112458500D01*
X100975583Y-112511417D01*
X100656849Y-112517238D01*
X100544691Y-112518344D01*
X100447821Y-112517518D01*
X100373992Y-112514965D01*
X100330955Y-112510890D01*
X100323474Y-112508418D01*
X100308045Y-112465776D01*
X100323711Y-112409055D01*
X100367121Y-112348783D01*
X100377625Y-112338367D01*
X100427434Y-112295360D01*
X100498762Y-112238684D01*
X100578344Y-112178796D01*
X100600144Y-112162987D01*
X100671780Y-112108919D01*
X100730918Y-112059485D01*
X100768170Y-112022722D01*
X100774769Y-112013498D01*
X100796479Y-111942344D01*
X100780794Y-111885873D01*
X100730975Y-111846966D01*
X100650283Y-111828507D01*
X100567447Y-111830216D01*
X100491521Y-111839614D01*
X100426521Y-111850354D01*
X100398792Y-111856729D01*
X100363719Y-111860822D01*
X100351922Y-111836873D01*
X100351167Y-111816344D01*
X100358031Y-111778509D01*
X100386425Y-111757072D01*
X100430542Y-111745084D01*
X100495430Y-111736258D01*
X100581109Y-111730855D01*
X100647500Y-111729967D01*
X100783404Y-111744973D01*
G36*
X96580044Y-111831339D02*
G01*
X96671316Y-111840053D01*
X96728340Y-111849961D01*
X96759123Y-111864817D01*
X96771672Y-111888376D01*
X96774000Y-111922264D01*
X96768373Y-111960015D01*
X96746407Y-111964280D01*
X96736958Y-111960834D01*
X96677861Y-111946437D01*
X96592440Y-111937288D01*
X96496432Y-111933825D01*
X96405571Y-111936485D01*
X96335594Y-111945705D01*
X96322506Y-111949315D01*
X96237334Y-111994716D01*
X96176655Y-112061411D01*
X96144503Y-112140255D01*
X96144915Y-112222107D01*
X96173554Y-112286747D01*
X96233776Y-112341797D01*
X96322647Y-112384880D01*
X96427011Y-112410695D01*
X96493542Y-112415702D01*
X96604667Y-112416167D01*
X96604667Y-112342083D01*
X96602103Y-112294650D01*
X96586277Y-112273571D01*
X96544983Y-112268165D01*
X96520000Y-112268000D01*
X96464608Y-112264450D01*
X96440127Y-112250101D01*
X96435333Y-112225667D01*
X96438868Y-112204574D01*
X96455151Y-112191933D01*
X96492697Y-112185614D01*
X96560020Y-112183489D01*
X96604667Y-112183333D01*
X96774000Y-112183333D01*
X96774000Y-112495542D01*
X96707854Y-112508771D01*
X96626178Y-112518175D01*
X96522100Y-112520696D01*
X96411505Y-112516905D01*
X96310273Y-112507372D01*
X96234286Y-112492668D01*
X96230858Y-112491628D01*
X96112489Y-112439546D01*
X96028850Y-112366830D01*
X95979499Y-112279563D01*
X95958126Y-112174046D01*
X95974951Y-112077635D01*
X96026321Y-111993056D01*
X96108585Y-111923034D01*
X96218090Y-111870296D01*
X96351183Y-111837567D01*
X96504214Y-111827573D01*
X96580044Y-111831339D01*
G37*
X96580044Y-111831339D02*
X96671316Y-111840053D01*
X96728340Y-111849961D01*
X96759123Y-111864817D01*
X96771672Y-111888376D01*
X96774000Y-111922264D01*
X96768373Y-111960015D01*
X96746407Y-111964280D01*
X96736958Y-111960834D01*
X96677861Y-111946437D01*
X96592440Y-111937288D01*
X96496432Y-111933825D01*
X96405571Y-111936485D01*
X96335594Y-111945705D01*
X96322506Y-111949315D01*
X96237334Y-111994716D01*
X96176655Y-112061411D01*
X96144503Y-112140255D01*
X96144915Y-112222107D01*
X96173554Y-112286747D01*
X96233776Y-112341797D01*
X96322647Y-112384880D01*
X96427011Y-112410695D01*
X96493542Y-112415702D01*
X96604667Y-112416167D01*
X96604667Y-112342083D01*
X96602103Y-112294650D01*
X96586277Y-112273571D01*
X96544983Y-112268165D01*
X96520000Y-112268000D01*
X96464608Y-112264450D01*
X96440127Y-112250101D01*
X96435333Y-112225667D01*
X96438868Y-112204574D01*
X96455151Y-112191933D01*
X96492697Y-112185614D01*
X96560020Y-112183489D01*
X96604667Y-112183333D01*
X96774000Y-112183333D01*
X96774000Y-112495542D01*
X96707854Y-112508771D01*
X96626178Y-112518175D01*
X96522100Y-112520696D01*
X96411505Y-112516905D01*
X96310273Y-112507372D01*
X96234286Y-112492668D01*
X96230858Y-112491628D01*
X96112489Y-112439546D01*
X96028850Y-112366830D01*
X95979499Y-112279563D01*
X95958126Y-112174046D01*
X95974951Y-112077635D01*
X96026321Y-111993056D01*
X96108585Y-111923034D01*
X96218090Y-111870296D01*
X96351183Y-111837567D01*
X96504214Y-111827573D01*
X96580044Y-111831339D01*
G36*
X104586931Y-113438691D02*
G01*
X104595264Y-113461969D01*
X104600799Y-113507553D01*
X104604034Y-113580999D01*
X104605465Y-113687860D01*
X104605667Y-113770833D01*
X104605667Y-114109500D01*
X104753833Y-114109500D01*
X104831242Y-114110278D01*
X104875545Y-114114809D01*
X104895966Y-114126387D01*
X104901730Y-114148306D01*
X104902000Y-114162417D01*
X104902000Y-114215333D01*
X104140000Y-114215333D01*
X104140000Y-114162417D01*
X104142179Y-114134770D01*
X104154865Y-114118948D01*
X104187283Y-114111655D01*
X104248658Y-114109596D01*
X104288167Y-114109500D01*
X104436333Y-114109500D01*
X104436333Y-113554360D01*
X104335792Y-113568865D01*
X104264665Y-113580061D01*
X104204088Y-113591151D01*
X104187625Y-113594730D01*
X104151047Y-113595721D01*
X104140122Y-113568178D01*
X104140000Y-113561864D01*
X104158060Y-113520536D01*
X104187625Y-113506589D01*
X104267096Y-113489010D01*
X104355927Y-113470678D01*
X104442719Y-113453781D01*
X104516074Y-113440508D01*
X104564595Y-113433046D01*
X104575300Y-113432167D01*
X104586931Y-113438691D01*
G37*
X104586931Y-113438691D02*
X104595264Y-113461969D01*
X104600799Y-113507553D01*
X104604034Y-113580999D01*
X104605465Y-113687860D01*
X104605667Y-113770833D01*
X104605667Y-114109500D01*
X104753833Y-114109500D01*
X104831242Y-114110278D01*
X104875545Y-114114809D01*
X104895966Y-114126387D01*
X104901730Y-114148306D01*
X104902000Y-114162417D01*
X104902000Y-114215333D01*
X104140000Y-114215333D01*
X104140000Y-114162417D01*
X104142179Y-114134770D01*
X104154865Y-114118948D01*
X104187283Y-114111655D01*
X104248658Y-114109596D01*
X104288167Y-114109500D01*
X104436333Y-114109500D01*
X104436333Y-113554360D01*
X104335792Y-113568865D01*
X104264665Y-113580061D01*
X104204088Y-113591151D01*
X104187625Y-113594730D01*
X104151047Y-113595721D01*
X104140122Y-113568178D01*
X104140000Y-113561864D01*
X104158060Y-113520536D01*
X104187625Y-113506589D01*
X104267096Y-113489010D01*
X104355927Y-113470678D01*
X104442719Y-113453781D01*
X104516074Y-113440508D01*
X104564595Y-113433046D01*
X104575300Y-113432167D01*
X104586931Y-113438691D01*
G36*
X101980286Y-113490375D02*
G01*
X101966542Y-113537662D01*
X101925063Y-113606867D01*
X101854107Y-113700788D01*
X101833577Y-113726006D01*
X101753208Y-113829362D01*
X101681018Y-113932834D01*
X101621543Y-114028940D01*
X101579317Y-114110198D01*
X101558874Y-114169127D01*
X101557667Y-114181254D01*
X101548486Y-114202113D01*
X101514986Y-114212534D01*
X101449539Y-114215333D01*
X101386321Y-114214275D01*
X101356059Y-114207227D01*
X101349377Y-114188376D01*
X101355626Y-114157125D01*
X101372544Y-114109391D01*
X101403711Y-114053067D01*
X101452864Y-113982860D01*
X101523741Y-113893476D01*
X101620078Y-113779620D01*
X101631229Y-113766715D01*
X101694176Y-113693019D01*
X101745380Y-113631237D01*
X101779307Y-113588176D01*
X101790500Y-113570924D01*
X101770698Y-113566385D01*
X101716744Y-113562660D01*
X101636819Y-113560128D01*
X101539103Y-113559167D01*
X101282500Y-113559167D01*
X101282500Y-113432167D01*
X101981000Y-113432167D01*
X101980286Y-113490375D01*
G37*
X101980286Y-113490375D02*
X101966542Y-113537662D01*
X101925063Y-113606867D01*
X101854107Y-113700788D01*
X101833577Y-113726006D01*
X101753208Y-113829362D01*
X101681018Y-113932834D01*
X101621543Y-114028940D01*
X101579317Y-114110198D01*
X101558874Y-114169127D01*
X101557667Y-114181254D01*
X101548486Y-114202113D01*
X101514986Y-114212534D01*
X101449539Y-114215333D01*
X101386321Y-114214275D01*
X101356059Y-114207227D01*
X101349377Y-114188376D01*
X101355626Y-114157125D01*
X101372544Y-114109391D01*
X101403711Y-114053067D01*
X101452864Y-113982860D01*
X101523741Y-113893476D01*
X101620078Y-113779620D01*
X101631229Y-113766715D01*
X101694176Y-113693019D01*
X101745380Y-113631237D01*
X101779307Y-113588176D01*
X101790500Y-113570924D01*
X101770698Y-113566385D01*
X101716744Y-113562660D01*
X101636819Y-113560128D01*
X101539103Y-113559167D01*
X101282500Y-113559167D01*
X101282500Y-113432167D01*
X101981000Y-113432167D01*
X101980286Y-113490375D01*
G36*
X100689085Y-113435719D02*
G01*
X100812341Y-113453288D01*
X100900737Y-113491095D01*
X100957458Y-113550822D01*
X100973680Y-113585805D01*
X100983447Y-113644427D01*
X100967171Y-113701799D01*
X100921499Y-113762630D01*
X100843077Y-113831630D01*
X100751279Y-113898090D01*
X100671522Y-113955072D01*
X100604044Y-114007653D01*
X100557313Y-114048979D01*
X100541115Y-114068197D01*
X100533528Y-114086194D01*
X100538197Y-114098023D01*
X100561731Y-114104977D01*
X100610739Y-114108346D01*
X100691831Y-114109420D01*
X100752588Y-114109500D01*
X100986167Y-114109500D01*
X100986167Y-114215333D01*
X100308833Y-114215333D01*
X100308833Y-114159139D01*
X100328079Y-114102536D01*
X100384387Y-114032177D01*
X100475613Y-113950275D01*
X100599613Y-113859041D01*
X100600092Y-113858715D01*
X100691450Y-113793098D01*
X100750551Y-113740860D01*
X100782648Y-113695747D01*
X100792993Y-113651509D01*
X100791961Y-113630320D01*
X100766293Y-113570780D01*
X100706064Y-113535182D01*
X100611682Y-113523613D01*
X100483554Y-113536156D01*
X100409375Y-113550950D01*
X100367668Y-113555705D01*
X100352726Y-113536970D01*
X100351167Y-113510014D01*
X100356176Y-113475702D01*
X100378628Y-113456451D01*
X100429663Y-113444260D01*
X100446345Y-113441654D01*
X100518930Y-113435387D01*
X100611545Y-113433499D01*
X100689085Y-113435719D01*
G37*
X100689085Y-113435719D02*
X100812341Y-113453288D01*
X100900737Y-113491095D01*
X100957458Y-113550822D01*
X100973680Y-113585805D01*
X100983447Y-113644427D01*
X100967171Y-113701799D01*
X100921499Y-113762630D01*
X100843077Y-113831630D01*
X100751279Y-113898090D01*
X100671522Y-113955072D01*
X100604044Y-114007653D01*
X100557313Y-114048979D01*
X100541115Y-114068197D01*
X100533528Y-114086194D01*
X100538197Y-114098023D01*
X100561731Y-114104977D01*
X100610739Y-114108346D01*
X100691831Y-114109420D01*
X100752588Y-114109500D01*
X100986167Y-114109500D01*
X100986167Y-114215333D01*
X100308833Y-114215333D01*
X100308833Y-114159139D01*
X100328079Y-114102536D01*
X100384387Y-114032177D01*
X100475613Y-113950275D01*
X100599613Y-113859041D01*
X100600092Y-113858715D01*
X100691450Y-113793098D01*
X100750551Y-113740860D01*
X100782648Y-113695747D01*
X100792993Y-113651509D01*
X100791961Y-113630320D01*
X100766293Y-113570780D01*
X100706064Y-113535182D01*
X100611682Y-113523613D01*
X100483554Y-113536156D01*
X100409375Y-113550950D01*
X100367668Y-113555705D01*
X100352726Y-113536970D01*
X100351167Y-113510014D01*
X100356176Y-113475702D01*
X100378628Y-113456451D01*
X100429663Y-113444260D01*
X100446345Y-113441654D01*
X100518930Y-113435387D01*
X100611545Y-113433499D01*
X100689085Y-113435719D01*
G36*
X96303042Y-113542019D02*
G01*
X96448379Y-113549470D01*
X96556321Y-113561940D01*
X96631685Y-113581226D01*
X96679287Y-113609125D01*
X96703942Y-113647434D01*
X96710500Y-113694013D01*
X96696740Y-113757835D01*
X96662088Y-113808954D01*
X96616479Y-113833724D01*
X96608291Y-113834333D01*
X96584918Y-113848460D01*
X96583500Y-113855500D01*
X96600525Y-113874547D01*
X96613626Y-113876667D01*
X96654625Y-113891600D01*
X96703959Y-113927957D01*
X96747829Y-113973072D01*
X96772436Y-114014282D01*
X96774000Y-114023860D01*
X96761455Y-114066409D01*
X96731478Y-114115515D01*
X96682484Y-114156108D01*
X96605996Y-114185493D01*
X96498095Y-114204492D01*
X96354861Y-114213924D01*
X96254375Y-114215333D01*
X96033167Y-114215333D01*
X96033167Y-114109500D01*
X96202500Y-114109500D01*
X96352058Y-114109500D01*
X96433157Y-114106486D01*
X96501671Y-114098586D01*
X96542558Y-114087588D01*
X96575772Y-114052017D01*
X96583500Y-114023008D01*
X96563115Y-113982786D01*
X96504777Y-113948084D01*
X96412707Y-113920784D01*
X96320478Y-113905871D01*
X96202500Y-113892005D01*
X96202500Y-114109500D01*
X96033167Y-114109500D01*
X96033167Y-113818098D01*
X96202500Y-113818098D01*
X96340347Y-113809321D01*
X96441418Y-113796522D01*
X96503370Y-113773223D01*
X96514613Y-113764124D01*
X96538590Y-113727250D01*
X96528007Y-113691061D01*
X96503790Y-113669980D01*
X96457589Y-113656849D01*
X96380463Y-113649467D01*
X96353741Y-113648198D01*
X96202500Y-113641979D01*
X96202500Y-113818098D01*
X96033167Y-113818098D01*
X96033167Y-113532994D01*
X96303042Y-113542019D01*
G37*
X96303042Y-113542019D02*
X96448379Y-113549470D01*
X96556321Y-113561940D01*
X96631685Y-113581226D01*
X96679287Y-113609125D01*
X96703942Y-113647434D01*
X96710500Y-113694013D01*
X96696740Y-113757835D01*
X96662088Y-113808954D01*
X96616479Y-113833724D01*
X96608291Y-113834333D01*
X96584918Y-113848460D01*
X96583500Y-113855500D01*
X96600525Y-113874547D01*
X96613626Y-113876667D01*
X96654625Y-113891600D01*
X96703959Y-113927957D01*
X96747829Y-113973072D01*
X96772436Y-114014282D01*
X96774000Y-114023860D01*
X96761455Y-114066409D01*
X96731478Y-114115515D01*
X96682484Y-114156108D01*
X96605996Y-114185493D01*
X96498095Y-114204492D01*
X96354861Y-114213924D01*
X96254375Y-114215333D01*
X96033167Y-114215333D01*
X96033167Y-114109500D01*
X96202500Y-114109500D01*
X96352058Y-114109500D01*
X96433157Y-114106486D01*
X96501671Y-114098586D01*
X96542558Y-114087588D01*
X96575772Y-114052017D01*
X96583500Y-114023008D01*
X96563115Y-113982786D01*
X96504777Y-113948084D01*
X96412707Y-113920784D01*
X96320478Y-113905871D01*
X96202500Y-113892005D01*
X96202500Y-114109500D01*
X96033167Y-114109500D01*
X96033167Y-113818098D01*
X96202500Y-113818098D01*
X96340347Y-113809321D01*
X96441418Y-113796522D01*
X96503370Y-113773223D01*
X96514613Y-113764124D01*
X96538590Y-113727250D01*
X96528007Y-113691061D01*
X96503790Y-113669980D01*
X96457589Y-113656849D01*
X96380463Y-113649467D01*
X96353741Y-113648198D01*
X96202500Y-113641979D01*
X96202500Y-113818098D01*
X96033167Y-113818098D01*
X96033167Y-113532994D01*
X96303042Y-113542019D01*
G36*
X105389738Y-113433934D02*
G01*
X105428835Y-113435328D01*
X105523084Y-113440350D01*
X105585902Y-113448267D01*
X105628190Y-113461700D01*
X105660848Y-113483275D01*
X105672906Y-113494064D01*
X105717919Y-113560638D01*
X105724996Y-113632687D01*
X105695776Y-113700660D01*
X105631899Y-113755004D01*
X105627725Y-113757244D01*
X105571348Y-113786783D01*
X105637556Y-113821021D01*
X105711590Y-113874944D01*
X105757996Y-113941574D01*
X105769833Y-113994938D01*
X105752119Y-114054593D01*
X105706466Y-114116769D01*
X105644106Y-114167936D01*
X105612821Y-114184083D01*
X105533531Y-114206075D01*
X105427816Y-114220419D01*
X105311128Y-114225655D01*
X105214208Y-114221795D01*
X105153122Y-114214105D01*
X105123410Y-114200680D01*
X105114120Y-114174913D01*
X105113667Y-114161133D01*
X105113667Y-114109253D01*
X105288292Y-114122369D01*
X105376736Y-114127883D01*
X105434792Y-114127159D01*
X105474153Y-114118531D01*
X105506517Y-114100333D01*
X105521125Y-114089207D01*
X105563813Y-114040478D01*
X105579333Y-113993083D01*
X105560587Y-113940331D01*
X105513303Y-113892950D01*
X105450916Y-113861839D01*
X105409791Y-113855500D01*
X105317023Y-113848867D01*
X105252178Y-113830305D01*
X105221262Y-113801823D01*
X105219500Y-113791898D01*
X105227243Y-113770071D01*
X105256399Y-113756535D01*
X105315859Y-113748033D01*
X105345707Y-113745626D01*
X105441188Y-113729128D01*
X105510860Y-113698197D01*
X105551070Y-113657418D01*
X105558169Y-113611380D01*
X105528506Y-113564669D01*
X105504485Y-113546136D01*
X105458689Y-113525318D01*
X105399199Y-113519110D01*
X105328110Y-113523786D01*
X105254747Y-113533091D01*
X105195079Y-113543545D01*
X105170125Y-113550153D01*
X105143771Y-113550932D01*
X105135035Y-113519593D01*
X105134833Y-113508918D01*
X105141045Y-113474729D01*
X105163663Y-113451632D01*
X105208667Y-113438132D01*
X105282033Y-113432731D01*
X105389738Y-113433934D01*
G37*
X105389738Y-113433934D02*
X105428835Y-113435328D01*
X105523084Y-113440350D01*
X105585902Y-113448267D01*
X105628190Y-113461700D01*
X105660848Y-113483275D01*
X105672906Y-113494064D01*
X105717919Y-113560638D01*
X105724996Y-113632687D01*
X105695776Y-113700660D01*
X105631899Y-113755004D01*
X105627725Y-113757244D01*
X105571348Y-113786783D01*
X105637556Y-113821021D01*
X105711590Y-113874944D01*
X105757996Y-113941574D01*
X105769833Y-113994938D01*
X105752119Y-114054593D01*
X105706466Y-114116769D01*
X105644106Y-114167936D01*
X105612821Y-114184083D01*
X105533531Y-114206075D01*
X105427816Y-114220419D01*
X105311128Y-114225655D01*
X105214208Y-114221795D01*
X105153122Y-114214105D01*
X105123410Y-114200680D01*
X105114120Y-114174913D01*
X105113667Y-114161133D01*
X105113667Y-114109253D01*
X105288292Y-114122369D01*
X105376736Y-114127883D01*
X105434792Y-114127159D01*
X105474153Y-114118531D01*
X105506517Y-114100333D01*
X105521125Y-114089207D01*
X105563813Y-114040478D01*
X105579333Y-113993083D01*
X105560587Y-113940331D01*
X105513303Y-113892950D01*
X105450916Y-113861839D01*
X105409791Y-113855500D01*
X105317023Y-113848867D01*
X105252178Y-113830305D01*
X105221262Y-113801823D01*
X105219500Y-113791898D01*
X105227243Y-113770071D01*
X105256399Y-113756535D01*
X105315859Y-113748033D01*
X105345707Y-113745626D01*
X105441188Y-113729128D01*
X105510860Y-113698197D01*
X105551070Y-113657418D01*
X105558169Y-113611380D01*
X105528506Y-113564669D01*
X105504485Y-113546136D01*
X105458689Y-113525318D01*
X105399199Y-113519110D01*
X105328110Y-113523786D01*
X105254747Y-113533091D01*
X105195079Y-113543545D01*
X105170125Y-113550153D01*
X105143771Y-113550932D01*
X105135035Y-113519593D01*
X105134833Y-113508918D01*
X105141045Y-113474729D01*
X105163663Y-113451632D01*
X105208667Y-113438132D01*
X105282033Y-113432731D01*
X105389738Y-113433934D01*
G36*
X104518696Y-115130882D02*
G01*
X104628180Y-115155970D01*
X104712496Y-115197831D01*
X104767566Y-115254452D01*
X104789309Y-115323819D01*
X104774210Y-115402574D01*
X104737092Y-115453583D01*
X104661903Y-115520238D01*
X104559642Y-115594845D01*
X104480040Y-115651568D01*
X104412878Y-115703518D01*
X104366531Y-115743979D01*
X104350528Y-115762627D01*
X104344139Y-115779772D01*
X104351285Y-115791283D01*
X104378620Y-115798597D01*
X104432795Y-115803153D01*
X104520463Y-115806387D01*
X104557682Y-115807405D01*
X104658390Y-115810614D01*
X104724144Y-115814918D01*
X104762319Y-115821882D01*
X104780291Y-115833072D01*
X104785436Y-115850051D01*
X104785583Y-115855750D01*
X104783433Y-115871728D01*
X104772895Y-115883257D01*
X104747835Y-115891222D01*
X104702121Y-115896509D01*
X104629621Y-115900004D01*
X104524202Y-115902593D01*
X104452208Y-115903912D01*
X104118833Y-115909741D01*
X104118833Y-115856993D01*
X104137374Y-115801997D01*
X104189986Y-115734465D01*
X104272150Y-115659270D01*
X104366544Y-115589801D01*
X104482051Y-115505359D01*
X104558696Y-115432738D01*
X104597656Y-115370021D01*
X104600112Y-115315291D01*
X104567241Y-115266631D01*
X104565958Y-115265459D01*
X104494686Y-115228224D01*
X104397159Y-115218091D01*
X104280168Y-115235700D01*
X104272292Y-115237755D01*
X104161167Y-115267465D01*
X104161167Y-115209835D01*
X104166888Y-115170675D01*
X104192106Y-115150231D01*
X104240542Y-115139086D01*
X104388124Y-115124583D01*
X104518696Y-115130882D01*
G37*
X104518696Y-115130882D02*
X104628180Y-115155970D01*
X104712496Y-115197831D01*
X104767566Y-115254452D01*
X104789309Y-115323819D01*
X104774210Y-115402574D01*
X104737092Y-115453583D01*
X104661903Y-115520238D01*
X104559642Y-115594845D01*
X104480040Y-115651568D01*
X104412878Y-115703518D01*
X104366531Y-115743979D01*
X104350528Y-115762627D01*
X104344139Y-115779772D01*
X104351285Y-115791283D01*
X104378620Y-115798597D01*
X104432795Y-115803153D01*
X104520463Y-115806387D01*
X104557682Y-115807405D01*
X104658390Y-115810614D01*
X104724144Y-115814918D01*
X104762319Y-115821882D01*
X104780291Y-115833072D01*
X104785436Y-115850051D01*
X104785583Y-115855750D01*
X104783433Y-115871728D01*
X104772895Y-115883257D01*
X104747835Y-115891222D01*
X104702121Y-115896509D01*
X104629621Y-115900004D01*
X104524202Y-115902593D01*
X104452208Y-115903912D01*
X104118833Y-115909741D01*
X104118833Y-115856993D01*
X104137374Y-115801997D01*
X104189986Y-115734465D01*
X104272150Y-115659270D01*
X104366544Y-115589801D01*
X104482051Y-115505359D01*
X104558696Y-115432738D01*
X104597656Y-115370021D01*
X104600112Y-115315291D01*
X104567241Y-115266631D01*
X104565958Y-115265459D01*
X104494686Y-115228224D01*
X104397159Y-115218091D01*
X104280168Y-115235700D01*
X104272292Y-115237755D01*
X104161167Y-115267465D01*
X104161167Y-115209835D01*
X104166888Y-115170675D01*
X104192106Y-115150231D01*
X104240542Y-115139086D01*
X104388124Y-115124583D01*
X104518696Y-115130882D01*
G36*
X96381406Y-115236367D02*
G01*
X96413964Y-115239482D01*
X96440497Y-115247551D01*
X96465882Y-115266055D01*
X96495002Y-115300479D01*
X96532735Y-115356308D01*
X96583961Y-115439025D01*
X96631198Y-115517083D01*
X96691978Y-115618175D01*
X96747183Y-115710773D01*
X96792022Y-115786786D01*
X96821708Y-115838126D01*
X96828544Y-115850458D01*
X96859754Y-115908667D01*
X96764390Y-115908667D01*
X96703583Y-115905663D01*
X96667699Y-115889589D01*
X96639400Y-115849849D01*
X96625833Y-115824000D01*
X96582639Y-115739333D01*
X96149583Y-115739659D01*
X96101326Y-115824163D01*
X96066313Y-115877511D01*
X96032398Y-115902197D01*
X95984375Y-115908627D01*
X95977854Y-115908667D01*
X95930551Y-115904344D01*
X95909517Y-115893671D01*
X95909694Y-115890886D01*
X95922320Y-115867693D01*
X95952979Y-115814358D01*
X95998039Y-115737111D01*
X96046527Y-115654667D01*
X96199047Y-115654667D01*
X96359523Y-115654667D01*
X96435867Y-115653568D01*
X96492514Y-115650659D01*
X96519172Y-115646521D01*
X96520000Y-115645600D01*
X96509964Y-115624291D01*
X96483545Y-115576706D01*
X96446278Y-115512784D01*
X96442982Y-115507243D01*
X96365963Y-115377952D01*
X96324336Y-115447518D01*
X96282816Y-115516580D01*
X96241132Y-115585458D01*
X96240878Y-115585875D01*
X96199047Y-115654667D01*
X96046527Y-115654667D01*
X96053871Y-115642181D01*
X96107250Y-115551961D01*
X96297750Y-115230817D01*
X96381406Y-115236367D01*
G37*
X96381406Y-115236367D02*
X96413964Y-115239482D01*
X96440497Y-115247551D01*
X96465882Y-115266055D01*
X96495002Y-115300479D01*
X96532735Y-115356308D01*
X96583961Y-115439025D01*
X96631198Y-115517083D01*
X96691978Y-115618175D01*
X96747183Y-115710773D01*
X96792022Y-115786786D01*
X96821708Y-115838126D01*
X96828544Y-115850458D01*
X96859754Y-115908667D01*
X96764390Y-115908667D01*
X96703583Y-115905663D01*
X96667699Y-115889589D01*
X96639400Y-115849849D01*
X96625833Y-115824000D01*
X96582639Y-115739333D01*
X96149583Y-115739659D01*
X96101326Y-115824163D01*
X96066313Y-115877511D01*
X96032398Y-115902197D01*
X95984375Y-115908627D01*
X95977854Y-115908667D01*
X95930551Y-115904344D01*
X95909517Y-115893671D01*
X95909694Y-115890886D01*
X95922320Y-115867693D01*
X95952979Y-115814358D01*
X95998039Y-115737111D01*
X96046527Y-115654667D01*
X96199047Y-115654667D01*
X96359523Y-115654667D01*
X96435867Y-115653568D01*
X96492514Y-115650659D01*
X96519172Y-115646521D01*
X96520000Y-115645600D01*
X96509964Y-115624291D01*
X96483545Y-115576706D01*
X96446278Y-115512784D01*
X96442982Y-115507243D01*
X96365963Y-115377952D01*
X96324336Y-115447518D01*
X96282816Y-115516580D01*
X96241132Y-115585458D01*
X96240878Y-115585875D01*
X96199047Y-115654667D01*
X96046527Y-115654667D01*
X96053871Y-115642181D01*
X96107250Y-115551961D01*
X96297750Y-115230817D01*
X96381406Y-115236367D01*
G36*
X105439810Y-115128792D02*
G01*
X105440499Y-115128826D01*
X105566413Y-115144778D01*
X105654902Y-115178465D01*
X105707304Y-115230614D01*
X105723746Y-115282420D01*
X105714731Y-115351823D01*
X105678428Y-115414182D01*
X105624926Y-115452503D01*
X105622230Y-115453404D01*
X105587705Y-115473520D01*
X105581077Y-115495403D01*
X105605669Y-115506456D01*
X105608229Y-115506500D01*
X105655820Y-115523428D01*
X105706697Y-115565124D01*
X105746319Y-115617959D01*
X105758091Y-115647003D01*
X105760552Y-115730912D01*
X105724891Y-115802110D01*
X105653975Y-115858471D01*
X105550673Y-115897866D01*
X105417850Y-115918169D01*
X105390567Y-115919650D01*
X105303739Y-115921524D01*
X105226321Y-115920345D01*
X105174179Y-115916376D01*
X105171875Y-115915999D01*
X105127525Y-115898609D01*
X105113774Y-115861006D01*
X105113667Y-115855374D01*
X105115247Y-115830774D01*
X105125638Y-115816536D01*
X105153318Y-115810792D01*
X105206762Y-115811674D01*
X105288292Y-115816890D01*
X105376953Y-115821811D01*
X105435231Y-115820617D01*
X105474845Y-115811579D01*
X105507518Y-115792970D01*
X105521125Y-115782574D01*
X105571214Y-115725847D01*
X105581971Y-115670956D01*
X105556333Y-115621992D01*
X105497242Y-115583048D01*
X105407637Y-115558215D01*
X105355885Y-115552586D01*
X105282170Y-115546692D01*
X105241228Y-115538133D01*
X105223521Y-115522775D01*
X105219514Y-115496482D01*
X105219500Y-115493451D01*
X105222979Y-115464252D01*
X105240378Y-115449210D01*
X105282136Y-115443687D01*
X105333062Y-115443000D01*
X105422197Y-115432526D01*
X105492072Y-115404847D01*
X105538297Y-115365581D01*
X105556485Y-115320341D01*
X105542246Y-115274746D01*
X105494667Y-115236204D01*
X105436308Y-115221214D01*
X105351888Y-115218852D01*
X105255633Y-115228740D01*
X105182458Y-115244452D01*
X105147331Y-115247569D01*
X105135546Y-115222783D01*
X105134833Y-115203011D01*
X105142076Y-115164291D01*
X105171827Y-115143660D01*
X105208739Y-115134720D01*
X105267402Y-115128839D01*
X105350387Y-115126711D01*
X105439810Y-115128792D01*
G37*
X105439810Y-115128792D02*
X105440499Y-115128826D01*
X105566413Y-115144778D01*
X105654902Y-115178465D01*
X105707304Y-115230614D01*
X105723746Y-115282420D01*
X105714731Y-115351823D01*
X105678428Y-115414182D01*
X105624926Y-115452503D01*
X105622230Y-115453404D01*
X105587705Y-115473520D01*
X105581077Y-115495403D01*
X105605669Y-115506456D01*
X105608229Y-115506500D01*
X105655820Y-115523428D01*
X105706697Y-115565124D01*
X105746319Y-115617959D01*
X105758091Y-115647003D01*
X105760552Y-115730912D01*
X105724891Y-115802110D01*
X105653975Y-115858471D01*
X105550673Y-115897866D01*
X105417850Y-115918169D01*
X105390567Y-115919650D01*
X105303739Y-115921524D01*
X105226321Y-115920345D01*
X105174179Y-115916376D01*
X105171875Y-115915999D01*
X105127525Y-115898609D01*
X105113774Y-115861006D01*
X105113667Y-115855374D01*
X105115247Y-115830774D01*
X105125638Y-115816536D01*
X105153318Y-115810792D01*
X105206762Y-115811674D01*
X105288292Y-115816890D01*
X105376953Y-115821811D01*
X105435231Y-115820617D01*
X105474845Y-115811579D01*
X105507518Y-115792970D01*
X105521125Y-115782574D01*
X105571214Y-115725847D01*
X105581971Y-115670956D01*
X105556333Y-115621992D01*
X105497242Y-115583048D01*
X105407637Y-115558215D01*
X105355885Y-115552586D01*
X105282170Y-115546692D01*
X105241228Y-115538133D01*
X105223521Y-115522775D01*
X105219514Y-115496482D01*
X105219500Y-115493451D01*
X105222979Y-115464252D01*
X105240378Y-115449210D01*
X105282136Y-115443687D01*
X105333062Y-115443000D01*
X105422197Y-115432526D01*
X105492072Y-115404847D01*
X105538297Y-115365581D01*
X105556485Y-115320341D01*
X105542246Y-115274746D01*
X105494667Y-115236204D01*
X105436308Y-115221214D01*
X105351888Y-115218852D01*
X105255633Y-115228740D01*
X105182458Y-115244452D01*
X105147331Y-115247569D01*
X105135546Y-115222783D01*
X105134833Y-115203011D01*
X105142076Y-115164291D01*
X105171827Y-115143660D01*
X105208739Y-115134720D01*
X105267402Y-115128839D01*
X105350387Y-115126711D01*
X105439810Y-115128792D01*
G36*
X105572481Y-116847180D02*
G01*
X105657779Y-116890442D01*
X105710288Y-116952959D01*
X105726827Y-117028898D01*
X105724017Y-117073739D01*
X105712805Y-117111138D01*
X105687661Y-117147509D01*
X105643054Y-117189269D01*
X105573456Y-117242833D01*
X105491942Y-117301426D01*
X105392809Y-117373168D01*
X105329157Y-117424760D01*
X105301222Y-117459507D01*
X105309242Y-117480711D01*
X105353453Y-117491675D01*
X105434093Y-117495703D01*
X105505914Y-117496167D01*
X105727500Y-117496167D01*
X105727500Y-117602000D01*
X105071333Y-117602000D01*
X105071333Y-117550263D01*
X105081958Y-117502280D01*
X105116520Y-117449890D01*
X105179050Y-117388747D01*
X105273579Y-117314509D01*
X105323251Y-117278761D01*
X105428269Y-117200560D01*
X105498954Y-117137317D01*
X105538673Y-117084745D01*
X105550797Y-117038554D01*
X105541714Y-117000643D01*
X105497549Y-116952510D01*
X105422400Y-116925629D01*
X105322242Y-116920618D01*
X105203054Y-116938093D01*
X105129542Y-116958146D01*
X105101377Y-116957312D01*
X105092586Y-116924312D01*
X105092500Y-116917774D01*
X105098035Y-116883305D01*
X105119368Y-116859479D01*
X105163586Y-116843356D01*
X105237777Y-116831999D01*
X105316557Y-116824904D01*
X105457653Y-116824793D01*
X105572481Y-116847180D01*
G37*
X105572481Y-116847180D02*
X105657779Y-116890442D01*
X105710288Y-116952959D01*
X105726827Y-117028898D01*
X105724017Y-117073739D01*
X105712805Y-117111138D01*
X105687661Y-117147509D01*
X105643054Y-117189269D01*
X105573456Y-117242833D01*
X105491942Y-117301426D01*
X105392809Y-117373168D01*
X105329157Y-117424760D01*
X105301222Y-117459507D01*
X105309242Y-117480711D01*
X105353453Y-117491675D01*
X105434093Y-117495703D01*
X105505914Y-117496167D01*
X105727500Y-117496167D01*
X105727500Y-117602000D01*
X105071333Y-117602000D01*
X105071333Y-117550263D01*
X105081958Y-117502280D01*
X105116520Y-117449890D01*
X105179050Y-117388747D01*
X105273579Y-117314509D01*
X105323251Y-117278761D01*
X105428269Y-117200560D01*
X105498954Y-117137317D01*
X105538673Y-117084745D01*
X105550797Y-117038554D01*
X105541714Y-117000643D01*
X105497549Y-116952510D01*
X105422400Y-116925629D01*
X105322242Y-116920618D01*
X105203054Y-116938093D01*
X105129542Y-116958146D01*
X105101377Y-116957312D01*
X105092586Y-116924312D01*
X105092500Y-116917774D01*
X105098035Y-116883305D01*
X105119368Y-116859479D01*
X105163586Y-116843356D01*
X105237777Y-116831999D01*
X105316557Y-116824904D01*
X105457653Y-116824793D01*
X105572481Y-116847180D01*
G36*
X104552859Y-116830373D02*
G01*
X104662543Y-116862255D01*
X104740920Y-116915540D01*
X104784688Y-116988662D01*
X104787230Y-116997775D01*
X104787218Y-117063656D01*
X104752581Y-117131515D01*
X104681076Y-117204527D01*
X104595474Y-117269016D01*
X104518062Y-117324155D01*
X104446692Y-117378390D01*
X104394682Y-117421527D01*
X104387806Y-117427898D01*
X104327470Y-117485583D01*
X104556527Y-117496167D01*
X104657591Y-117501418D01*
X104723678Y-117507121D01*
X104762125Y-117514972D01*
X104780271Y-117526665D01*
X104785453Y-117543895D01*
X104785583Y-117549083D01*
X104783433Y-117565062D01*
X104772895Y-117576591D01*
X104747835Y-117584555D01*
X104702121Y-117589842D01*
X104629621Y-117593337D01*
X104524202Y-117595926D01*
X104452208Y-117597246D01*
X104118833Y-117603075D01*
X104118833Y-117554028D01*
X104136940Y-117505451D01*
X104189089Y-117440181D01*
X104272019Y-117361541D01*
X104382470Y-117272857D01*
X104425750Y-117240982D01*
X104509134Y-117178471D01*
X104562557Y-117131289D01*
X104592112Y-117092574D01*
X104603888Y-117055465D01*
X104604993Y-117039072D01*
X104587288Y-116983531D01*
X104537089Y-116944016D01*
X104461644Y-116921968D01*
X104368201Y-116918830D01*
X104264008Y-116936042D01*
X104196521Y-116957825D01*
X104169793Y-116962177D01*
X104162618Y-116939351D01*
X104164771Y-116911804D01*
X104176460Y-116873605D01*
X104205715Y-116847850D01*
X104259340Y-116832083D01*
X104344136Y-116823850D01*
X104415167Y-116821456D01*
X104552859Y-116830373D01*
G37*
X104552859Y-116830373D02*
X104662543Y-116862255D01*
X104740920Y-116915540D01*
X104784688Y-116988662D01*
X104787230Y-116997775D01*
X104787218Y-117063656D01*
X104752581Y-117131515D01*
X104681076Y-117204527D01*
X104595474Y-117269016D01*
X104518062Y-117324155D01*
X104446692Y-117378390D01*
X104394682Y-117421527D01*
X104387806Y-117427898D01*
X104327470Y-117485583D01*
X104556527Y-117496167D01*
X104657591Y-117501418D01*
X104723678Y-117507121D01*
X104762125Y-117514972D01*
X104780271Y-117526665D01*
X104785453Y-117543895D01*
X104785583Y-117549083D01*
X104783433Y-117565062D01*
X104772895Y-117576591D01*
X104747835Y-117584555D01*
X104702121Y-117589842D01*
X104629621Y-117593337D01*
X104524202Y-117595926D01*
X104452208Y-117597246D01*
X104118833Y-117603075D01*
X104118833Y-117554028D01*
X104136940Y-117505451D01*
X104189089Y-117440181D01*
X104272019Y-117361541D01*
X104382470Y-117272857D01*
X104425750Y-117240982D01*
X104509134Y-117178471D01*
X104562557Y-117131289D01*
X104592112Y-117092574D01*
X104603888Y-117055465D01*
X104604993Y-117039072D01*
X104587288Y-116983531D01*
X104537089Y-116944016D01*
X104461644Y-116921968D01*
X104368201Y-116918830D01*
X104264008Y-116936042D01*
X104196521Y-116957825D01*
X104169793Y-116962177D01*
X104162618Y-116939351D01*
X104164771Y-116911804D01*
X104176460Y-116873605D01*
X104205715Y-116847850D01*
X104259340Y-116832083D01*
X104344136Y-116823850D01*
X104415167Y-116821456D01*
X104552859Y-116830373D01*
G36*
X96327346Y-116949525D02*
G01*
X96447926Y-116953049D01*
X96533674Y-116957735D01*
X96592093Y-116964629D01*
X96630684Y-116974777D01*
X96656950Y-116989225D01*
X96666012Y-116996739D01*
X96700541Y-117051789D01*
X96709685Y-117119163D01*
X96693618Y-117172459D01*
X96664539Y-117197280D01*
X96613981Y-117225335D01*
X96603983Y-117229839D01*
X96565479Y-117250128D01*
X96561133Y-117261401D01*
X96568676Y-117262505D01*
X96631495Y-117278034D01*
X96697495Y-117314403D01*
X96746639Y-117359843D01*
X96754006Y-117371357D01*
X96770296Y-117438637D01*
X96746063Y-117499418D01*
X96683009Y-117550191D01*
X96662128Y-117560571D01*
X96614673Y-117578466D01*
X96559501Y-117590432D01*
X96487182Y-117597545D01*
X96388286Y-117600880D01*
X96303042Y-117601535D01*
X96033167Y-117602000D01*
X96033167Y-117523443D01*
X96202500Y-117523443D01*
X96355958Y-117511526D01*
X96437367Y-117503600D01*
X96505685Y-117494078D01*
X96546638Y-117484966D01*
X96547577Y-117484610D01*
X96578238Y-117456361D01*
X96575807Y-117415896D01*
X96543541Y-117372698D01*
X96498833Y-117342741D01*
X96427367Y-117319128D01*
X96339987Y-117306546D01*
X96313625Y-117305699D01*
X96202500Y-117305667D01*
X96202500Y-117523443D01*
X96033167Y-117523443D01*
X96033167Y-117030500D01*
X96202500Y-117030500D01*
X96202500Y-117227030D01*
X96330476Y-117213654D01*
X96406560Y-117202834D01*
X96470249Y-117188764D01*
X96499809Y-117178144D01*
X96535753Y-117140970D01*
X96536465Y-117096613D01*
X96503369Y-117059061D01*
X96486872Y-117051143D01*
X96434302Y-117039229D01*
X96360538Y-117031771D01*
X96317539Y-117030500D01*
X96202500Y-117030500D01*
X96033167Y-117030500D01*
X96033167Y-116942633D01*
X96327346Y-116949525D01*
G37*
X96327346Y-116949525D02*
X96447926Y-116953049D01*
X96533674Y-116957735D01*
X96592093Y-116964629D01*
X96630684Y-116974777D01*
X96656950Y-116989225D01*
X96666012Y-116996739D01*
X96700541Y-117051789D01*
X96709685Y-117119163D01*
X96693618Y-117172459D01*
X96664539Y-117197280D01*
X96613981Y-117225335D01*
X96603983Y-117229839D01*
X96565479Y-117250128D01*
X96561133Y-117261401D01*
X96568676Y-117262505D01*
X96631495Y-117278034D01*
X96697495Y-117314403D01*
X96746639Y-117359843D01*
X96754006Y-117371357D01*
X96770296Y-117438637D01*
X96746063Y-117499418D01*
X96683009Y-117550191D01*
X96662128Y-117560571D01*
X96614673Y-117578466D01*
X96559501Y-117590432D01*
X96487182Y-117597545D01*
X96388286Y-117600880D01*
X96303042Y-117601535D01*
X96033167Y-117602000D01*
X96033167Y-117523443D01*
X96202500Y-117523443D01*
X96355958Y-117511526D01*
X96437367Y-117503600D01*
X96505685Y-117494078D01*
X96546638Y-117484966D01*
X96547577Y-117484610D01*
X96578238Y-117456361D01*
X96575807Y-117415896D01*
X96543541Y-117372698D01*
X96498833Y-117342741D01*
X96427367Y-117319128D01*
X96339987Y-117306546D01*
X96313625Y-117305699D01*
X96202500Y-117305667D01*
X96202500Y-117523443D01*
X96033167Y-117523443D01*
X96033167Y-117030500D01*
X96202500Y-117030500D01*
X96202500Y-117227030D01*
X96330476Y-117213654D01*
X96406560Y-117202834D01*
X96470249Y-117188764D01*
X96499809Y-117178144D01*
X96535753Y-117140970D01*
X96536465Y-117096613D01*
X96503369Y-117059061D01*
X96486872Y-117051143D01*
X96434302Y-117039229D01*
X96360538Y-117031771D01*
X96317539Y-117030500D01*
X96202500Y-117030500D01*
X96033167Y-117030500D01*
X96033167Y-116942633D01*
X96327346Y-116949525D01*
G36*
X105706333Y-118586250D02*
G01*
X105704937Y-118610764D01*
X105695461Y-118626225D01*
X105669977Y-118634719D01*
X105620554Y-118638333D01*
X105539263Y-118639153D01*
X105505250Y-118639167D01*
X105304167Y-118639167D01*
X105304167Y-118722536D01*
X105306021Y-118772875D01*
X105318948Y-118799220D01*
X105353991Y-118812320D01*
X105404708Y-118820392D01*
X105546513Y-118852104D01*
X105649830Y-118900936D01*
X105714976Y-118967086D01*
X105739542Y-119031084D01*
X105737479Y-119120218D01*
X105698420Y-119196015D01*
X105626416Y-119255488D01*
X105525522Y-119295650D01*
X105399790Y-119313513D01*
X105355692Y-119314044D01*
X105275994Y-119311448D01*
X105209641Y-119307030D01*
X105171875Y-119301909D01*
X105141494Y-119274091D01*
X105134833Y-119238600D01*
X105142780Y-119199510D01*
X105163877Y-119196116D01*
X105201811Y-119205981D01*
X105262420Y-119217463D01*
X105287144Y-119221391D01*
X105390559Y-119223085D01*
X105473669Y-119197318D01*
X105530976Y-119148081D01*
X105556984Y-119079366D01*
X105554687Y-119027132D01*
X105526884Y-118984855D01*
X105466437Y-118949376D01*
X105382939Y-118924600D01*
X105285982Y-118914432D01*
X105277708Y-118914366D01*
X105156000Y-118914333D01*
X105156000Y-118533333D01*
X105706333Y-118533333D01*
X105706333Y-118586250D01*
G37*
X105706333Y-118586250D02*
X105704937Y-118610764D01*
X105695461Y-118626225D01*
X105669977Y-118634719D01*
X105620554Y-118638333D01*
X105539263Y-118639153D01*
X105505250Y-118639167D01*
X105304167Y-118639167D01*
X105304167Y-118722536D01*
X105306021Y-118772875D01*
X105318948Y-118799220D01*
X105353991Y-118812320D01*
X105404708Y-118820392D01*
X105546513Y-118852104D01*
X105649830Y-118900936D01*
X105714976Y-118967086D01*
X105739542Y-119031084D01*
X105737479Y-119120218D01*
X105698420Y-119196015D01*
X105626416Y-119255488D01*
X105525522Y-119295650D01*
X105399790Y-119313513D01*
X105355692Y-119314044D01*
X105275994Y-119311448D01*
X105209641Y-119307030D01*
X105171875Y-119301909D01*
X105141494Y-119274091D01*
X105134833Y-119238600D01*
X105142780Y-119199510D01*
X105163877Y-119196116D01*
X105201811Y-119205981D01*
X105262420Y-119217463D01*
X105287144Y-119221391D01*
X105390559Y-119223085D01*
X105473669Y-119197318D01*
X105530976Y-119148081D01*
X105556984Y-119079366D01*
X105554687Y-119027132D01*
X105526884Y-118984855D01*
X105466437Y-118949376D01*
X105382939Y-118924600D01*
X105285982Y-118914432D01*
X105277708Y-118914366D01*
X105156000Y-118914333D01*
X105156000Y-118533333D01*
X105706333Y-118533333D01*
X105706333Y-118586250D01*
G36*
X96679599Y-118629186D02*
G01*
X96696962Y-118631460D01*
X96756751Y-118641867D01*
X96785561Y-118657228D01*
X96794581Y-118686242D01*
X96795167Y-118707808D01*
X96790860Y-118750582D01*
X96773469Y-118760081D01*
X96758125Y-118755180D01*
X96701459Y-118741203D01*
X96618841Y-118732039D01*
X96524824Y-118728031D01*
X96433966Y-118729525D01*
X96360821Y-118736863D01*
X96329393Y-118745044D01*
X96251680Y-118794228D01*
X96192749Y-118863853D01*
X96162307Y-118941243D01*
X96160167Y-118966019D01*
X96179054Y-119054197D01*
X96233997Y-119123713D01*
X96322417Y-119173211D01*
X96441737Y-119201336D01*
X96589377Y-119206733D01*
X96615493Y-119205394D01*
X96702485Y-119200469D01*
X96755596Y-119200140D01*
X96783178Y-119206104D01*
X96793583Y-119220057D01*
X96795167Y-119241882D01*
X96788992Y-119272241D01*
X96763344Y-119289912D01*
X96707538Y-119301548D01*
X96696962Y-119303039D01*
X96549393Y-119314630D01*
X96404943Y-119310445D01*
X96278911Y-119291275D01*
X96236049Y-119279246D01*
X96124075Y-119224986D01*
X96042347Y-119150694D01*
X95992643Y-119062725D01*
X95976743Y-118967436D01*
X95996426Y-118871181D01*
X96053469Y-118780318D01*
X96087077Y-118746966D01*
X96195211Y-118678834D01*
X96333217Y-118635885D01*
X96496284Y-118619032D01*
X96679599Y-118629186D01*
G37*
X96679599Y-118629186D02*
X96696962Y-118631460D01*
X96756751Y-118641867D01*
X96785561Y-118657228D01*
X96794581Y-118686242D01*
X96795167Y-118707808D01*
X96790860Y-118750582D01*
X96773469Y-118760081D01*
X96758125Y-118755180D01*
X96701459Y-118741203D01*
X96618841Y-118732039D01*
X96524824Y-118728031D01*
X96433966Y-118729525D01*
X96360821Y-118736863D01*
X96329393Y-118745044D01*
X96251680Y-118794228D01*
X96192749Y-118863853D01*
X96162307Y-118941243D01*
X96160167Y-118966019D01*
X96179054Y-119054197D01*
X96233997Y-119123713D01*
X96322417Y-119173211D01*
X96441737Y-119201336D01*
X96589377Y-119206733D01*
X96615493Y-119205394D01*
X96702485Y-119200469D01*
X96755596Y-119200140D01*
X96783178Y-119206104D01*
X96793583Y-119220057D01*
X96795167Y-119241882D01*
X96788992Y-119272241D01*
X96763344Y-119289912D01*
X96707538Y-119301548D01*
X96696962Y-119303039D01*
X96549393Y-119314630D01*
X96404943Y-119310445D01*
X96278911Y-119291275D01*
X96236049Y-119279246D01*
X96124075Y-119224986D01*
X96042347Y-119150694D01*
X95992643Y-119062725D01*
X95976743Y-118967436D01*
X95996426Y-118871181D01*
X96053469Y-118780318D01*
X96087077Y-118746966D01*
X96195211Y-118678834D01*
X96333217Y-118635885D01*
X96496284Y-118619032D01*
X96679599Y-118629186D01*
G36*
X105791000Y-120281146D02*
G01*
X105774592Y-120332594D01*
X105726417Y-120407563D01*
X105671017Y-120476937D01*
X105562737Y-120612596D01*
X105473732Y-120740699D01*
X105408795Y-120853929D01*
X105379874Y-120921434D01*
X105360344Y-120968835D01*
X105335088Y-120992801D01*
X105289683Y-121002841D01*
X105251910Y-121005808D01*
X105150775Y-121012366D01*
X105165259Y-120952891D01*
X105183313Y-120901071D01*
X105215869Y-120841013D01*
X105266703Y-120767246D01*
X105339591Y-120674297D01*
X105438307Y-120556695D01*
X105439975Y-120554750D01*
X105603281Y-120364250D01*
X105347891Y-120358307D01*
X105092500Y-120352364D01*
X105092500Y-120226667D01*
X105791000Y-120226667D01*
X105791000Y-120281146D01*
G37*
X105791000Y-120281146D02*
X105774592Y-120332594D01*
X105726417Y-120407563D01*
X105671017Y-120476937D01*
X105562737Y-120612596D01*
X105473732Y-120740699D01*
X105408795Y-120853929D01*
X105379874Y-120921434D01*
X105360344Y-120968835D01*
X105335088Y-120992801D01*
X105289683Y-121002841D01*
X105251910Y-121005808D01*
X105150775Y-121012366D01*
X105165259Y-120952891D01*
X105183313Y-120901071D01*
X105215869Y-120841013D01*
X105266703Y-120767246D01*
X105339591Y-120674297D01*
X105438307Y-120556695D01*
X105439975Y-120554750D01*
X105603281Y-120364250D01*
X105347891Y-120358307D01*
X105092500Y-120352364D01*
X105092500Y-120226667D01*
X105791000Y-120226667D01*
X105791000Y-120281146D01*
G36*
X104605667Y-120904000D02*
G01*
X104753833Y-120904000D01*
X104831242Y-120904778D01*
X104875545Y-120909309D01*
X104895966Y-120920887D01*
X104901730Y-120942806D01*
X104902000Y-120956917D01*
X104902000Y-121009833D01*
X104140000Y-121009833D01*
X104140000Y-120956917D01*
X104142179Y-120929270D01*
X104154865Y-120913448D01*
X104187283Y-120906155D01*
X104248658Y-120904096D01*
X104288167Y-120904000D01*
X104436333Y-120904000D01*
X104436333Y-120348789D01*
X104316598Y-120363749D01*
X104245668Y-120373844D01*
X104189909Y-120383988D01*
X104168432Y-120389619D01*
X104145024Y-120382961D01*
X104140000Y-120357357D01*
X104141742Y-120336112D01*
X104151396Y-120319871D01*
X104175602Y-120306017D01*
X104221000Y-120291934D01*
X104294230Y-120275003D01*
X104401932Y-120252609D01*
X104409875Y-120250985D01*
X104605667Y-120210978D01*
X104605667Y-120904000D01*
G37*
X104605667Y-120904000D02*
X104753833Y-120904000D01*
X104831242Y-120904778D01*
X104875545Y-120909309D01*
X104895966Y-120920887D01*
X104901730Y-120942806D01*
X104902000Y-120956917D01*
X104902000Y-121009833D01*
X104140000Y-121009833D01*
X104140000Y-120956917D01*
X104142179Y-120929270D01*
X104154865Y-120913448D01*
X104187283Y-120906155D01*
X104248658Y-120904096D01*
X104288167Y-120904000D01*
X104436333Y-120904000D01*
X104436333Y-120348789D01*
X104316598Y-120363749D01*
X104245668Y-120373844D01*
X104189909Y-120383988D01*
X104168432Y-120389619D01*
X104145024Y-120382961D01*
X104140000Y-120357357D01*
X104141742Y-120336112D01*
X104151396Y-120319871D01*
X104175602Y-120306017D01*
X104221000Y-120291934D01*
X104294230Y-120275003D01*
X104401932Y-120252609D01*
X104409875Y-120250985D01*
X104605667Y-120210978D01*
X104605667Y-120904000D01*
G36*
X96271292Y-120336800D02*
G01*
X96393564Y-120342134D01*
X96482723Y-120349124D01*
X96547989Y-120359162D01*
X96598581Y-120373640D01*
X96641272Y-120392686D01*
X96724498Y-120452675D01*
X96774429Y-120532739D01*
X96794441Y-120638929D01*
X96795167Y-120668491D01*
X96788915Y-120746351D01*
X96765396Y-120804674D01*
X96737657Y-120842097D01*
X96678608Y-120899687D01*
X96607485Y-120942171D01*
X96516833Y-120971992D01*
X96399197Y-120991591D01*
X96247122Y-121003409D01*
X96244697Y-121003532D01*
X95990833Y-121016296D01*
X95990833Y-120904000D01*
X96160167Y-120904000D01*
X96268836Y-120904000D01*
X96351973Y-120898917D01*
X96433176Y-120886126D01*
X96458995Y-120879585D01*
X96543862Y-120842232D01*
X96593484Y-120787427D01*
X96613893Y-120707126D01*
X96615250Y-120671167D01*
X96606117Y-120585534D01*
X96576495Y-120526914D01*
X96572917Y-120522793D01*
X96534874Y-120487129D01*
X96490224Y-120462733D01*
X96428162Y-120445845D01*
X96337886Y-120432706D01*
X96303042Y-120428865D01*
X96160167Y-120413797D01*
X96160167Y-120904000D01*
X95990833Y-120904000D01*
X95990833Y-120326977D01*
X96271292Y-120336800D01*
G37*
X96271292Y-120336800D02*
X96393564Y-120342134D01*
X96482723Y-120349124D01*
X96547989Y-120359162D01*
X96598581Y-120373640D01*
X96641272Y-120392686D01*
X96724498Y-120452675D01*
X96774429Y-120532739D01*
X96794441Y-120638929D01*
X96795167Y-120668491D01*
X96788915Y-120746351D01*
X96765396Y-120804674D01*
X96737657Y-120842097D01*
X96678608Y-120899687D01*
X96607485Y-120942171D01*
X96516833Y-120971992D01*
X96399197Y-120991591D01*
X96247122Y-121003409D01*
X96244697Y-121003532D01*
X95990833Y-121016296D01*
X95990833Y-120904000D01*
X96160167Y-120904000D01*
X96268836Y-120904000D01*
X96351973Y-120898917D01*
X96433176Y-120886126D01*
X96458995Y-120879585D01*
X96543862Y-120842232D01*
X96593484Y-120787427D01*
X96613893Y-120707126D01*
X96615250Y-120671167D01*
X96606117Y-120585534D01*
X96576495Y-120526914D01*
X96572917Y-120522793D01*
X96534874Y-120487129D01*
X96490224Y-120462733D01*
X96428162Y-120445845D01*
X96337886Y-120432706D01*
X96303042Y-120428865D01*
X96160167Y-120413797D01*
X96160167Y-120904000D01*
X95990833Y-120904000D01*
X95990833Y-120326977D01*
X96271292Y-120336800D01*
G36*
X105472148Y-121927496D02*
G01*
X105563879Y-121942872D01*
X105600689Y-121954295D01*
X105674764Y-121994552D01*
X105714374Y-122047689D01*
X105727359Y-122124993D01*
X105727500Y-122136898D01*
X105719404Y-122187833D01*
X105691581Y-122236667D01*
X105638725Y-122289337D01*
X105555535Y-122351782D01*
X105505250Y-122385667D01*
X105423039Y-122443451D01*
X105353803Y-122498871D01*
X105304825Y-122545553D01*
X105283390Y-122577124D01*
X105283000Y-122580127D01*
X105302706Y-122587190D01*
X105355996Y-122592848D01*
X105434126Y-122596424D01*
X105505250Y-122597333D01*
X105727500Y-122597333D01*
X105727500Y-122703167D01*
X105071333Y-122703167D01*
X105071333Y-122642362D01*
X105083871Y-122595162D01*
X105123379Y-122539279D01*
X105192698Y-122471854D01*
X105294668Y-122390032D01*
X105394463Y-122317370D01*
X105485240Y-122246546D01*
X105538301Y-122187230D01*
X105555309Y-122135393D01*
X105537929Y-122087009D01*
X105504327Y-122051420D01*
X105460987Y-122020148D01*
X105416722Y-122007719D01*
X105353105Y-122009727D01*
X105337080Y-122011401D01*
X105258218Y-122021529D01*
X105184594Y-122033249D01*
X105161292Y-122037749D01*
X105114478Y-122044493D01*
X105095753Y-122032530D01*
X105092500Y-121999375D01*
X105101516Y-121959397D01*
X105136473Y-121938536D01*
X105158646Y-121933229D01*
X105253503Y-121921910D01*
X105363347Y-121920254D01*
X105472148Y-121927496D01*
G37*
X105472148Y-121927496D02*
X105563879Y-121942872D01*
X105600689Y-121954295D01*
X105674764Y-121994552D01*
X105714374Y-122047689D01*
X105727359Y-122124993D01*
X105727500Y-122136898D01*
X105719404Y-122187833D01*
X105691581Y-122236667D01*
X105638725Y-122289337D01*
X105555535Y-122351782D01*
X105505250Y-122385667D01*
X105423039Y-122443451D01*
X105353803Y-122498871D01*
X105304825Y-122545553D01*
X105283390Y-122577124D01*
X105283000Y-122580127D01*
X105302706Y-122587190D01*
X105355996Y-122592848D01*
X105434126Y-122596424D01*
X105505250Y-122597333D01*
X105727500Y-122597333D01*
X105727500Y-122703167D01*
X105071333Y-122703167D01*
X105071333Y-122642362D01*
X105083871Y-122595162D01*
X105123379Y-122539279D01*
X105192698Y-122471854D01*
X105294668Y-122390032D01*
X105394463Y-122317370D01*
X105485240Y-122246546D01*
X105538301Y-122187230D01*
X105555309Y-122135393D01*
X105537929Y-122087009D01*
X105504327Y-122051420D01*
X105460987Y-122020148D01*
X105416722Y-122007719D01*
X105353105Y-122009727D01*
X105337080Y-122011401D01*
X105258218Y-122021529D01*
X105184594Y-122033249D01*
X105161292Y-122037749D01*
X105114478Y-122044493D01*
X105095753Y-122032530D01*
X105092500Y-121999375D01*
X105101516Y-121959397D01*
X105136473Y-121938536D01*
X105158646Y-121933229D01*
X105253503Y-121921910D01*
X105363347Y-121920254D01*
X105472148Y-121927496D01*
G36*
X96752833Y-122131667D02*
G01*
X96223667Y-122131667D01*
X96223667Y-122301000D01*
X96668167Y-122301000D01*
X96668167Y-122406833D01*
X96223667Y-122406833D01*
X96223667Y-122597333D01*
X96774000Y-122597333D01*
X96774000Y-122703167D01*
X96054333Y-122703167D01*
X96054333Y-122025833D01*
X96752833Y-122025833D01*
X96752833Y-122131667D01*
G37*
X96752833Y-122131667D02*
X96223667Y-122131667D01*
X96223667Y-122301000D01*
X96668167Y-122301000D01*
X96668167Y-122406833D01*
X96223667Y-122406833D01*
X96223667Y-122597333D01*
X96774000Y-122597333D01*
X96774000Y-122703167D01*
X96054333Y-122703167D01*
X96054333Y-122025833D01*
X96752833Y-122025833D01*
X96752833Y-122131667D01*
G36*
X104579476Y-121928085D02*
G01*
X104677954Y-121952899D01*
X104741192Y-121996062D01*
X104771229Y-122058905D01*
X104771462Y-122134078D01*
X104749971Y-122177342D01*
X104705810Y-122221952D01*
X104694496Y-122230132D01*
X104624576Y-122277136D01*
X104673329Y-122302296D01*
X104759528Y-122362888D01*
X104808035Y-122434316D01*
X104817187Y-122512834D01*
X104795459Y-122577489D01*
X104747378Y-122627262D01*
X104666295Y-122668046D01*
X104560992Y-122697662D01*
X104440250Y-122713927D01*
X104312850Y-122714660D01*
X104261708Y-122710082D01*
X104208746Y-122699499D01*
X104186285Y-122678927D01*
X104182333Y-122649242D01*
X104184036Y-122623027D01*
X104195140Y-122608638D01*
X104224640Y-122603846D01*
X104281528Y-122606419D01*
X104336824Y-122610932D01*
X104463682Y-122612977D01*
X104553961Y-122594406D01*
X104608170Y-122555010D01*
X104626818Y-122494581D01*
X104626833Y-122492468D01*
X104616248Y-122430002D01*
X104581117Y-122386083D01*
X104516373Y-122357640D01*
X104416952Y-122341597D01*
X104372833Y-122338332D01*
X104312870Y-122331667D01*
X104284634Y-122317434D01*
X104277583Y-122290417D01*
X104284021Y-122265028D01*
X104309806Y-122249453D01*
X104364642Y-122239133D01*
X104394000Y-122235760D01*
X104486828Y-122222837D01*
X104545989Y-122205088D01*
X104580148Y-122178300D01*
X104597966Y-122138261D01*
X104598457Y-122136344D01*
X104599362Y-122087567D01*
X104567876Y-122046547D01*
X104561232Y-122040997D01*
X104521782Y-122016685D01*
X104473963Y-122007609D01*
X104402028Y-122011020D01*
X104394000Y-122011829D01*
X104319117Y-122021201D01*
X104255102Y-122032000D01*
X104229958Y-122037896D01*
X104194597Y-122041895D01*
X104182966Y-122017373D01*
X104182333Y-121999021D01*
X104188164Y-121965805D01*
X104209969Y-121943275D01*
X104254219Y-121929481D01*
X104327384Y-121922475D01*
X104435932Y-121920308D01*
X104443718Y-121920289D01*
X104579476Y-121928085D01*
G37*
X104579476Y-121928085D02*
X104677954Y-121952899D01*
X104741192Y-121996062D01*
X104771229Y-122058905D01*
X104771462Y-122134078D01*
X104749971Y-122177342D01*
X104705810Y-122221952D01*
X104694496Y-122230132D01*
X104624576Y-122277136D01*
X104673329Y-122302296D01*
X104759528Y-122362888D01*
X104808035Y-122434316D01*
X104817187Y-122512834D01*
X104795459Y-122577489D01*
X104747378Y-122627262D01*
X104666295Y-122668046D01*
X104560992Y-122697662D01*
X104440250Y-122713927D01*
X104312850Y-122714660D01*
X104261708Y-122710082D01*
X104208746Y-122699499D01*
X104186285Y-122678927D01*
X104182333Y-122649242D01*
X104184036Y-122623027D01*
X104195140Y-122608638D01*
X104224640Y-122603846D01*
X104281528Y-122606419D01*
X104336824Y-122610932D01*
X104463682Y-122612977D01*
X104553961Y-122594406D01*
X104608170Y-122555010D01*
X104626818Y-122494581D01*
X104626833Y-122492468D01*
X104616248Y-122430002D01*
X104581117Y-122386083D01*
X104516373Y-122357640D01*
X104416952Y-122341597D01*
X104372833Y-122338332D01*
X104312870Y-122331667D01*
X104284634Y-122317434D01*
X104277583Y-122290417D01*
X104284021Y-122265028D01*
X104309806Y-122249453D01*
X104364642Y-122239133D01*
X104394000Y-122235760D01*
X104486828Y-122222837D01*
X104545989Y-122205088D01*
X104580148Y-122178300D01*
X104597966Y-122138261D01*
X104598457Y-122136344D01*
X104599362Y-122087567D01*
X104567876Y-122046547D01*
X104561232Y-122040997D01*
X104521782Y-122016685D01*
X104473963Y-122007609D01*
X104402028Y-122011020D01*
X104394000Y-122011829D01*
X104319117Y-122021201D01*
X104255102Y-122032000D01*
X104229958Y-122037896D01*
X104194597Y-122041895D01*
X104182966Y-122017373D01*
X104182333Y-121999021D01*
X104188164Y-121965805D01*
X104209969Y-121943275D01*
X104254219Y-121929481D01*
X104327384Y-121922475D01*
X104435932Y-121920308D01*
X104443718Y-121920289D01*
X104579476Y-121928085D01*
G36*
X105664000Y-124100167D02*
G01*
X105738083Y-124100167D01*
X105788183Y-124104120D01*
X105808693Y-124121911D01*
X105812167Y-124153083D01*
X105806631Y-124188869D01*
X105781724Y-124203518D01*
X105738083Y-124206000D01*
X105692563Y-124208033D01*
X105671008Y-124221814D01*
X105664457Y-124258863D01*
X105664000Y-124301250D01*
X105664000Y-124396500D01*
X105494667Y-124396500D01*
X105494667Y-124206000D01*
X105029000Y-124206000D01*
X105029000Y-124147431D01*
X105035336Y-124117361D01*
X105045061Y-124100167D01*
X105188885Y-124100167D01*
X105494667Y-124100167D01*
X105494667Y-123952000D01*
X105493900Y-123878962D01*
X105491883Y-123826042D01*
X105489039Y-123803949D01*
X105488807Y-123803833D01*
X105472418Y-123817849D01*
X105432997Y-123855599D01*
X105377199Y-123910635D01*
X105335917Y-123952000D01*
X105188885Y-124100167D01*
X105045061Y-124100167D01*
X105057004Y-124079052D01*
X105097993Y-124027502D01*
X105162294Y-123957707D01*
X105253895Y-123864664D01*
X105256887Y-123861681D01*
X105344912Y-123774510D01*
X105409498Y-123713040D01*
X105456898Y-123672796D01*
X105493367Y-123649305D01*
X105525156Y-123638091D01*
X105558518Y-123634681D01*
X105574387Y-123634500D01*
X105664000Y-123634500D01*
X105664000Y-124100167D01*
G37*
X105664000Y-124100167D02*
X105738083Y-124100167D01*
X105788183Y-124104120D01*
X105808693Y-124121911D01*
X105812167Y-124153083D01*
X105806631Y-124188869D01*
X105781724Y-124203518D01*
X105738083Y-124206000D01*
X105692563Y-124208033D01*
X105671008Y-124221814D01*
X105664457Y-124258863D01*
X105664000Y-124301250D01*
X105664000Y-124396500D01*
X105494667Y-124396500D01*
X105494667Y-124206000D01*
X105029000Y-124206000D01*
X105029000Y-124147431D01*
X105035336Y-124117361D01*
X105045061Y-124100167D01*
X105188885Y-124100167D01*
X105494667Y-124100167D01*
X105494667Y-123952000D01*
X105493900Y-123878962D01*
X105491883Y-123826042D01*
X105489039Y-123803949D01*
X105488807Y-123803833D01*
X105472418Y-123817849D01*
X105432997Y-123855599D01*
X105377199Y-123910635D01*
X105335917Y-123952000D01*
X105188885Y-124100167D01*
X105045061Y-124100167D01*
X105057004Y-124079052D01*
X105097993Y-124027502D01*
X105162294Y-123957707D01*
X105253895Y-123864664D01*
X105256887Y-123861681D01*
X105344912Y-123774510D01*
X105409498Y-123713040D01*
X105456898Y-123672796D01*
X105493367Y-123649305D01*
X105525156Y-123638091D01*
X105558518Y-123634681D01*
X105574387Y-123634500D01*
X105664000Y-123634500D01*
X105664000Y-124100167D01*
G36*
X100012500Y-124080902D02*
G01*
X100180584Y-123952951D01*
X100262821Y-123892242D01*
X100322708Y-123854071D01*
X100370123Y-123833523D01*
X100414945Y-123825688D01*
X100437864Y-123825000D01*
X100492442Y-123826305D01*
X100511701Y-123833525D01*
X100502644Y-123851618D01*
X100492230Y-123863487D01*
X100457136Y-123895658D01*
X100400210Y-123941334D01*
X100341240Y-123985195D01*
X100282646Y-124029074D01*
X100240747Y-124064073D01*
X100224623Y-124082598D01*
X100240463Y-124100030D01*
X100283845Y-124136729D01*
X100347988Y-124187184D01*
X100419958Y-124241348D01*
X100615750Y-124385917D01*
X100503861Y-124392341D01*
X100453364Y-124393987D01*
X100412526Y-124389400D01*
X100371791Y-124374374D01*
X100321608Y-124344701D01*
X100252421Y-124296173D01*
X100202236Y-124259503D01*
X100012500Y-124120240D01*
X100012500Y-124396500D01*
X99843167Y-124396500D01*
X99843167Y-123571000D01*
X100012500Y-123571000D01*
X100012500Y-124080902D01*
G37*
X100012500Y-124080902D02*
X100180584Y-123952951D01*
X100262821Y-123892242D01*
X100322708Y-123854071D01*
X100370123Y-123833523D01*
X100414945Y-123825688D01*
X100437864Y-123825000D01*
X100492442Y-123826305D01*
X100511701Y-123833525D01*
X100502644Y-123851618D01*
X100492230Y-123863487D01*
X100457136Y-123895658D01*
X100400210Y-123941334D01*
X100341240Y-123985195D01*
X100282646Y-124029074D01*
X100240747Y-124064073D01*
X100224623Y-124082598D01*
X100240463Y-124100030D01*
X100283845Y-124136729D01*
X100347988Y-124187184D01*
X100419958Y-124241348D01*
X100615750Y-124385917D01*
X100503861Y-124392341D01*
X100453364Y-124393987D01*
X100412526Y-124389400D01*
X100371791Y-124374374D01*
X100321608Y-124344701D01*
X100252421Y-124296173D01*
X100202236Y-124259503D01*
X100012500Y-124120240D01*
X100012500Y-124396500D01*
X99843167Y-124396500D01*
X99843167Y-123571000D01*
X100012500Y-123571000D01*
X100012500Y-124080902D01*
G36*
X97472500Y-124396500D02*
G01*
X97303167Y-124396500D01*
X97303167Y-123676833D01*
X97144417Y-123676833D01*
X97063670Y-123676174D01*
X97016338Y-123672214D01*
X96993504Y-123661981D01*
X96986250Y-123642503D01*
X96985667Y-123623917D01*
X96985667Y-123571000D01*
X97472500Y-123571000D01*
X97472500Y-124396500D01*
G37*
X97472500Y-124396500D02*
X97303167Y-124396500D01*
X97303167Y-123676833D01*
X97144417Y-123676833D01*
X97063670Y-123676174D01*
X97016338Y-123672214D01*
X96993504Y-123661981D01*
X96986250Y-123642503D01*
X96985667Y-123623917D01*
X96985667Y-123571000D01*
X97472500Y-123571000D01*
X97472500Y-124396500D01*
G36*
X99486179Y-123827604D02*
G01*
X99542715Y-123837287D01*
X99574647Y-123855512D01*
X99587805Y-123883645D01*
X99589167Y-123901751D01*
X99583471Y-123940181D01*
X99561457Y-123945292D01*
X99552125Y-123942150D01*
X99512303Y-123933075D01*
X99445653Y-123923819D01*
X99377500Y-123917302D01*
X99286656Y-123914354D01*
X99220671Y-123923494D01*
X99166262Y-123945291D01*
X99087600Y-124003627D01*
X99048216Y-124072230D01*
X99048498Y-124145272D01*
X99088833Y-124216924D01*
X99144946Y-124265799D01*
X99184391Y-124290202D01*
X99222496Y-124304216D01*
X99271268Y-124309651D01*
X99342717Y-124308318D01*
X99403958Y-124304870D01*
X99492855Y-124300069D01*
X99547685Y-124299932D01*
X99576576Y-124305698D01*
X99587655Y-124318607D01*
X99589167Y-124333125D01*
X99581758Y-124371076D01*
X99573292Y-124382266D01*
X99536593Y-124391782D01*
X99470232Y-124399046D01*
X99386844Y-124403605D01*
X99299063Y-124405001D01*
X99219521Y-124402781D01*
X99163779Y-124397028D01*
X99035882Y-124362012D01*
X98944868Y-124307991D01*
X98889013Y-124233330D01*
X98866595Y-124136392D01*
X98865972Y-124114310D01*
X98878363Y-124015588D01*
X98917569Y-123940036D01*
X98986642Y-123885524D01*
X99088634Y-123849927D01*
X99226597Y-123831114D01*
X99275967Y-123828405D01*
X99399207Y-123825099D01*
X99486179Y-123827604D01*
G37*
X99486179Y-123827604D02*
X99542715Y-123837287D01*
X99574647Y-123855512D01*
X99587805Y-123883645D01*
X99589167Y-123901751D01*
X99583471Y-123940181D01*
X99561457Y-123945292D01*
X99552125Y-123942150D01*
X99512303Y-123933075D01*
X99445653Y-123923819D01*
X99377500Y-123917302D01*
X99286656Y-123914354D01*
X99220671Y-123923494D01*
X99166262Y-123945291D01*
X99087600Y-124003627D01*
X99048216Y-124072230D01*
X99048498Y-124145272D01*
X99088833Y-124216924D01*
X99144946Y-124265799D01*
X99184391Y-124290202D01*
X99222496Y-124304216D01*
X99271268Y-124309651D01*
X99342717Y-124308318D01*
X99403958Y-124304870D01*
X99492855Y-124300069D01*
X99547685Y-124299932D01*
X99576576Y-124305698D01*
X99587655Y-124318607D01*
X99589167Y-124333125D01*
X99581758Y-124371076D01*
X99573292Y-124382266D01*
X99536593Y-124391782D01*
X99470232Y-124399046D01*
X99386844Y-124403605D01*
X99299063Y-124405001D01*
X99219521Y-124402781D01*
X99163779Y-124397028D01*
X99035882Y-124362012D01*
X98944868Y-124307991D01*
X98889013Y-124233330D01*
X98866595Y-124136392D01*
X98865972Y-124114310D01*
X98878363Y-124015588D01*
X98917569Y-123940036D01*
X98986642Y-123885524D01*
X99088634Y-123849927D01*
X99226597Y-123831114D01*
X99275967Y-123828405D01*
X99399207Y-123825099D01*
X99486179Y-123827604D01*
G36*
X98409215Y-123834389D02*
G01*
X98510406Y-123863744D01*
X98587682Y-123916351D01*
X98624579Y-123958844D01*
X98660490Y-124039950D01*
X98667745Y-124134450D01*
X98646333Y-124224573D01*
X98624717Y-124262656D01*
X98551256Y-124330076D01*
X98449019Y-124378221D01*
X98328220Y-124404304D01*
X98199074Y-124405543D01*
X98135229Y-124396112D01*
X98019354Y-124356124D01*
X97936404Y-124291151D01*
X97887834Y-124202785D01*
X97874667Y-124110750D01*
X97879618Y-124080357D01*
X98051703Y-124080357D01*
X98056309Y-124158583D01*
X98096530Y-124236643D01*
X98117982Y-124260739D01*
X98188670Y-124303906D01*
X98273423Y-124315391D01*
X98358771Y-124295665D01*
X98426628Y-124249961D01*
X98476340Y-124175497D01*
X98489131Y-124096582D01*
X98468231Y-124022189D01*
X98416866Y-123961292D01*
X98338265Y-123922864D01*
X98306703Y-123916616D01*
X98210211Y-123920093D01*
X98132789Y-123953570D01*
X98078575Y-124009505D01*
X98051703Y-124080357D01*
X97879618Y-124080357D01*
X97891887Y-124005059D01*
X97943588Y-123923760D01*
X98029832Y-123866810D01*
X98150680Y-123834165D01*
X98276833Y-123825498D01*
X98409215Y-123834389D01*
G37*
X98409215Y-123834389D02*
X98510406Y-123863744D01*
X98587682Y-123916351D01*
X98624579Y-123958844D01*
X98660490Y-124039950D01*
X98667745Y-124134450D01*
X98646333Y-124224573D01*
X98624717Y-124262656D01*
X98551256Y-124330076D01*
X98449019Y-124378221D01*
X98328220Y-124404304D01*
X98199074Y-124405543D01*
X98135229Y-124396112D01*
X98019354Y-124356124D01*
X97936404Y-124291151D01*
X97887834Y-124202785D01*
X97874667Y-124110750D01*
X97879618Y-124080357D01*
X98051703Y-124080357D01*
X98056309Y-124158583D01*
X98096530Y-124236643D01*
X98117982Y-124260739D01*
X98188670Y-124303906D01*
X98273423Y-124315391D01*
X98358771Y-124295665D01*
X98426628Y-124249961D01*
X98476340Y-124175497D01*
X98489131Y-124096582D01*
X98468231Y-124022189D01*
X98416866Y-123961292D01*
X98338265Y-123922864D01*
X98306703Y-123916616D01*
X98210211Y-123920093D01*
X98132789Y-123953570D01*
X98078575Y-124009505D01*
X98051703Y-124080357D01*
X97879618Y-124080357D01*
X97891887Y-124005059D01*
X97943588Y-123923760D01*
X98029832Y-123866810D01*
X98150680Y-123834165D01*
X98276833Y-123825498D01*
X98409215Y-123834389D01*
G36*
X96653622Y-123722637D02*
G01*
X96729021Y-123732396D01*
X96776738Y-123749152D01*
X96794076Y-123780585D01*
X96795167Y-123798542D01*
X96791039Y-123833705D01*
X96770252Y-123843782D01*
X96726375Y-123837146D01*
X96560937Y-123812612D01*
X96425492Y-123814855D01*
X96316853Y-123844356D01*
X96231837Y-123901598D01*
X96219854Y-123913747D01*
X96168991Y-123992215D01*
X96160245Y-124072304D01*
X96193545Y-124152095D01*
X96229951Y-124195351D01*
X96326940Y-124263433D01*
X96448742Y-124302327D01*
X96588209Y-124310605D01*
X96715792Y-124292391D01*
X96767232Y-124282628D01*
X96789731Y-124288760D01*
X96795105Y-124315252D01*
X96795167Y-124322381D01*
X96782605Y-124365457D01*
X96762854Y-124383204D01*
X96712580Y-124393928D01*
X96633757Y-124401700D01*
X96540094Y-124406103D01*
X96445300Y-124406716D01*
X96363081Y-124403123D01*
X96315242Y-124396868D01*
X96187409Y-124353973D01*
X96089054Y-124289728D01*
X96020905Y-124210043D01*
X95983690Y-124120826D01*
X95978135Y-124027989D01*
X96004968Y-123937441D01*
X96064916Y-123855092D01*
X96158707Y-123786852D01*
X96236073Y-123753570D01*
X96317920Y-123735041D01*
X96425543Y-123723248D01*
X96542818Y-123718882D01*
X96653622Y-123722637D01*
G37*
X96653622Y-123722637D02*
X96729021Y-123732396D01*
X96776738Y-123749152D01*
X96794076Y-123780585D01*
X96795167Y-123798542D01*
X96791039Y-123833705D01*
X96770252Y-123843782D01*
X96726375Y-123837146D01*
X96560937Y-123812612D01*
X96425492Y-123814855D01*
X96316853Y-123844356D01*
X96231837Y-123901598D01*
X96219854Y-123913747D01*
X96168991Y-123992215D01*
X96160245Y-124072304D01*
X96193545Y-124152095D01*
X96229951Y-124195351D01*
X96326940Y-124263433D01*
X96448742Y-124302327D01*
X96588209Y-124310605D01*
X96715792Y-124292391D01*
X96767232Y-124282628D01*
X96789731Y-124288760D01*
X96795105Y-124315252D01*
X96795167Y-124322381D01*
X96782605Y-124365457D01*
X96762854Y-124383204D01*
X96712580Y-124393928D01*
X96633757Y-124401700D01*
X96540094Y-124406103D01*
X96445300Y-124406716D01*
X96363081Y-124403123D01*
X96315242Y-124396868D01*
X96187409Y-124353973D01*
X96089054Y-124289728D01*
X96020905Y-124210043D01*
X95983690Y-124120826D01*
X95978135Y-124027989D01*
X96004968Y-123937441D01*
X96064916Y-123855092D01*
X96158707Y-123786852D01*
X96236073Y-123753570D01*
X96317920Y-123735041D01*
X96425543Y-123723248D01*
X96542818Y-123718882D01*
X96653622Y-123722637D01*
G36*
X104605667Y-126005167D02*
G01*
X104753833Y-126005167D01*
X104831699Y-126006309D01*
X104876308Y-126011459D01*
X104896710Y-126023204D01*
X104901959Y-126044130D01*
X104902000Y-126047500D01*
X104900195Y-126062550D01*
X104890950Y-126073534D01*
X104868517Y-126081093D01*
X104827149Y-126085863D01*
X104761098Y-126088484D01*
X104664618Y-126089594D01*
X104531961Y-126089833D01*
X104521000Y-126089833D01*
X104385551Y-126089633D01*
X104286689Y-126088605D01*
X104218664Y-126086113D01*
X104175731Y-126081516D01*
X104152141Y-126074177D01*
X104142148Y-126063457D01*
X104140004Y-126048718D01*
X104140000Y-126047500D01*
X104143997Y-126025252D01*
X104162024Y-126012507D01*
X104203132Y-126006678D01*
X104276372Y-126005178D01*
X104288167Y-126005167D01*
X104436333Y-126005167D01*
X104436333Y-125440378D01*
X104335792Y-125456927D01*
X104242723Y-125470520D01*
X104183852Y-125473809D01*
X104152150Y-125466114D01*
X104140592Y-125446757D01*
X104140000Y-125438010D01*
X104147620Y-125417740D01*
X104175262Y-125400515D01*
X104230095Y-125383402D01*
X104319290Y-125363468D01*
X104325208Y-125362258D01*
X104414507Y-125343886D01*
X104492578Y-125327529D01*
X104546652Y-125315874D01*
X104558042Y-125313286D01*
X104605667Y-125302077D01*
X104605667Y-126005167D01*
G37*
X104605667Y-126005167D02*
X104753833Y-126005167D01*
X104831699Y-126006309D01*
X104876308Y-126011459D01*
X104896710Y-126023204D01*
X104901959Y-126044130D01*
X104902000Y-126047500D01*
X104900195Y-126062550D01*
X104890950Y-126073534D01*
X104868517Y-126081093D01*
X104827149Y-126085863D01*
X104761098Y-126088484D01*
X104664618Y-126089594D01*
X104531961Y-126089833D01*
X104521000Y-126089833D01*
X104385551Y-126089633D01*
X104286689Y-126088605D01*
X104218664Y-126086113D01*
X104175731Y-126081516D01*
X104152141Y-126074177D01*
X104142148Y-126063457D01*
X104140004Y-126048718D01*
X104140000Y-126047500D01*
X104143997Y-126025252D01*
X104162024Y-126012507D01*
X104203132Y-126006678D01*
X104276372Y-126005178D01*
X104288167Y-126005167D01*
X104436333Y-126005167D01*
X104436333Y-125440378D01*
X104335792Y-125456927D01*
X104242723Y-125470520D01*
X104183852Y-125473809D01*
X104152150Y-125466114D01*
X104140592Y-125446757D01*
X104140000Y-125438010D01*
X104147620Y-125417740D01*
X104175262Y-125400515D01*
X104230095Y-125383402D01*
X104319290Y-125363468D01*
X104325208Y-125362258D01*
X104414507Y-125343886D01*
X104492578Y-125327529D01*
X104546652Y-125315874D01*
X104558042Y-125313286D01*
X104605667Y-125302077D01*
X104605667Y-126005167D01*
G36*
X99991333Y-125598436D02*
G01*
X100069892Y-125558385D01*
X100161709Y-125526959D01*
X100262650Y-125516541D01*
X100358391Y-125526771D01*
X100434606Y-125557287D01*
X100448809Y-125567939D01*
X100474077Y-125591910D01*
X100491103Y-125618024D01*
X100501999Y-125655239D01*
X100508878Y-125712515D01*
X100513854Y-125798810D01*
X100516208Y-125853689D01*
X100525938Y-126089833D01*
X100330000Y-126089833D01*
X100330000Y-125878911D01*
X100329267Y-125781761D01*
X100325967Y-125718288D01*
X100318446Y-125679842D01*
X100305052Y-125657776D01*
X100285081Y-125643949D01*
X100216814Y-125629516D01*
X100134651Y-125645794D01*
X100053052Y-125688935D01*
X100022960Y-125712477D01*
X100004683Y-125737505D01*
X99995282Y-125774619D01*
X99991813Y-125834419D01*
X99991333Y-125911358D01*
X99991333Y-126089833D01*
X99822000Y-126089833D01*
X99822000Y-125285500D01*
X99991333Y-125285500D01*
X99991333Y-125598436D01*
G37*
X99991333Y-125598436D02*
X100069892Y-125558385D01*
X100161709Y-125526959D01*
X100262650Y-125516541D01*
X100358391Y-125526771D01*
X100434606Y-125557287D01*
X100448809Y-125567939D01*
X100474077Y-125591910D01*
X100491103Y-125618024D01*
X100501999Y-125655239D01*
X100508878Y-125712515D01*
X100513854Y-125798810D01*
X100516208Y-125853689D01*
X100525938Y-126089833D01*
X100330000Y-126089833D01*
X100330000Y-125878911D01*
X100329267Y-125781761D01*
X100325967Y-125718288D01*
X100318446Y-125679842D01*
X100305052Y-125657776D01*
X100285081Y-125643949D01*
X100216814Y-125629516D01*
X100134651Y-125645794D01*
X100053052Y-125688935D01*
X100022960Y-125712477D01*
X100004683Y-125737505D01*
X99995282Y-125774619D01*
X99991813Y-125834419D01*
X99991333Y-125911358D01*
X99991333Y-126089833D01*
X99822000Y-126089833D01*
X99822000Y-125285500D01*
X99991333Y-125285500D01*
X99991333Y-125598436D01*
G36*
X96244833Y-126005167D02*
G01*
X96509417Y-126005167D01*
X96619219Y-126005552D01*
X96693567Y-126007442D01*
X96739338Y-126011938D01*
X96763408Y-126020138D01*
X96772654Y-126033144D01*
X96774000Y-126047500D01*
X96772069Y-126063122D01*
X96762278Y-126074341D01*
X96738627Y-126081883D01*
X96695114Y-126086475D01*
X96625742Y-126088845D01*
X96524509Y-126089720D01*
X96424750Y-126089833D01*
X96075500Y-126089833D01*
X96075500Y-125433667D01*
X96244833Y-125433667D01*
X96244833Y-126005167D01*
G37*
X96244833Y-126005167D02*
X96509417Y-126005167D01*
X96619219Y-126005552D01*
X96693567Y-126007442D01*
X96739338Y-126011938D01*
X96763408Y-126020138D01*
X96772654Y-126033144D01*
X96774000Y-126047500D01*
X96772069Y-126063122D01*
X96762278Y-126074341D01*
X96738627Y-126081883D01*
X96695114Y-126086475D01*
X96625742Y-126088845D01*
X96524509Y-126089720D01*
X96424750Y-126089833D01*
X96075500Y-126089833D01*
X96075500Y-125433667D01*
X96244833Y-125433667D01*
X96244833Y-126005167D01*
G36*
X105621606Y-125313466D02*
G01*
X105669292Y-125320252D01*
X105722424Y-125333609D01*
X105744902Y-125356128D01*
X105748667Y-125385201D01*
X105744015Y-125420295D01*
X105721534Y-125429143D01*
X105684793Y-125423001D01*
X105547887Y-125406439D01*
X105433719Y-125420851D01*
X105345091Y-125465295D01*
X105284809Y-125538833D01*
X105275040Y-125560282D01*
X105250939Y-125622074D01*
X105245426Y-125651048D01*
X105262103Y-125653981D01*
X105304575Y-125637646D01*
X105314070Y-125633670D01*
X105396950Y-125612036D01*
X105497092Y-125603847D01*
X105593931Y-125609691D01*
X105652849Y-125623951D01*
X105705962Y-125654466D01*
X105758401Y-125699353D01*
X105760061Y-125701125D01*
X105799900Y-125772063D01*
X105812767Y-125858754D01*
X105797549Y-125943436D01*
X105777612Y-125981581D01*
X105712141Y-126041433D01*
X105618678Y-126083430D01*
X105508429Y-126105707D01*
X105392599Y-126106401D01*
X105282392Y-126083649D01*
X105247200Y-126069792D01*
X105160409Y-126009434D01*
X105103118Y-125920035D01*
X105090455Y-125866619D01*
X105265839Y-125866619D01*
X105284666Y-125923614D01*
X105334821Y-125976545D01*
X105408081Y-126007378D01*
X105490267Y-126014061D01*
X105567197Y-125994543D01*
X105604403Y-125969885D01*
X105637962Y-125913864D01*
X105643645Y-125843339D01*
X105622634Y-125774589D01*
X105587062Y-125731536D01*
X105513308Y-125693393D01*
X105437399Y-125686018D01*
X105367017Y-125704532D01*
X105309842Y-125744056D01*
X105273556Y-125799711D01*
X105265839Y-125866619D01*
X105090455Y-125866619D01*
X105074796Y-125800573D01*
X105071333Y-125730000D01*
X105088308Y-125591585D01*
X105137881Y-125478915D01*
X105218025Y-125393379D01*
X105326712Y-125336366D01*
X105461915Y-125309265D01*
X105621606Y-125313466D01*
G37*
X105621606Y-125313466D02*
X105669292Y-125320252D01*
X105722424Y-125333609D01*
X105744902Y-125356128D01*
X105748667Y-125385201D01*
X105744015Y-125420295D01*
X105721534Y-125429143D01*
X105684793Y-125423001D01*
X105547887Y-125406439D01*
X105433719Y-125420851D01*
X105345091Y-125465295D01*
X105284809Y-125538833D01*
X105275040Y-125560282D01*
X105250939Y-125622074D01*
X105245426Y-125651048D01*
X105262103Y-125653981D01*
X105304575Y-125637646D01*
X105314070Y-125633670D01*
X105396950Y-125612036D01*
X105497092Y-125603847D01*
X105593931Y-125609691D01*
X105652849Y-125623951D01*
X105705962Y-125654466D01*
X105758401Y-125699353D01*
X105760061Y-125701125D01*
X105799900Y-125772063D01*
X105812767Y-125858754D01*
X105797549Y-125943436D01*
X105777612Y-125981581D01*
X105712141Y-126041433D01*
X105618678Y-126083430D01*
X105508429Y-126105707D01*
X105392599Y-126106401D01*
X105282392Y-126083649D01*
X105247200Y-126069792D01*
X105160409Y-126009434D01*
X105103118Y-125920035D01*
X105090455Y-125866619D01*
X105265839Y-125866619D01*
X105284666Y-125923614D01*
X105334821Y-125976545D01*
X105408081Y-126007378D01*
X105490267Y-126014061D01*
X105567197Y-125994543D01*
X105604403Y-125969885D01*
X105637962Y-125913864D01*
X105643645Y-125843339D01*
X105622634Y-125774589D01*
X105587062Y-125731536D01*
X105513308Y-125693393D01*
X105437399Y-125686018D01*
X105367017Y-125704532D01*
X105309842Y-125744056D01*
X105273556Y-125799711D01*
X105265839Y-125866619D01*
X105090455Y-125866619D01*
X105074796Y-125800573D01*
X105071333Y-125730000D01*
X105088308Y-125591585D01*
X105137881Y-125478915D01*
X105218025Y-125393379D01*
X105326712Y-125336366D01*
X105461915Y-125309265D01*
X105621606Y-125313466D01*
G36*
X99487752Y-125523108D02*
G01*
X99548503Y-125537379D01*
X99580797Y-125562192D01*
X99589167Y-125593626D01*
X99586225Y-125625629D01*
X99569774Y-125637798D01*
X99528369Y-125634723D01*
X99499208Y-125629708D01*
X99371299Y-125615199D01*
X99257738Y-125618453D01*
X99168012Y-125638699D01*
X99128010Y-125659821D01*
X99067431Y-125726372D01*
X99044519Y-125801352D01*
X99058340Y-125875816D01*
X99107959Y-125940815D01*
X99160910Y-125974684D01*
X99212623Y-125993539D01*
X99273991Y-126002398D01*
X99357831Y-126002533D01*
X99412957Y-125999678D01*
X99498932Y-125994839D01*
X99551107Y-125994682D01*
X99577915Y-126000963D01*
X99587789Y-126015437D01*
X99589167Y-126036382D01*
X99582992Y-126066741D01*
X99557344Y-126084412D01*
X99501538Y-126096048D01*
X99490962Y-126097539D01*
X99323869Y-126108193D01*
X99166730Y-126095273D01*
X99144667Y-126091183D01*
X99021134Y-126051476D01*
X98933219Y-125989593D01*
X98881297Y-125905905D01*
X98865672Y-125814240D01*
X98882318Y-125711748D01*
X98935143Y-125630901D01*
X99023793Y-125571960D01*
X99147909Y-125535187D01*
X99263312Y-125522351D01*
X99394153Y-125518419D01*
X99487752Y-125523108D01*
G37*
X99487752Y-125523108D02*
X99548503Y-125537379D01*
X99580797Y-125562192D01*
X99589167Y-125593626D01*
X99586225Y-125625629D01*
X99569774Y-125637798D01*
X99528369Y-125634723D01*
X99499208Y-125629708D01*
X99371299Y-125615199D01*
X99257738Y-125618453D01*
X99168012Y-125638699D01*
X99128010Y-125659821D01*
X99067431Y-125726372D01*
X99044519Y-125801352D01*
X99058340Y-125875816D01*
X99107959Y-125940815D01*
X99160910Y-125974684D01*
X99212623Y-125993539D01*
X99273991Y-126002398D01*
X99357831Y-126002533D01*
X99412957Y-125999678D01*
X99498932Y-125994839D01*
X99551107Y-125994682D01*
X99577915Y-126000963D01*
X99587789Y-126015437D01*
X99589167Y-126036382D01*
X99582992Y-126066741D01*
X99557344Y-126084412D01*
X99501538Y-126096048D01*
X99490962Y-126097539D01*
X99323869Y-126108193D01*
X99166730Y-126095273D01*
X99144667Y-126091183D01*
X99021134Y-126051476D01*
X98933219Y-125989593D01*
X98881297Y-125905905D01*
X98865672Y-125814240D01*
X98882318Y-125711748D01*
X98935143Y-125630901D01*
X99023793Y-125571960D01*
X99147909Y-125535187D01*
X99263312Y-125522351D01*
X99394153Y-125518419D01*
X99487752Y-125523108D01*
G36*
X98176292Y-125416574D02*
G01*
X98233713Y-125423812D01*
X98261416Y-125440085D01*
X98272012Y-125473837D01*
X98272947Y-125481292D01*
X98279645Y-125539500D01*
X98458156Y-125539500D01*
X98545228Y-125540299D01*
X98598286Y-125544012D01*
X98625637Y-125552607D01*
X98635590Y-125568055D01*
X98636667Y-125581833D01*
X98633318Y-125602417D01*
X98617756Y-125614990D01*
X98581701Y-125621500D01*
X98516876Y-125623894D01*
X98456750Y-125624167D01*
X98276833Y-125624167D01*
X98276833Y-125801819D01*
X98277639Y-125892029D01*
X98285061Y-125950629D01*
X98306606Y-125984431D01*
X98349780Y-126000252D01*
X98422089Y-126004905D01*
X98500814Y-126005167D01*
X98581738Y-126006306D01*
X98629064Y-126011191D01*
X98651500Y-126022022D01*
X98657753Y-126041002D01*
X98657833Y-126044854D01*
X98640925Y-126078998D01*
X98591687Y-126097771D01*
X98506393Y-126107070D01*
X98402031Y-126107929D01*
X98300924Y-126100777D01*
X98243236Y-126091044D01*
X98189533Y-126075497D01*
X98154061Y-126060696D01*
X98127867Y-126023974D01*
X98106428Y-125954712D01*
X98091904Y-125862621D01*
X98086453Y-125757415D01*
X98086451Y-125756458D01*
X98086333Y-125624167D01*
X97991083Y-125624167D01*
X97931559Y-125621397D01*
X97903412Y-125609895D01*
X97895870Y-125584874D01*
X97895833Y-125581833D01*
X97902065Y-125555378D01*
X97927944Y-125542868D01*
X97984241Y-125539516D01*
X97991083Y-125539500D01*
X98049644Y-125537692D01*
X98077379Y-125527063D01*
X98085784Y-125499800D01*
X98086333Y-125474783D01*
X98088868Y-125434441D01*
X98104317Y-125416894D01*
X98144450Y-125414528D01*
X98176292Y-125416574D01*
G37*
X98176292Y-125416574D02*
X98233713Y-125423812D01*
X98261416Y-125440085D01*
X98272012Y-125473837D01*
X98272947Y-125481292D01*
X98279645Y-125539500D01*
X98458156Y-125539500D01*
X98545228Y-125540299D01*
X98598286Y-125544012D01*
X98625637Y-125552607D01*
X98635590Y-125568055D01*
X98636667Y-125581833D01*
X98633318Y-125602417D01*
X98617756Y-125614990D01*
X98581701Y-125621500D01*
X98516876Y-125623894D01*
X98456750Y-125624167D01*
X98276833Y-125624167D01*
X98276833Y-125801819D01*
X98277639Y-125892029D01*
X98285061Y-125950629D01*
X98306606Y-125984431D01*
X98349780Y-126000252D01*
X98422089Y-126004905D01*
X98500814Y-126005167D01*
X98581738Y-126006306D01*
X98629064Y-126011191D01*
X98651500Y-126022022D01*
X98657753Y-126041002D01*
X98657833Y-126044854D01*
X98640925Y-126078998D01*
X98591687Y-126097771D01*
X98506393Y-126107070D01*
X98402031Y-126107929D01*
X98300924Y-126100777D01*
X98243236Y-126091044D01*
X98189533Y-126075497D01*
X98154061Y-126060696D01*
X98127867Y-126023974D01*
X98106428Y-125954712D01*
X98091904Y-125862621D01*
X98086453Y-125757415D01*
X98086451Y-125756458D01*
X98086333Y-125624167D01*
X97991083Y-125624167D01*
X97931559Y-125621397D01*
X97903412Y-125609895D01*
X97895870Y-125584874D01*
X97895833Y-125581833D01*
X97902065Y-125555378D01*
X97927944Y-125542868D01*
X97984241Y-125539516D01*
X97991083Y-125539500D01*
X98049644Y-125537692D01*
X98077379Y-125527063D01*
X98085784Y-125499800D01*
X98086333Y-125474783D01*
X98088868Y-125434441D01*
X98104317Y-125416894D01*
X98144450Y-125414528D01*
X98176292Y-125416574D01*
G36*
X97378422Y-125520700D02*
G01*
X97476776Y-125532515D01*
X97549494Y-125553343D01*
X97577135Y-125570166D01*
X97600959Y-125599160D01*
X97614379Y-125639770D01*
X97620095Y-125703688D01*
X97620956Y-125759739D01*
X97623164Y-125865859D01*
X97630841Y-125936855D01*
X97646289Y-125979818D01*
X97671812Y-126001839D01*
X97702016Y-126009260D01*
X97747610Y-126026713D01*
X97764680Y-126051585D01*
X97753186Y-126081168D01*
X97713097Y-126098553D01*
X97656320Y-126103863D01*
X97594761Y-126097223D01*
X97540327Y-126078755D01*
X97505105Y-126048883D01*
X97477478Y-126039850D01*
X97432275Y-126056993D01*
X97335169Y-126089548D01*
X97222610Y-126101115D01*
X97115686Y-126090306D01*
X97081197Y-126080144D01*
X96997605Y-126036401D01*
X96952456Y-125982818D01*
X96946970Y-125922640D01*
X96949040Y-125918924D01*
X97133833Y-125918924D01*
X97151518Y-125968498D01*
X97201599Y-125996046D01*
X97279618Y-126000370D01*
X97371958Y-125982887D01*
X97424070Y-125964276D01*
X97446498Y-125938528D01*
X97451333Y-125891626D01*
X97451333Y-125820881D01*
X97340208Y-125831246D01*
X97237727Y-125845114D01*
X97172567Y-125865177D01*
X97139918Y-125893481D01*
X97133833Y-125918924D01*
X96949040Y-125918924D01*
X96982367Y-125859109D01*
X96993546Y-125847196D01*
X97075691Y-125793546D01*
X97192120Y-125761336D01*
X97329625Y-125751285D01*
X97398163Y-125749994D01*
X97434527Y-125743316D01*
X97448866Y-125726785D01*
X97451333Y-125697726D01*
X97436097Y-125648279D01*
X97389257Y-125618911D01*
X97309116Y-125609329D01*
X97193977Y-125619240D01*
X97096792Y-125636563D01*
X97049960Y-125642964D01*
X97031252Y-125630644D01*
X97028000Y-125596585D01*
X97031758Y-125565127D01*
X97049852Y-125546701D01*
X97092508Y-125535287D01*
X97144559Y-125527983D01*
X97264370Y-125518866D01*
X97378422Y-125520700D01*
G37*
X97378422Y-125520700D02*
X97476776Y-125532515D01*
X97549494Y-125553343D01*
X97577135Y-125570166D01*
X97600959Y-125599160D01*
X97614379Y-125639770D01*
X97620095Y-125703688D01*
X97620956Y-125759739D01*
X97623164Y-125865859D01*
X97630841Y-125936855D01*
X97646289Y-125979818D01*
X97671812Y-126001839D01*
X97702016Y-126009260D01*
X97747610Y-126026713D01*
X97764680Y-126051585D01*
X97753186Y-126081168D01*
X97713097Y-126098553D01*
X97656320Y-126103863D01*
X97594761Y-126097223D01*
X97540327Y-126078755D01*
X97505105Y-126048883D01*
X97477478Y-126039850D01*
X97432275Y-126056993D01*
X97335169Y-126089548D01*
X97222610Y-126101115D01*
X97115686Y-126090306D01*
X97081197Y-126080144D01*
X96997605Y-126036401D01*
X96952456Y-125982818D01*
X96946970Y-125922640D01*
X96949040Y-125918924D01*
X97133833Y-125918924D01*
X97151518Y-125968498D01*
X97201599Y-125996046D01*
X97279618Y-126000370D01*
X97371958Y-125982887D01*
X97424070Y-125964276D01*
X97446498Y-125938528D01*
X97451333Y-125891626D01*
X97451333Y-125820881D01*
X97340208Y-125831246D01*
X97237727Y-125845114D01*
X97172567Y-125865177D01*
X97139918Y-125893481D01*
X97133833Y-125918924D01*
X96949040Y-125918924D01*
X96982367Y-125859109D01*
X96993546Y-125847196D01*
X97075691Y-125793546D01*
X97192120Y-125761336D01*
X97329625Y-125751285D01*
X97398163Y-125749994D01*
X97434527Y-125743316D01*
X97448866Y-125726785D01*
X97451333Y-125697726D01*
X97436097Y-125648279D01*
X97389257Y-125618911D01*
X97309116Y-125609329D01*
X97193977Y-125619240D01*
X97096792Y-125636563D01*
X97049960Y-125642964D01*
X97031252Y-125630644D01*
X97028000Y-125596585D01*
X97031758Y-125565127D01*
X97049852Y-125546701D01*
X97092508Y-125535287D01*
X97144559Y-125527983D01*
X97264370Y-125518866D01*
X97378422Y-125520700D01*
G36*
X104605667Y-127698500D02*
G01*
X104753833Y-127698500D01*
X104831699Y-127699642D01*
X104876308Y-127704792D01*
X104896710Y-127716538D01*
X104901959Y-127737463D01*
X104902000Y-127740833D01*
X104900195Y-127755883D01*
X104890950Y-127766868D01*
X104868517Y-127774426D01*
X104827149Y-127779196D01*
X104761098Y-127781817D01*
X104664618Y-127782928D01*
X104531961Y-127783166D01*
X104521000Y-127783167D01*
X104385551Y-127782966D01*
X104286689Y-127781939D01*
X104218664Y-127779446D01*
X104175731Y-127774850D01*
X104152141Y-127767511D01*
X104142148Y-127756791D01*
X104140004Y-127742051D01*
X104140000Y-127740833D01*
X104143997Y-127718586D01*
X104162024Y-127705840D01*
X104203132Y-127700011D01*
X104276372Y-127698512D01*
X104288167Y-127698500D01*
X104436333Y-127698500D01*
X104436333Y-127143870D01*
X104286162Y-127158951D01*
X104208296Y-127165866D01*
X104164002Y-127166142D01*
X104144850Y-127158442D01*
X104142412Y-127141428D01*
X104143287Y-127136276D01*
X104157752Y-127114542D01*
X104196464Y-127094972D01*
X104266149Y-127074838D01*
X104330500Y-127060311D01*
X104418620Y-127041446D01*
X104495579Y-127024700D01*
X104548343Y-127012918D01*
X104558042Y-127010648D01*
X104605667Y-126999193D01*
X104605667Y-127698500D01*
G37*
X104605667Y-127698500D02*
X104753833Y-127698500D01*
X104831699Y-127699642D01*
X104876308Y-127704792D01*
X104896710Y-127716538D01*
X104901959Y-127737463D01*
X104902000Y-127740833D01*
X104900195Y-127755883D01*
X104890950Y-127766868D01*
X104868517Y-127774426D01*
X104827149Y-127779196D01*
X104761098Y-127781817D01*
X104664618Y-127782928D01*
X104531961Y-127783166D01*
X104521000Y-127783167D01*
X104385551Y-127782966D01*
X104286689Y-127781939D01*
X104218664Y-127779446D01*
X104175731Y-127774850D01*
X104152141Y-127767511D01*
X104142148Y-127756791D01*
X104140004Y-127742051D01*
X104140000Y-127740833D01*
X104143997Y-127718586D01*
X104162024Y-127705840D01*
X104203132Y-127700011D01*
X104276372Y-127698512D01*
X104288167Y-127698500D01*
X104436333Y-127698500D01*
X104436333Y-127143870D01*
X104286162Y-127158951D01*
X104208296Y-127165866D01*
X104164002Y-127166142D01*
X104144850Y-127158442D01*
X104142412Y-127141428D01*
X104143287Y-127136276D01*
X104157752Y-127114542D01*
X104196464Y-127094972D01*
X104266149Y-127074838D01*
X104330500Y-127060311D01*
X104418620Y-127041446D01*
X104495579Y-127024700D01*
X104548343Y-127012918D01*
X104558042Y-127010648D01*
X104605667Y-126999193D01*
X104605667Y-127698500D01*
G36*
X97472133Y-127127247D02*
G01*
X97562526Y-127128496D01*
X97622770Y-127131509D01*
X97658956Y-127137046D01*
X97677176Y-127145870D01*
X97683523Y-127158742D01*
X97684167Y-127169333D01*
X97681674Y-127187203D01*
X97669521Y-127199187D01*
X97640692Y-127206455D01*
X97588172Y-127210175D01*
X97504944Y-127211516D01*
X97430167Y-127211667D01*
X97176167Y-127211667D01*
X97176167Y-127402167D01*
X97398417Y-127402167D01*
X97497565Y-127402697D01*
X97561869Y-127405240D01*
X97598813Y-127411220D01*
X97615880Y-127422064D01*
X97620556Y-127439197D01*
X97620667Y-127444500D01*
X97617880Y-127463385D01*
X97604530Y-127475634D01*
X97573133Y-127482671D01*
X97516204Y-127485921D01*
X97426259Y-127486812D01*
X97398417Y-127486833D01*
X97176167Y-127486833D01*
X97176167Y-127698500D01*
X97451333Y-127698500D01*
X97563668Y-127698859D01*
X97640418Y-127700628D01*
X97688329Y-127704845D01*
X97714148Y-127712548D01*
X97724620Y-127724775D01*
X97726500Y-127740833D01*
X97724614Y-127756257D01*
X97715014Y-127767396D01*
X97691789Y-127774946D01*
X97649027Y-127779603D01*
X97580814Y-127782061D01*
X97481240Y-127783016D01*
X97366667Y-127783167D01*
X97006833Y-127783167D01*
X97006833Y-127127000D01*
X97345500Y-127127000D01*
X97472133Y-127127247D01*
G37*
X97472133Y-127127247D02*
X97562526Y-127128496D01*
X97622770Y-127131509D01*
X97658956Y-127137046D01*
X97677176Y-127145870D01*
X97683523Y-127158742D01*
X97684167Y-127169333D01*
X97681674Y-127187203D01*
X97669521Y-127199187D01*
X97640692Y-127206455D01*
X97588172Y-127210175D01*
X97504944Y-127211516D01*
X97430167Y-127211667D01*
X97176167Y-127211667D01*
X97176167Y-127402167D01*
X97398417Y-127402167D01*
X97497565Y-127402697D01*
X97561869Y-127405240D01*
X97598813Y-127411220D01*
X97615880Y-127422064D01*
X97620556Y-127439197D01*
X97620667Y-127444500D01*
X97617880Y-127463385D01*
X97604530Y-127475634D01*
X97573133Y-127482671D01*
X97516204Y-127485921D01*
X97426259Y-127486812D01*
X97398417Y-127486833D01*
X97176167Y-127486833D01*
X97176167Y-127698500D01*
X97451333Y-127698500D01*
X97563668Y-127698859D01*
X97640418Y-127700628D01*
X97688329Y-127704845D01*
X97714148Y-127712548D01*
X97724620Y-127724775D01*
X97726500Y-127740833D01*
X97724614Y-127756257D01*
X97715014Y-127767396D01*
X97691789Y-127774946D01*
X97649027Y-127779603D01*
X97580814Y-127782061D01*
X97481240Y-127783016D01*
X97366667Y-127783167D01*
X97006833Y-127783167D01*
X97006833Y-127127000D01*
X97345500Y-127127000D01*
X97472133Y-127127247D01*
G36*
X105727500Y-127074083D02*
G01*
X105726116Y-127098538D01*
X105716696Y-127113988D01*
X105691332Y-127122500D01*
X105642120Y-127126143D01*
X105561153Y-127126985D01*
X105525199Y-127127000D01*
X105322899Y-127127000D01*
X105329408Y-127216958D01*
X105335917Y-127306917D01*
X105442568Y-127319935D01*
X105568203Y-127348271D01*
X105663024Y-127397534D01*
X105724065Y-127465388D01*
X105748361Y-127549499D01*
X105748667Y-127560917D01*
X105729505Y-127647648D01*
X105673708Y-127716791D01*
X105583805Y-127766825D01*
X105462328Y-127796226D01*
X105344736Y-127803868D01*
X105265971Y-127802349D01*
X105204531Y-127797908D01*
X105171942Y-127791447D01*
X105170111Y-127790222D01*
X105158608Y-127759623D01*
X105156000Y-127730915D01*
X105158563Y-127706239D01*
X105172796Y-127695075D01*
X105208518Y-127695475D01*
X105275548Y-127705491D01*
X105280223Y-127706263D01*
X105355611Y-127716290D01*
X105406948Y-127714342D01*
X105451290Y-127698569D01*
X105476014Y-127685009D01*
X105523975Y-127650692D01*
X105544010Y-127611223D01*
X105547583Y-127559730D01*
X105542836Y-127502113D01*
X105520895Y-127467666D01*
X105473500Y-127439241D01*
X105402033Y-127415628D01*
X105314654Y-127403046D01*
X105288292Y-127402199D01*
X105177167Y-127402167D01*
X105177167Y-127021167D01*
X105727500Y-127021167D01*
X105727500Y-127074083D01*
G37*
X105727500Y-127074083D02*
X105726116Y-127098538D01*
X105716696Y-127113988D01*
X105691332Y-127122500D01*
X105642120Y-127126143D01*
X105561153Y-127126985D01*
X105525199Y-127127000D01*
X105322899Y-127127000D01*
X105329408Y-127216958D01*
X105335917Y-127306917D01*
X105442568Y-127319935D01*
X105568203Y-127348271D01*
X105663024Y-127397534D01*
X105724065Y-127465388D01*
X105748361Y-127549499D01*
X105748667Y-127560917D01*
X105729505Y-127647648D01*
X105673708Y-127716791D01*
X105583805Y-127766825D01*
X105462328Y-127796226D01*
X105344736Y-127803868D01*
X105265971Y-127802349D01*
X105204531Y-127797908D01*
X105171942Y-127791447D01*
X105170111Y-127790222D01*
X105158608Y-127759623D01*
X105156000Y-127730915D01*
X105158563Y-127706239D01*
X105172796Y-127695075D01*
X105208518Y-127695475D01*
X105275548Y-127705491D01*
X105280223Y-127706263D01*
X105355611Y-127716290D01*
X105406948Y-127714342D01*
X105451290Y-127698569D01*
X105476014Y-127685009D01*
X105523975Y-127650692D01*
X105544010Y-127611223D01*
X105547583Y-127559730D01*
X105542836Y-127502113D01*
X105520895Y-127467666D01*
X105473500Y-127439241D01*
X105402033Y-127415628D01*
X105314654Y-127403046D01*
X105288292Y-127402199D01*
X105177167Y-127402167D01*
X105177167Y-127021167D01*
X105727500Y-127021167D01*
X105727500Y-127074083D01*
G36*
X96478147Y-127118887D02*
G01*
X96546515Y-127128224D01*
X96602303Y-127147310D01*
X96639213Y-127166537D01*
X96729917Y-127239711D01*
X96788085Y-127331300D01*
X96813371Y-127433100D01*
X96805429Y-127536908D01*
X96763912Y-127634523D01*
X96688475Y-127717741D01*
X96663247Y-127736018D01*
X96610684Y-127765721D01*
X96554017Y-127784076D01*
X96479152Y-127794557D01*
X96407264Y-127799122D01*
X96314089Y-127801678D01*
X96248261Y-127797259D01*
X96195059Y-127783617D01*
X96139761Y-127758506D01*
X96139171Y-127758201D01*
X96039798Y-127690606D01*
X95978731Y-127608049D01*
X95953183Y-127505745D01*
X95953216Y-127484633D01*
X96129383Y-127484633D01*
X96155669Y-127578672D01*
X96215633Y-127653215D01*
X96276575Y-127690331D01*
X96351454Y-127714788D01*
X96418220Y-127712905D01*
X96486163Y-127690152D01*
X96561558Y-127644030D01*
X96606383Y-127577785D01*
X96624821Y-127484190D01*
X96625833Y-127448745D01*
X96622163Y-127375841D01*
X96606869Y-127326762D01*
X96573531Y-127283321D01*
X96563961Y-127273538D01*
X96520016Y-127236081D01*
X96474323Y-127217596D01*
X96409028Y-127211846D01*
X96386899Y-127211667D01*
X96279794Y-127225068D01*
X96202938Y-127266650D01*
X96153261Y-127338480D01*
X96139805Y-127378010D01*
X96129383Y-127484633D01*
X95953216Y-127484633D01*
X95953289Y-127438924D01*
X95976445Y-127320566D01*
X96028408Y-127230366D01*
X96110809Y-127167096D01*
X96225278Y-127129533D01*
X96373446Y-127116450D01*
X96382417Y-127116417D01*
X96478147Y-127118887D01*
G37*
X96478147Y-127118887D02*
X96546515Y-127128224D01*
X96602303Y-127147310D01*
X96639213Y-127166537D01*
X96729917Y-127239711D01*
X96788085Y-127331300D01*
X96813371Y-127433100D01*
X96805429Y-127536908D01*
X96763912Y-127634523D01*
X96688475Y-127717741D01*
X96663247Y-127736018D01*
X96610684Y-127765721D01*
X96554017Y-127784076D01*
X96479152Y-127794557D01*
X96407264Y-127799122D01*
X96314089Y-127801678D01*
X96248261Y-127797259D01*
X96195059Y-127783617D01*
X96139761Y-127758506D01*
X96139171Y-127758201D01*
X96039798Y-127690606D01*
X95978731Y-127608049D01*
X95953183Y-127505745D01*
X95953216Y-127484633D01*
X96129383Y-127484633D01*
X96155669Y-127578672D01*
X96215633Y-127653215D01*
X96276575Y-127690331D01*
X96351454Y-127714788D01*
X96418220Y-127712905D01*
X96486163Y-127690152D01*
X96561558Y-127644030D01*
X96606383Y-127577785D01*
X96624821Y-127484190D01*
X96625833Y-127448745D01*
X96622163Y-127375841D01*
X96606869Y-127326762D01*
X96573531Y-127283321D01*
X96563961Y-127273538D01*
X96520016Y-127236081D01*
X96474323Y-127217596D01*
X96409028Y-127211846D01*
X96386899Y-127211667D01*
X96279794Y-127225068D01*
X96202938Y-127266650D01*
X96153261Y-127338480D01*
X96139805Y-127378010D01*
X96129383Y-127484633D01*
X95953216Y-127484633D01*
X95953289Y-127438924D01*
X95976445Y-127320566D01*
X96028408Y-127230366D01*
X96110809Y-127167096D01*
X96225278Y-127129533D01*
X96373446Y-127116450D01*
X96382417Y-127116417D01*
X96478147Y-127118887D01*
D10*
%TO.C,U1*%
X88646000Y-140970000D02*
X88646000Y-146050000D01*
X114046000Y-109220000D02*
X89916000Y-109220000D01*
X114046000Y-109220000D02*
X116586000Y-111760000D01*
X88646000Y-109220000D02*
X86106000Y-111760000D01*
X88646000Y-109220000D02*
X89916000Y-109220000D01*
X116586000Y-111760000D02*
X116586000Y-146050000D01*
X86106000Y-111760000D02*
X86106000Y-140970000D01*
X86106000Y-140970000D02*
X88646000Y-140970000D01*
D15*
G36*
X87376000Y-144780000D02*
G01*
X87376000Y-142240000D01*
X88646000Y-142240000D01*
X88646000Y-144780000D01*
X87376000Y-144780000D01*
G37*
X87376000Y-144780000D02*
X87376000Y-142240000D01*
X88646000Y-142240000D01*
X88646000Y-144780000D01*
X87376000Y-144780000D01*
D10*
X88646000Y-146050000D02*
X116586000Y-146050000D01*
X96266000Y-146050000D02*
X96266000Y-152400000D01*
X96266000Y-152400000D02*
X106426000Y-152400000D01*
X106426000Y-152400000D02*
X106426000Y-146050000D01*
X96266000Y-146050000D02*
X96266000Y-143510000D01*
X96266000Y-143510000D02*
X106426000Y-143510000D01*
X106426000Y-143510000D02*
X106426000Y-146050000D01*
%TO.C,J4*%
X72584000Y-116526000D02*
X73914000Y-116526000D01*
X72584000Y-117856000D02*
X72584000Y-116526000D01*
X75184000Y-116526000D02*
X77784000Y-116526000D01*
X75184000Y-119126000D02*
X75184000Y-116526000D01*
X72584000Y-119126000D02*
X75184000Y-119126000D01*
X77784000Y-116526000D02*
X77784000Y-136966000D01*
X72584000Y-119126000D02*
X72584000Y-136966000D01*
X72584000Y-136966000D02*
X77784000Y-136966000D01*
%TO.C,J3*%
X72390000Y-160528000D02*
X72390000Y-170688000D01*
X80010000Y-160528000D02*
X72390000Y-160528000D01*
X80010000Y-170688000D02*
X80010000Y-160528000D01*
X72390000Y-170688000D02*
X80010000Y-170688000D01*
X73660000Y-170688000D02*
X73660000Y-160528000D01*
%TO.C,J2*%
X129794000Y-170688000D02*
X129794000Y-160528000D01*
X122174000Y-170688000D02*
X129794000Y-170688000D01*
X122174000Y-160528000D02*
X122174000Y-170688000D01*
X129794000Y-160528000D02*
X122174000Y-160528000D01*
X128524000Y-160528000D02*
X128524000Y-170688000D01*
%TO.C,J1*%
D13*
X98726666Y-162393380D02*
X98726666Y-163107666D01*
X98679047Y-163250523D01*
X98583809Y-163345761D01*
X98440952Y-163393380D01*
X98345714Y-163393380D01*
X99726666Y-163393380D02*
X99155238Y-163393380D01*
X99440952Y-163393380D02*
X99440952Y-162393380D01*
X99345714Y-162536238D01*
X99250476Y-162631476D01*
X99155238Y-162679095D01*
%TO.C,U1*%
X89368380Y-143962380D02*
X89035047Y-143486190D01*
X88796952Y-143962380D02*
X88796952Y-142962380D01*
X89177904Y-142962380D01*
X89273142Y-143010000D01*
X89320761Y-143057619D01*
X89368380Y-143152857D01*
X89368380Y-143295714D01*
X89320761Y-143390952D01*
X89273142Y-143438571D01*
X89177904Y-143486190D01*
X88796952Y-143486190D01*
X89749333Y-143914761D02*
X89892190Y-143962380D01*
X90130285Y-143962380D01*
X90225523Y-143914761D01*
X90273142Y-143867142D01*
X90320761Y-143771904D01*
X90320761Y-143676666D01*
X90273142Y-143581428D01*
X90225523Y-143533809D01*
X90130285Y-143486190D01*
X89939809Y-143438571D01*
X89844571Y-143390952D01*
X89796952Y-143343333D01*
X89749333Y-143248095D01*
X89749333Y-143152857D01*
X89796952Y-143057619D01*
X89844571Y-143010000D01*
X89939809Y-142962380D01*
X90177904Y-142962380D01*
X90320761Y-143010000D01*
X90606476Y-142962380D02*
X91177904Y-142962380D01*
X90892190Y-143962380D02*
X90892190Y-142962380D01*
X100084095Y-148042380D02*
X100084095Y-148851904D01*
X100131714Y-148947142D01*
X100179333Y-148994761D01*
X100274571Y-149042380D01*
X100465047Y-149042380D01*
X100560285Y-148994761D01*
X100607904Y-148947142D01*
X100655523Y-148851904D01*
X100655523Y-148042380D01*
X101084095Y-148994761D02*
X101226952Y-149042380D01*
X101465047Y-149042380D01*
X101560285Y-148994761D01*
X101607904Y-148947142D01*
X101655523Y-148851904D01*
X101655523Y-148756666D01*
X101607904Y-148661428D01*
X101560285Y-148613809D01*
X101465047Y-148566190D01*
X101274571Y-148518571D01*
X101179333Y-148470952D01*
X101131714Y-148423333D01*
X101084095Y-148328095D01*
X101084095Y-148232857D01*
X101131714Y-148137619D01*
X101179333Y-148090000D01*
X101274571Y-148042380D01*
X101512666Y-148042380D01*
X101655523Y-148090000D01*
X102417428Y-148518571D02*
X102560285Y-148566190D01*
X102607904Y-148613809D01*
X102655523Y-148709047D01*
X102655523Y-148851904D01*
X102607904Y-148947142D01*
X102560285Y-148994761D01*
X102465047Y-149042380D01*
X102084095Y-149042380D01*
X102084095Y-148042380D01*
X102417428Y-148042380D01*
X102512666Y-148090000D01*
X102560285Y-148137619D01*
X102607904Y-148232857D01*
X102607904Y-148328095D01*
X102560285Y-148423333D01*
X102512666Y-148470952D01*
X102417428Y-148518571D01*
X102084095Y-148518571D01*
%TO.C,J4*%
X74850666Y-114978380D02*
X74850666Y-115692666D01*
X74803047Y-115835523D01*
X74707809Y-115930761D01*
X74564952Y-115978380D01*
X74469714Y-115978380D01*
X75755428Y-115311714D02*
X75755428Y-115978380D01*
X75517333Y-114930761D02*
X75279238Y-115645047D01*
X75898285Y-115645047D01*
%TD*%
M02*
