%TF.GenerationSoftware,KiCad,Pcbnew,(5.1.9)-1*%
%TF.CreationDate,2021-04-28T16:43:29+10:00*%
%TF.ProjectId,ESP32-D1Mini-HUB75,45535033-322d-4443-914d-696e692d4855,rev?*%
%TF.SameCoordinates,Original*%
%TF.FileFunction,Copper,L2,Bot*%
%TF.FilePolarity,Positive*%
%FSLAX46Y46*%
G04 Gerber Fmt 4.6, Leading zero omitted, Abs format (unit mm)*
G04 Created by KiCad (PCBNEW (5.1.9)-1) date 2021-04-28 16:43:29*
%MOMM*%
%LPD*%
G01*
G04 APERTURE LIST*
%TA.AperFunction,ComponentPad*%
%ADD10C,2.000000*%
%TD*%
%TA.AperFunction,ComponentPad*%
%ADD11C,1.400000*%
%TD*%
%TA.AperFunction,ComponentPad*%
%ADD12O,1.700000X1.700000*%
%TD*%
%TA.AperFunction,ComponentPad*%
%ADD13R,1.700000X1.700000*%
%TD*%
%TA.AperFunction,ComponentPad*%
%ADD14C,3.000000*%
%TD*%
%TA.AperFunction,ComponentPad*%
%ADD15R,3.000000X3.000000*%
%TD*%
%TA.AperFunction,ViaPad*%
%ADD16C,0.800000*%
%TD*%
%TA.AperFunction,Conductor*%
%ADD17C,0.250000*%
%TD*%
%TA.AperFunction,Conductor*%
%ADD18C,0.127000*%
%TD*%
%TA.AperFunction,Conductor*%
%ADD19C,0.100000*%
%TD*%
G04 APERTURE END LIST*
D10*
%TO.P,J1,2*%
%TO.N,GND*%
X94810000Y-170180000D03*
%TO.P,J1,1*%
%TO.N,+5V*%
X103310000Y-170180000D03*
%TD*%
D11*
%TO.P,U1,2*%
%TO.N,Net-(U1-Pad2)*%
X89916000Y-116840000D03*
%TO.P,U1,1*%
%TO.N,GND*%
X87376000Y-116840000D03*
%TO.P,U1,3*%
%TO.N,Net-(U1-Pad3)*%
X87376000Y-119380000D03*
%TO.P,U1,4*%
%TO.N,Net-(U1-Pad4)*%
X89916000Y-119380000D03*
%TO.P,U1,5*%
%TO.N,Net-(U1-Pad5)*%
X87376000Y-121920000D03*
%TO.P,U1,6*%
%TO.N,/G0*%
X89916000Y-121920000D03*
%TO.P,U1,7*%
%TO.N,Net-(U1-Pad7)*%
X87376000Y-124460000D03*
%TO.P,U1,8*%
%TO.N,Net-(U1-Pad8)*%
X89916000Y-124460000D03*
%TO.P,U1,9*%
%TO.N,Net-(U1-Pad9)*%
X87376000Y-127000000D03*
%TO.P,U1,10*%
%TO.N,Net-(U1-Pad10)*%
X89916000Y-127000000D03*
%TO.P,U1,11*%
%TO.N,Net-(U1-Pad11)*%
X87376000Y-129540000D03*
%TO.P,U1,12*%
%TO.N,/A0*%
X89916000Y-129540000D03*
%TO.P,U1,13*%
%TO.N,/R1*%
X87376000Y-132080000D03*
%TO.P,U1,14*%
%TO.N,/A2*%
X89916000Y-132080000D03*
%TO.P,U1,15*%
%TO.N,Net-(U1-Pad15)*%
X87376000Y-134620000D03*
%TO.P,U1,16*%
%TO.N,Net-(U1-Pad16)*%
X89916000Y-134620000D03*
%TO.P,U1,17*%
%TO.N,Net-(U1-Pad17)*%
X87376000Y-137160000D03*
%TO.P,U1,18*%
%TO.N,/B1*%
X89916000Y-137160000D03*
%TO.P,U1,19*%
%TO.N,Net-(U1-Pad19)*%
X87376000Y-139700000D03*
%TO.P,U1,20*%
%TO.N,Net-(U1-Pad20)*%
X89916000Y-139700000D03*
%TO.P,U1,21*%
%TO.N,Net-(U1-Pad21)*%
X112776000Y-116840000D03*
%TO.P,U1,22*%
%TO.N,GND*%
X115316000Y-116840000D03*
%TO.P,U1,23*%
%TO.N,Net-(U1-Pad23)*%
X112776000Y-119380000D03*
%TO.P,U1,24*%
%TO.N,/B0*%
X115316000Y-119380000D03*
%TO.P,U1,25*%
%TO.N,/A1*%
X112776000Y-121920000D03*
%TO.P,U1,26*%
%TO.N,/R0*%
X115316000Y-121920000D03*
%TO.P,U1,27*%
%TO.N,Net-(U1-Pad27)*%
X112776000Y-124460000D03*
%TO.P,U1,28*%
%TO.N,/A4*%
X115316000Y-124460000D03*
%TO.P,U1,29*%
%TO.N,/A3*%
X112776000Y-127000000D03*
%TO.P,U1,30*%
%TO.N,/G1*%
X115316000Y-127000000D03*
%TO.P,U1,31*%
%TO.N,/Clock*%
X112776000Y-129540000D03*
%TO.P,U1,32*%
%TO.N,/Latch*%
X115316000Y-129540000D03*
%TO.P,U1,33*%
%TO.N,GND*%
X112776000Y-132080000D03*
%TO.P,U1,34*%
%TO.N,Net-(U1-Pad34)*%
X115316000Y-132080000D03*
%TO.P,U1,35*%
%TO.N,+5V*%
X112776000Y-134620000D03*
%TO.P,U1,36*%
%TO.N,Net-(U1-Pad36)*%
X115316000Y-134620000D03*
%TO.P,U1,37*%
%TO.N,/Blank*%
X112776000Y-137160000D03*
%TO.P,U1,38*%
%TO.N,Net-(U1-Pad38)*%
X115316000Y-137160000D03*
%TO.P,U1,39*%
%TO.N,Net-(U1-Pad39)*%
X112776000Y-139700000D03*
%TO.P,U1,40*%
%TO.N,Net-(U1-Pad40)*%
X115316000Y-139700000D03*
%TD*%
D12*
%TO.P,J4,16*%
%TO.N,GND*%
X76454000Y-135636000D03*
%TO.P,J4,15*%
%TO.N,/Blank*%
X73914000Y-135636000D03*
%TO.P,J4,14*%
%TO.N,/Latch*%
X76454000Y-133096000D03*
%TO.P,J4,13*%
%TO.N,/Clock*%
X73914000Y-133096000D03*
%TO.P,J4,12*%
%TO.N,/A3*%
X76454000Y-130556000D03*
%TO.P,J4,11*%
%TO.N,/A2*%
X73914000Y-130556000D03*
%TO.P,J4,10*%
%TO.N,/A1*%
X76454000Y-128016000D03*
%TO.P,J4,9*%
%TO.N,/A0*%
X73914000Y-128016000D03*
%TO.P,J4,8*%
%TO.N,/A4*%
X76454000Y-125476000D03*
%TO.P,J4,7*%
%TO.N,/B1*%
X73914000Y-125476000D03*
%TO.P,J4,6*%
%TO.N,/G1*%
X76454000Y-122936000D03*
%TO.P,J4,5*%
%TO.N,/R1*%
X73914000Y-122936000D03*
%TO.P,J4,4*%
%TO.N,GND*%
X76454000Y-120396000D03*
%TO.P,J4,3*%
%TO.N,/B0*%
X73914000Y-120396000D03*
%TO.P,J4,2*%
%TO.N,/G0*%
X76454000Y-117856000D03*
D13*
%TO.P,J4,1*%
%TO.N,/R0*%
X73914000Y-117856000D03*
%TD*%
D14*
%TO.P,J3,2*%
%TO.N,GND*%
X76200000Y-168148000D03*
D15*
%TO.P,J3,1*%
X76200000Y-163068000D03*
%TD*%
D14*
%TO.P,J2,2*%
%TO.N,+5V*%
X125984000Y-163068000D03*
D15*
%TO.P,J2,1*%
X125984000Y-168148000D03*
%TD*%
D16*
%TO.N,/Blank*%
X81280000Y-135382000D03*
X82042000Y-139192000D03*
%TO.N,/Latch*%
X81534000Y-134112000D03*
X94742000Y-128778000D03*
%TO.N,/Clock*%
X108204000Y-133604000D03*
%TD*%
D17*
%TO.N,/Blank*%
X111397999Y-135781999D02*
X112776000Y-137160000D01*
X81280000Y-135382000D02*
X81280000Y-137160000D01*
X81280000Y-137160000D02*
X81280000Y-138430000D01*
X81280000Y-138430000D02*
X82042000Y-139192000D01*
%TO.N,/Latch*%
X85080999Y-130565001D02*
X81534000Y-134112000D01*
X92954999Y-130565001D02*
X94742000Y-128778000D01*
X90922999Y-130565001D02*
X92954999Y-130565001D01*
X90922999Y-130565001D02*
X85080999Y-130565001D01*
%TO.N,/Clock*%
X112268000Y-129540000D02*
X112776000Y-129540000D01*
X108204000Y-133604000D02*
X112268000Y-129540000D01*
%TD*%
D18*
%TO.N,GND*%
X86042500Y-115570000D02*
X86043720Y-115582388D01*
X86047334Y-115594300D01*
X86053202Y-115605279D01*
X86061099Y-115614901D01*
X86070721Y-115622798D01*
X86081700Y-115628666D01*
X86093612Y-115632280D01*
X86106000Y-115633500D01*
X86962410Y-115633500D01*
X86787527Y-115705939D01*
X86719683Y-115914275D01*
X87376000Y-116570592D01*
X88032317Y-115914275D01*
X87964473Y-115705939D01*
X87783362Y-115633500D01*
X89506159Y-115633500D01*
X89313719Y-115713212D01*
X89105466Y-115852362D01*
X88928362Y-116029466D01*
X88789212Y-116237719D01*
X88693363Y-116469117D01*
X88645974Y-116707357D01*
X88645875Y-116699246D01*
X88594015Y-116454210D01*
X88510061Y-116251527D01*
X88301725Y-116183683D01*
X87645408Y-116840000D01*
X88301725Y-117496317D01*
X88510061Y-117428473D01*
X88603075Y-117195921D01*
X88645295Y-116969229D01*
X88693363Y-117210883D01*
X88789212Y-117442281D01*
X88928362Y-117650534D01*
X89105466Y-117827638D01*
X89313719Y-117966788D01*
X89545117Y-118062637D01*
X89783227Y-118110000D01*
X89545117Y-118157363D01*
X89313719Y-118253212D01*
X89105466Y-118392362D01*
X88928362Y-118569466D01*
X88789212Y-118777719D01*
X88693363Y-119009117D01*
X88646000Y-119247227D01*
X88598637Y-119009117D01*
X88502788Y-118777719D01*
X88363638Y-118569466D01*
X88186534Y-118392362D01*
X87978281Y-118253212D01*
X87746883Y-118157363D01*
X87508643Y-118109974D01*
X87516754Y-118109875D01*
X87761790Y-118058015D01*
X87964473Y-117974061D01*
X88032317Y-117765725D01*
X87376000Y-117109408D01*
X86719683Y-117765725D01*
X86787527Y-117974061D01*
X87020079Y-118067075D01*
X87246771Y-118109295D01*
X87005117Y-118157363D01*
X86773719Y-118253212D01*
X86565466Y-118392362D01*
X86388362Y-118569466D01*
X86249212Y-118777719D01*
X86153363Y-119009117D01*
X86104500Y-119254768D01*
X86104500Y-119505232D01*
X86153363Y-119750883D01*
X86249212Y-119982281D01*
X86388362Y-120190534D01*
X86565466Y-120367638D01*
X86773719Y-120506788D01*
X87005117Y-120602637D01*
X87243227Y-120650000D01*
X87005117Y-120697363D01*
X86773719Y-120793212D01*
X86565466Y-120932362D01*
X86388362Y-121109466D01*
X86249212Y-121317719D01*
X86153363Y-121549117D01*
X86104500Y-121794768D01*
X86104500Y-122045232D01*
X86153363Y-122290883D01*
X86249212Y-122522281D01*
X86388362Y-122730534D01*
X86565466Y-122907638D01*
X86773719Y-123046788D01*
X87005117Y-123142637D01*
X87243227Y-123190000D01*
X87005117Y-123237363D01*
X86773719Y-123333212D01*
X86565466Y-123472362D01*
X86388362Y-123649466D01*
X86249212Y-123857719D01*
X86153363Y-124089117D01*
X86104500Y-124334768D01*
X86104500Y-124585232D01*
X86153363Y-124830883D01*
X86249212Y-125062281D01*
X86388362Y-125270534D01*
X86565466Y-125447638D01*
X86773719Y-125586788D01*
X87005117Y-125682637D01*
X87243227Y-125730000D01*
X87005117Y-125777363D01*
X86773719Y-125873212D01*
X86565466Y-126012362D01*
X86388362Y-126189466D01*
X86249212Y-126397719D01*
X86153363Y-126629117D01*
X86104500Y-126874768D01*
X86104500Y-127125232D01*
X86153363Y-127370883D01*
X86249212Y-127602281D01*
X86388362Y-127810534D01*
X86565466Y-127987638D01*
X86773719Y-128126788D01*
X87005117Y-128222637D01*
X87243227Y-128270000D01*
X87005117Y-128317363D01*
X86773719Y-128413212D01*
X86565466Y-128552362D01*
X86388362Y-128729466D01*
X86249212Y-128937719D01*
X86153363Y-129169117D01*
X86104500Y-129414768D01*
X86104500Y-129665232D01*
X86144933Y-129868501D01*
X85115214Y-129868501D01*
X85080998Y-129865131D01*
X84944460Y-129878579D01*
X84930984Y-129882667D01*
X84813170Y-129918405D01*
X84692172Y-129983080D01*
X84586116Y-130070118D01*
X84564304Y-130096696D01*
X81520501Y-133140500D01*
X81438316Y-133140500D01*
X81250624Y-133177834D01*
X81073822Y-133251068D01*
X80914705Y-133357386D01*
X80779386Y-133492705D01*
X80673068Y-133651822D01*
X80599834Y-133828624D01*
X80562500Y-134016316D01*
X80562500Y-134207684D01*
X80599834Y-134395376D01*
X80673068Y-134572178D01*
X80694755Y-134604635D01*
X80660705Y-134627386D01*
X80525386Y-134762705D01*
X80419068Y-134921822D01*
X80345834Y-135098624D01*
X80308500Y-135286316D01*
X80308500Y-135477684D01*
X80345834Y-135665376D01*
X80419068Y-135842178D01*
X80525386Y-136001295D01*
X80583500Y-136059409D01*
X80583501Y-137125775D01*
X80583500Y-137125785D01*
X80583501Y-138395775D01*
X80580130Y-138430000D01*
X80593578Y-138566538D01*
X80633404Y-138697828D01*
X80633405Y-138697829D01*
X80698080Y-138818827D01*
X80785118Y-138924883D01*
X80811696Y-138946695D01*
X81070500Y-139205499D01*
X81070500Y-139287684D01*
X81107834Y-139475376D01*
X81181068Y-139652178D01*
X81287386Y-139811295D01*
X81422705Y-139946614D01*
X81581822Y-140052932D01*
X81758624Y-140126166D01*
X81946316Y-140163500D01*
X82137684Y-140163500D01*
X82325376Y-140126166D01*
X82502178Y-140052932D01*
X82661295Y-139946614D01*
X82796614Y-139811295D01*
X82902932Y-139652178D01*
X82976166Y-139475376D01*
X83013500Y-139287684D01*
X83013500Y-139096316D01*
X82976166Y-138908624D01*
X82902932Y-138731822D01*
X82796614Y-138572705D01*
X82661295Y-138437386D01*
X82502178Y-138331068D01*
X82325376Y-138257834D01*
X82137684Y-138220500D01*
X82055499Y-138220500D01*
X81976500Y-138141501D01*
X81976500Y-136059409D01*
X82034614Y-136001295D01*
X82140932Y-135842178D01*
X82214166Y-135665376D01*
X82251500Y-135477684D01*
X82251500Y-135286316D01*
X82214166Y-135098624D01*
X82140932Y-134921822D01*
X82119245Y-134889365D01*
X82153295Y-134866614D01*
X82288614Y-134731295D01*
X82394932Y-134572178D01*
X82468166Y-134395376D01*
X82505500Y-134207684D01*
X82505500Y-134125499D01*
X85369499Y-131261501D01*
X86396327Y-131261501D01*
X86388362Y-131269466D01*
X86249212Y-131477719D01*
X86153363Y-131709117D01*
X86104500Y-131954768D01*
X86104500Y-132205232D01*
X86153363Y-132450883D01*
X86249212Y-132682281D01*
X86388362Y-132890534D01*
X86565466Y-133067638D01*
X86773719Y-133206788D01*
X87005117Y-133302637D01*
X87243227Y-133350000D01*
X87005117Y-133397363D01*
X86773719Y-133493212D01*
X86565466Y-133632362D01*
X86388362Y-133809466D01*
X86249212Y-134017719D01*
X86153363Y-134249117D01*
X86104500Y-134494768D01*
X86104500Y-134745232D01*
X86153363Y-134990883D01*
X86249212Y-135222281D01*
X86388362Y-135430534D01*
X86565466Y-135607638D01*
X86773719Y-135746788D01*
X87005117Y-135842637D01*
X87243227Y-135890000D01*
X87005117Y-135937363D01*
X86773719Y-136033212D01*
X86565466Y-136172362D01*
X86388362Y-136349466D01*
X86249212Y-136557719D01*
X86153363Y-136789117D01*
X86104500Y-137034768D01*
X86104500Y-137285232D01*
X86153363Y-137530883D01*
X86249212Y-137762281D01*
X86388362Y-137970534D01*
X86565466Y-138147638D01*
X86773719Y-138286788D01*
X87005117Y-138382637D01*
X87243227Y-138430000D01*
X87005117Y-138477363D01*
X86773719Y-138573212D01*
X86565466Y-138712362D01*
X86388362Y-138889466D01*
X86249212Y-139097719D01*
X86153363Y-139329117D01*
X86104500Y-139574768D01*
X86104500Y-139825232D01*
X86153363Y-140070883D01*
X86249212Y-140302281D01*
X86388362Y-140510534D01*
X86565466Y-140687638D01*
X86773719Y-140826788D01*
X87005117Y-140922637D01*
X87250768Y-140971500D01*
X87501232Y-140971500D01*
X87746883Y-140922637D01*
X87978281Y-140826788D01*
X88186534Y-140687638D01*
X88363638Y-140510534D01*
X88502788Y-140302281D01*
X88598637Y-140070883D01*
X88646000Y-139832773D01*
X88693363Y-140070883D01*
X88789212Y-140302281D01*
X88928362Y-140510534D01*
X89105466Y-140687638D01*
X89313719Y-140826788D01*
X89545117Y-140922637D01*
X89790768Y-140971500D01*
X90041232Y-140971500D01*
X90286883Y-140922637D01*
X90518281Y-140826788D01*
X90726534Y-140687638D01*
X90903638Y-140510534D01*
X91042788Y-140302281D01*
X91138637Y-140070883D01*
X91187500Y-139825232D01*
X91187500Y-139574768D01*
X91138637Y-139329117D01*
X91042788Y-139097719D01*
X90903638Y-138889466D01*
X90726534Y-138712362D01*
X90518281Y-138573212D01*
X90286883Y-138477363D01*
X90048773Y-138430000D01*
X90286883Y-138382637D01*
X90518281Y-138286788D01*
X90726534Y-138147638D01*
X90903638Y-137970534D01*
X91042788Y-137762281D01*
X91138637Y-137530883D01*
X91187500Y-137285232D01*
X91187500Y-137034768D01*
X91138637Y-136789117D01*
X91042788Y-136557719D01*
X90903638Y-136349466D01*
X90726534Y-136172362D01*
X90518281Y-136033212D01*
X90286883Y-135937363D01*
X90048773Y-135890000D01*
X90286883Y-135842637D01*
X90518281Y-135746788D01*
X90726534Y-135607638D01*
X90903638Y-135430534D01*
X91042788Y-135222281D01*
X91138637Y-134990883D01*
X91187500Y-134745232D01*
X91187500Y-134494768D01*
X91138637Y-134249117D01*
X91042788Y-134017719D01*
X90903638Y-133809466D01*
X90726534Y-133632362D01*
X90518281Y-133493212D01*
X90286883Y-133397363D01*
X90048773Y-133350000D01*
X90286883Y-133302637D01*
X90518281Y-133206788D01*
X90726534Y-133067638D01*
X90903638Y-132890534D01*
X91042788Y-132682281D01*
X91138637Y-132450883D01*
X91187500Y-132205232D01*
X91187500Y-131954768D01*
X91138637Y-131709117D01*
X91042788Y-131477719D01*
X90903638Y-131269466D01*
X90895673Y-131261501D01*
X92920783Y-131261501D01*
X92954999Y-131264871D01*
X93091537Y-131251423D01*
X93164359Y-131229333D01*
X93222828Y-131211597D01*
X93343826Y-131146922D01*
X93449882Y-131059884D01*
X93471699Y-131033300D01*
X94755500Y-129749500D01*
X94837684Y-129749500D01*
X95025376Y-129712166D01*
X95202178Y-129638932D01*
X95361295Y-129532614D01*
X95496614Y-129397295D01*
X95602932Y-129238178D01*
X95676166Y-129061376D01*
X95713500Y-128873684D01*
X95713500Y-128682316D01*
X95676166Y-128494624D01*
X95602932Y-128317822D01*
X95496614Y-128158705D01*
X95361295Y-128023386D01*
X95202178Y-127917068D01*
X95025376Y-127843834D01*
X94837684Y-127806500D01*
X94646316Y-127806500D01*
X94458624Y-127843834D01*
X94281822Y-127917068D01*
X94122705Y-128023386D01*
X93987386Y-128158705D01*
X93881068Y-128317822D01*
X93807834Y-128494624D01*
X93770500Y-128682316D01*
X93770500Y-128764500D01*
X92666500Y-129868501D01*
X91147067Y-129868501D01*
X91187500Y-129665232D01*
X91187500Y-129414768D01*
X91138637Y-129169117D01*
X91042788Y-128937719D01*
X90903638Y-128729466D01*
X90726534Y-128552362D01*
X90518281Y-128413212D01*
X90286883Y-128317363D01*
X90048773Y-128270000D01*
X90286883Y-128222637D01*
X90518281Y-128126788D01*
X90726534Y-127987638D01*
X90903638Y-127810534D01*
X91042788Y-127602281D01*
X91138637Y-127370883D01*
X91187500Y-127125232D01*
X91187500Y-126874768D01*
X91138637Y-126629117D01*
X91042788Y-126397719D01*
X90903638Y-126189466D01*
X90726534Y-126012362D01*
X90518281Y-125873212D01*
X90286883Y-125777363D01*
X90048773Y-125730000D01*
X90286883Y-125682637D01*
X90518281Y-125586788D01*
X90726534Y-125447638D01*
X90903638Y-125270534D01*
X91042788Y-125062281D01*
X91138637Y-124830883D01*
X91187500Y-124585232D01*
X91187500Y-124334768D01*
X91138637Y-124089117D01*
X91042788Y-123857719D01*
X90903638Y-123649466D01*
X90726534Y-123472362D01*
X90518281Y-123333212D01*
X90286883Y-123237363D01*
X90048773Y-123190000D01*
X90286883Y-123142637D01*
X90518281Y-123046788D01*
X90726534Y-122907638D01*
X90903638Y-122730534D01*
X91042788Y-122522281D01*
X91138637Y-122290883D01*
X91187500Y-122045232D01*
X91187500Y-121794768D01*
X91138637Y-121549117D01*
X91042788Y-121317719D01*
X90903638Y-121109466D01*
X90726534Y-120932362D01*
X90518281Y-120793212D01*
X90286883Y-120697363D01*
X90048773Y-120650000D01*
X90286883Y-120602637D01*
X90518281Y-120506788D01*
X90726534Y-120367638D01*
X90903638Y-120190534D01*
X91042788Y-119982281D01*
X91138637Y-119750883D01*
X91187500Y-119505232D01*
X91187500Y-119254768D01*
X91138637Y-119009117D01*
X91042788Y-118777719D01*
X90903638Y-118569466D01*
X90726534Y-118392362D01*
X90518281Y-118253212D01*
X90286883Y-118157363D01*
X90048773Y-118110000D01*
X90286883Y-118062637D01*
X90518281Y-117966788D01*
X90726534Y-117827638D01*
X90903638Y-117650534D01*
X91042788Y-117442281D01*
X91138637Y-117210883D01*
X91187500Y-116965232D01*
X91187500Y-116714768D01*
X91138637Y-116469117D01*
X91042788Y-116237719D01*
X90903638Y-116029466D01*
X90726534Y-115852362D01*
X90518281Y-115713212D01*
X90325841Y-115633500D01*
X112366159Y-115633500D01*
X112173719Y-115713212D01*
X111965466Y-115852362D01*
X111788362Y-116029466D01*
X111649212Y-116237719D01*
X111553363Y-116469117D01*
X111504500Y-116714768D01*
X111504500Y-116965232D01*
X111553363Y-117210883D01*
X111649212Y-117442281D01*
X111788362Y-117650534D01*
X111965466Y-117827638D01*
X112173719Y-117966788D01*
X112405117Y-118062637D01*
X112643227Y-118110000D01*
X112405117Y-118157363D01*
X112173719Y-118253212D01*
X111965466Y-118392362D01*
X111788362Y-118569466D01*
X111649212Y-118777719D01*
X111553363Y-119009117D01*
X111504500Y-119254768D01*
X111504500Y-119505232D01*
X111553363Y-119750883D01*
X111649212Y-119982281D01*
X111788362Y-120190534D01*
X111965466Y-120367638D01*
X112173719Y-120506788D01*
X112405117Y-120602637D01*
X112643227Y-120650000D01*
X112405117Y-120697363D01*
X112173719Y-120793212D01*
X111965466Y-120932362D01*
X111788362Y-121109466D01*
X111649212Y-121317719D01*
X111553363Y-121549117D01*
X111504500Y-121794768D01*
X111504500Y-122045232D01*
X111553363Y-122290883D01*
X111649212Y-122522281D01*
X111788362Y-122730534D01*
X111965466Y-122907638D01*
X112173719Y-123046788D01*
X112405117Y-123142637D01*
X112643227Y-123190000D01*
X112405117Y-123237363D01*
X112173719Y-123333212D01*
X111965466Y-123472362D01*
X111788362Y-123649466D01*
X111649212Y-123857719D01*
X111553363Y-124089117D01*
X111504500Y-124334768D01*
X111504500Y-124585232D01*
X111553363Y-124830883D01*
X111649212Y-125062281D01*
X111788362Y-125270534D01*
X111965466Y-125447638D01*
X112173719Y-125586788D01*
X112405117Y-125682637D01*
X112643227Y-125730000D01*
X112405117Y-125777363D01*
X112173719Y-125873212D01*
X111965466Y-126012362D01*
X111788362Y-126189466D01*
X111649212Y-126397719D01*
X111553363Y-126629117D01*
X111504500Y-126874768D01*
X111504500Y-127125232D01*
X111553363Y-127370883D01*
X111649212Y-127602281D01*
X111788362Y-127810534D01*
X111965466Y-127987638D01*
X112173719Y-128126788D01*
X112405117Y-128222637D01*
X112643227Y-128270000D01*
X112405117Y-128317363D01*
X112173719Y-128413212D01*
X111965466Y-128552362D01*
X111788362Y-128729466D01*
X111649212Y-128937719D01*
X111553363Y-129169117D01*
X111528404Y-129294596D01*
X108190501Y-132632500D01*
X108108316Y-132632500D01*
X107920624Y-132669834D01*
X107743822Y-132743068D01*
X107584705Y-132849386D01*
X107449386Y-132984705D01*
X107343068Y-133143822D01*
X107269834Y-133320624D01*
X107232500Y-133508316D01*
X107232500Y-133699684D01*
X107269834Y-133887376D01*
X107343068Y-134064178D01*
X107449386Y-134223295D01*
X107584705Y-134358614D01*
X107743822Y-134464932D01*
X107920624Y-134538166D01*
X108108316Y-134575500D01*
X108299684Y-134575500D01*
X108487376Y-134538166D01*
X108664178Y-134464932D01*
X108823295Y-134358614D01*
X108958614Y-134223295D01*
X109064932Y-134064178D01*
X109138166Y-133887376D01*
X109175500Y-133699684D01*
X109175500Y-133617499D01*
X110822690Y-131970309D01*
X111503066Y-131970309D01*
X111506125Y-132220754D01*
X111557985Y-132465790D01*
X111641939Y-132668473D01*
X111850275Y-132736317D01*
X112506592Y-132080000D01*
X111850275Y-131423683D01*
X111641939Y-131491527D01*
X111548925Y-131724079D01*
X111503066Y-131970309D01*
X110822690Y-131970309D01*
X112145241Y-130647759D01*
X112173719Y-130666788D01*
X112405117Y-130762637D01*
X112643357Y-130810026D01*
X112635246Y-130810125D01*
X112390210Y-130861985D01*
X112187527Y-130945939D01*
X112119683Y-131154275D01*
X112776000Y-131810592D01*
X113432317Y-131154275D01*
X113364473Y-130945939D01*
X113131921Y-130852925D01*
X112905229Y-130810705D01*
X113146883Y-130762637D01*
X113378281Y-130666788D01*
X113586534Y-130527638D01*
X113763638Y-130350534D01*
X113902788Y-130142281D01*
X113998637Y-129910883D01*
X114046000Y-129672773D01*
X114093363Y-129910883D01*
X114189212Y-130142281D01*
X114328362Y-130350534D01*
X114505466Y-130527638D01*
X114713719Y-130666788D01*
X114945117Y-130762637D01*
X115183227Y-130810000D01*
X114945117Y-130857363D01*
X114713719Y-130953212D01*
X114505466Y-131092362D01*
X114328362Y-131269466D01*
X114189212Y-131477719D01*
X114093363Y-131709117D01*
X114045974Y-131947357D01*
X114045875Y-131939246D01*
X113994015Y-131694210D01*
X113910061Y-131491527D01*
X113701725Y-131423683D01*
X113045408Y-132080000D01*
X113701725Y-132736317D01*
X113910061Y-132668473D01*
X114003075Y-132435921D01*
X114045295Y-132209229D01*
X114093363Y-132450883D01*
X114189212Y-132682281D01*
X114328362Y-132890534D01*
X114505466Y-133067638D01*
X114713719Y-133206788D01*
X114945117Y-133302637D01*
X115183227Y-133350000D01*
X114945117Y-133397363D01*
X114713719Y-133493212D01*
X114505466Y-133632362D01*
X114328362Y-133809466D01*
X114189212Y-134017719D01*
X114093363Y-134249117D01*
X114046000Y-134487227D01*
X113998637Y-134249117D01*
X113902788Y-134017719D01*
X113763638Y-133809466D01*
X113586534Y-133632362D01*
X113378281Y-133493212D01*
X113146883Y-133397363D01*
X112908643Y-133349974D01*
X112916754Y-133349875D01*
X113161790Y-133298015D01*
X113364473Y-133214061D01*
X113432317Y-133005725D01*
X112776000Y-132349408D01*
X112119683Y-133005725D01*
X112187527Y-133214061D01*
X112420079Y-133307075D01*
X112646771Y-133349295D01*
X112405117Y-133397363D01*
X112173719Y-133493212D01*
X111965466Y-133632362D01*
X111788362Y-133809466D01*
X111649212Y-134017719D01*
X111553363Y-134249117D01*
X111504500Y-134494768D01*
X111504500Y-134745232D01*
X111553363Y-134990883D01*
X111605666Y-135117154D01*
X111534537Y-135095577D01*
X111397999Y-135082129D01*
X111261461Y-135095577D01*
X111130171Y-135135403D01*
X111009173Y-135200079D01*
X110903117Y-135287117D01*
X110816079Y-135393173D01*
X110751403Y-135514171D01*
X110711577Y-135645461D01*
X110698129Y-135781999D01*
X110711577Y-135918537D01*
X110751403Y-136049827D01*
X110816079Y-136170825D01*
X110881305Y-136250304D01*
X111531256Y-136900256D01*
X111504500Y-137034768D01*
X111504500Y-137285232D01*
X111553363Y-137530883D01*
X111649212Y-137762281D01*
X111788362Y-137970534D01*
X111965466Y-138147638D01*
X112173719Y-138286788D01*
X112405117Y-138382637D01*
X112643227Y-138430000D01*
X112405117Y-138477363D01*
X112173719Y-138573212D01*
X111965466Y-138712362D01*
X111788362Y-138889466D01*
X111649212Y-139097719D01*
X111553363Y-139329117D01*
X111504500Y-139574768D01*
X111504500Y-139825232D01*
X111553363Y-140070883D01*
X111649212Y-140302281D01*
X111788362Y-140510534D01*
X111965466Y-140687638D01*
X112173719Y-140826788D01*
X112405117Y-140922637D01*
X112650768Y-140971500D01*
X112901232Y-140971500D01*
X113146883Y-140922637D01*
X113378281Y-140826788D01*
X113586534Y-140687638D01*
X113763638Y-140510534D01*
X113902788Y-140302281D01*
X113998637Y-140070883D01*
X114046000Y-139832773D01*
X114093363Y-140070883D01*
X114189212Y-140302281D01*
X114328362Y-140510534D01*
X114505466Y-140687638D01*
X114713719Y-140826788D01*
X114945117Y-140922637D01*
X115190768Y-140971500D01*
X115441232Y-140971500D01*
X115686883Y-140922637D01*
X115918281Y-140826788D01*
X116126534Y-140687638D01*
X116303638Y-140510534D01*
X116442788Y-140302281D01*
X116538637Y-140070883D01*
X116587500Y-139825232D01*
X116587500Y-139574768D01*
X116538637Y-139329117D01*
X116442788Y-139097719D01*
X116303638Y-138889466D01*
X116126534Y-138712362D01*
X115918281Y-138573212D01*
X115686883Y-138477363D01*
X115448773Y-138430000D01*
X115686883Y-138382637D01*
X115918281Y-138286788D01*
X116126534Y-138147638D01*
X116303638Y-137970534D01*
X116442788Y-137762281D01*
X116538637Y-137530883D01*
X116587500Y-137285232D01*
X116587500Y-137034768D01*
X116538637Y-136789117D01*
X116442788Y-136557719D01*
X116303638Y-136349466D01*
X116126534Y-136172362D01*
X115918281Y-136033212D01*
X115686883Y-135937363D01*
X115448773Y-135890000D01*
X115686883Y-135842637D01*
X115918281Y-135746788D01*
X116126534Y-135607638D01*
X116303638Y-135430534D01*
X116442788Y-135222281D01*
X116538637Y-134990883D01*
X116587500Y-134745232D01*
X116587500Y-134494768D01*
X116538637Y-134249117D01*
X116442788Y-134017719D01*
X116303638Y-133809466D01*
X116126534Y-133632362D01*
X115918281Y-133493212D01*
X115686883Y-133397363D01*
X115448773Y-133350000D01*
X115686883Y-133302637D01*
X115918281Y-133206788D01*
X116126534Y-133067638D01*
X116303638Y-132890534D01*
X116442788Y-132682281D01*
X116538637Y-132450883D01*
X116587500Y-132205232D01*
X116587500Y-131954768D01*
X116538637Y-131709117D01*
X116442788Y-131477719D01*
X116303638Y-131269466D01*
X116126534Y-131092362D01*
X115918281Y-130953212D01*
X115686883Y-130857363D01*
X115448773Y-130810000D01*
X115686883Y-130762637D01*
X115918281Y-130666788D01*
X116126534Y-130527638D01*
X116303638Y-130350534D01*
X116442788Y-130142281D01*
X116538637Y-129910883D01*
X116587500Y-129665232D01*
X116587500Y-129414768D01*
X116538637Y-129169117D01*
X116442788Y-128937719D01*
X116303638Y-128729466D01*
X116126534Y-128552362D01*
X115918281Y-128413212D01*
X115686883Y-128317363D01*
X115448773Y-128270000D01*
X115686883Y-128222637D01*
X115918281Y-128126788D01*
X116126534Y-127987638D01*
X116303638Y-127810534D01*
X116442788Y-127602281D01*
X116538637Y-127370883D01*
X116587500Y-127125232D01*
X116587500Y-126874768D01*
X116538637Y-126629117D01*
X116442788Y-126397719D01*
X116303638Y-126189466D01*
X116126534Y-126012362D01*
X115918281Y-125873212D01*
X115686883Y-125777363D01*
X115448773Y-125730000D01*
X115686883Y-125682637D01*
X115918281Y-125586788D01*
X116126534Y-125447638D01*
X116303638Y-125270534D01*
X116442788Y-125062281D01*
X116538637Y-124830883D01*
X116587500Y-124585232D01*
X116587500Y-124334768D01*
X116538637Y-124089117D01*
X116442788Y-123857719D01*
X116303638Y-123649466D01*
X116126534Y-123472362D01*
X115918281Y-123333212D01*
X115686883Y-123237363D01*
X115448773Y-123190000D01*
X115686883Y-123142637D01*
X115918281Y-123046788D01*
X116126534Y-122907638D01*
X116303638Y-122730534D01*
X116442788Y-122522281D01*
X116538637Y-122290883D01*
X116587500Y-122045232D01*
X116587500Y-121794768D01*
X116538637Y-121549117D01*
X116442788Y-121317719D01*
X116303638Y-121109466D01*
X116126534Y-120932362D01*
X115918281Y-120793212D01*
X115686883Y-120697363D01*
X115448773Y-120650000D01*
X115686883Y-120602637D01*
X115918281Y-120506788D01*
X116126534Y-120367638D01*
X116303638Y-120190534D01*
X116442788Y-119982281D01*
X116538637Y-119750883D01*
X116587500Y-119505232D01*
X116587500Y-119254768D01*
X116538637Y-119009117D01*
X116442788Y-118777719D01*
X116303638Y-118569466D01*
X116126534Y-118392362D01*
X115918281Y-118253212D01*
X115686883Y-118157363D01*
X115448643Y-118109974D01*
X115456754Y-118109875D01*
X115701790Y-118058015D01*
X115904473Y-117974061D01*
X115972317Y-117765725D01*
X115316000Y-117109408D01*
X114659683Y-117765725D01*
X114727527Y-117974061D01*
X114960079Y-118067075D01*
X115186771Y-118109295D01*
X114945117Y-118157363D01*
X114713719Y-118253212D01*
X114505466Y-118392362D01*
X114328362Y-118569466D01*
X114189212Y-118777719D01*
X114093363Y-119009117D01*
X114046000Y-119247227D01*
X113998637Y-119009117D01*
X113902788Y-118777719D01*
X113763638Y-118569466D01*
X113586534Y-118392362D01*
X113378281Y-118253212D01*
X113146883Y-118157363D01*
X112908773Y-118110000D01*
X113146883Y-118062637D01*
X113378281Y-117966788D01*
X113586534Y-117827638D01*
X113763638Y-117650534D01*
X113902788Y-117442281D01*
X113998637Y-117210883D01*
X114046026Y-116972643D01*
X114046125Y-116980754D01*
X114097985Y-117225790D01*
X114181939Y-117428473D01*
X114390275Y-117496317D01*
X115046592Y-116840000D01*
X115585408Y-116840000D01*
X116241725Y-117496317D01*
X116450061Y-117428473D01*
X116543075Y-117195921D01*
X116588934Y-116949691D01*
X116585875Y-116699246D01*
X116534015Y-116454210D01*
X116450061Y-116251527D01*
X116241725Y-116183683D01*
X115585408Y-116840000D01*
X115046592Y-116840000D01*
X114390275Y-116183683D01*
X114181939Y-116251527D01*
X114088925Y-116484079D01*
X114046705Y-116710771D01*
X113998637Y-116469117D01*
X113902788Y-116237719D01*
X113763638Y-116029466D01*
X113586534Y-115852362D01*
X113378281Y-115713212D01*
X113185841Y-115633500D01*
X114902410Y-115633500D01*
X114727527Y-115705939D01*
X114659683Y-115914275D01*
X115316000Y-116570592D01*
X115972317Y-115914275D01*
X115904473Y-115705939D01*
X115723362Y-115633500D01*
X116586000Y-115633500D01*
X116598388Y-115632280D01*
X116610300Y-115628666D01*
X116621279Y-115622798D01*
X116630901Y-115614901D01*
X116638798Y-115605279D01*
X116644666Y-115594300D01*
X116648280Y-115582388D01*
X116649500Y-115570000D01*
X116649500Y-109816500D01*
X119604828Y-109816500D01*
X119912268Y-109846645D01*
X120179936Y-109927458D01*
X120426810Y-110058723D01*
X120643486Y-110235440D01*
X120821712Y-110450879D01*
X120954697Y-110696829D01*
X121037379Y-110963928D01*
X121069501Y-111269556D01*
X121069500Y-154461301D01*
X121072093Y-154487629D01*
X121072005Y-154500248D01*
X121072818Y-154508536D01*
X121114271Y-154902940D01*
X121125138Y-154955882D01*
X121135272Y-155009007D01*
X121137679Y-155016980D01*
X121254951Y-155395822D01*
X121275906Y-155445674D01*
X121296154Y-155495789D01*
X121300064Y-155503143D01*
X121488686Y-155851991D01*
X121518917Y-155896810D01*
X121548520Y-155942049D01*
X121553784Y-155948503D01*
X121806571Y-156254071D01*
X121844955Y-156292188D01*
X121882761Y-156330794D01*
X121889178Y-156336103D01*
X122196503Y-156586751D01*
X122241555Y-156616683D01*
X122286142Y-156647213D01*
X122293465Y-156651173D01*
X122293473Y-156651177D01*
X122643625Y-156837356D01*
X122693604Y-156857956D01*
X122743302Y-156879257D01*
X122751254Y-156881718D01*
X122751260Y-156881720D01*
X123130909Y-156996342D01*
X123183960Y-157006847D01*
X123236825Y-157018084D01*
X123245097Y-157018953D01*
X123245108Y-157018955D01*
X123245118Y-157018955D01*
X123639792Y-157057653D01*
X123668698Y-157060500D01*
X130780828Y-157060500D01*
X131088268Y-157090645D01*
X131355936Y-157171458D01*
X131602810Y-157302723D01*
X131819486Y-157479440D01*
X131997712Y-157694879D01*
X132130697Y-157940829D01*
X132213379Y-158207928D01*
X132245501Y-158513556D01*
X132245500Y-170912828D01*
X132215355Y-171220268D01*
X132134542Y-171487936D01*
X132003276Y-171734810D01*
X131826558Y-171951488D01*
X131611120Y-172129713D01*
X131365170Y-172262697D01*
X131098068Y-172345379D01*
X130792454Y-172377500D01*
X72927172Y-172377500D01*
X72619732Y-172347355D01*
X72352064Y-172266542D01*
X72105190Y-172135276D01*
X71888512Y-171958558D01*
X71710287Y-171743120D01*
X71577303Y-171497170D01*
X71522862Y-171321298D01*
X93938110Y-171321298D01*
X94042723Y-171560165D01*
X94326723Y-171683334D01*
X94629295Y-171748731D01*
X94938811Y-171753842D01*
X95243377Y-171698471D01*
X95531289Y-171584746D01*
X95577277Y-171560165D01*
X95681890Y-171321298D01*
X94810000Y-170449408D01*
X93938110Y-171321298D01*
X71522862Y-171321298D01*
X71494621Y-171230068D01*
X71462500Y-170924454D01*
X71462500Y-170308811D01*
X93236158Y-170308811D01*
X93291529Y-170613377D01*
X93405254Y-170901289D01*
X93429835Y-170947277D01*
X93668702Y-171051890D01*
X94540592Y-170180000D01*
X95079408Y-170180000D01*
X95951298Y-171051890D01*
X96190165Y-170947277D01*
X96313334Y-170663277D01*
X96378731Y-170360705D01*
X96383842Y-170051189D01*
X96379121Y-170025221D01*
X101738500Y-170025221D01*
X101738500Y-170334779D01*
X101798892Y-170638390D01*
X101917355Y-170924384D01*
X102089336Y-171181773D01*
X102308227Y-171400664D01*
X102565616Y-171572645D01*
X102851610Y-171691108D01*
X103155221Y-171751500D01*
X103464779Y-171751500D01*
X103768390Y-171691108D01*
X104054384Y-171572645D01*
X104311773Y-171400664D01*
X104530664Y-171181773D01*
X104702645Y-170924384D01*
X104821108Y-170638390D01*
X104881500Y-170334779D01*
X104881500Y-170025221D01*
X104821108Y-169721610D01*
X104702645Y-169435616D01*
X104530664Y-169178227D01*
X104311773Y-168959336D01*
X104054384Y-168787355D01*
X103768390Y-168668892D01*
X103464779Y-168608500D01*
X103155221Y-168608500D01*
X102851610Y-168668892D01*
X102565616Y-168787355D01*
X102308227Y-168959336D01*
X102089336Y-169178227D01*
X101917355Y-169435616D01*
X101798892Y-169721610D01*
X101738500Y-170025221D01*
X96379121Y-170025221D01*
X96328471Y-169746623D01*
X96214746Y-169458711D01*
X96190165Y-169412723D01*
X95951298Y-169308110D01*
X95079408Y-170180000D01*
X94540592Y-170180000D01*
X93668702Y-169308110D01*
X93429835Y-169412723D01*
X93306666Y-169696723D01*
X93241269Y-169999295D01*
X93236158Y-170308811D01*
X71462500Y-170308811D01*
X71462500Y-169646901D01*
X74970507Y-169646901D01*
X75135764Y-169936893D01*
X75505208Y-170110142D01*
X75901353Y-170207987D01*
X76308976Y-170226668D01*
X76712410Y-170165467D01*
X77096152Y-170026735D01*
X77264236Y-169936893D01*
X77429493Y-169646901D01*
X76200000Y-168417408D01*
X74970507Y-169646901D01*
X71462500Y-169646901D01*
X71462500Y-168256976D01*
X74121332Y-168256976D01*
X74182533Y-168660410D01*
X74321265Y-169044152D01*
X74411107Y-169212236D01*
X74701099Y-169377493D01*
X75930592Y-168148000D01*
X76469408Y-168148000D01*
X77698901Y-169377493D01*
X77988893Y-169212236D01*
X78070270Y-169038702D01*
X93938110Y-169038702D01*
X94810000Y-169910592D01*
X95681890Y-169038702D01*
X95577277Y-168799835D01*
X95293277Y-168676666D01*
X94990705Y-168611269D01*
X94681189Y-168606158D01*
X94376623Y-168661529D01*
X94088711Y-168775254D01*
X94042723Y-168799835D01*
X93938110Y-169038702D01*
X78070270Y-169038702D01*
X78162142Y-168842792D01*
X78259987Y-168446647D01*
X78278668Y-168039024D01*
X78217467Y-167635590D01*
X78078735Y-167251848D01*
X77988893Y-167083764D01*
X77698901Y-166918507D01*
X76469408Y-168148000D01*
X75930592Y-168148000D01*
X74701099Y-166918507D01*
X74411107Y-167083764D01*
X74237858Y-167453208D01*
X74140013Y-167849353D01*
X74121332Y-168256976D01*
X71462500Y-168256976D01*
X71462500Y-166649099D01*
X74970507Y-166649099D01*
X76200000Y-167878592D01*
X77429493Y-166649099D01*
X77428867Y-166648000D01*
X123909735Y-166648000D01*
X123909735Y-169648000D01*
X123920769Y-169760034D01*
X123953448Y-169867762D01*
X124006516Y-169967045D01*
X124077933Y-170054067D01*
X124164955Y-170125484D01*
X124264238Y-170178552D01*
X124371966Y-170211231D01*
X124484000Y-170222265D01*
X127484000Y-170222265D01*
X127596034Y-170211231D01*
X127703762Y-170178552D01*
X127803045Y-170125484D01*
X127890067Y-170054067D01*
X127961484Y-169967045D01*
X128014552Y-169867762D01*
X128047231Y-169760034D01*
X128058265Y-169648000D01*
X128058265Y-166648000D01*
X128047231Y-166535966D01*
X128014552Y-166428238D01*
X127961484Y-166328955D01*
X127890067Y-166241933D01*
X127803045Y-166170516D01*
X127703762Y-166117448D01*
X127596034Y-166084769D01*
X127484000Y-166073735D01*
X124484000Y-166073735D01*
X124371966Y-166084769D01*
X124264238Y-166117448D01*
X124164955Y-166170516D01*
X124077933Y-166241933D01*
X124006516Y-166328955D01*
X123953448Y-166428238D01*
X123920769Y-166535966D01*
X123909735Y-166648000D01*
X77428867Y-166648000D01*
X77264236Y-166359107D01*
X76894792Y-166185858D01*
X76498647Y-166088013D01*
X76091024Y-166069332D01*
X75687590Y-166130533D01*
X75303848Y-166269265D01*
X75135764Y-166359107D01*
X74970507Y-166649099D01*
X71462500Y-166649099D01*
X71462500Y-164568000D01*
X74125735Y-164568000D01*
X74136769Y-164680034D01*
X74169448Y-164787762D01*
X74222516Y-164887045D01*
X74293933Y-164974067D01*
X74380955Y-165045484D01*
X74480238Y-165098552D01*
X74587966Y-165131231D01*
X74700000Y-165142265D01*
X75866625Y-165139500D01*
X76009500Y-164996625D01*
X76009500Y-163258500D01*
X76390500Y-163258500D01*
X76390500Y-164996625D01*
X76533375Y-165139500D01*
X77700000Y-165142265D01*
X77812034Y-165131231D01*
X77919762Y-165098552D01*
X78019045Y-165045484D01*
X78106067Y-164974067D01*
X78177484Y-164887045D01*
X78230552Y-164787762D01*
X78263231Y-164680034D01*
X78274265Y-164568000D01*
X78271500Y-163401375D01*
X78128625Y-163258500D01*
X76390500Y-163258500D01*
X76009500Y-163258500D01*
X74271375Y-163258500D01*
X74128500Y-163401375D01*
X74125735Y-164568000D01*
X71462500Y-164568000D01*
X71462500Y-161568000D01*
X74125735Y-161568000D01*
X74128500Y-162734625D01*
X74271375Y-162877500D01*
X76009500Y-162877500D01*
X76009500Y-161139375D01*
X76390500Y-161139375D01*
X76390500Y-162877500D01*
X78128625Y-162877500D01*
X78142150Y-162863975D01*
X123912500Y-162863975D01*
X123912500Y-163272025D01*
X123992107Y-163672234D01*
X124148261Y-164049223D01*
X124374961Y-164388504D01*
X124663496Y-164677039D01*
X125002777Y-164903739D01*
X125379766Y-165059893D01*
X125779975Y-165139500D01*
X126188025Y-165139500D01*
X126588234Y-165059893D01*
X126965223Y-164903739D01*
X127304504Y-164677039D01*
X127593039Y-164388504D01*
X127819739Y-164049223D01*
X127975893Y-163672234D01*
X128055500Y-163272025D01*
X128055500Y-162863975D01*
X127975893Y-162463766D01*
X127819739Y-162086777D01*
X127593039Y-161747496D01*
X127304504Y-161458961D01*
X126965223Y-161232261D01*
X126588234Y-161076107D01*
X126188025Y-160996500D01*
X125779975Y-160996500D01*
X125379766Y-161076107D01*
X125002777Y-161232261D01*
X124663496Y-161458961D01*
X124374961Y-161747496D01*
X124148261Y-162086777D01*
X123992107Y-162463766D01*
X123912500Y-162863975D01*
X78142150Y-162863975D01*
X78271500Y-162734625D01*
X78274265Y-161568000D01*
X78263231Y-161455966D01*
X78230552Y-161348238D01*
X78177484Y-161248955D01*
X78106067Y-161161933D01*
X78019045Y-161090516D01*
X77919762Y-161037448D01*
X77812034Y-161004769D01*
X77700000Y-160993735D01*
X76533375Y-160996500D01*
X76390500Y-161139375D01*
X76009500Y-161139375D01*
X75866625Y-160996500D01*
X74700000Y-160993735D01*
X74587966Y-161004769D01*
X74480238Y-161037448D01*
X74380955Y-161090516D01*
X74293933Y-161161933D01*
X74222516Y-161248955D01*
X74169448Y-161348238D01*
X74136769Y-161455966D01*
X74125735Y-161568000D01*
X71462500Y-161568000D01*
X71462500Y-117006000D01*
X72489735Y-117006000D01*
X72489735Y-118706000D01*
X72500769Y-118818034D01*
X72533448Y-118925762D01*
X72586516Y-119025045D01*
X72657933Y-119112067D01*
X72744955Y-119183484D01*
X72844238Y-119236552D01*
X72951966Y-119269231D01*
X73030170Y-119276933D01*
X73007847Y-119291849D01*
X72809849Y-119489847D01*
X72654283Y-119722667D01*
X72547127Y-119981364D01*
X72492500Y-120255994D01*
X72492500Y-120536006D01*
X72547127Y-120810636D01*
X72654283Y-121069333D01*
X72809849Y-121302153D01*
X73007847Y-121500151D01*
X73240667Y-121655717D01*
X73265492Y-121666000D01*
X73240667Y-121676283D01*
X73007847Y-121831849D01*
X72809849Y-122029847D01*
X72654283Y-122262667D01*
X72547127Y-122521364D01*
X72492500Y-122795994D01*
X72492500Y-123076006D01*
X72547127Y-123350636D01*
X72654283Y-123609333D01*
X72809849Y-123842153D01*
X73007847Y-124040151D01*
X73240667Y-124195717D01*
X73265492Y-124206000D01*
X73240667Y-124216283D01*
X73007847Y-124371849D01*
X72809849Y-124569847D01*
X72654283Y-124802667D01*
X72547127Y-125061364D01*
X72492500Y-125335994D01*
X72492500Y-125616006D01*
X72547127Y-125890636D01*
X72654283Y-126149333D01*
X72809849Y-126382153D01*
X73007847Y-126580151D01*
X73240667Y-126735717D01*
X73265492Y-126746000D01*
X73240667Y-126756283D01*
X73007847Y-126911849D01*
X72809849Y-127109847D01*
X72654283Y-127342667D01*
X72547127Y-127601364D01*
X72492500Y-127875994D01*
X72492500Y-128156006D01*
X72547127Y-128430636D01*
X72654283Y-128689333D01*
X72809849Y-128922153D01*
X73007847Y-129120151D01*
X73240667Y-129275717D01*
X73265492Y-129286000D01*
X73240667Y-129296283D01*
X73007847Y-129451849D01*
X72809849Y-129649847D01*
X72654283Y-129882667D01*
X72547127Y-130141364D01*
X72492500Y-130415994D01*
X72492500Y-130696006D01*
X72547127Y-130970636D01*
X72654283Y-131229333D01*
X72809849Y-131462153D01*
X73007847Y-131660151D01*
X73240667Y-131815717D01*
X73265492Y-131826000D01*
X73240667Y-131836283D01*
X73007847Y-131991849D01*
X72809849Y-132189847D01*
X72654283Y-132422667D01*
X72547127Y-132681364D01*
X72492500Y-132955994D01*
X72492500Y-133236006D01*
X72547127Y-133510636D01*
X72654283Y-133769333D01*
X72809849Y-134002153D01*
X73007847Y-134200151D01*
X73240667Y-134355717D01*
X73265492Y-134366000D01*
X73240667Y-134376283D01*
X73007847Y-134531849D01*
X72809849Y-134729847D01*
X72654283Y-134962667D01*
X72547127Y-135221364D01*
X72492500Y-135495994D01*
X72492500Y-135776006D01*
X72547127Y-136050636D01*
X72654283Y-136309333D01*
X72809849Y-136542153D01*
X73007847Y-136740151D01*
X73240667Y-136895717D01*
X73499364Y-137002873D01*
X73773994Y-137057500D01*
X74054006Y-137057500D01*
X74328636Y-137002873D01*
X74587333Y-136895717D01*
X74820153Y-136740151D01*
X75018151Y-136542153D01*
X75173717Y-136309333D01*
X75187870Y-136275164D01*
X75202376Y-136309887D01*
X75357894Y-136541118D01*
X75555535Y-136737566D01*
X75787704Y-136891681D01*
X76045478Y-136997541D01*
X76263500Y-136901810D01*
X76263500Y-135826500D01*
X76644500Y-135826500D01*
X76644500Y-136901810D01*
X76862522Y-136997541D01*
X77120296Y-136891681D01*
X77352465Y-136737566D01*
X77550106Y-136541118D01*
X77705624Y-136309887D01*
X77813043Y-136052759D01*
X77815533Y-136044520D01*
X77718354Y-135826500D01*
X76644500Y-135826500D01*
X76263500Y-135826500D01*
X76243500Y-135826500D01*
X76243500Y-135445500D01*
X76263500Y-135445500D01*
X76263500Y-135425500D01*
X76644500Y-135425500D01*
X76644500Y-135445500D01*
X77718354Y-135445500D01*
X77815533Y-135227480D01*
X77813043Y-135219241D01*
X77705624Y-134962113D01*
X77550106Y-134730882D01*
X77352465Y-134534434D01*
X77120296Y-134380319D01*
X77094005Y-134369522D01*
X77127333Y-134355717D01*
X77360153Y-134200151D01*
X77558151Y-134002153D01*
X77713717Y-133769333D01*
X77820873Y-133510636D01*
X77875500Y-133236006D01*
X77875500Y-132955994D01*
X77820873Y-132681364D01*
X77713717Y-132422667D01*
X77558151Y-132189847D01*
X77360153Y-131991849D01*
X77127333Y-131836283D01*
X77102508Y-131826000D01*
X77127333Y-131815717D01*
X77360153Y-131660151D01*
X77558151Y-131462153D01*
X77713717Y-131229333D01*
X77820873Y-130970636D01*
X77875500Y-130696006D01*
X77875500Y-130415994D01*
X77820873Y-130141364D01*
X77713717Y-129882667D01*
X77558151Y-129649847D01*
X77360153Y-129451849D01*
X77127333Y-129296283D01*
X77102508Y-129286000D01*
X77127333Y-129275717D01*
X77360153Y-129120151D01*
X77558151Y-128922153D01*
X77713717Y-128689333D01*
X77820873Y-128430636D01*
X77875500Y-128156006D01*
X77875500Y-127875994D01*
X77820873Y-127601364D01*
X77713717Y-127342667D01*
X77558151Y-127109847D01*
X77360153Y-126911849D01*
X77127333Y-126756283D01*
X77102508Y-126746000D01*
X77127333Y-126735717D01*
X77360153Y-126580151D01*
X77558151Y-126382153D01*
X77713717Y-126149333D01*
X77820873Y-125890636D01*
X77875500Y-125616006D01*
X77875500Y-125335994D01*
X77820873Y-125061364D01*
X77713717Y-124802667D01*
X77558151Y-124569847D01*
X77360153Y-124371849D01*
X77127333Y-124216283D01*
X77102508Y-124206000D01*
X77127333Y-124195717D01*
X77360153Y-124040151D01*
X77558151Y-123842153D01*
X77713717Y-123609333D01*
X77820873Y-123350636D01*
X77875500Y-123076006D01*
X77875500Y-122795994D01*
X77820873Y-122521364D01*
X77713717Y-122262667D01*
X77558151Y-122029847D01*
X77360153Y-121831849D01*
X77127333Y-121676283D01*
X77094005Y-121662478D01*
X77120296Y-121651681D01*
X77352465Y-121497566D01*
X77550106Y-121301118D01*
X77705624Y-121069887D01*
X77813043Y-120812759D01*
X77815533Y-120804520D01*
X77718354Y-120586500D01*
X76644500Y-120586500D01*
X76644500Y-120606500D01*
X76263500Y-120606500D01*
X76263500Y-120586500D01*
X76243500Y-120586500D01*
X76243500Y-120205500D01*
X76263500Y-120205500D01*
X76263500Y-120185500D01*
X76644500Y-120185500D01*
X76644500Y-120205500D01*
X77718354Y-120205500D01*
X77815533Y-119987480D01*
X77813043Y-119979241D01*
X77705624Y-119722113D01*
X77550106Y-119490882D01*
X77352465Y-119294434D01*
X77120296Y-119140319D01*
X77094005Y-119129522D01*
X77127333Y-119115717D01*
X77360153Y-118960151D01*
X77558151Y-118762153D01*
X77713717Y-118529333D01*
X77820873Y-118270636D01*
X77875500Y-117996006D01*
X77875500Y-117715994D01*
X77820873Y-117441364D01*
X77713717Y-117182667D01*
X77558151Y-116949847D01*
X77360153Y-116751849D01*
X77327917Y-116730309D01*
X86103066Y-116730309D01*
X86106125Y-116980754D01*
X86157985Y-117225790D01*
X86241939Y-117428473D01*
X86450275Y-117496317D01*
X87106592Y-116840000D01*
X86450275Y-116183683D01*
X86241939Y-116251527D01*
X86148925Y-116484079D01*
X86103066Y-116730309D01*
X77327917Y-116730309D01*
X77127333Y-116596283D01*
X76868636Y-116489127D01*
X76594006Y-116434500D01*
X76313994Y-116434500D01*
X76039364Y-116489127D01*
X75780667Y-116596283D01*
X75547847Y-116751849D01*
X75349849Y-116949847D01*
X75334933Y-116972170D01*
X75327231Y-116893966D01*
X75294552Y-116786238D01*
X75241484Y-116686955D01*
X75170067Y-116599933D01*
X75083045Y-116528516D01*
X74983762Y-116475448D01*
X74876034Y-116442769D01*
X74764000Y-116431735D01*
X73064000Y-116431735D01*
X72951966Y-116442769D01*
X72844238Y-116475448D01*
X72744955Y-116528516D01*
X72657933Y-116599933D01*
X72586516Y-116686955D01*
X72533448Y-116786238D01*
X72500769Y-116893966D01*
X72489735Y-117006000D01*
X71462500Y-117006000D01*
X71462500Y-111281172D01*
X71492645Y-110973732D01*
X71573458Y-110706064D01*
X71704723Y-110459190D01*
X71881440Y-110242514D01*
X72096879Y-110064288D01*
X72342829Y-109931303D01*
X72609928Y-109848621D01*
X72915546Y-109816500D01*
X86042500Y-109816500D01*
X86042500Y-115570000D01*
%TA.AperFunction,Conductor*%
D19*
G36*
X86042500Y-115570000D02*
G01*
X86043720Y-115582388D01*
X86047334Y-115594300D01*
X86053202Y-115605279D01*
X86061099Y-115614901D01*
X86070721Y-115622798D01*
X86081700Y-115628666D01*
X86093612Y-115632280D01*
X86106000Y-115633500D01*
X86962410Y-115633500D01*
X86787527Y-115705939D01*
X86719683Y-115914275D01*
X87376000Y-116570592D01*
X88032317Y-115914275D01*
X87964473Y-115705939D01*
X87783362Y-115633500D01*
X89506159Y-115633500D01*
X89313719Y-115713212D01*
X89105466Y-115852362D01*
X88928362Y-116029466D01*
X88789212Y-116237719D01*
X88693363Y-116469117D01*
X88645974Y-116707357D01*
X88645875Y-116699246D01*
X88594015Y-116454210D01*
X88510061Y-116251527D01*
X88301725Y-116183683D01*
X87645408Y-116840000D01*
X88301725Y-117496317D01*
X88510061Y-117428473D01*
X88603075Y-117195921D01*
X88645295Y-116969229D01*
X88693363Y-117210883D01*
X88789212Y-117442281D01*
X88928362Y-117650534D01*
X89105466Y-117827638D01*
X89313719Y-117966788D01*
X89545117Y-118062637D01*
X89783227Y-118110000D01*
X89545117Y-118157363D01*
X89313719Y-118253212D01*
X89105466Y-118392362D01*
X88928362Y-118569466D01*
X88789212Y-118777719D01*
X88693363Y-119009117D01*
X88646000Y-119247227D01*
X88598637Y-119009117D01*
X88502788Y-118777719D01*
X88363638Y-118569466D01*
X88186534Y-118392362D01*
X87978281Y-118253212D01*
X87746883Y-118157363D01*
X87508643Y-118109974D01*
X87516754Y-118109875D01*
X87761790Y-118058015D01*
X87964473Y-117974061D01*
X88032317Y-117765725D01*
X87376000Y-117109408D01*
X86719683Y-117765725D01*
X86787527Y-117974061D01*
X87020079Y-118067075D01*
X87246771Y-118109295D01*
X87005117Y-118157363D01*
X86773719Y-118253212D01*
X86565466Y-118392362D01*
X86388362Y-118569466D01*
X86249212Y-118777719D01*
X86153363Y-119009117D01*
X86104500Y-119254768D01*
X86104500Y-119505232D01*
X86153363Y-119750883D01*
X86249212Y-119982281D01*
X86388362Y-120190534D01*
X86565466Y-120367638D01*
X86773719Y-120506788D01*
X87005117Y-120602637D01*
X87243227Y-120650000D01*
X87005117Y-120697363D01*
X86773719Y-120793212D01*
X86565466Y-120932362D01*
X86388362Y-121109466D01*
X86249212Y-121317719D01*
X86153363Y-121549117D01*
X86104500Y-121794768D01*
X86104500Y-122045232D01*
X86153363Y-122290883D01*
X86249212Y-122522281D01*
X86388362Y-122730534D01*
X86565466Y-122907638D01*
X86773719Y-123046788D01*
X87005117Y-123142637D01*
X87243227Y-123190000D01*
X87005117Y-123237363D01*
X86773719Y-123333212D01*
X86565466Y-123472362D01*
X86388362Y-123649466D01*
X86249212Y-123857719D01*
X86153363Y-124089117D01*
X86104500Y-124334768D01*
X86104500Y-124585232D01*
X86153363Y-124830883D01*
X86249212Y-125062281D01*
X86388362Y-125270534D01*
X86565466Y-125447638D01*
X86773719Y-125586788D01*
X87005117Y-125682637D01*
X87243227Y-125730000D01*
X87005117Y-125777363D01*
X86773719Y-125873212D01*
X86565466Y-126012362D01*
X86388362Y-126189466D01*
X86249212Y-126397719D01*
X86153363Y-126629117D01*
X86104500Y-126874768D01*
X86104500Y-127125232D01*
X86153363Y-127370883D01*
X86249212Y-127602281D01*
X86388362Y-127810534D01*
X86565466Y-127987638D01*
X86773719Y-128126788D01*
X87005117Y-128222637D01*
X87243227Y-128270000D01*
X87005117Y-128317363D01*
X86773719Y-128413212D01*
X86565466Y-128552362D01*
X86388362Y-128729466D01*
X86249212Y-128937719D01*
X86153363Y-129169117D01*
X86104500Y-129414768D01*
X86104500Y-129665232D01*
X86144933Y-129868501D01*
X85115214Y-129868501D01*
X85080998Y-129865131D01*
X84944460Y-129878579D01*
X84930984Y-129882667D01*
X84813170Y-129918405D01*
X84692172Y-129983080D01*
X84586116Y-130070118D01*
X84564304Y-130096696D01*
X81520501Y-133140500D01*
X81438316Y-133140500D01*
X81250624Y-133177834D01*
X81073822Y-133251068D01*
X80914705Y-133357386D01*
X80779386Y-133492705D01*
X80673068Y-133651822D01*
X80599834Y-133828624D01*
X80562500Y-134016316D01*
X80562500Y-134207684D01*
X80599834Y-134395376D01*
X80673068Y-134572178D01*
X80694755Y-134604635D01*
X80660705Y-134627386D01*
X80525386Y-134762705D01*
X80419068Y-134921822D01*
X80345834Y-135098624D01*
X80308500Y-135286316D01*
X80308500Y-135477684D01*
X80345834Y-135665376D01*
X80419068Y-135842178D01*
X80525386Y-136001295D01*
X80583500Y-136059409D01*
X80583501Y-137125775D01*
X80583500Y-137125785D01*
X80583501Y-138395775D01*
X80580130Y-138430000D01*
X80593578Y-138566538D01*
X80633404Y-138697828D01*
X80633405Y-138697829D01*
X80698080Y-138818827D01*
X80785118Y-138924883D01*
X80811696Y-138946695D01*
X81070500Y-139205499D01*
X81070500Y-139287684D01*
X81107834Y-139475376D01*
X81181068Y-139652178D01*
X81287386Y-139811295D01*
X81422705Y-139946614D01*
X81581822Y-140052932D01*
X81758624Y-140126166D01*
X81946316Y-140163500D01*
X82137684Y-140163500D01*
X82325376Y-140126166D01*
X82502178Y-140052932D01*
X82661295Y-139946614D01*
X82796614Y-139811295D01*
X82902932Y-139652178D01*
X82976166Y-139475376D01*
X83013500Y-139287684D01*
X83013500Y-139096316D01*
X82976166Y-138908624D01*
X82902932Y-138731822D01*
X82796614Y-138572705D01*
X82661295Y-138437386D01*
X82502178Y-138331068D01*
X82325376Y-138257834D01*
X82137684Y-138220500D01*
X82055499Y-138220500D01*
X81976500Y-138141501D01*
X81976500Y-136059409D01*
X82034614Y-136001295D01*
X82140932Y-135842178D01*
X82214166Y-135665376D01*
X82251500Y-135477684D01*
X82251500Y-135286316D01*
X82214166Y-135098624D01*
X82140932Y-134921822D01*
X82119245Y-134889365D01*
X82153295Y-134866614D01*
X82288614Y-134731295D01*
X82394932Y-134572178D01*
X82468166Y-134395376D01*
X82505500Y-134207684D01*
X82505500Y-134125499D01*
X85369499Y-131261501D01*
X86396327Y-131261501D01*
X86388362Y-131269466D01*
X86249212Y-131477719D01*
X86153363Y-131709117D01*
X86104500Y-131954768D01*
X86104500Y-132205232D01*
X86153363Y-132450883D01*
X86249212Y-132682281D01*
X86388362Y-132890534D01*
X86565466Y-133067638D01*
X86773719Y-133206788D01*
X87005117Y-133302637D01*
X87243227Y-133350000D01*
X87005117Y-133397363D01*
X86773719Y-133493212D01*
X86565466Y-133632362D01*
X86388362Y-133809466D01*
X86249212Y-134017719D01*
X86153363Y-134249117D01*
X86104500Y-134494768D01*
X86104500Y-134745232D01*
X86153363Y-134990883D01*
X86249212Y-135222281D01*
X86388362Y-135430534D01*
X86565466Y-135607638D01*
X86773719Y-135746788D01*
X87005117Y-135842637D01*
X87243227Y-135890000D01*
X87005117Y-135937363D01*
X86773719Y-136033212D01*
X86565466Y-136172362D01*
X86388362Y-136349466D01*
X86249212Y-136557719D01*
X86153363Y-136789117D01*
X86104500Y-137034768D01*
X86104500Y-137285232D01*
X86153363Y-137530883D01*
X86249212Y-137762281D01*
X86388362Y-137970534D01*
X86565466Y-138147638D01*
X86773719Y-138286788D01*
X87005117Y-138382637D01*
X87243227Y-138430000D01*
X87005117Y-138477363D01*
X86773719Y-138573212D01*
X86565466Y-138712362D01*
X86388362Y-138889466D01*
X86249212Y-139097719D01*
X86153363Y-139329117D01*
X86104500Y-139574768D01*
X86104500Y-139825232D01*
X86153363Y-140070883D01*
X86249212Y-140302281D01*
X86388362Y-140510534D01*
X86565466Y-140687638D01*
X86773719Y-140826788D01*
X87005117Y-140922637D01*
X87250768Y-140971500D01*
X87501232Y-140971500D01*
X87746883Y-140922637D01*
X87978281Y-140826788D01*
X88186534Y-140687638D01*
X88363638Y-140510534D01*
X88502788Y-140302281D01*
X88598637Y-140070883D01*
X88646000Y-139832773D01*
X88693363Y-140070883D01*
X88789212Y-140302281D01*
X88928362Y-140510534D01*
X89105466Y-140687638D01*
X89313719Y-140826788D01*
X89545117Y-140922637D01*
X89790768Y-140971500D01*
X90041232Y-140971500D01*
X90286883Y-140922637D01*
X90518281Y-140826788D01*
X90726534Y-140687638D01*
X90903638Y-140510534D01*
X91042788Y-140302281D01*
X91138637Y-140070883D01*
X91187500Y-139825232D01*
X91187500Y-139574768D01*
X91138637Y-139329117D01*
X91042788Y-139097719D01*
X90903638Y-138889466D01*
X90726534Y-138712362D01*
X90518281Y-138573212D01*
X90286883Y-138477363D01*
X90048773Y-138430000D01*
X90286883Y-138382637D01*
X90518281Y-138286788D01*
X90726534Y-138147638D01*
X90903638Y-137970534D01*
X91042788Y-137762281D01*
X91138637Y-137530883D01*
X91187500Y-137285232D01*
X91187500Y-137034768D01*
X91138637Y-136789117D01*
X91042788Y-136557719D01*
X90903638Y-136349466D01*
X90726534Y-136172362D01*
X90518281Y-136033212D01*
X90286883Y-135937363D01*
X90048773Y-135890000D01*
X90286883Y-135842637D01*
X90518281Y-135746788D01*
X90726534Y-135607638D01*
X90903638Y-135430534D01*
X91042788Y-135222281D01*
X91138637Y-134990883D01*
X91187500Y-134745232D01*
X91187500Y-134494768D01*
X91138637Y-134249117D01*
X91042788Y-134017719D01*
X90903638Y-133809466D01*
X90726534Y-133632362D01*
X90518281Y-133493212D01*
X90286883Y-133397363D01*
X90048773Y-133350000D01*
X90286883Y-133302637D01*
X90518281Y-133206788D01*
X90726534Y-133067638D01*
X90903638Y-132890534D01*
X91042788Y-132682281D01*
X91138637Y-132450883D01*
X91187500Y-132205232D01*
X91187500Y-131954768D01*
X91138637Y-131709117D01*
X91042788Y-131477719D01*
X90903638Y-131269466D01*
X90895673Y-131261501D01*
X92920783Y-131261501D01*
X92954999Y-131264871D01*
X93091537Y-131251423D01*
X93164359Y-131229333D01*
X93222828Y-131211597D01*
X93343826Y-131146922D01*
X93449882Y-131059884D01*
X93471699Y-131033300D01*
X94755500Y-129749500D01*
X94837684Y-129749500D01*
X95025376Y-129712166D01*
X95202178Y-129638932D01*
X95361295Y-129532614D01*
X95496614Y-129397295D01*
X95602932Y-129238178D01*
X95676166Y-129061376D01*
X95713500Y-128873684D01*
X95713500Y-128682316D01*
X95676166Y-128494624D01*
X95602932Y-128317822D01*
X95496614Y-128158705D01*
X95361295Y-128023386D01*
X95202178Y-127917068D01*
X95025376Y-127843834D01*
X94837684Y-127806500D01*
X94646316Y-127806500D01*
X94458624Y-127843834D01*
X94281822Y-127917068D01*
X94122705Y-128023386D01*
X93987386Y-128158705D01*
X93881068Y-128317822D01*
X93807834Y-128494624D01*
X93770500Y-128682316D01*
X93770500Y-128764500D01*
X92666500Y-129868501D01*
X91147067Y-129868501D01*
X91187500Y-129665232D01*
X91187500Y-129414768D01*
X91138637Y-129169117D01*
X91042788Y-128937719D01*
X90903638Y-128729466D01*
X90726534Y-128552362D01*
X90518281Y-128413212D01*
X90286883Y-128317363D01*
X90048773Y-128270000D01*
X90286883Y-128222637D01*
X90518281Y-128126788D01*
X90726534Y-127987638D01*
X90903638Y-127810534D01*
X91042788Y-127602281D01*
X91138637Y-127370883D01*
X91187500Y-127125232D01*
X91187500Y-126874768D01*
X91138637Y-126629117D01*
X91042788Y-126397719D01*
X90903638Y-126189466D01*
X90726534Y-126012362D01*
X90518281Y-125873212D01*
X90286883Y-125777363D01*
X90048773Y-125730000D01*
X90286883Y-125682637D01*
X90518281Y-125586788D01*
X90726534Y-125447638D01*
X90903638Y-125270534D01*
X91042788Y-125062281D01*
X91138637Y-124830883D01*
X91187500Y-124585232D01*
X91187500Y-124334768D01*
X91138637Y-124089117D01*
X91042788Y-123857719D01*
X90903638Y-123649466D01*
X90726534Y-123472362D01*
X90518281Y-123333212D01*
X90286883Y-123237363D01*
X90048773Y-123190000D01*
X90286883Y-123142637D01*
X90518281Y-123046788D01*
X90726534Y-122907638D01*
X90903638Y-122730534D01*
X91042788Y-122522281D01*
X91138637Y-122290883D01*
X91187500Y-122045232D01*
X91187500Y-121794768D01*
X91138637Y-121549117D01*
X91042788Y-121317719D01*
X90903638Y-121109466D01*
X90726534Y-120932362D01*
X90518281Y-120793212D01*
X90286883Y-120697363D01*
X90048773Y-120650000D01*
X90286883Y-120602637D01*
X90518281Y-120506788D01*
X90726534Y-120367638D01*
X90903638Y-120190534D01*
X91042788Y-119982281D01*
X91138637Y-119750883D01*
X91187500Y-119505232D01*
X91187500Y-119254768D01*
X91138637Y-119009117D01*
X91042788Y-118777719D01*
X90903638Y-118569466D01*
X90726534Y-118392362D01*
X90518281Y-118253212D01*
X90286883Y-118157363D01*
X90048773Y-118110000D01*
X90286883Y-118062637D01*
X90518281Y-117966788D01*
X90726534Y-117827638D01*
X90903638Y-117650534D01*
X91042788Y-117442281D01*
X91138637Y-117210883D01*
X91187500Y-116965232D01*
X91187500Y-116714768D01*
X91138637Y-116469117D01*
X91042788Y-116237719D01*
X90903638Y-116029466D01*
X90726534Y-115852362D01*
X90518281Y-115713212D01*
X90325841Y-115633500D01*
X112366159Y-115633500D01*
X112173719Y-115713212D01*
X111965466Y-115852362D01*
X111788362Y-116029466D01*
X111649212Y-116237719D01*
X111553363Y-116469117D01*
X111504500Y-116714768D01*
X111504500Y-116965232D01*
X111553363Y-117210883D01*
X111649212Y-117442281D01*
X111788362Y-117650534D01*
X111965466Y-117827638D01*
X112173719Y-117966788D01*
X112405117Y-118062637D01*
X112643227Y-118110000D01*
X112405117Y-118157363D01*
X112173719Y-118253212D01*
X111965466Y-118392362D01*
X111788362Y-118569466D01*
X111649212Y-118777719D01*
X111553363Y-119009117D01*
X111504500Y-119254768D01*
X111504500Y-119505232D01*
X111553363Y-119750883D01*
X111649212Y-119982281D01*
X111788362Y-120190534D01*
X111965466Y-120367638D01*
X112173719Y-120506788D01*
X112405117Y-120602637D01*
X112643227Y-120650000D01*
X112405117Y-120697363D01*
X112173719Y-120793212D01*
X111965466Y-120932362D01*
X111788362Y-121109466D01*
X111649212Y-121317719D01*
X111553363Y-121549117D01*
X111504500Y-121794768D01*
X111504500Y-122045232D01*
X111553363Y-122290883D01*
X111649212Y-122522281D01*
X111788362Y-122730534D01*
X111965466Y-122907638D01*
X112173719Y-123046788D01*
X112405117Y-123142637D01*
X112643227Y-123190000D01*
X112405117Y-123237363D01*
X112173719Y-123333212D01*
X111965466Y-123472362D01*
X111788362Y-123649466D01*
X111649212Y-123857719D01*
X111553363Y-124089117D01*
X111504500Y-124334768D01*
X111504500Y-124585232D01*
X111553363Y-124830883D01*
X111649212Y-125062281D01*
X111788362Y-125270534D01*
X111965466Y-125447638D01*
X112173719Y-125586788D01*
X112405117Y-125682637D01*
X112643227Y-125730000D01*
X112405117Y-125777363D01*
X112173719Y-125873212D01*
X111965466Y-126012362D01*
X111788362Y-126189466D01*
X111649212Y-126397719D01*
X111553363Y-126629117D01*
X111504500Y-126874768D01*
X111504500Y-127125232D01*
X111553363Y-127370883D01*
X111649212Y-127602281D01*
X111788362Y-127810534D01*
X111965466Y-127987638D01*
X112173719Y-128126788D01*
X112405117Y-128222637D01*
X112643227Y-128270000D01*
X112405117Y-128317363D01*
X112173719Y-128413212D01*
X111965466Y-128552362D01*
X111788362Y-128729466D01*
X111649212Y-128937719D01*
X111553363Y-129169117D01*
X111528404Y-129294596D01*
X108190501Y-132632500D01*
X108108316Y-132632500D01*
X107920624Y-132669834D01*
X107743822Y-132743068D01*
X107584705Y-132849386D01*
X107449386Y-132984705D01*
X107343068Y-133143822D01*
X107269834Y-133320624D01*
X107232500Y-133508316D01*
X107232500Y-133699684D01*
X107269834Y-133887376D01*
X107343068Y-134064178D01*
X107449386Y-134223295D01*
X107584705Y-134358614D01*
X107743822Y-134464932D01*
X107920624Y-134538166D01*
X108108316Y-134575500D01*
X108299684Y-134575500D01*
X108487376Y-134538166D01*
X108664178Y-134464932D01*
X108823295Y-134358614D01*
X108958614Y-134223295D01*
X109064932Y-134064178D01*
X109138166Y-133887376D01*
X109175500Y-133699684D01*
X109175500Y-133617499D01*
X110822690Y-131970309D01*
X111503066Y-131970309D01*
X111506125Y-132220754D01*
X111557985Y-132465790D01*
X111641939Y-132668473D01*
X111850275Y-132736317D01*
X112506592Y-132080000D01*
X111850275Y-131423683D01*
X111641939Y-131491527D01*
X111548925Y-131724079D01*
X111503066Y-131970309D01*
X110822690Y-131970309D01*
X112145241Y-130647759D01*
X112173719Y-130666788D01*
X112405117Y-130762637D01*
X112643357Y-130810026D01*
X112635246Y-130810125D01*
X112390210Y-130861985D01*
X112187527Y-130945939D01*
X112119683Y-131154275D01*
X112776000Y-131810592D01*
X113432317Y-131154275D01*
X113364473Y-130945939D01*
X113131921Y-130852925D01*
X112905229Y-130810705D01*
X113146883Y-130762637D01*
X113378281Y-130666788D01*
X113586534Y-130527638D01*
X113763638Y-130350534D01*
X113902788Y-130142281D01*
X113998637Y-129910883D01*
X114046000Y-129672773D01*
X114093363Y-129910883D01*
X114189212Y-130142281D01*
X114328362Y-130350534D01*
X114505466Y-130527638D01*
X114713719Y-130666788D01*
X114945117Y-130762637D01*
X115183227Y-130810000D01*
X114945117Y-130857363D01*
X114713719Y-130953212D01*
X114505466Y-131092362D01*
X114328362Y-131269466D01*
X114189212Y-131477719D01*
X114093363Y-131709117D01*
X114045974Y-131947357D01*
X114045875Y-131939246D01*
X113994015Y-131694210D01*
X113910061Y-131491527D01*
X113701725Y-131423683D01*
X113045408Y-132080000D01*
X113701725Y-132736317D01*
X113910061Y-132668473D01*
X114003075Y-132435921D01*
X114045295Y-132209229D01*
X114093363Y-132450883D01*
X114189212Y-132682281D01*
X114328362Y-132890534D01*
X114505466Y-133067638D01*
X114713719Y-133206788D01*
X114945117Y-133302637D01*
X115183227Y-133350000D01*
X114945117Y-133397363D01*
X114713719Y-133493212D01*
X114505466Y-133632362D01*
X114328362Y-133809466D01*
X114189212Y-134017719D01*
X114093363Y-134249117D01*
X114046000Y-134487227D01*
X113998637Y-134249117D01*
X113902788Y-134017719D01*
X113763638Y-133809466D01*
X113586534Y-133632362D01*
X113378281Y-133493212D01*
X113146883Y-133397363D01*
X112908643Y-133349974D01*
X112916754Y-133349875D01*
X113161790Y-133298015D01*
X113364473Y-133214061D01*
X113432317Y-133005725D01*
X112776000Y-132349408D01*
X112119683Y-133005725D01*
X112187527Y-133214061D01*
X112420079Y-133307075D01*
X112646771Y-133349295D01*
X112405117Y-133397363D01*
X112173719Y-133493212D01*
X111965466Y-133632362D01*
X111788362Y-133809466D01*
X111649212Y-134017719D01*
X111553363Y-134249117D01*
X111504500Y-134494768D01*
X111504500Y-134745232D01*
X111553363Y-134990883D01*
X111605666Y-135117154D01*
X111534537Y-135095577D01*
X111397999Y-135082129D01*
X111261461Y-135095577D01*
X111130171Y-135135403D01*
X111009173Y-135200079D01*
X110903117Y-135287117D01*
X110816079Y-135393173D01*
X110751403Y-135514171D01*
X110711577Y-135645461D01*
X110698129Y-135781999D01*
X110711577Y-135918537D01*
X110751403Y-136049827D01*
X110816079Y-136170825D01*
X110881305Y-136250304D01*
X111531256Y-136900256D01*
X111504500Y-137034768D01*
X111504500Y-137285232D01*
X111553363Y-137530883D01*
X111649212Y-137762281D01*
X111788362Y-137970534D01*
X111965466Y-138147638D01*
X112173719Y-138286788D01*
X112405117Y-138382637D01*
X112643227Y-138430000D01*
X112405117Y-138477363D01*
X112173719Y-138573212D01*
X111965466Y-138712362D01*
X111788362Y-138889466D01*
X111649212Y-139097719D01*
X111553363Y-139329117D01*
X111504500Y-139574768D01*
X111504500Y-139825232D01*
X111553363Y-140070883D01*
X111649212Y-140302281D01*
X111788362Y-140510534D01*
X111965466Y-140687638D01*
X112173719Y-140826788D01*
X112405117Y-140922637D01*
X112650768Y-140971500D01*
X112901232Y-140971500D01*
X113146883Y-140922637D01*
X113378281Y-140826788D01*
X113586534Y-140687638D01*
X113763638Y-140510534D01*
X113902788Y-140302281D01*
X113998637Y-140070883D01*
X114046000Y-139832773D01*
X114093363Y-140070883D01*
X114189212Y-140302281D01*
X114328362Y-140510534D01*
X114505466Y-140687638D01*
X114713719Y-140826788D01*
X114945117Y-140922637D01*
X115190768Y-140971500D01*
X115441232Y-140971500D01*
X115686883Y-140922637D01*
X115918281Y-140826788D01*
X116126534Y-140687638D01*
X116303638Y-140510534D01*
X116442788Y-140302281D01*
X116538637Y-140070883D01*
X116587500Y-139825232D01*
X116587500Y-139574768D01*
X116538637Y-139329117D01*
X116442788Y-139097719D01*
X116303638Y-138889466D01*
X116126534Y-138712362D01*
X115918281Y-138573212D01*
X115686883Y-138477363D01*
X115448773Y-138430000D01*
X115686883Y-138382637D01*
X115918281Y-138286788D01*
X116126534Y-138147638D01*
X116303638Y-137970534D01*
X116442788Y-137762281D01*
X116538637Y-137530883D01*
X116587500Y-137285232D01*
X116587500Y-137034768D01*
X116538637Y-136789117D01*
X116442788Y-136557719D01*
X116303638Y-136349466D01*
X116126534Y-136172362D01*
X115918281Y-136033212D01*
X115686883Y-135937363D01*
X115448773Y-135890000D01*
X115686883Y-135842637D01*
X115918281Y-135746788D01*
X116126534Y-135607638D01*
X116303638Y-135430534D01*
X116442788Y-135222281D01*
X116538637Y-134990883D01*
X116587500Y-134745232D01*
X116587500Y-134494768D01*
X116538637Y-134249117D01*
X116442788Y-134017719D01*
X116303638Y-133809466D01*
X116126534Y-133632362D01*
X115918281Y-133493212D01*
X115686883Y-133397363D01*
X115448773Y-133350000D01*
X115686883Y-133302637D01*
X115918281Y-133206788D01*
X116126534Y-133067638D01*
X116303638Y-132890534D01*
X116442788Y-132682281D01*
X116538637Y-132450883D01*
X116587500Y-132205232D01*
X116587500Y-131954768D01*
X116538637Y-131709117D01*
X116442788Y-131477719D01*
X116303638Y-131269466D01*
X116126534Y-131092362D01*
X115918281Y-130953212D01*
X115686883Y-130857363D01*
X115448773Y-130810000D01*
X115686883Y-130762637D01*
X115918281Y-130666788D01*
X116126534Y-130527638D01*
X116303638Y-130350534D01*
X116442788Y-130142281D01*
X116538637Y-129910883D01*
X116587500Y-129665232D01*
X116587500Y-129414768D01*
X116538637Y-129169117D01*
X116442788Y-128937719D01*
X116303638Y-128729466D01*
X116126534Y-128552362D01*
X115918281Y-128413212D01*
X115686883Y-128317363D01*
X115448773Y-128270000D01*
X115686883Y-128222637D01*
X115918281Y-128126788D01*
X116126534Y-127987638D01*
X116303638Y-127810534D01*
X116442788Y-127602281D01*
X116538637Y-127370883D01*
X116587500Y-127125232D01*
X116587500Y-126874768D01*
X116538637Y-126629117D01*
X116442788Y-126397719D01*
X116303638Y-126189466D01*
X116126534Y-126012362D01*
X115918281Y-125873212D01*
X115686883Y-125777363D01*
X115448773Y-125730000D01*
X115686883Y-125682637D01*
X115918281Y-125586788D01*
X116126534Y-125447638D01*
X116303638Y-125270534D01*
X116442788Y-125062281D01*
X116538637Y-124830883D01*
X116587500Y-124585232D01*
X116587500Y-124334768D01*
X116538637Y-124089117D01*
X116442788Y-123857719D01*
X116303638Y-123649466D01*
X116126534Y-123472362D01*
X115918281Y-123333212D01*
X115686883Y-123237363D01*
X115448773Y-123190000D01*
X115686883Y-123142637D01*
X115918281Y-123046788D01*
X116126534Y-122907638D01*
X116303638Y-122730534D01*
X116442788Y-122522281D01*
X116538637Y-122290883D01*
X116587500Y-122045232D01*
X116587500Y-121794768D01*
X116538637Y-121549117D01*
X116442788Y-121317719D01*
X116303638Y-121109466D01*
X116126534Y-120932362D01*
X115918281Y-120793212D01*
X115686883Y-120697363D01*
X115448773Y-120650000D01*
X115686883Y-120602637D01*
X115918281Y-120506788D01*
X116126534Y-120367638D01*
X116303638Y-120190534D01*
X116442788Y-119982281D01*
X116538637Y-119750883D01*
X116587500Y-119505232D01*
X116587500Y-119254768D01*
X116538637Y-119009117D01*
X116442788Y-118777719D01*
X116303638Y-118569466D01*
X116126534Y-118392362D01*
X115918281Y-118253212D01*
X115686883Y-118157363D01*
X115448643Y-118109974D01*
X115456754Y-118109875D01*
X115701790Y-118058015D01*
X115904473Y-117974061D01*
X115972317Y-117765725D01*
X115316000Y-117109408D01*
X114659683Y-117765725D01*
X114727527Y-117974061D01*
X114960079Y-118067075D01*
X115186771Y-118109295D01*
X114945117Y-118157363D01*
X114713719Y-118253212D01*
X114505466Y-118392362D01*
X114328362Y-118569466D01*
X114189212Y-118777719D01*
X114093363Y-119009117D01*
X114046000Y-119247227D01*
X113998637Y-119009117D01*
X113902788Y-118777719D01*
X113763638Y-118569466D01*
X113586534Y-118392362D01*
X113378281Y-118253212D01*
X113146883Y-118157363D01*
X112908773Y-118110000D01*
X113146883Y-118062637D01*
X113378281Y-117966788D01*
X113586534Y-117827638D01*
X113763638Y-117650534D01*
X113902788Y-117442281D01*
X113998637Y-117210883D01*
X114046026Y-116972643D01*
X114046125Y-116980754D01*
X114097985Y-117225790D01*
X114181939Y-117428473D01*
X114390275Y-117496317D01*
X115046592Y-116840000D01*
X115585408Y-116840000D01*
X116241725Y-117496317D01*
X116450061Y-117428473D01*
X116543075Y-117195921D01*
X116588934Y-116949691D01*
X116585875Y-116699246D01*
X116534015Y-116454210D01*
X116450061Y-116251527D01*
X116241725Y-116183683D01*
X115585408Y-116840000D01*
X115046592Y-116840000D01*
X114390275Y-116183683D01*
X114181939Y-116251527D01*
X114088925Y-116484079D01*
X114046705Y-116710771D01*
X113998637Y-116469117D01*
X113902788Y-116237719D01*
X113763638Y-116029466D01*
X113586534Y-115852362D01*
X113378281Y-115713212D01*
X113185841Y-115633500D01*
X114902410Y-115633500D01*
X114727527Y-115705939D01*
X114659683Y-115914275D01*
X115316000Y-116570592D01*
X115972317Y-115914275D01*
X115904473Y-115705939D01*
X115723362Y-115633500D01*
X116586000Y-115633500D01*
X116598388Y-115632280D01*
X116610300Y-115628666D01*
X116621279Y-115622798D01*
X116630901Y-115614901D01*
X116638798Y-115605279D01*
X116644666Y-115594300D01*
X116648280Y-115582388D01*
X116649500Y-115570000D01*
X116649500Y-109816500D01*
X119604828Y-109816500D01*
X119912268Y-109846645D01*
X120179936Y-109927458D01*
X120426810Y-110058723D01*
X120643486Y-110235440D01*
X120821712Y-110450879D01*
X120954697Y-110696829D01*
X121037379Y-110963928D01*
X121069501Y-111269556D01*
X121069500Y-154461301D01*
X121072093Y-154487629D01*
X121072005Y-154500248D01*
X121072818Y-154508536D01*
X121114271Y-154902940D01*
X121125138Y-154955882D01*
X121135272Y-155009007D01*
X121137679Y-155016980D01*
X121254951Y-155395822D01*
X121275906Y-155445674D01*
X121296154Y-155495789D01*
X121300064Y-155503143D01*
X121488686Y-155851991D01*
X121518917Y-155896810D01*
X121548520Y-155942049D01*
X121553784Y-155948503D01*
X121806571Y-156254071D01*
X121844955Y-156292188D01*
X121882761Y-156330794D01*
X121889178Y-156336103D01*
X122196503Y-156586751D01*
X122241555Y-156616683D01*
X122286142Y-156647213D01*
X122293465Y-156651173D01*
X122293473Y-156651177D01*
X122643625Y-156837356D01*
X122693604Y-156857956D01*
X122743302Y-156879257D01*
X122751254Y-156881718D01*
X122751260Y-156881720D01*
X123130909Y-156996342D01*
X123183960Y-157006847D01*
X123236825Y-157018084D01*
X123245097Y-157018953D01*
X123245108Y-157018955D01*
X123245118Y-157018955D01*
X123639792Y-157057653D01*
X123668698Y-157060500D01*
X130780828Y-157060500D01*
X131088268Y-157090645D01*
X131355936Y-157171458D01*
X131602810Y-157302723D01*
X131819486Y-157479440D01*
X131997712Y-157694879D01*
X132130697Y-157940829D01*
X132213379Y-158207928D01*
X132245501Y-158513556D01*
X132245500Y-170912828D01*
X132215355Y-171220268D01*
X132134542Y-171487936D01*
X132003276Y-171734810D01*
X131826558Y-171951488D01*
X131611120Y-172129713D01*
X131365170Y-172262697D01*
X131098068Y-172345379D01*
X130792454Y-172377500D01*
X72927172Y-172377500D01*
X72619732Y-172347355D01*
X72352064Y-172266542D01*
X72105190Y-172135276D01*
X71888512Y-171958558D01*
X71710287Y-171743120D01*
X71577303Y-171497170D01*
X71522862Y-171321298D01*
X93938110Y-171321298D01*
X94042723Y-171560165D01*
X94326723Y-171683334D01*
X94629295Y-171748731D01*
X94938811Y-171753842D01*
X95243377Y-171698471D01*
X95531289Y-171584746D01*
X95577277Y-171560165D01*
X95681890Y-171321298D01*
X94810000Y-170449408D01*
X93938110Y-171321298D01*
X71522862Y-171321298D01*
X71494621Y-171230068D01*
X71462500Y-170924454D01*
X71462500Y-170308811D01*
X93236158Y-170308811D01*
X93291529Y-170613377D01*
X93405254Y-170901289D01*
X93429835Y-170947277D01*
X93668702Y-171051890D01*
X94540592Y-170180000D01*
X95079408Y-170180000D01*
X95951298Y-171051890D01*
X96190165Y-170947277D01*
X96313334Y-170663277D01*
X96378731Y-170360705D01*
X96383842Y-170051189D01*
X96379121Y-170025221D01*
X101738500Y-170025221D01*
X101738500Y-170334779D01*
X101798892Y-170638390D01*
X101917355Y-170924384D01*
X102089336Y-171181773D01*
X102308227Y-171400664D01*
X102565616Y-171572645D01*
X102851610Y-171691108D01*
X103155221Y-171751500D01*
X103464779Y-171751500D01*
X103768390Y-171691108D01*
X104054384Y-171572645D01*
X104311773Y-171400664D01*
X104530664Y-171181773D01*
X104702645Y-170924384D01*
X104821108Y-170638390D01*
X104881500Y-170334779D01*
X104881500Y-170025221D01*
X104821108Y-169721610D01*
X104702645Y-169435616D01*
X104530664Y-169178227D01*
X104311773Y-168959336D01*
X104054384Y-168787355D01*
X103768390Y-168668892D01*
X103464779Y-168608500D01*
X103155221Y-168608500D01*
X102851610Y-168668892D01*
X102565616Y-168787355D01*
X102308227Y-168959336D01*
X102089336Y-169178227D01*
X101917355Y-169435616D01*
X101798892Y-169721610D01*
X101738500Y-170025221D01*
X96379121Y-170025221D01*
X96328471Y-169746623D01*
X96214746Y-169458711D01*
X96190165Y-169412723D01*
X95951298Y-169308110D01*
X95079408Y-170180000D01*
X94540592Y-170180000D01*
X93668702Y-169308110D01*
X93429835Y-169412723D01*
X93306666Y-169696723D01*
X93241269Y-169999295D01*
X93236158Y-170308811D01*
X71462500Y-170308811D01*
X71462500Y-169646901D01*
X74970507Y-169646901D01*
X75135764Y-169936893D01*
X75505208Y-170110142D01*
X75901353Y-170207987D01*
X76308976Y-170226668D01*
X76712410Y-170165467D01*
X77096152Y-170026735D01*
X77264236Y-169936893D01*
X77429493Y-169646901D01*
X76200000Y-168417408D01*
X74970507Y-169646901D01*
X71462500Y-169646901D01*
X71462500Y-168256976D01*
X74121332Y-168256976D01*
X74182533Y-168660410D01*
X74321265Y-169044152D01*
X74411107Y-169212236D01*
X74701099Y-169377493D01*
X75930592Y-168148000D01*
X76469408Y-168148000D01*
X77698901Y-169377493D01*
X77988893Y-169212236D01*
X78070270Y-169038702D01*
X93938110Y-169038702D01*
X94810000Y-169910592D01*
X95681890Y-169038702D01*
X95577277Y-168799835D01*
X95293277Y-168676666D01*
X94990705Y-168611269D01*
X94681189Y-168606158D01*
X94376623Y-168661529D01*
X94088711Y-168775254D01*
X94042723Y-168799835D01*
X93938110Y-169038702D01*
X78070270Y-169038702D01*
X78162142Y-168842792D01*
X78259987Y-168446647D01*
X78278668Y-168039024D01*
X78217467Y-167635590D01*
X78078735Y-167251848D01*
X77988893Y-167083764D01*
X77698901Y-166918507D01*
X76469408Y-168148000D01*
X75930592Y-168148000D01*
X74701099Y-166918507D01*
X74411107Y-167083764D01*
X74237858Y-167453208D01*
X74140013Y-167849353D01*
X74121332Y-168256976D01*
X71462500Y-168256976D01*
X71462500Y-166649099D01*
X74970507Y-166649099D01*
X76200000Y-167878592D01*
X77429493Y-166649099D01*
X77428867Y-166648000D01*
X123909735Y-166648000D01*
X123909735Y-169648000D01*
X123920769Y-169760034D01*
X123953448Y-169867762D01*
X124006516Y-169967045D01*
X124077933Y-170054067D01*
X124164955Y-170125484D01*
X124264238Y-170178552D01*
X124371966Y-170211231D01*
X124484000Y-170222265D01*
X127484000Y-170222265D01*
X127596034Y-170211231D01*
X127703762Y-170178552D01*
X127803045Y-170125484D01*
X127890067Y-170054067D01*
X127961484Y-169967045D01*
X128014552Y-169867762D01*
X128047231Y-169760034D01*
X128058265Y-169648000D01*
X128058265Y-166648000D01*
X128047231Y-166535966D01*
X128014552Y-166428238D01*
X127961484Y-166328955D01*
X127890067Y-166241933D01*
X127803045Y-166170516D01*
X127703762Y-166117448D01*
X127596034Y-166084769D01*
X127484000Y-166073735D01*
X124484000Y-166073735D01*
X124371966Y-166084769D01*
X124264238Y-166117448D01*
X124164955Y-166170516D01*
X124077933Y-166241933D01*
X124006516Y-166328955D01*
X123953448Y-166428238D01*
X123920769Y-166535966D01*
X123909735Y-166648000D01*
X77428867Y-166648000D01*
X77264236Y-166359107D01*
X76894792Y-166185858D01*
X76498647Y-166088013D01*
X76091024Y-166069332D01*
X75687590Y-166130533D01*
X75303848Y-166269265D01*
X75135764Y-166359107D01*
X74970507Y-166649099D01*
X71462500Y-166649099D01*
X71462500Y-164568000D01*
X74125735Y-164568000D01*
X74136769Y-164680034D01*
X74169448Y-164787762D01*
X74222516Y-164887045D01*
X74293933Y-164974067D01*
X74380955Y-165045484D01*
X74480238Y-165098552D01*
X74587966Y-165131231D01*
X74700000Y-165142265D01*
X75866625Y-165139500D01*
X76009500Y-164996625D01*
X76009500Y-163258500D01*
X76390500Y-163258500D01*
X76390500Y-164996625D01*
X76533375Y-165139500D01*
X77700000Y-165142265D01*
X77812034Y-165131231D01*
X77919762Y-165098552D01*
X78019045Y-165045484D01*
X78106067Y-164974067D01*
X78177484Y-164887045D01*
X78230552Y-164787762D01*
X78263231Y-164680034D01*
X78274265Y-164568000D01*
X78271500Y-163401375D01*
X78128625Y-163258500D01*
X76390500Y-163258500D01*
X76009500Y-163258500D01*
X74271375Y-163258500D01*
X74128500Y-163401375D01*
X74125735Y-164568000D01*
X71462500Y-164568000D01*
X71462500Y-161568000D01*
X74125735Y-161568000D01*
X74128500Y-162734625D01*
X74271375Y-162877500D01*
X76009500Y-162877500D01*
X76009500Y-161139375D01*
X76390500Y-161139375D01*
X76390500Y-162877500D01*
X78128625Y-162877500D01*
X78142150Y-162863975D01*
X123912500Y-162863975D01*
X123912500Y-163272025D01*
X123992107Y-163672234D01*
X124148261Y-164049223D01*
X124374961Y-164388504D01*
X124663496Y-164677039D01*
X125002777Y-164903739D01*
X125379766Y-165059893D01*
X125779975Y-165139500D01*
X126188025Y-165139500D01*
X126588234Y-165059893D01*
X126965223Y-164903739D01*
X127304504Y-164677039D01*
X127593039Y-164388504D01*
X127819739Y-164049223D01*
X127975893Y-163672234D01*
X128055500Y-163272025D01*
X128055500Y-162863975D01*
X127975893Y-162463766D01*
X127819739Y-162086777D01*
X127593039Y-161747496D01*
X127304504Y-161458961D01*
X126965223Y-161232261D01*
X126588234Y-161076107D01*
X126188025Y-160996500D01*
X125779975Y-160996500D01*
X125379766Y-161076107D01*
X125002777Y-161232261D01*
X124663496Y-161458961D01*
X124374961Y-161747496D01*
X124148261Y-162086777D01*
X123992107Y-162463766D01*
X123912500Y-162863975D01*
X78142150Y-162863975D01*
X78271500Y-162734625D01*
X78274265Y-161568000D01*
X78263231Y-161455966D01*
X78230552Y-161348238D01*
X78177484Y-161248955D01*
X78106067Y-161161933D01*
X78019045Y-161090516D01*
X77919762Y-161037448D01*
X77812034Y-161004769D01*
X77700000Y-160993735D01*
X76533375Y-160996500D01*
X76390500Y-161139375D01*
X76009500Y-161139375D01*
X75866625Y-160996500D01*
X74700000Y-160993735D01*
X74587966Y-161004769D01*
X74480238Y-161037448D01*
X74380955Y-161090516D01*
X74293933Y-161161933D01*
X74222516Y-161248955D01*
X74169448Y-161348238D01*
X74136769Y-161455966D01*
X74125735Y-161568000D01*
X71462500Y-161568000D01*
X71462500Y-117006000D01*
X72489735Y-117006000D01*
X72489735Y-118706000D01*
X72500769Y-118818034D01*
X72533448Y-118925762D01*
X72586516Y-119025045D01*
X72657933Y-119112067D01*
X72744955Y-119183484D01*
X72844238Y-119236552D01*
X72951966Y-119269231D01*
X73030170Y-119276933D01*
X73007847Y-119291849D01*
X72809849Y-119489847D01*
X72654283Y-119722667D01*
X72547127Y-119981364D01*
X72492500Y-120255994D01*
X72492500Y-120536006D01*
X72547127Y-120810636D01*
X72654283Y-121069333D01*
X72809849Y-121302153D01*
X73007847Y-121500151D01*
X73240667Y-121655717D01*
X73265492Y-121666000D01*
X73240667Y-121676283D01*
X73007847Y-121831849D01*
X72809849Y-122029847D01*
X72654283Y-122262667D01*
X72547127Y-122521364D01*
X72492500Y-122795994D01*
X72492500Y-123076006D01*
X72547127Y-123350636D01*
X72654283Y-123609333D01*
X72809849Y-123842153D01*
X73007847Y-124040151D01*
X73240667Y-124195717D01*
X73265492Y-124206000D01*
X73240667Y-124216283D01*
X73007847Y-124371849D01*
X72809849Y-124569847D01*
X72654283Y-124802667D01*
X72547127Y-125061364D01*
X72492500Y-125335994D01*
X72492500Y-125616006D01*
X72547127Y-125890636D01*
X72654283Y-126149333D01*
X72809849Y-126382153D01*
X73007847Y-126580151D01*
X73240667Y-126735717D01*
X73265492Y-126746000D01*
X73240667Y-126756283D01*
X73007847Y-126911849D01*
X72809849Y-127109847D01*
X72654283Y-127342667D01*
X72547127Y-127601364D01*
X72492500Y-127875994D01*
X72492500Y-128156006D01*
X72547127Y-128430636D01*
X72654283Y-128689333D01*
X72809849Y-128922153D01*
X73007847Y-129120151D01*
X73240667Y-129275717D01*
X73265492Y-129286000D01*
X73240667Y-129296283D01*
X73007847Y-129451849D01*
X72809849Y-129649847D01*
X72654283Y-129882667D01*
X72547127Y-130141364D01*
X72492500Y-130415994D01*
X72492500Y-130696006D01*
X72547127Y-130970636D01*
X72654283Y-131229333D01*
X72809849Y-131462153D01*
X73007847Y-131660151D01*
X73240667Y-131815717D01*
X73265492Y-131826000D01*
X73240667Y-131836283D01*
X73007847Y-131991849D01*
X72809849Y-132189847D01*
X72654283Y-132422667D01*
X72547127Y-132681364D01*
X72492500Y-132955994D01*
X72492500Y-133236006D01*
X72547127Y-133510636D01*
X72654283Y-133769333D01*
X72809849Y-134002153D01*
X73007847Y-134200151D01*
X73240667Y-134355717D01*
X73265492Y-134366000D01*
X73240667Y-134376283D01*
X73007847Y-134531849D01*
X72809849Y-134729847D01*
X72654283Y-134962667D01*
X72547127Y-135221364D01*
X72492500Y-135495994D01*
X72492500Y-135776006D01*
X72547127Y-136050636D01*
X72654283Y-136309333D01*
X72809849Y-136542153D01*
X73007847Y-136740151D01*
X73240667Y-136895717D01*
X73499364Y-137002873D01*
X73773994Y-137057500D01*
X74054006Y-137057500D01*
X74328636Y-137002873D01*
X74587333Y-136895717D01*
X74820153Y-136740151D01*
X75018151Y-136542153D01*
X75173717Y-136309333D01*
X75187870Y-136275164D01*
X75202376Y-136309887D01*
X75357894Y-136541118D01*
X75555535Y-136737566D01*
X75787704Y-136891681D01*
X76045478Y-136997541D01*
X76263500Y-136901810D01*
X76263500Y-135826500D01*
X76644500Y-135826500D01*
X76644500Y-136901810D01*
X76862522Y-136997541D01*
X77120296Y-136891681D01*
X77352465Y-136737566D01*
X77550106Y-136541118D01*
X77705624Y-136309887D01*
X77813043Y-136052759D01*
X77815533Y-136044520D01*
X77718354Y-135826500D01*
X76644500Y-135826500D01*
X76263500Y-135826500D01*
X76243500Y-135826500D01*
X76243500Y-135445500D01*
X76263500Y-135445500D01*
X76263500Y-135425500D01*
X76644500Y-135425500D01*
X76644500Y-135445500D01*
X77718354Y-135445500D01*
X77815533Y-135227480D01*
X77813043Y-135219241D01*
X77705624Y-134962113D01*
X77550106Y-134730882D01*
X77352465Y-134534434D01*
X77120296Y-134380319D01*
X77094005Y-134369522D01*
X77127333Y-134355717D01*
X77360153Y-134200151D01*
X77558151Y-134002153D01*
X77713717Y-133769333D01*
X77820873Y-133510636D01*
X77875500Y-133236006D01*
X77875500Y-132955994D01*
X77820873Y-132681364D01*
X77713717Y-132422667D01*
X77558151Y-132189847D01*
X77360153Y-131991849D01*
X77127333Y-131836283D01*
X77102508Y-131826000D01*
X77127333Y-131815717D01*
X77360153Y-131660151D01*
X77558151Y-131462153D01*
X77713717Y-131229333D01*
X77820873Y-130970636D01*
X77875500Y-130696006D01*
X77875500Y-130415994D01*
X77820873Y-130141364D01*
X77713717Y-129882667D01*
X77558151Y-129649847D01*
X77360153Y-129451849D01*
X77127333Y-129296283D01*
X77102508Y-129286000D01*
X77127333Y-129275717D01*
X77360153Y-129120151D01*
X77558151Y-128922153D01*
X77713717Y-128689333D01*
X77820873Y-128430636D01*
X77875500Y-128156006D01*
X77875500Y-127875994D01*
X77820873Y-127601364D01*
X77713717Y-127342667D01*
X77558151Y-127109847D01*
X77360153Y-126911849D01*
X77127333Y-126756283D01*
X77102508Y-126746000D01*
X77127333Y-126735717D01*
X77360153Y-126580151D01*
X77558151Y-126382153D01*
X77713717Y-126149333D01*
X77820873Y-125890636D01*
X77875500Y-125616006D01*
X77875500Y-125335994D01*
X77820873Y-125061364D01*
X77713717Y-124802667D01*
X77558151Y-124569847D01*
X77360153Y-124371849D01*
X77127333Y-124216283D01*
X77102508Y-124206000D01*
X77127333Y-124195717D01*
X77360153Y-124040151D01*
X77558151Y-123842153D01*
X77713717Y-123609333D01*
X77820873Y-123350636D01*
X77875500Y-123076006D01*
X77875500Y-122795994D01*
X77820873Y-122521364D01*
X77713717Y-122262667D01*
X77558151Y-122029847D01*
X77360153Y-121831849D01*
X77127333Y-121676283D01*
X77094005Y-121662478D01*
X77120296Y-121651681D01*
X77352465Y-121497566D01*
X77550106Y-121301118D01*
X77705624Y-121069887D01*
X77813043Y-120812759D01*
X77815533Y-120804520D01*
X77718354Y-120586500D01*
X76644500Y-120586500D01*
X76644500Y-120606500D01*
X76263500Y-120606500D01*
X76263500Y-120586500D01*
X76243500Y-120586500D01*
X76243500Y-120205500D01*
X76263500Y-120205500D01*
X76263500Y-120185500D01*
X76644500Y-120185500D01*
X76644500Y-120205500D01*
X77718354Y-120205500D01*
X77815533Y-119987480D01*
X77813043Y-119979241D01*
X77705624Y-119722113D01*
X77550106Y-119490882D01*
X77352465Y-119294434D01*
X77120296Y-119140319D01*
X77094005Y-119129522D01*
X77127333Y-119115717D01*
X77360153Y-118960151D01*
X77558151Y-118762153D01*
X77713717Y-118529333D01*
X77820873Y-118270636D01*
X77875500Y-117996006D01*
X77875500Y-117715994D01*
X77820873Y-117441364D01*
X77713717Y-117182667D01*
X77558151Y-116949847D01*
X77360153Y-116751849D01*
X77327917Y-116730309D01*
X86103066Y-116730309D01*
X86106125Y-116980754D01*
X86157985Y-117225790D01*
X86241939Y-117428473D01*
X86450275Y-117496317D01*
X87106592Y-116840000D01*
X86450275Y-116183683D01*
X86241939Y-116251527D01*
X86148925Y-116484079D01*
X86103066Y-116730309D01*
X77327917Y-116730309D01*
X77127333Y-116596283D01*
X76868636Y-116489127D01*
X76594006Y-116434500D01*
X76313994Y-116434500D01*
X76039364Y-116489127D01*
X75780667Y-116596283D01*
X75547847Y-116751849D01*
X75349849Y-116949847D01*
X75334933Y-116972170D01*
X75327231Y-116893966D01*
X75294552Y-116786238D01*
X75241484Y-116686955D01*
X75170067Y-116599933D01*
X75083045Y-116528516D01*
X74983762Y-116475448D01*
X74876034Y-116442769D01*
X74764000Y-116431735D01*
X73064000Y-116431735D01*
X72951966Y-116442769D01*
X72844238Y-116475448D01*
X72744955Y-116528516D01*
X72657933Y-116599933D01*
X72586516Y-116686955D01*
X72533448Y-116786238D01*
X72500769Y-116893966D01*
X72489735Y-117006000D01*
X71462500Y-117006000D01*
X71462500Y-111281172D01*
X71492645Y-110973732D01*
X71573458Y-110706064D01*
X71704723Y-110459190D01*
X71881440Y-110242514D01*
X72096879Y-110064288D01*
X72342829Y-109931303D01*
X72609928Y-109848621D01*
X72915546Y-109816500D01*
X86042500Y-109816500D01*
X86042500Y-115570000D01*
G37*
%TD.AperFunction*%
%TD*%
M02*
