999
"DXF R12 Output" (www.mydxf.blogspot.com)
 0 
SECTION
 2 
HEADER
 9 
$ACADVER
 1 
AC1009
 9 
$EXTMIN
 10 
 0 
 20 
 0 
 9 
$EXTMAX
 10 
 8.5 
 20 
 11 
 0 
ENDSEC
 0 
SECTION
 2 
ENTITIES
0
LINE
8
Layer 1
10
163.689000
20
-238.195000
11
328.224000
21
-77.328800
0
LINE
8
Layer 1
10
328.224000
20
-77.328800
11
163.689000
21
83.820000
0
LINE
8
Layer 1
10
163.689000
20
83.820000
11
-1.128890
21
-77.328800
0
LINE
8
Layer 1
10
-1.128890
20
-77.328800
11
163.689000
21
-238.195000
0
LINE
8
Layer 1
10
163.689000
20
-238.195000
11
163.689000
21
-238.195000
0
LINE
8
Layer 1
10
2.257780
20
-234.526000
11
320.886000
21
-234.526000
0
LINE
8
Layer 1
10
320.886000
20
-234.526000
11
320.886000
21
83.820000
0
LINE
8
Layer 1
10
320.886000
20
83.820000
11
2.257780
21
83.820000
0
LINE
8
Layer 1
10
2.257780
20
83.820000
11
2.257780
21
-234.526000
0
LINE
8
Layer 1
10
2.257780
20
-234.526000
11
2.257780
21
-234.526000
0
LINE
8
Layer 1
10
49.106600
20
83.820000
11
169.898000
21
-124.742000
0
LINE
8
Layer 1
10
169.898000
20
-124.742000
11
49.106600
21
-334.151000
0
LINE
8
Layer 1
10
49.106600
20
-334.151000
11
410.915000
21
-124.742000
0
LINE
8
Layer 1
10
410.915000
20
-124.742000
11
49.106600
21
83.820000
0
LINE
8
Layer 1
10
49.106600
20
83.820000
11
49.106600
21
83.820000
0
LINE
8
Layer 1
10
383.257000
20
-124.742000
11
87.206600
21
-296.051000
0
LINE
8
Layer 1
10
87.206600
20
-296.051000
11
185.984000
21
-124.742000
0
LINE
8
Layer 1
10
185.984000
20
-124.742000
11
383.257000
21
-124.742000
0
LINE
8
Layer 1
10
383.257000
20
-124.742000
11
383.257000
21
-124.742000
0
LINE
8
Layer 1
10
568.677000
20
-124.742000
11
360.115000
21
83.820000
0
LINE
8
Layer 1
10
360.115000
20
83.820000
11
202.353000
21
83.820000
0
LINE
8
Layer 1
10
202.353000
20
83.820000
11
355.600000
21
-69.426500
0
LINE
8
Layer 1
10
355.600000
20
-69.426500
11
49.106600
21
-69.426500
0
LINE
8
Layer 1
10
49.106600
20
-69.426500
11
49.106600
21
-180.340000
0
LINE
8
Layer 1
10
49.106600
20
-180.340000
11
355.600000
21
-180.340000
0
LINE
8
Layer 1
10
355.600000
20
-180.340000
11
202.353000
21
-334.151000
0
LINE
8
Layer 1
10
202.353000
20
-334.151000
11
359.551000
21
-334.151000
0
LINE
8
Layer 1
10
359.551000
20
-334.151000
11
568.677000
21
-124.742000
0
LINE
8
Layer 1
10
568.677000
20
-124.742000
11
568.677000
21
-124.742000
0
LINE
8
Layer 1
10
0.000000
20
84.384400
11
-1.578677
21
81.156514
0
LINE
8
Layer 1
10
-1.578677
20
81.156514
11
-3.316106
21
78.246112
0
LINE
8
Layer 1
10
-3.316106
20
78.246112
11
-5.159370
21
75.653205
0
LINE
8
Layer 1
10
-5.159370
20
75.653205
11
-7.055550
21
73.377800
0
LINE
8
Layer 1
10
-7.055550
20
73.377800
11
100.471000
21
-76.199900
0
LINE
8
Layer 1
10
100.471000
20
-76.199900
11
70.626050
21
-157.691487
0
LINE
8
Layer 1
10
70.626050
20
-157.691487
11
60.677700
21
-185.420000
0
LINE
8
Layer 1
10
60.677700
20
-185.420000
11
60.850231
21
-187.906354
0
LINE
8
Layer 1
10
60.850231
20
-187.906354
11
61.370028
21
-190.071953
0
LINE
8
Layer 1
10
61.370028
20
-190.071953
11
62.240399
21
-191.913482
0
LINE
8
Layer 1
10
62.240399
20
-191.913482
11
63.464650
21
-193.427625
0
LINE
8
Layer 1
10
63.464650
20
-193.427625
11
65.046089
21
-194.611064
0
LINE
8
Layer 1
10
65.046089
20
-194.611064
11
66.988022
21
-195.460484
0
LINE
8
Layer 1
10
66.988022
20
-195.460484
11
69.293757
21
-195.972568
0
LINE
8
Layer 1
10
69.293757
20
-195.972568
11
71.966600
21
-196.144000
0
LINE
8
Layer 1
10
71.966600
20
-196.144000
11
74.021536
21
-196.042641
0
LINE
8
Layer 1
10
74.021536
20
-196.042641
11
76.341063
21
-195.756125
0
LINE
8
Layer 1
10
76.341063
20
-195.756125
11
81.562200
21
-194.733000
0
LINE
8
Layer 1
10
81.562200
20
-194.733000
11
86.015986
21
-195.795844
0
LINE
8
Layer 1
10
86.015986
20
-195.795844
11
90.522712
21
-197.308500
0
LINE
8
Layer 1
10
90.522712
20
-197.308500
11
95.135283
21
-199.297406
0
LINE
8
Layer 1
10
95.135283
20
-199.297406
11
99.906600
21
-201.789000
0
LINE
8
Layer 1
10
99.906600
20
-201.789000
11
107.527000
21
-198.120000
0
LINE
8
Layer 1
10
107.527000
20
-198.120000
11
138.853000
21
-127.282000
0
LINE
8
Layer 1
10
138.853000
20
-127.282000
11
217.875000
21
-212.231000
0
LINE
8
Layer 1
10
217.875000
20
-212.231000
11
235.938000
21
-205.175000
0
LINE
8
Layer 1
10
235.938000
20
-205.175000
11
242.711000
21
-212.231000
0
LINE
8
Layer 1
10
242.711000
20
-212.231000
11
247.112031
21
-209.898391
0
LINE
8
Layer 1
10
247.112031
20
-209.898391
11
251.460000
21
-207.115875
0
LINE
8
Layer 1
10
251.460000
20
-207.115875
11
255.807969
21
-203.856922
0
LINE
8
Layer 1
10
255.807969
20
-203.856922
11
260.209000
21
-200.095000
0
LINE
8
Layer 1
10
260.209000
20
-200.095000
11
256.201086
21
-192.726482
0
LINE
8
Layer 1
10
256.201086
20
-192.726482
11
251.799563
21
-185.225672
0
LINE
8
Layer 1
10
251.799563
20
-185.225672
11
247.007758
21
-177.592557
0
LINE
8
Layer 1
10
247.007758
20
-177.592557
11
241.829000
21
-169.827125
0
LINE
8
Layer 1
10
241.829000
20
-169.827125
11
236.266617
21
-161.929365
0
LINE
8
Layer 1
10
236.266617
20
-161.929365
11
230.323937
21
-153.899266
0
LINE
8
Layer 1
10
230.323937
20
-153.899266
11
224.004289
21
-145.736814
0
LINE
8
Layer 1
10
224.004289
20
-145.736814
11
217.311000
21
-137.442000
0
LINE
8
Layer 1
10
217.311000
20
-137.442000
11
167.640000
21
-80.997600
0
LINE
8
Layer 1
10
167.640000
20
-80.997600
11
218.440000
21
20.884500
0
LINE
8
Layer 1
10
218.440000
20
20.884500
11
218.162174
21
23.755228
0
LINE
8
Layer 1
10
218.162174
20
23.755228
11
217.328703
21
26.652412
0
LINE
8
Layer 1
10
217.328703
20
26.652412
11
215.939600
21
29.576053
0
LINE
8
Layer 1
10
215.939600
20
29.576053
11
213.994875
21
32.526150
0
LINE
8
Layer 1
10
213.994875
20
32.526150
11
211.494541
21
35.502703
0
LINE
8
Layer 1
10
211.494541
20
35.502703
11
208.438609
21
38.505713
0
LINE
8
Layer 1
10
208.438609
20
38.505713
11
204.827092
21
41.535178
0
LINE
8
Layer 1
10
204.827092
20
41.535178
11
200.660000
21
44.591100
0
LINE
8
Layer 1
10
200.660000
20
44.591100
11
205.175000
21
50.235600
0
LINE
8
Layer 1
10
205.175000
20
50.235600
11
204.010355
21
53.106865
0
LINE
8
Layer 1
10
204.010355
20
53.106865
11
202.630719
21
55.584566
0
LINE
8
Layer 1
10
202.630719
20
55.584566
11
201.032785
21
57.672008
0
LINE
8
Layer 1
10
201.032785
20
57.672008
11
199.213250
21
59.372500
0
LINE
8
Layer 1
10
199.213250
20
59.372500
11
197.168809
21
60.689348
0
LINE
8
Layer 1
10
197.168809
20
60.689348
11
194.896156
21
61.625859
0
LINE
8
Layer 1
10
194.896156
20
61.625859
11
192.391988
21
62.185341
0
LINE
8
Layer 1
10
192.391988
20
62.185341
11
189.653000
21
62.371100
0
LINE
8
Layer 1
10
189.653000
20
62.371100
11
188.799694
21
62.286773
0
LINE
8
Layer 1
10
188.799694
20
62.286773
11
187.880143
21
62.033826
0
LINE
8
Layer 1
10
187.880143
20
62.033826
11
185.841893
21
61.022279
0
LINE
8
Layer 1
10
185.841893
20
61.022279
11
183.537419
21
59.336873
0
LINE
8
Layer 1
10
183.537419
20
59.336873
11
180.965891
21
56.978020
0
LINE
8
Layer 1
10
180.965891
20
56.978020
11
178.126478
21
53.946135
0
LINE
8
Layer 1
10
178.126478
20
53.946135
11
175.018350
21
50.241629
0
LINE
8
Layer 1
10
175.018350
20
50.241629
11
171.640676
21
45.864918
0
LINE
8
Layer 1
10
171.640676
20
45.864918
11
167.992625
21
40.816412
0
LINE
8
Layer 1
10
167.992625
20
40.816412
11
159.882072
21
28.705675
0
LINE
8
Layer 1
10
159.882072
20
28.705675
11
150.680047
21
13.912723
0
LINE
8
Layer 1
10
150.680047
20
13.912723
11
140.379904
21
-3.559137
0
LINE
8
Layer 1
10
140.379904
20
-3.559137
11
128.975000
21
-23.706600
0
LINE
8
Layer 1
10
128.975000
20
-23.706600
11
46.284400
21
105.269000
0
LINE
8
Layer 1
10
46.284400
20
105.269000
11
43.837551
21
108.642264
0
LINE
8
Layer 1
10
43.837551
20
108.642264
11
41.155886
21
111.565797
0
LINE
8
Layer 1
10
41.155886
20
111.565797
11
38.242712
21
114.039588
0
LINE
8
Layer 1
10
38.242712
20
114.039588
11
35.101337
21
116.063625
0
LINE
8
Layer 1
10
35.101337
20
116.063625
11
31.735071
21
117.637896
0
LINE
8
Layer 1
10
31.735071
20
117.637896
11
28.147220
21
118.762391
0
LINE
8
Layer 1
10
28.147220
20
118.762391
11
24.341094
21
119.437096
0
LINE
8
Layer 1
10
24.341094
20
119.437096
11
20.320000
21
119.662000
0
LINE
8
Layer 1
10
20.320000
20
119.662000
11
16.152259
21
119.437096
0
LINE
8
Layer 1
10
16.152259
20
119.437096
11
12.536837
21
118.762391
0
LINE
8
Layer 1
10
12.536837
20
118.762391
11
10.935213
21
118.256366
0
LINE
8
Layer 1
10
10.935213
20
118.256366
11
9.470427
21
117.637896
0
LINE
8
Layer 1
10
9.470427
20
117.637896
11
8.142067
21
116.906982
0
LINE
8
Layer 1
10
8.142067
20
116.906982
11
6.949720
21
116.063625
0
LINE
8
Layer 1
10
6.949720
20
116.063625
11
5.892972
21
115.107826
0
LINE
8
Layer 1
10
5.892972
20
115.107826
11
4.971409
21
114.039588
0
LINE
8
Layer 1
10
4.971409
20
114.039588
11
4.184619
21
112.858911
0
LINE
8
Layer 1
10
4.184619
20
112.858911
11
3.532188
21
111.565797
0
LINE
8
Layer 1
10
3.532188
20
111.565797
11
3.013701
21
110.160247
0
LINE
8
Layer 1
10
3.013701
20
110.160247
11
2.628747
21
108.642264
0
LINE
8
Layer 1
10
2.628747
20
108.642264
11
2.257780
21
105.269000
0
LINE
8
Layer 1
10
2.257780
20
105.269000
11
1.569311
21
104.237669
0
LINE
8
Layer 1
10
1.569311
20
104.237669
11
0.983369
21
103.050884
0
LINE
8
Layer 1
10
0.983369
20
103.050884
11
0.105834
21
100.224200
0
LINE
8
Layer 1
10
0.105834
20
100.224200
11
-0.401284
21
96.815441
0
LINE
8
Layer 1
10
-0.401284
20
96.815441
11
-0.564444
21
92.851100
0
LINE
8
Layer 1
10
-0.564444
20
92.851100
11
-0.388055
21
88.829438
0
LINE
8
Layer 1
10
-0.388055
20
88.829438
11
0.000000
21
84.384400
0
LINE
8
Layer 1
10
0.000000
20
84.384400
11
0.000000
21
84.384400
0
LINE
8
Layer 1
10
80.433300
20
93.133300
11
75.088852
21
92.924941
0
LINE
8
Layer 1
10
75.088852
20
92.924941
11
69.956898
21
92.299863
0
LINE
8
Layer 1
10
69.956898
20
92.299863
11
65.038264
21
91.258066
0
LINE
8
Layer 1
10
65.038264
20
91.258066
11
60.333777
21
89.799552
0
LINE
8
Layer 1
10
60.333777
20
89.799552
11
55.844264
21
87.924319
0
LINE
8
Layer 1
10
55.844264
20
87.924319
11
51.570551
21
85.632368
0
LINE
8
Layer 1
10
51.570551
20
85.632368
11
47.513467
21
82.923699
0
LINE
8
Layer 1
10
47.513467
20
82.923699
11
43.673838
21
79.798313
0
LINE
8
Layer 1
10
43.673838
20
79.798313
11
40.052490
21
76.256208
0
LINE
8
Layer 1
10
40.052490
20
76.256208
11
36.650250
21
72.297387
0
LINE
8
Layer 1
10
36.650250
20
72.297387
11
33.467946
21
67.921848
0
LINE
8
Layer 1
10
33.467946
20
67.921848
11
30.506405
21
63.129592
0
LINE
8
Layer 1
10
30.506405
20
63.129592
11
27.766452
21
57.920619
0
LINE
8
Layer 1
10
27.766452
20
57.920619
11
25.248916
21
52.294929
0
LINE
8
Layer 1
10
25.248916
20
52.294929
11
22.954623
21
46.252523
0
LINE
8
Layer 1
10
22.954623
20
46.252523
11
20.884400
21
39.793400
0
LINE
8
Layer 1
10
20.884400
20
39.793400
11
18.701586
21
31.736839
0
LINE
8
Layer 1
10
18.701586
20
31.736839
11
16.809817
21
22.807155
0
LINE
8
Layer 1
10
16.809817
20
22.807155
11
15.209093
21
13.004346
0
LINE
8
Layer 1
10
15.209093
20
13.004346
11
13.899413
21
2.328413
0
LINE
8
Layer 1
10
13.899413
20
2.328413
11
12.880774
21
-9.220648
0
LINE
8
Layer 1
10
12.880774
20
-9.220648
11
12.153177
21
-21.642836
0
LINE
8
Layer 1
10
12.153177
20
-21.642836
11
11.716619
21
-34.938153
0
LINE
8
Layer 1
10
11.716619
20
-34.938153
11
11.571100
21
-49.106600
0
LINE
8
Layer 1
10
11.571100
20
-49.106600
11
11.755757
21
-57.216068
0
LINE
8
Layer 1
10
11.755757
20
-57.216068
11
12.307522
21
-65.034495
0
LINE
8
Layer 1
10
12.307522
20
-65.034495
11
13.223089
21
-72.561878
0
LINE
8
Layer 1
10
13.223089
20
-72.561878
11
14.499150
21
-79.798213
0
LINE
8
Layer 1
10
14.499150
20
-79.798213
11
16.132399
21
-86.743496
0
LINE
8
Layer 1
10
16.132399
20
-86.743496
11
18.119528
21
-93.397723
0
LINE
8
Layer 1
10
18.119528
20
-93.397723
11
20.457231
21
-99.760893
0
LINE
8
Layer 1
10
20.457231
20
-99.760893
11
23.142200
21
-105.833000
0
LINE
8
Layer 1
10
23.142200
20
-105.833000
11
25.004143
21
-109.471131
0
LINE
8
Layer 1
10
25.004143
20
-109.471131
11
26.991348
21
-112.871551
0
LINE
8
Layer 1
10
26.991348
20
-112.871551
11
29.103400
21
-116.034671
0
LINE
8
Layer 1
10
29.103400
20
-116.034671
11
31.339887
21
-118.960906
0
LINE
8
Layer 1
10
31.339887
20
-118.960906
11
33.700397
21
-121.650668
0
LINE
8
Layer 1
10
33.700397
20
-121.650668
11
36.184515
21
-124.104371
0
LINE
8
Layer 1
10
36.184515
20
-124.104371
11
38.791829
21
-126.322427
0
LINE
8
Layer 1
10
38.791829
20
-126.322427
11
41.521925
21
-128.305250
0
LINE
8
Layer 1
10
41.521925
20
-128.305250
11
44.374391
21
-130.053252
0
LINE
8
Layer 1
10
44.374391
20
-130.053252
11
47.348813
21
-131.566848
0
LINE
8
Layer 1
10
47.348813
20
-131.566848
11
50.444779
21
-132.846449
0
LINE
8
Layer 1
10
50.444779
20
-132.846449
11
53.661875
21
-133.892469
0
LINE
8
Layer 1
10
53.661875
20
-133.892469
11
56.999688
21
-134.705321
0
LINE
8
Layer 1
10
56.999688
20
-134.705321
11
60.457805
21
-135.285418
0
LINE
8
Layer 1
10
60.457805
20
-135.285418
11
64.035814
21
-135.633173
0
LINE
8
Layer 1
10
64.035814
20
-135.633173
11
67.733300
21
-135.749000
0
LINE
8
Layer 1
10
67.733300
20
-135.749000
11
70.478408
21
-135.646404
0
LINE
8
Layer 1
10
70.478408
20
-135.646404
11
73.104868
21
-135.338340
0
LINE
8
Layer 1
10
73.104868
20
-135.338340
11
75.613095
21
-134.824395
0
LINE
8
Layer 1
10
75.613095
20
-134.824395
11
78.003502
21
-134.104156
0
LINE
8
Layer 1
10
78.003502
20
-134.104156
11
80.276501
21
-133.177210
0
LINE
8
Layer 1
10
80.276501
20
-133.177210
11
82.432506
21
-132.043145
0
LINE
8
Layer 1
10
82.432506
20
-132.043145
11
84.471931
21
-130.701545
0
LINE
8
Layer 1
10
84.471931
20
-130.701545
11
86.395187
21
-129.152000
0
LINE
8
Layer 1
10
86.395187
20
-129.152000
11
88.202690
21
-127.394095
0
LINE
8
Layer 1
10
88.202690
20
-127.394095
11
89.894852
21
-125.427418
0
LINE
8
Layer 1
10
89.894852
20
-125.427418
11
91.472086
21
-123.251555
0
LINE
8
Layer 1
10
91.472086
20
-123.251555
11
92.934805
21
-120.866094
0
LINE
8
Layer 1
10
92.934805
20
-120.866094
11
94.283422
21
-118.270621
0
LINE
8
Layer 1
10
94.283422
20
-118.270621
11
95.518352
21
-115.464723
0
LINE
8
Layer 1
10
95.518352
20
-115.464723
11
96.640007
21
-112.447987
0
LINE
8
Layer 1
10
96.640007
20
-112.447987
11
97.648800
21
-109.220000
0
LINE
8
Layer 1
10
97.648800
20
-109.220000
11
104.140000
21
-59.548800
0
LINE
8
Layer 1
10
104.140000
20
-59.548800
11
105.144920
21
-53.186127
0
LINE
8
Layer 1
10
105.144920
20
-53.186127
11
106.463984
21
-47.646963
0
LINE
8
Layer 1
10
106.463984
20
-47.646963
11
108.093900
21
-42.934617
0
LINE
8
Layer 1
10
108.093900
20
-42.934617
11
109.024399
21
-40.889536
0
LINE
8
Layer 1
10
109.024399
20
-40.889536
11
110.031375
21
-39.052400
0
LINE
8
Layer 1
10
110.031375
20
-39.052400
11
111.114418
21
-37.423624
0
LINE
8
Layer 1
10
111.114418
20
-37.423624
11
112.273115
21
-36.003620
0
LINE
8
Layer 1
10
112.273115
20
-36.003620
11
113.507056
21
-34.792804
0
LINE
8
Layer 1
10
113.507056
20
-34.792804
11
114.815828
21
-33.791587
0
LINE
8
Layer 1
10
114.815828
20
-33.791587
11
116.199020
21
-33.000385
0
LINE
8
Layer 1
10
116.199020
20
-33.000385
11
117.656221
21
-32.419611
0
LINE
8
Layer 1
10
117.656221
20
-32.419611
11
119.187018
21
-32.049678
0
LINE
8
Layer 1
10
119.187018
20
-32.049678
11
120.791000
21
-31.891000
0
LINE
8
Layer 1
10
120.791000
20
-31.891000
11
328.224000
21
-231.140000
0
LINE
8
Layer 1
10
328.224000
20
-231.140000
11
329.533875
21
-232.237352
0
LINE
8
Layer 1
10
329.533875
20
-232.237352
11
331.134750
21
-233.199188
0
LINE
8
Layer 1
10
331.134750
20
-233.199188
11
333.026625
21
-234.022180
0
LINE
8
Layer 1
10
333.026625
20
-234.022180
11
335.209500
21
-234.703000
0
LINE
8
Layer 1
10
335.209500
20
-234.703000
11
337.683375
21
-235.238320
0
LINE
8
Layer 1
10
337.683375
20
-235.238320
11
340.448250
21
-235.624812
0
LINE
8
Layer 1
10
340.448250
20
-235.624812
11
343.504125
21
-235.859148
0
LINE
8
Layer 1
10
343.504125
20
-235.859148
11
346.851000
21
-235.938000
0
LINE
8
Layer 1
10
346.851000
20
-235.938000
11
351.018092
21
-235.738982
0
LINE
8
Layer 1
10
351.018092
20
-235.738982
11
354.629609
21
-235.139734
0
LINE
8
Layer 1
10
354.629609
20
-235.139734
11
357.685541
21
-234.136963
0
LINE
8
Layer 1
10
357.685541
20
-234.136963
11
359.005158
21
-233.483227
0
LINE
8
Layer 1
10
359.005158
20
-233.483227
11
360.185875
21
-232.727375
0
LINE
8
Layer 1
10
360.185875
20
-232.727375
11
361.227689
21
-231.868996
0
LINE
8
Layer 1
10
361.227689
20
-231.868996
11
362.130600
21
-230.907678
0
LINE
8
Layer 1
10
362.130600
20
-230.907678
11
362.894605
21
-229.843009
0
LINE
8
Layer 1
10
362.894605
20
-229.843009
11
363.519703
21
-228.674578
0
LINE
8
Layer 1
10
363.519703
20
-228.674578
11
364.005893
21
-227.401973
0
LINE
8
Layer 1
10
364.005893
20
-227.401973
11
364.353174
21
-226.024783
0
LINE
8
Layer 1
10
364.353174
20
-226.024783
11
364.631000
21
-222.955000
0
LINE
8
Layer 1
10
364.631000
20
-222.955000
11
364.631000
21
-188.524000
0
LINE
8
Layer 1
10
364.631000
20
-188.524000
11
364.498717
21
-184.819844
0
LINE
8
Layer 1
10
364.498717
20
-184.819844
11
364.101859
21
-181.327375
0
LINE
8
Layer 1
10
364.101859
20
-181.327375
11
363.440416
21
-178.046594
0
LINE
8
Layer 1
10
363.440416
20
-178.046594
11
362.514375
21
-174.977500
0
LINE
8
Layer 1
10
362.514375
20
-174.977500
11
361.323725
21
-172.120094
0
LINE
8
Layer 1
10
361.323725
20
-172.120094
11
359.868453
21
-169.474375
0
LINE
8
Layer 1
10
359.868453
20
-169.474375
11
358.148549
21
-167.040344
0
LINE
8
Layer 1
10
358.148549
20
-167.040344
11
356.164000
21
-164.818000
0
LINE
8
Layer 1
10
356.164000
20
-164.818000
11
124.742000
21
70.555600
0
LINE
8
Layer 1
10
124.742000
20
70.555600
11
119.238280
21
75.820231
0
LINE
8
Layer 1
10
119.238280
20
75.820231
11
113.731177
21
80.393645
0
LINE
8
Layer 1
10
113.731177
20
80.393645
11
108.217401
21
84.272533
0
LINE
8
Layer 1
10
108.217401
20
84.272533
11
105.456982
21
85.950496
0
LINE
8
Layer 1
10
105.456982
20
85.950496
11
102.693662
21
87.453587
0
LINE
8
Layer 1
10
102.693662
20
87.453587
11
99.927030
21
88.781393
0
LINE
8
Layer 1
10
99.927030
20
88.781393
11
97.156673
21
89.933499
0
LINE
8
Layer 1
10
97.156673
20
89.933499
11
94.382181
21
90.909493
0
LINE
8
Layer 1
10
94.382181
20
90.909493
11
91.603142
21
91.708961
0
LINE
8
Layer 1
10
91.603142
20
91.708961
11
88.819146
21
92.331489
0
LINE
8
Layer 1
10
88.819146
20
92.331489
11
86.029781
21
92.776664
0
LINE
8
Layer 1
10
86.029781
20
92.776664
11
83.234636
21
93.044072
0
LINE
8
Layer 1
10
83.234636
20
93.044072
11
80.433300
21
93.133300
0
LINE
8
Layer 1
10
80.433300
20
93.133300
11
80.433300
21
93.133300
0
LINE
8
Layer 1
10
229.446000
20
83.820000
11
219.993739
21
83.641475
0
LINE
8
Layer 1
10
219.993739
20
83.641475
11
210.792430
21
83.106176
0
LINE
8
Layer 1
10
210.792430
20
83.106176
11
201.841655
21
82.214517
0
LINE
8
Layer 1
10
201.841655
20
82.214517
11
193.141000
21
80.966911
0
LINE
8
Layer 1
10
193.141000
20
80.966911
11
184.690048
21
79.363771
0
LINE
8
Layer 1
10
184.690048
20
79.363771
11
176.488383
21
77.405512
0
LINE
8
Layer 1
10
176.488383
20
77.405512
11
168.535589
21
75.092546
0
LINE
8
Layer 1
10
168.535589
20
75.092546
11
160.831250
21
72.425287
0
LINE
8
Layer 1
10
160.831250
20
72.425287
11
153.374950
21
69.404150
0
LINE
8
Layer 1
10
153.374950
20
69.404150
11
146.166273
21
66.029546
0
LINE
8
Layer 1
10
146.166273
20
66.029546
11
139.204804
21
62.301890
0
LINE
8
Layer 1
10
139.204804
20
62.301890
11
132.490125
21
58.221595
0
LINE
8
Layer 1
10
132.490125
20
58.221595
11
126.021821
21
53.789075
0
LINE
8
Layer 1
10
126.021821
20
53.789075
11
119.799477
21
49.004744
0
LINE
8
Layer 1
10
119.799477
20
49.004744
11
113.822675
21
43.869014
0
LINE
8
Layer 1
10
113.822675
20
43.869014
11
108.091000
21
38.382300
0
LINE
8
Layer 1
10
108.091000
20
38.382300
11
102.607455
21
32.601013
0
LINE
8
Layer 1
10
102.607455
20
32.601013
11
97.480682
21
26.580777
0
LINE
8
Layer 1
10
97.480682
20
26.580777
11
92.710267
21
20.320764
0
LINE
8
Layer 1
10
92.710267
20
20.320764
11
88.295798
21
13.820147
0
LINE
8
Layer 1
10
88.295798
20
13.820147
11
84.236862
21
7.078099
0
LINE
8
Layer 1
10
84.236862
20
7.078099
11
80.533044
21
0.093793
0
LINE
8
Layer 1
10
80.533044
20
0.093793
11
77.183932
21
-7.133597
0
LINE
8
Layer 1
10
77.183932
20
-7.133597
11
74.189112
21
-14.604900
0
LINE
8
Layer 1
10
74.189112
20
-14.604900
11
71.548172
21
-22.320942
0
LINE
8
Layer 1
10
71.548172
20
-22.320942
11
69.260698
21
-30.282550
0
LINE
8
Layer 1
10
69.260698
20
-30.282550
11
67.326277
21
-38.490551
0
LINE
8
Layer 1
10
67.326277
20
-38.490551
11
65.744495
21
-46.945772
0
LINE
8
Layer 1
10
65.744495
20
-46.945772
11
64.514940
21
-55.649040
0
LINE
8
Layer 1
10
64.514940
20
-55.649040
11
63.637198
21
-64.601183
0
LINE
8
Layer 1
10
63.637198
20
-64.601183
11
63.110856
21
-73.803027
0
LINE
8
Layer 1
10
63.110856
20
-73.803027
11
62.935500
21
-83.255400
0
LINE
8
Layer 1
10
62.935500
20
-83.255400
11
63.110856
21
-92.707835
0
LINE
8
Layer 1
10
63.110856
20
-92.707835
11
63.637198
21
-101.909719
0
LINE
8
Layer 1
10
63.637198
20
-101.909719
11
64.514940
21
-110.861882
0
LINE
8
Layer 1
10
64.514940
20
-110.861882
11
65.744495
21
-119.565153
0
LINE
8
Layer 1
10
65.744495
20
-119.565153
11
67.326277
21
-128.020363
0
LINE
8
Layer 1
10
67.326277
20
-128.020363
11
69.260698
21
-136.228342
0
LINE
8
Layer 1
10
69.260698
20
-136.228342
11
71.548172
21
-144.189919
0
LINE
8
Layer 1
10
71.548172
20
-144.189919
11
74.189112
21
-151.905925
0
LINE
8
Layer 1
10
74.189112
20
-151.905925
11
77.183932
21
-159.377190
0
LINE
8
Layer 1
10
77.183932
20
-159.377190
11
80.533044
21
-166.604543
0
LINE
8
Layer 1
10
80.533044
20
-166.604543
11
84.236862
21
-173.588814
0
LINE
8
Layer 1
10
84.236862
20
-173.588814
11
88.295798
21
-180.330834
0
LINE
8
Layer 1
10
88.295798
20
-180.330834
11
92.710267
21
-186.831433
0
LINE
8
Layer 1
10
92.710267
20
-186.831433
11
97.480682
21
-193.091440
0
LINE
8
Layer 1
10
97.480682
20
-193.091440
11
102.607455
21
-199.111686
0
LINE
8
Layer 1
10
102.607455
20
-199.111686
11
108.091000
21
-204.893000
0
LINE
8
Layer 1
10
108.091000
20
-204.893000
11
113.822675
21
-210.379767
0
LINE
8
Layer 1
10
113.822675
20
-210.379767
11
119.799477
21
-215.515543
0
LINE
8
Layer 1
10
119.799477
20
-215.515543
11
126.021821
21
-220.299915
0
LINE
8
Layer 1
10
126.021821
20
-220.299915
11
132.490125
21
-224.732469
0
LINE
8
Layer 1
10
132.490125
20
-224.732469
11
139.204804
21
-228.812792
0
LINE
8
Layer 1
10
139.204804
20
-228.812792
11
146.166273
21
-232.540473
0
LINE
8
Layer 1
10
146.166273
20
-232.540473
11
153.374950
21
-235.915096
0
LINE
8
Layer 1
10
153.374950
20
-235.915096
11
160.831250
21
-238.936250
0
LINE
8
Layer 1
10
160.831250
20
-238.936250
11
168.535589
21
-241.603521
0
LINE
8
Layer 1
10
168.535589
20
-241.603521
11
176.488383
21
-243.916496
0
LINE
8
Layer 1
10
176.488383
20
-243.916496
11
184.690048
21
-245.874762
0
LINE
8
Layer 1
10
184.690048
20
-245.874762
11
193.141000
21
-247.477906
0
LINE
8
Layer 1
10
193.141000
20
-247.477906
11
201.841655
21
-248.725515
0
LINE
8
Layer 1
10
201.841655
20
-248.725515
11
210.792430
21
-249.617176
0
LINE
8
Layer 1
10
210.792430
20
-249.617176
11
219.993739
21
-250.152475
0
LINE
8
Layer 1
10
219.993739
20
-250.152475
11
229.446000
21
-250.331000
0
LINE
8
Layer 1
10
229.446000
20
-250.331000
11
238.802367
21
-250.152475
0
LINE
8
Layer 1
10
238.802367
20
-250.152475
11
247.927219
21
-249.617176
0
LINE
8
Layer 1
10
247.927219
20
-249.617176
11
256.820555
21
-248.725515
0
LINE
8
Layer 1
10
256.820555
20
-248.725515
11
265.482375
21
-247.477906
0
LINE
8
Layer 1
10
265.482375
20
-247.477906
11
273.912680
21
-245.874762
0
LINE
8
Layer 1
10
273.912680
20
-245.874762
11
282.111469
21
-243.916496
0
LINE
8
Layer 1
10
282.111469
20
-243.916496
11
290.078742
21
-241.603521
0
LINE
8
Layer 1
10
290.078742
20
-241.603521
11
297.814500
21
-238.936250
0
LINE
8
Layer 1
10
297.814500
20
-238.936250
11
305.318742
21
-235.915096
0
LINE
8
Layer 1
10
305.318742
20
-235.915096
11
312.591469
21
-232.540473
0
LINE
8
Layer 1
10
312.591469
20
-232.540473
11
319.632680
21
-228.812792
0
LINE
8
Layer 1
10
319.632680
20
-228.812792
11
326.442375
21
-224.732469
0
LINE
8
Layer 1
10
326.442375
20
-224.732469
11
333.020555
21
-220.299915
0
LINE
8
Layer 1
10
333.020555
20
-220.299915
11
339.367219
21
-215.515543
0
LINE
8
Layer 1
10
339.367219
20
-215.515543
11
345.482367
21
-210.379767
0
LINE
8
Layer 1
10
345.482367
20
-210.379767
11
351.366000
21
-204.893000
0
LINE
8
Layer 1
10
351.366000
20
-204.893000
11
356.902406
21
-199.108577
0
LINE
8
Layer 1
10
356.902406
20
-199.108577
11
362.081625
21
-193.079833
0
LINE
8
Layer 1
10
362.081625
20
-193.079833
11
366.903656
21
-186.807182
0
LINE
8
Layer 1
10
366.903656
20
-186.807182
11
371.368500
21
-180.291037
0
LINE
8
Layer 1
10
371.368500
20
-180.291037
11
375.476156
21
-173.531813
0
LINE
8
Layer 1
10
375.476156
20
-173.531813
11
379.226625
21
-166.529923
0
LINE
8
Layer 1
10
379.226625
20
-166.529923
11
382.619906
21
-159.285781
0
LINE
8
Layer 1
10
382.619906
20
-159.285781
11
385.656000
21
-151.799800
0
LINE
8
Layer 1
10
385.656000
20
-151.799800
11
388.334906
21
-144.072394
0
LINE
8
Layer 1
10
388.334906
20
-144.072394
11
390.656625
21
-136.103977
0
LINE
8
Layer 1
10
390.656625
20
-136.103977
11
392.621156
21
-127.894962
0
LINE
8
Layer 1
10
392.621156
20
-127.894962
11
394.228500
21
-119.445763
0
LINE
8
Layer 1
10
394.228500
20
-119.445763
11
395.478656
21
-110.756793
0
LINE
8
Layer 1
10
395.478656
20
-110.756793
11
396.371625
21
-101.828467
0
LINE
8
Layer 1
10
396.371625
20
-101.828467
11
396.907406
21
-92.661198
0
LINE
8
Layer 1
10
396.907406
20
-92.661198
11
397.086000
21
-83.255400
0
LINE
8
Layer 1
10
397.086000
20
-83.255400
11
396.907406
21
-73.849549
0
LINE
8
Layer 1
10
396.907406
20
-73.849549
11
396.371625
21
-64.682234
0
LINE
8
Layer 1
10
396.371625
20
-64.682234
11
395.478656
21
-55.753869
0
LINE
8
Layer 1
10
395.478656
20
-55.753869
11
394.228500
21
-47.064867
0
LINE
8
Layer 1
10
394.228500
20
-47.064867
11
392.621156
21
-38.615642
0
LINE
8
Layer 1
10
392.621156
20
-38.615642
11
390.656625
21
-30.406607
0
LINE
8
Layer 1
10
390.656625
20
-30.406607
11
388.334906
21
-22.438176
0
LINE
8
Layer 1
10
388.334906
20
-22.438176
11
385.656000
21
-14.710763
0
LINE
8
Layer 1
10
385.656000
20
-14.710763
11
382.619906
21
-7.224780
0
LINE
8
Layer 1
10
382.619906
20
-7.224780
11
379.226625
21
0.019359
0
LINE
8
Layer 1
10
379.226625
20
0.019359
11
375.476156
21
7.021239
0
LINE
8
Layer 1
10
375.476156
20
7.021239
11
371.368500
21
13.780448
0
LINE
8
Layer 1
10
371.368500
20
13.780448
11
366.903656
21
20.296573
0
LINE
8
Layer 1
10
366.903656
20
20.296573
11
362.081625
21
26.569198
0
LINE
8
Layer 1
10
362.081625
20
26.569198
11
356.902406
21
32.597912
0
LINE
8
Layer 1
10
356.902406
20
32.597912
11
351.366000
21
38.382300
0
LINE
8
Layer 1
10
351.366000
20
38.382300
11
345.482367
21
43.869014
0
LINE
8
Layer 1
10
345.482367
20
43.869014
11
339.367219
21
49.004744
0
LINE
8
Layer 1
10
339.367219
20
49.004744
11
333.020555
21
53.789075
0
LINE
8
Layer 1
10
333.020555
20
53.789075
11
326.442375
21
58.221595
0
LINE
8
Layer 1
10
326.442375
20
58.221595
11
319.632680
21
62.301890
0
LINE
8
Layer 1
10
319.632680
20
62.301890
11
312.591469
21
66.029546
0
LINE
8
Layer 1
10
312.591469
20
66.029546
11
305.318742
21
69.404150
0
LINE
8
Layer 1
10
305.318742
20
69.404150
11
297.814500
21
72.425287
0
LINE
8
Layer 1
10
297.814500
20
72.425287
11
290.078742
21
75.092546
0
LINE
8
Layer 1
10
290.078742
20
75.092546
11
282.111469
21
77.405512
0
LINE
8
Layer 1
10
282.111469
20
77.405512
11
273.912680
21
79.363771
0
LINE
8
Layer 1
10
273.912680
20
79.363771
11
265.482375
21
80.966911
0
LINE
8
Layer 1
10
265.482375
20
80.966911
11
256.820555
21
82.214517
0
LINE
8
Layer 1
10
256.820555
20
82.214517
11
247.927219
21
83.106176
0
LINE
8
Layer 1
10
247.927219
20
83.106176
11
238.802367
21
83.641475
0
LINE
8
Layer 1
10
238.802367
20
83.641475
11
229.446000
21
83.820000
0
LINE
8
Layer 1
10
229.446000
20
83.820000
11
229.446000
21
83.820000
0
LINE
8
Layer 1
10
97.648800
20
-45.155500
11
93.815722
21
-45.241489
0
LINE
8
Layer 1
10
93.815722
20
-45.241489
11
90.042589
21
-45.499455
0
LINE
8
Layer 1
10
90.042589
20
-45.499455
11
86.329813
21
-45.929399
0
LINE
8
Layer 1
10
86.329813
20
-45.929399
11
82.677809
21
-46.531322
0
LINE
8
Layer 1
10
82.677809
20
-46.531322
11
79.086990
21
-47.305223
0
LINE
8
Layer 1
10
79.086990
20
-47.305223
11
75.557769
21
-48.251103
0
LINE
8
Layer 1
10
75.557769
20
-48.251103
11
72.090560
21
-49.368962
0
LINE
8
Layer 1
10
72.090560
20
-49.368962
11
68.685775
21
-50.658800
0
LINE
8
Layer 1
10
68.685775
20
-50.658800
11
65.343829
21
-52.120618
0
LINE
8
Layer 1
10
65.343829
20
-52.120618
11
62.065134
21
-53.754416
0
LINE
8
Layer 1
10
62.065134
20
-53.754416
11
58.850104
21
-55.560194
0
LINE
8
Layer 1
10
58.850104
20
-55.560194
11
55.699153
21
-57.537953
0
LINE
8
Layer 1
10
55.699153
20
-57.537953
11
52.612694
21
-59.687693
0
LINE
8
Layer 1
10
52.612694
20
-59.687693
11
49.591139
21
-62.009414
0
LINE
8
Layer 1
10
49.591139
20
-62.009414
11
46.634904
21
-64.503116
0
LINE
8
Layer 1
10
46.634904
20
-64.503116
11
43.744400
21
-67.168800
0
LINE
8
Layer 1
10
43.744400
20
-67.168800
11
40.976197
21
-69.907163
0
LINE
8
Layer 1
10
40.976197
20
-69.907163
11
38.386587
21
-72.724489
0
LINE
8
Layer 1
10
38.386587
20
-72.724489
11
35.975572
21
-75.620365
0
LINE
8
Layer 1
10
35.975572
20
-75.620365
11
33.743150
21
-78.594378
0
LINE
8
Layer 1
10
33.743150
20
-78.594378
11
31.689322
21
-81.646116
0
LINE
8
Layer 1
10
31.689322
20
-81.646116
11
29.814087
21
-84.775166
0
LINE
8
Layer 1
10
29.814087
20
-84.775166
11
28.117447
21
-87.981115
0
LINE
8
Layer 1
10
28.117447
20
-87.981115
11
26.599400
21
-91.263550
0
LINE
8
Layer 1
10
26.599400
20
-91.263550
11
25.259947
21
-94.622059
0
LINE
8
Layer 1
10
25.259947
20
-94.622059
11
24.099087
21
-98.056228
0
LINE
8
Layer 1
10
24.099087
20
-98.056228
11
23.116822
21
-101.565645
0
LINE
8
Layer 1
10
23.116822
20
-101.565645
11
22.313150
21
-105.149897
0
LINE
8
Layer 1
10
22.313150
20
-105.149897
11
21.688072
21
-108.808571
0
LINE
8
Layer 1
10
21.688072
20
-108.808571
11
21.241587
21
-112.541255
0
LINE
8
Layer 1
10
21.241587
20
-112.541255
11
20.973697
21
-116.347536
0
LINE
8
Layer 1
10
20.973697
20
-116.347536
11
20.884400
21
-120.227000
0
LINE
8
Layer 1
10
20.884400
20
-120.227000
11
20.973697
21
-124.056736
0
LINE
8
Layer 1
10
20.973697
20
-124.056736
11
21.241587
21
-127.819916
0
LINE
8
Layer 1
10
21.241587
20
-127.819916
11
21.688072
21
-131.516127
0
LINE
8
Layer 1
10
21.688072
20
-131.516127
11
22.313150
21
-135.144953
0
LINE
8
Layer 1
10
22.313150
20
-135.144953
11
23.116822
21
-138.705981
0
LINE
8
Layer 1
10
23.116822
20
-138.705981
11
24.099087
21
-142.198795
0
LINE
8
Layer 1
10
24.099087
20
-142.198795
11
25.259947
21
-145.622981
0
LINE
8
Layer 1
10
25.259947
20
-145.622981
11
26.599400
21
-148.978125
0
LINE
8
Layer 1
10
26.599400
20
-148.978125
11
28.117447
21
-152.263812
0
LINE
8
Layer 1
10
28.117447
20
-152.263812
11
29.814087
21
-155.479627
0
LINE
8
Layer 1
10
29.814087
20
-155.479627
11
31.689322
21
-158.625156
0
LINE
8
Layer 1
10
31.689322
20
-158.625156
11
33.743150
21
-161.699984
0
LINE
8
Layer 1
10
33.743150
20
-161.699984
11
35.975572
21
-164.703698
0
LINE
8
Layer 1
10
35.975572
20
-164.703698
11
38.386587
21
-167.635881
0
LINE
8
Layer 1
10
38.386587
20
-167.635881
11
40.976197
21
-170.496120
0
LINE
8
Layer 1
10
40.976197
20
-170.496120
11
43.744400
21
-173.284000
0
LINE
8
Layer 1
10
43.744400
20
-173.284000
11
46.634904
21
-175.949758
0
LINE
8
Layer 1
10
46.634904
20
-175.949758
11
49.591139
21
-178.443531
0
LINE
8
Layer 1
10
49.591139
20
-178.443531
11
52.612694
21
-180.765320
0
LINE
8
Layer 1
10
52.612694
20
-180.765320
11
55.699153
21
-182.915125
0
LINE
8
Layer 1
10
55.699153
20
-182.915125
11
58.850104
21
-184.892945
0
LINE
8
Layer 1
10
58.850104
20
-184.892945
11
62.065134
21
-186.698781
0
LINE
8
Layer 1
10
62.065134
20
-186.698781
11
65.343829
21
-188.332633
0
LINE
8
Layer 1
10
65.343829
20
-188.332633
11
68.685775
21
-189.794500
0
LINE
8
Layer 1
10
68.685775
20
-189.794500
11
72.090560
21
-191.084383
0
LINE
8
Layer 1
10
72.090560
20
-191.084383
11
75.557769
21
-192.202281
0
LINE
8
Layer 1
10
75.557769
20
-192.202281
11
79.086990
21
-193.148195
0
LINE
8
Layer 1
10
79.086990
20
-193.148195
11
82.677809
21
-193.922125
0
LINE
8
Layer 1
10
82.677809
20
-193.922125
11
86.329813
21
-194.524070
0
LINE
8
Layer 1
10
86.329813
20
-194.524070
11
90.042589
21
-194.954031
0
LINE
8
Layer 1
10
90.042589
20
-194.954031
11
93.815722
21
-195.212008
0
LINE
8
Layer 1
10
93.815722
20
-195.212008
11
97.648800
21
-195.298000
0
LINE
8
Layer 1
10
97.648800
20
-195.298000
11
101.472168
21
-195.211939
0
LINE
8
Layer 1
10
101.472168
20
-195.211939
11
105.216997
21
-194.953480
0
LINE
8
Layer 1
10
105.216997
20
-194.953480
11
108.884112
21
-194.522211
0
LINE
8
Layer 1
10
108.884112
20
-194.522211
11
112.474338
21
-193.917719
0
LINE
8
Layer 1
10
112.474338
20
-193.917719
11
115.988499
21
-193.139589
0
LINE
8
Layer 1
10
115.988499
20
-193.139589
11
119.427422
21
-192.187410
0
LINE
8
Layer 1
10
119.427422
20
-192.187410
11
122.791930
21
-191.060768
0
LINE
8
Layer 1
10
122.791930
20
-191.060768
11
126.082850
21
-189.759250
0
LINE
8
Layer 1
10
126.082850
20
-189.759250
11
129.301005
21
-188.282443
0
LINE
8
Layer 1
10
129.301005
20
-188.282443
11
132.447222
21
-186.629934
0
LINE
8
Layer 1
10
132.447222
20
-186.629934
11
135.522324
21
-184.801309
0
LINE
8
Layer 1
10
135.522324
20
-184.801309
11
138.527138
21
-182.796156
0
LINE
8
Layer 1
10
138.527138
20
-182.796156
11
141.462487
21
-180.614062
0
LINE
8
Layer 1
10
141.462487
20
-180.614062
11
144.329197
21
-178.254613
0
LINE
8
Layer 1
10
144.329197
20
-178.254613
11
147.128093
21
-175.717397
0
LINE
8
Layer 1
10
147.128093
20
-175.717397
11
149.860000
21
-173.002000
0
LINE
8
Layer 1
10
149.860000
20
-173.002000
11
152.475943
21
-170.263759
0
LINE
8
Layer 1
10
152.475943
20
-170.263759
11
154.926119
21
-167.446963
0
LINE
8
Layer 1
10
154.926119
20
-167.446963
11
157.210115
21
-164.552439
0
LINE
8
Layer 1
10
157.210115
20
-164.552439
11
159.327516
21
-161.581016
0
LINE
8
Layer 1
10
159.327516
20
-161.581016
11
161.277906
21
-158.533520
0
LINE
8
Layer 1
10
161.277906
20
-158.533520
11
163.060873
21
-155.410779
0
LINE
8
Layer 1
10
163.060873
20
-155.410779
11
164.676001
21
-152.213622
0
LINE
8
Layer 1
10
164.676001
20
-152.213622
11
166.122875
21
-148.942875
0
LINE
8
Layer 1
10
166.122875
20
-148.942875
11
167.401081
21
-145.599366
0
LINE
8
Layer 1
10
167.401081
20
-145.599366
11
168.510205
21
-142.183924
0
LINE
8
Layer 1
10
168.510205
20
-142.183924
11
169.449832
21
-138.697375
0
LINE
8
Layer 1
10
169.449832
20
-138.697375
11
170.219547
21
-135.140547
0
LINE
8
Layer 1
10
170.219547
20
-135.140547
11
170.818936
21
-131.514268
0
LINE
8
Layer 1
10
170.818936
20
-131.514268
11
171.247584
21
-127.819365
0
LINE
8
Layer 1
10
171.247584
20
-127.819365
11
171.505077
21
-124.056667
0
LINE
8
Layer 1
10
171.505077
20
-124.056667
11
171.591000
21
-120.227000
0
LINE
8
Layer 1
10
171.591000
20
-120.227000
11
171.508244
21
-116.301030
0
LINE
8
Layer 1
10
171.508244
20
-116.301030
11
171.259701
21
-112.460233
0
LINE
8
Layer 1
10
171.259701
20
-112.460233
11
170.844960
21
-108.703780
0
LINE
8
Layer 1
10
170.844960
20
-108.703780
11
170.263609
21
-105.030844
0
LINE
8
Layer 1
10
170.263609
20
-105.030844
11
169.515237
21
-101.440598
0
LINE
8
Layer 1
10
169.515237
20
-101.440598
11
168.599432
21
-97.932214
0
LINE
8
Layer 1
10
168.599432
20
-97.932214
11
167.515781
21
-94.504866
0
LINE
8
Layer 1
10
167.515781
20
-94.504866
11
166.263875
21
-91.157725
0
LINE
8
Layer 1
10
166.263875
20
-91.157725
11
164.843301
21
-87.889965
0
LINE
8
Layer 1
10
164.843301
20
-87.889965
11
163.253646
21
-84.700758
0
LINE
8
Layer 1
10
163.253646
20
-84.700758
11
161.494501
21
-81.589277
0
LINE
8
Layer 1
10
161.494501
20
-81.589277
11
159.565453
21
-78.554694
0
LINE
8
Layer 1
10
159.565453
20
-78.554694
11
157.466091
21
-75.596182
0
LINE
8
Layer 1
10
157.466091
20
-75.596182
11
155.196002
21
-72.712914
0
LINE
8
Layer 1
10
155.196002
20
-72.712914
11
152.754776
21
-69.904063
0
LINE
8
Layer 1
10
152.754776
20
-69.904063
11
150.142000
21
-67.168800
0
LINE
8
Layer 1
10
150.142000
20
-67.168800
11
147.456496
21
-64.503116
0
LINE
8
Layer 1
10
147.456496
20
-64.503116
11
144.691611
21
-62.009414
0
LINE
8
Layer 1
10
144.691611
20
-62.009414
11
141.847345
21
-59.687693
0
LINE
8
Layer 1
10
141.847345
20
-59.687693
11
138.923700
21
-57.537953
0
LINE
8
Layer 1
10
138.923700
20
-57.537953
11
135.920677
21
-55.560194
0
LINE
8
Layer 1
10
135.920677
20
-55.560194
11
132.838277
21
-53.754416
0
LINE
8
Layer 1
10
132.838277
20
-53.754416
11
129.676501
21
-52.120618
0
LINE
8
Layer 1
10
129.676501
20
-52.120618
11
126.435350
21
-50.658800
0
LINE
8
Layer 1
10
126.435350
20
-50.658800
11
123.114826
21
-49.368962
0
LINE
8
Layer 1
10
123.114826
20
-49.368962
11
119.714930
21
-48.251103
0
LINE
8
Layer 1
10
119.714930
20
-48.251103
11
116.235662
21
-47.305223
0
LINE
8
Layer 1
10
116.235662
20
-47.305223
11
112.677025
21
-46.531322
0
LINE
8
Layer 1
10
112.677025
20
-46.531322
11
109.039019
21
-45.929399
0
LINE
8
Layer 1
10
109.039019
20
-45.929399
11
105.321645
21
-45.499455
0
LINE
8
Layer 1
10
105.321645
20
-45.499455
11
101.524905
21
-45.241489
0
LINE
8
Layer 1
10
101.524905
20
-45.241489
11
97.648800
21
-45.155500
0
LINE
8
Layer 1
10
97.648800
20
-45.155500
11
97.648800
21
-45.155500
0
LINE
8
Layer 1
10
-1.128890
20
-45.719900
11
320.322000
21
-45.719900
0
LINE
8
Layer 1
10
320.322000
20
-45.719900
11
320.322000
21
-87.206500
0
LINE
8
Layer 1
10
320.322000
20
-87.206500
11
-1.128890
21
-87.206500
0
LINE
8
Layer 1
10
-1.128890
20
-87.206500
11
-1.128890
21
-45.719900
0
LINE
8
Layer 1
10
-1.128890
20
-45.719900
11
-1.128890
21
-45.719900
0
LINE
8
Layer 1
10
48.824400
20
-125.024000
11
49.016154
21
-133.573251
0
LINE
8
Layer 1
10
49.016154
20
-133.573251
11
49.591141
21
-141.969975
0
LINE
8
Layer 1
10
49.591141
20
-141.969975
11
50.548947
21
-150.213754
0
LINE
8
Layer 1
10
50.548947
20
-150.213754
11
51.889158
21
-158.304172
0
LINE
8
Layer 1
10
51.889158
20
-158.304172
11
53.611361
21
-166.240810
0
LINE
8
Layer 1
10
53.611361
20
-166.240810
11
55.715143
21
-174.023252
0
LINE
8
Layer 1
10
55.715143
20
-174.023252
11
58.200089
21
-181.651079
0
LINE
8
Layer 1
10
58.200089
20
-181.651079
11
61.065787
21
-189.123875
0
LINE
8
Layer 1
10
61.065787
20
-189.123875
11
64.311823
21
-196.441221
0
LINE
8
Layer 1
10
64.311823
20
-196.441221
11
67.937784
21
-203.602701
0
LINE
8
Layer 1
10
67.937784
20
-203.602701
11
71.943255
21
-210.607897
0
LINE
8
Layer 1
10
71.943255
20
-210.607897
11
76.327823
21
-217.456391
0
LINE
8
Layer 1
10
76.327823
20
-217.456391
11
81.091076
21
-224.147765
0
LINE
8
Layer 1
10
81.091076
20
-224.147765
11
86.232598
21
-230.681604
0
LINE
8
Layer 1
10
86.232598
20
-230.681604
11
91.751978
21
-237.057488
0
LINE
8
Layer 1
10
91.751978
20
-237.057488
11
97.648800
21
-243.275000
0
LINE
8
Layer 1
10
97.648800
20
-243.275000
11
103.863403
21
-249.171912
0
LINE
8
Layer 1
10
103.863403
20
-249.171912
11
110.230942
21
-254.691371
0
LINE
8
Layer 1
10
110.230942
20
-254.691371
11
116.752247
21
-259.832965
0
LINE
8
Layer 1
10
116.752247
20
-259.832965
11
123.428150
21
-264.596281
0
LINE
8
Layer 1
10
123.428150
20
-264.596281
11
130.259481
21
-268.980906
0
LINE
8
Layer 1
10
130.259481
20
-268.980906
11
137.247070
21
-272.986426
0
LINE
8
Layer 1
10
137.247070
20
-272.986426
11
144.391750
21
-276.612428
0
LINE
8
Layer 1
10
144.391750
20
-276.612428
11
151.694350
21
-279.858500
0
LINE
8
Layer 1
10
151.694350
20
-279.858500
11
159.155702
21
-282.724228
0
LINE
8
Layer 1
10
159.155702
20
-282.724228
11
166.776636
21
-285.209199
0
LINE
8
Layer 1
10
166.776636
20
-285.209199
11
174.557983
21
-287.313000
0
LINE
8
Layer 1
10
174.557983
20
-287.313000
11
182.500575
21
-289.035219
0
LINE
8
Layer 1
10
182.500575
20
-289.035219
11
190.605242
21
-290.375441
0
LINE
8
Layer 1
10
190.605242
20
-290.375441
11
198.872814
21
-291.333254
0
LINE
8
Layer 1
10
198.872814
20
-291.333254
11
207.304123
21
-291.908245
0
LINE
8
Layer 1
10
207.304123
20
-291.908245
11
215.900000
21
-292.100000
0
LINE
8
Layer 1
10
215.900000
20
-292.100000
11
224.446073
21
-291.908245
0
LINE
8
Layer 1
10
224.446073
20
-291.908245
11
232.833816
21
-291.333254
0
LINE
8
Layer 1
10
232.833816
20
-291.333254
11
241.063644
21
-290.375441
0
LINE
8
Layer 1
10
241.063644
20
-290.375441
11
249.135969
21
-289.035219
0
LINE
8
Layer 1
10
249.135969
20
-289.035219
11
257.051204
21
-287.313000
0
LINE
8
Layer 1
10
257.051204
20
-287.313000
11
264.809762
21
-285.209199
0
LINE
8
Layer 1
10
264.809762
20
-285.209199
11
272.412056
21
-282.724228
0
LINE
8
Layer 1
10
272.412056
20
-282.724228
11
279.858500
21
-279.858500
0
LINE
8
Layer 1
10
279.858500
20
-279.858500
11
287.149506
21
-276.612428
0
LINE
8
Layer 1
10
287.149506
20
-276.612428
11
294.285488
21
-272.986426
0
LINE
8
Layer 1
10
294.285488
20
-272.986426
11
301.266859
21
-268.980906
0
LINE
8
Layer 1
10
301.266859
20
-268.980906
11
308.094031
21
-264.596281
0
LINE
8
Layer 1
10
308.094031
20
-264.596281
11
314.767418
21
-259.832965
0
LINE
8
Layer 1
10
314.767418
20
-259.832965
11
321.287434
21
-254.691371
0
LINE
8
Layer 1
10
321.287434
20
-254.691371
11
327.654490
21
-249.171912
0
LINE
8
Layer 1
10
327.654490
20
-249.171912
11
333.869000
21
-243.275000
0
LINE
8
Layer 1
10
333.869000
20
-243.275000
11
339.815375
21
-237.057488
0
LINE
8
Layer 1
10
339.815375
20
-237.057488
11
345.378123
21
-230.681604
0
LINE
8
Layer 1
10
345.378123
20
-230.681604
11
350.557243
21
-224.147765
0
LINE
8
Layer 1
10
350.557243
20
-224.147765
11
355.352734
21
-217.456391
0
LINE
8
Layer 1
10
355.352734
20
-217.456391
11
359.764594
21
-210.607897
0
LINE
8
Layer 1
10
359.764594
20
-210.607897
11
363.792822
21
-203.602701
0
LINE
8
Layer 1
10
363.792822
20
-203.602701
11
367.437416
21
-196.441221
0
LINE
8
Layer 1
10
367.437416
20
-196.441221
11
370.698375
21
-189.123875
0
LINE
8
Layer 1
10
370.698375
20
-189.123875
11
373.575697
21
-181.651079
0
LINE
8
Layer 1
10
373.575697
20
-181.651079
11
376.069381
21
-174.023252
0
LINE
8
Layer 1
10
376.069381
20
-174.023252
11
378.179425
21
-166.240810
0
LINE
8
Layer 1
10
378.179425
20
-166.240810
11
379.905828
21
-158.304172
0
LINE
8
Layer 1
10
379.905828
20
-158.304172
11
381.248589
21
-150.213754
0
LINE
8
Layer 1
10
381.248589
20
-150.213754
11
382.207705
21
-141.969975
0
LINE
8
Layer 1
10
382.207705
20
-141.969975
11
382.783176
21
-133.573251
0
LINE
8
Layer 1
10
382.783176
20
-133.573251
11
382.975000
21
-125.024000
0
LINE
8
Layer 1
10
382.975000
20
-125.024000
11
382.783176
21
-116.474846
0
LINE
8
Layer 1
10
382.783176
20
-116.474846
11
382.207705
21
-108.078647
0
LINE
8
Layer 1
10
382.207705
20
-108.078647
11
381.248589
21
-99.836231
0
LINE
8
Layer 1
10
381.248589
20
-99.836231
11
379.905828
21
-91.748425
0
LINE
8
Layer 1
10
379.905828
20
-91.748425
11
378.179425
21
-83.816056
0
LINE
8
Layer 1
10
378.179425
20
-83.816056
11
376.069381
21
-76.039952
0
LINE
8
Layer 1
10
376.069381
20
-76.039952
11
373.575697
21
-68.420940
0
LINE
8
Layer 1
10
373.575697
20
-68.420940
11
370.698375
21
-60.959848
0
LINE
8
Layer 1
10
370.698375
20
-60.959848
11
367.437416
21
-53.657502
0
LINE
8
Layer 1
10
367.437416
20
-53.657502
11
363.792822
21
-46.514729
0
LINE
8
Layer 1
10
363.792822
20
-46.514729
11
359.764594
21
-39.532359
0
LINE
8
Layer 1
10
359.764594
20
-39.532359
11
355.352734
21
-32.711217
0
LINE
8
Layer 1
10
355.352734
20
-32.711217
11
350.557243
21
-26.052130
0
LINE
8
Layer 1
10
350.557243
20
-26.052130
11
345.378123
21
-19.555927
0
LINE
8
Layer 1
10
345.378123
20
-19.555927
11
339.815375
21
-13.223435
0
LINE
8
Layer 1
10
339.815375
20
-13.223435
11
333.869000
21
-7.055480
0
LINE
8
Layer 1
10
333.869000
20
-7.055480
11
327.654490
21
-1.108970
0
LINE
8
Layer 1
10
327.654490
20
-1.108970
11
321.287434
21
4.453892
0
LINE
8
Layer 1
10
321.287434
20
4.453892
11
314.767418
21
9.633107
0
LINE
8
Layer 1
10
314.767418
20
9.633107
11
308.094031
21
14.428674
0
LINE
8
Layer 1
10
308.094031
20
14.428674
11
301.266859
21
18.840595
0
LINE
8
Layer 1
10
301.266859
20
18.840595
11
294.285488
21
22.868869
0
LINE
8
Layer 1
10
294.285488
20
22.868869
11
287.149506
21
26.513496
0
LINE
8
Layer 1
10
287.149506
20
26.513496
11
279.858500
21
29.774477
0
LINE
8
Layer 1
10
279.858500
20
29.774477
11
272.412056
21
32.651813
0
LINE
8
Layer 1
10
272.412056
20
32.651813
11
264.809762
21
35.145503
0
LINE
8
Layer 1
10
264.809762
20
35.145503
11
257.051204
21
37.255548
0
LINE
8
Layer 1
10
257.051204
20
37.255548
11
249.135969
21
38.981947
0
LINE
8
Layer 1
10
249.135969
20
38.981947
11
241.063644
21
40.324702
0
LINE
8
Layer 1
10
241.063644
20
40.324702
11
232.833816
21
41.283812
0
LINE
8
Layer 1
10
232.833816
20
41.283812
11
224.446073
21
41.859278
0
LINE
8
Layer 1
10
224.446073
20
41.859278
11
215.900000
21
42.051100
0
LINE
8
Layer 1
10
215.900000
20
42.051100
11
207.304123
21
41.859278
0
LINE
8
Layer 1
10
207.304123
20
41.859278
11
198.872814
21
41.283812
0
LINE
8
Layer 1
10
198.872814
20
41.283812
11
190.605242
21
40.324702
0
LINE
8
Layer 1
10
190.605242
20
40.324702
11
182.500575
21
38.981947
0
LINE
8
Layer 1
10
182.500575
20
38.981947
11
174.557983
21
37.255548
0
LINE
8
Layer 1
10
174.557983
20
37.255548
11
166.776636
21
35.145503
0
LINE
8
Layer 1
10
166.776636
20
35.145503
11
159.155702
21
32.651813
0
LINE
8
Layer 1
10
159.155702
20
32.651813
11
151.694350
21
29.774477
0
LINE
8
Layer 1
10
151.694350
20
29.774477
11
144.391750
21
26.513496
0
LINE
8
Layer 1
10
144.391750
20
26.513496
11
137.247070
21
22.868869
0
LINE
8
Layer 1
10
137.247070
20
22.868869
11
130.259481
21
18.840595
0
LINE
8
Layer 1
10
130.259481
20
18.840595
11
123.428150
21
14.428674
0
LINE
8
Layer 1
10
123.428150
20
14.428674
11
116.752247
21
9.633107
0
LINE
8
Layer 1
10
116.752247
20
9.633107
11
110.230942
21
4.453892
0
LINE
8
Layer 1
10
110.230942
20
4.453892
11
103.863403
21
-1.108970
0
LINE
8
Layer 1
10
103.863403
20
-1.108970
11
97.648800
21
-7.055480
0
LINE
8
Layer 1
10
97.648800
20
-7.055480
11
91.751978
21
-13.223435
0
LINE
8
Layer 1
10
91.751978
20
-13.223435
11
86.232598
21
-19.555927
0
LINE
8
Layer 1
10
86.232598
20
-19.555927
11
81.091076
21
-26.052130
0
LINE
8
Layer 1
10
81.091076
20
-26.052130
11
76.327823
21
-32.711217
0
LINE
8
Layer 1
10
76.327823
20
-32.711217
11
71.943255
21
-39.532359
0
LINE
8
Layer 1
10
71.943255
20
-39.532359
11
67.937784
21
-46.514729
0
LINE
8
Layer 1
10
67.937784
20
-46.514729
11
64.311823
21
-53.657502
0
LINE
8
Layer 1
10
64.311823
20
-53.657502
11
61.065787
21
-60.959848
0
LINE
8
Layer 1
10
61.065787
20
-60.959848
11
58.200089
21
-68.420940
0
LINE
8
Layer 1
10
58.200089
20
-68.420940
11
55.715143
21
-76.039952
0
LINE
8
Layer 1
10
55.715143
20
-76.039952
11
53.611361
21
-83.816056
0
LINE
8
Layer 1
10
53.611361
20
-83.816056
11
51.889158
21
-91.748425
0
LINE
8
Layer 1
10
51.889158
20
-91.748425
11
50.548947
21
-99.836231
0
LINE
8
Layer 1
10
50.548947
20
-99.836231
11
49.591141
21
-108.078647
0
LINE
8
Layer 1
10
49.591141
20
-108.078647
11
49.016154
21
-116.474846
0
LINE
8
Layer 1
10
49.016154
20
-116.474846
11
48.824400
21
-125.024000
0
LINE
8
Layer 1
10
48.824400
20
-125.024000
11
48.824400
21
-125.024000
0
LINE
8
Layer 1
10
2276.400000
20
-2596.160000
11
2814.040000
21
-2596.160000
0
LINE
8
Layer 1
10
2814.040000
20
-2596.160000
11
2814.040000
21
-2868.500000
0
LINE
8
Layer 1
10
2814.040000
20
-2868.500000
11
2276.400000
21
-2868.500000
0
LINE
8
Layer 1
10
2276.400000
20
-2868.500000
11
2276.400000
21
-2596.160000
0
LINE
8
Layer 1
10
2814.040000
20
-2596.160000
11
3239.630000
21
-2596.160000
0
LINE
8
Layer 1
10
3239.630000
20
-2596.160000
11
3239.630000
21
-2868.500000
0
LINE
8
Layer 1
10
3239.630000
20
-2868.500000
11
2814.040000
21
-2868.500000
0
LINE
8
Layer 1
10
2814.040000
20
-2868.500000
11
2814.040000
21
-2596.160000
0
LINE
8
Layer 1
10
3239.630000
20
-2596.160000
11
3657.880000
21
-2596.160000
0
LINE
8
Layer 1
10
3657.880000
20
-2596.160000
11
3657.880000
21
-2868.500000
0
LINE
8
Layer 1
10
3657.880000
20
-2868.500000
11
3239.630000
21
-2868.500000
0
LINE
8
Layer 1
10
3239.630000
20
-2868.500000
11
3239.630000
21
-2596.160000
0
LINE
8
Layer 1
10
2276.400000
20
-2868.500000
11
2814.040000
21
-2868.500000
0
LINE
8
Layer 1
10
2814.040000
20
-2868.500000
11
2814.040000
21
-3143.390000
0
LINE
8
Layer 1
10
2814.040000
20
-3143.390000
11
2276.400000
21
-3143.390000
0
LINE
8
Layer 1
10
2276.400000
20
-3143.390000
11
2276.400000
21
-2868.500000
0
LINE
8
Layer 1
10
2814.040000
20
-2868.500000
11
3239.630000
21
-2868.500000
0
LINE
8
Layer 1
10
3239.630000
20
-2868.500000
11
3239.630000
21
-3143.390000
0
LINE
8
Layer 1
10
3239.630000
20
-3143.390000
11
2814.040000
21
-3143.390000
0
LINE
8
Layer 1
10
2814.040000
20
-3143.390000
11
2814.040000
21
-2868.500000
0
LINE
8
Layer 1
10
3239.630000
20
-2868.500000
11
3657.880000
21
-2868.500000
0
LINE
8
Layer 1
10
3657.880000
20
-2868.500000
11
3657.880000
21
-3143.390000
0
LINE
8
Layer 1
10
3657.880000
20
-3143.390000
11
3239.630000
21
-3143.390000
0
LINE
8
Layer 1
10
3239.630000
20
-3143.390000
11
3239.630000
21
-2868.500000
0
LINE
8
Layer 1
10
2276.400000
20
-3143.390000
11
2814.040000
21
-3143.390000
0
LINE
8
Layer 1
10
2814.040000
20
-3143.390000
11
2814.040000
21
-3418.270000
0
LINE
8
Layer 1
10
2814.040000
20
-3418.270000
11
2276.400000
21
-3418.270000
0
LINE
8
Layer 1
10
2276.400000
20
-3418.270000
11
2276.400000
21
-3143.390000
0
LINE
8
Layer 1
10
2814.040000
20
-3143.390000
11
3239.630000
21
-3143.390000
0
LINE
8
Layer 1
10
3239.630000
20
-3143.390000
11
3239.630000
21
-3418.270000
0
LINE
8
Layer 1
10
3239.630000
20
-3418.270000
11
2814.040000
21
-3418.270000
0
LINE
8
Layer 1
10
2814.040000
20
-3418.270000
11
2814.040000
21
-3143.390000
0
LINE
8
Layer 1
10
3239.630000
20
-3143.390000
11
3657.880000
21
-3143.390000
0
LINE
8
Layer 1
10
3657.880000
20
-3143.390000
11
3657.880000
21
-3418.270000
0
LINE
8
Layer 1
10
3657.880000
20
-3418.270000
11
3239.630000
21
-3418.270000
0
LINE
8
Layer 1
10
3239.630000
20
-3418.270000
11
3239.630000
21
-3143.390000
0
LINE
8
Layer 1
10
2276.400000
20
-3418.270000
11
2814.040000
21
-3418.270000
0
LINE
8
Layer 1
10
2814.040000
20
-3418.270000
11
2814.040000
21
-3693.160000
0
LINE
8
Layer 1
10
2814.040000
20
-3693.160000
11
2276.400000
21
-3693.160000
0
LINE
8
Layer 1
10
2276.400000
20
-3693.160000
11
2276.400000
21
-3418.270000
0
LINE
8
Layer 1
10
2814.040000
20
-3418.270000
11
3657.880000
21
-3418.270000
0
LINE
8
Layer 1
10
3657.880000
20
-3418.270000
11
3657.880000
21
-3693.160000
0
LINE
8
Layer 1
10
3657.880000
20
-3693.160000
11
2814.040000
21
-3693.160000
0
LINE
8
Layer 1
10
2814.040000
20
-3693.160000
11
2814.040000
21
-3418.270000
0
LINE
8
Layer 1
10
2276.400000
20
-3693.160000
11
2814.040000
21
-3693.160000
0
LINE
8
Layer 1
10
2814.040000
20
-3693.160000
11
2814.040000
21
-3968.040000
0
LINE
8
Layer 1
10
2814.040000
20
-3968.040000
11
2276.400000
21
-3968.040000
0
LINE
8
Layer 1
10
2276.400000
20
-3968.040000
11
2276.400000
21
-3693.160000
0
LINE
8
Layer 1
10
2814.040000
20
-3693.160000
11
3657.880000
21
-3693.160000
0
LINE
8
Layer 1
10
3657.880000
20
-3693.160000
11
3657.880000
21
-3968.040000
0
LINE
8
Layer 1
10
3657.880000
20
-3968.040000
11
2814.040000
21
-3968.040000
0
LINE
8
Layer 1
10
2814.040000
20
-3968.040000
11
2814.040000
21
-3693.160000
0
LINE
8
Layer 1
10
2276.400000
20
-3968.040000
11
2814.040000
21
-3968.040000
0
LINE
8
Layer 1
10
2814.040000
20
-3968.040000
11
2814.040000
21
-4242.930000
0
LINE
8
Layer 1
10
2814.040000
20
-4242.930000
11
2276.400000
21
-4242.930000
0
LINE
8
Layer 1
10
2276.400000
20
-4242.930000
11
2276.400000
21
-3968.040000
0
LINE
8
Layer 1
10
2814.040000
20
-3968.040000
11
3657.880000
21
-3968.040000
0
LINE
8
Layer 1
10
3657.880000
20
-3968.040000
11
3657.880000
21
-4242.930000
0
LINE
8
Layer 1
10
3657.880000
20
-4242.930000
11
2814.040000
21
-4242.930000
0
LINE
8
Layer 1
10
2814.040000
20
-4242.930000
11
2814.040000
21
-3968.040000
0
LINE
8
Layer 1
10
2276.400000
20
-4242.930000
11
2814.040000
21
-4242.930000
0
LINE
8
Layer 1
10
2814.040000
20
-4242.930000
11
2814.040000
21
-4517.810000
0
LINE
8
Layer 1
10
2814.040000
20
-4517.810000
11
2276.400000
21
-4517.810000
0
LINE
8
Layer 1
10
2276.400000
20
-4517.810000
11
2276.400000
21
-4242.930000
0
LINE
8
Layer 1
10
2814.040000
20
-4242.930000
11
3657.880000
21
-4242.930000
0
LINE
8
Layer 1
10
3657.880000
20
-4242.930000
11
3657.880000
21
-4517.810000
0
LINE
8
Layer 1
10
3657.880000
20
-4517.810000
11
2814.040000
21
-4517.810000
0
LINE
8
Layer 1
10
2814.040000
20
-4517.810000
11
2814.040000
21
-4242.930000
0
LINE
8
Layer 1
10
2276.400000
20
-4517.810000
11
2814.040000
21
-4517.810000
0
LINE
8
Layer 1
10
2814.040000
20
-4517.810000
11
2814.040000
21
-4792.690000
0
LINE
8
Layer 1
10
2814.040000
20
-4792.690000
11
2276.400000
21
-4792.690000
0
LINE
8
Layer 1
10
2276.400000
20
-4792.690000
11
2276.400000
21
-4517.810000
0
LINE
8
Layer 1
10
2814.040000
20
-4517.810000
11
3657.880000
21
-4517.810000
0
LINE
8
Layer 1
10
3657.880000
20
-4517.810000
11
3657.880000
21
-4792.690000
0
LINE
8
Layer 1
10
3657.880000
20
-4792.690000
11
2814.040000
21
-4792.690000
0
LINE
8
Layer 1
10
2814.040000
20
-4792.690000
11
2814.040000
21
-4517.810000
0
LINE
8
Layer 1
10
2276.400000
20
-4792.690000
11
2814.040000
21
-4792.690000
0
LINE
8
Layer 1
10
2814.040000
20
-4792.690000
11
2814.040000
21
-5067.580000
0
LINE
8
Layer 1
10
2814.040000
20
-5067.580000
11
2276.400000
21
-5067.580000
0
LINE
8
Layer 1
10
2276.400000
20
-5067.580000
11
2276.400000
21
-4792.690000
0
LINE
8
Layer 1
10
2814.040000
20
-4792.690000
11
3657.880000
21
-4792.690000
0
LINE
8
Layer 1
10
3657.880000
20
-4792.690000
11
3657.880000
21
-5067.580000
0
LINE
8
Layer 1
10
3657.880000
20
-5067.580000
11
2814.040000
21
-5067.580000
0
LINE
8
Layer 1
10
2814.040000
20
-5067.580000
11
2814.040000
21
-4792.690000
0
LINE
8
Layer 1
10
2276.400000
20
-5067.580000
11
2814.040000
21
-5067.580000
0
LINE
8
Layer 1
10
2814.040000
20
-5067.580000
11
2814.040000
21
-5342.460000
0
LINE
8
Layer 1
10
2814.040000
20
-5342.460000
11
2276.400000
21
-5342.460000
0
LINE
8
Layer 1
10
2276.400000
20
-5342.460000
11
2276.400000
21
-5067.580000
0
LINE
8
Layer 1
10
2814.040000
20
-5067.580000
11
3657.880000
21
-5067.580000
0
LINE
8
Layer 1
10
3657.880000
20
-5067.580000
11
3657.880000
21
-5342.460000
0
LINE
8
Layer 1
10
3657.880000
20
-5342.460000
11
2814.040000
21
-5342.460000
0
LINE
8
Layer 1
10
2814.040000
20
-5342.460000
11
2814.040000
21
-5067.580000
0
LINE
8
Layer 1
10
2276.400000
20
-5342.460000
11
2814.040000
21
-5342.460000
0
LINE
8
Layer 1
10
2814.040000
20
-5342.460000
11
2814.040000
21
-5619.890000
0
LINE
8
Layer 1
10
2814.040000
20
-5619.890000
11
2276.400000
21
-5619.890000
0
LINE
8
Layer 1
10
2276.400000
20
-5619.890000
11
2276.400000
21
-5342.460000
0
LINE
8
Layer 1
10
2814.040000
20
-5342.460000
11
3657.880000
21
-5342.460000
0
LINE
8
Layer 1
10
3657.880000
20
-5342.460000
11
3657.880000
21
-5619.890000
0
LINE
8
Layer 1
10
3657.880000
20
-5619.890000
11
2814.040000
21
-5619.890000
0
LINE
8
Layer 1
10
2814.040000
20
-5619.890000
11
2814.040000
21
-5342.460000
0
LINE
8
Layer 1
10
2272.730000
20
-2596.160000
11
3661.550000
21
-2596.160000
0
LINE
8
Layer 1
10
2276.400000
20
-2592.490000
11
2276.400000
21
-5623.560000
0
LINE
8
Layer 1
10
2814.040000
20
-2592.490000
11
2814.040000
21
-5623.560000
0
LINE
8
Layer 1
10
3239.630000
20
-2592.490000
11
3239.630000
21
-3421.940000
0
LINE
8
Layer 1
10
3657.880000
20
-2592.490000
11
3657.880000
21
-5623.560000
0
LINE
8
Layer 1
10
2272.730000
20
-2868.500000
11
3661.550000
21
-2868.500000
0
LINE
8
Layer 1
10
2272.730000
20
-3143.390000
11
3661.550000
21
-3143.390000
0
LINE
8
Layer 1
10
2272.730000
20
-3418.270000
11
3661.550000
21
-3418.270000
0
LINE
8
Layer 1
10
2272.730000
20
-3693.160000
11
3661.550000
21
-3693.160000
0
LINE
8
Layer 1
10
2272.730000
20
-3968.040000
11
3661.550000
21
-3968.040000
0
LINE
8
Layer 1
10
2272.730000
20
-4242.930000
11
3661.550000
21
-4242.930000
0
LINE
8
Layer 1
10
2272.730000
20
-4517.810000
11
3661.550000
21
-4517.810000
0
LINE
8
Layer 1
10
2272.730000
20
-4792.690000
11
3661.550000
21
-4792.690000
0
LINE
8
Layer 1
10
2272.730000
20
-5067.580000
11
3661.550000
21
-5067.580000
0
LINE
8
Layer 1
10
2272.730000
20
-5342.460000
11
3661.550000
21
-5342.460000
0
LINE
8
Layer 1
10
2272.730000
20
-5619.890000
11
3661.550000
21
-5619.890000
 0 
ENDSEC
 0 
EOF